<?xml version="1.0" encoding="utf-8" standalone="no"?>
<!DOCTYPE svg PUBLIC "-//W3C//DTD SVG 1.1//EN"
  "http://www.w3.org/Graphics/SVG/1.1/DTD/svg11.dtd">
<svg xmlns:xlink="http://www.w3.org/1999/xlink" width="766.519602pt" height="280.142031pt" viewBox="0 0 766.519602 280.142031" xmlns="http://www.w3.org/2000/svg" version="1.1">
 <metadata>
  <rdf:RDF xmlns:dc="http://purl.org/dc/elements/1.1/" xmlns:cc="http://creativecommons.org/ns#" xmlns:rdf="http://www.w3.org/1999/02/22-rdf-syntax-ns#">
   <cc:Work>
    <dc:type rdf:resource="http://purl.org/dc/dcmitype/StillImage"/>
    <dc:date>2024-01-08T16:49:17.349722</dc:date>
    <dc:format>image/svg+xml</dc:format>
    <dc:creator>
     <cc:Agent>
      <dc:title>Matplotlib v3.7.2, https://matplotlib.org/</dc:title>
     </cc:Agent>
    </dc:creator>
   </cc:Work>
  </rdf:RDF>
 </metadata>
 <defs>
  <style type="text/css">*{stroke-linejoin: round; stroke-linecap: butt}</style>
 </defs>
 <g id="figure_1">
  <g id="patch_1">
   <path d="M 0 280.142031 
L 766.519602 280.142031 
L 766.519602 0 
L 0 0 
z
" style="fill: #ffffff"/>
  </g>
  <g id="axes_1">
   <g id="patch_2">
    <path d="M 63.485625 234.278906 
L 255.485625 234.278906 
L 255.485625 12.518906 
L 63.485625 12.518906 
z
" style="fill: #ffffff"/>
   </g>
   <g id="matplotlib.axis_1">
    <g id="xtick_1">
     <g id="line2d_1">
      <path d="M 72.212898 234.278906 
L 72.212898 12.518906 
" clip-path="url(#p65eb54c0f7)" style="fill: none; stroke: #cccccc; stroke-linecap: round"/>
     </g>
     <g id="text_1">
      <!-- 5 -->
      <g style="fill: #262626" transform="translate(67.759148 254.416719) scale(0.14 -0.14)">
       <defs>
        <path id="DejaVuSans-35" d="M 691 4666 
L 3169 4666 
L 3169 4134 
L 1269 4134 
L 1269 2991 
Q 1406 3038 1543 3061 
Q 1681 3084 1819 3084 
Q 2600 3084 3056 2656 
Q 3513 2228 3513 1497 
Q 3513 744 3044 326 
Q 2575 -91 1722 -91 
Q 1428 -91 1123 -41 
Q 819 9 494 109 
L 494 744 
Q 775 591 1075 516 
Q 1375 441 1709 441 
Q 2250 441 2565 725 
Q 2881 1009 2881 1497 
Q 2881 1984 2565 2268 
Q 2250 2553 1709 2553 
Q 1456 2553 1204 2497 
Q 953 2441 691 2322 
L 691 4666 
z
" transform="scale(0.015625)"/>
       </defs>
       <use xlink:href="#DejaVuSans-35"/>
      </g>
     </g>
    </g>
    <g id="xtick_2">
     <g id="line2d_2">
      <path d="M 99.772706 234.278906 
L 99.772706 12.518906 
" clip-path="url(#p65eb54c0f7)" style="fill: none; stroke: #cccccc; stroke-linecap: round"/>
     </g>
     <g id="text_2">
      <!-- 20 -->
      <g style="fill: #262626" transform="translate(90.865206 254.416719) scale(0.14 -0.14)">
       <defs>
        <path id="DejaVuSans-32" d="M 1228 531 
L 3431 531 
L 3431 0 
L 469 0 
L 469 531 
Q 828 903 1448 1529 
Q 2069 2156 2228 2338 
Q 2531 2678 2651 2914 
Q 2772 3150 2772 3378 
Q 2772 3750 2511 3984 
Q 2250 4219 1831 4219 
Q 1534 4219 1204 4116 
Q 875 4013 500 3803 
L 500 4441 
Q 881 4594 1212 4672 
Q 1544 4750 1819 4750 
Q 2544 4750 2975 4387 
Q 3406 4025 3406 3419 
Q 3406 3131 3298 2873 
Q 3191 2616 2906 2266 
Q 2828 2175 2409 1742 
Q 1991 1309 1228 531 
z
" transform="scale(0.015625)"/>
        <path id="DejaVuSans-30" d="M 2034 4250 
Q 1547 4250 1301 3770 
Q 1056 3291 1056 2328 
Q 1056 1369 1301 889 
Q 1547 409 2034 409 
Q 2525 409 2770 889 
Q 3016 1369 3016 2328 
Q 3016 3291 2770 3770 
Q 2525 4250 2034 4250 
z
M 2034 4750 
Q 2819 4750 3233 4129 
Q 3647 3509 3647 2328 
Q 3647 1150 3233 529 
Q 2819 -91 2034 -91 
Q 1250 -91 836 529 
Q 422 1150 422 2328 
Q 422 3509 836 4129 
Q 1250 4750 2034 4750 
z
" transform="scale(0.015625)"/>
       </defs>
       <use xlink:href="#DejaVuSans-32"/>
       <use xlink:href="#DejaVuSans-30" x="63.623047"/>
      </g>
     </g>
    </g>
    <g id="xtick_3">
     <g id="line2d_3">
      <path d="M 136.519118 234.278906 
L 136.519118 12.518906 
" clip-path="url(#p65eb54c0f7)" style="fill: none; stroke: #cccccc; stroke-linecap: round"/>
     </g>
     <g id="text_3">
      <!-- 40 -->
      <g style="fill: #262626" transform="translate(127.611618 254.416719) scale(0.14 -0.14)">
       <defs>
        <path id="DejaVuSans-34" d="M 2419 4116 
L 825 1625 
L 2419 1625 
L 2419 4116 
z
M 2253 4666 
L 3047 4666 
L 3047 1625 
L 3713 1625 
L 3713 1100 
L 3047 1100 
L 3047 0 
L 2419 0 
L 2419 1100 
L 313 1100 
L 313 1709 
L 2253 4666 
z
" transform="scale(0.015625)"/>
       </defs>
       <use xlink:href="#DejaVuSans-34"/>
       <use xlink:href="#DejaVuSans-30" x="63.623047"/>
      </g>
     </g>
    </g>
    <g id="xtick_4">
     <g id="line2d_4">
      <path d="M 173.265529 234.278906 
L 173.265529 12.518906 
" clip-path="url(#p65eb54c0f7)" style="fill: none; stroke: #cccccc; stroke-linecap: round"/>
     </g>
     <g id="text_4">
      <!-- 60 -->
      <g style="fill: #262626" transform="translate(164.358029 254.416719) scale(0.14 -0.14)">
       <defs>
        <path id="DejaVuSans-36" d="M 2113 2584 
Q 1688 2584 1439 2293 
Q 1191 2003 1191 1497 
Q 1191 994 1439 701 
Q 1688 409 2113 409 
Q 2538 409 2786 701 
Q 3034 994 3034 1497 
Q 3034 2003 2786 2293 
Q 2538 2584 2113 2584 
z
M 3366 4563 
L 3366 3988 
Q 3128 4100 2886 4159 
Q 2644 4219 2406 4219 
Q 1781 4219 1451 3797 
Q 1122 3375 1075 2522 
Q 1259 2794 1537 2939 
Q 1816 3084 2150 3084 
Q 2853 3084 3261 2657 
Q 3669 2231 3669 1497 
Q 3669 778 3244 343 
Q 2819 -91 2113 -91 
Q 1303 -91 875 529 
Q 447 1150 447 2328 
Q 447 3434 972 4092 
Q 1497 4750 2381 4750 
Q 2619 4750 2861 4703 
Q 3103 4656 3366 4563 
z
" transform="scale(0.015625)"/>
       </defs>
       <use xlink:href="#DejaVuSans-36"/>
       <use xlink:href="#DejaVuSans-30" x="63.623047"/>
      </g>
     </g>
    </g>
    <g id="xtick_5">
     <g id="line2d_5">
      <path d="M 210.011941 234.278906 
L 210.011941 12.518906 
" clip-path="url(#p65eb54c0f7)" style="fill: none; stroke: #cccccc; stroke-linecap: round"/>
     </g>
     <g id="text_5">
      <!-- 80 -->
      <g style="fill: #262626" transform="translate(201.104441 254.416719) scale(0.14 -0.14)">
       <defs>
        <path id="DejaVuSans-38" d="M 2034 2216 
Q 1584 2216 1326 1975 
Q 1069 1734 1069 1313 
Q 1069 891 1326 650 
Q 1584 409 2034 409 
Q 2484 409 2743 651 
Q 3003 894 3003 1313 
Q 3003 1734 2745 1975 
Q 2488 2216 2034 2216 
z
M 1403 2484 
Q 997 2584 770 2862 
Q 544 3141 544 3541 
Q 544 4100 942 4425 
Q 1341 4750 2034 4750 
Q 2731 4750 3128 4425 
Q 3525 4100 3525 3541 
Q 3525 3141 3298 2862 
Q 3072 2584 2669 2484 
Q 3125 2378 3379 2068 
Q 3634 1759 3634 1313 
Q 3634 634 3220 271 
Q 2806 -91 2034 -91 
Q 1263 -91 848 271 
Q 434 634 434 1313 
Q 434 1759 690 2068 
Q 947 2378 1403 2484 
z
M 1172 3481 
Q 1172 3119 1398 2916 
Q 1625 2713 2034 2713 
Q 2441 2713 2670 2916 
Q 2900 3119 2900 3481 
Q 2900 3844 2670 4047 
Q 2441 4250 2034 4250 
Q 1625 4250 1398 4047 
Q 1172 3844 1172 3481 
z
" transform="scale(0.015625)"/>
       </defs>
       <use xlink:href="#DejaVuSans-38"/>
       <use xlink:href="#DejaVuSans-30" x="63.623047"/>
      </g>
     </g>
    </g>
    <g id="xtick_6">
     <g id="line2d_6">
      <path d="M 246.758352 234.278906 
L 246.758352 12.518906 
" clip-path="url(#p65eb54c0f7)" style="fill: none; stroke: #cccccc; stroke-linecap: round"/>
     </g>
     <g id="text_6">
      <!-- 100 -->
      <g style="fill: #262626" transform="translate(233.397102 254.416719) scale(0.14 -0.14)">
       <defs>
        <path id="DejaVuSans-31" d="M 794 531 
L 1825 531 
L 1825 4091 
L 703 3866 
L 703 4441 
L 1819 4666 
L 2450 4666 
L 2450 531 
L 3481 531 
L 3481 0 
L 794 0 
L 794 531 
z
" transform="scale(0.015625)"/>
       </defs>
       <use xlink:href="#DejaVuSans-31"/>
       <use xlink:href="#DejaVuSans-30" x="63.623047"/>
       <use xlink:href="#DejaVuSans-30" x="127.246094"/>
      </g>
     </g>
    </g>
    <g id="text_7">
     <!--   -->
     <g style="fill: #262626" transform="translate(157.57875 270.446406) scale(0.12 -0.12)">
      <defs>
       <path id="DejaVuSans-20" transform="scale(0.015625)"/>
      </defs>
      <use xlink:href="#DejaVuSans-20"/>
     </g>
    </g>
   </g>
   <g id="matplotlib.axis_2">
    <g id="ytick_1">
     <g id="line2d_7">
      <path d="M 63.485625 234.278906 
L 255.485625 234.278906 
" clip-path="url(#p65eb54c0f7)" style="fill: none; stroke: #cccccc; stroke-linecap: round"/>
     </g>
     <g id="text_8">
      <!-- 0.70 -->
      <g style="fill: #262626" transform="translate(22.81375 239.597812) scale(0.14 -0.14)">
       <defs>
        <path id="DejaVuSans-2e" d="M 684 794 
L 1344 794 
L 1344 0 
L 684 0 
L 684 794 
z
" transform="scale(0.015625)"/>
        <path id="DejaVuSans-37" d="M 525 4666 
L 3525 4666 
L 3525 4397 
L 1831 0 
L 1172 0 
L 2766 4134 
L 525 4134 
L 525 4666 
z
" transform="scale(0.015625)"/>
       </defs>
       <use xlink:href="#DejaVuSans-30"/>
       <use xlink:href="#DejaVuSans-2e" x="63.623047"/>
       <use xlink:href="#DejaVuSans-37" x="95.410156"/>
       <use xlink:href="#DejaVuSans-30" x="159.033203"/>
      </g>
     </g>
    </g>
    <g id="ytick_2">
     <g id="line2d_8">
      <path d="M 63.485625 197.318906 
L 255.485625 197.318906 
" clip-path="url(#p65eb54c0f7)" style="fill: none; stroke: #cccccc; stroke-linecap: round"/>
     </g>
     <g id="text_9">
      <!-- 0.75 -->
      <g style="fill: #262626" transform="translate(22.81375 202.637812) scale(0.14 -0.14)">
       <use xlink:href="#DejaVuSans-30"/>
       <use xlink:href="#DejaVuSans-2e" x="63.623047"/>
       <use xlink:href="#DejaVuSans-37" x="95.410156"/>
       <use xlink:href="#DejaVuSans-35" x="159.033203"/>
      </g>
     </g>
    </g>
    <g id="ytick_3">
     <g id="line2d_9">
      <path d="M 63.485625 160.358906 
L 255.485625 160.358906 
" clip-path="url(#p65eb54c0f7)" style="fill: none; stroke: #cccccc; stroke-linecap: round"/>
     </g>
     <g id="text_10">
      <!-- 0.80 -->
      <g style="fill: #262626" transform="translate(22.81375 165.677812) scale(0.14 -0.14)">
       <use xlink:href="#DejaVuSans-30"/>
       <use xlink:href="#DejaVuSans-2e" x="63.623047"/>
       <use xlink:href="#DejaVuSans-38" x="95.410156"/>
       <use xlink:href="#DejaVuSans-30" x="159.033203"/>
      </g>
     </g>
    </g>
    <g id="ytick_4">
     <g id="line2d_10">
      <path d="M 63.485625 123.398906 
L 255.485625 123.398906 
" clip-path="url(#p65eb54c0f7)" style="fill: none; stroke: #cccccc; stroke-linecap: round"/>
     </g>
     <g id="text_11">
      <!-- 0.85 -->
      <g style="fill: #262626" transform="translate(22.81375 128.717812) scale(0.14 -0.14)">
       <use xlink:href="#DejaVuSans-30"/>
       <use xlink:href="#DejaVuSans-2e" x="63.623047"/>
       <use xlink:href="#DejaVuSans-38" x="95.410156"/>
       <use xlink:href="#DejaVuSans-35" x="159.033203"/>
      </g>
     </g>
    </g>
    <g id="ytick_5">
     <g id="line2d_11">
      <path d="M 63.485625 86.438906 
L 255.485625 86.438906 
" clip-path="url(#p65eb54c0f7)" style="fill: none; stroke: #cccccc; stroke-linecap: round"/>
     </g>
     <g id="text_12">
      <!-- 0.90 -->
      <g style="fill: #262626" transform="translate(22.81375 91.757812) scale(0.14 -0.14)">
       <defs>
        <path id="DejaVuSans-39" d="M 703 97 
L 703 672 
Q 941 559 1184 500 
Q 1428 441 1663 441 
Q 2288 441 2617 861 
Q 2947 1281 2994 2138 
Q 2813 1869 2534 1725 
Q 2256 1581 1919 1581 
Q 1219 1581 811 2004 
Q 403 2428 403 3163 
Q 403 3881 828 4315 
Q 1253 4750 1959 4750 
Q 2769 4750 3195 4129 
Q 3622 3509 3622 2328 
Q 3622 1225 3098 567 
Q 2575 -91 1691 -91 
Q 1453 -91 1209 -44 
Q 966 3 703 97 
z
M 1959 2075 
Q 2384 2075 2632 2365 
Q 2881 2656 2881 3163 
Q 2881 3666 2632 3958 
Q 2384 4250 1959 4250 
Q 1534 4250 1286 3958 
Q 1038 3666 1038 3163 
Q 1038 2656 1286 2365 
Q 1534 2075 1959 2075 
z
" transform="scale(0.015625)"/>
       </defs>
       <use xlink:href="#DejaVuSans-30"/>
       <use xlink:href="#DejaVuSans-2e" x="63.623047"/>
       <use xlink:href="#DejaVuSans-39" x="95.410156"/>
       <use xlink:href="#DejaVuSans-30" x="159.033203"/>
      </g>
     </g>
    </g>
    <g id="ytick_6">
     <g id="line2d_12">
      <path d="M 63.485625 49.478906 
L 255.485625 49.478906 
" clip-path="url(#p65eb54c0f7)" style="fill: none; stroke: #cccccc; stroke-linecap: round"/>
     </g>
     <g id="text_13">
      <!-- 0.95 -->
      <g style="fill: #262626" transform="translate(22.81375 54.797812) scale(0.14 -0.14)">
       <use xlink:href="#DejaVuSans-30"/>
       <use xlink:href="#DejaVuSans-2e" x="63.623047"/>
       <use xlink:href="#DejaVuSans-39" x="95.410156"/>
       <use xlink:href="#DejaVuSans-35" x="159.033203"/>
      </g>
     </g>
    </g>
    <g id="ytick_7">
     <g id="line2d_13">
      <path d="M 63.485625 12.518906 
L 255.485625 12.518906 
" clip-path="url(#p65eb54c0f7)" style="fill: none; stroke: #cccccc; stroke-linecap: round"/>
     </g>
     <g id="text_14">
      <!-- 1.00 -->
      <g style="fill: #262626" transform="translate(22.81375 17.837812) scale(0.14 -0.14)">
       <use xlink:href="#DejaVuSans-31"/>
       <use xlink:href="#DejaVuSans-2e" x="63.623047"/>
       <use xlink:href="#DejaVuSans-30" x="95.410156"/>
       <use xlink:href="#DejaVuSans-30" x="159.033203"/>
      </g>
     </g>
    </g>
    <g id="text_15">
     <!-- R2 Score -->
     <g style="fill: #262626" transform="translate(16.318125 150.095156) rotate(-90) scale(0.12 -0.12)">
      <defs>
       <path id="DejaVuSans-52" d="M 2841 2188 
Q 3044 2119 3236 1894 
Q 3428 1669 3622 1275 
L 4263 0 
L 3584 0 
L 2988 1197 
Q 2756 1666 2539 1819 
Q 2322 1972 1947 1972 
L 1259 1972 
L 1259 0 
L 628 0 
L 628 4666 
L 2053 4666 
Q 2853 4666 3247 4331 
Q 3641 3997 3641 3322 
Q 3641 2881 3436 2590 
Q 3231 2300 2841 2188 
z
M 1259 4147 
L 1259 2491 
L 2053 2491 
Q 2509 2491 2742 2702 
Q 2975 2913 2975 3322 
Q 2975 3731 2742 3939 
Q 2509 4147 2053 4147 
L 1259 4147 
z
" transform="scale(0.015625)"/>
       <path id="DejaVuSans-53" d="M 3425 4513 
L 3425 3897 
Q 3066 4069 2747 4153 
Q 2428 4238 2131 4238 
Q 1616 4238 1336 4038 
Q 1056 3838 1056 3469 
Q 1056 3159 1242 3001 
Q 1428 2844 1947 2747 
L 2328 2669 
Q 3034 2534 3370 2195 
Q 3706 1856 3706 1288 
Q 3706 609 3251 259 
Q 2797 -91 1919 -91 
Q 1588 -91 1214 -16 
Q 841 59 441 206 
L 441 856 
Q 825 641 1194 531 
Q 1563 422 1919 422 
Q 2459 422 2753 634 
Q 3047 847 3047 1241 
Q 3047 1584 2836 1778 
Q 2625 1972 2144 2069 
L 1759 2144 
Q 1053 2284 737 2584 
Q 422 2884 422 3419 
Q 422 4038 858 4394 
Q 1294 4750 2059 4750 
Q 2388 4750 2728 4690 
Q 3069 4631 3425 4513 
z
" transform="scale(0.015625)"/>
       <path id="DejaVuSans-63" d="M 3122 3366 
L 3122 2828 
Q 2878 2963 2633 3030 
Q 2388 3097 2138 3097 
Q 1578 3097 1268 2742 
Q 959 2388 959 1747 
Q 959 1106 1268 751 
Q 1578 397 2138 397 
Q 2388 397 2633 464 
Q 2878 531 3122 666 
L 3122 134 
Q 2881 22 2623 -34 
Q 2366 -91 2075 -91 
Q 1284 -91 818 406 
Q 353 903 353 1747 
Q 353 2603 823 3093 
Q 1294 3584 2113 3584 
Q 2378 3584 2631 3529 
Q 2884 3475 3122 3366 
z
" transform="scale(0.015625)"/>
       <path id="DejaVuSans-6f" d="M 1959 3097 
Q 1497 3097 1228 2736 
Q 959 2375 959 1747 
Q 959 1119 1226 758 
Q 1494 397 1959 397 
Q 2419 397 2687 759 
Q 2956 1122 2956 1747 
Q 2956 2369 2687 2733 
Q 2419 3097 1959 3097 
z
M 1959 3584 
Q 2709 3584 3137 3096 
Q 3566 2609 3566 1747 
Q 3566 888 3137 398 
Q 2709 -91 1959 -91 
Q 1206 -91 779 398 
Q 353 888 353 1747 
Q 353 2609 779 3096 
Q 1206 3584 1959 3584 
z
" transform="scale(0.015625)"/>
       <path id="DejaVuSans-72" d="M 2631 2963 
Q 2534 3019 2420 3045 
Q 2306 3072 2169 3072 
Q 1681 3072 1420 2755 
Q 1159 2438 1159 1844 
L 1159 0 
L 581 0 
L 581 3500 
L 1159 3500 
L 1159 2956 
Q 1341 3275 1631 3429 
Q 1922 3584 2338 3584 
Q 2397 3584 2469 3576 
Q 2541 3569 2628 3553 
L 2631 2963 
z
" transform="scale(0.015625)"/>
       <path id="DejaVuSans-65" d="M 3597 1894 
L 3597 1613 
L 953 1613 
Q 991 1019 1311 708 
Q 1631 397 2203 397 
Q 2534 397 2845 478 
Q 3156 559 3463 722 
L 3463 178 
Q 3153 47 2828 -22 
Q 2503 -91 2169 -91 
Q 1331 -91 842 396 
Q 353 884 353 1716 
Q 353 2575 817 3079 
Q 1281 3584 2069 3584 
Q 2775 3584 3186 3129 
Q 3597 2675 3597 1894 
z
M 3022 2063 
Q 3016 2534 2758 2815 
Q 2500 3097 2075 3097 
Q 1594 3097 1305 2825 
Q 1016 2553 972 2059 
L 3022 2063 
z
" transform="scale(0.015625)"/>
      </defs>
      <use xlink:href="#DejaVuSans-52"/>
      <use xlink:href="#DejaVuSans-32" x="69.482422"/>
      <use xlink:href="#DejaVuSans-20" x="133.105469"/>
      <use xlink:href="#DejaVuSans-53" x="164.892578"/>
      <use xlink:href="#DejaVuSans-63" x="228.369141"/>
      <use xlink:href="#DejaVuSans-6f" x="283.349609"/>
      <use xlink:href="#DejaVuSans-72" x="344.53125"/>
      <use xlink:href="#DejaVuSans-65" x="383.394531"/>
     </g>
    </g>
   </g>
   <g id="PolyCollection_1">
    <defs>
     <path id="m643de1770c" d="M 72.212898 -146.330637 
L 72.212898 -56.324588 
L 81.399501 -183.106226 
L 90.586103 -226.346897 
L 99.772706 -242.032795 
L 108.959309 -248.265272 
L 118.145912 -253.224001 
L 127.332515 -254.699713 
L 136.519118 -255.995003 
L 145.705721 -258.11254 
L 154.892324 -259.372088 
L 164.078926 -260.061318 
L 173.265529 -260.953934 
L 182.452132 -261.660291 
L 191.638735 -262.285793 
L 200.825338 -262.81792 
L 210.011941 -262.888867 
L 219.198544 -262.733349 
L 228.385147 -263.356764 
L 237.571749 -263.712787 
L 246.758352 -263.837731 
L 246.758352 -266.560049 
L 246.758352 -266.560049 
L 237.571749 -266.487191 
L 228.385147 -266.380776 
L 219.198544 -266.289565 
L 210.011941 -266.32534 
L 200.825338 -266.173674 
L 191.638735 -265.981785 
L 182.452132 -265.962542 
L 173.265529 -265.884531 
L 164.078926 -265.355467 
L 154.892324 -265.126522 
L 145.705721 -264.706994 
L 136.519118 -264.461034 
L 127.332515 -263.332527 
L 118.145912 -262.741284 
L 108.959309 -260.982813 
L 99.772706 -258.746467 
L 90.586103 -251.085951 
L 81.399501 -228.726551 
L 72.212898 -146.330637 
z
" style="stroke: #1f77b4; stroke-opacity: 0.2"/>
    </defs>
    <g clip-path="url(#p65eb54c0f7)">
     <use xlink:href="#m643de1770c" x="0" y="280.142031" style="fill: #1f77b4; fill-opacity: 0.2; stroke: #1f77b4; stroke-opacity: 0.2"/>
    </g>
   </g>
   <g id="PolyCollection_2">
    <defs>
     <path id="mfec5e8aac6" d="M 72.212898 -131.391291 
L 72.212898 -45.724224 
L 81.399501 -165.277194 
L 90.586103 -213.126009 
L 99.772706 -232.658827 
L 108.959309 -239.247265 
L 118.145912 -244.791506 
L 127.332515 -245.961282 
L 136.519118 -249.357476 
L 145.705721 -251.372252 
L 154.892324 -254.430606 
L 164.078926 -253.714383 
L 173.265529 -255.802403 
L 182.452132 -255.367034 
L 191.638735 -256.86726 
L 200.825338 -257.782227 
L 210.011941 -258.016529 
L 219.198544 -258.717159 
L 228.385147 -258.690866 
L 237.571749 -259.357634 
L 246.758352 -259.909695 
L 246.758352 -264.660477 
L 246.758352 -264.660477 
L 237.571749 -264.360274 
L 228.385147 -264.141285 
L 219.198544 -264.139664 
L 210.011941 -263.943057 
L 200.825338 -263.583516 
L 191.638735 -263.093539 
L 182.452132 -262.516028 
L 173.265529 -262.90356 
L 164.078926 -261.872723 
L 154.892324 -262.120607 
L 145.705721 -261.212742 
L 136.519118 -259.779898 
L 127.332515 -258.687454 
L 118.145912 -257.986914 
L 108.959309 -254.579145 
L 99.772706 -252.550013 
L 90.586103 -239.73424 
L 81.399501 -215.815206 
L 72.212898 -131.391291 
z
" style="stroke: #ff7f0e; stroke-opacity: 0.2"/>
    </defs>
    <g clip-path="url(#p65eb54c0f7)">
     <use xlink:href="#mfec5e8aac6" x="0" y="280.142031" style="fill: #ff7f0e; fill-opacity: 0.2; stroke: #ff7f0e; stroke-opacity: 0.2"/>
    </g>
   </g>
   <g id="PolyCollection_3">
    <path d="M 72.212898 185.833323 
L 72.212898 327.308428 
L 81.399501 167.573248 
L 90.586103 83.087155 
L 99.772706 67.599081 
L 108.959309 55.537005 
L 118.145912 46.598754 
L 127.332515 44.04271 
L 136.519118 40.342613 
L 145.705721 37.579789 
L 154.892324 36.934851 
L 164.078926 36.02057 
L 173.265529 32.122705 
L 182.452132 30.802383 
L 191.638735 29.551974 
L 200.825338 28.441065 
L 210.011941 27.45453 
L 219.198544 29.680665 
L 228.385147 26.631903 
L 237.571749 26.655945 
L 246.758352 26.094299 
L 246.758352 18.274003 
L 246.758352 18.274003 
L 237.571749 18.552456 
L 228.385147 18.64483 
L 219.198544 19.565925 
L 210.011941 18.685869 
L 200.825338 19.621248 
L 191.638735 19.798546 
L 182.452132 20.260982 
L 173.265529 20.936602 
L 164.078926 22.994994 
L 154.892324 23.306562 
L 145.705721 23.410977 
L 136.519118 24.518521 
L 127.332515 26.875483 
L 118.145912 27.730649 
L 108.959309 32.841989 
L 99.772706 37.391605 
L 90.586103 47.94295 
L 81.399501 81.603851 
L 72.212898 185.833323 
z
" clip-path="url(#p65eb54c0f7)" style="fill: #2ca02c; fill-opacity: 0.2; stroke: #2ca02c; stroke-opacity: 0.2"/>
   </g>
   <g id="PolyCollection_4">
    <defs>
     <path id="m21dc3fcac0" d="M 72.212898 -173.892718 
L 72.212898 -149.663737 
L 81.399501 -225.674164 
L 90.586103 -244.537545 
L 99.772706 -253.394774 
L 108.959309 -256.429537 
L 118.145912 -259.441813 
L 127.332515 -259.979315 
L 136.519118 -261.493891 
L 145.705721 -262.18851 
L 154.892324 -263.080851 
L 164.078926 -263.189867 
L 173.265529 -263.535794 
L 182.452132 -263.721904 
L 191.638735 -263.975709 
L 200.825338 -264.163 
L 210.011941 -264.337653 
L 219.198544 -264.580348 
L 228.385147 -264.676305 
L 237.571749 -264.948584 
L 246.758352 -264.997524 
L 246.758352 -265.815057 
L 246.758352 -265.815057 
L 237.571749 -265.794343 
L 228.385147 -265.570955 
L 219.198544 -265.532031 
L 210.011941 -265.394699 
L 200.825338 -265.222181 
L 191.638735 -265.07024 
L 182.452132 -264.938686 
L 173.265529 -264.722128 
L 164.078926 -264.489923 
L 154.892324 -264.425797 
L 145.705721 -263.880697 
L 136.519118 -263.210352 
L 127.332515 -262.157271 
L 118.145912 -261.777539 
L 108.959309 -259.294968 
L 99.772706 -256.942773 
L 90.586103 -249.815007 
L 81.399501 -234.987629 
L 72.212898 -173.892718 
z
" style="stroke: #1f77b4; stroke-opacity: 0.2"/>
    </defs>
    <g clip-path="url(#p65eb54c0f7)">
     <use xlink:href="#m21dc3fcac0" x="0" y="280.142031" style="fill: #1f77b4; fill-opacity: 0.2; stroke: #1f77b4; stroke-opacity: 0.2"/>
    </g>
   </g>
   <g id="PolyCollection_5">
    <defs>
     <path id="m30cfc513ea" d="M 72.212898 -147.707849 
L 72.212898 -119.268074 
L 81.399501 -207.859499 
L 90.586103 -232.544274 
L 99.772706 -242.52684 
L 108.959309 -247.885188 
L 118.145912 -251.936728 
L 127.332515 -252.972918 
L 136.519118 -254.938595 
L 145.705721 -256.872685 
L 154.892324 -257.619118 
L 164.078926 -258.377538 
L 173.265529 -258.851371 
L 182.452132 -259.462197 
L 191.638735 -259.92135 
L 200.825338 -260.260464 
L 210.011941 -260.63963 
L 219.198544 -260.754784 
L 228.385147 -261.133195 
L 237.571749 -261.385822 
L 246.758352 -261.553185 
L 246.758352 -263.122574 
L 246.758352 -263.122574 
L 237.571749 -262.897401 
L 228.385147 -262.624184 
L 219.198544 -262.451779 
L 210.011941 -262.323017 
L 200.825338 -261.941443 
L 191.638735 -261.73195 
L 182.452132 -261.388916 
L 173.265529 -260.929939 
L 164.078926 -260.594477 
L 154.892324 -260.101597 
L 145.705721 -259.498657 
L 136.519118 -258.045131 
L 127.332515 -256.422079 
L 118.145912 -255.561798 
L 108.959309 -252.480753 
L 99.772706 -248.484089 
L 90.586103 -239.944689 
L 81.399501 -220.805687 
L 72.212898 -147.707849 
z
" style="stroke: #ff7f0e; stroke-opacity: 0.2"/>
    </defs>
    <g clip-path="url(#p65eb54c0f7)">
     <use xlink:href="#m30cfc513ea" x="0" y="280.142031" style="fill: #ff7f0e; fill-opacity: 0.2; stroke: #ff7f0e; stroke-opacity: 0.2"/>
    </g>
   </g>
   <g id="PolyCollection_6">
    <defs>
     <path id="m6f602c7d00" d="M 72.212898 -112.889873 
L 72.212898 -76.350682 
L 81.399501 -183.321595 
L 90.586103 -215.056678 
L 99.772706 -226.731202 
L 108.959309 -237.545944 
L 118.145912 -241.692875 
L 127.332515 -243.883523 
L 136.519118 -246.387583 
L 145.705721 -249.186174 
L 154.892324 -250.319495 
L 164.078926 -251.580723 
L 173.265529 -252.199953 
L 182.452132 -253.175213 
L 191.638735 -253.866568 
L 200.825338 -254.385833 
L 210.011941 -255.643273 
L 219.198544 -255.694758 
L 228.385147 -256.009362 
L 237.571749 -256.376057 
L 246.758352 -257.160034 
L 246.758352 -259.602501 
L 246.758352 -259.602501 
L 237.571749 -258.931601 
L 228.385147 -258.672032 
L 219.198544 -258.535366 
L 210.011941 -258.447379 
L 200.825338 -257.404493 
L 191.638735 -256.939408 
L 182.452132 -256.634267 
L 173.265529 -256.094467 
L 164.078926 -255.160749 
L 154.892324 -254.282009 
L 145.705721 -253.457878 
L 136.519118 -251.347355 
L 127.332515 -249.369553 
L 118.145912 -247.942904 
L 108.959309 -244.363644 
L 99.772706 -236.539738 
L 90.586103 -226.935644 
L 81.399501 -201.09238 
L 72.212898 -112.889873 
z
" style="stroke: #2ca02c; stroke-opacity: 0.2"/>
    </defs>
    <g clip-path="url(#p65eb54c0f7)">
     <use xlink:href="#m6f602c7d00" x="0" y="280.142031" style="fill: #2ca02c; fill-opacity: 0.2; stroke: #2ca02c; stroke-opacity: 0.2"/>
    </g>
   </g>
   <g id="line2d_14">
    <path d="M 72.212898 176.756866 
L 81.399501 72.758722 
L 90.586103 40.681404 
L 99.772706 28.827188 
L 108.959309 24.905338 
L 118.145912 21.679922 
L 127.332515 20.830724 
L 136.519118 19.371977 
L 145.705721 18.274502 
L 154.892324 17.681074 
L 164.078926 17.199267 
L 173.265529 16.580829 
L 182.452132 16.176811 
L 191.638735 15.851154 
L 200.825338 15.482833 
L 210.011941 15.339036 
L 219.198544 15.444571 
L 228.385147 15.094746 
L 237.571749 14.898829 
L 246.758352 14.758846 
" clip-path="url(#p65eb54c0f7)" style="fill: none; stroke-dasharray: 7.4,3.2; stroke-dashoffset: 0; stroke: #1f77b4; stroke-width: 2"/>
   </g>
   <g id="line2d_15">
    <path d="M 72.212898 192.025419 
L 81.399501 88.57759 
L 90.586103 53.099299 
L 99.772706 37.052664 
L 108.959309 32.483585 
L 118.145912 28.271113 
L 127.332515 27.491468 
L 136.519118 25.36567 
L 145.705721 23.572035 
L 154.892324 21.795103 
L 164.078926 22.040385 
L 173.265529 20.640161 
L 182.452132 20.930087 
L 191.638735 19.87729 
L 200.825338 19.400477 
L 210.011941 19.078051 
L 219.198544 18.673118 
L 228.385147 18.650099 
L 237.571749 18.174694 
L 246.758352 17.659785 
" clip-path="url(#p65eb54c0f7)" style="fill: none; stroke-dasharray: 7.4,3.2; stroke-dashoffset: 0; stroke: #ff7f0e; stroke-width: 2"/>
   </g>
   <g id="line2d_16">
    <path d="M 72.212898 251.599423 
L 81.399501 121.01693 
L 90.586103 64.955162 
L 99.772706 51.421292 
L 108.959309 43.526102 
L 118.145912 36.990467 
L 127.332515 35.042255 
L 136.519118 32.186757 
L 145.705721 30.394792 
L 154.892324 29.921527 
L 164.078926 29.271059 
L 173.265529 26.38764 
L 182.452132 25.29554 
L 191.638735 24.332845 
L 200.825338 24.015997 
L 210.011941 23.005092 
L 219.198544 24.349991 
L 228.385147 22.387445 
L 237.571749 22.398023 
L 246.758352 21.980934 
" clip-path="url(#p65eb54c0f7)" style="fill: none; stroke-dasharray: 7.4,3.2; stroke-dashoffset: 0; stroke: #2ca02c; stroke-width: 2"/>
   </g>
   <g id="line2d_17"/>
   <g id="line2d_18"/>
   <g id="line2d_19"/>
   <g id="line2d_20">
    <path d="M 72.212898 118.153118 
L 81.399501 49.695735 
L 90.586103 32.822749 
L 99.772706 24.954011 
L 108.959309 22.255442 
L 118.145912 19.496272 
L 127.332515 19.082367 
L 136.519118 17.75527 
L 145.705721 17.104694 
L 154.892324 16.39777 
L 164.078926 16.293627 
L 173.265529 15.997405 
L 182.452132 15.807053 
L 191.638735 15.564142 
L 200.825338 15.442313 
L 210.011941 15.252744 
L 219.198544 15.083118 
L 228.385147 15.001163 
L 237.571749 14.74336 
L 246.758352 14.721457 
" clip-path="url(#p65eb54c0f7)" style="fill: none; stroke: #1f77b4; stroke-width: 2; stroke-linecap: round"/>
   </g>
   <g id="line2d_21">
    <path d="M 72.212898 146.024608 
L 81.399501 65.529355 
L 90.586103 43.727342 
L 99.772706 34.569018 
L 108.959309 29.85751 
L 118.145912 26.312091 
L 127.332515 25.483586 
L 136.519118 23.608047 
L 145.705721 21.979085 
L 154.892324 21.316592 
L 164.078926 20.592804 
L 173.265529 20.260922 
L 182.452132 19.729055 
L 191.638735 19.291874 
L 200.825338 19.050467 
L 210.011941 18.688362 
L 219.198544 18.495485 
L 228.385147 18.252325 
L 237.571749 17.940737 
L 246.758352 17.785017 
" clip-path="url(#p65eb54c0f7)" style="fill: none; stroke: #ff7f0e; stroke-width: 2; stroke-linecap: round"/>
   </g>
   <g id="line2d_22">
    <path d="M 72.212898 184.980635 
L 81.399501 87.787359 
L 90.586103 59.285692 
L 99.772706 48.284872 
L 108.959309 39.293864 
L 118.145912 35.152435 
L 127.332515 33.449026 
L 136.519118 31.313226 
L 145.705721 28.75486 
L 154.892324 27.860641 
L 164.078926 26.751096 
L 173.265529 26.054124 
L 182.452132 25.155739 
L 191.638735 24.786032 
L 200.825338 24.143971 
L 210.011941 23.091455 
L 219.198544 22.970806 
L 228.385147 22.770812 
L 237.571749 22.386192 
L 246.758352 21.708641 
" clip-path="url(#p65eb54c0f7)" style="fill: none; stroke: #2ca02c; stroke-width: 2; stroke-linecap: round"/>
   </g>
   <g id="line2d_23"/>
   <g id="line2d_24"/>
   <g id="line2d_25"/>
   <g id="patch_3">
    <path d="M 63.485625 234.278906 
L 63.485625 12.518906 
" style="fill: none; stroke: #cccccc; stroke-width: 1.25; stroke-linejoin: miter; stroke-linecap: square"/>
   </g>
   <g id="patch_4">
    <path d="M 255.485625 234.278906 
L 255.485625 12.518906 
" style="fill: none; stroke: #cccccc; stroke-width: 1.25; stroke-linejoin: miter; stroke-linecap: square"/>
   </g>
   <g id="patch_5">
    <path d="M 63.485625 234.278906 
L 255.485625 234.278906 
" style="fill: none; stroke: #cccccc; stroke-width: 1.25; stroke-linejoin: miter; stroke-linecap: square"/>
   </g>
   <g id="patch_6">
    <path d="M 63.485625 12.518906 
L 255.485625 12.518906 
" style="fill: none; stroke: #cccccc; stroke-width: 1.25; stroke-linejoin: miter; stroke-linecap: square"/>
   </g>
   <g id="text_16">
    <!-- number of HF samples (d) -->
    <g style="fill: #262626" transform="translate(317.826406 267.542906) scale(0.14 -0.14)">
     <defs>
      <path id="DejaVuSans-6e" d="M 3513 2113 
L 3513 0 
L 2938 0 
L 2938 2094 
Q 2938 2591 2744 2837 
Q 2550 3084 2163 3084 
Q 1697 3084 1428 2787 
Q 1159 2491 1159 1978 
L 1159 0 
L 581 0 
L 581 3500 
L 1159 3500 
L 1159 2956 
Q 1366 3272 1645 3428 
Q 1925 3584 2291 3584 
Q 2894 3584 3203 3211 
Q 3513 2838 3513 2113 
z
" transform="scale(0.015625)"/>
      <path id="DejaVuSans-75" d="M 544 1381 
L 544 3500 
L 1119 3500 
L 1119 1403 
Q 1119 906 1312 657 
Q 1506 409 1894 409 
Q 2359 409 2629 706 
Q 2900 1003 2900 1516 
L 2900 3500 
L 3475 3500 
L 3475 0 
L 2900 0 
L 2900 538 
Q 2691 219 2414 64 
Q 2138 -91 1772 -91 
Q 1169 -91 856 284 
Q 544 659 544 1381 
z
M 1991 3584 
L 1991 3584 
z
" transform="scale(0.015625)"/>
      <path id="DejaVuSans-6d" d="M 3328 2828 
Q 3544 3216 3844 3400 
Q 4144 3584 4550 3584 
Q 5097 3584 5394 3201 
Q 5691 2819 5691 2113 
L 5691 0 
L 5113 0 
L 5113 2094 
Q 5113 2597 4934 2840 
Q 4756 3084 4391 3084 
Q 3944 3084 3684 2787 
Q 3425 2491 3425 1978 
L 3425 0 
L 2847 0 
L 2847 2094 
Q 2847 2600 2669 2842 
Q 2491 3084 2119 3084 
Q 1678 3084 1418 2786 
Q 1159 2488 1159 1978 
L 1159 0 
L 581 0 
L 581 3500 
L 1159 3500 
L 1159 2956 
Q 1356 3278 1631 3431 
Q 1906 3584 2284 3584 
Q 2666 3584 2933 3390 
Q 3200 3197 3328 2828 
z
" transform="scale(0.015625)"/>
      <path id="DejaVuSans-62" d="M 3116 1747 
Q 3116 2381 2855 2742 
Q 2594 3103 2138 3103 
Q 1681 3103 1420 2742 
Q 1159 2381 1159 1747 
Q 1159 1113 1420 752 
Q 1681 391 2138 391 
Q 2594 391 2855 752 
Q 3116 1113 3116 1747 
z
M 1159 2969 
Q 1341 3281 1617 3432 
Q 1894 3584 2278 3584 
Q 2916 3584 3314 3078 
Q 3713 2572 3713 1747 
Q 3713 922 3314 415 
Q 2916 -91 2278 -91 
Q 1894 -91 1617 61 
Q 1341 213 1159 525 
L 1159 0 
L 581 0 
L 581 4863 
L 1159 4863 
L 1159 2969 
z
" transform="scale(0.015625)"/>
      <path id="DejaVuSans-66" d="M 2375 4863 
L 2375 4384 
L 1825 4384 
Q 1516 4384 1395 4259 
Q 1275 4134 1275 3809 
L 1275 3500 
L 2222 3500 
L 2222 3053 
L 1275 3053 
L 1275 0 
L 697 0 
L 697 3053 
L 147 3053 
L 147 3500 
L 697 3500 
L 697 3744 
Q 697 4328 969 4595 
Q 1241 4863 1831 4863 
L 2375 4863 
z
" transform="scale(0.015625)"/>
      <path id="DejaVuSans-48" d="M 628 4666 
L 1259 4666 
L 1259 2753 
L 3553 2753 
L 3553 4666 
L 4184 4666 
L 4184 0 
L 3553 0 
L 3553 2222 
L 1259 2222 
L 1259 0 
L 628 0 
L 628 4666 
z
" transform="scale(0.015625)"/>
      <path id="DejaVuSans-46" d="M 628 4666 
L 3309 4666 
L 3309 4134 
L 1259 4134 
L 1259 2759 
L 3109 2759 
L 3109 2228 
L 1259 2228 
L 1259 0 
L 628 0 
L 628 4666 
z
" transform="scale(0.015625)"/>
      <path id="DejaVuSans-73" d="M 2834 3397 
L 2834 2853 
Q 2591 2978 2328 3040 
Q 2066 3103 1784 3103 
Q 1356 3103 1142 2972 
Q 928 2841 928 2578 
Q 928 2378 1081 2264 
Q 1234 2150 1697 2047 
L 1894 2003 
Q 2506 1872 2764 1633 
Q 3022 1394 3022 966 
Q 3022 478 2636 193 
Q 2250 -91 1575 -91 
Q 1294 -91 989 -36 
Q 684 19 347 128 
L 347 722 
Q 666 556 975 473 
Q 1284 391 1588 391 
Q 1994 391 2212 530 
Q 2431 669 2431 922 
Q 2431 1156 2273 1281 
Q 2116 1406 1581 1522 
L 1381 1569 
Q 847 1681 609 1914 
Q 372 2147 372 2553 
Q 372 3047 722 3315 
Q 1072 3584 1716 3584 
Q 2034 3584 2315 3537 
Q 2597 3491 2834 3397 
z
" transform="scale(0.015625)"/>
      <path id="DejaVuSans-61" d="M 2194 1759 
Q 1497 1759 1228 1600 
Q 959 1441 959 1056 
Q 959 750 1161 570 
Q 1363 391 1709 391 
Q 2188 391 2477 730 
Q 2766 1069 2766 1631 
L 2766 1759 
L 2194 1759 
z
M 3341 1997 
L 3341 0 
L 2766 0 
L 2766 531 
Q 2569 213 2275 61 
Q 1981 -91 1556 -91 
Q 1019 -91 701 211 
Q 384 513 384 1019 
Q 384 1609 779 1909 
Q 1175 2209 1959 2209 
L 2766 2209 
L 2766 2266 
Q 2766 2663 2505 2880 
Q 2244 3097 1772 3097 
Q 1472 3097 1187 3025 
Q 903 2953 641 2809 
L 641 3341 
Q 956 3463 1253 3523 
Q 1550 3584 1831 3584 
Q 2591 3584 2966 3190 
Q 3341 2797 3341 1997 
z
" transform="scale(0.015625)"/>
      <path id="DejaVuSans-70" d="M 1159 525 
L 1159 -1331 
L 581 -1331 
L 581 3500 
L 1159 3500 
L 1159 2969 
Q 1341 3281 1617 3432 
Q 1894 3584 2278 3584 
Q 2916 3584 3314 3078 
Q 3713 2572 3713 1747 
Q 3713 922 3314 415 
Q 2916 -91 2278 -91 
Q 1894 -91 1617 61 
Q 1341 213 1159 525 
z
M 3116 1747 
Q 3116 2381 2855 2742 
Q 2594 3103 2138 3103 
Q 1681 3103 1420 2742 
Q 1159 2381 1159 1747 
Q 1159 1113 1420 752 
Q 1681 391 2138 391 
Q 2594 391 2855 752 
Q 3116 1113 3116 1747 
z
" transform="scale(0.015625)"/>
      <path id="DejaVuSans-6c" d="M 603 4863 
L 1178 4863 
L 1178 0 
L 603 0 
L 603 4863 
z
" transform="scale(0.015625)"/>
      <path id="DejaVuSans-28" d="M 1984 4856 
Q 1566 4138 1362 3434 
Q 1159 2731 1159 2009 
Q 1159 1288 1364 580 
Q 1569 -128 1984 -844 
L 1484 -844 
Q 1016 -109 783 600 
Q 550 1309 550 2009 
Q 550 2706 781 3412 
Q 1013 4119 1484 4856 
L 1984 4856 
z
" transform="scale(0.015625)"/>
      <path id="DejaVuSans-64" d="M 2906 2969 
L 2906 4863 
L 3481 4863 
L 3481 0 
L 2906 0 
L 2906 525 
Q 2725 213 2448 61 
Q 2172 -91 1784 -91 
Q 1150 -91 751 415 
Q 353 922 353 1747 
Q 353 2572 751 3078 
Q 1150 3584 1784 3584 
Q 2172 3584 2448 3432 
Q 2725 3281 2906 2969 
z
M 947 1747 
Q 947 1113 1208 752 
Q 1469 391 1925 391 
Q 2381 391 2643 752 
Q 2906 1113 2906 1747 
Q 2906 2381 2643 2742 
Q 2381 3103 1925 3103 
Q 1469 3103 1208 2742 
Q 947 2381 947 1747 
z
" transform="scale(0.015625)"/>
      <path id="DejaVuSans-29" d="M 513 4856 
L 1013 4856 
Q 1481 4119 1714 3412 
Q 1947 2706 1947 2009 
Q 1947 1309 1714 600 
Q 1481 -109 1013 -844 
L 513 -844 
Q 928 -128 1133 580 
Q 1338 1288 1338 2009 
Q 1338 2731 1133 3434 
Q 928 4138 513 4856 
z
" transform="scale(0.015625)"/>
     </defs>
     <use xlink:href="#DejaVuSans-6e"/>
     <use xlink:href="#DejaVuSans-75" x="63.378906"/>
     <use xlink:href="#DejaVuSans-6d" x="126.757812"/>
     <use xlink:href="#DejaVuSans-62" x="224.169922"/>
     <use xlink:href="#DejaVuSans-65" x="287.646484"/>
     <use xlink:href="#DejaVuSans-72" x="349.169922"/>
     <use xlink:href="#DejaVuSans-20" x="390.283203"/>
     <use xlink:href="#DejaVuSans-6f" x="422.070312"/>
     <use xlink:href="#DejaVuSans-66" x="483.251953"/>
     <use xlink:href="#DejaVuSans-20" x="518.457031"/>
     <use xlink:href="#DejaVuSans-48" x="550.244141"/>
     <use xlink:href="#DejaVuSans-46" x="625.439453"/>
     <use xlink:href="#DejaVuSans-20" x="682.958984"/>
     <use xlink:href="#DejaVuSans-73" x="714.746094"/>
     <use xlink:href="#DejaVuSans-61" x="766.845703"/>
     <use xlink:href="#DejaVuSans-6d" x="828.125"/>
     <use xlink:href="#DejaVuSans-70" x="925.537109"/>
     <use xlink:href="#DejaVuSans-6c" x="989.013672"/>
     <use xlink:href="#DejaVuSans-65" x="1016.796875"/>
     <use xlink:href="#DejaVuSans-73" x="1078.320312"/>
     <use xlink:href="#DejaVuSans-20" x="1130.419922"/>
     <use xlink:href="#DejaVuSans-28" x="1162.207031"/>
     <use xlink:href="#DejaVuSans-64" x="1201.220703"/>
     <use xlink:href="#DejaVuSans-29" x="1264.697266"/>
    </g>
   </g>
   <g id="legend_1">
    <g id="patch_7">
     <path d="M 186.895625 228.778906 
L 247.785625 228.778906 
Q 249.985625 228.778906 249.985625 226.578906 
L 249.985625 113.355781 
Q 249.985625 111.155781 247.785625 111.155781 
L 186.895625 111.155781 
Q 184.695625 111.155781 184.695625 113.355781 
L 184.695625 226.578906 
Q 184.695625 228.778906 186.895625 228.778906 
z
" style="fill: #ffffff; opacity: 0.8; stroke: #cccccc; stroke-linejoin: miter"/>
    </g>
    <g id="text_17">
     <!-- noise_std -->
     <g style="fill: #262626" transform="translate(189.095625 124.673906) scale(0.12 -0.12)">
      <defs>
       <path id="DejaVuSans-69" d="M 603 3500 
L 1178 3500 
L 1178 0 
L 603 0 
L 603 3500 
z
M 603 4863 
L 1178 4863 
L 1178 4134 
L 603 4134 
L 603 4863 
z
" transform="scale(0.015625)"/>
       <path id="DejaVuSans-5f" d="M 3263 -1063 
L 3263 -1509 
L -63 -1509 
L -63 -1063 
L 3263 -1063 
z
" transform="scale(0.015625)"/>
       <path id="DejaVuSans-74" d="M 1172 4494 
L 1172 3500 
L 2356 3500 
L 2356 3053 
L 1172 3053 
L 1172 1153 
Q 1172 725 1289 603 
Q 1406 481 1766 481 
L 2356 481 
L 2356 0 
L 1766 0 
Q 1100 0 847 248 
Q 594 497 594 1153 
L 594 3053 
L 172 3053 
L 172 3500 
L 594 3500 
L 594 4494 
L 1172 4494 
z
" transform="scale(0.015625)"/>
      </defs>
      <use xlink:href="#DejaVuSans-6e"/>
      <use xlink:href="#DejaVuSans-6f" x="63.378906"/>
      <use xlink:href="#DejaVuSans-69" x="124.560547"/>
      <use xlink:href="#DejaVuSans-73" x="152.34375"/>
      <use xlink:href="#DejaVuSans-65" x="204.443359"/>
      <use xlink:href="#DejaVuSans-5f" x="265.966797"/>
      <use xlink:href="#DejaVuSans-73" x="315.966797"/>
      <use xlink:href="#DejaVuSans-74" x="368.066406"/>
      <use xlink:href="#DejaVuSans-64" x="407.275391"/>
     </g>
    </g>
    <g id="line2d_26">
     <path d="M 193.193906 137.511562 
L 204.193906 137.511562 
L 215.193906 137.511562 
" style="fill: none; stroke-dasharray: 7.4,3.2; stroke-dashoffset: 0; stroke: #1f77b4; stroke-width: 2"/>
    </g>
    <g id="text_18">
     <!-- 0.1 -->
     <g style="fill: #262626" transform="translate(223.993906 141.361562) scale(0.11 -0.11)">
      <use xlink:href="#DejaVuSans-30"/>
      <use xlink:href="#DejaVuSans-2e" x="63.623047"/>
      <use xlink:href="#DejaVuSans-31" x="95.410156"/>
     </g>
    </g>
    <g id="line2d_27">
     <path d="M 193.193906 153.6575 
L 204.193906 153.6575 
L 215.193906 153.6575 
" style="fill: none; stroke-dasharray: 7.4,3.2; stroke-dashoffset: 0; stroke: #ff7f0e; stroke-width: 2"/>
    </g>
    <g id="text_19">
     <!-- 0.3 -->
     <g style="fill: #262626" transform="translate(223.993906 157.5075) scale(0.11 -0.11)">
      <defs>
       <path id="DejaVuSans-33" d="M 2597 2516 
Q 3050 2419 3304 2112 
Q 3559 1806 3559 1356 
Q 3559 666 3084 287 
Q 2609 -91 1734 -91 
Q 1441 -91 1130 -33 
Q 819 25 488 141 
L 488 750 
Q 750 597 1062 519 
Q 1375 441 1716 441 
Q 2309 441 2620 675 
Q 2931 909 2931 1356 
Q 2931 1769 2642 2001 
Q 2353 2234 1838 2234 
L 1294 2234 
L 1294 2753 
L 1863 2753 
Q 2328 2753 2575 2939 
Q 2822 3125 2822 3475 
Q 2822 3834 2567 4026 
Q 2313 4219 1838 4219 
Q 1578 4219 1281 4162 
Q 984 4106 628 3988 
L 628 4550 
Q 988 4650 1302 4700 
Q 1616 4750 1894 4750 
Q 2613 4750 3031 4423 
Q 3450 4097 3450 3541 
Q 3450 3153 3228 2886 
Q 3006 2619 2597 2516 
z
" transform="scale(0.015625)"/>
      </defs>
      <use xlink:href="#DejaVuSans-30"/>
      <use xlink:href="#DejaVuSans-2e" x="63.623047"/>
      <use xlink:href="#DejaVuSans-33" x="95.410156"/>
     </g>
    </g>
    <g id="line2d_28">
     <path d="M 193.193906 169.803438 
L 204.193906 169.803438 
L 215.193906 169.803438 
" style="fill: none; stroke-dasharray: 7.4,3.2; stroke-dashoffset: 0; stroke: #2ca02c; stroke-width: 2"/>
    </g>
    <g id="text_20">
     <!-- 0.5 -->
     <g style="fill: #262626" transform="translate(223.993906 173.653437) scale(0.11 -0.11)">
      <use xlink:href="#DejaVuSans-30"/>
      <use xlink:href="#DejaVuSans-2e" x="63.623047"/>
      <use xlink:href="#DejaVuSans-35" x="95.410156"/>
     </g>
    </g>
    <g id="line2d_29">
     <path d="M 193.193906 185.949375 
L 204.193906 185.949375 
L 215.193906 185.949375 
" style="fill: none; stroke: #1f77b4; stroke-width: 2; stroke-linecap: round"/>
    </g>
    <g id="text_21">
     <!-- 0.1 -->
     <g style="fill: #262626" transform="translate(223.993906 189.799375) scale(0.11 -0.11)">
      <use xlink:href="#DejaVuSans-30"/>
      <use xlink:href="#DejaVuSans-2e" x="63.623047"/>
      <use xlink:href="#DejaVuSans-31" x="95.410156"/>
     </g>
    </g>
    <g id="line2d_30">
     <path d="M 193.193906 202.095313 
L 204.193906 202.095313 
L 215.193906 202.095313 
" style="fill: none; stroke: #ff7f0e; stroke-width: 2; stroke-linecap: round"/>
    </g>
    <g id="text_22">
     <!-- 0.3 -->
     <g style="fill: #262626" transform="translate(223.993906 205.945312) scale(0.11 -0.11)">
      <use xlink:href="#DejaVuSans-30"/>
      <use xlink:href="#DejaVuSans-2e" x="63.623047"/>
      <use xlink:href="#DejaVuSans-33" x="95.410156"/>
     </g>
    </g>
    <g id="line2d_31">
     <path d="M 193.193906 218.24125 
L 204.193906 218.24125 
L 215.193906 218.24125 
" style="fill: none; stroke: #2ca02c; stroke-width: 2; stroke-linecap: round"/>
    </g>
    <g id="text_23">
     <!-- 0.5 -->
     <g style="fill: #262626" transform="translate(223.993906 222.09125) scale(0.11 -0.11)">
      <use xlink:href="#DejaVuSans-30"/>
      <use xlink:href="#DejaVuSans-2e" x="63.623047"/>
      <use xlink:href="#DejaVuSans-35" x="95.410156"/>
     </g>
    </g>
   </g>
  </g>
  <g id="axes_2">
   <g id="patch_8">
    <path d="M 313.085625 234.278906 
L 505.085625 234.278906 
L 505.085625 12.518906 
L 313.085625 12.518906 
z
" style="fill: #ffffff"/>
   </g>
   <g id="matplotlib.axis_3">
    <g id="xtick_7">
     <g id="line2d_32">
      <path d="M 321.812898 234.278906 
L 321.812898 12.518906 
" clip-path="url(#p037133c414)" style="fill: none; stroke: #cccccc; stroke-linecap: round"/>
     </g>
     <g id="text_24">
      <!-- 5 -->
      <g style="fill: #262626" transform="translate(317.359148 254.416719) scale(0.14 -0.14)">
       <use xlink:href="#DejaVuSans-35"/>
      </g>
     </g>
    </g>
    <g id="xtick_8">
     <g id="line2d_33">
      <path d="M 349.372706 234.278906 
L 349.372706 12.518906 
" clip-path="url(#p037133c414)" style="fill: none; stroke: #cccccc; stroke-linecap: round"/>
     </g>
     <g id="text_25">
      <!-- 20 -->
      <g style="fill: #262626" transform="translate(340.465206 254.416719) scale(0.14 -0.14)">
       <use xlink:href="#DejaVuSans-32"/>
       <use xlink:href="#DejaVuSans-30" x="63.623047"/>
      </g>
     </g>
    </g>
    <g id="xtick_9">
     <g id="line2d_34">
      <path d="M 386.119118 234.278906 
L 386.119118 12.518906 
" clip-path="url(#p037133c414)" style="fill: none; stroke: #cccccc; stroke-linecap: round"/>
     </g>
     <g id="text_26">
      <!-- 40 -->
      <g style="fill: #262626" transform="translate(377.211618 254.416719) scale(0.14 -0.14)">
       <use xlink:href="#DejaVuSans-34"/>
       <use xlink:href="#DejaVuSans-30" x="63.623047"/>
      </g>
     </g>
    </g>
    <g id="xtick_10">
     <g id="line2d_35">
      <path d="M 422.865529 234.278906 
L 422.865529 12.518906 
" clip-path="url(#p037133c414)" style="fill: none; stroke: #cccccc; stroke-linecap: round"/>
     </g>
     <g id="text_27">
      <!-- 60 -->
      <g style="fill: #262626" transform="translate(413.958029 254.416719) scale(0.14 -0.14)">
       <use xlink:href="#DejaVuSans-36"/>
       <use xlink:href="#DejaVuSans-30" x="63.623047"/>
      </g>
     </g>
    </g>
    <g id="xtick_11">
     <g id="line2d_36">
      <path d="M 459.611941 234.278906 
L 459.611941 12.518906 
" clip-path="url(#p037133c414)" style="fill: none; stroke: #cccccc; stroke-linecap: round"/>
     </g>
     <g id="text_28">
      <!-- 80 -->
      <g style="fill: #262626" transform="translate(450.704441 254.416719) scale(0.14 -0.14)">
       <use xlink:href="#DejaVuSans-38"/>
       <use xlink:href="#DejaVuSans-30" x="63.623047"/>
      </g>
     </g>
    </g>
    <g id="xtick_12">
     <g id="line2d_37">
      <path d="M 496.358352 234.278906 
L 496.358352 12.518906 
" clip-path="url(#p037133c414)" style="fill: none; stroke: #cccccc; stroke-linecap: round"/>
     </g>
     <g id="text_29">
      <!-- 100 -->
      <g style="fill: #262626" transform="translate(482.997102 254.416719) scale(0.14 -0.14)">
       <use xlink:href="#DejaVuSans-31"/>
       <use xlink:href="#DejaVuSans-30" x="63.623047"/>
       <use xlink:href="#DejaVuSans-30" x="127.246094"/>
      </g>
     </g>
    </g>
    <g id="text_30">
     <!--   -->
     <g style="fill: #262626" transform="translate(407.17875 270.446406) scale(0.12 -0.12)">
      <use xlink:href="#DejaVuSans-20"/>
     </g>
    </g>
   </g>
   <g id="matplotlib.axis_4">
    <g id="ytick_8">
     <g id="line2d_38">
      <path d="M 313.085625 234.278906 
L 505.085625 234.278906 
" clip-path="url(#p037133c414)" style="fill: none; stroke: #cccccc; stroke-linecap: round"/>
     </g>
     <g id="text_31">
      <!-- 0.0 -->
      <g style="fill: #262626" transform="translate(281.32125 239.597813) scale(0.14 -0.14)">
       <use xlink:href="#DejaVuSans-30"/>
       <use xlink:href="#DejaVuSans-2e" x="63.623047"/>
       <use xlink:href="#DejaVuSans-30" x="95.410156"/>
      </g>
     </g>
    </g>
    <g id="ytick_9">
     <g id="line2d_39">
      <path d="M 313.085625 189.926906 
L 505.085625 189.926906 
" clip-path="url(#p037133c414)" style="fill: none; stroke: #cccccc; stroke-linecap: round"/>
     </g>
     <g id="text_32">
      <!-- 0.2 -->
      <g style="fill: #262626" transform="translate(281.32125 195.245812) scale(0.14 -0.14)">
       <use xlink:href="#DejaVuSans-30"/>
       <use xlink:href="#DejaVuSans-2e" x="63.623047"/>
       <use xlink:href="#DejaVuSans-32" x="95.410156"/>
      </g>
     </g>
    </g>
    <g id="ytick_10">
     <g id="line2d_40">
      <path d="M 313.085625 145.574906 
L 505.085625 145.574906 
" clip-path="url(#p037133c414)" style="fill: none; stroke: #cccccc; stroke-linecap: round"/>
     </g>
     <g id="text_33">
      <!-- 0.4 -->
      <g style="fill: #262626" transform="translate(281.32125 150.893812) scale(0.14 -0.14)">
       <use xlink:href="#DejaVuSans-30"/>
       <use xlink:href="#DejaVuSans-2e" x="63.623047"/>
       <use xlink:href="#DejaVuSans-34" x="95.410156"/>
      </g>
     </g>
    </g>
    <g id="ytick_11">
     <g id="line2d_41">
      <path d="M 313.085625 101.222906 
L 505.085625 101.222906 
" clip-path="url(#p037133c414)" style="fill: none; stroke: #cccccc; stroke-linecap: round"/>
     </g>
     <g id="text_34">
      <!-- 0.6 -->
      <g style="fill: #262626" transform="translate(281.32125 106.541812) scale(0.14 -0.14)">
       <use xlink:href="#DejaVuSans-30"/>
       <use xlink:href="#DejaVuSans-2e" x="63.623047"/>
       <use xlink:href="#DejaVuSans-36" x="95.410156"/>
      </g>
     </g>
    </g>
    <g id="ytick_12">
     <g id="line2d_42">
      <path d="M 313.085625 56.870906 
L 505.085625 56.870906 
" clip-path="url(#p037133c414)" style="fill: none; stroke: #cccccc; stroke-linecap: round"/>
     </g>
     <g id="text_35">
      <!-- 0.8 -->
      <g style="fill: #262626" transform="translate(281.32125 62.189812) scale(0.14 -0.14)">
       <use xlink:href="#DejaVuSans-30"/>
       <use xlink:href="#DejaVuSans-2e" x="63.623047"/>
       <use xlink:href="#DejaVuSans-38" x="95.410156"/>
      </g>
     </g>
    </g>
    <g id="ytick_13">
     <g id="line2d_43">
      <path d="M 313.085625 12.518906 
L 505.085625 12.518906 
" clip-path="url(#p037133c414)" style="fill: none; stroke: #cccccc; stroke-linecap: round"/>
     </g>
     <g id="text_36">
      <!-- 1.0 -->
      <g style="fill: #262626" transform="translate(281.32125 17.837812) scale(0.14 -0.14)">
       <use xlink:href="#DejaVuSans-31"/>
       <use xlink:href="#DejaVuSans-2e" x="63.623047"/>
       <use xlink:href="#DejaVuSans-30" x="95.410156"/>
      </g>
     </g>
    </g>
    <g id="text_37">
     <!-- absolute noise error -->
     <g style="fill: #262626" transform="translate(274.825625 183.489844) rotate(-90) scale(0.12 -0.12)">
      <use xlink:href="#DejaVuSans-61"/>
      <use xlink:href="#DejaVuSans-62" x="61.279297"/>
      <use xlink:href="#DejaVuSans-73" x="124.755859"/>
      <use xlink:href="#DejaVuSans-6f" x="176.855469"/>
      <use xlink:href="#DejaVuSans-6c" x="238.037109"/>
      <use xlink:href="#DejaVuSans-75" x="265.820312"/>
      <use xlink:href="#DejaVuSans-74" x="329.199219"/>
      <use xlink:href="#DejaVuSans-65" x="368.408203"/>
      <use xlink:href="#DejaVuSans-20" x="429.931641"/>
      <use xlink:href="#DejaVuSans-6e" x="461.71875"/>
      <use xlink:href="#DejaVuSans-6f" x="525.097656"/>
      <use xlink:href="#DejaVuSans-69" x="586.279297"/>
      <use xlink:href="#DejaVuSans-73" x="614.0625"/>
      <use xlink:href="#DejaVuSans-65" x="666.162109"/>
      <use xlink:href="#DejaVuSans-20" x="727.685547"/>
      <use xlink:href="#DejaVuSans-65" x="759.472656"/>
      <use xlink:href="#DejaVuSans-72" x="820.996094"/>
      <use xlink:href="#DejaVuSans-72" x="860.359375"/>
      <use xlink:href="#DejaVuSans-6f" x="899.222656"/>
      <use xlink:href="#DejaVuSans-72" x="960.404297"/>
     </g>
    </g>
   </g>
   <g id="PolyCollection_7">
    <path d="M 321.812898 -1155.540962 
L 321.812898 83.226084 
L 330.999501 187.438681 
L 340.186103 197.579678 
L 349.372706 212.583811 
L 358.559309 215.263309 
L 367.745912 214.070009 
L 376.932515 218.986542 
L 386.119118 219.295034 
L 395.305721 221.368292 
L 404.492324 226.755482 
L 413.678926 227.67904 
L 422.865529 227.680896 
L 432.052132 228.848374 
L 441.238735 229.325747 
L 450.425338 228.309347 
L 459.611941 227.355589 
L 468.798544 229.897362 
L 477.985147 229.466456 
L 487.171749 229.957766 
L 496.358352 229.79087 
L 496.358352 220.128149 
L 496.358352 220.128149 
L 487.171749 219.840739 
L 477.985147 219.58363 
L 468.798544 219.932963 
L 459.611941 213.344616 
L 450.425338 216.1257 
L 441.238735 218.852599 
L 432.052132 218.791796 
L 422.865529 217.392762 
L 413.678926 214.998331 
L 404.492324 213.83367 
L 395.305721 203.987224 
L 386.119118 198.861755 
L 376.932515 197.312797 
L 367.745912 178.224827 
L 358.559309 192.697724 
L 349.372706 100.364432 
L 340.186103 102.899214 
L 330.999501 -5.839172 
L 321.812898 -1155.540962 
z
" clip-path="url(#p037133c414)" style="fill: #1f77b4; fill-opacity: 0.2; stroke: #1f77b4; stroke-opacity: 0.2"/>
   </g>
   <g id="PolyCollection_8">
    <path d="M 321.812898 -1204.386096 
L 321.812898 39.638279 
L 330.999501 177.580209 
L 340.186103 194.477697 
L 349.372706 212.381397 
L 358.559309 217.008204 
L 367.745912 217.190308 
L 376.932515 218.598353 
L 386.119118 219.788093 
L 395.305721 222.81613 
L 404.492324 222.944951 
L 413.678926 223.935934 
L 422.865529 223.364894 
L 432.052132 226.057926 
L 441.238735 226.651877 
L 450.425338 225.653648 
L 459.611941 226.304302 
L 468.798544 228.105363 
L 477.985147 227.595963 
L 487.171749 228.603895 
L 496.358352 228.979272 
L 496.358352 222.822567 
L 496.358352 222.822567 
L 487.171749 220.619732 
L 477.985147 219.404368 
L 468.798544 220.787175 
L 459.611941 216.511045 
L 450.425338 214.698552 
L 441.238735 216.232894 
L 432.052132 214.205166 
L 422.865529 211.107403 
L 413.678926 210.386936 
L 404.492324 211.18526 
L 395.305721 210.703956 
L 386.119118 205.765237 
L 376.932515 199.388505 
L 367.745912 184.499222 
L 358.559309 200.802331 
L 349.372706 108.383883 
L 340.186103 101.325926 
L 330.999501 -6.919156 
L 321.812898 -1204.386096 
z
" clip-path="url(#p037133c414)" style="fill: #ff7f0e; fill-opacity: 0.2; stroke: #ff7f0e; stroke-opacity: 0.2"/>
   </g>
   <g id="PolyCollection_9">
    <path d="M 321.812898 -1207.585395 
L 321.812898 37.926778 
L 330.999501 165.731886 
L 340.186103 192.706476 
L 349.372706 210.961113 
L 358.559309 215.828177 
L 367.745912 215.552848 
L 376.932515 217.790865 
L 386.119118 221.549754 
L 395.305721 221.282533 
L 404.492324 222.623602 
L 413.678926 221.708589 
L 422.865529 225.29802 
L 432.052132 224.387149 
L 441.238735 223.875603 
L 450.425338 225.123409 
L 459.611941 225.001896 
L 468.798544 224.17569 
L 477.985147 225.136371 
L 487.171749 225.822138 
L 496.358352 225.277664 
L 496.358352 215.514607 
L 496.358352 215.514607 
L 487.171749 217.036963 
L 477.985147 215.472299 
L 468.798544 215.282726 
L 459.611941 217.379345 
L 450.425338 215.330353 
L 441.238735 214.824777 
L 432.052132 214.811552 
L 422.865529 216.425271 
L 413.678926 210.906355 
L 404.492324 211.542551 
L 395.305721 210.62026 
L 386.119118 209.744344 
L 376.932515 202.560317 
L 367.745912 183.093144 
L 358.559309 198.797588 
L 349.372706 100.890129 
L 340.186103 99.965045 
L 330.999501 -2.39767 
L 321.812898 -1207.585395 
z
" clip-path="url(#p037133c414)" style="fill: #2ca02c; fill-opacity: 0.2; stroke: #2ca02c; stroke-opacity: 0.2"/>
   </g>
   <g id="PolyCollection_10">
    <defs>
     <path id="mde994033e6" d="M 321.812898 -327.615081 
L 321.812898 -212.13505 
L 330.999501 -108.866061 
L 340.186103 -91.886872 
L 349.372706 -86.35145 
L 358.559309 -71.260734 
L 367.745912 -74.095919 
L 376.932515 -66.91323 
L 386.119118 -62.575757 
L 395.305721 -62.174896 
L 404.492324 -62.111094 
L 413.678926 -61.658664 
L 422.865529 -62.135905 
L 432.052132 -61.533077 
L 441.238735 -61.096537 
L 450.425338 -58.960599 
L 459.611941 -60.265991 
L 468.798544 -56.441146 
L 477.985147 -55.3543 
L 487.171749 -55.493993 
L 496.358352 -54.897387 
L 496.358352 -58.055249 
L 496.358352 -58.055249 
L 487.171749 -58.584587 
L 477.985147 -58.530893 
L 468.798544 -59.846801 
L 459.611941 -64.311142 
L 450.425338 -62.761967 
L 441.238735 -65.468469 
L 432.052132 -65.807863 
L 422.865529 -66.634398 
L 413.678926 -66.165835 
L 404.492324 -66.513055 
L 395.305721 -66.175461 
L 386.119118 -67.117196 
L 376.932515 -72.684762 
L 367.745912 -83.214506 
L 358.559309 -78.386965 
L 349.372706 -128.827393 
L 340.186103 -116.232073 
L 330.999501 -164.073803 
L 321.812898 -327.615081 
z
" style="stroke: #1f77b4; stroke-opacity: 0.2"/>
    </defs>
    <g clip-path="url(#p037133c414)">
     <use xlink:href="#mde994033e6" x="0" y="280.142031" style="fill: #1f77b4; fill-opacity: 0.2; stroke: #1f77b4; stroke-opacity: 0.2"/>
    </g>
   </g>
   <g id="PolyCollection_11">
    <path d="M 321.812898 -59.925836 
L 321.812898 53.621659 
L 330.999501 165.092277 
L 340.186103 185.949395 
L 349.372706 193.678103 
L 358.559309 209.185837 
L 367.745912 208.11894 
L 376.932515 213.851003 
L 386.119118 218.062378 
L 395.305721 219.204651 
L 404.492324 219.133758 
L 413.678926 219.190769 
L 422.865529 219.15034 
L 432.052132 220.109344 
L 441.238735 220.07996 
L 450.425338 220.86498 
L 459.611941 221.475134 
L 468.798544 221.015768 
L 477.985147 221.38608 
L 487.171749 221.901455 
L 496.358352 221.759736 
L 496.358352 218.951462 
L 496.358352 218.951462 
L 487.171749 219.008304 
L 477.985147 218.568452 
L 468.798544 218.137201 
L 459.611941 218.632515 
L 450.425338 217.939026 
L 441.238735 217.095484 
L 432.052132 217.148729 
L 422.865529 216.089374 
L 413.678926 215.931167 
L 404.492324 216.144254 
L 395.305721 216.11877 
L 386.119118 214.493685 
L 376.932515 208.708419 
L 367.745912 199.109638 
L 358.559309 202.672976 
L 349.372706 152.058316 
L 340.186103 162.134255 
L 330.999501 117.490246 
L 321.812898 -59.925836 
z
" clip-path="url(#p037133c414)" style="fill: #ff7f0e; fill-opacity: 0.2; stroke: #ff7f0e; stroke-opacity: 0.2"/>
   </g>
   <g id="PolyCollection_12">
    <path d="M 321.812898 -96.043705 
L 321.812898 12.076445 
L 330.999501 163.296339 
L 340.186103 183.547982 
L 349.372706 192.933645 
L 358.559309 209.459553 
L 367.745912 205.138053 
L 376.932515 212.650774 
L 386.119118 217.332 
L 395.305721 219.251017 
L 404.492324 217.536041 
L 413.678926 219.168233 
L 422.865529 219.70833 
L 432.052132 219.581914 
L 441.238735 220.017555 
L 450.425338 221.387658 
L 459.611941 221.434182 
L 468.798544 221.906661 
L 477.985147 221.481625 
L 487.171749 221.927472 
L 496.358352 221.750756 
L 496.358352 219.552775 
L 496.358352 219.552775 
L 487.171749 219.707632 
L 477.985147 219.02718 
L 468.798544 219.65311 
L 459.611941 219.116254 
L 450.425338 218.929773 
L 441.238735 217.505118 
L 432.052132 217.071253 
L 422.865529 217.155731 
L 413.678926 216.478957 
L 404.492324 214.566041 
L 395.305721 215.63761 
L 386.119118 213.894208 
L 376.932515 207.511353 
L 367.745912 194.462428 
L 358.559309 203.408287 
L 349.372706 155.312585 
L 340.186103 161.587813 
L 330.999501 128.180461 
L 321.812898 -96.043705 
z
" clip-path="url(#p037133c414)" style="fill: #2ca02c; fill-opacity: 0.2; stroke: #2ca02c; stroke-opacity: 0.2"/>
   </g>
   <g id="line2d_44">
    <path d="M 329.135004 -1 
L 330.999501 111.202157 
L 340.186103 155.288078 
L 349.372706 172.330944 
L 358.559309 204.93293 
L 367.745912 197.91368 
L 376.932515 208.791297 
L 386.119118 210.041133 
L 395.305721 212.897275 
L 404.492324 221.269196 
L 413.678926 221.786032 
L 422.865529 223.195863 
L 432.052132 224.333952 
L 441.238735 224.494168 
L 450.425338 222.734875 
L 459.611941 221.0318 
L 468.798544 225.342367 
L 477.985147 224.758861 
L 487.171749 225.47054 
L 496.358352 225.505619 
" clip-path="url(#p037133c414)" style="fill: none; stroke-dasharray: 7.4,3.2; stroke-dashoffset: 0; stroke: #1f77b4; stroke-width: 2"/>
   </g>
   <g id="line2d_45">
    <path d="M 329.290668 -1 
L 330.999501 102.890866 
L 340.186103 154.471357 
L 349.372706 174.695656 
L 358.559309 208.966678 
L 367.745912 203.124547 
L 376.932515 209.725106 
L 386.119118 213.299479 
L 395.305721 216.889582 
L 404.492324 217.553449 
L 413.678926 217.881058 
L 422.865529 217.509473 
L 432.052132 220.329685 
L 441.238735 221.782594 
L 450.425338 220.483602 
L 459.611941 221.566429 
L 468.798544 224.528884 
L 477.985147 224.014836 
L 487.171749 224.991393 
L 496.358352 226.250755 
" clip-path="url(#p037133c414)" style="fill: none; stroke-dasharray: 7.4,3.2; stroke-dashoffset: 0; stroke: #ff7f0e; stroke-width: 2"/>
   </g>
   <g id="line2d_46">
    <path d="M 329.482246 -1 
L 330.999501 91.779988 
L 340.186103 153.069563 
L 349.372706 170.637669 
L 358.559309 207.896246 
L 367.745912 202.512351 
L 376.932515 210.342606 
L 386.119118 215.979115 
L 395.305721 216.155204 
L 404.492324 217.246496 
L 413.678926 216.387443 
L 422.865529 220.950652 
L 432.052132 219.803615 
L 441.238735 219.734511 
L 450.425338 220.318246 
L 459.611941 221.569182 
L 468.798544 219.944306 
L 477.985147 220.622036 
L 487.171749 221.867299 
L 496.358352 220.911833 
" clip-path="url(#p037133c414)" style="fill: none; stroke-dasharray: 7.4,3.2; stroke-dashoffset: 0; stroke: #2ca02c; stroke-width: 2"/>
   </g>
   <g id="line2d_47"/>
   <g id="line2d_48"/>
   <g id="line2d_49"/>
   <g id="line2d_50">
    <path d="M 321.812898 14.461745 
L 330.999501 145.933358 
L 340.186103 176.205444 
L 349.372706 173.568386 
L 358.559309 205.507006 
L 367.745912 201.83216 
L 376.932515 210.239395 
L 386.119118 215.163746 
L 395.305721 215.864697 
L 404.492324 215.948409 
L 413.678926 216.165847 
L 422.865529 215.868284 
L 432.052132 216.505838 
L 441.238735 216.934391 
L 450.425338 219.282853 
L 459.611941 217.809051 
L 468.798544 222.09878 
L 477.985147 223.165078 
L 487.171749 223.067075 
L 496.358352 223.714926 
" clip-path="url(#p037133c414)" style="fill: none; stroke: #1f77b4; stroke-width: 2; stroke-linecap: round"/>
   </g>
   <g id="line2d_51">
    <path d="M 321.812898 1.43679 
L 330.999501 143.611295 
L 340.186103 174.548403 
L 349.372706 174.139265 
L 358.559309 205.93994 
L 367.745912 203.978206 
L 376.932515 211.363096 
L 386.119118 216.295836 
L 395.305721 217.569842 
L 404.492324 217.802486 
L 413.678926 217.640875 
L 422.865529 217.643665 
L 432.052132 218.558826 
L 441.238735 218.687708 
L 450.425338 219.442556 
L 459.611941 220.036605 
L 468.798544 219.640301 
L 477.985147 219.993029 
L 487.171749 220.520302 
L 496.358352 220.386566 
" clip-path="url(#p037133c414)" style="fill: none; stroke: #ff7f0e; stroke-width: 2; stroke-linecap: round"/>
   </g>
   <g id="line2d_52">
    <path d="M 323.634342 -1 
L 330.999501 147.110683 
L 340.186103 173.237723 
L 349.372706 174.640784 
L 358.559309 206.483738 
L 367.745912 200.295336 
L 376.932515 210.276663 
L 386.119118 215.641559 
L 395.305721 217.423846 
L 404.492324 216.07872 
L 413.678926 217.848861 
L 422.865529 218.470432 
L 432.052132 218.427856 
L 441.238735 218.761216 
L 450.425338 220.180495 
L 459.611941 220.250158 
L 468.798544 220.79941 
L 477.985147 220.273559 
L 487.171749 220.87397 
L 496.358352 220.639175 
" clip-path="url(#p037133c414)" style="fill: none; stroke: #2ca02c; stroke-width: 2; stroke-linecap: round"/>
   </g>
   <g id="line2d_53"/>
   <g id="line2d_54"/>
   <g id="line2d_55"/>
   <g id="patch_9">
    <path d="M 313.085625 234.278906 
L 313.085625 12.518906 
" style="fill: none; stroke: #cccccc; stroke-width: 1.25; stroke-linejoin: miter; stroke-linecap: square"/>
   </g>
   <g id="patch_10">
    <path d="M 505.085625 234.278906 
L 505.085625 12.518906 
" style="fill: none; stroke: #cccccc; stroke-width: 1.25; stroke-linejoin: miter; stroke-linecap: square"/>
   </g>
   <g id="patch_11">
    <path d="M 313.085625 234.278906 
L 505.085625 234.278906 
" style="fill: none; stroke: #cccccc; stroke-width: 1.25; stroke-linejoin: miter; stroke-linecap: square"/>
   </g>
   <g id="patch_12">
    <path d="M 313.085625 12.518906 
L 505.085625 12.518906 
" style="fill: none; stroke: #cccccc; stroke-width: 1.25; stroke-linejoin: miter; stroke-linecap: square"/>
   </g>
   <g id="legend_2">
    <g id="patch_13">
     <path d="M 436.495625 135.642031 
L 497.385625 135.642031 
Q 499.585625 135.642031 499.585625 133.442031 
L 499.585625 20.218906 
Q 499.585625 18.018906 497.385625 18.018906 
L 436.495625 18.018906 
Q 434.295625 18.018906 434.295625 20.218906 
L 434.295625 133.442031 
Q 434.295625 135.642031 436.495625 135.642031 
z
" style="fill: #ffffff; opacity: 0.8; stroke: #cccccc; stroke-linejoin: miter"/>
    </g>
    <g id="text_38">
     <!-- noise_std -->
     <g style="fill: #262626" transform="translate(438.695625 31.537031) scale(0.12 -0.12)">
      <use xlink:href="#DejaVuSans-6e"/>
      <use xlink:href="#DejaVuSans-6f" x="63.378906"/>
      <use xlink:href="#DejaVuSans-69" x="124.560547"/>
      <use xlink:href="#DejaVuSans-73" x="152.34375"/>
      <use xlink:href="#DejaVuSans-65" x="204.443359"/>
      <use xlink:href="#DejaVuSans-5f" x="265.966797"/>
      <use xlink:href="#DejaVuSans-73" x="315.966797"/>
      <use xlink:href="#DejaVuSans-74" x="368.066406"/>
      <use xlink:href="#DejaVuSans-64" x="407.275391"/>
     </g>
    </g>
    <g id="line2d_56">
     <path d="M 442.793906 44.374687 
L 453.793906 44.374687 
L 464.793906 44.374687 
" style="fill: none; stroke-dasharray: 7.4,3.2; stroke-dashoffset: 0; stroke: #1f77b4; stroke-width: 2"/>
    </g>
    <g id="text_39">
     <!-- 0.1 -->
     <g style="fill: #262626" transform="translate(473.593906 48.224687) scale(0.11 -0.11)">
      <use xlink:href="#DejaVuSans-30"/>
      <use xlink:href="#DejaVuSans-2e" x="63.623047"/>
      <use xlink:href="#DejaVuSans-31" x="95.410156"/>
     </g>
    </g>
    <g id="line2d_57">
     <path d="M 442.793906 60.520625 
L 453.793906 60.520625 
L 464.793906 60.520625 
" style="fill: none; stroke-dasharray: 7.4,3.2; stroke-dashoffset: 0; stroke: #ff7f0e; stroke-width: 2"/>
    </g>
    <g id="text_40">
     <!-- 0.3 -->
     <g style="fill: #262626" transform="translate(473.593906 64.370625) scale(0.11 -0.11)">
      <use xlink:href="#DejaVuSans-30"/>
      <use xlink:href="#DejaVuSans-2e" x="63.623047"/>
      <use xlink:href="#DejaVuSans-33" x="95.410156"/>
     </g>
    </g>
    <g id="line2d_58">
     <path d="M 442.793906 76.666562 
L 453.793906 76.666562 
L 464.793906 76.666562 
" style="fill: none; stroke-dasharray: 7.4,3.2; stroke-dashoffset: 0; stroke: #2ca02c; stroke-width: 2"/>
    </g>
    <g id="text_41">
     <!-- 0.5 -->
     <g style="fill: #262626" transform="translate(473.593906 80.516562) scale(0.11 -0.11)">
      <use xlink:href="#DejaVuSans-30"/>
      <use xlink:href="#DejaVuSans-2e" x="63.623047"/>
      <use xlink:href="#DejaVuSans-35" x="95.410156"/>
     </g>
    </g>
    <g id="line2d_59">
     <path d="M 442.793906 92.8125 
L 453.793906 92.8125 
L 464.793906 92.8125 
" style="fill: none; stroke: #1f77b4; stroke-width: 2; stroke-linecap: round"/>
    </g>
    <g id="text_42">
     <!-- 0.1 -->
     <g style="fill: #262626" transform="translate(473.593906 96.6625) scale(0.11 -0.11)">
      <use xlink:href="#DejaVuSans-30"/>
      <use xlink:href="#DejaVuSans-2e" x="63.623047"/>
      <use xlink:href="#DejaVuSans-31" x="95.410156"/>
     </g>
    </g>
    <g id="line2d_60">
     <path d="M 442.793906 108.958438 
L 453.793906 108.958438 
L 464.793906 108.958438 
" style="fill: none; stroke: #ff7f0e; stroke-width: 2; stroke-linecap: round"/>
    </g>
    <g id="text_43">
     <!-- 0.3 -->
     <g style="fill: #262626" transform="translate(473.593906 112.808437) scale(0.11 -0.11)">
      <use xlink:href="#DejaVuSans-30"/>
      <use xlink:href="#DejaVuSans-2e" x="63.623047"/>
      <use xlink:href="#DejaVuSans-33" x="95.410156"/>
     </g>
    </g>
    <g id="line2d_61">
     <path d="M 442.793906 125.104375 
L 453.793906 125.104375 
L 464.793906 125.104375 
" style="fill: none; stroke: #2ca02c; stroke-width: 2; stroke-linecap: round"/>
    </g>
    <g id="text_44">
     <!-- 0.5 -->
     <g style="fill: #262626" transform="translate(473.593906 128.954375) scale(0.11 -0.11)">
      <use xlink:href="#DejaVuSans-30"/>
      <use xlink:href="#DejaVuSans-2e" x="63.623047"/>
      <use xlink:href="#DejaVuSans-35" x="95.410156"/>
     </g>
    </g>
   </g>
  </g>
  <g id="axes_3">
   <g id="patch_14">
    <path d="M 562.685625 234.278906 
L 754.685625 234.278906 
L 754.685625 12.518906 
L 562.685625 12.518906 
z
" style="fill: #ffffff"/>
   </g>
   <g id="matplotlib.axis_5">
    <g id="xtick_13">
     <g id="line2d_62">
      <path d="M 571.412898 234.278906 
L 571.412898 12.518906 
" clip-path="url(#p05de924b56)" style="fill: none; stroke: #cccccc; stroke-linecap: round"/>
     </g>
     <g id="text_45">
      <!-- 5 -->
      <g style="fill: #262626" transform="translate(566.959148 254.416719) scale(0.14 -0.14)">
       <use xlink:href="#DejaVuSans-35"/>
      </g>
     </g>
    </g>
    <g id="xtick_14">
     <g id="line2d_63">
      <path d="M 598.972706 234.278906 
L 598.972706 12.518906 
" clip-path="url(#p05de924b56)" style="fill: none; stroke: #cccccc; stroke-linecap: round"/>
     </g>
     <g id="text_46">
      <!-- 20 -->
      <g style="fill: #262626" transform="translate(590.065206 254.416719) scale(0.14 -0.14)">
       <use xlink:href="#DejaVuSans-32"/>
       <use xlink:href="#DejaVuSans-30" x="63.623047"/>
      </g>
     </g>
    </g>
    <g id="xtick_15">
     <g id="line2d_64">
      <path d="M 635.719118 234.278906 
L 635.719118 12.518906 
" clip-path="url(#p05de924b56)" style="fill: none; stroke: #cccccc; stroke-linecap: round"/>
     </g>
     <g id="text_47">
      <!-- 40 -->
      <g style="fill: #262626" transform="translate(626.811618 254.416719) scale(0.14 -0.14)">
       <use xlink:href="#DejaVuSans-34"/>
       <use xlink:href="#DejaVuSans-30" x="63.623047"/>
      </g>
     </g>
    </g>
    <g id="xtick_16">
     <g id="line2d_65">
      <path d="M 672.465529 234.278906 
L 672.465529 12.518906 
" clip-path="url(#p05de924b56)" style="fill: none; stroke: #cccccc; stroke-linecap: round"/>
     </g>
     <g id="text_48">
      <!-- 60 -->
      <g style="fill: #262626" transform="translate(663.558029 254.416719) scale(0.14 -0.14)">
       <use xlink:href="#DejaVuSans-36"/>
       <use xlink:href="#DejaVuSans-30" x="63.623047"/>
      </g>
     </g>
    </g>
    <g id="xtick_17">
     <g id="line2d_66">
      <path d="M 709.211941 234.278906 
L 709.211941 12.518906 
" clip-path="url(#p05de924b56)" style="fill: none; stroke: #cccccc; stroke-linecap: round"/>
     </g>
     <g id="text_49">
      <!-- 80 -->
      <g style="fill: #262626" transform="translate(700.304441 254.416719) scale(0.14 -0.14)">
       <use xlink:href="#DejaVuSans-38"/>
       <use xlink:href="#DejaVuSans-30" x="63.623047"/>
      </g>
     </g>
    </g>
    <g id="xtick_18">
     <g id="line2d_67">
      <path d="M 745.958352 234.278906 
L 745.958352 12.518906 
" clip-path="url(#p05de924b56)" style="fill: none; stroke: #cccccc; stroke-linecap: round"/>
     </g>
     <g id="text_50">
      <!-- 100 -->
      <g style="fill: #262626" transform="translate(732.597102 254.416719) scale(0.14 -0.14)">
       <use xlink:href="#DejaVuSans-31"/>
       <use xlink:href="#DejaVuSans-30" x="63.623047"/>
       <use xlink:href="#DejaVuSans-30" x="127.246094"/>
      </g>
     </g>
    </g>
    <g id="text_51">
     <!--   -->
     <g style="fill: #262626" transform="translate(656.77875 270.446406) scale(0.12 -0.12)">
      <use xlink:href="#DejaVuSans-20"/>
     </g>
    </g>
   </g>
   <g id="matplotlib.axis_6">
    <g id="ytick_14">
     <g id="line2d_68">
      <path d="M 562.685625 225.638085 
L 754.685625 225.638085 
" clip-path="url(#p05de924b56)" style="fill: none; stroke: #cccccc; stroke-linecap: round"/>
     </g>
     <g id="text_52">
      <!-- 0 -->
      <g style="fill: #262626" transform="translate(544.278125 230.956991) scale(0.14 -0.14)">
       <use xlink:href="#DejaVuSans-30"/>
      </g>
     </g>
    </g>
    <g id="ytick_15">
     <g id="line2d_69">
      <path d="M 562.685625 182.675353 
L 754.685625 182.675353 
" clip-path="url(#p05de924b56)" style="fill: none; stroke: #cccccc; stroke-linecap: round"/>
     </g>
     <g id="text_53">
      <!-- 50 -->
      <g style="fill: #262626" transform="translate(535.370625 187.99426) scale(0.14 -0.14)">
       <use xlink:href="#DejaVuSans-35"/>
       <use xlink:href="#DejaVuSans-30" x="63.623047"/>
      </g>
     </g>
    </g>
    <g id="ytick_16">
     <g id="line2d_70">
      <path d="M 562.685625 139.712622 
L 754.685625 139.712622 
" clip-path="url(#p05de924b56)" style="fill: none; stroke: #cccccc; stroke-linecap: round"/>
     </g>
     <g id="text_54">
      <!-- 100 -->
      <g style="fill: #262626" transform="translate(526.463125 145.031528) scale(0.14 -0.14)">
       <use xlink:href="#DejaVuSans-31"/>
       <use xlink:href="#DejaVuSans-30" x="63.623047"/>
       <use xlink:href="#DejaVuSans-30" x="127.246094"/>
      </g>
     </g>
    </g>
    <g id="ytick_17">
     <g id="line2d_71">
      <path d="M 562.685625 96.74989 
L 754.685625 96.74989 
" clip-path="url(#p05de924b56)" style="fill: none; stroke: #cccccc; stroke-linecap: round"/>
     </g>
     <g id="text_55">
      <!-- 150 -->
      <g style="fill: #262626" transform="translate(526.463125 102.068796) scale(0.14 -0.14)">
       <use xlink:href="#DejaVuSans-31"/>
       <use xlink:href="#DejaVuSans-35" x="63.623047"/>
       <use xlink:href="#DejaVuSans-30" x="127.246094"/>
      </g>
     </g>
    </g>
    <g id="ytick_18">
     <g id="line2d_72">
      <path d="M 562.685625 53.787158 
L 754.685625 53.787158 
" clip-path="url(#p05de924b56)" style="fill: none; stroke: #cccccc; stroke-linecap: round"/>
     </g>
     <g id="text_56">
      <!-- 200 -->
      <g style="fill: #262626" transform="translate(526.463125 59.106064) scale(0.14 -0.14)">
       <use xlink:href="#DejaVuSans-32"/>
       <use xlink:href="#DejaVuSans-30" x="63.623047"/>
       <use xlink:href="#DejaVuSans-30" x="127.246094"/>
      </g>
     </g>
    </g>
    <g id="text_57">
     <!-- CPU time (s) -->
     <g style="fill: #262626" transform="translate(519.9675 160.774219) rotate(-90) scale(0.12 -0.12)">
      <defs>
       <path id="DejaVuSans-43" d="M 4122 4306 
L 4122 3641 
Q 3803 3938 3442 4084 
Q 3081 4231 2675 4231 
Q 1875 4231 1450 3742 
Q 1025 3253 1025 2328 
Q 1025 1406 1450 917 
Q 1875 428 2675 428 
Q 3081 428 3442 575 
Q 3803 722 4122 1019 
L 4122 359 
Q 3791 134 3420 21 
Q 3050 -91 2638 -91 
Q 1578 -91 968 557 
Q 359 1206 359 2328 
Q 359 3453 968 4101 
Q 1578 4750 2638 4750 
Q 3056 4750 3426 4639 
Q 3797 4528 4122 4306 
z
" transform="scale(0.015625)"/>
       <path id="DejaVuSans-50" d="M 1259 4147 
L 1259 2394 
L 2053 2394 
Q 2494 2394 2734 2622 
Q 2975 2850 2975 3272 
Q 2975 3691 2734 3919 
Q 2494 4147 2053 4147 
L 1259 4147 
z
M 628 4666 
L 2053 4666 
Q 2838 4666 3239 4311 
Q 3641 3956 3641 3272 
Q 3641 2581 3239 2228 
Q 2838 1875 2053 1875 
L 1259 1875 
L 1259 0 
L 628 0 
L 628 4666 
z
" transform="scale(0.015625)"/>
       <path id="DejaVuSans-55" d="M 556 4666 
L 1191 4666 
L 1191 1831 
Q 1191 1081 1462 751 
Q 1734 422 2344 422 
Q 2950 422 3222 751 
Q 3494 1081 3494 1831 
L 3494 4666 
L 4128 4666 
L 4128 1753 
Q 4128 841 3676 375 
Q 3225 -91 2344 -91 
Q 1459 -91 1007 375 
Q 556 841 556 1753 
L 556 4666 
z
" transform="scale(0.015625)"/>
      </defs>
      <use xlink:href="#DejaVuSans-43"/>
      <use xlink:href="#DejaVuSans-50" x="69.824219"/>
      <use xlink:href="#DejaVuSans-55" x="130.126953"/>
      <use xlink:href="#DejaVuSans-20" x="203.320312"/>
      <use xlink:href="#DejaVuSans-74" x="235.107422"/>
      <use xlink:href="#DejaVuSans-69" x="274.316406"/>
      <use xlink:href="#DejaVuSans-6d" x="302.099609"/>
      <use xlink:href="#DejaVuSans-65" x="399.511719"/>
      <use xlink:href="#DejaVuSans-20" x="461.035156"/>
      <use xlink:href="#DejaVuSans-28" x="492.822266"/>
      <use xlink:href="#DejaVuSans-73" x="531.835938"/>
      <use xlink:href="#DejaVuSans-29" x="583.935547"/>
     </g>
    </g>
   </g>
   <g id="PolyCollection_13">
    <defs>
     <path id="m49d0375e59" d="M 571.412898 -56.795588 
L 571.412898 -55.943125 
L 580.599501 -57.002051 
L 589.786103 -58.710404 
L 598.972706 -60.662144 
L 608.159309 -62.551951 
L 617.345912 -64.561304 
L 626.532515 -67.274783 
L 635.719118 -70.011012 
L 644.905721 -72.456847 
L 654.092324 -76.532704 
L 663.278926 -79.337968 
L 672.465529 -83.35786 
L 681.652132 -85.492278 
L 690.838735 -91.571038 
L 700.025338 -95.889342 
L 709.211941 -103.573328 
L 718.398544 -103.206489 
L 727.585147 -105.223705 
L 736.771749 -119.220015 
L 745.958352 -118.844337 
L 745.958352 -253.29853 
L 745.958352 -253.29853 
L 736.771749 -245.769867 
L 727.585147 -224.533766 
L 718.398544 -205.593153 
L 709.211941 -200.48907 
L 700.025338 -186.181946 
L 690.838735 -167.844207 
L 681.652132 -150.083981 
L 672.465529 -142.943174 
L 663.278926 -136.81505 
L 654.092324 -118.0285 
L 644.905721 -107.028416 
L 635.719118 -101.569897 
L 626.532515 -90.410597 
L 617.345912 -81.571542 
L 608.159309 -74.572889 
L 598.972706 -68.843783 
L 589.786103 -63.440011 
L 580.599501 -59.312394 
L 571.412898 -56.795588 
z
" style="stroke: #1f77b4; stroke-opacity: 0.2"/>
    </defs>
    <g clip-path="url(#p05de924b56)">
     <use xlink:href="#m49d0375e59" x="0" y="280.142031" style="fill: #1f77b4; fill-opacity: 0.2; stroke: #1f77b4; stroke-opacity: 0.2"/>
    </g>
   </g>
   <g id="PolyCollection_14">
    <defs>
     <path id="m292157b44e" d="M 571.412898 -56.861699 
L 571.412898 -55.981189 
L 580.599501 -57.004016 
L 589.786103 -58.587775 
L 598.972706 -60.318463 
L 608.159309 -61.736817 
L 617.345912 -64.626834 
L 626.532515 -66.2752 
L 635.719118 -67.970857 
L 644.905721 -70.654828 
L 654.092324 -76.209517 
L 663.278926 -76.779397 
L 672.465529 -81.694292 
L 681.652132 -84.513145 
L 690.838735 -87.878572 
L 700.025338 -94.12787 
L 709.211941 -94.927926 
L 718.398544 -101.169449 
L 727.585147 -105.726744 
L 736.771749 -113.16906 
L 745.958352 -118.201827 
L 745.958352 -257.543125 
L 745.958352 -257.543125 
L 736.771749 -229.097593 
L 727.585147 -220.098649 
L 718.398544 -201.418023 
L 709.211941 -187.422694 
L 700.025338 -174.812033 
L 690.838735 -157.515097 
L 681.652132 -147.690369 
L 672.465529 -132.796262 
L 663.278926 -120.90683 
L 654.092324 -115.097011 
L 644.905721 -99.742943 
L 635.719118 -97.424567 
L 626.532515 -87.603344 
L 617.345912 -79.545667 
L 608.159309 -72.899428 
L 598.972706 -67.574351 
L 589.786103 -63.342163 
L 580.599501 -59.385947 
L 571.412898 -56.861699 
z
" style="stroke: #ff7f0e; stroke-opacity: 0.2"/>
    </defs>
    <g clip-path="url(#p05de924b56)">
     <use xlink:href="#m292157b44e" x="0" y="280.142031" style="fill: #ff7f0e; fill-opacity: 0.2; stroke: #ff7f0e; stroke-opacity: 0.2"/>
    </g>
   </g>
   <g id="PolyCollection_15">
    <defs>
     <path id="m86e2e29b9c" d="M 571.412898 -57.021829 
L 571.412898 -56.035066 
L 580.599501 -57.179373 
L 589.786103 -58.472581 
L 598.972706 -60.284934 
L 608.159309 -61.665462 
L 617.345912 -63.558153 
L 626.532515 -65.992217 
L 635.719118 -68.186969 
L 644.905721 -70.461764 
L 654.092324 -73.233284 
L 663.278926 -77.61547 
L 672.465529 -79.945547 
L 681.652132 -83.491907 
L 690.838735 -87.433172 
L 700.025338 -89.70274 
L 709.211941 -95.450499 
L 718.398544 -99.783671 
L 727.585147 -101.299381 
L 736.771749 -108.922636 
L 745.958352 -114.125569 
L 745.958352 -237.873543 
L 745.958352 -237.873543 
L 736.771749 -217.995445 
L 727.585147 -202.31991 
L 718.398544 -195.343391 
L 709.211941 -180.58171 
L 700.025338 -165.063966 
L 690.838735 -149.87827 
L 681.652132 -137.942233 
L 672.465529 -126.93032 
L 663.278926 -119.765384 
L 654.092324 -107.069622 
L 644.905721 -99.226179 
L 635.719118 -90.267711 
L 626.532515 -85.005459 
L 617.345912 -77.931677 
L 608.159309 -71.386746 
L 598.972706 -67.80936 
L 589.786103 -63.053252 
L 580.599501 -60.01448 
L 571.412898 -57.021829 
z
" style="stroke: #2ca02c; stroke-opacity: 0.2"/>
    </defs>
    <g clip-path="url(#p05de924b56)">
     <use xlink:href="#m86e2e29b9c" x="0" y="280.142031" style="fill: #2ca02c; fill-opacity: 0.2; stroke: #2ca02c; stroke-opacity: 0.2"/>
    </g>
   </g>
   <g id="PolyCollection_16">
    <defs>
     <path id="m308ea8b85f" d="M 571.412898 -130.284697 
L 571.412898 -109.710668 
L 580.599501 -110.199442 
L 589.786103 -112.503774 
L 598.972706 -115.938483 
L 608.159309 -115.653747 
L 617.345912 -116.38856 
L 626.532515 -121.019708 
L 635.719118 -121.757359 
L 644.905721 -121.622247 
L 654.092324 -124.847559 
L 663.278926 -126.546898 
L 672.465529 -129.714597 
L 681.652132 -131.746991 
L 690.838735 -134.500026 
L 700.025338 -137.25336 
L 709.211941 -138.716428 
L 718.398544 -142.061187 
L 727.585147 -145.907891 
L 736.771749 -150.098377 
L 745.958352 -152.101351 
L 745.958352 -184.405635 
L 745.958352 -184.405635 
L 736.771749 -180.8805 
L 727.585147 -174.155784 
L 718.398544 -171.096529 
L 709.211941 -165.24661 
L 700.025338 -162.015006 
L 690.838735 -159.26383 
L 681.652132 -157.406906 
L 672.465529 -155.391314 
L 663.278926 -151.432917 
L 654.092324 -148.984053 
L 644.905721 -143.639227 
L 635.719118 -145.354074 
L 626.532515 -144.975163 
L 617.345912 -138.636613 
L 608.159309 -138.472438 
L 598.972706 -138.687835 
L 589.786103 -135.093982 
L 580.599501 -130.963123 
L 571.412898 -130.284697 
z
" style="stroke: #1f77b4; stroke-opacity: 0.2"/>
    </defs>
    <g clip-path="url(#p05de924b56)">
     <use xlink:href="#m308ea8b85f" x="0" y="280.142031" style="fill: #1f77b4; fill-opacity: 0.2; stroke: #1f77b4; stroke-opacity: 0.2"/>
    </g>
   </g>
   <g id="PolyCollection_17">
    <defs>
     <path id="m5b8b1bbe7f" d="M 571.412898 -131.006291 
L 571.412898 -109.842592 
L 580.599501 -112.531028 
L 589.786103 -111.608307 
L 598.972706 -111.768186 
L 608.159309 -116.722216 
L 617.345912 -116.685702 
L 626.532515 -117.22528 
L 635.719118 -120.581076 
L 644.905721 -119.804097 
L 654.092324 -122.231177 
L 663.278926 -122.749228 
L 672.465529 -125.359463 
L 681.652132 -130.58753 
L 690.838735 -130.357135 
L 700.025338 -136.069117 
L 709.211941 -137.256022 
L 718.398544 -140.392064 
L 727.585147 -140.369647 
L 736.771749 -144.99585 
L 745.958352 -148.304323 
L 745.958352 -179.040617 
L 745.958352 -179.040617 
L 736.771749 -172.769786 
L 727.585147 -167.496091 
L 718.398544 -168.905879 
L 709.211941 -165.188578 
L 700.025338 -163.940134 
L 690.838735 -156.083886 
L 681.652132 -156.452491 
L 672.465529 -147.61681 
L 663.278926 -145.7717 
L 654.092324 -147.098524 
L 644.905721 -143.864562 
L 635.719118 -148.604448 
L 626.532515 -138.718561 
L 617.345912 -141.398801 
L 608.159309 -141.875226 
L 598.972706 -133.018383 
L 589.786103 -136.508726 
L 580.599501 -134.91923 
L 571.412898 -131.006291 
z
" style="stroke: #ff7f0e; stroke-opacity: 0.2"/>
    </defs>
    <g clip-path="url(#p05de924b56)">
     <use xlink:href="#m5b8b1bbe7f" x="0" y="280.142031" style="fill: #ff7f0e; fill-opacity: 0.2; stroke: #ff7f0e; stroke-opacity: 0.2"/>
    </g>
   </g>
   <g id="PolyCollection_18">
    <defs>
     <path id="m6fa6883042" d="M 571.412898 -134.206695 
L 571.412898 -109.535578 
L 580.599501 -110.967099 
L 589.786103 -109.437889 
L 598.972706 -113.424408 
L 608.159309 -111.942409 
L 617.345912 -114.228026 
L 626.532515 -116.296308 
L 635.719118 -117.780822 
L 644.905721 -117.844225 
L 654.092324 -120.537141 
L 663.278926 -123.126542 
L 672.465529 -126.282321 
L 681.652132 -128.155466 
L 690.838735 -129.418242 
L 700.025338 -130.961345 
L 709.211941 -134.378792 
L 718.398544 -136.332562 
L 727.585147 -139.365597 
L 736.771749 -144.753908 
L 745.958352 -145.373652 
L 745.958352 -173.976459 
L 745.958352 -173.976459 
L 736.771749 -175.25642 
L 727.585147 -166.80205 
L 718.398544 -163.926041 
L 709.211941 -161.143049 
L 700.025338 -157.237768 
L 690.838735 -153.923102 
L 681.652132 -152.72783 
L 672.465529 -151.721888 
L 663.278926 -149.982345 
L 654.092324 -143.859609 
L 644.905721 -141.72913 
L 635.719118 -143.011507 
L 626.532515 -139.488716 
L 617.345912 -136.80577 
L 608.159309 -133.69597 
L 598.972706 -136.462014 
L 589.786103 -131.867169 
L 580.599501 -133.852715 
L 571.412898 -134.206695 
z
" style="stroke: #2ca02c; stroke-opacity: 0.2"/>
    </defs>
    <g clip-path="url(#p05de924b56)">
     <use xlink:href="#m6fa6883042" x="0" y="280.142031" style="fill: #2ca02c; fill-opacity: 0.2; stroke: #2ca02c; stroke-opacity: 0.2"/>
    </g>
   </g>
   <g id="line2d_73">
    <path d="M 571.412898 223.795215 
L 580.599501 222.042584 
L 589.786103 219.293788 
L 598.972706 215.724499 
L 608.159309 212.341079 
L 617.345912 207.591514 
L 626.532515 202.490162 
L 635.719118 195.486959 
L 644.905721 191.636977 
L 654.092324 184.706888 
L 663.278926 175.139908 
L 672.465529 170.424267 
L 681.652132 164.663384 
L 690.838735 153.21798 
L 700.025338 144.947936 
L 709.211941 134.040225 
L 718.398544 127.360521 
L 727.585147 119.879214 
L 736.771749 105.180983 
L 745.958352 101.260537 
" clip-path="url(#p05de924b56)" style="fill: none; stroke-dasharray: 7.4,3.2; stroke-dashoffset: 0; stroke: #1f77b4; stroke-width: 2"/>
   </g>
   <g id="line2d_74">
    <path d="M 571.412898 223.703273 
L 580.599501 222.024492 
L 589.786103 219.314444 
L 598.972706 216.475197 
L 608.159309 213.175485 
L 617.345912 209.131859 
L 626.532515 204.791086 
L 635.719118 198.246633 
L 644.905721 195.486024 
L 654.092324 187.510505 
L 663.278926 183.692536 
L 672.465529 175.789677 
L 681.652132 167.139261 
L 690.838735 160.503585 
L 700.025338 151.037967 
L 709.211941 140.262362 
L 718.398544 133.075041 
L 727.585147 123.101924 
L 736.771749 116.930374 
L 745.958352 100.18348 
" clip-path="url(#p05de924b56)" style="fill: none; stroke-dasharray: 7.4,3.2; stroke-dashoffset: 0; stroke: #ff7f0e; stroke-width: 2"/>
   </g>
   <g id="line2d_75">
    <path d="M 571.412898 223.653814 
L 580.599501 221.590808 
L 589.786103 219.476549 
L 598.972706 216.31482 
L 608.159309 213.823381 
L 617.345912 210.019752 
L 626.532515 205.600956 
L 635.719118 201.347357 
L 644.905721 196.669085 
L 654.092324 191.434859 
L 663.278926 183.542296 
L 672.465529 179.278659 
L 681.652132 170.583642 
L 690.838735 165.692813 
L 700.025338 156.11902 
L 709.211941 144.018087 
L 718.398544 137.778395 
L 727.585147 133.886534 
L 736.771749 120.294244 
L 745.958352 110.128987 
" clip-path="url(#p05de924b56)" style="fill: none; stroke-dasharray: 7.4,3.2; stroke-dashoffset: 0; stroke: #2ca02c; stroke-width: 2"/>
   </g>
   <g id="line2d_76"/>
   <g id="line2d_77"/>
   <g id="line2d_78"/>
   <g id="line2d_79">
    <path d="M 571.412898 160.221987 
L 580.599501 160.543023 
L 589.786103 156.551872 
L 598.972706 153.571228 
L 608.159309 153.667672 
L 617.345912 153.489469 
L 626.532515 148.299794 
L 635.719118 146.873634 
L 644.905721 147.92212 
L 654.092324 144.032003 
L 663.278926 141.494396 
L 672.465529 138.634117 
L 681.652132 135.842334 
L 690.838735 134.364416 
L 700.025338 130.468134 
L 709.211941 129.138137 
L 718.398544 123.805079 
L 727.585147 120.204373 
L 736.771749 115.548929 
L 745.958352 112.581175 
" clip-path="url(#p05de924b56)" style="fill: none; stroke: #1f77b4; stroke-width: 2; stroke-linecap: round"/>
   </g>
   <g id="line2d_80">
    <path d="M 571.412898 159.744498 
L 580.599501 156.944487 
L 589.786103 157.161466 
L 598.972706 158.059344 
L 608.159309 152.109092 
L 617.345912 151.705494 
L 626.532515 152.576054 
L 635.719118 145.585616 
L 644.905721 148.05892 
L 654.092324 146.417479 
L 663.278926 145.589696 
L 672.465529 143.819333 
L 681.652132 137.649603 
L 690.838735 136.95699 
L 700.025338 130.180548 
L 709.211941 129.183549 
L 718.398544 126.175252 
L 727.585147 126.38134 
L 736.771749 121.034264 
L 745.958352 117.567331 
" clip-path="url(#p05de924b56)" style="fill: none; stroke: #ff7f0e; stroke-width: 2; stroke-linecap: round"/>
   </g>
   <g id="line2d_81">
    <path d="M 571.412898 159.296314 
L 580.599501 158.505207 
L 589.786103 160.024921 
L 598.972706 156.299684 
L 608.159309 157.121287 
L 617.345912 155.420708 
L 626.532515 152.39477 
L 635.719118 149.809329 
L 644.905721 150.090749 
L 654.092324 148.153701 
L 663.278926 143.904447 
L 672.465529 141.653361 
L 681.652132 140.022837 
L 690.838735 139.080685 
L 700.025338 136.408227 
L 709.211941 132.819768 
L 718.398544 129.741417 
L 727.585147 127.331291 
L 736.771749 121.551691 
L 745.958352 121.186307 
" clip-path="url(#p05de924b56)" style="fill: none; stroke: #2ca02c; stroke-width: 2; stroke-linecap: round"/>
   </g>
   <g id="line2d_82"/>
   <g id="line2d_83"/>
   <g id="line2d_84"/>
   <g id="patch_15">
    <path d="M 562.685625 234.278906 
L 562.685625 12.518906 
" style="fill: none; stroke: #cccccc; stroke-width: 1.25; stroke-linejoin: miter; stroke-linecap: square"/>
   </g>
   <g id="patch_16">
    <path d="M 754.685625 234.278906 
L 754.685625 12.518906 
" style="fill: none; stroke: #cccccc; stroke-width: 1.25; stroke-linejoin: miter; stroke-linecap: square"/>
   </g>
   <g id="patch_17">
    <path d="M 562.685625 234.278906 
L 754.685625 234.278906 
" style="fill: none; stroke: #cccccc; stroke-width: 1.25; stroke-linejoin: miter; stroke-linecap: square"/>
   </g>
   <g id="patch_18">
    <path d="M 562.685625 12.518906 
L 754.685625 12.518906 
" style="fill: none; stroke: #cccccc; stroke-width: 1.25; stroke-linejoin: miter; stroke-linecap: square"/>
   </g>
   <g id="legend_3">
    <g id="patch_19">
     <path d="M 570.385625 135.642031 
L 631.275625 135.642031 
Q 633.475625 135.642031 633.475625 133.442031 
L 633.475625 20.218906 
Q 633.475625 18.018906 631.275625 18.018906 
L 570.385625 18.018906 
Q 568.185625 18.018906 568.185625 20.218906 
L 568.185625 133.442031 
Q 568.185625 135.642031 570.385625 135.642031 
z
" style="fill: #ffffff; opacity: 0.8; stroke: #cccccc; stroke-linejoin: miter"/>
    </g>
    <g id="text_58">
     <!-- noise_std -->
     <g style="fill: #262626" transform="translate(572.585625 31.537031) scale(0.12 -0.12)">
      <use xlink:href="#DejaVuSans-6e"/>
      <use xlink:href="#DejaVuSans-6f" x="63.378906"/>
      <use xlink:href="#DejaVuSans-69" x="124.560547"/>
      <use xlink:href="#DejaVuSans-73" x="152.34375"/>
      <use xlink:href="#DejaVuSans-65" x="204.443359"/>
      <use xlink:href="#DejaVuSans-5f" x="265.966797"/>
      <use xlink:href="#DejaVuSans-73" x="315.966797"/>
      <use xlink:href="#DejaVuSans-74" x="368.066406"/>
      <use xlink:href="#DejaVuSans-64" x="407.275391"/>
     </g>
    </g>
    <g id="line2d_85">
     <path d="M 576.683906 44.374687 
L 587.683906 44.374687 
L 598.683906 44.374687 
" style="fill: none; stroke-dasharray: 7.4,3.2; stroke-dashoffset: 0; stroke: #1f77b4; stroke-width: 2"/>
    </g>
    <g id="text_59">
     <!-- 0.1 -->
     <g style="fill: #262626" transform="translate(607.483906 48.224687) scale(0.11 -0.11)">
      <use xlink:href="#DejaVuSans-30"/>
      <use xlink:href="#DejaVuSans-2e" x="63.623047"/>
      <use xlink:href="#DejaVuSans-31" x="95.410156"/>
     </g>
    </g>
    <g id="line2d_86">
     <path d="M 576.683906 60.520625 
L 587.683906 60.520625 
L 598.683906 60.520625 
" style="fill: none; stroke-dasharray: 7.4,3.2; stroke-dashoffset: 0; stroke: #ff7f0e; stroke-width: 2"/>
    </g>
    <g id="text_60">
     <!-- 0.3 -->
     <g style="fill: #262626" transform="translate(607.483906 64.370625) scale(0.11 -0.11)">
      <use xlink:href="#DejaVuSans-30"/>
      <use xlink:href="#DejaVuSans-2e" x="63.623047"/>
      <use xlink:href="#DejaVuSans-33" x="95.410156"/>
     </g>
    </g>
    <g id="line2d_87">
     <path d="M 576.683906 76.666562 
L 587.683906 76.666562 
L 598.683906 76.666562 
" style="fill: none; stroke-dasharray: 7.4,3.2; stroke-dashoffset: 0; stroke: #2ca02c; stroke-width: 2"/>
    </g>
    <g id="text_61">
     <!-- 0.5 -->
     <g style="fill: #262626" transform="translate(607.483906 80.516562) scale(0.11 -0.11)">
      <use xlink:href="#DejaVuSans-30"/>
      <use xlink:href="#DejaVuSans-2e" x="63.623047"/>
      <use xlink:href="#DejaVuSans-35" x="95.410156"/>
     </g>
    </g>
    <g id="line2d_88">
     <path d="M 576.683906 92.8125 
L 587.683906 92.8125 
L 598.683906 92.8125 
" style="fill: none; stroke: #1f77b4; stroke-width: 2; stroke-linecap: round"/>
    </g>
    <g id="text_62">
     <!-- 0.1 -->
     <g style="fill: #262626" transform="translate(607.483906 96.6625) scale(0.11 -0.11)">
      <use xlink:href="#DejaVuSans-30"/>
      <use xlink:href="#DejaVuSans-2e" x="63.623047"/>
      <use xlink:href="#DejaVuSans-31" x="95.410156"/>
     </g>
    </g>
    <g id="line2d_89">
     <path d="M 576.683906 108.958438 
L 587.683906 108.958438 
L 598.683906 108.958438 
" style="fill: none; stroke: #ff7f0e; stroke-width: 2; stroke-linecap: round"/>
    </g>
    <g id="text_63">
     <!-- 0.3 -->
     <g style="fill: #262626" transform="translate(607.483906 112.808437) scale(0.11 -0.11)">
      <use xlink:href="#DejaVuSans-30"/>
      <use xlink:href="#DejaVuSans-2e" x="63.623047"/>
      <use xlink:href="#DejaVuSans-33" x="95.410156"/>
     </g>
    </g>
    <g id="line2d_90">
     <path d="M 576.683906 125.104375 
L 587.683906 125.104375 
L 598.683906 125.104375 
" style="fill: none; stroke: #2ca02c; stroke-width: 2; stroke-linecap: round"/>
    </g>
    <g id="text_64">
     <!-- 0.5 -->
     <g style="fill: #262626" transform="translate(607.483906 128.954375) scale(0.11 -0.11)">
      <use xlink:href="#DejaVuSans-30"/>
      <use xlink:href="#DejaVuSans-2e" x="63.623047"/>
      <use xlink:href="#DejaVuSans-35" x="95.410156"/>
     </g>
    </g>
   </g>
  </g>
 </g>
 <defs>
  <clipPath id="p65eb54c0f7">
   <rect x="63.485625" y="12.518906" width="192" height="221.76"/>
  </clipPath>
  <clipPath id="p037133c414">
   <rect x="313.085625" y="12.518906" width="192" height="221.76"/>
  </clipPath>
  <clipPath id="p05de924b56">
   <rect x="562.685625" y="12.518906" width="192" height="221.76"/>
  </clipPath>
 </defs>
</svg>
