<?xml version="1.0" encoding="utf-8" standalone="no"?>
<!DOCTYPE svg PUBLIC "-//W3C//DTD SVG 1.1//EN"
  "http://www.w3.org/Graphics/SVG/1.1/DTD/svg11.dtd">
<svg xmlns:xlink="http://www.w3.org/1999/xlink" width="780.265937pt" height="298.599562pt" viewBox="0 0 780.265937 298.599562" xmlns="http://www.w3.org/2000/svg" version="1.1">
 <metadata>
  <rdf:RDF xmlns:dc="http://purl.org/dc/elements/1.1/" xmlns:cc="http://creativecommons.org/ns#" xmlns:rdf="http://www.w3.org/1999/02/22-rdf-syntax-ns#">
   <cc:Work>
    <dc:type rdf:resource="http://purl.org/dc/dcmitype/StillImage"/>
    <dc:date>2024-01-10T22:15:49.553414</dc:date>
    <dc:format>image/svg+xml</dc:format>
    <dc:creator>
     <cc:Agent>
      <dc:title>Matplotlib v3.8.2, https://matplotlib.org/</dc:title>
     </cc:Agent>
    </dc:creator>
   </cc:Work>
  </rdf:RDF>
 </metadata>
 <defs>
  <style type="text/css">*{stroke-linejoin: round; stroke-linecap: butt}</style>
 </defs>
 <g id="figure_1">
  <g id="patch_1">
   <path d="M 0 298.599562 
L 780.265937 298.599562 
L 780.265937 0 
L 0 0 
z
" style="fill: #ffffff"/>
  </g>
  <g id="axes_1">
   <g id="patch_2">
    <path d="M 60.985625 255.224 
L 252.985625 255.224 
L 252.985625 33.464 
L 60.985625 33.464 
z
" style="fill: #ffffff"/>
   </g>
   <g id="PolyCollection_1">
    <defs>
     <path id="m1b1249600d" d="M 69.712898 -130.547293 
L 69.712898 -53.455562 
L 78.899501 -165.230611 
L 88.086103 -207.3522 
L 97.272706 -224.608786 
L 106.459309 -231.612901 
L 115.645912 -236.706625 
L 124.832515 -237.551376 
L 134.019118 -240.855601 
L 143.205721 -242.819154 
L 152.392324 -244.649347 
L 161.578926 -244.720426 
L 170.765529 -246.839049 
L 179.952132 -246.014856 
L 189.138735 -247.553014 
L 198.325338 -248.053057 
L 207.511941 -248.368736 
L 216.698544 -249.097205 
L 225.885147 -249.401095 
L 235.071749 -249.856115 
L 244.258352 -250.393135 
L 244.258352 -254.662084 
L 244.258352 -254.662084 
L 235.071749 -254.426103 
L 225.885147 -254.094203 
L 216.698544 -254.225328 
L 207.511941 -253.835589 
L 198.325338 -253.806154 
L 189.138735 -253.274121 
L 179.952132 -252.890969 
L 170.765529 -252.974688 
L 161.578926 -252.365493 
L 152.392324 -252.295135 
L 143.205721 -251.518427 
L 134.019118 -250.409876 
L 124.832515 -249.035083 
L 115.645912 -248.598798 
L 106.459309 -246.149894 
L 97.272706 -243.214131 
L 88.086103 -232.862497 
L 78.899501 -209.189588 
L 69.712898 -130.547293 
z
" style="stroke: #1f77b4; stroke-opacity: 0.2"/>
    </defs>
    <g clip-path="url(#p42035a9036)">
     <use xlink:href="#m1b1249600d" x="0" y="298.599562" style="fill: #1f77b4; fill-opacity: 0.2; stroke: #1f77b4; stroke-opacity: 0.2"/>
    </g>
   </g>
   <g id="PolyCollection_2">
    <defs>
     <path id="m68ab01d477" d="M 69.712898 -177.176001 
L 69.712898 -107.949841 
L 78.899501 -187.611072 
L 88.086103 -224.122513 
L 97.272706 -233.852712 
L 106.459309 -235.844994 
L 115.645912 -240.445509 
L 124.832515 -243.468453 
L 134.019118 -244.655307 
L 143.205721 -244.755282 
L 152.392324 -245.720364 
L 161.578926 -248.156119 
L 170.765529 -247.310554 
L 179.952132 -248.993452 
L 189.138735 -249.155338 
L 198.325338 -249.449336 
L 207.511941 -250.565244 
L 216.698544 -250.076903 
L 225.885147 -250.849761 
L 235.071749 -251.410021 
L 244.258352 -251.215836 
L 244.258352 -255.055562 
L 244.258352 -255.055562 
L 235.071749 -254.937172 
L 225.885147 -254.622124 
L 216.698544 -254.519224 
L 207.511941 -254.62319 
L 198.325338 -254.166605 
L 189.138735 -254.171364 
L 179.952132 -253.994778 
L 170.765529 -253.367386 
L 161.578926 -253.85611 
L 152.392324 -252.801601 
L 143.205721 -252.624175 
L 134.019118 -252.114515 
L 124.832515 -251.607348 
L 115.645912 -250.481277 
L 106.459309 -249.197601 
L 97.272706 -247.609253 
L 88.086103 -241.807976 
L 78.899501 -226.926597 
L 69.712898 -177.176001 
z
" style="stroke: #ff7f0e; stroke-opacity: 0.2"/>
    </defs>
    <g clip-path="url(#p42035a9036)">
     <use xlink:href="#m68ab01d477" x="0" y="298.599562" style="fill: #ff7f0e; fill-opacity: 0.2; stroke: #ff7f0e; stroke-opacity: 0.2"/>
    </g>
   </g>
   <g id="matplotlib.axis_1">
    <g id="xtick_1">
     <g id="line2d_1">
      <defs>
       <path id="m13acedb9ee" d="M 0 0 
L 0 3.5 
" style="stroke: #000000; stroke-width: 0.8"/>
      </defs>
      <g>
       <use xlink:href="#m13acedb9ee" x="69.712898" y="255.224" style="stroke: #000000; stroke-width: 0.8"/>
      </g>
     </g>
     <g id="text_1">
      <!-- 5 -->
      <g transform="translate(65.259148 272.861812) scale(0.14 -0.14)">
       <defs>
        <path id="DejaVuSans-35" d="M 691 4666 
L 3169 4666 
L 3169 4134 
L 1269 4134 
L 1269 2991 
Q 1406 3038 1543 3061 
Q 1681 3084 1819 3084 
Q 2600 3084 3056 2656 
Q 3513 2228 3513 1497 
Q 3513 744 3044 326 
Q 2575 -91 1722 -91 
Q 1428 -91 1123 -41 
Q 819 9 494 109 
L 494 744 
Q 775 591 1075 516 
Q 1375 441 1709 441 
Q 2250 441 2565 725 
Q 2881 1009 2881 1497 
Q 2881 1984 2565 2268 
Q 2250 2553 1709 2553 
Q 1456 2553 1204 2497 
Q 953 2441 691 2322 
L 691 4666 
z
" transform="scale(0.015625)"/>
       </defs>
       <use xlink:href="#DejaVuSans-35"/>
      </g>
     </g>
    </g>
    <g id="xtick_2">
     <g id="line2d_2">
      <g>
       <use xlink:href="#m13acedb9ee" x="97.272706" y="255.224" style="stroke: #000000; stroke-width: 0.8"/>
      </g>
     </g>
     <g id="text_2">
      <!-- 20 -->
      <g transform="translate(88.365206 272.861812) scale(0.14 -0.14)">
       <defs>
        <path id="DejaVuSans-32" d="M 1228 531 
L 3431 531 
L 3431 0 
L 469 0 
L 469 531 
Q 828 903 1448 1529 
Q 2069 2156 2228 2338 
Q 2531 2678 2651 2914 
Q 2772 3150 2772 3378 
Q 2772 3750 2511 3984 
Q 2250 4219 1831 4219 
Q 1534 4219 1204 4116 
Q 875 4013 500 3803 
L 500 4441 
Q 881 4594 1212 4672 
Q 1544 4750 1819 4750 
Q 2544 4750 2975 4387 
Q 3406 4025 3406 3419 
Q 3406 3131 3298 2873 
Q 3191 2616 2906 2266 
Q 2828 2175 2409 1742 
Q 1991 1309 1228 531 
z
" transform="scale(0.015625)"/>
        <path id="DejaVuSans-30" d="M 2034 4250 
Q 1547 4250 1301 3770 
Q 1056 3291 1056 2328 
Q 1056 1369 1301 889 
Q 1547 409 2034 409 
Q 2525 409 2770 889 
Q 3016 1369 3016 2328 
Q 3016 3291 2770 3770 
Q 2525 4250 2034 4250 
z
M 2034 4750 
Q 2819 4750 3233 4129 
Q 3647 3509 3647 2328 
Q 3647 1150 3233 529 
Q 2819 -91 2034 -91 
Q 1250 -91 836 529 
Q 422 1150 422 2328 
Q 422 3509 836 4129 
Q 1250 4750 2034 4750 
z
" transform="scale(0.015625)"/>
       </defs>
       <use xlink:href="#DejaVuSans-32"/>
       <use xlink:href="#DejaVuSans-30" x="63.623047"/>
      </g>
     </g>
    </g>
    <g id="xtick_3">
     <g id="line2d_3">
      <g>
       <use xlink:href="#m13acedb9ee" x="134.019118" y="255.224" style="stroke: #000000; stroke-width: 0.8"/>
      </g>
     </g>
     <g id="text_3">
      <!-- 40 -->
      <g transform="translate(125.111618 272.861812) scale(0.14 -0.14)">
       <defs>
        <path id="DejaVuSans-34" d="M 2419 4116 
L 825 1625 
L 2419 1625 
L 2419 4116 
z
M 2253 4666 
L 3047 4666 
L 3047 1625 
L 3713 1625 
L 3713 1100 
L 3047 1100 
L 3047 0 
L 2419 0 
L 2419 1100 
L 313 1100 
L 313 1709 
L 2253 4666 
z
" transform="scale(0.015625)"/>
       </defs>
       <use xlink:href="#DejaVuSans-34"/>
       <use xlink:href="#DejaVuSans-30" x="63.623047"/>
      </g>
     </g>
    </g>
    <g id="xtick_4">
     <g id="line2d_4">
      <g>
       <use xlink:href="#m13acedb9ee" x="170.765529" y="255.224" style="stroke: #000000; stroke-width: 0.8"/>
      </g>
     </g>
     <g id="text_4">
      <!-- 60 -->
      <g transform="translate(161.858029 272.861812) scale(0.14 -0.14)">
       <defs>
        <path id="DejaVuSans-36" d="M 2113 2584 
Q 1688 2584 1439 2293 
Q 1191 2003 1191 1497 
Q 1191 994 1439 701 
Q 1688 409 2113 409 
Q 2538 409 2786 701 
Q 3034 994 3034 1497 
Q 3034 2003 2786 2293 
Q 2538 2584 2113 2584 
z
M 3366 4563 
L 3366 3988 
Q 3128 4100 2886 4159 
Q 2644 4219 2406 4219 
Q 1781 4219 1451 3797 
Q 1122 3375 1075 2522 
Q 1259 2794 1537 2939 
Q 1816 3084 2150 3084 
Q 2853 3084 3261 2657 
Q 3669 2231 3669 1497 
Q 3669 778 3244 343 
Q 2819 -91 2113 -91 
Q 1303 -91 875 529 
Q 447 1150 447 2328 
Q 447 3434 972 4092 
Q 1497 4750 2381 4750 
Q 2619 4750 2861 4703 
Q 3103 4656 3366 4563 
z
" transform="scale(0.015625)"/>
       </defs>
       <use xlink:href="#DejaVuSans-36"/>
       <use xlink:href="#DejaVuSans-30" x="63.623047"/>
      </g>
     </g>
    </g>
    <g id="xtick_5">
     <g id="line2d_5">
      <g>
       <use xlink:href="#m13acedb9ee" x="207.511941" y="255.224" style="stroke: #000000; stroke-width: 0.8"/>
      </g>
     </g>
     <g id="text_5">
      <!-- 80 -->
      <g transform="translate(198.604441 272.861812) scale(0.14 -0.14)">
       <defs>
        <path id="DejaVuSans-38" d="M 2034 2216 
Q 1584 2216 1326 1975 
Q 1069 1734 1069 1313 
Q 1069 891 1326 650 
Q 1584 409 2034 409 
Q 2484 409 2743 651 
Q 3003 894 3003 1313 
Q 3003 1734 2745 1975 
Q 2488 2216 2034 2216 
z
M 1403 2484 
Q 997 2584 770 2862 
Q 544 3141 544 3541 
Q 544 4100 942 4425 
Q 1341 4750 2034 4750 
Q 2731 4750 3128 4425 
Q 3525 4100 3525 3541 
Q 3525 3141 3298 2862 
Q 3072 2584 2669 2484 
Q 3125 2378 3379 2068 
Q 3634 1759 3634 1313 
Q 3634 634 3220 271 
Q 2806 -91 2034 -91 
Q 1263 -91 848 271 
Q 434 634 434 1313 
Q 434 1759 690 2068 
Q 947 2378 1403 2484 
z
M 1172 3481 
Q 1172 3119 1398 2916 
Q 1625 2713 2034 2713 
Q 2441 2713 2670 2916 
Q 2900 3119 2900 3481 
Q 2900 3844 2670 4047 
Q 2441 4250 2034 4250 
Q 1625 4250 1398 4047 
Q 1172 3844 1172 3481 
z
" transform="scale(0.015625)"/>
       </defs>
       <use xlink:href="#DejaVuSans-38"/>
       <use xlink:href="#DejaVuSans-30" x="63.623047"/>
      </g>
     </g>
    </g>
    <g id="xtick_6">
     <g id="line2d_6">
      <g>
       <use xlink:href="#m13acedb9ee" x="244.258352" y="255.224" style="stroke: #000000; stroke-width: 0.8"/>
      </g>
     </g>
     <g id="text_6">
      <!-- 100 -->
      <g transform="translate(230.897102 272.861812) scale(0.14 -0.14)">
       <defs>
        <path id="DejaVuSans-31" d="M 794 531 
L 1825 531 
L 1825 4091 
L 703 3866 
L 703 4441 
L 1819 4666 
L 2450 4666 
L 2450 531 
L 3481 531 
L 3481 0 
L 794 0 
L 794 531 
z
" transform="scale(0.015625)"/>
       </defs>
       <use xlink:href="#DejaVuSans-31"/>
       <use xlink:href="#DejaVuSans-30" x="63.623047"/>
       <use xlink:href="#DejaVuSans-30" x="127.246094"/>
      </g>
     </g>
    </g>
    <g id="text_7">
     <!--   -->
     <g transform="translate(155.07875 288.8915) scale(0.12 -0.12)">
      <defs>
       <path id="DejaVuSans-20" transform="scale(0.015625)"/>
      </defs>
      <use xlink:href="#DejaVuSans-20"/>
     </g>
    </g>
   </g>
   <g id="matplotlib.axis_2">
    <g id="ytick_1">
     <g id="line2d_7">
      <defs>
       <path id="m36972b18e5" d="M 0 0 
L -3.5 0 
" style="stroke: #000000; stroke-width: 0.8"/>
      </defs>
      <g>
       <use xlink:href="#m36972b18e5" x="60.985625" y="244.419529" style="stroke: #000000; stroke-width: 0.8"/>
      </g>
     </g>
     <g id="text_8">
      <!-- 0.70 -->
      <g transform="translate(22.81375 249.738435) scale(0.14 -0.14)">
       <defs>
        <path id="DejaVuSans-2e" d="M 684 794 
L 1344 794 
L 1344 0 
L 684 0 
L 684 794 
z
" transform="scale(0.015625)"/>
        <path id="DejaVuSans-37" d="M 525 4666 
L 3525 4666 
L 3525 4397 
L 1831 0 
L 1172 0 
L 2766 4134 
L 525 4134 
L 525 4666 
z
" transform="scale(0.015625)"/>
       </defs>
       <use xlink:href="#DejaVuSans-30"/>
       <use xlink:href="#DejaVuSans-2e" x="63.623047"/>
       <use xlink:href="#DejaVuSans-37" x="95.410156"/>
       <use xlink:href="#DejaVuSans-30" x="159.033203"/>
      </g>
     </g>
    </g>
    <g id="ytick_2">
     <g id="line2d_8">
      <g>
       <use xlink:href="#m36972b18e5" x="60.985625" y="210.551422" style="stroke: #000000; stroke-width: 0.8"/>
      </g>
     </g>
     <g id="text_9">
      <!-- 0.75 -->
      <g transform="translate(22.81375 215.870329) scale(0.14 -0.14)">
       <use xlink:href="#DejaVuSans-30"/>
       <use xlink:href="#DejaVuSans-2e" x="63.623047"/>
       <use xlink:href="#DejaVuSans-37" x="95.410156"/>
       <use xlink:href="#DejaVuSans-35" x="159.033203"/>
      </g>
     </g>
    </g>
    <g id="ytick_3">
     <g id="line2d_9">
      <g>
       <use xlink:href="#m36972b18e5" x="60.985625" y="176.683316" style="stroke: #000000; stroke-width: 0.8"/>
      </g>
     </g>
     <g id="text_10">
      <!-- 0.80 -->
      <g transform="translate(22.81375 182.002222) scale(0.14 -0.14)">
       <use xlink:href="#DejaVuSans-30"/>
       <use xlink:href="#DejaVuSans-2e" x="63.623047"/>
       <use xlink:href="#DejaVuSans-38" x="95.410156"/>
       <use xlink:href="#DejaVuSans-30" x="159.033203"/>
      </g>
     </g>
    </g>
    <g id="ytick_4">
     <g id="line2d_10">
      <g>
       <use xlink:href="#m36972b18e5" x="60.985625" y="142.81521" style="stroke: #000000; stroke-width: 0.8"/>
      </g>
     </g>
     <g id="text_11">
      <!-- 0.85 -->
      <g transform="translate(22.81375 148.134116) scale(0.14 -0.14)">
       <use xlink:href="#DejaVuSans-30"/>
       <use xlink:href="#DejaVuSans-2e" x="63.623047"/>
       <use xlink:href="#DejaVuSans-38" x="95.410156"/>
       <use xlink:href="#DejaVuSans-35" x="159.033203"/>
      </g>
     </g>
    </g>
    <g id="ytick_5">
     <g id="line2d_11">
      <g>
       <use xlink:href="#m36972b18e5" x="60.985625" y="108.947104" style="stroke: #000000; stroke-width: 0.8"/>
      </g>
     </g>
     <g id="text_12">
      <!-- 0.90 -->
      <g transform="translate(22.81375 114.26601) scale(0.14 -0.14)">
       <defs>
        <path id="DejaVuSans-39" d="M 703 97 
L 703 672 
Q 941 559 1184 500 
Q 1428 441 1663 441 
Q 2288 441 2617 861 
Q 2947 1281 2994 2138 
Q 2813 1869 2534 1725 
Q 2256 1581 1919 1581 
Q 1219 1581 811 2004 
Q 403 2428 403 3163 
Q 403 3881 828 4315 
Q 1253 4750 1959 4750 
Q 2769 4750 3195 4129 
Q 3622 3509 3622 2328 
Q 3622 1225 3098 567 
Q 2575 -91 1691 -91 
Q 1453 -91 1209 -44 
Q 966 3 703 97 
z
M 1959 2075 
Q 2384 2075 2632 2365 
Q 2881 2656 2881 3163 
Q 2881 3666 2632 3958 
Q 2384 4250 1959 4250 
Q 1534 4250 1286 3958 
Q 1038 3666 1038 3163 
Q 1038 2656 1286 2365 
Q 1534 2075 1959 2075 
z
" transform="scale(0.015625)"/>
       </defs>
       <use xlink:href="#DejaVuSans-30"/>
       <use xlink:href="#DejaVuSans-2e" x="63.623047"/>
       <use xlink:href="#DejaVuSans-39" x="95.410156"/>
       <use xlink:href="#DejaVuSans-30" x="159.033203"/>
      </g>
     </g>
    </g>
    <g id="ytick_6">
     <g id="line2d_12">
      <g>
       <use xlink:href="#m36972b18e5" x="60.985625" y="75.078997" style="stroke: #000000; stroke-width: 0.8"/>
      </g>
     </g>
     <g id="text_13">
      <!-- 0.95 -->
      <g transform="translate(22.81375 80.397904) scale(0.14 -0.14)">
       <use xlink:href="#DejaVuSans-30"/>
       <use xlink:href="#DejaVuSans-2e" x="63.623047"/>
       <use xlink:href="#DejaVuSans-39" x="95.410156"/>
       <use xlink:href="#DejaVuSans-35" x="159.033203"/>
      </g>
     </g>
    </g>
    <g id="ytick_7">
     <g id="line2d_13">
      <g>
       <use xlink:href="#m36972b18e5" x="60.985625" y="41.210891" style="stroke: #000000; stroke-width: 0.8"/>
      </g>
     </g>
     <g id="text_14">
      <!-- 1.00 -->
      <g transform="translate(22.81375 46.529797) scale(0.14 -0.14)">
       <use xlink:href="#DejaVuSans-31"/>
       <use xlink:href="#DejaVuSans-2e" x="63.623047"/>
       <use xlink:href="#DejaVuSans-30" x="95.410156"/>
       <use xlink:href="#DejaVuSans-30" x="159.033203"/>
      </g>
     </g>
    </g>
    <g id="text_15">
     <!-- R2 Score -->
     <g transform="translate(16.318125 171.04025) rotate(-90) scale(0.12 -0.12)">
      <defs>
       <path id="DejaVuSans-52" d="M 2841 2188 
Q 3044 2119 3236 1894 
Q 3428 1669 3622 1275 
L 4263 0 
L 3584 0 
L 2988 1197 
Q 2756 1666 2539 1819 
Q 2322 1972 1947 1972 
L 1259 1972 
L 1259 0 
L 628 0 
L 628 4666 
L 2053 4666 
Q 2853 4666 3247 4331 
Q 3641 3997 3641 3322 
Q 3641 2881 3436 2590 
Q 3231 2300 2841 2188 
z
M 1259 4147 
L 1259 2491 
L 2053 2491 
Q 2509 2491 2742 2702 
Q 2975 2913 2975 3322 
Q 2975 3731 2742 3939 
Q 2509 4147 2053 4147 
L 1259 4147 
z
" transform="scale(0.015625)"/>
       <path id="DejaVuSans-53" d="M 3425 4513 
L 3425 3897 
Q 3066 4069 2747 4153 
Q 2428 4238 2131 4238 
Q 1616 4238 1336 4038 
Q 1056 3838 1056 3469 
Q 1056 3159 1242 3001 
Q 1428 2844 1947 2747 
L 2328 2669 
Q 3034 2534 3370 2195 
Q 3706 1856 3706 1288 
Q 3706 609 3251 259 
Q 2797 -91 1919 -91 
Q 1588 -91 1214 -16 
Q 841 59 441 206 
L 441 856 
Q 825 641 1194 531 
Q 1563 422 1919 422 
Q 2459 422 2753 634 
Q 3047 847 3047 1241 
Q 3047 1584 2836 1778 
Q 2625 1972 2144 2069 
L 1759 2144 
Q 1053 2284 737 2584 
Q 422 2884 422 3419 
Q 422 4038 858 4394 
Q 1294 4750 2059 4750 
Q 2388 4750 2728 4690 
Q 3069 4631 3425 4513 
z
" transform="scale(0.015625)"/>
       <path id="DejaVuSans-63" d="M 3122 3366 
L 3122 2828 
Q 2878 2963 2633 3030 
Q 2388 3097 2138 3097 
Q 1578 3097 1268 2742 
Q 959 2388 959 1747 
Q 959 1106 1268 751 
Q 1578 397 2138 397 
Q 2388 397 2633 464 
Q 2878 531 3122 666 
L 3122 134 
Q 2881 22 2623 -34 
Q 2366 -91 2075 -91 
Q 1284 -91 818 406 
Q 353 903 353 1747 
Q 353 2603 823 3093 
Q 1294 3584 2113 3584 
Q 2378 3584 2631 3529 
Q 2884 3475 3122 3366 
z
" transform="scale(0.015625)"/>
       <path id="DejaVuSans-6f" d="M 1959 3097 
Q 1497 3097 1228 2736 
Q 959 2375 959 1747 
Q 959 1119 1226 758 
Q 1494 397 1959 397 
Q 2419 397 2687 759 
Q 2956 1122 2956 1747 
Q 2956 2369 2687 2733 
Q 2419 3097 1959 3097 
z
M 1959 3584 
Q 2709 3584 3137 3096 
Q 3566 2609 3566 1747 
Q 3566 888 3137 398 
Q 2709 -91 1959 -91 
Q 1206 -91 779 398 
Q 353 888 353 1747 
Q 353 2609 779 3096 
Q 1206 3584 1959 3584 
z
" transform="scale(0.015625)"/>
       <path id="DejaVuSans-72" d="M 2631 2963 
Q 2534 3019 2420 3045 
Q 2306 3072 2169 3072 
Q 1681 3072 1420 2755 
Q 1159 2438 1159 1844 
L 1159 0 
L 581 0 
L 581 3500 
L 1159 3500 
L 1159 2956 
Q 1341 3275 1631 3429 
Q 1922 3584 2338 3584 
Q 2397 3584 2469 3576 
Q 2541 3569 2628 3553 
L 2631 2963 
z
" transform="scale(0.015625)"/>
       <path id="DejaVuSans-65" d="M 3597 1894 
L 3597 1613 
L 953 1613 
Q 991 1019 1311 708 
Q 1631 397 2203 397 
Q 2534 397 2845 478 
Q 3156 559 3463 722 
L 3463 178 
Q 3153 47 2828 -22 
Q 2503 -91 2169 -91 
Q 1331 -91 842 396 
Q 353 884 353 1716 
Q 353 2575 817 3079 
Q 1281 3584 2069 3584 
Q 2775 3584 3186 3129 
Q 3597 2675 3597 1894 
z
M 3022 2063 
Q 3016 2534 2758 2815 
Q 2500 3097 2075 3097 
Q 1594 3097 1305 2825 
Q 1016 2553 972 2059 
L 3022 2063 
z
" transform="scale(0.015625)"/>
      </defs>
      <use xlink:href="#DejaVuSans-52"/>
      <use xlink:href="#DejaVuSans-32" x="69.482422"/>
      <use xlink:href="#DejaVuSans-20" x="133.105469"/>
      <use xlink:href="#DejaVuSans-53" x="164.892578"/>
      <use xlink:href="#DejaVuSans-63" x="228.369141"/>
      <use xlink:href="#DejaVuSans-6f" x="283.349609"/>
      <use xlink:href="#DejaVuSans-72" x="344.53125"/>
      <use xlink:href="#DejaVuSans-65" x="383.394531"/>
     </g>
    </g>
   </g>
   <g id="line2d_14">
    <path d="M 69.712898 205.700762 
L 78.899501 110.906876 
L 88.086103 78.396526 
L 97.272706 63.692274 
L 106.459309 59.505423 
L 115.645912 55.645345 
L 124.832515 54.930921 
L 134.019118 52.982957 
L 143.205721 51.339369 
L 152.392324 49.711087 
L 161.578926 49.93585 
L 170.765529 48.652762 
L 179.952132 48.918434 
L 189.138735 47.953708 
L 198.325338 47.516783 
L 207.511941 47.221329 
L 216.698544 46.850271 
L 225.885147 46.829178 
L 235.071749 46.393543 
L 244.258352 45.921709 
" clip-path="url(#p42035a9036)" style="fill: none; stroke: #1f77b4; stroke-width: 2; stroke-linecap: square"/>
   </g>
   <g id="line2d_15">
    <path d="M 69.712898 153.701701 
L 78.899501 90.301061 
L 88.086103 65.430579 
L 97.272706 57.49298 
L 106.459309 55.750453 
L 115.645912 52.780693 
L 124.832515 51.036762 
L 134.019118 50.292029 
L 143.205721 49.657022 
L 152.392324 49.000506 
L 161.578926 47.428001 
L 170.765529 47.997395 
L 179.952132 47.002145 
L 189.138735 46.793443 
L 198.325338 46.662922 
L 207.511941 45.95915 
L 216.698544 46.252282 
L 225.885147 45.82918 
L 235.071749 45.480673 
L 244.258352 45.106924 
" clip-path="url(#p42035a9036)" style="fill: none; stroke: #ff7f0e; stroke-width: 2; stroke-linecap: square"/>
   </g>
   <g id="patch_3">
    <path d="M 60.985625 255.224 
L 60.985625 33.464 
" style="fill: none; stroke: #000000; stroke-width: 0.8; stroke-linejoin: miter; stroke-linecap: square"/>
   </g>
   <g id="patch_4">
    <path d="M 252.985625 255.224 
L 252.985625 33.464 
" style="fill: none; stroke: #000000; stroke-width: 0.8; stroke-linejoin: miter; stroke-linecap: square"/>
   </g>
   <g id="patch_5">
    <path d="M 60.985625 255.224 
L 252.985625 255.224 
" style="fill: none; stroke: #000000; stroke-width: 0.8; stroke-linejoin: miter; stroke-linecap: square"/>
   </g>
   <g id="patch_6">
    <path d="M 60.985625 33.464 
L 252.985625 33.464 
" style="fill: none; stroke: #000000; stroke-width: 0.8; stroke-linejoin: miter; stroke-linecap: square"/>
   </g>
   <g id="text_16">
    <!-- number of HF samples (d) -->
    <g transform="translate(315.326406 288.488) scale(0.14 -0.14)">
     <defs>
      <path id="DejaVuSans-6e" d="M 3513 2113 
L 3513 0 
L 2938 0 
L 2938 2094 
Q 2938 2591 2744 2837 
Q 2550 3084 2163 3084 
Q 1697 3084 1428 2787 
Q 1159 2491 1159 1978 
L 1159 0 
L 581 0 
L 581 3500 
L 1159 3500 
L 1159 2956 
Q 1366 3272 1645 3428 
Q 1925 3584 2291 3584 
Q 2894 3584 3203 3211 
Q 3513 2838 3513 2113 
z
" transform="scale(0.015625)"/>
      <path id="DejaVuSans-75" d="M 544 1381 
L 544 3500 
L 1119 3500 
L 1119 1403 
Q 1119 906 1312 657 
Q 1506 409 1894 409 
Q 2359 409 2629 706 
Q 2900 1003 2900 1516 
L 2900 3500 
L 3475 3500 
L 3475 0 
L 2900 0 
L 2900 538 
Q 2691 219 2414 64 
Q 2138 -91 1772 -91 
Q 1169 -91 856 284 
Q 544 659 544 1381 
z
M 1991 3584 
L 1991 3584 
z
" transform="scale(0.015625)"/>
      <path id="DejaVuSans-6d" d="M 3328 2828 
Q 3544 3216 3844 3400 
Q 4144 3584 4550 3584 
Q 5097 3584 5394 3201 
Q 5691 2819 5691 2113 
L 5691 0 
L 5113 0 
L 5113 2094 
Q 5113 2597 4934 2840 
Q 4756 3084 4391 3084 
Q 3944 3084 3684 2787 
Q 3425 2491 3425 1978 
L 3425 0 
L 2847 0 
L 2847 2094 
Q 2847 2600 2669 2842 
Q 2491 3084 2119 3084 
Q 1678 3084 1418 2786 
Q 1159 2488 1159 1978 
L 1159 0 
L 581 0 
L 581 3500 
L 1159 3500 
L 1159 2956 
Q 1356 3278 1631 3431 
Q 1906 3584 2284 3584 
Q 2666 3584 2933 3390 
Q 3200 3197 3328 2828 
z
" transform="scale(0.015625)"/>
      <path id="DejaVuSans-62" d="M 3116 1747 
Q 3116 2381 2855 2742 
Q 2594 3103 2138 3103 
Q 1681 3103 1420 2742 
Q 1159 2381 1159 1747 
Q 1159 1113 1420 752 
Q 1681 391 2138 391 
Q 2594 391 2855 752 
Q 3116 1113 3116 1747 
z
M 1159 2969 
Q 1341 3281 1617 3432 
Q 1894 3584 2278 3584 
Q 2916 3584 3314 3078 
Q 3713 2572 3713 1747 
Q 3713 922 3314 415 
Q 2916 -91 2278 -91 
Q 1894 -91 1617 61 
Q 1341 213 1159 525 
L 1159 0 
L 581 0 
L 581 4863 
L 1159 4863 
L 1159 2969 
z
" transform="scale(0.015625)"/>
      <path id="DejaVuSans-66" d="M 2375 4863 
L 2375 4384 
L 1825 4384 
Q 1516 4384 1395 4259 
Q 1275 4134 1275 3809 
L 1275 3500 
L 2222 3500 
L 2222 3053 
L 1275 3053 
L 1275 0 
L 697 0 
L 697 3053 
L 147 3053 
L 147 3500 
L 697 3500 
L 697 3744 
Q 697 4328 969 4595 
Q 1241 4863 1831 4863 
L 2375 4863 
z
" transform="scale(0.015625)"/>
      <path id="DejaVuSans-48" d="M 628 4666 
L 1259 4666 
L 1259 2753 
L 3553 2753 
L 3553 4666 
L 4184 4666 
L 4184 0 
L 3553 0 
L 3553 2222 
L 1259 2222 
L 1259 0 
L 628 0 
L 628 4666 
z
" transform="scale(0.015625)"/>
      <path id="DejaVuSans-46" d="M 628 4666 
L 3309 4666 
L 3309 4134 
L 1259 4134 
L 1259 2759 
L 3109 2759 
L 3109 2228 
L 1259 2228 
L 1259 0 
L 628 0 
L 628 4666 
z
" transform="scale(0.015625)"/>
      <path id="DejaVuSans-73" d="M 2834 3397 
L 2834 2853 
Q 2591 2978 2328 3040 
Q 2066 3103 1784 3103 
Q 1356 3103 1142 2972 
Q 928 2841 928 2578 
Q 928 2378 1081 2264 
Q 1234 2150 1697 2047 
L 1894 2003 
Q 2506 1872 2764 1633 
Q 3022 1394 3022 966 
Q 3022 478 2636 193 
Q 2250 -91 1575 -91 
Q 1294 -91 989 -36 
Q 684 19 347 128 
L 347 722 
Q 666 556 975 473 
Q 1284 391 1588 391 
Q 1994 391 2212 530 
Q 2431 669 2431 922 
Q 2431 1156 2273 1281 
Q 2116 1406 1581 1522 
L 1381 1569 
Q 847 1681 609 1914 
Q 372 2147 372 2553 
Q 372 3047 722 3315 
Q 1072 3584 1716 3584 
Q 2034 3584 2315 3537 
Q 2597 3491 2834 3397 
z
" transform="scale(0.015625)"/>
      <path id="DejaVuSans-61" d="M 2194 1759 
Q 1497 1759 1228 1600 
Q 959 1441 959 1056 
Q 959 750 1161 570 
Q 1363 391 1709 391 
Q 2188 391 2477 730 
Q 2766 1069 2766 1631 
L 2766 1759 
L 2194 1759 
z
M 3341 1997 
L 3341 0 
L 2766 0 
L 2766 531 
Q 2569 213 2275 61 
Q 1981 -91 1556 -91 
Q 1019 -91 701 211 
Q 384 513 384 1019 
Q 384 1609 779 1909 
Q 1175 2209 1959 2209 
L 2766 2209 
L 2766 2266 
Q 2766 2663 2505 2880 
Q 2244 3097 1772 3097 
Q 1472 3097 1187 3025 
Q 903 2953 641 2809 
L 641 3341 
Q 956 3463 1253 3523 
Q 1550 3584 1831 3584 
Q 2591 3584 2966 3190 
Q 3341 2797 3341 1997 
z
" transform="scale(0.015625)"/>
      <path id="DejaVuSans-70" d="M 1159 525 
L 1159 -1331 
L 581 -1331 
L 581 3500 
L 1159 3500 
L 1159 2969 
Q 1341 3281 1617 3432 
Q 1894 3584 2278 3584 
Q 2916 3584 3314 3078 
Q 3713 2572 3713 1747 
Q 3713 922 3314 415 
Q 2916 -91 2278 -91 
Q 1894 -91 1617 61 
Q 1341 213 1159 525 
z
M 3116 1747 
Q 3116 2381 2855 2742 
Q 2594 3103 2138 3103 
Q 1681 3103 1420 2742 
Q 1159 2381 1159 1747 
Q 1159 1113 1420 752 
Q 1681 391 2138 391 
Q 2594 391 2855 752 
Q 3116 1113 3116 1747 
z
" transform="scale(0.015625)"/>
      <path id="DejaVuSans-6c" d="M 603 4863 
L 1178 4863 
L 1178 0 
L 603 0 
L 603 4863 
z
" transform="scale(0.015625)"/>
      <path id="DejaVuSans-28" d="M 1984 4856 
Q 1566 4138 1362 3434 
Q 1159 2731 1159 2009 
Q 1159 1288 1364 580 
Q 1569 -128 1984 -844 
L 1484 -844 
Q 1016 -109 783 600 
Q 550 1309 550 2009 
Q 550 2706 781 3412 
Q 1013 4119 1484 4856 
L 1984 4856 
z
" transform="scale(0.015625)"/>
      <path id="DejaVuSans-64" d="M 2906 2969 
L 2906 4863 
L 3481 4863 
L 3481 0 
L 2906 0 
L 2906 525 
Q 2725 213 2448 61 
Q 2172 -91 1784 -91 
Q 1150 -91 751 415 
Q 353 922 353 1747 
Q 353 2572 751 3078 
Q 1150 3584 1784 3584 
Q 2172 3584 2448 3432 
Q 2725 3281 2906 2969 
z
M 947 1747 
Q 947 1113 1208 752 
Q 1469 391 1925 391 
Q 2381 391 2643 752 
Q 2906 1113 2906 1747 
Q 2906 2381 2643 2742 
Q 2381 3103 1925 3103 
Q 1469 3103 1208 2742 
Q 947 2381 947 1747 
z
" transform="scale(0.015625)"/>
      <path id="DejaVuSans-29" d="M 513 4856 
L 1013 4856 
Q 1481 4119 1714 3412 
Q 1947 2706 1947 2009 
Q 1947 1309 1714 600 
Q 1481 -109 1013 -844 
L 513 -844 
Q 928 -128 1133 580 
Q 1338 1288 1338 2009 
Q 1338 2731 1133 3434 
Q 928 4138 513 4856 
z
" transform="scale(0.015625)"/>
     </defs>
     <use xlink:href="#DejaVuSans-6e"/>
     <use xlink:href="#DejaVuSans-75" x="63.378906"/>
     <use xlink:href="#DejaVuSans-6d" x="126.757812"/>
     <use xlink:href="#DejaVuSans-62" x="224.169922"/>
     <use xlink:href="#DejaVuSans-65" x="287.646484"/>
     <use xlink:href="#DejaVuSans-72" x="349.169922"/>
     <use xlink:href="#DejaVuSans-20" x="390.283203"/>
     <use xlink:href="#DejaVuSans-6f" x="422.070312"/>
     <use xlink:href="#DejaVuSans-66" x="483.251953"/>
     <use xlink:href="#DejaVuSans-20" x="518.457031"/>
     <use xlink:href="#DejaVuSans-48" x="550.244141"/>
     <use xlink:href="#DejaVuSans-46" x="625.439453"/>
     <use xlink:href="#DejaVuSans-20" x="682.958984"/>
     <use xlink:href="#DejaVuSans-73" x="714.746094"/>
     <use xlink:href="#DejaVuSans-61" x="766.845703"/>
     <use xlink:href="#DejaVuSans-6d" x="828.125"/>
     <use xlink:href="#DejaVuSans-70" x="925.537109"/>
     <use xlink:href="#DejaVuSans-6c" x="989.013672"/>
     <use xlink:href="#DejaVuSans-65" x="1016.796875"/>
     <use xlink:href="#DejaVuSans-73" x="1078.320312"/>
     <use xlink:href="#DejaVuSans-20" x="1130.419922"/>
     <use xlink:href="#DejaVuSans-28" x="1162.207031"/>
     <use xlink:href="#DejaVuSans-64" x="1201.220703"/>
     <use xlink:href="#DejaVuSans-29" x="1264.697266"/>
    </g>
   </g>
  </g>
  <g id="axes_2">
   <g id="patch_7">
    <path d="M 310.585625 255.224 
L 502.585625 255.224 
L 502.585625 33.464 
L 310.585625 33.464 
z
" style="fill: #ffffff"/>
   </g>
   <g id="PolyCollection_3">
    <defs>
     <path id="m3d4a452ca0" d="M 319.312898 -255.055562 
L 319.312898 -82.728677 
L 328.499501 -61.159798 
L 337.686103 -58.337408 
L 346.872706 -55.864643 
L 356.059309 -55.394299 
L 365.245912 -55.259884 
L 374.432515 -55.041257 
L 383.619118 -54.881451 
L 392.805721 -54.327956 
L 401.992324 -54.357753 
L 411.178926 -54.217747 
L 420.365529 -54.348004 
L 429.552132 -53.953722 
L 438.738735 -53.850187 
L 447.925338 -53.975519 
L 457.111941 -53.863366 
L 466.298544 -53.646381 
L 475.485147 -53.615635 
L 484.671749 -53.535425 
L 493.858352 -53.455562 
L 493.858352 -54.424839 
L 493.858352 -54.424839 
L 484.671749 -54.668576 
L 475.485147 -54.933745 
L 466.298544 -54.752664 
L 457.111941 -55.450333 
L 447.925338 -55.598262 
L 438.738735 -55.353918 
L 429.552132 -55.744078 
L 420.365529 -56.120565 
L 411.178926 -56.061721 
L 401.992324 -56.225224 
L 392.805721 -56.29034 
L 383.619118 -56.793273 
L 374.432515 -57.743374 
L 365.245912 -60.112789 
L 356.059309 -57.700137 
L 346.872706 -71.294137 
L 337.686103 -73.177106 
L 328.499501 -89.515096 
L 319.312898 -255.055562 
z
" style="stroke: #1f77b4; stroke-opacity: 0.2"/>
    </defs>
    <g clip-path="url(#p6b65031175)">
     <use xlink:href="#m3d4a452ca0" x="0" y="298.599562" style="fill: #1f77b4; fill-opacity: 0.2; stroke: #1f77b4; stroke-opacity: 0.2"/>
    </g>
   </g>
   <g id="PolyCollection_4">
    <defs>
     <path id="m111953271a" d="M 319.312898 -109.625263 
L 319.312898 -63.951553 
L 328.499501 -56.690545 
L 337.686103 -56.740913 
L 346.872706 -55.560549 
L 356.059309 -55.342089 
L 365.245912 -55.380708 
L 374.432515 -55.00463 
L 383.619118 -54.438799 
L 392.805721 -54.546218 
L 401.992324 -54.551417 
L 411.178926 -54.127806 
L 420.365529 -54.508013 
L 429.552132 -54.393963 
L 438.738735 -54.351483 
L 447.925338 -54.194878 
L 457.111941 -54.10706 
L 466.298544 -54.155807 
L 475.485147 -54.13289 
L 484.671749 -53.98654 
L 493.858352 -54.105346 
L 493.858352 -55.249692 
L 493.858352 -55.249692 
L 484.671749 -55.144194 
L 475.485147 -55.302515 
L 466.298544 -55.387285 
L 457.111941 -55.352926 
L 447.925338 -55.455475 
L 438.738735 -55.507015 
L 429.552132 -55.620593 
L 420.365529 -55.868489 
L 411.178926 -55.282025 
L 401.992324 -55.918248 
L 392.805721 -55.944721 
L 383.619118 -55.708135 
L 374.432515 -57.447186 
L 365.245912 -59.649813 
L 356.059309 -58.490134 
L 346.872706 -70.344295 
L 337.686103 -67.423261 
L 328.499501 -71.001324 
L 319.312898 -109.625263 
z
" style="stroke: #ff7f0e; stroke-opacity: 0.2"/>
    </defs>
    <g clip-path="url(#p6b65031175)">
     <use xlink:href="#m111953271a" x="0" y="298.599562" style="fill: #ff7f0e; fill-opacity: 0.2; stroke: #ff7f0e; stroke-opacity: 0.2"/>
    </g>
   </g>
   <g id="matplotlib.axis_3">
    <g id="xtick_7">
     <g id="line2d_16">
      <g>
       <use xlink:href="#m13acedb9ee" x="319.312898" y="255.224" style="stroke: #000000; stroke-width: 0.8"/>
      </g>
     </g>
     <g id="text_17">
      <!-- 5 -->
      <g transform="translate(314.859148 272.861812) scale(0.14 -0.14)">
       <use xlink:href="#DejaVuSans-35"/>
      </g>
     </g>
    </g>
    <g id="xtick_8">
     <g id="line2d_17">
      <g>
       <use xlink:href="#m13acedb9ee" x="346.872706" y="255.224" style="stroke: #000000; stroke-width: 0.8"/>
      </g>
     </g>
     <g id="text_18">
      <!-- 20 -->
      <g transform="translate(337.965206 272.861812) scale(0.14 -0.14)">
       <use xlink:href="#DejaVuSans-32"/>
       <use xlink:href="#DejaVuSans-30" x="63.623047"/>
      </g>
     </g>
    </g>
    <g id="xtick_9">
     <g id="line2d_18">
      <g>
       <use xlink:href="#m13acedb9ee" x="383.619118" y="255.224" style="stroke: #000000; stroke-width: 0.8"/>
      </g>
     </g>
     <g id="text_19">
      <!-- 40 -->
      <g transform="translate(374.711618 272.861812) scale(0.14 -0.14)">
       <use xlink:href="#DejaVuSans-34"/>
       <use xlink:href="#DejaVuSans-30" x="63.623047"/>
      </g>
     </g>
    </g>
    <g id="xtick_10">
     <g id="line2d_19">
      <g>
       <use xlink:href="#m13acedb9ee" x="420.365529" y="255.224" style="stroke: #000000; stroke-width: 0.8"/>
      </g>
     </g>
     <g id="text_20">
      <!-- 60 -->
      <g transform="translate(411.458029 272.861812) scale(0.14 -0.14)">
       <use xlink:href="#DejaVuSans-36"/>
       <use xlink:href="#DejaVuSans-30" x="63.623047"/>
      </g>
     </g>
    </g>
    <g id="xtick_11">
     <g id="line2d_20">
      <g>
       <use xlink:href="#m13acedb9ee" x="457.111941" y="255.224" style="stroke: #000000; stroke-width: 0.8"/>
      </g>
     </g>
     <g id="text_21">
      <!-- 80 -->
      <g transform="translate(448.204441 272.861812) scale(0.14 -0.14)">
       <use xlink:href="#DejaVuSans-38"/>
       <use xlink:href="#DejaVuSans-30" x="63.623047"/>
      </g>
     </g>
    </g>
    <g id="xtick_12">
     <g id="line2d_21">
      <g>
       <use xlink:href="#m13acedb9ee" x="493.858352" y="255.224" style="stroke: #000000; stroke-width: 0.8"/>
      </g>
     </g>
     <g id="text_22">
      <!-- 100 -->
      <g transform="translate(480.497102 272.861812) scale(0.14 -0.14)">
       <use xlink:href="#DejaVuSans-31"/>
       <use xlink:href="#DejaVuSans-30" x="63.623047"/>
       <use xlink:href="#DejaVuSans-30" x="127.246094"/>
      </g>
     </g>
    </g>
    <g id="text_23">
     <!--   -->
     <g transform="translate(404.67875 288.8915) scale(0.12 -0.12)">
      <use xlink:href="#DejaVuSans-20"/>
     </g>
    </g>
   </g>
   <g id="matplotlib.axis_4">
    <g id="ytick_8">
     <g id="line2d_22">
      <g>
       <use xlink:href="#m36972b18e5" x="310.585625" y="245.897411" style="stroke: #000000; stroke-width: 0.8"/>
      </g>
     </g>
     <g id="text_24">
      <!-- 0 -->
      <g transform="translate(294.678125 251.216317) scale(0.14 -0.14)">
       <use xlink:href="#DejaVuSans-30"/>
      </g>
     </g>
    </g>
    <g id="ytick_9">
     <g id="line2d_23">
      <g>
       <use xlink:href="#m36972b18e5" x="310.585625" y="213.217758" style="stroke: #000000; stroke-width: 0.8"/>
      </g>
     </g>
     <g id="text_25">
      <!-- 1 -->
      <g transform="translate(294.678125 218.536665) scale(0.14 -0.14)">
       <use xlink:href="#DejaVuSans-31"/>
      </g>
     </g>
    </g>
    <g id="ytick_10">
     <g id="line2d_24">
      <g>
       <use xlink:href="#m36972b18e5" x="310.585625" y="180.538106" style="stroke: #000000; stroke-width: 0.8"/>
      </g>
     </g>
     <g id="text_26">
      <!-- 2 -->
      <g transform="translate(294.678125 185.857012) scale(0.14 -0.14)">
       <use xlink:href="#DejaVuSans-32"/>
      </g>
     </g>
    </g>
    <g id="ytick_11">
     <g id="line2d_25">
      <g>
       <use xlink:href="#m36972b18e5" x="310.585625" y="147.858454" style="stroke: #000000; stroke-width: 0.8"/>
      </g>
     </g>
     <g id="text_27">
      <!-- 3 -->
      <g transform="translate(294.678125 153.17736) scale(0.14 -0.14)">
       <defs>
        <path id="DejaVuSans-33" d="M 2597 2516 
Q 3050 2419 3304 2112 
Q 3559 1806 3559 1356 
Q 3559 666 3084 287 
Q 2609 -91 1734 -91 
Q 1441 -91 1130 -33 
Q 819 25 488 141 
L 488 750 
Q 750 597 1062 519 
Q 1375 441 1716 441 
Q 2309 441 2620 675 
Q 2931 909 2931 1356 
Q 2931 1769 2642 2001 
Q 2353 2234 1838 2234 
L 1294 2234 
L 1294 2753 
L 1863 2753 
Q 2328 2753 2575 2939 
Q 2822 3125 2822 3475 
Q 2822 3834 2567 4026 
Q 2313 4219 1838 4219 
Q 1578 4219 1281 4162 
Q 984 4106 628 3988 
L 628 4550 
Q 988 4650 1302 4700 
Q 1616 4750 1894 4750 
Q 2613 4750 3031 4423 
Q 3450 4097 3450 3541 
Q 3450 3153 3228 2886 
Q 3006 2619 2597 2516 
z
" transform="scale(0.015625)"/>
       </defs>
       <use xlink:href="#DejaVuSans-33"/>
      </g>
     </g>
    </g>
    <g id="ytick_12">
     <g id="line2d_26">
      <g>
       <use xlink:href="#m36972b18e5" x="310.585625" y="115.178801" style="stroke: #000000; stroke-width: 0.8"/>
      </g>
     </g>
     <g id="text_28">
      <!-- 4 -->
      <g transform="translate(294.678125 120.497707) scale(0.14 -0.14)">
       <use xlink:href="#DejaVuSans-34"/>
      </g>
     </g>
    </g>
    <g id="ytick_13">
     <g id="line2d_27">
      <g>
       <use xlink:href="#m36972b18e5" x="310.585625" y="82.499149" style="stroke: #000000; stroke-width: 0.8"/>
      </g>
     </g>
     <g id="text_29">
      <!-- 5 -->
      <g transform="translate(294.678125 87.818055) scale(0.14 -0.14)">
       <use xlink:href="#DejaVuSans-35"/>
      </g>
     </g>
    </g>
    <g id="ytick_14">
     <g id="line2d_28">
      <g>
       <use xlink:href="#m36972b18e5" x="310.585625" y="49.819496" style="stroke: #000000; stroke-width: 0.8"/>
      </g>
     </g>
     <g id="text_30">
      <!-- 6 -->
      <g transform="translate(294.678125 55.138403) scale(0.14 -0.14)">
       <use xlink:href="#DejaVuSans-36"/>
      </g>
     </g>
    </g>
    <g id="text_31">
     <!-- absolute noise error -->
     <g transform="translate(288.1825 204.434937) rotate(-90) scale(0.12 -0.12)">
      <defs>
       <path id="DejaVuSans-74" d="M 1172 4494 
L 1172 3500 
L 2356 3500 
L 2356 3053 
L 1172 3053 
L 1172 1153 
Q 1172 725 1289 603 
Q 1406 481 1766 481 
L 2356 481 
L 2356 0 
L 1766 0 
Q 1100 0 847 248 
Q 594 497 594 1153 
L 594 3053 
L 172 3053 
L 172 3500 
L 594 3500 
L 594 4494 
L 1172 4494 
z
" transform="scale(0.015625)"/>
       <path id="DejaVuSans-69" d="M 603 3500 
L 1178 3500 
L 1178 0 
L 603 0 
L 603 3500 
z
M 603 4863 
L 1178 4863 
L 1178 4134 
L 603 4134 
L 603 4863 
z
" transform="scale(0.015625)"/>
      </defs>
      <use xlink:href="#DejaVuSans-61"/>
      <use xlink:href="#DejaVuSans-62" x="61.279297"/>
      <use xlink:href="#DejaVuSans-73" x="124.755859"/>
      <use xlink:href="#DejaVuSans-6f" x="176.855469"/>
      <use xlink:href="#DejaVuSans-6c" x="238.037109"/>
      <use xlink:href="#DejaVuSans-75" x="265.820312"/>
      <use xlink:href="#DejaVuSans-74" x="329.199219"/>
      <use xlink:href="#DejaVuSans-65" x="368.408203"/>
      <use xlink:href="#DejaVuSans-20" x="429.931641"/>
      <use xlink:href="#DejaVuSans-6e" x="461.71875"/>
      <use xlink:href="#DejaVuSans-6f" x="525.097656"/>
      <use xlink:href="#DejaVuSans-69" x="586.279297"/>
      <use xlink:href="#DejaVuSans-73" x="614.0625"/>
      <use xlink:href="#DejaVuSans-65" x="666.162109"/>
      <use xlink:href="#DejaVuSans-20" x="727.685547"/>
      <use xlink:href="#DejaVuSans-65" x="759.472656"/>
      <use xlink:href="#DejaVuSans-72" x="820.996094"/>
      <use xlink:href="#DejaVuSans-72" x="860.359375"/>
      <use xlink:href="#DejaVuSans-6f" x="899.222656"/>
      <use xlink:href="#DejaVuSans-72" x="960.404297"/>
     </g>
    </g>
   </g>
   <g id="line2d_29">
    <path d="M 319.312898 144.230291 
L 328.499501 226.535418 
L 337.686103 234.136575 
L 346.872706 237.116928 
L 356.059309 242.167275 
L 365.245912 241.30635 
L 374.432515 242.279041 
L 383.619118 242.805778 
L 392.805721 243.334834 
L 401.992324 243.432664 
L 411.178926 243.480943 
L 420.365529 243.426184 
L 429.552132 243.841784 
L 438.738735 244.055892 
L 447.925338 243.864466 
L 457.111941 244.024037 
L 466.298544 244.460599 
L 475.485147 244.384846 
L 484.671749 244.528757 
L 493.858352 244.714343 
" clip-path="url(#p6b65031175)" style="fill: none; stroke: #1f77b4; stroke-width: 2; stroke-linecap: square"/>
   </g>
   <g id="line2d_30">
    <path d="M 319.312898 215.513344 
L 328.499501 235.941308 
L 337.686103 237.338392 
L 346.872706 237.689399 
L 356.059309 241.755686 
L 365.245912 241.223487 
L 374.432515 242.429363 
L 383.619118 243.567364 
L 392.805721 243.412566 
L 401.992324 243.39369 
L 411.178926 243.944945 
L 420.365529 243.428093 
L 429.552132 243.613889 
L 438.738735 243.680753 
L 447.925338 243.817708 
L 457.111941 243.889249 
L 466.298544 243.855121 
L 475.485147 243.935886 
L 484.671749 244.045388 
L 493.858352 243.950223 
" clip-path="url(#p6b65031175)" style="fill: none; stroke: #ff7f0e; stroke-width: 2; stroke-linecap: square"/>
   </g>
   <g id="patch_8">
    <path d="M 310.585625 255.224 
L 310.585625 33.464 
" style="fill: none; stroke: #000000; stroke-width: 0.8; stroke-linejoin: miter; stroke-linecap: square"/>
   </g>
   <g id="patch_9">
    <path d="M 502.585625 255.224 
L 502.585625 33.464 
" style="fill: none; stroke: #000000; stroke-width: 0.8; stroke-linejoin: miter; stroke-linecap: square"/>
   </g>
   <g id="patch_10">
    <path d="M 310.585625 255.224 
L 502.585625 255.224 
" style="fill: none; stroke: #000000; stroke-width: 0.8; stroke-linejoin: miter; stroke-linecap: square"/>
   </g>
   <g id="patch_11">
    <path d="M 310.585625 33.464 
L 502.585625 33.464 
" style="fill: none; stroke: #000000; stroke-width: 0.8; stroke-linejoin: miter; stroke-linecap: square"/>
   </g>
  </g>
  <g id="axes_3">
   <g id="patch_12">
    <path d="M 560.185625 255.224 
L 752.185625 255.224 
L 752.185625 33.464 
L 560.185625 33.464 
z
" style="fill: #ffffff"/>
   </g>
   <g id="PolyCollection_5">
    <defs>
     <path id="m5a292a5c66" d="M 568.912898 -54.103012 
L 568.912898 -53.455563 
L 578.099501 -54.216297 
L 587.286103 -55.384904 
L 596.472706 -56.528441 
L 605.659309 -57.820449 
L 614.845912 -59.381485 
L 624.032515 -60.834382 
L 633.219118 -63.546438 
L 642.405721 -64.958024 
L 651.592324 -67.897066 
L 660.778926 -69.583193 
L 669.965529 -69.871445 
L 679.152132 -74.319971 
L 688.338735 -78.946683 
L 697.525338 -78.329725 
L 706.711941 -84.919799 
L 715.898544 -91.567942 
L 725.085147 -91.081251 
L 734.271749 -94.08413 
L 743.458352 -99.691223 
L 743.458352 -205.28047 
L 743.458352 -205.28047 
L 734.271749 -182.919227 
L 725.085147 -175.336994 
L 715.898544 -161.919853 
L 706.711941 -156.811405 
L 697.525338 -139.102742 
L 688.338735 -130.624317 
L 679.152132 -121.911315 
L 669.965529 -111.034906 
L 660.778926 -100.975153 
L 651.592324 -95.766059 
L 642.405721 -88.043217 
L 633.219118 -84.150455 
L 624.032515 -75.848414 
L 614.845912 -71.347481 
L 605.659309 -66.330378 
L 596.472706 -62.605904 
L 587.286103 -59.037512 
L 578.099501 -55.862015 
L 568.912898 -54.103012 
z
" style="stroke: #1f77b4; stroke-opacity: 0.2"/>
    </defs>
    <g clip-path="url(#p6211fe67c7)">
     <use xlink:href="#m5a292a5c66" x="0" y="298.599562" style="fill: #1f77b4; fill-opacity: 0.2; stroke: #1f77b4; stroke-opacity: 0.2"/>
    </g>
   </g>
   <g id="PolyCollection_6">
    <defs>
     <path id="md5d23ec8ab" d="M 568.912898 -156.383716 
L 568.912898 -93.236656 
L 578.099501 -95.975355 
L 587.286103 -96.090807 
L 596.472706 -100.689768 
L 605.659309 -100.101841 
L 614.845912 -100.147746 
L 624.032515 -106.469917 
L 633.219118 -106.026466 
L 642.405721 -108.630193 
L 651.592324 -107.397579 
L 660.778926 -111.392291 
L 669.965529 -114.020509 
L 679.152132 -118.247669 
L 688.338735 -117.08125 
L 697.525338 -124.999394 
L 706.711941 -126.004028 
L 715.898544 -127.401276 
L 725.085147 -124.616114 
L 734.271749 -127.53851 
L 743.458352 -137.248406 
L 743.458352 -255.055563 
L 743.458352 -255.055563 
L 734.271749 -232.266785 
L 725.085147 -238.234943 
L 715.898544 -228.254886 
L 706.711941 -228.80596 
L 697.525338 -220.462306 
L 688.338735 -192.033994 
L 679.152132 -209.198254 
L 669.965529 -196.586023 
L 660.778926 -189.034514 
L 651.592324 -183.938254 
L 642.405721 -194.688939 
L 633.219118 -186.918526 
L 624.032515 -178.107216 
L 614.845912 -172.397191 
L 605.659309 -165.525706 
L 596.472706 -172.081107 
L 587.286103 -164.94702 
L 578.099501 -152.148012 
L 568.912898 -156.383716 
z
" style="stroke: #ff7f0e; stroke-opacity: 0.2"/>
    </defs>
    <g clip-path="url(#p6211fe67c7)">
     <use xlink:href="#md5d23ec8ab" x="0" y="298.599562" style="fill: #ff7f0e; fill-opacity: 0.2; stroke: #ff7f0e; stroke-opacity: 0.2"/>
    </g>
   </g>
   <g id="matplotlib.axis_5">
    <g id="xtick_13">
     <g id="line2d_31">
      <g>
       <use xlink:href="#m13acedb9ee" x="568.912898" y="255.224" style="stroke: #000000; stroke-width: 0.8"/>
      </g>
     </g>
     <g id="text_32">
      <!-- 5 -->
      <g transform="translate(564.459148 272.861812) scale(0.14 -0.14)">
       <use xlink:href="#DejaVuSans-35"/>
      </g>
     </g>
    </g>
    <g id="xtick_14">
     <g id="line2d_32">
      <g>
       <use xlink:href="#m13acedb9ee" x="596.472706" y="255.224" style="stroke: #000000; stroke-width: 0.8"/>
      </g>
     </g>
     <g id="text_33">
      <!-- 20 -->
      <g transform="translate(587.565206 272.861812) scale(0.14 -0.14)">
       <use xlink:href="#DejaVuSans-32"/>
       <use xlink:href="#DejaVuSans-30" x="63.623047"/>
      </g>
     </g>
    </g>
    <g id="xtick_15">
     <g id="line2d_33">
      <g>
       <use xlink:href="#m13acedb9ee" x="633.219118" y="255.224" style="stroke: #000000; stroke-width: 0.8"/>
      </g>
     </g>
     <g id="text_34">
      <!-- 40 -->
      <g transform="translate(624.311618 272.861812) scale(0.14 -0.14)">
       <use xlink:href="#DejaVuSans-34"/>
       <use xlink:href="#DejaVuSans-30" x="63.623047"/>
      </g>
     </g>
    </g>
    <g id="xtick_16">
     <g id="line2d_34">
      <g>
       <use xlink:href="#m13acedb9ee" x="669.965529" y="255.224" style="stroke: #000000; stroke-width: 0.8"/>
      </g>
     </g>
     <g id="text_35">
      <!-- 60 -->
      <g transform="translate(661.058029 272.861812) scale(0.14 -0.14)">
       <use xlink:href="#DejaVuSans-36"/>
       <use xlink:href="#DejaVuSans-30" x="63.623047"/>
      </g>
     </g>
    </g>
    <g id="xtick_17">
     <g id="line2d_35">
      <g>
       <use xlink:href="#m13acedb9ee" x="706.711941" y="255.224" style="stroke: #000000; stroke-width: 0.8"/>
      </g>
     </g>
     <g id="text_36">
      <!-- 80 -->
      <g transform="translate(697.804441 272.861812) scale(0.14 -0.14)">
       <use xlink:href="#DejaVuSans-38"/>
       <use xlink:href="#DejaVuSans-30" x="63.623047"/>
      </g>
     </g>
    </g>
    <g id="xtick_18">
     <g id="line2d_36">
      <g>
       <use xlink:href="#m13acedb9ee" x="743.458352" y="255.224" style="stroke: #000000; stroke-width: 0.8"/>
      </g>
     </g>
     <g id="text_37">
      <!-- 100 -->
      <g transform="translate(730.097102 272.861812) scale(0.14 -0.14)">
       <use xlink:href="#DejaVuSans-31"/>
       <use xlink:href="#DejaVuSans-30" x="63.623047"/>
       <use xlink:href="#DejaVuSans-30" x="127.246094"/>
      </g>
     </g>
    </g>
    <g id="text_38">
     <!--   -->
     <g transform="translate(654.27875 288.8915) scale(0.12 -0.12)">
      <use xlink:href="#DejaVuSans-20"/>
     </g>
    </g>
   </g>
   <g id="matplotlib.axis_6">
    <g id="ytick_15">
     <g id="line2d_37">
      <g>
       <use xlink:href="#m36972b18e5" x="560.185625" y="246.275494" style="stroke: #000000; stroke-width: 0.8"/>
      </g>
     </g>
     <g id="text_39">
      <!-- 0 -->
      <g transform="translate(544.278125 251.5944) scale(0.14 -0.14)">
       <use xlink:href="#DejaVuSans-30"/>
      </g>
     </g>
    </g>
    <g id="ytick_16">
     <g id="line2d_38">
      <g>
       <use xlink:href="#m36972b18e5" x="560.185625" y="214.107356" style="stroke: #000000; stroke-width: 0.8"/>
      </g>
     </g>
     <g id="text_40">
      <!-- 50 -->
      <g transform="translate(535.370625 219.426263) scale(0.14 -0.14)">
       <use xlink:href="#DejaVuSans-35"/>
       <use xlink:href="#DejaVuSans-30" x="63.623047"/>
      </g>
     </g>
    </g>
    <g id="ytick_17">
     <g id="line2d_39">
      <g>
       <use xlink:href="#m36972b18e5" x="560.185625" y="181.939219" style="stroke: #000000; stroke-width: 0.8"/>
      </g>
     </g>
     <g id="text_41">
      <!-- 100 -->
      <g transform="translate(526.463125 187.258125) scale(0.14 -0.14)">
       <use xlink:href="#DejaVuSans-31"/>
       <use xlink:href="#DejaVuSans-30" x="63.623047"/>
       <use xlink:href="#DejaVuSans-30" x="127.246094"/>
      </g>
     </g>
    </g>
    <g id="ytick_18">
     <g id="line2d_40">
      <g>
       <use xlink:href="#m36972b18e5" x="560.185625" y="149.771081" style="stroke: #000000; stroke-width: 0.8"/>
      </g>
     </g>
     <g id="text_42">
      <!-- 150 -->
      <g transform="translate(526.463125 155.089987) scale(0.14 -0.14)">
       <use xlink:href="#DejaVuSans-31"/>
       <use xlink:href="#DejaVuSans-35" x="63.623047"/>
       <use xlink:href="#DejaVuSans-30" x="127.246094"/>
      </g>
     </g>
    </g>
    <g id="ytick_19">
     <g id="line2d_41">
      <g>
       <use xlink:href="#m36972b18e5" x="560.185625" y="117.602943" style="stroke: #000000; stroke-width: 0.8"/>
      </g>
     </g>
     <g id="text_43">
      <!-- 200 -->
      <g transform="translate(526.463125 122.92185) scale(0.14 -0.14)">
       <use xlink:href="#DejaVuSans-32"/>
       <use xlink:href="#DejaVuSans-30" x="63.623047"/>
       <use xlink:href="#DejaVuSans-30" x="127.246094"/>
      </g>
     </g>
    </g>
    <g id="ytick_20">
     <g id="line2d_42">
      <g>
       <use xlink:href="#m36972b18e5" x="560.185625" y="85.434806" style="stroke: #000000; stroke-width: 0.8"/>
      </g>
     </g>
     <g id="text_44">
      <!-- 250 -->
      <g transform="translate(526.463125 90.753712) scale(0.14 -0.14)">
       <use xlink:href="#DejaVuSans-32"/>
       <use xlink:href="#DejaVuSans-35" x="63.623047"/>
       <use xlink:href="#DejaVuSans-30" x="127.246094"/>
      </g>
     </g>
    </g>
    <g id="ytick_21">
     <g id="line2d_43">
      <g>
       <use xlink:href="#m36972b18e5" x="560.185625" y="53.266668" style="stroke: #000000; stroke-width: 0.8"/>
      </g>
     </g>
     <g id="text_45">
      <!-- 300 -->
      <g transform="translate(526.463125 58.585574) scale(0.14 -0.14)">
       <use xlink:href="#DejaVuSans-33"/>
       <use xlink:href="#DejaVuSans-30" x="63.623047"/>
       <use xlink:href="#DejaVuSans-30" x="127.246094"/>
      </g>
     </g>
    </g>
    <g id="text_46">
     <!-- CPU time (s) -->
     <g transform="translate(519.9675 181.719313) rotate(-90) scale(0.12 -0.12)">
      <defs>
       <path id="DejaVuSans-43" d="M 4122 4306 
L 4122 3641 
Q 3803 3938 3442 4084 
Q 3081 4231 2675 4231 
Q 1875 4231 1450 3742 
Q 1025 3253 1025 2328 
Q 1025 1406 1450 917 
Q 1875 428 2675 428 
Q 3081 428 3442 575 
Q 3803 722 4122 1019 
L 4122 359 
Q 3791 134 3420 21 
Q 3050 -91 2638 -91 
Q 1578 -91 968 557 
Q 359 1206 359 2328 
Q 359 3453 968 4101 
Q 1578 4750 2638 4750 
Q 3056 4750 3426 4639 
Q 3797 4528 4122 4306 
z
" transform="scale(0.015625)"/>
       <path id="DejaVuSans-50" d="M 1259 4147 
L 1259 2394 
L 2053 2394 
Q 2494 2394 2734 2622 
Q 2975 2850 2975 3272 
Q 2975 3691 2734 3919 
Q 2494 4147 2053 4147 
L 1259 4147 
z
M 628 4666 
L 2053 4666 
Q 2838 4666 3239 4311 
Q 3641 3956 3641 3272 
Q 3641 2581 3239 2228 
Q 2838 1875 2053 1875 
L 1259 1875 
L 1259 0 
L 628 0 
L 628 4666 
z
" transform="scale(0.015625)"/>
       <path id="DejaVuSans-55" d="M 556 4666 
L 1191 4666 
L 1191 1831 
Q 1191 1081 1462 751 
Q 1734 422 2344 422 
Q 2950 422 3222 751 
Q 3494 1081 3494 1831 
L 3494 4666 
L 4128 4666 
L 4128 1753 
Q 4128 841 3676 375 
Q 3225 -91 2344 -91 
Q 1459 -91 1007 375 
Q 556 841 556 1753 
L 556 4666 
z
" transform="scale(0.015625)"/>
      </defs>
      <use xlink:href="#DejaVuSans-43"/>
      <use xlink:href="#DejaVuSans-50" x="69.824219"/>
      <use xlink:href="#DejaVuSans-55" x="130.126953"/>
      <use xlink:href="#DejaVuSans-20" x="203.320312"/>
      <use xlink:href="#DejaVuSans-74" x="235.107422"/>
      <use xlink:href="#DejaVuSans-69" x="274.316406"/>
      <use xlink:href="#DejaVuSans-6d" x="302.099609"/>
      <use xlink:href="#DejaVuSans-65" x="399.511719"/>
      <use xlink:href="#DejaVuSans-20" x="461.035156"/>
      <use xlink:href="#DejaVuSans-28" x="492.822266"/>
      <use xlink:href="#DejaVuSans-73" x="531.835938"/>
      <use xlink:href="#DejaVuSans-29" x="583.935547"/>
     </g>
    </g>
   </g>
   <g id="line2d_44">
    <path d="M 568.912898 244.826813 
L 578.099501 243.569833 
L 587.286103 241.540698 
L 596.472706 239.414826 
L 605.659309 236.944183 
L 614.845912 233.916537 
L 624.032515 230.666404 
L 633.219118 225.766277 
L 642.405721 223.699284 
L 651.592324 217.727653 
L 660.778926 214.868967 
L 669.965529 208.95174 
L 679.152132 202.474782 
L 688.338735 197.506352 
L 697.525338 190.419017 
L 706.711941 182.350834 
L 715.898544 176.969362 
L 725.085147 169.502039 
L 734.271749 164.881121 
L 743.458352 152.341965 
" clip-path="url(#p6211fe67c7)" style="fill: none; stroke: #1f77b4; stroke-width: 2; stroke-linecap: square"/>
   </g>
   <g id="line2d_45">
    <path d="M 568.912898 176.153054 
L 578.099501 176.491265 
L 587.286103 169.562567 
L 596.472706 163.429663 
L 605.659309 168.854777 
L 614.845912 162.695901 
L 624.032515 159.132566 
L 633.219118 154.931257 
L 642.405721 150.995241 
L 651.592324 153.649466 
L 660.778926 152.221057 
L 669.965529 145.495644 
L 679.152132 138.061241 
L 688.338735 146.265199 
L 697.525338 129.491435 
L 706.711941 124.964436 
L 715.898544 123.924912 
L 725.085147 117.422533 
L 734.271749 121.802723 
L 743.458352 108.96895 
" clip-path="url(#p6211fe67c7)" style="fill: none; stroke: #ff7f0e; stroke-width: 2; stroke-linecap: square"/>
   </g>
   <g id="patch_13">
    <path d="M 560.185625 255.224 
L 560.185625 33.464 
" style="fill: none; stroke: #000000; stroke-width: 0.8; stroke-linejoin: miter; stroke-linecap: square"/>
   </g>
   <g id="patch_14">
    <path d="M 752.185625 255.224 
L 752.185625 33.464 
" style="fill: none; stroke: #000000; stroke-width: 0.8; stroke-linejoin: miter; stroke-linecap: square"/>
   </g>
   <g id="patch_15">
    <path d="M 560.185625 255.224 
L 752.185625 255.224 
" style="fill: none; stroke: #000000; stroke-width: 0.8; stroke-linejoin: miter; stroke-linecap: square"/>
   </g>
   <g id="patch_16">
    <path d="M 560.185625 33.464 
L 752.185625 33.464 
" style="fill: none; stroke: #000000; stroke-width: 0.8; stroke-linejoin: miter; stroke-linecap: square"/>
   </g>
   <g id="legend_1">
    <g id="patch_17">
     <path d="M 542.105313 31.949375 
L 770.265938 31.949375 
Q 773.065938 31.949375 773.065938 29.149375 
L 773.065938 10 
Q 773.065938 7.2 770.265938 7.2 
L 542.105313 7.2 
Q 539.305313 7.2 539.305313 10 
L 539.305313 29.149375 
Q 539.305313 31.949375 542.105313 31.949375 
z
" style="fill: #ffffff; opacity: 0.8; stroke: #cccccc; stroke-linejoin: miter"/>
    </g>
    <g id="line2d_46">
     <path d="M 544.905313 18.537812 
L 558.905313 18.537812 
L 572.905313 18.537812 
" style="fill: none; stroke: #1f77b4; stroke-width: 2; stroke-linecap: square"/>
    </g>
    <g id="text_47">
     <!-- GPR -->
     <g transform="translate(584.105313 23.437812) scale(0.14 -0.14)">
      <defs>
       <path id="DejaVuSans-47" d="M 3809 666 
L 3809 1919 
L 2778 1919 
L 2778 2438 
L 4434 2438 
L 4434 434 
Q 4069 175 3628 42 
Q 3188 -91 2688 -91 
Q 1594 -91 976 548 
Q 359 1188 359 2328 
Q 359 3472 976 4111 
Q 1594 4750 2688 4750 
Q 3144 4750 3555 4637 
Q 3966 4525 4313 4306 
L 4313 3634 
Q 3963 3931 3569 4081 
Q 3175 4231 2741 4231 
Q 1884 4231 1454 3753 
Q 1025 3275 1025 2328 
Q 1025 1384 1454 906 
Q 1884 428 2741 428 
Q 3075 428 3337 486 
Q 3600 544 3809 666 
z
" transform="scale(0.015625)"/>
      </defs>
      <use xlink:href="#DejaVuSans-47"/>
      <use xlink:href="#DejaVuSans-50" x="77.490234"/>
      <use xlink:href="#DejaVuSans-52" x="137.792969"/>
     </g>
    </g>
    <g id="line2d_47">
     <path d="M 641.1225 18.537812 
L 655.1225 18.537812 
L 669.1225 18.537812 
" style="fill: none; stroke: #ff7f0e; stroke-width: 2; stroke-linecap: square"/>
    </g>
    <g id="text_48">
     <!-- MF-RBF-GPR -->
     <g transform="translate(680.3225 23.437812) scale(0.14 -0.14)">
      <defs>
       <path id="DejaVuSans-4d" d="M 628 4666 
L 1569 4666 
L 2759 1491 
L 3956 4666 
L 4897 4666 
L 4897 0 
L 4281 0 
L 4281 4097 
L 3078 897 
L 2444 897 
L 1241 4097 
L 1241 0 
L 628 0 
L 628 4666 
z
" transform="scale(0.015625)"/>
       <path id="DejaVuSans-2d" d="M 313 2009 
L 1997 2009 
L 1997 1497 
L 313 1497 
L 313 2009 
z
" transform="scale(0.015625)"/>
       <path id="DejaVuSans-42" d="M 1259 2228 
L 1259 519 
L 2272 519 
Q 2781 519 3026 730 
Q 3272 941 3272 1375 
Q 3272 1813 3026 2020 
Q 2781 2228 2272 2228 
L 1259 2228 
z
M 1259 4147 
L 1259 2741 
L 2194 2741 
Q 2656 2741 2882 2914 
Q 3109 3088 3109 3444 
Q 3109 3797 2882 3972 
Q 2656 4147 2194 4147 
L 1259 4147 
z
M 628 4666 
L 2241 4666 
Q 2963 4666 3353 4366 
Q 3744 4066 3744 3513 
Q 3744 3084 3544 2831 
Q 3344 2578 2956 2516 
Q 3422 2416 3680 2098 
Q 3938 1781 3938 1306 
Q 3938 681 3513 340 
Q 3088 0 2303 0 
L 628 0 
L 628 4666 
z
" transform="scale(0.015625)"/>
      </defs>
      <use xlink:href="#DejaVuSans-4d"/>
      <use xlink:href="#DejaVuSans-46" x="86.279297"/>
      <use xlink:href="#DejaVuSans-2d" x="143.798828"/>
      <use xlink:href="#DejaVuSans-52" x="179.882812"/>
      <use xlink:href="#DejaVuSans-42" x="249.365234"/>
      <use xlink:href="#DejaVuSans-46" x="317.96875"/>
      <use xlink:href="#DejaVuSans-2d" x="375.488281"/>
      <use xlink:href="#DejaVuSans-47" x="415.197266"/>
      <use xlink:href="#DejaVuSans-50" x="492.6875"/>
      <use xlink:href="#DejaVuSans-52" x="552.990234"/>
     </g>
    </g>
   </g>
  </g>
  <g id="axes_4">
   <g id="patch_18">
    <path d="M 112.825625 229.304 
L 242.425625 229.304 
L 242.425625 114.104 
L 112.825625 114.104 
z
" style="fill: #ffffff"/>
   </g>
   <g id="PolyCollection_7">
    <path d="M 97.578566 543.893394 
L 97.578566 808.092245 
L 105.202096 434.086355 
L 112.825625 286.736952 
L 120.449154 221.525338 
L 128.072684 201.160988 
L 135.696213 184.883634 
L 143.319743 182.3066 
L 150.943272 172.130438 
L 158.566801 164.617144 
L 166.190331 157.680038 
L 173.81386 156.799228 
L 181.43739 151.65964 
L 189.060919 152.434055 
L 196.684449 146.386114 
L 204.307978 145.534929 
L 211.931507 143.864475 
L 219.555037 142.949876 
L 227.178566 141.84169 
L 234.802096 140.025554 
L 242.425625 137.696229 
L 242.425625 123.147502 
L 242.425625 123.147502 
L 234.802096 123.947193 
L 227.178566 125.166423 
L 219.555037 124.669707 
L 211.931507 126.181487 
L 204.307978 126.589575 
L 196.684449 127.672532 
L 189.060919 128.853681 
L 181.43739 128.637642 
L 173.81386 132.052544 
L 166.190331 131.685126 
L 158.566801 133.351095 
L 150.943272 138.214193 
L 143.319743 142.303444 
L 135.696213 143.499184 
L 128.072684 153.896924 
L 120.449154 162.007628 
L 112.825625 199.871855 
L 105.202096 277.284225 
L 97.578566 543.893394 
z
" clip-path="url(#p47a0281ef1)" style="fill: #1f77b4; fill-opacity: 0.2; stroke: #1f77b4; stroke-opacity: 0.2"/>
   </g>
   <g id="PolyCollection_8">
    <path d="M 97.578566 379.931599 
L 97.578566 613.894494 
L 105.202096 352.022134 
L 112.825625 232.318974 
L 120.449154 192.99818 
L 128.072684 184.457534 
L 135.696213 172.266865 
L 143.319743 161.924607 
L 150.943272 159.642315 
L 158.566801 156.885041 
L 166.190331 154.511913 
L 173.81386 145.962128 
L 181.43739 148.57586 
L 189.060919 143.355703 
L 196.684449 141.77688 
L 204.307978 141.178554 
L 211.931507 138.378939 
L 219.555037 139.345833 
L 227.178566 137.289911 
L 234.802096 135.69988 
L 242.425625 134.306808 
L 242.425625 121.934308 
L 242.425625 121.934308 
L 234.802096 122.347003 
L 227.178566 123.105553 
L 219.555037 124.290676 
L 211.931507 123.831707 
L 204.307978 125.352848 
L 196.684449 125.146483 
L 189.060919 125.721094 
L 181.43739 127.87604 
L 173.81386 126.912757 
L 166.190331 129.054926 
L 158.566801 130.355792 
L 150.943272 132.678293 
L 143.319743 134.339761 
L 135.696213 136.989185 
L 128.072684 142.88828 
L 120.449154 147.782288 
L 112.825625 166.679962 
L 105.202096 218.173738 
L 97.578566 379.931599 
z
" clip-path="url(#p47a0281ef1)" style="fill: #ff7f0e; fill-opacity: 0.2; stroke: #ff7f0e; stroke-opacity: 0.2"/>
   </g>
   <g id="matplotlib.axis_7">
    <g id="xtick_19">
     <g id="line2d_48">
      <g>
       <use xlink:href="#m13acedb9ee" x="128.072684" y="229.304" style="stroke: #000000; stroke-width: 0.8"/>
      </g>
     </g>
     <g id="text_49">
      <!-- 25 -->
      <g transform="translate(121.710184 243.902437) scale(0.1 -0.1)">
       <use xlink:href="#DejaVuSans-32"/>
       <use xlink:href="#DejaVuSans-35" x="63.623047"/>
      </g>
     </g>
    </g>
    <g id="xtick_20">
     <g id="line2d_49">
      <g>
       <use xlink:href="#m13acedb9ee" x="166.190331" y="229.304" style="stroke: #000000; stroke-width: 0.8"/>
      </g>
     </g>
     <g id="text_50">
      <!-- 50 -->
      <g transform="translate(159.827831 243.902437) scale(0.1 -0.1)">
       <use xlink:href="#DejaVuSans-35"/>
       <use xlink:href="#DejaVuSans-30" x="63.623047"/>
      </g>
     </g>
    </g>
    <g id="xtick_21">
     <g id="line2d_50">
      <g>
       <use xlink:href="#m13acedb9ee" x="204.307978" y="229.304" style="stroke: #000000; stroke-width: 0.8"/>
      </g>
     </g>
     <g id="text_51">
      <!-- 75 -->
      <g transform="translate(197.945478 243.902437) scale(0.1 -0.1)">
       <use xlink:href="#DejaVuSans-37"/>
       <use xlink:href="#DejaVuSans-35" x="63.623047"/>
      </g>
     </g>
    </g>
    <g id="xtick_22">
     <g id="line2d_51">
      <g>
       <use xlink:href="#m13acedb9ee" x="242.425625" y="229.304" style="stroke: #000000; stroke-width: 0.8"/>
      </g>
     </g>
     <g id="text_52">
      <!-- 100 -->
      <g transform="translate(232.881875 243.902437) scale(0.1 -0.1)">
       <use xlink:href="#DejaVuSans-31"/>
       <use xlink:href="#DejaVuSans-30" x="63.623047"/>
       <use xlink:href="#DejaVuSans-30" x="127.246094"/>
      </g>
     </g>
    </g>
   </g>
   <g id="matplotlib.axis_8">
    <g id="ytick_22">
     <g id="line2d_52">
      <g>
       <use xlink:href="#m36972b18e5" x="112.825625" y="206.264" style="stroke: #000000; stroke-width: 0.8"/>
      </g>
     </g>
     <g id="text_53">
      <!-- 0.96 -->
      <g transform="translate(83.56 210.063219) scale(0.1 -0.1)">
       <use xlink:href="#DejaVuSans-30"/>
       <use xlink:href="#DejaVuSans-2e" x="63.623047"/>
       <use xlink:href="#DejaVuSans-39" x="95.410156"/>
       <use xlink:href="#DejaVuSans-36" x="159.033203"/>
      </g>
     </g>
    </g>
    <g id="ytick_23">
     <g id="line2d_53">
      <g>
       <use xlink:href="#m36972b18e5" x="112.825625" y="160.184" style="stroke: #000000; stroke-width: 0.8"/>
      </g>
     </g>
     <g id="text_54">
      <!-- 0.98 -->
      <g transform="translate(83.56 163.983219) scale(0.1 -0.1)">
       <use xlink:href="#DejaVuSans-30"/>
       <use xlink:href="#DejaVuSans-2e" x="63.623047"/>
       <use xlink:href="#DejaVuSans-39" x="95.410156"/>
       <use xlink:href="#DejaVuSans-38" x="159.033203"/>
      </g>
     </g>
    </g>
    <g id="ytick_24">
     <g id="line2d_54">
      <g>
       <use xlink:href="#m36972b18e5" x="112.825625" y="114.104" style="stroke: #000000; stroke-width: 0.8"/>
      </g>
     </g>
     <g id="text_55">
      <!-- 1.00 -->
      <g transform="translate(83.56 117.903219) scale(0.1 -0.1)">
       <use xlink:href="#DejaVuSans-31"/>
       <use xlink:href="#DejaVuSans-2e" x="63.623047"/>
       <use xlink:href="#DejaVuSans-30" x="95.410156"/>
       <use xlink:href="#DejaVuSans-30" x="159.033203"/>
      </g>
     </g>
    </g>
   </g>
   <g id="line2d_55">
    <path d="M 108.757377 299.599562 
L 112.825625 240.588341 
L 120.449154 190.572856 
L 128.072684 176.331572 
L 135.696213 163.201788 
L 143.319743 160.771725 
L 150.943272 154.145861 
L 158.566801 148.555309 
L 166.190331 143.016822 
L 173.81386 143.781337 
L 181.43739 139.417003 
L 189.060919 140.320669 
L 196.684449 137.039221 
L 204.307978 135.553052 
L 211.931507 134.548086 
L 219.555037 133.285958 
L 227.178566 133.214212 
L 234.802096 131.732428 
L 242.425625 130.127519 
" clip-path="url(#p47a0281ef1)" style="fill: none; stroke: #1f77b4; stroke-width: 2; stroke-linecap: square"/>
   </g>
   <g id="line2d_56">
    <path d="M 104.54744 299.599562 
L 105.202096 281.080788 
L 112.825625 196.485577 
L 120.449154 169.486389 
L 128.072684 163.559306 
L 135.696213 153.457872 
L 143.319743 147.526014 
L 150.943272 144.992855 
L 158.566801 142.832924 
L 166.190331 140.59983 
L 173.81386 135.251067 
L 181.43739 137.187818 
L 189.060919 133.802544 
L 196.684449 133.092661 
L 204.307978 132.648702 
L 211.931507 130.254872 
L 219.555037 131.251938 
L 227.178566 129.812786 
L 234.802096 128.627364 
L 242.425625 127.356084 
" clip-path="url(#p47a0281ef1)" style="fill: none; stroke: #ff7f0e; stroke-width: 2; stroke-linecap: square"/>
   </g>
   <g id="patch_19">
    <path d="M 112.825625 229.304 
L 112.825625 114.104 
" style="fill: none; stroke: #000000; stroke-width: 0.8; stroke-linejoin: miter; stroke-linecap: square"/>
   </g>
   <g id="patch_20">
    <path d="M 242.425625 229.304 
L 242.425625 114.104 
" style="fill: none; stroke: #000000; stroke-width: 0.8; stroke-linejoin: miter; stroke-linecap: square"/>
   </g>
   <g id="patch_21">
    <path d="M 112.825625 229.304 
L 242.425625 229.304 
" style="fill: none; stroke: #000000; stroke-width: 0.8; stroke-linejoin: miter; stroke-linecap: square"/>
   </g>
   <g id="patch_22">
    <path d="M 112.825625 114.104 
L 242.425625 114.104 
" style="fill: none; stroke: #000000; stroke-width: 0.8; stroke-linejoin: miter; stroke-linecap: square"/>
   </g>
  </g>
  <g id="axes_5">
   <g id="patch_23">
    <path d="M 363.385625 171.704 
L 492.985625 171.704 
L 492.985625 56.504 
L 363.385625 56.504 
z
" style="fill: #ffffff"/>
   </g>
   <g id="PolyCollection_9">
    <path d="M 348.138566 -3753.263358 
L 348.138566 -350.449931 
L 355.762096 16.664706 
L 363.385625 71.482443 
L 371.009154 120.689099 
L 378.632684 133.064526 
L 386.256213 136.862903 
L 393.879743 138.255333 
L 401.503272 142.577176 
L 409.126801 152.181868 
L 416.750331 152.626059 
L 424.37386 154.588436 
L 431.99739 152.76507 
L 439.620919 161.640467 
L 447.244449 163.12511 
L 454.867978 160.071921 
L 462.491507 160.893654 
L 470.115037 166.426947 
L 477.738566 166.31111 
L 485.362096 167.882328 
L 492.985625 168.928233 
L 492.985625 152.255676 
L 492.985625 152.255676 
L 485.362096 146.033383 
L 477.738566 140.162479 
L 470.115037 143.977731 
L 462.491507 130.917033 
L 454.867978 127.336584 
L 447.244449 131.258021 
L 439.620919 124.34817 
L 431.99739 116.886489 
L 424.37386 118.565327 
L 416.750331 118.682101 
L 409.126801 115.519172 
L 401.503272 103.679902 
L 393.879743 85.417004 
L 386.256213 41.538523 
L 378.632684 86.71239 
L 371.009154 -179.41178 
L 363.385625 -209.510349 
L 355.762096 -512.950609 
L 348.138566 -3753.263358 
z
" clip-path="url(#p1f273fa812)" style="fill: #1f77b4; fill-opacity: 0.2; stroke: #1f77b4; stroke-opacity: 0.2"/>
   </g>
   <g id="PolyCollection_10">
    <path d="M 348.138566 -923.797483 
L 348.138566 -58.496126 
L 355.762096 108.242914 
L 363.385625 107.74227 
L 371.009154 129.550579 
L 378.632684 130.308314 
L 386.256213 131.375219 
L 393.879743 138.415324 
L 401.503272 150.486881 
L 409.126801 148.977847 
L 416.750331 147.579538 
L 424.37386 157.219942 
L 431.99739 148.678606 
L 439.620919 151.766745 
L 447.244449 152.381034 
L 454.867978 155.318922 
L 462.491507 156.550657 
L 470.115037 156.282079 
L 477.738566 156.194873 
L 485.362096 159.12849 
L 492.985625 157.380835 
L 492.985625 134.622625 
L 492.985625 134.622625 
L 485.362096 136.76695 
L 477.738566 135.225354 
L 470.115037 131.820277 
L 462.491507 132.317338 
L 454.867978 130.627915 
L 447.244449 129.155299 
L 439.620919 126.947756 
L 431.99739 122.503293 
L 424.37386 133.92388 
L 416.750331 122.23641 
L 409.126801 121.401891 
L 401.503272 126.122461 
L 393.879743 92.48562 
L 386.256213 47.785664 
L 378.632684 70.828771 
L 371.009154 -185.274759 
L 363.385625 -101.740846 
L 355.762096 -181.956677 
L 348.138566 -923.797483 
z
" clip-path="url(#p1f273fa812)" style="fill: #ff7f0e; fill-opacity: 0.2; stroke: #ff7f0e; stroke-opacity: 0.2"/>
   </g>
   <g id="matplotlib.axis_9">
    <g id="xtick_23">
     <g id="line2d_57">
      <g>
       <use xlink:href="#m13acedb9ee" x="378.632684" y="171.704" style="stroke: #000000; stroke-width: 0.8"/>
      </g>
     </g>
     <g id="text_56">
      <!-- 25 -->
      <g transform="translate(372.270184 186.302437) scale(0.1 -0.1)">
       <use xlink:href="#DejaVuSans-32"/>
       <use xlink:href="#DejaVuSans-35" x="63.623047"/>
      </g>
     </g>
    </g>
    <g id="xtick_24">
     <g id="line2d_58">
      <g>
       <use xlink:href="#m13acedb9ee" x="416.750331" y="171.704" style="stroke: #000000; stroke-width: 0.8"/>
      </g>
     </g>
     <g id="text_57">
      <!-- 50 -->
      <g transform="translate(410.387831 186.302437) scale(0.1 -0.1)">
       <use xlink:href="#DejaVuSans-35"/>
       <use xlink:href="#DejaVuSans-30" x="63.623047"/>
      </g>
     </g>
    </g>
    <g id="xtick_25">
     <g id="line2d_59">
      <g>
       <use xlink:href="#m13acedb9ee" x="454.867978" y="171.704" style="stroke: #000000; stroke-width: 0.8"/>
      </g>
     </g>
     <g id="text_58">
      <!-- 75 -->
      <g transform="translate(448.505478 186.302437) scale(0.1 -0.1)">
       <use xlink:href="#DejaVuSans-37"/>
       <use xlink:href="#DejaVuSans-35" x="63.623047"/>
      </g>
     </g>
    </g>
    <g id="xtick_26">
     <g id="line2d_60">
      <g>
       <use xlink:href="#m13acedb9ee" x="492.985625" y="171.704" style="stroke: #000000; stroke-width: 0.8"/>
      </g>
     </g>
     <g id="text_59">
      <!-- 100 -->
      <g transform="translate(483.441875 186.302437) scale(0.1 -0.1)">
       <use xlink:href="#DejaVuSans-31"/>
       <use xlink:href="#DejaVuSans-30" x="63.623047"/>
       <use xlink:href="#DejaVuSans-30" x="127.246094"/>
      </g>
     </g>
    </g>
   </g>
   <g id="matplotlib.axis_10">
    <g id="ytick_25">
     <g id="line2d_61">
      <g>
       <use xlink:href="#m36972b18e5" x="363.385625" y="152.504" style="stroke: #000000; stroke-width: 0.8"/>
      </g>
     </g>
     <g id="text_60">
      <!-- 0.05 -->
      <g transform="translate(334.12 156.303219) scale(0.1 -0.1)">
       <use xlink:href="#DejaVuSans-30"/>
       <use xlink:href="#DejaVuSans-2e" x="63.623047"/>
       <use xlink:href="#DejaVuSans-30" x="95.410156"/>
       <use xlink:href="#DejaVuSans-35" x="159.033203"/>
      </g>
     </g>
    </g>
    <g id="ytick_26">
     <g id="line2d_62">
      <g>
       <use xlink:href="#m36972b18e5" x="363.385625" y="120.504" style="stroke: #000000; stroke-width: 0.8"/>
      </g>
     </g>
     <g id="text_61">
      <!-- 0.10 -->
      <g transform="translate(334.12 124.303219) scale(0.1 -0.1)">
       <use xlink:href="#DejaVuSans-30"/>
       <use xlink:href="#DejaVuSans-2e" x="63.623047"/>
       <use xlink:href="#DejaVuSans-31" x="95.410156"/>
       <use xlink:href="#DejaVuSans-30" x="159.033203"/>
      </g>
     </g>
    </g>
    <g id="ytick_27">
     <g id="line2d_63">
      <g>
       <use xlink:href="#m36972b18e5" x="363.385625" y="88.504" style="stroke: #000000; stroke-width: 0.8"/>
      </g>
     </g>
     <g id="text_62">
      <!-- 0.15 -->
      <g transform="translate(334.12 92.303219) scale(0.1 -0.1)">
       <use xlink:href="#DejaVuSans-30"/>
       <use xlink:href="#DejaVuSans-2e" x="63.623047"/>
       <use xlink:href="#DejaVuSans-31" x="95.410156"/>
       <use xlink:href="#DejaVuSans-35" x="159.033203"/>
      </g>
     </g>
    </g>
    <g id="ytick_28">
     <g id="line2d_64">
      <g>
       <use xlink:href="#m36972b18e5" x="363.385625" y="56.504" style="stroke: #000000; stroke-width: 0.8"/>
      </g>
     </g>
     <g id="text_63">
      <!-- 0.20 -->
      <g transform="translate(334.12 60.303219) scale(0.1 -0.1)">
       <use xlink:href="#DejaVuSans-30"/>
       <use xlink:href="#DejaVuSans-2e" x="63.623047"/>
       <use xlink:href="#DejaVuSans-32" x="95.410156"/>
       <use xlink:href="#DejaVuSans-30" x="159.033203"/>
      </g>
     </g>
    </g>
   </g>
   <g id="line2d_65">
    <path d="M 369.239799 -1 
L 371.009154 12.546569 
L 378.632684 111.452836 
L 386.256213 94.592428 
L 393.879743 113.641663 
L 401.503272 123.957313 
L 409.126801 134.31836 
L 416.750331 136.234281 
L 424.37386 137.179764 
L 431.99739 136.107368 
L 439.620919 144.246507 
L 447.244449 148.439606 
L 454.867978 144.690711 
L 462.491507 147.815755 
L 470.115037 156.365407 
L 477.738566 154.881862 
L 485.362096 157.70021 
L 492.985625 161.334732 
" clip-path="url(#p1f273fa812)" style="fill: none; stroke: #1f77b4; stroke-width: 2; stroke-linecap: square"/>
   </g>
   <g id="line2d_66">
    <path d="M 358.402644 -1 
L 363.385625 16.883736 
L 371.009154 23.757878 
L 378.632684 103.392241 
L 386.256213 92.96963 
L 393.879743 116.585578 
L 401.503272 138.872239 
L 409.126801 135.840664 
L 416.750331 135.470995 
L 424.37386 146.266806 
L 431.99739 136.144757 
L 439.620919 139.783387 
L 447.244449 141.092856 
L 454.867978 143.775001 
L 462.491507 145.176055 
L 470.115037 144.507682 
L 477.738566 146.08939 
L 485.362096 148.233897 
L 492.985625 146.370175 
" clip-path="url(#p1f273fa812)" style="fill: none; stroke: #ff7f0e; stroke-width: 2; stroke-linecap: square"/>
   </g>
   <g id="patch_24">
    <path d="M 363.385625 171.704 
L 363.385625 56.504 
" style="fill: none; stroke: #000000; stroke-width: 0.8; stroke-linejoin: miter; stroke-linecap: square"/>
   </g>
   <g id="patch_25">
    <path d="M 492.985625 171.704 
L 492.985625 56.504 
" style="fill: none; stroke: #000000; stroke-width: 0.8; stroke-linejoin: miter; stroke-linecap: square"/>
   </g>
   <g id="patch_26">
    <path d="M 363.385625 171.704 
L 492.985625 171.704 
" style="fill: none; stroke: #000000; stroke-width: 0.8; stroke-linejoin: miter; stroke-linecap: square"/>
   </g>
   <g id="patch_27">
    <path d="M 363.385625 56.504 
L 492.985625 56.504 
" style="fill: none; stroke: #000000; stroke-width: 0.8; stroke-linejoin: miter; stroke-linecap: square"/>
   </g>
  </g>
 </g>
 <defs>
  <clipPath id="p42035a9036">
   <rect x="60.985625" y="33.464" width="192" height="221.76"/>
  </clipPath>
  <clipPath id="p6b65031175">
   <rect x="310.585625" y="33.464" width="192" height="221.76"/>
  </clipPath>
  <clipPath id="p6211fe67c7">
   <rect x="560.185625" y="33.464" width="192" height="221.76"/>
  </clipPath>
  <clipPath id="p47a0281ef1">
   <rect x="112.825625" y="114.104" width="129.6" height="115.2"/>
  </clipPath>
  <clipPath id="p1f273fa812">
   <rect x="363.385625" y="56.504" width="129.6" height="115.2"/>
  </clipPath>
 </defs>
</svg>
