<?xml version="1.0" encoding="utf-8" standalone="no"?>
<!DOCTYPE svg PUBLIC "-//W3C//DTD SVG 1.1//EN"
  "http://www.w3.org/Graphics/SVG/1.1/DTD/svg11.dtd">
<svg xmlns:xlink="http://www.w3.org/1999/xlink" width="766.519602pt" height="280.142031pt" viewBox="0 0 766.519602 280.142031" xmlns="http://www.w3.org/2000/svg" version="1.1">
 <metadata>
  <rdf:RDF xmlns:dc="http://purl.org/dc/elements/1.1/" xmlns:cc="http://creativecommons.org/ns#" xmlns:rdf="http://www.w3.org/1999/02/22-rdf-syntax-ns#">
   <cc:Work>
    <dc:type rdf:resource="http://purl.org/dc/dcmitype/StillImage"/>
    <dc:date>2024-01-10T22:17:25.055624</dc:date>
    <dc:format>image/svg+xml</dc:format>
    <dc:creator>
     <cc:Agent>
      <dc:title>Matplotlib v3.8.2, https://matplotlib.org/</dc:title>
     </cc:Agent>
    </dc:creator>
   </cc:Work>
  </rdf:RDF>
 </metadata>
 <defs>
  <style type="text/css">*{stroke-linejoin: round; stroke-linecap: butt}</style>
 </defs>
 <g id="figure_1">
  <g id="patch_1">
   <path d="M 0 280.142031 
L 766.519602 280.142031 
L 766.519602 0 
L 0 0 
z
" style="fill: #ffffff"/>
  </g>
  <g id="axes_1">
   <g id="patch_2">
    <path d="M 63.485625 234.278906 
L 255.485625 234.278906 
L 255.485625 12.518906 
L 63.485625 12.518906 
z
" style="fill: #ffffff"/>
   </g>
   <g id="matplotlib.axis_1">
    <g id="xtick_1">
     <g id="line2d_1">
      <path d="M 72.212898 234.278906 
L 72.212898 12.518906 
" clip-path="url(#p07d50e4d39)" style="fill: none; stroke: #cccccc; stroke-linecap: round"/>
     </g>
     <g id="text_1">
      <!-- 5 -->
      <g style="fill: #262626" transform="translate(67.759148 254.416719) scale(0.14 -0.14)">
       <defs>
        <path id="DejaVuSans-35" d="M 691 4666 
L 3169 4666 
L 3169 4134 
L 1269 4134 
L 1269 2991 
Q 1406 3038 1543 3061 
Q 1681 3084 1819 3084 
Q 2600 3084 3056 2656 
Q 3513 2228 3513 1497 
Q 3513 744 3044 326 
Q 2575 -91 1722 -91 
Q 1428 -91 1123 -41 
Q 819 9 494 109 
L 494 744 
Q 775 591 1075 516 
Q 1375 441 1709 441 
Q 2250 441 2565 725 
Q 2881 1009 2881 1497 
Q 2881 1984 2565 2268 
Q 2250 2553 1709 2553 
Q 1456 2553 1204 2497 
Q 953 2441 691 2322 
L 691 4666 
z
" transform="scale(0.015625)"/>
       </defs>
       <use xlink:href="#DejaVuSans-35"/>
      </g>
     </g>
    </g>
    <g id="xtick_2">
     <g id="line2d_2">
      <path d="M 99.772706 234.278906 
L 99.772706 12.518906 
" clip-path="url(#p07d50e4d39)" style="fill: none; stroke: #cccccc; stroke-linecap: round"/>
     </g>
     <g id="text_2">
      <!-- 20 -->
      <g style="fill: #262626" transform="translate(90.865206 254.416719) scale(0.14 -0.14)">
       <defs>
        <path id="DejaVuSans-32" d="M 1228 531 
L 3431 531 
L 3431 0 
L 469 0 
L 469 531 
Q 828 903 1448 1529 
Q 2069 2156 2228 2338 
Q 2531 2678 2651 2914 
Q 2772 3150 2772 3378 
Q 2772 3750 2511 3984 
Q 2250 4219 1831 4219 
Q 1534 4219 1204 4116 
Q 875 4013 500 3803 
L 500 4441 
Q 881 4594 1212 4672 
Q 1544 4750 1819 4750 
Q 2544 4750 2975 4387 
Q 3406 4025 3406 3419 
Q 3406 3131 3298 2873 
Q 3191 2616 2906 2266 
Q 2828 2175 2409 1742 
Q 1991 1309 1228 531 
z
" transform="scale(0.015625)"/>
        <path id="DejaVuSans-30" d="M 2034 4250 
Q 1547 4250 1301 3770 
Q 1056 3291 1056 2328 
Q 1056 1369 1301 889 
Q 1547 409 2034 409 
Q 2525 409 2770 889 
Q 3016 1369 3016 2328 
Q 3016 3291 2770 3770 
Q 2525 4250 2034 4250 
z
M 2034 4750 
Q 2819 4750 3233 4129 
Q 3647 3509 3647 2328 
Q 3647 1150 3233 529 
Q 2819 -91 2034 -91 
Q 1250 -91 836 529 
Q 422 1150 422 2328 
Q 422 3509 836 4129 
Q 1250 4750 2034 4750 
z
" transform="scale(0.015625)"/>
       </defs>
       <use xlink:href="#DejaVuSans-32"/>
       <use xlink:href="#DejaVuSans-30" x="63.623047"/>
      </g>
     </g>
    </g>
    <g id="xtick_3">
     <g id="line2d_3">
      <path d="M 136.519118 234.278906 
L 136.519118 12.518906 
" clip-path="url(#p07d50e4d39)" style="fill: none; stroke: #cccccc; stroke-linecap: round"/>
     </g>
     <g id="text_3">
      <!-- 40 -->
      <g style="fill: #262626" transform="translate(127.611618 254.416719) scale(0.14 -0.14)">
       <defs>
        <path id="DejaVuSans-34" d="M 2419 4116 
L 825 1625 
L 2419 1625 
L 2419 4116 
z
M 2253 4666 
L 3047 4666 
L 3047 1625 
L 3713 1625 
L 3713 1100 
L 3047 1100 
L 3047 0 
L 2419 0 
L 2419 1100 
L 313 1100 
L 313 1709 
L 2253 4666 
z
" transform="scale(0.015625)"/>
       </defs>
       <use xlink:href="#DejaVuSans-34"/>
       <use xlink:href="#DejaVuSans-30" x="63.623047"/>
      </g>
     </g>
    </g>
    <g id="xtick_4">
     <g id="line2d_4">
      <path d="M 173.265529 234.278906 
L 173.265529 12.518906 
" clip-path="url(#p07d50e4d39)" style="fill: none; stroke: #cccccc; stroke-linecap: round"/>
     </g>
     <g id="text_4">
      <!-- 60 -->
      <g style="fill: #262626" transform="translate(164.358029 254.416719) scale(0.14 -0.14)">
       <defs>
        <path id="DejaVuSans-36" d="M 2113 2584 
Q 1688 2584 1439 2293 
Q 1191 2003 1191 1497 
Q 1191 994 1439 701 
Q 1688 409 2113 409 
Q 2538 409 2786 701 
Q 3034 994 3034 1497 
Q 3034 2003 2786 2293 
Q 2538 2584 2113 2584 
z
M 3366 4563 
L 3366 3988 
Q 3128 4100 2886 4159 
Q 2644 4219 2406 4219 
Q 1781 4219 1451 3797 
Q 1122 3375 1075 2522 
Q 1259 2794 1537 2939 
Q 1816 3084 2150 3084 
Q 2853 3084 3261 2657 
Q 3669 2231 3669 1497 
Q 3669 778 3244 343 
Q 2819 -91 2113 -91 
Q 1303 -91 875 529 
Q 447 1150 447 2328 
Q 447 3434 972 4092 
Q 1497 4750 2381 4750 
Q 2619 4750 2861 4703 
Q 3103 4656 3366 4563 
z
" transform="scale(0.015625)"/>
       </defs>
       <use xlink:href="#DejaVuSans-36"/>
       <use xlink:href="#DejaVuSans-30" x="63.623047"/>
      </g>
     </g>
    </g>
    <g id="xtick_5">
     <g id="line2d_5">
      <path d="M 210.011941 234.278906 
L 210.011941 12.518906 
" clip-path="url(#p07d50e4d39)" style="fill: none; stroke: #cccccc; stroke-linecap: round"/>
     </g>
     <g id="text_5">
      <!-- 80 -->
      <g style="fill: #262626" transform="translate(201.104441 254.416719) scale(0.14 -0.14)">
       <defs>
        <path id="DejaVuSans-38" d="M 2034 2216 
Q 1584 2216 1326 1975 
Q 1069 1734 1069 1313 
Q 1069 891 1326 650 
Q 1584 409 2034 409 
Q 2484 409 2743 651 
Q 3003 894 3003 1313 
Q 3003 1734 2745 1975 
Q 2488 2216 2034 2216 
z
M 1403 2484 
Q 997 2584 770 2862 
Q 544 3141 544 3541 
Q 544 4100 942 4425 
Q 1341 4750 2034 4750 
Q 2731 4750 3128 4425 
Q 3525 4100 3525 3541 
Q 3525 3141 3298 2862 
Q 3072 2584 2669 2484 
Q 3125 2378 3379 2068 
Q 3634 1759 3634 1313 
Q 3634 634 3220 271 
Q 2806 -91 2034 -91 
Q 1263 -91 848 271 
Q 434 634 434 1313 
Q 434 1759 690 2068 
Q 947 2378 1403 2484 
z
M 1172 3481 
Q 1172 3119 1398 2916 
Q 1625 2713 2034 2713 
Q 2441 2713 2670 2916 
Q 2900 3119 2900 3481 
Q 2900 3844 2670 4047 
Q 2441 4250 2034 4250 
Q 1625 4250 1398 4047 
Q 1172 3844 1172 3481 
z
" transform="scale(0.015625)"/>
       </defs>
       <use xlink:href="#DejaVuSans-38"/>
       <use xlink:href="#DejaVuSans-30" x="63.623047"/>
      </g>
     </g>
    </g>
    <g id="xtick_6">
     <g id="line2d_6">
      <path d="M 246.758352 234.278906 
L 246.758352 12.518906 
" clip-path="url(#p07d50e4d39)" style="fill: none; stroke: #cccccc; stroke-linecap: round"/>
     </g>
     <g id="text_6">
      <!-- 100 -->
      <g style="fill: #262626" transform="translate(233.397102 254.416719) scale(0.14 -0.14)">
       <defs>
        <path id="DejaVuSans-31" d="M 794 531 
L 1825 531 
L 1825 4091 
L 703 3866 
L 703 4441 
L 1819 4666 
L 2450 4666 
L 2450 531 
L 3481 531 
L 3481 0 
L 794 0 
L 794 531 
z
" transform="scale(0.015625)"/>
       </defs>
       <use xlink:href="#DejaVuSans-31"/>
       <use xlink:href="#DejaVuSans-30" x="63.623047"/>
       <use xlink:href="#DejaVuSans-30" x="127.246094"/>
      </g>
     </g>
    </g>
    <g id="text_7">
     <!--   -->
     <g style="fill: #262626" transform="translate(157.57875 270.446406) scale(0.12 -0.12)">
      <defs>
       <path id="DejaVuSans-20" transform="scale(0.015625)"/>
      </defs>
      <use xlink:href="#DejaVuSans-20"/>
     </g>
    </g>
   </g>
   <g id="matplotlib.axis_2">
    <g id="ytick_1">
     <g id="line2d_7">
      <path d="M 63.485625 234.278906 
L 255.485625 234.278906 
" clip-path="url(#p07d50e4d39)" style="fill: none; stroke: #cccccc; stroke-linecap: round"/>
     </g>
     <g id="text_8">
      <!-- 0.70 -->
      <g style="fill: #262626" transform="translate(22.81375 239.597812) scale(0.14 -0.14)">
       <defs>
        <path id="DejaVuSans-2e" d="M 684 794 
L 1344 794 
L 1344 0 
L 684 0 
L 684 794 
z
" transform="scale(0.015625)"/>
        <path id="DejaVuSans-37" d="M 525 4666 
L 3525 4666 
L 3525 4397 
L 1831 0 
L 1172 0 
L 2766 4134 
L 525 4134 
L 525 4666 
z
" transform="scale(0.015625)"/>
       </defs>
       <use xlink:href="#DejaVuSans-30"/>
       <use xlink:href="#DejaVuSans-2e" x="63.623047"/>
       <use xlink:href="#DejaVuSans-37" x="95.410156"/>
       <use xlink:href="#DejaVuSans-30" x="159.033203"/>
      </g>
     </g>
    </g>
    <g id="ytick_2">
     <g id="line2d_8">
      <path d="M 63.485625 197.318906 
L 255.485625 197.318906 
" clip-path="url(#p07d50e4d39)" style="fill: none; stroke: #cccccc; stroke-linecap: round"/>
     </g>
     <g id="text_9">
      <!-- 0.75 -->
      <g style="fill: #262626" transform="translate(22.81375 202.637812) scale(0.14 -0.14)">
       <use xlink:href="#DejaVuSans-30"/>
       <use xlink:href="#DejaVuSans-2e" x="63.623047"/>
       <use xlink:href="#DejaVuSans-37" x="95.410156"/>
       <use xlink:href="#DejaVuSans-35" x="159.033203"/>
      </g>
     </g>
    </g>
    <g id="ytick_3">
     <g id="line2d_9">
      <path d="M 63.485625 160.358906 
L 255.485625 160.358906 
" clip-path="url(#p07d50e4d39)" style="fill: none; stroke: #cccccc; stroke-linecap: round"/>
     </g>
     <g id="text_10">
      <!-- 0.80 -->
      <g style="fill: #262626" transform="translate(22.81375 165.677812) scale(0.14 -0.14)">
       <use xlink:href="#DejaVuSans-30"/>
       <use xlink:href="#DejaVuSans-2e" x="63.623047"/>
       <use xlink:href="#DejaVuSans-38" x="95.410156"/>
       <use xlink:href="#DejaVuSans-30" x="159.033203"/>
      </g>
     </g>
    </g>
    <g id="ytick_4">
     <g id="line2d_10">
      <path d="M 63.485625 123.398906 
L 255.485625 123.398906 
" clip-path="url(#p07d50e4d39)" style="fill: none; stroke: #cccccc; stroke-linecap: round"/>
     </g>
     <g id="text_11">
      <!-- 0.85 -->
      <g style="fill: #262626" transform="translate(22.81375 128.717812) scale(0.14 -0.14)">
       <use xlink:href="#DejaVuSans-30"/>
       <use xlink:href="#DejaVuSans-2e" x="63.623047"/>
       <use xlink:href="#DejaVuSans-38" x="95.410156"/>
       <use xlink:href="#DejaVuSans-35" x="159.033203"/>
      </g>
     </g>
    </g>
    <g id="ytick_5">
     <g id="line2d_11">
      <path d="M 63.485625 86.438906 
L 255.485625 86.438906 
" clip-path="url(#p07d50e4d39)" style="fill: none; stroke: #cccccc; stroke-linecap: round"/>
     </g>
     <g id="text_12">
      <!-- 0.90 -->
      <g style="fill: #262626" transform="translate(22.81375 91.757812) scale(0.14 -0.14)">
       <defs>
        <path id="DejaVuSans-39" d="M 703 97 
L 703 672 
Q 941 559 1184 500 
Q 1428 441 1663 441 
Q 2288 441 2617 861 
Q 2947 1281 2994 2138 
Q 2813 1869 2534 1725 
Q 2256 1581 1919 1581 
Q 1219 1581 811 2004 
Q 403 2428 403 3163 
Q 403 3881 828 4315 
Q 1253 4750 1959 4750 
Q 2769 4750 3195 4129 
Q 3622 3509 3622 2328 
Q 3622 1225 3098 567 
Q 2575 -91 1691 -91 
Q 1453 -91 1209 -44 
Q 966 3 703 97 
z
M 1959 2075 
Q 2384 2075 2632 2365 
Q 2881 2656 2881 3163 
Q 2881 3666 2632 3958 
Q 2384 4250 1959 4250 
Q 1534 4250 1286 3958 
Q 1038 3666 1038 3163 
Q 1038 2656 1286 2365 
Q 1534 2075 1959 2075 
z
" transform="scale(0.015625)"/>
       </defs>
       <use xlink:href="#DejaVuSans-30"/>
       <use xlink:href="#DejaVuSans-2e" x="63.623047"/>
       <use xlink:href="#DejaVuSans-39" x="95.410156"/>
       <use xlink:href="#DejaVuSans-30" x="159.033203"/>
      </g>
     </g>
    </g>
    <g id="ytick_6">
     <g id="line2d_12">
      <path d="M 63.485625 49.478906 
L 255.485625 49.478906 
" clip-path="url(#p07d50e4d39)" style="fill: none; stroke: #cccccc; stroke-linecap: round"/>
     </g>
     <g id="text_13">
      <!-- 0.95 -->
      <g style="fill: #262626" transform="translate(22.81375 54.797812) scale(0.14 -0.14)">
       <use xlink:href="#DejaVuSans-30"/>
       <use xlink:href="#DejaVuSans-2e" x="63.623047"/>
       <use xlink:href="#DejaVuSans-39" x="95.410156"/>
       <use xlink:href="#DejaVuSans-35" x="159.033203"/>
      </g>
     </g>
    </g>
    <g id="ytick_7">
     <g id="line2d_13">
      <path d="M 63.485625 12.518906 
L 255.485625 12.518906 
" clip-path="url(#p07d50e4d39)" style="fill: none; stroke: #cccccc; stroke-linecap: round"/>
     </g>
     <g id="text_14">
      <!-- 1.00 -->
      <g style="fill: #262626" transform="translate(22.81375 17.837812) scale(0.14 -0.14)">
       <use xlink:href="#DejaVuSans-31"/>
       <use xlink:href="#DejaVuSans-2e" x="63.623047"/>
       <use xlink:href="#DejaVuSans-30" x="95.410156"/>
       <use xlink:href="#DejaVuSans-30" x="159.033203"/>
      </g>
     </g>
    </g>
    <g id="text_15">
     <!-- R2 Score -->
     <g style="fill: #262626" transform="translate(16.318125 150.095156) rotate(-90) scale(0.12 -0.12)">
      <defs>
       <path id="DejaVuSans-52" d="M 2841 2188 
Q 3044 2119 3236 1894 
Q 3428 1669 3622 1275 
L 4263 0 
L 3584 0 
L 2988 1197 
Q 2756 1666 2539 1819 
Q 2322 1972 1947 1972 
L 1259 1972 
L 1259 0 
L 628 0 
L 628 4666 
L 2053 4666 
Q 2853 4666 3247 4331 
Q 3641 3997 3641 3322 
Q 3641 2881 3436 2590 
Q 3231 2300 2841 2188 
z
M 1259 4147 
L 1259 2491 
L 2053 2491 
Q 2509 2491 2742 2702 
Q 2975 2913 2975 3322 
Q 2975 3731 2742 3939 
Q 2509 4147 2053 4147 
L 1259 4147 
z
" transform="scale(0.015625)"/>
       <path id="DejaVuSans-53" d="M 3425 4513 
L 3425 3897 
Q 3066 4069 2747 4153 
Q 2428 4238 2131 4238 
Q 1616 4238 1336 4038 
Q 1056 3838 1056 3469 
Q 1056 3159 1242 3001 
Q 1428 2844 1947 2747 
L 2328 2669 
Q 3034 2534 3370 2195 
Q 3706 1856 3706 1288 
Q 3706 609 3251 259 
Q 2797 -91 1919 -91 
Q 1588 -91 1214 -16 
Q 841 59 441 206 
L 441 856 
Q 825 641 1194 531 
Q 1563 422 1919 422 
Q 2459 422 2753 634 
Q 3047 847 3047 1241 
Q 3047 1584 2836 1778 
Q 2625 1972 2144 2069 
L 1759 2144 
Q 1053 2284 737 2584 
Q 422 2884 422 3419 
Q 422 4038 858 4394 
Q 1294 4750 2059 4750 
Q 2388 4750 2728 4690 
Q 3069 4631 3425 4513 
z
" transform="scale(0.015625)"/>
       <path id="DejaVuSans-63" d="M 3122 3366 
L 3122 2828 
Q 2878 2963 2633 3030 
Q 2388 3097 2138 3097 
Q 1578 3097 1268 2742 
Q 959 2388 959 1747 
Q 959 1106 1268 751 
Q 1578 397 2138 397 
Q 2388 397 2633 464 
Q 2878 531 3122 666 
L 3122 134 
Q 2881 22 2623 -34 
Q 2366 -91 2075 -91 
Q 1284 -91 818 406 
Q 353 903 353 1747 
Q 353 2603 823 3093 
Q 1294 3584 2113 3584 
Q 2378 3584 2631 3529 
Q 2884 3475 3122 3366 
z
" transform="scale(0.015625)"/>
       <path id="DejaVuSans-6f" d="M 1959 3097 
Q 1497 3097 1228 2736 
Q 959 2375 959 1747 
Q 959 1119 1226 758 
Q 1494 397 1959 397 
Q 2419 397 2687 759 
Q 2956 1122 2956 1747 
Q 2956 2369 2687 2733 
Q 2419 3097 1959 3097 
z
M 1959 3584 
Q 2709 3584 3137 3096 
Q 3566 2609 3566 1747 
Q 3566 888 3137 398 
Q 2709 -91 1959 -91 
Q 1206 -91 779 398 
Q 353 888 353 1747 
Q 353 2609 779 3096 
Q 1206 3584 1959 3584 
z
" transform="scale(0.015625)"/>
       <path id="DejaVuSans-72" d="M 2631 2963 
Q 2534 3019 2420 3045 
Q 2306 3072 2169 3072 
Q 1681 3072 1420 2755 
Q 1159 2438 1159 1844 
L 1159 0 
L 581 0 
L 581 3500 
L 1159 3500 
L 1159 2956 
Q 1341 3275 1631 3429 
Q 1922 3584 2338 3584 
Q 2397 3584 2469 3576 
Q 2541 3569 2628 3553 
L 2631 2963 
z
" transform="scale(0.015625)"/>
       <path id="DejaVuSans-65" d="M 3597 1894 
L 3597 1613 
L 953 1613 
Q 991 1019 1311 708 
Q 1631 397 2203 397 
Q 2534 397 2845 478 
Q 3156 559 3463 722 
L 3463 178 
Q 3153 47 2828 -22 
Q 2503 -91 2169 -91 
Q 1331 -91 842 396 
Q 353 884 353 1716 
Q 353 2575 817 3079 
Q 1281 3584 2069 3584 
Q 2775 3584 3186 3129 
Q 3597 2675 3597 1894 
z
M 3022 2063 
Q 3016 2534 2758 2815 
Q 2500 3097 2075 3097 
Q 1594 3097 1305 2825 
Q 1016 2553 972 2059 
L 3022 2063 
z
" transform="scale(0.015625)"/>
      </defs>
      <use xlink:href="#DejaVuSans-52"/>
      <use xlink:href="#DejaVuSans-32" x="69.482422"/>
      <use xlink:href="#DejaVuSans-20" x="133.105469"/>
      <use xlink:href="#DejaVuSans-53" x="164.892578"/>
      <use xlink:href="#DejaVuSans-63" x="228.369141"/>
      <use xlink:href="#DejaVuSans-6f" x="283.349609"/>
      <use xlink:href="#DejaVuSans-72" x="344.53125"/>
      <use xlink:href="#DejaVuSans-65" x="383.394531"/>
     </g>
    </g>
   </g>
   <g id="PolyCollection_1">
    <defs>
     <path id="m4b35271e36" d="M 72.212898 -144.625873 
L 72.212898 -59.054235 
L 81.399501 -181.722712 
L 90.586103 -225.812189 
L 99.772706 -242.724886 
L 108.959309 -248.774685 
L 118.145912 -253.583752 
L 127.332515 -254.522008 
L 136.519118 -256.60813 
L 145.705721 -258.273245 
L 154.892324 -258.937329 
L 164.078926 -260.231734 
L 173.265529 -260.746465 
L 182.452132 -261.534878 
L 191.638735 -262.133009 
L 200.825338 -262.878224 
L 210.011941 -262.777636 
L 219.198544 -262.917874 
L 228.385147 -263.340133 
L 237.571749 -263.80787 
L 246.758352 -263.914305 
L 246.758352 -266.663591 
L 246.758352 -266.663591 
L 237.571749 -266.484883 
L 228.385147 -266.315901 
L 219.198544 -266.293378 
L 210.011941 -266.276315 
L 200.825338 -266.333073 
L 191.638735 -265.95441 
L 182.452132 -265.895563 
L 173.265529 -265.690374 
L 164.078926 -265.39979 
L 154.892324 -264.98975 
L 145.705721 -264.737795 
L 136.519118 -264.266642 
L 127.332515 -263.491029 
L 118.145912 -262.669826 
L 108.959309 -260.586681 
L 99.772706 -258.924174 
L 90.586103 -250.254355 
L 81.399501 -227.948447 
L 72.212898 -144.625873 
z
" style="stroke: #1f77b4; stroke-opacity: 0.2"/>
    </defs>
    <g clip-path="url(#p07d50e4d39)">
     <use xlink:href="#m4b35271e36" x="0" y="280.142031" style="fill: #1f77b4; fill-opacity: 0.2; stroke: #1f77b4; stroke-opacity: 0.2"/>
    </g>
   </g>
   <g id="PolyCollection_2">
    <defs>
     <path id="mf195f64d71" d="M 72.212898 -127.393478 
L 72.212898 -42.605421 
L 81.399501 -166.080422 
L 90.586103 -211.887777 
L 99.772706 -232.835271 
L 108.959309 -239.260779 
L 118.145912 -244.540221 
L 127.332515 -245.653403 
L 136.519118 -248.887347 
L 145.705721 -251.407049 
L 154.892324 -253.921904 
L 164.078926 -254.096649 
L 173.265529 -255.69829 
L 182.452132 -255.467264 
L 191.638735 -257.029547 
L 200.825338 -257.614406 
L 210.011941 -257.822843 
L 219.198544 -258.600529 
L 228.385147 -258.607293 
L 237.571749 -259.608912 
L 246.758352 -259.968263 
L 246.758352 -264.714672 
L 246.758352 -264.714672 
L 237.571749 -264.326479 
L 228.385147 -264.060802 
L 219.198544 -263.974478 
L 210.011941 -263.796934 
L 200.825338 -263.71215 
L 191.638735 -262.916563 
L 182.452132 -262.918611 
L 173.265529 -262.629515 
L 164.078926 -262.001675 
L 154.892324 -262.011588 
L 145.705721 -261.101864 
L 136.519118 -260.123189 
L 127.332515 -258.674949 
L 118.145912 -257.802453 
L 108.959309 -254.785471 
L 99.772706 -252.034132 
L 90.586103 -240.461466 
L 81.399501 -214.995618 
L 72.212898 -127.393478 
z
" style="stroke: #ff7f0e; stroke-opacity: 0.2"/>
    </defs>
    <g clip-path="url(#p07d50e4d39)">
     <use xlink:href="#mf195f64d71" x="0" y="280.142031" style="fill: #ff7f0e; fill-opacity: 0.2; stroke: #ff7f0e; stroke-opacity: 0.2"/>
    </g>
   </g>
   <g id="PolyCollection_3">
    <path d="M 72.212898 184.183374 
L 72.212898 325.372631 
L 81.399501 168.087162 
L 90.586103 83.925673 
L 99.772706 66.687864 
L 108.959309 55.484667 
L 118.145912 46.887496 
L 127.332515 44.23344 
L 136.519118 40.234728 
L 145.705721 37.131123 
L 154.892324 36.732992 
L 164.078926 35.729174 
L 173.265529 32.452711 
L 182.452132 30.648334 
L 191.638735 29.521834 
L 200.825338 28.30777 
L 210.011941 27.412673 
L 219.198544 29.454283 
L 228.385147 26.448131 
L 237.571749 26.338367 
L 246.758352 25.920726 
L 246.758352 18.110282 
L 246.758352 18.110282 
L 237.571749 18.743766 
L 228.385147 18.563158 
L 219.198544 19.614791 
L 210.011941 18.944049 
L 200.825338 19.740686 
L 191.638735 19.925 
L 182.452132 20.080775 
L 173.265529 20.721052 
L 164.078926 22.682006 
L 154.892324 23.36852 
L 145.705721 23.142463 
L 136.519118 25.362161 
L 127.332515 26.908552 
L 118.145912 27.305831 
L 108.959309 32.263438 
L 99.772706 37.820613 
L 90.586103 48.39829 
L 81.399501 79.877225 
L 72.212898 184.183374 
z
" clip-path="url(#p07d50e4d39)" style="fill: #2ca02c; fill-opacity: 0.2; stroke: #2ca02c; stroke-opacity: 0.2"/>
   </g>
   <g id="PolyCollection_4">
    <defs>
     <path id="m9240e00596" d="M 72.212898 -182.26068 
L 72.212898 -161.532917 
L 81.399501 -230.039479 
L 90.586103 -247.034155 
L 99.772706 -254.803165 
L 108.959309 -257.551665 
L 118.145912 -260.325205 
L 127.332515 -260.675666 
L 136.519118 -262.077823 
L 145.705721 -262.731951 
L 154.892324 -263.56091 
L 164.078926 -263.60978 
L 173.265529 -263.899174 
L 182.452132 -264.098615 
L 191.638735 -264.392263 
L 200.825338 -264.50754 
L 210.011941 -264.7261 
L 219.198544 -264.890693 
L 228.385147 -264.957818 
L 237.571749 -265.257937 
L 246.758352 -265.249762 
L 246.758352 -266.002827 
L 246.758352 -266.002827 
L 237.571749 -265.975398 
L 228.385147 -265.792601 
L 219.198544 -265.708376 
L 210.011941 -265.599082 
L 200.825338 -265.440076 
L 191.638735 -265.355507 
L 182.452132 -265.192154 
L 173.265529 -265.038628 
L 164.078926 -264.816441 
L 154.892324 -264.794588 
L 145.705721 -264.210546 
L 136.519118 -263.689997 
L 127.332515 -262.637216 
L 118.145912 -262.37398 
L 108.959309 -260.168498 
L 99.772706 -258.055563 
L 90.586103 -251.713631 
L 81.399501 -238.137953 
L 72.212898 -182.26068 
z
" style="stroke: #1f77b4; stroke-opacity: 0.2"/>
    </defs>
    <g clip-path="url(#p07d50e4d39)">
     <use xlink:href="#m9240e00596" x="0" y="280.142031" style="fill: #1f77b4; fill-opacity: 0.2; stroke: #1f77b4; stroke-opacity: 0.2"/>
    </g>
   </g>
   <g id="PolyCollection_5">
    <defs>
     <path id="m420f269b19" d="M 72.212898 -160.21956 
L 72.212898 -133.86573 
L 81.399501 -213.77829 
L 90.586103 -236.026086 
L 99.772706 -244.778683 
L 108.959309 -249.938831 
L 118.145912 -253.326691 
L 127.332515 -254.357218 
L 136.519118 -256.130031 
L 145.705721 -257.851681 
L 154.892324 -258.632258 
L 164.078926 -259.436101 
L 173.265529 -259.668548 
L 182.452132 -260.160142 
L 191.638735 -260.629192 
L 200.825338 -260.918856 
L 210.011941 -261.30252 
L 219.198544 -261.527672 
L 228.385147 -261.680296 
L 237.571749 -262.075072 
L 246.758352 -262.177426 
L 246.758352 -263.51453 
L 246.758352 -263.51453 
L 237.571749 -263.41136 
L 228.385147 -263.214385 
L 219.198544 -262.982956 
L 210.011941 -262.851597 
L 200.825338 -262.580478 
L 191.638735 -262.359281 
L 182.452132 -261.999128 
L 173.265529 -261.556229 
L 164.078926 -261.332316 
L 154.892324 -260.737122 
L 145.705721 -260.357072 
L 136.519118 -259.086665 
L 127.332515 -257.494492 
L 118.145912 -257.011647 
L 108.959309 -254.03114 
L 99.772706 -250.246903 
L 90.586103 -242.958802 
L 81.399501 -225.832901 
L 72.212898 -160.21956 
z
" style="stroke: #ff7f0e; stroke-opacity: 0.2"/>
    </defs>
    <g clip-path="url(#p07d50e4d39)">
     <use xlink:href="#m420f269b19" x="0" y="280.142031" style="fill: #ff7f0e; fill-opacity: 0.2; stroke: #ff7f0e; stroke-opacity: 0.2"/>
    </g>
   </g>
   <g id="PolyCollection_6">
    <defs>
     <path id="m4467925960" d="M 72.212898 -129.441091 
L 72.212898 -94.532286 
L 81.399501 -191.686625 
L 90.586103 -219.944216 
L 99.772706 -230.757441 
L 108.959309 -240.539955 
L 118.145912 -244.5879 
L 127.332515 -246.333067 
L 136.519118 -248.296233 
L 145.705721 -251.03852 
L 154.892324 -251.939201 
L 164.078926 -253.128355 
L 173.265529 -253.597828 
L 182.452132 -254.746461 
L 191.638735 -255.153046 
L 200.825338 -255.690524 
L 210.011941 -256.87372 
L 219.198544 -256.969555 
L 228.385147 -257.136685 
L 237.571749 -257.647368 
L 246.758352 -258.2632 
L 246.758352 -260.417363 
L 246.758352 -260.417363 
L 237.571749 -259.9366 
L 228.385147 -259.565463 
L 219.198544 -259.422918 
L 210.011941 -259.416983 
L 200.825338 -258.492586 
L 191.638735 -258.122888 
L 182.452132 -257.716566 
L 173.265529 -257.037166 
L 164.078926 -256.451549 
L 154.892324 -255.673282 
L 145.705721 -254.909156 
L 136.519118 -252.998601 
L 127.332515 -251.135994 
L 118.145912 -250.274697 
L 108.959309 -246.760655 
L 99.772706 -239.773908 
L 90.586103 -230.875507 
L 81.399501 -208.124599 
L 72.212898 -129.441091 
z
" style="stroke: #2ca02c; stroke-opacity: 0.2"/>
    </defs>
    <g clip-path="url(#p07d50e4d39)">
     <use xlink:href="#m4467925960" x="0" y="280.142031" style="fill: #2ca02c; fill-opacity: 0.2; stroke: #2ca02c; stroke-opacity: 0.2"/>
    </g>
   </g>
   <g id="line2d_14">
    <path d="M 72.212898 176.756866 
L 81.399501 72.758722 
L 90.586103 40.681404 
L 99.772706 28.827188 
L 108.959309 24.905338 
L 118.145912 21.679922 
L 127.332515 20.830724 
L 136.519118 19.371977 
L 145.705721 18.274502 
L 154.892324 17.681074 
L 164.078926 17.199267 
L 173.265529 16.580829 
L 182.452132 16.176811 
L 191.638735 15.851154 
L 200.825338 15.482833 
L 210.011941 15.339036 
L 219.198544 15.444571 
L 228.385147 15.094746 
L 237.571749 14.898829 
L 246.758352 14.758846 
" clip-path="url(#p07d50e4d39)" style="fill: none; stroke-dasharray: 7.4,3.2; stroke-dashoffset: 0; stroke: #1f77b4; stroke-width: 2"/>
   </g>
   <g id="line2d_15">
    <path d="M 72.212898 192.025419 
L 81.399501 88.57759 
L 90.586103 53.099299 
L 99.772706 37.052664 
L 108.959309 32.483585 
L 118.145912 28.271113 
L 127.332515 27.491468 
L 136.519118 25.36567 
L 145.705721 23.572035 
L 154.892324 21.795103 
L 164.078926 22.040385 
L 173.265529 20.640161 
L 182.452132 20.930087 
L 191.638735 19.87729 
L 200.825338 19.400477 
L 210.011941 19.078051 
L 219.198544 18.673118 
L 228.385147 18.650099 
L 237.571749 18.174694 
L 246.758352 17.659785 
" clip-path="url(#p07d50e4d39)" style="fill: none; stroke-dasharray: 7.4,3.2; stroke-dashoffset: 0; stroke: #ff7f0e; stroke-width: 2"/>
   </g>
   <g id="line2d_16">
    <path d="M 72.212898 251.599423 
L 81.399501 121.01693 
L 90.586103 64.955162 
L 99.772706 51.421292 
L 108.959309 43.526102 
L 118.145912 36.990467 
L 127.332515 35.042255 
L 136.519118 32.186757 
L 145.705721 30.394792 
L 154.892324 29.921527 
L 164.078926 29.271059 
L 173.265529 26.38764 
L 182.452132 25.29554 
L 191.638735 24.332845 
L 200.825338 24.015997 
L 210.011941 23.005092 
L 219.198544 24.349991 
L 228.385147 22.387445 
L 237.571749 22.398023 
L 246.758352 21.980934 
" clip-path="url(#p07d50e4d39)" style="fill: none; stroke-dasharray: 7.4,3.2; stroke-dashoffset: 0; stroke: #2ca02c; stroke-width: 2"/>
   </g>
   <g id="line2d_17"/>
   <g id="line2d_18"/>
   <g id="line2d_19"/>
   <g id="line2d_20">
    <path d="M 72.212898 107.591569 
L 81.399501 45.978965 
L 90.586103 30.792935 
L 99.772706 23.710999 
L 108.959309 21.282181 
L 118.145912 18.798927 
L 127.332515 18.426392 
L 136.519118 17.231957 
L 145.705721 16.646444 
L 154.892324 16.010206 
L 164.078926 15.91646 
L 173.265529 15.649855 
L 182.452132 15.478513 
L 191.638735 15.259902 
L 200.825338 15.150249 
L 210.011941 14.979638 
L 219.198544 14.826979 
L 228.385147 14.753201 
L 237.571749 14.521186 
L 246.758352 14.501461 
" clip-path="url(#p07d50e4d39)" style="fill: none; stroke: #1f77b4; stroke-width: 2; stroke-linecap: round"/>
   </g>
   <g id="line2d_21">
    <path d="M 72.212898 132.678509 
L 81.399501 60.231464 
L 90.586103 40.608975 
L 99.772706 32.366111 
L 108.959309 28.125485 
L 118.145912 24.934527 
L 127.332515 24.188732 
L 136.519118 22.500622 
L 145.705721 21.034548 
L 154.892324 20.438169 
L 164.078926 19.786817 
L 173.265529 19.488005 
L 182.452132 19.009303 
L 191.638735 18.615849 
L 200.825338 18.398505 
L 210.011941 18.072634 
L 219.198544 17.899049 
L 228.385147 17.680142 
L 237.571749 17.399666 
L 246.758352 17.259543 
" clip-path="url(#p07d50e4d39)" style="fill: none; stroke: #ff7f0e; stroke-width: 2; stroke-linecap: round"/>
   </g>
   <g id="line2d_22">
    <path d="M 72.212898 167.742586 
L 81.399501 80.265737 
L 90.586103 54.613685 
L 99.772706 44.712373 
L 108.959309 36.620188 
L 118.145912 32.89286 
L 127.332515 31.359679 
L 136.519118 29.437121 
L 145.705721 27.13455 
L 154.892324 26.329479 
L 164.078926 25.330836 
L 173.265529 24.70343 
L 182.452132 23.894729 
L 191.638735 23.561959 
L 200.825338 22.984358 
L 210.011941 22.036988 
L 219.198544 21.928222 
L 228.385147 21.748189 
L 237.571749 21.40194 
L 246.758352 20.792185 
" clip-path="url(#p07d50e4d39)" style="fill: none; stroke: #2ca02c; stroke-width: 2; stroke-linecap: round"/>
   </g>
   <g id="line2d_23"/>
   <g id="line2d_24"/>
   <g id="line2d_25"/>
   <g id="patch_3">
    <path d="M 63.485625 234.278906 
L 63.485625 12.518906 
" style="fill: none; stroke: #cccccc; stroke-width: 1.25; stroke-linejoin: miter; stroke-linecap: square"/>
   </g>
   <g id="patch_4">
    <path d="M 255.485625 234.278906 
L 255.485625 12.518906 
" style="fill: none; stroke: #cccccc; stroke-width: 1.25; stroke-linejoin: miter; stroke-linecap: square"/>
   </g>
   <g id="patch_5">
    <path d="M 63.485625 234.278906 
L 255.485625 234.278906 
" style="fill: none; stroke: #cccccc; stroke-width: 1.25; stroke-linejoin: miter; stroke-linecap: square"/>
   </g>
   <g id="patch_6">
    <path d="M 63.485625 12.518906 
L 255.485625 12.518906 
" style="fill: none; stroke: #cccccc; stroke-width: 1.25; stroke-linejoin: miter; stroke-linecap: square"/>
   </g>
   <g id="text_16">
    <!-- number of HF samples (d) -->
    <g style="fill: #262626" transform="translate(317.826406 267.542906) scale(0.14 -0.14)">
     <defs>
      <path id="DejaVuSans-6e" d="M 3513 2113 
L 3513 0 
L 2938 0 
L 2938 2094 
Q 2938 2591 2744 2837 
Q 2550 3084 2163 3084 
Q 1697 3084 1428 2787 
Q 1159 2491 1159 1978 
L 1159 0 
L 581 0 
L 581 3500 
L 1159 3500 
L 1159 2956 
Q 1366 3272 1645 3428 
Q 1925 3584 2291 3584 
Q 2894 3584 3203 3211 
Q 3513 2838 3513 2113 
z
" transform="scale(0.015625)"/>
      <path id="DejaVuSans-75" d="M 544 1381 
L 544 3500 
L 1119 3500 
L 1119 1403 
Q 1119 906 1312 657 
Q 1506 409 1894 409 
Q 2359 409 2629 706 
Q 2900 1003 2900 1516 
L 2900 3500 
L 3475 3500 
L 3475 0 
L 2900 0 
L 2900 538 
Q 2691 219 2414 64 
Q 2138 -91 1772 -91 
Q 1169 -91 856 284 
Q 544 659 544 1381 
z
M 1991 3584 
L 1991 3584 
z
" transform="scale(0.015625)"/>
      <path id="DejaVuSans-6d" d="M 3328 2828 
Q 3544 3216 3844 3400 
Q 4144 3584 4550 3584 
Q 5097 3584 5394 3201 
Q 5691 2819 5691 2113 
L 5691 0 
L 5113 0 
L 5113 2094 
Q 5113 2597 4934 2840 
Q 4756 3084 4391 3084 
Q 3944 3084 3684 2787 
Q 3425 2491 3425 1978 
L 3425 0 
L 2847 0 
L 2847 2094 
Q 2847 2600 2669 2842 
Q 2491 3084 2119 3084 
Q 1678 3084 1418 2786 
Q 1159 2488 1159 1978 
L 1159 0 
L 581 0 
L 581 3500 
L 1159 3500 
L 1159 2956 
Q 1356 3278 1631 3431 
Q 1906 3584 2284 3584 
Q 2666 3584 2933 3390 
Q 3200 3197 3328 2828 
z
" transform="scale(0.015625)"/>
      <path id="DejaVuSans-62" d="M 3116 1747 
Q 3116 2381 2855 2742 
Q 2594 3103 2138 3103 
Q 1681 3103 1420 2742 
Q 1159 2381 1159 1747 
Q 1159 1113 1420 752 
Q 1681 391 2138 391 
Q 2594 391 2855 752 
Q 3116 1113 3116 1747 
z
M 1159 2969 
Q 1341 3281 1617 3432 
Q 1894 3584 2278 3584 
Q 2916 3584 3314 3078 
Q 3713 2572 3713 1747 
Q 3713 922 3314 415 
Q 2916 -91 2278 -91 
Q 1894 -91 1617 61 
Q 1341 213 1159 525 
L 1159 0 
L 581 0 
L 581 4863 
L 1159 4863 
L 1159 2969 
z
" transform="scale(0.015625)"/>
      <path id="DejaVuSans-66" d="M 2375 4863 
L 2375 4384 
L 1825 4384 
Q 1516 4384 1395 4259 
Q 1275 4134 1275 3809 
L 1275 3500 
L 2222 3500 
L 2222 3053 
L 1275 3053 
L 1275 0 
L 697 0 
L 697 3053 
L 147 3053 
L 147 3500 
L 697 3500 
L 697 3744 
Q 697 4328 969 4595 
Q 1241 4863 1831 4863 
L 2375 4863 
z
" transform="scale(0.015625)"/>
      <path id="DejaVuSans-48" d="M 628 4666 
L 1259 4666 
L 1259 2753 
L 3553 2753 
L 3553 4666 
L 4184 4666 
L 4184 0 
L 3553 0 
L 3553 2222 
L 1259 2222 
L 1259 0 
L 628 0 
L 628 4666 
z
" transform="scale(0.015625)"/>
      <path id="DejaVuSans-46" d="M 628 4666 
L 3309 4666 
L 3309 4134 
L 1259 4134 
L 1259 2759 
L 3109 2759 
L 3109 2228 
L 1259 2228 
L 1259 0 
L 628 0 
L 628 4666 
z
" transform="scale(0.015625)"/>
      <path id="DejaVuSans-73" d="M 2834 3397 
L 2834 2853 
Q 2591 2978 2328 3040 
Q 2066 3103 1784 3103 
Q 1356 3103 1142 2972 
Q 928 2841 928 2578 
Q 928 2378 1081 2264 
Q 1234 2150 1697 2047 
L 1894 2003 
Q 2506 1872 2764 1633 
Q 3022 1394 3022 966 
Q 3022 478 2636 193 
Q 2250 -91 1575 -91 
Q 1294 -91 989 -36 
Q 684 19 347 128 
L 347 722 
Q 666 556 975 473 
Q 1284 391 1588 391 
Q 1994 391 2212 530 
Q 2431 669 2431 922 
Q 2431 1156 2273 1281 
Q 2116 1406 1581 1522 
L 1381 1569 
Q 847 1681 609 1914 
Q 372 2147 372 2553 
Q 372 3047 722 3315 
Q 1072 3584 1716 3584 
Q 2034 3584 2315 3537 
Q 2597 3491 2834 3397 
z
" transform="scale(0.015625)"/>
      <path id="DejaVuSans-61" d="M 2194 1759 
Q 1497 1759 1228 1600 
Q 959 1441 959 1056 
Q 959 750 1161 570 
Q 1363 391 1709 391 
Q 2188 391 2477 730 
Q 2766 1069 2766 1631 
L 2766 1759 
L 2194 1759 
z
M 3341 1997 
L 3341 0 
L 2766 0 
L 2766 531 
Q 2569 213 2275 61 
Q 1981 -91 1556 -91 
Q 1019 -91 701 211 
Q 384 513 384 1019 
Q 384 1609 779 1909 
Q 1175 2209 1959 2209 
L 2766 2209 
L 2766 2266 
Q 2766 2663 2505 2880 
Q 2244 3097 1772 3097 
Q 1472 3097 1187 3025 
Q 903 2953 641 2809 
L 641 3341 
Q 956 3463 1253 3523 
Q 1550 3584 1831 3584 
Q 2591 3584 2966 3190 
Q 3341 2797 3341 1997 
z
" transform="scale(0.015625)"/>
      <path id="DejaVuSans-70" d="M 1159 525 
L 1159 -1331 
L 581 -1331 
L 581 3500 
L 1159 3500 
L 1159 2969 
Q 1341 3281 1617 3432 
Q 1894 3584 2278 3584 
Q 2916 3584 3314 3078 
Q 3713 2572 3713 1747 
Q 3713 922 3314 415 
Q 2916 -91 2278 -91 
Q 1894 -91 1617 61 
Q 1341 213 1159 525 
z
M 3116 1747 
Q 3116 2381 2855 2742 
Q 2594 3103 2138 3103 
Q 1681 3103 1420 2742 
Q 1159 2381 1159 1747 
Q 1159 1113 1420 752 
Q 1681 391 2138 391 
Q 2594 391 2855 752 
Q 3116 1113 3116 1747 
z
" transform="scale(0.015625)"/>
      <path id="DejaVuSans-6c" d="M 603 4863 
L 1178 4863 
L 1178 0 
L 603 0 
L 603 4863 
z
" transform="scale(0.015625)"/>
      <path id="DejaVuSans-28" d="M 1984 4856 
Q 1566 4138 1362 3434 
Q 1159 2731 1159 2009 
Q 1159 1288 1364 580 
Q 1569 -128 1984 -844 
L 1484 -844 
Q 1016 -109 783 600 
Q 550 1309 550 2009 
Q 550 2706 781 3412 
Q 1013 4119 1484 4856 
L 1984 4856 
z
" transform="scale(0.015625)"/>
      <path id="DejaVuSans-64" d="M 2906 2969 
L 2906 4863 
L 3481 4863 
L 3481 0 
L 2906 0 
L 2906 525 
Q 2725 213 2448 61 
Q 2172 -91 1784 -91 
Q 1150 -91 751 415 
Q 353 922 353 1747 
Q 353 2572 751 3078 
Q 1150 3584 1784 3584 
Q 2172 3584 2448 3432 
Q 2725 3281 2906 2969 
z
M 947 1747 
Q 947 1113 1208 752 
Q 1469 391 1925 391 
Q 2381 391 2643 752 
Q 2906 1113 2906 1747 
Q 2906 2381 2643 2742 
Q 2381 3103 1925 3103 
Q 1469 3103 1208 2742 
Q 947 2381 947 1747 
z
" transform="scale(0.015625)"/>
      <path id="DejaVuSans-29" d="M 513 4856 
L 1013 4856 
Q 1481 4119 1714 3412 
Q 1947 2706 1947 2009 
Q 1947 1309 1714 600 
Q 1481 -109 1013 -844 
L 513 -844 
Q 928 -128 1133 580 
Q 1338 1288 1338 2009 
Q 1338 2731 1133 3434 
Q 928 4138 513 4856 
z
" transform="scale(0.015625)"/>
     </defs>
     <use xlink:href="#DejaVuSans-6e"/>
     <use xlink:href="#DejaVuSans-75" x="63.378906"/>
     <use xlink:href="#DejaVuSans-6d" x="126.757812"/>
     <use xlink:href="#DejaVuSans-62" x="224.169922"/>
     <use xlink:href="#DejaVuSans-65" x="287.646484"/>
     <use xlink:href="#DejaVuSans-72" x="349.169922"/>
     <use xlink:href="#DejaVuSans-20" x="390.283203"/>
     <use xlink:href="#DejaVuSans-6f" x="422.070312"/>
     <use xlink:href="#DejaVuSans-66" x="483.251953"/>
     <use xlink:href="#DejaVuSans-20" x="518.457031"/>
     <use xlink:href="#DejaVuSans-48" x="550.244141"/>
     <use xlink:href="#DejaVuSans-46" x="625.439453"/>
     <use xlink:href="#DejaVuSans-20" x="682.958984"/>
     <use xlink:href="#DejaVuSans-73" x="714.746094"/>
     <use xlink:href="#DejaVuSans-61" x="766.845703"/>
     <use xlink:href="#DejaVuSans-6d" x="828.125"/>
     <use xlink:href="#DejaVuSans-70" x="925.537109"/>
     <use xlink:href="#DejaVuSans-6c" x="989.013672"/>
     <use xlink:href="#DejaVuSans-65" x="1016.796875"/>
     <use xlink:href="#DejaVuSans-73" x="1078.320312"/>
     <use xlink:href="#DejaVuSans-20" x="1130.419922"/>
     <use xlink:href="#DejaVuSans-28" x="1162.207031"/>
     <use xlink:href="#DejaVuSans-64" x="1201.220703"/>
     <use xlink:href="#DejaVuSans-29" x="1264.697266"/>
    </g>
   </g>
   <g id="legend_1">
    <g id="patch_7">
     <path d="M 186.895625 228.778906 
L 247.785625 228.778906 
Q 249.985625 228.778906 249.985625 226.578906 
L 249.985625 113.355781 
Q 249.985625 111.155781 247.785625 111.155781 
L 186.895625 111.155781 
Q 184.695625 111.155781 184.695625 113.355781 
L 184.695625 226.578906 
Q 184.695625 228.778906 186.895625 228.778906 
z
" style="fill: #ffffff; opacity: 0.8; stroke: #cccccc; stroke-linejoin: miter"/>
    </g>
    <g id="text_17">
     <!-- noise_std -->
     <g style="fill: #262626" transform="translate(189.095625 124.673906) scale(0.12 -0.12)">
      <defs>
       <path id="DejaVuSans-69" d="M 603 3500 
L 1178 3500 
L 1178 0 
L 603 0 
L 603 3500 
z
M 603 4863 
L 1178 4863 
L 1178 4134 
L 603 4134 
L 603 4863 
z
" transform="scale(0.015625)"/>
       <path id="DejaVuSans-5f" d="M 3263 -1063 
L 3263 -1509 
L -63 -1509 
L -63 -1063 
L 3263 -1063 
z
" transform="scale(0.015625)"/>
       <path id="DejaVuSans-74" d="M 1172 4494 
L 1172 3500 
L 2356 3500 
L 2356 3053 
L 1172 3053 
L 1172 1153 
Q 1172 725 1289 603 
Q 1406 481 1766 481 
L 2356 481 
L 2356 0 
L 1766 0 
Q 1100 0 847 248 
Q 594 497 594 1153 
L 594 3053 
L 172 3053 
L 172 3500 
L 594 3500 
L 594 4494 
L 1172 4494 
z
" transform="scale(0.015625)"/>
      </defs>
      <use xlink:href="#DejaVuSans-6e"/>
      <use xlink:href="#DejaVuSans-6f" x="63.378906"/>
      <use xlink:href="#DejaVuSans-69" x="124.560547"/>
      <use xlink:href="#DejaVuSans-73" x="152.34375"/>
      <use xlink:href="#DejaVuSans-65" x="204.443359"/>
      <use xlink:href="#DejaVuSans-5f" x="265.966797"/>
      <use xlink:href="#DejaVuSans-73" x="315.966797"/>
      <use xlink:href="#DejaVuSans-74" x="368.066406"/>
      <use xlink:href="#DejaVuSans-64" x="407.275391"/>
     </g>
    </g>
    <g id="line2d_26">
     <path d="M 193.193906 137.511562 
L 204.193906 137.511562 
L 215.193906 137.511562 
" style="fill: none; stroke-dasharray: 7.4,3.2; stroke-dashoffset: 0; stroke: #1f77b4; stroke-width: 2"/>
    </g>
    <g id="text_18">
     <!-- 0.1 -->
     <g style="fill: #262626" transform="translate(223.993906 141.361562) scale(0.11 -0.11)">
      <use xlink:href="#DejaVuSans-30"/>
      <use xlink:href="#DejaVuSans-2e" x="63.623047"/>
      <use xlink:href="#DejaVuSans-31" x="95.410156"/>
     </g>
    </g>
    <g id="line2d_27">
     <path d="M 193.193906 153.6575 
L 204.193906 153.6575 
L 215.193906 153.6575 
" style="fill: none; stroke-dasharray: 7.4,3.2; stroke-dashoffset: 0; stroke: #ff7f0e; stroke-width: 2"/>
    </g>
    <g id="text_19">
     <!-- 0.3 -->
     <g style="fill: #262626" transform="translate(223.993906 157.5075) scale(0.11 -0.11)">
      <defs>
       <path id="DejaVuSans-33" d="M 2597 2516 
Q 3050 2419 3304 2112 
Q 3559 1806 3559 1356 
Q 3559 666 3084 287 
Q 2609 -91 1734 -91 
Q 1441 -91 1130 -33 
Q 819 25 488 141 
L 488 750 
Q 750 597 1062 519 
Q 1375 441 1716 441 
Q 2309 441 2620 675 
Q 2931 909 2931 1356 
Q 2931 1769 2642 2001 
Q 2353 2234 1838 2234 
L 1294 2234 
L 1294 2753 
L 1863 2753 
Q 2328 2753 2575 2939 
Q 2822 3125 2822 3475 
Q 2822 3834 2567 4026 
Q 2313 4219 1838 4219 
Q 1578 4219 1281 4162 
Q 984 4106 628 3988 
L 628 4550 
Q 988 4650 1302 4700 
Q 1616 4750 1894 4750 
Q 2613 4750 3031 4423 
Q 3450 4097 3450 3541 
Q 3450 3153 3228 2886 
Q 3006 2619 2597 2516 
z
" transform="scale(0.015625)"/>
      </defs>
      <use xlink:href="#DejaVuSans-30"/>
      <use xlink:href="#DejaVuSans-2e" x="63.623047"/>
      <use xlink:href="#DejaVuSans-33" x="95.410156"/>
     </g>
    </g>
    <g id="line2d_28">
     <path d="M 193.193906 169.803438 
L 204.193906 169.803438 
L 215.193906 169.803438 
" style="fill: none; stroke-dasharray: 7.4,3.2; stroke-dashoffset: 0; stroke: #2ca02c; stroke-width: 2"/>
    </g>
    <g id="text_20">
     <!-- 0.5 -->
     <g style="fill: #262626" transform="translate(223.993906 173.653437) scale(0.11 -0.11)">
      <use xlink:href="#DejaVuSans-30"/>
      <use xlink:href="#DejaVuSans-2e" x="63.623047"/>
      <use xlink:href="#DejaVuSans-35" x="95.410156"/>
     </g>
    </g>
    <g id="line2d_29">
     <path d="M 193.193906 185.949375 
L 204.193906 185.949375 
L 215.193906 185.949375 
" style="fill: none; stroke: #1f77b4; stroke-width: 2; stroke-linecap: round"/>
    </g>
    <g id="text_21">
     <!-- 0.1 -->
     <g style="fill: #262626" transform="translate(223.993906 189.799375) scale(0.11 -0.11)">
      <use xlink:href="#DejaVuSans-30"/>
      <use xlink:href="#DejaVuSans-2e" x="63.623047"/>
      <use xlink:href="#DejaVuSans-31" x="95.410156"/>
     </g>
    </g>
    <g id="line2d_30">
     <path d="M 193.193906 202.095313 
L 204.193906 202.095313 
L 215.193906 202.095313 
" style="fill: none; stroke: #ff7f0e; stroke-width: 2; stroke-linecap: round"/>
    </g>
    <g id="text_22">
     <!-- 0.3 -->
     <g style="fill: #262626" transform="translate(223.993906 205.945312) scale(0.11 -0.11)">
      <use xlink:href="#DejaVuSans-30"/>
      <use xlink:href="#DejaVuSans-2e" x="63.623047"/>
      <use xlink:href="#DejaVuSans-33" x="95.410156"/>
     </g>
    </g>
    <g id="line2d_31">
     <path d="M 193.193906 218.24125 
L 204.193906 218.24125 
L 215.193906 218.24125 
" style="fill: none; stroke: #2ca02c; stroke-width: 2; stroke-linecap: round"/>
    </g>
    <g id="text_23">
     <!-- 0.5 -->
     <g style="fill: #262626" transform="translate(223.993906 222.09125) scale(0.11 -0.11)">
      <use xlink:href="#DejaVuSans-30"/>
      <use xlink:href="#DejaVuSans-2e" x="63.623047"/>
      <use xlink:href="#DejaVuSans-35" x="95.410156"/>
     </g>
    </g>
   </g>
  </g>
  <g id="axes_2">
   <g id="patch_8">
    <path d="M 313.085625 234.278906 
L 505.085625 234.278906 
L 505.085625 12.518906 
L 313.085625 12.518906 
z
" style="fill: #ffffff"/>
   </g>
   <g id="matplotlib.axis_3">
    <g id="xtick_7">
     <g id="line2d_32">
      <path d="M 321.812898 234.278906 
L 321.812898 12.518906 
" clip-path="url(#pa4cb91eebe)" style="fill: none; stroke: #cccccc; stroke-linecap: round"/>
     </g>
     <g id="text_24">
      <!-- 5 -->
      <g style="fill: #262626" transform="translate(317.359148 254.416719) scale(0.14 -0.14)">
       <use xlink:href="#DejaVuSans-35"/>
      </g>
     </g>
    </g>
    <g id="xtick_8">
     <g id="line2d_33">
      <path d="M 349.372706 234.278906 
L 349.372706 12.518906 
" clip-path="url(#pa4cb91eebe)" style="fill: none; stroke: #cccccc; stroke-linecap: round"/>
     </g>
     <g id="text_25">
      <!-- 20 -->
      <g style="fill: #262626" transform="translate(340.465206 254.416719) scale(0.14 -0.14)">
       <use xlink:href="#DejaVuSans-32"/>
       <use xlink:href="#DejaVuSans-30" x="63.623047"/>
      </g>
     </g>
    </g>
    <g id="xtick_9">
     <g id="line2d_34">
      <path d="M 386.119118 234.278906 
L 386.119118 12.518906 
" clip-path="url(#pa4cb91eebe)" style="fill: none; stroke: #cccccc; stroke-linecap: round"/>
     </g>
     <g id="text_26">
      <!-- 40 -->
      <g style="fill: #262626" transform="translate(377.211618 254.416719) scale(0.14 -0.14)">
       <use xlink:href="#DejaVuSans-34"/>
       <use xlink:href="#DejaVuSans-30" x="63.623047"/>
      </g>
     </g>
    </g>
    <g id="xtick_10">
     <g id="line2d_35">
      <path d="M 422.865529 234.278906 
L 422.865529 12.518906 
" clip-path="url(#pa4cb91eebe)" style="fill: none; stroke: #cccccc; stroke-linecap: round"/>
     </g>
     <g id="text_27">
      <!-- 60 -->
      <g style="fill: #262626" transform="translate(413.958029 254.416719) scale(0.14 -0.14)">
       <use xlink:href="#DejaVuSans-36"/>
       <use xlink:href="#DejaVuSans-30" x="63.623047"/>
      </g>
     </g>
    </g>
    <g id="xtick_11">
     <g id="line2d_36">
      <path d="M 459.611941 234.278906 
L 459.611941 12.518906 
" clip-path="url(#pa4cb91eebe)" style="fill: none; stroke: #cccccc; stroke-linecap: round"/>
     </g>
     <g id="text_28">
      <!-- 80 -->
      <g style="fill: #262626" transform="translate(450.704441 254.416719) scale(0.14 -0.14)">
       <use xlink:href="#DejaVuSans-38"/>
       <use xlink:href="#DejaVuSans-30" x="63.623047"/>
      </g>
     </g>
    </g>
    <g id="xtick_12">
     <g id="line2d_37">
      <path d="M 496.358352 234.278906 
L 496.358352 12.518906 
" clip-path="url(#pa4cb91eebe)" style="fill: none; stroke: #cccccc; stroke-linecap: round"/>
     </g>
     <g id="text_29">
      <!-- 100 -->
      <g style="fill: #262626" transform="translate(482.997102 254.416719) scale(0.14 -0.14)">
       <use xlink:href="#DejaVuSans-31"/>
       <use xlink:href="#DejaVuSans-30" x="63.623047"/>
       <use xlink:href="#DejaVuSans-30" x="127.246094"/>
      </g>
     </g>
    </g>
    <g id="text_30">
     <!--   -->
     <g style="fill: #262626" transform="translate(407.17875 270.446406) scale(0.12 -0.12)">
      <use xlink:href="#DejaVuSans-20"/>
     </g>
    </g>
   </g>
   <g id="matplotlib.axis_4">
    <g id="ytick_8">
     <g id="line2d_38">
      <path d="M 313.085625 234.278906 
L 505.085625 234.278906 
" clip-path="url(#pa4cb91eebe)" style="fill: none; stroke: #cccccc; stroke-linecap: round"/>
     </g>
     <g id="text_31">
      <!-- 0.0 -->
      <g style="fill: #262626" transform="translate(281.32125 239.597813) scale(0.14 -0.14)">
       <use xlink:href="#DejaVuSans-30"/>
       <use xlink:href="#DejaVuSans-2e" x="63.623047"/>
       <use xlink:href="#DejaVuSans-30" x="95.410156"/>
      </g>
     </g>
    </g>
    <g id="ytick_9">
     <g id="line2d_39">
      <path d="M 313.085625 189.926906 
L 505.085625 189.926906 
" clip-path="url(#pa4cb91eebe)" style="fill: none; stroke: #cccccc; stroke-linecap: round"/>
     </g>
     <g id="text_32">
      <!-- 0.2 -->
      <g style="fill: #262626" transform="translate(281.32125 195.245812) scale(0.14 -0.14)">
       <use xlink:href="#DejaVuSans-30"/>
       <use xlink:href="#DejaVuSans-2e" x="63.623047"/>
       <use xlink:href="#DejaVuSans-32" x="95.410156"/>
      </g>
     </g>
    </g>
    <g id="ytick_10">
     <g id="line2d_40">
      <path d="M 313.085625 145.574906 
L 505.085625 145.574906 
" clip-path="url(#pa4cb91eebe)" style="fill: none; stroke: #cccccc; stroke-linecap: round"/>
     </g>
     <g id="text_33">
      <!-- 0.4 -->
      <g style="fill: #262626" transform="translate(281.32125 150.893812) scale(0.14 -0.14)">
       <use xlink:href="#DejaVuSans-30"/>
       <use xlink:href="#DejaVuSans-2e" x="63.623047"/>
       <use xlink:href="#DejaVuSans-34" x="95.410156"/>
      </g>
     </g>
    </g>
    <g id="ytick_11">
     <g id="line2d_41">
      <path d="M 313.085625 101.222906 
L 505.085625 101.222906 
" clip-path="url(#pa4cb91eebe)" style="fill: none; stroke: #cccccc; stroke-linecap: round"/>
     </g>
     <g id="text_34">
      <!-- 0.6 -->
      <g style="fill: #262626" transform="translate(281.32125 106.541812) scale(0.14 -0.14)">
       <use xlink:href="#DejaVuSans-30"/>
       <use xlink:href="#DejaVuSans-2e" x="63.623047"/>
       <use xlink:href="#DejaVuSans-36" x="95.410156"/>
      </g>
     </g>
    </g>
    <g id="ytick_12">
     <g id="line2d_42">
      <path d="M 313.085625 56.870906 
L 505.085625 56.870906 
" clip-path="url(#pa4cb91eebe)" style="fill: none; stroke: #cccccc; stroke-linecap: round"/>
     </g>
     <g id="text_35">
      <!-- 0.8 -->
      <g style="fill: #262626" transform="translate(281.32125 62.189812) scale(0.14 -0.14)">
       <use xlink:href="#DejaVuSans-30"/>
       <use xlink:href="#DejaVuSans-2e" x="63.623047"/>
       <use xlink:href="#DejaVuSans-38" x="95.410156"/>
      </g>
     </g>
    </g>
    <g id="ytick_13">
     <g id="line2d_43">
      <path d="M 313.085625 12.518906 
L 505.085625 12.518906 
" clip-path="url(#pa4cb91eebe)" style="fill: none; stroke: #cccccc; stroke-linecap: round"/>
     </g>
     <g id="text_36">
      <!-- 1.0 -->
      <g style="fill: #262626" transform="translate(281.32125 17.837812) scale(0.14 -0.14)">
       <use xlink:href="#DejaVuSans-31"/>
       <use xlink:href="#DejaVuSans-2e" x="63.623047"/>
       <use xlink:href="#DejaVuSans-30" x="95.410156"/>
      </g>
     </g>
    </g>
    <g id="text_37">
     <!-- absolute noise error -->
     <g style="fill: #262626" transform="translate(274.825625 183.489844) rotate(-90) scale(0.12 -0.12)">
      <use xlink:href="#DejaVuSans-61"/>
      <use xlink:href="#DejaVuSans-62" x="61.279297"/>
      <use xlink:href="#DejaVuSans-73" x="124.755859"/>
      <use xlink:href="#DejaVuSans-6f" x="176.855469"/>
      <use xlink:href="#DejaVuSans-6c" x="238.037109"/>
      <use xlink:href="#DejaVuSans-75" x="265.820312"/>
      <use xlink:href="#DejaVuSans-74" x="329.199219"/>
      <use xlink:href="#DejaVuSans-65" x="368.408203"/>
      <use xlink:href="#DejaVuSans-20" x="429.931641"/>
      <use xlink:href="#DejaVuSans-6e" x="461.71875"/>
      <use xlink:href="#DejaVuSans-6f" x="525.097656"/>
      <use xlink:href="#DejaVuSans-69" x="586.279297"/>
      <use xlink:href="#DejaVuSans-73" x="614.0625"/>
      <use xlink:href="#DejaVuSans-65" x="666.162109"/>
      <use xlink:href="#DejaVuSans-20" x="727.685547"/>
      <use xlink:href="#DejaVuSans-65" x="759.472656"/>
      <use xlink:href="#DejaVuSans-72" x="820.996094"/>
      <use xlink:href="#DejaVuSans-72" x="860.359375"/>
      <use xlink:href="#DejaVuSans-6f" x="899.222656"/>
      <use xlink:href="#DejaVuSans-72" x="960.404297"/>
     </g>
    </g>
   </g>
   <g id="PolyCollection_7">
    <path d="M 321.812898 -1250.307583 
L 321.812898 80.976794 
L 330.999501 188.079062 
L 340.186103 196.948628 
L 349.372706 212.173005 
L 358.559309 215.764289 
L 367.745912 214.495313 
L 376.932515 218.435935 
L 386.119118 219.303223 
L 395.305721 221.162206 
L 404.492324 227.259167 
L 413.678926 227.745338 
L 422.865529 228.296466 
L 432.052132 228.645616 
L 441.238735 229.441772 
L 450.425338 228.535658 
L 459.611941 227.458712 
L 468.798544 229.716742 
L 477.985147 229.30513 
L 487.171749 230.29899 
L 496.358352 229.698206 
L 496.358352 220.611813 
L 496.358352 220.611813 
L 487.171749 220.159206 
L 477.985147 219.71991 
L 468.798544 220.150886 
L 459.611941 213.154094 
L 450.425338 216.386851 
L 441.238735 219.307508 
L 432.052132 219.168591 
L 422.865529 218.053178 
L 413.678926 215.236039 
L 404.492324 213.844429 
L 395.305721 202.609685 
L 386.119118 200.242881 
L 376.932515 197.989963 
L 367.745912 178.553262 
L 358.559309 192.328323 
L 349.372706 104.27754 
L 340.186103 94.813914 
L 330.999501 -10.74287 
L 321.812898 -1250.307583 
z
" clip-path="url(#pa4cb91eebe)" style="fill: #1f77b4; fill-opacity: 0.2; stroke: #1f77b4; stroke-opacity: 0.2"/>
   </g>
   <g id="PolyCollection_8">
    <path d="M 321.812898 -1139.215379 
L 321.812898 41.455167 
L 330.999501 176.199979 
L 340.186103 193.909195 
L 349.372706 211.566108 
L 358.559309 216.418803 
L 367.745912 217.819504 
L 376.932515 218.01767 
L 386.119118 219.410119 
L 395.305721 222.838947 
L 404.492324 223.107709 
L 413.678926 224.181302 
L 422.865529 223.552961 
L 432.052132 225.997789 
L 441.238735 226.538818 
L 450.425338 225.922869 
L 459.611941 226.315407 
L 468.798544 227.909328 
L 477.985147 228.051458 
L 487.171749 228.466257 
L 496.358352 229.070116 
L 496.358352 222.711252 
L 496.358352 222.711252 
L 487.171749 220.837979 
L 477.985147 219.111348 
L 468.798544 220.802975 
L 459.611941 215.346072 
L 450.425338 214.364552 
L 441.238735 216.174134 
L 432.052132 214.402759 
L 422.865529 211.309626 
L 413.678926 210.892883 
L 404.492324 210.401469 
L 395.305721 210.550114 
L 386.119118 206.192877 
L 376.932515 200.345629 
L 367.745912 184.555119 
L 358.559309 201.107577 
L 349.372706 107.882224 
L 340.186103 99.058638 
L 330.999501 -12.852367 
L 321.812898 -1139.215379 
z
" clip-path="url(#pa4cb91eebe)" style="fill: #ff7f0e; fill-opacity: 0.2; stroke: #ff7f0e; stroke-opacity: 0.2"/>
   </g>
   <g id="PolyCollection_9">
    <path d="M 321.812898 -1126.260386 
L 321.812898 8.442221 
L 330.999501 165.880621 
L 340.186103 191.052212 
L 349.372706 210.025886 
L 358.559309 215.589041 
L 367.745912 215.624332 
L 376.932515 217.468481 
L 386.119118 221.053877 
L 395.305721 221.214401 
L 404.492324 222.338229 
L 413.678926 221.708591 
L 422.865529 225.2613 
L 432.052132 224.268729 
L 441.238735 224.134038 
L 450.425338 224.577245 
L 459.611941 225.286526 
L 468.798544 224.133428 
L 477.985147 225.303903 
L 487.171749 225.940628 
L 496.358352 225.397389 
L 496.358352 215.772618 
L 496.358352 215.772618 
L 487.171749 217.405767 
L 477.985147 215.746624 
L 468.798544 215.099201 
L 459.611941 217.621109 
L 450.425338 214.868202 
L 441.238735 214.623984 
L 432.052132 214.546101 
L 422.865529 215.998881 
L 413.678926 210.992261 
L 404.492324 212.026405 
L 395.305721 211.089534 
L 386.119118 209.770517 
L 376.932515 202.117071 
L 367.745912 184.646662 
L 358.559309 199.214579 
L 349.372706 105.103799 
L 340.186103 97.632197 
L 330.999501 -11.305136 
L 321.812898 -1126.260386 
z
" clip-path="url(#pa4cb91eebe)" style="fill: #2ca02c; fill-opacity: 0.2; stroke: #2ca02c; stroke-opacity: 0.2"/>
   </g>
   <g id="PolyCollection_10">
    <defs>
     <path id="mce90a173df" d="M 321.812898 -296.392661 
L 321.812898 -196.413268 
L 330.999501 -102.532969 
L 340.186103 -88.231055 
L 349.372706 -84.155723 
L 358.559309 -69.022109 
L 367.745912 -71.672646 
L 376.932515 -65.347053 
L 386.119118 -61.433044 
L 395.305721 -60.93244 
L 404.492324 -60.791833 
L 413.678926 -60.758066 
L 422.865529 -60.840432 
L 432.052132 -60.413385 
L 441.238735 -59.967984 
L 450.425338 -58.113059 
L 459.611941 -59.478204 
L 468.798544 -55.830903 
L 477.985147 -54.957426 
L 487.171749 -54.995848 
L 496.358352 -54.358384 
L 496.358352 -57.418052 
L 496.358352 -57.418052 
L 487.171749 -57.873672 
L 477.985147 -57.644981 
L 468.798544 -58.89331 
L 459.611941 -62.895372 
L 450.425338 -61.760461 
L 441.238735 -63.939887 
L 432.052132 -64.382329 
L 422.865529 -64.99344 
L 413.678926 -64.651775 
L 404.492324 -64.910416 
L 395.305721 -65.047505 
L 386.119118 -65.573606 
L 376.932515 -70.58974 
L 367.745912 -79.623131 
L 358.559309 -75.375322 
L 349.372706 -118.839204 
L 340.186103 -109.360613 
L 330.999501 -154.008999 
L 321.812898 -296.392661 
z
" style="stroke: #1f77b4; stroke-opacity: 0.2"/>
    </defs>
    <g clip-path="url(#pa4cb91eebe)">
     <use xlink:href="#mce90a173df" x="0" y="280.142031" style="fill: #1f77b4; fill-opacity: 0.2; stroke: #1f77b4; stroke-opacity: 0.2"/>
    </g>
   </g>
   <g id="PolyCollection_11">
    <defs>
     <path id="m3d36152544" d="M 321.812898 -305.567562 
L 321.812898 -208.730979 
L 330.999501 -108.555868 
L 340.186103 -90.478222 
L 349.372706 -83.692121 
L 358.559309 -69.204076 
L 367.745912 -70.042633 
L 376.932515 -64.784754 
L 386.119118 -61.376072 
L 395.305721 -60.381388 
L 404.492324 -60.041272 
L 413.678926 -60.131245 
L 422.865529 -60.06169 
L 432.052132 -59.409519 
L 441.238735 -59.425371 
L 450.425338 -58.709341 
L 459.611941 -58.144619 
L 468.798544 -58.502653 
L 477.985147 -58.247061 
L 487.171749 -57.812227 
L 496.358352 -57.854725 
L 496.358352 -60.381728 
L 496.358352 -60.381728 
L 487.171749 -60.299362 
L 477.985147 -60.85392 
L 468.798544 -61.066673 
L 459.611941 -60.724981 
L 450.425338 -61.257311 
L 441.238735 -62.02319 
L 432.052132 -62.132854 
L 422.865529 -62.950483 
L 413.678926 -63.139947 
L 404.492324 -62.771411 
L 395.305721 -63.226849 
L 386.119118 -64.583436 
L 376.932515 -69.689646 
L 367.745912 -77.806851 
L 358.559309 -75.092691 
L 349.372706 -119.729994 
L 340.186103 -111.521033 
L 330.999501 -152.886073 
L 321.812898 -305.567562 
z
" style="stroke: #ff7f0e; stroke-opacity: 0.2"/>
    </defs>
    <g clip-path="url(#pa4cb91eebe)">
     <use xlink:href="#m3d36152544" x="0" y="280.142031" style="fill: #ff7f0e; fill-opacity: 0.2; stroke: #ff7f0e; stroke-opacity: 0.2"/>
    </g>
   </g>
   <g id="PolyCollection_12">
    <path d="M 321.812898 -64.33066 
L 321.812898 33.597175 
L 330.999501 169.818859 
L 340.186103 187.495306 
L 349.372706 195.696429 
L 358.559309 211.020395 
L 367.745912 207.259183 
L 376.932515 213.83307 
L 386.119118 218.109746 
L 395.305721 219.685882 
L 404.492324 218.420212 
L 413.678926 219.840299 
L 422.865529 220.364002 
L 432.052132 220.237208 
L 441.238735 220.528699 
L 450.425338 221.72034 
L 459.611941 221.825609 
L 468.798544 222.047951 
L 477.985147 221.7239 
L 487.171749 222.083111 
L 496.358352 222.117103 
L 496.358352 220.040446 
L 496.358352 220.040446 
L 487.171749 219.902135 
L 477.985147 219.602188 
L 468.798544 220.003884 
L 459.611941 219.558886 
L 450.425338 219.495279 
L 441.238735 218.150434 
L 432.052132 217.789903 
L 422.865529 217.967911 
L 413.678926 217.198388 
L 404.492324 215.573416 
L 395.305721 216.460125 
L 386.119118 215.108255 
L 376.932515 209.212524 
L 367.745912 197.824541 
L 358.559309 205.503536 
L 349.372706 161.528916 
L 340.186103 169.091797 
L 330.999501 138.657286 
L 321.812898 -64.33066 
z
" clip-path="url(#pa4cb91eebe)" style="fill: #2ca02c; fill-opacity: 0.2; stroke: #2ca02c; stroke-opacity: 0.2"/>
   </g>
   <g id="line2d_44">
    <path d="M 329.135004 -1 
L 330.999501 111.202157 
L 340.186103 155.288078 
L 349.372706 172.330944 
L 358.559309 204.93293 
L 367.745912 197.91368 
L 376.932515 208.791297 
L 386.119118 210.041133 
L 395.305721 212.897275 
L 404.492324 221.269196 
L 413.678926 221.786032 
L 422.865529 223.195863 
L 432.052132 224.333952 
L 441.238735 224.494168 
L 450.425338 222.734875 
L 459.611941 221.0318 
L 468.798544 225.342367 
L 477.985147 224.758861 
L 487.171749 225.47054 
L 496.358352 225.505619 
" clip-path="url(#pa4cb91eebe)" style="fill: none; stroke-dasharray: 7.4,3.2; stroke-dashoffset: 0; stroke: #1f77b4; stroke-width: 2"/>
   </g>
   <g id="line2d_45">
    <path d="M 329.290668 -1 
L 330.999501 102.890866 
L 340.186103 154.471357 
L 349.372706 174.695656 
L 358.559309 208.966678 
L 367.745912 203.124547 
L 376.932515 209.725106 
L 386.119118 213.299479 
L 395.305721 216.889582 
L 404.492324 217.553449 
L 413.678926 217.881058 
L 422.865529 217.509473 
L 432.052132 220.329685 
L 441.238735 221.782594 
L 450.425338 220.483602 
L 459.611941 221.566429 
L 468.798544 224.528884 
L 477.985147 224.014836 
L 487.171749 224.991393 
L 496.358352 226.250755 
" clip-path="url(#pa4cb91eebe)" style="fill: none; stroke-dasharray: 7.4,3.2; stroke-dashoffset: 0; stroke: #ff7f0e; stroke-width: 2"/>
   </g>
   <g id="line2d_46">
    <path d="M 329.482246 -1 
L 330.999501 91.779988 
L 340.186103 153.069563 
L 349.372706 170.637669 
L 358.559309 207.896246 
L 367.745912 202.512351 
L 376.932515 210.342606 
L 386.119118 215.979115 
L 395.305721 216.155204 
L 404.492324 217.246496 
L 413.678926 216.387443 
L 422.865529 220.950652 
L 432.052132 219.803615 
L 441.238735 219.734511 
L 450.425338 220.318246 
L 459.611941 221.569182 
L 468.798544 219.944306 
L 477.985147 220.622036 
L 487.171749 221.867299 
L 496.358352 220.911833 
" clip-path="url(#pa4cb91eebe)" style="fill: none; stroke-dasharray: 7.4,3.2; stroke-dashoffset: 0; stroke: #2ca02c; stroke-width: 2"/>
   </g>
   <g id="line2d_47"/>
   <g id="line2d_48"/>
   <g id="line2d_49"/>
   <g id="line2d_50">
    <path d="M 321.812898 35.629927 
L 330.999501 154.266892 
L 340.186103 181.578684 
L 349.372706 179.170037 
L 358.559309 207.9603 
L 367.745912 204.587417 
L 376.932515 212.152354 
L 386.119118 216.629155 
L 395.305721 217.138925 
L 404.492324 217.325056 
L 413.678926 217.467866 
L 422.865529 217.248575 
L 432.052132 217.80347 
L 441.238735 218.152235 
L 450.425338 220.301338 
L 459.611941 218.998496 
L 468.798544 222.791497 
L 477.985147 223.791719 
L 487.171749 223.661008 
L 496.358352 224.323298 
" clip-path="url(#pa4cb91eebe)" style="fill: none; stroke: #1f77b4; stroke-width: 2; stroke-linecap: round"/>
   </g>
   <g id="line2d_51">
    <path d="M 321.812898 23.378716 
L 330.999501 151.986855 
L 340.186103 179.82822 
L 349.372706 179.460008 
L 358.559309 208.063763 
L 367.745912 206.283492 
L 376.932515 212.99446 
L 386.119118 217.293943 
L 395.305721 218.370954 
L 404.492324 218.770422 
L 413.678926 218.553176 
L 422.865529 218.639878 
L 432.052132 219.411352 
L 441.238735 219.403966 
L 450.425338 220.210543 
L 459.611941 220.71453 
L 468.798544 220.320271 
L 477.985147 220.60605 
L 487.171749 221.078278 
L 496.358352 221.031661 
" clip-path="url(#pa4cb91eebe)" style="fill: none; stroke: #ff7f0e; stroke-width: 2; stroke-linecap: round"/>
   </g>
   <g id="line2d_52">
    <path d="M 322.443499 -1 
L 330.999501 154.911001 
L 340.186103 178.265514 
L 349.372706 179.64516 
L 358.559309 208.353327 
L 367.745912 202.696036 
L 376.932515 211.619526 
L 386.119118 216.590915 
L 395.305721 218.025553 
L 404.492324 217.043623 
L 413.678926 218.522078 
L 422.865529 219.114708 
L 432.052132 219.031579 
L 441.238735 219.366432 
L 450.425338 220.586445 
L 459.611941 220.669293 
L 468.798544 221.038454 
L 477.985147 220.721321 
L 487.171749 221.029282 
L 496.358352 221.03416 
" clip-path="url(#pa4cb91eebe)" style="fill: none; stroke: #2ca02c; stroke-width: 2; stroke-linecap: round"/>
   </g>
   <g id="line2d_53"/>
   <g id="line2d_54"/>
   <g id="line2d_55"/>
   <g id="patch_9">
    <path d="M 313.085625 234.278906 
L 313.085625 12.518906 
" style="fill: none; stroke: #cccccc; stroke-width: 1.25; stroke-linejoin: miter; stroke-linecap: square"/>
   </g>
   <g id="patch_10">
    <path d="M 505.085625 234.278906 
L 505.085625 12.518906 
" style="fill: none; stroke: #cccccc; stroke-width: 1.25; stroke-linejoin: miter; stroke-linecap: square"/>
   </g>
   <g id="patch_11">
    <path d="M 313.085625 234.278906 
L 505.085625 234.278906 
" style="fill: none; stroke: #cccccc; stroke-width: 1.25; stroke-linejoin: miter; stroke-linecap: square"/>
   </g>
   <g id="patch_12">
    <path d="M 313.085625 12.518906 
L 505.085625 12.518906 
" style="fill: none; stroke: #cccccc; stroke-width: 1.25; stroke-linejoin: miter; stroke-linecap: square"/>
   </g>
   <g id="legend_2">
    <g id="patch_13">
     <path d="M 436.495625 135.642031 
L 497.385625 135.642031 
Q 499.585625 135.642031 499.585625 133.442031 
L 499.585625 20.218906 
Q 499.585625 18.018906 497.385625 18.018906 
L 436.495625 18.018906 
Q 434.295625 18.018906 434.295625 20.218906 
L 434.295625 133.442031 
Q 434.295625 135.642031 436.495625 135.642031 
z
" style="fill: #ffffff; opacity: 0.8; stroke: #cccccc; stroke-linejoin: miter"/>
    </g>
    <g id="text_38">
     <!-- noise_std -->
     <g style="fill: #262626" transform="translate(438.695625 31.537031) scale(0.12 -0.12)">
      <use xlink:href="#DejaVuSans-6e"/>
      <use xlink:href="#DejaVuSans-6f" x="63.378906"/>
      <use xlink:href="#DejaVuSans-69" x="124.560547"/>
      <use xlink:href="#DejaVuSans-73" x="152.34375"/>
      <use xlink:href="#DejaVuSans-65" x="204.443359"/>
      <use xlink:href="#DejaVuSans-5f" x="265.966797"/>
      <use xlink:href="#DejaVuSans-73" x="315.966797"/>
      <use xlink:href="#DejaVuSans-74" x="368.066406"/>
      <use xlink:href="#DejaVuSans-64" x="407.275391"/>
     </g>
    </g>
    <g id="line2d_56">
     <path d="M 442.793906 44.374687 
L 453.793906 44.374687 
L 464.793906 44.374687 
" style="fill: none; stroke-dasharray: 7.4,3.2; stroke-dashoffset: 0; stroke: #1f77b4; stroke-width: 2"/>
    </g>
    <g id="text_39">
     <!-- 0.1 -->
     <g style="fill: #262626" transform="translate(473.593906 48.224687) scale(0.11 -0.11)">
      <use xlink:href="#DejaVuSans-30"/>
      <use xlink:href="#DejaVuSans-2e" x="63.623047"/>
      <use xlink:href="#DejaVuSans-31" x="95.410156"/>
     </g>
    </g>
    <g id="line2d_57">
     <path d="M 442.793906 60.520625 
L 453.793906 60.520625 
L 464.793906 60.520625 
" style="fill: none; stroke-dasharray: 7.4,3.2; stroke-dashoffset: 0; stroke: #ff7f0e; stroke-width: 2"/>
    </g>
    <g id="text_40">
     <!-- 0.3 -->
     <g style="fill: #262626" transform="translate(473.593906 64.370625) scale(0.11 -0.11)">
      <use xlink:href="#DejaVuSans-30"/>
      <use xlink:href="#DejaVuSans-2e" x="63.623047"/>
      <use xlink:href="#DejaVuSans-33" x="95.410156"/>
     </g>
    </g>
    <g id="line2d_58">
     <path d="M 442.793906 76.666562 
L 453.793906 76.666562 
L 464.793906 76.666562 
" style="fill: none; stroke-dasharray: 7.4,3.2; stroke-dashoffset: 0; stroke: #2ca02c; stroke-width: 2"/>
    </g>
    <g id="text_41">
     <!-- 0.5 -->
     <g style="fill: #262626" transform="translate(473.593906 80.516562) scale(0.11 -0.11)">
      <use xlink:href="#DejaVuSans-30"/>
      <use xlink:href="#DejaVuSans-2e" x="63.623047"/>
      <use xlink:href="#DejaVuSans-35" x="95.410156"/>
     </g>
    </g>
    <g id="line2d_59">
     <path d="M 442.793906 92.8125 
L 453.793906 92.8125 
L 464.793906 92.8125 
" style="fill: none; stroke: #1f77b4; stroke-width: 2; stroke-linecap: round"/>
    </g>
    <g id="text_42">
     <!-- 0.1 -->
     <g style="fill: #262626" transform="translate(473.593906 96.6625) scale(0.11 -0.11)">
      <use xlink:href="#DejaVuSans-30"/>
      <use xlink:href="#DejaVuSans-2e" x="63.623047"/>
      <use xlink:href="#DejaVuSans-31" x="95.410156"/>
     </g>
    </g>
    <g id="line2d_60">
     <path d="M 442.793906 108.958438 
L 453.793906 108.958438 
L 464.793906 108.958438 
" style="fill: none; stroke: #ff7f0e; stroke-width: 2; stroke-linecap: round"/>
    </g>
    <g id="text_43">
     <!-- 0.3 -->
     <g style="fill: #262626" transform="translate(473.593906 112.808437) scale(0.11 -0.11)">
      <use xlink:href="#DejaVuSans-30"/>
      <use xlink:href="#DejaVuSans-2e" x="63.623047"/>
      <use xlink:href="#DejaVuSans-33" x="95.410156"/>
     </g>
    </g>
    <g id="line2d_61">
     <path d="M 442.793906 125.104375 
L 453.793906 125.104375 
L 464.793906 125.104375 
" style="fill: none; stroke: #2ca02c; stroke-width: 2; stroke-linecap: round"/>
    </g>
    <g id="text_44">
     <!-- 0.5 -->
     <g style="fill: #262626" transform="translate(473.593906 128.954375) scale(0.11 -0.11)">
      <use xlink:href="#DejaVuSans-30"/>
      <use xlink:href="#DejaVuSans-2e" x="63.623047"/>
      <use xlink:href="#DejaVuSans-35" x="95.410156"/>
     </g>
    </g>
   </g>
  </g>
  <g id="axes_3">
   <g id="patch_14">
    <path d="M 562.685625 234.278906 
L 754.685625 234.278906 
L 754.685625 12.518906 
L 562.685625 12.518906 
z
" style="fill: #ffffff"/>
   </g>
   <g id="matplotlib.axis_5">
    <g id="xtick_13">
     <g id="line2d_62">
      <path d="M 571.412898 234.278906 
L 571.412898 12.518906 
" clip-path="url(#pd2f534c6f3)" style="fill: none; stroke: #cccccc; stroke-linecap: round"/>
     </g>
     <g id="text_45">
      <!-- 5 -->
      <g style="fill: #262626" transform="translate(566.959148 254.416719) scale(0.14 -0.14)">
       <use xlink:href="#DejaVuSans-35"/>
      </g>
     </g>
    </g>
    <g id="xtick_14">
     <g id="line2d_63">
      <path d="M 598.972706 234.278906 
L 598.972706 12.518906 
" clip-path="url(#pd2f534c6f3)" style="fill: none; stroke: #cccccc; stroke-linecap: round"/>
     </g>
     <g id="text_46">
      <!-- 20 -->
      <g style="fill: #262626" transform="translate(590.065206 254.416719) scale(0.14 -0.14)">
       <use xlink:href="#DejaVuSans-32"/>
       <use xlink:href="#DejaVuSans-30" x="63.623047"/>
      </g>
     </g>
    </g>
    <g id="xtick_15">
     <g id="line2d_64">
      <path d="M 635.719118 234.278906 
L 635.719118 12.518906 
" clip-path="url(#pd2f534c6f3)" style="fill: none; stroke: #cccccc; stroke-linecap: round"/>
     </g>
     <g id="text_47">
      <!-- 40 -->
      <g style="fill: #262626" transform="translate(626.811618 254.416719) scale(0.14 -0.14)">
       <use xlink:href="#DejaVuSans-34"/>
       <use xlink:href="#DejaVuSans-30" x="63.623047"/>
      </g>
     </g>
    </g>
    <g id="xtick_16">
     <g id="line2d_65">
      <path d="M 672.465529 234.278906 
L 672.465529 12.518906 
" clip-path="url(#pd2f534c6f3)" style="fill: none; stroke: #cccccc; stroke-linecap: round"/>
     </g>
     <g id="text_48">
      <!-- 60 -->
      <g style="fill: #262626" transform="translate(663.558029 254.416719) scale(0.14 -0.14)">
       <use xlink:href="#DejaVuSans-36"/>
       <use xlink:href="#DejaVuSans-30" x="63.623047"/>
      </g>
     </g>
    </g>
    <g id="xtick_17">
     <g id="line2d_66">
      <path d="M 709.211941 234.278906 
L 709.211941 12.518906 
" clip-path="url(#pd2f534c6f3)" style="fill: none; stroke: #cccccc; stroke-linecap: round"/>
     </g>
     <g id="text_49">
      <!-- 80 -->
      <g style="fill: #262626" transform="translate(700.304441 254.416719) scale(0.14 -0.14)">
       <use xlink:href="#DejaVuSans-38"/>
       <use xlink:href="#DejaVuSans-30" x="63.623047"/>
      </g>
     </g>
    </g>
    <g id="xtick_18">
     <g id="line2d_67">
      <path d="M 745.958352 234.278906 
L 745.958352 12.518906 
" clip-path="url(#pd2f534c6f3)" style="fill: none; stroke: #cccccc; stroke-linecap: round"/>
     </g>
     <g id="text_50">
      <!-- 100 -->
      <g style="fill: #262626" transform="translate(732.597102 254.416719) scale(0.14 -0.14)">
       <use xlink:href="#DejaVuSans-31"/>
       <use xlink:href="#DejaVuSans-30" x="63.623047"/>
       <use xlink:href="#DejaVuSans-30" x="127.246094"/>
      </g>
     </g>
    </g>
    <g id="text_51">
     <!--   -->
     <g style="fill: #262626" transform="translate(656.77875 270.446406) scale(0.12 -0.12)">
      <use xlink:href="#DejaVuSans-20"/>
     </g>
    </g>
   </g>
   <g id="matplotlib.axis_6">
    <g id="ytick_14">
     <g id="line2d_68">
      <path d="M 562.685625 225.473374 
L 754.685625 225.473374 
" clip-path="url(#pd2f534c6f3)" style="fill: none; stroke: #cccccc; stroke-linecap: round"/>
     </g>
     <g id="text_52">
      <!-- 0 -->
      <g style="fill: #262626" transform="translate(544.278125 230.792281) scale(0.14 -0.14)">
       <use xlink:href="#DejaVuSans-30"/>
      </g>
     </g>
    </g>
    <g id="ytick_15">
     <g id="line2d_69">
      <path d="M 562.685625 187.591402 
L 754.685625 187.591402 
" clip-path="url(#pd2f534c6f3)" style="fill: none; stroke: #cccccc; stroke-linecap: round"/>
     </g>
     <g id="text_53">
      <!-- 50 -->
      <g style="fill: #262626" transform="translate(535.370625 192.910308) scale(0.14 -0.14)">
       <use xlink:href="#DejaVuSans-35"/>
       <use xlink:href="#DejaVuSans-30" x="63.623047"/>
      </g>
     </g>
    </g>
    <g id="ytick_16">
     <g id="line2d_70">
      <path d="M 562.685625 149.709429 
L 754.685625 149.709429 
" clip-path="url(#pd2f534c6f3)" style="fill: none; stroke: #cccccc; stroke-linecap: round"/>
     </g>
     <g id="text_54">
      <!-- 100 -->
      <g style="fill: #262626" transform="translate(526.463125 155.028335) scale(0.14 -0.14)">
       <use xlink:href="#DejaVuSans-31"/>
       <use xlink:href="#DejaVuSans-30" x="63.623047"/>
       <use xlink:href="#DejaVuSans-30" x="127.246094"/>
      </g>
     </g>
    </g>
    <g id="ytick_17">
     <g id="line2d_71">
      <path d="M 562.685625 111.827456 
L 754.685625 111.827456 
" clip-path="url(#pd2f534c6f3)" style="fill: none; stroke: #cccccc; stroke-linecap: round"/>
     </g>
     <g id="text_55">
      <!-- 150 -->
      <g style="fill: #262626" transform="translate(526.463125 117.146363) scale(0.14 -0.14)">
       <use xlink:href="#DejaVuSans-31"/>
       <use xlink:href="#DejaVuSans-35" x="63.623047"/>
       <use xlink:href="#DejaVuSans-30" x="127.246094"/>
      </g>
     </g>
    </g>
    <g id="ytick_18">
     <g id="line2d_72">
      <path d="M 562.685625 73.945484 
L 754.685625 73.945484 
" clip-path="url(#pd2f534c6f3)" style="fill: none; stroke: #cccccc; stroke-linecap: round"/>
     </g>
     <g id="text_56">
      <!-- 200 -->
      <g style="fill: #262626" transform="translate(526.463125 79.26439) scale(0.14 -0.14)">
       <use xlink:href="#DejaVuSans-32"/>
       <use xlink:href="#DejaVuSans-30" x="63.623047"/>
       <use xlink:href="#DejaVuSans-30" x="127.246094"/>
      </g>
     </g>
    </g>
    <g id="ytick_19">
     <g id="line2d_73">
      <path d="M 562.685625 36.063511 
L 754.685625 36.063511 
" clip-path="url(#pd2f534c6f3)" style="fill: none; stroke: #cccccc; stroke-linecap: round"/>
     </g>
     <g id="text_57">
      <!-- 250 -->
      <g style="fill: #262626" transform="translate(526.463125 41.382417) scale(0.14 -0.14)">
       <use xlink:href="#DejaVuSans-32"/>
       <use xlink:href="#DejaVuSans-35" x="63.623047"/>
       <use xlink:href="#DejaVuSans-30" x="127.246094"/>
      </g>
     </g>
    </g>
    <g id="text_58">
     <!-- CPU time (s) -->
     <g style="fill: #262626" transform="translate(519.9675 160.774219) rotate(-90) scale(0.12 -0.12)">
      <defs>
       <path id="DejaVuSans-43" d="M 4122 4306 
L 4122 3641 
Q 3803 3938 3442 4084 
Q 3081 4231 2675 4231 
Q 1875 4231 1450 3742 
Q 1025 3253 1025 2328 
Q 1025 1406 1450 917 
Q 1875 428 2675 428 
Q 3081 428 3442 575 
Q 3803 722 4122 1019 
L 4122 359 
Q 3791 134 3420 21 
Q 3050 -91 2638 -91 
Q 1578 -91 968 557 
Q 359 1206 359 2328 
Q 359 3453 968 4101 
Q 1578 4750 2638 4750 
Q 3056 4750 3426 4639 
Q 3797 4528 4122 4306 
z
" transform="scale(0.015625)"/>
       <path id="DejaVuSans-50" d="M 1259 4147 
L 1259 2394 
L 2053 2394 
Q 2494 2394 2734 2622 
Q 2975 2850 2975 3272 
Q 2975 3691 2734 3919 
Q 2494 4147 2053 4147 
L 1259 4147 
z
M 628 4666 
L 2053 4666 
Q 2838 4666 3239 4311 
Q 3641 3956 3641 3272 
Q 3641 2581 3239 2228 
Q 2838 1875 2053 1875 
L 1259 1875 
L 1259 0 
L 628 0 
L 628 4666 
z
" transform="scale(0.015625)"/>
       <path id="DejaVuSans-55" d="M 556 4666 
L 1191 4666 
L 1191 1831 
Q 1191 1081 1462 751 
Q 1734 422 2344 422 
Q 2950 422 3222 751 
Q 3494 1081 3494 1831 
L 3494 4666 
L 4128 4666 
L 4128 1753 
Q 4128 841 3676 375 
Q 3225 -91 2344 -91 
Q 1459 -91 1007 375 
Q 556 841 556 1753 
L 556 4666 
z
" transform="scale(0.015625)"/>
      </defs>
      <use xlink:href="#DejaVuSans-43"/>
      <use xlink:href="#DejaVuSans-50" x="69.824219"/>
      <use xlink:href="#DejaVuSans-55" x="130.126953"/>
      <use xlink:href="#DejaVuSans-20" x="203.320312"/>
      <use xlink:href="#DejaVuSans-74" x="235.107422"/>
      <use xlink:href="#DejaVuSans-69" x="274.316406"/>
      <use xlink:href="#DejaVuSans-6d" x="302.099609"/>
      <use xlink:href="#DejaVuSans-65" x="399.511719"/>
      <use xlink:href="#DejaVuSans-20" x="461.035156"/>
      <use xlink:href="#DejaVuSans-28" x="492.822266"/>
      <use xlink:href="#DejaVuSans-73" x="531.835938"/>
      <use xlink:href="#DejaVuSans-29" x="583.935547"/>
     </g>
    </g>
   </g>
   <g id="PolyCollection_13">
    <defs>
     <path id="me8dccfcda7" d="M 571.412898 -56.671266 
L 571.412898 -55.943125 
L 580.599501 -56.907746 
L 589.786103 -58.46266 
L 598.972706 -59.897375 
L 608.159309 -61.545391 
L 617.345912 -64.018032 
L 626.532515 -65.846246 
L 635.719118 -68.566681 
L 644.905721 -71.047875 
L 654.092324 -73.996991 
L 663.278926 -78.497028 
L 672.465529 -79.967757 
L 681.652132 -82.822983 
L 690.838735 -85.987271 
L 700.025338 -89.760893 
L 709.211941 -96.682765 
L 718.398544 -97.968876 
L 727.585147 -104.626651 
L 736.771749 -110.380053 
L 745.958352 -111.516916 
L 745.958352 -226.431421 
L 745.958352 -226.431421 
L 736.771749 -217.678827 
L 727.585147 -203.301987 
L 718.398544 -193.206815 
L 709.211941 -179.735723 
L 700.025338 -167.923515 
L 690.838735 -154.722388 
L 681.652132 -139.483946 
L 672.465529 -131.984102 
L 663.278926 -124.193484 
L 654.092324 -110.862615 
L 644.905721 -100.375791 
L 635.719118 -95.126405 
L 626.532515 -85.050502 
L 617.345912 -78.864912 
L 608.159309 -71.890042 
L 598.972706 -67.382925 
L 589.786103 -62.413136 
L 580.599501 -58.878976 
L 571.412898 -56.671266 
z
" style="stroke: #1f77b4; stroke-opacity: 0.2"/>
    </defs>
    <g clip-path="url(#pd2f534c6f3)">
     <use xlink:href="#me8dccfcda7" x="0" y="280.142031" style="fill: #1f77b4; fill-opacity: 0.2; stroke: #1f77b4; stroke-opacity: 0.2"/>
    </g>
   </g>
   <g id="PolyCollection_14">
    <defs>
     <path id="m22955cac1e" d="M 571.412898 -56.788609 
L 571.412898 -56.002151 
L 580.599501 -56.935567 
L 589.786103 -58.257912 
L 598.972706 -59.589678 
L 608.159309 -60.994729 
L 617.345912 -63.087859 
L 626.532515 -64.789036 
L 635.719118 -67.542435 
L 644.905721 -69.774562 
L 654.092324 -72.37867 
L 663.278926 -74.631527 
L 672.465529 -78.068075 
L 681.652132 -81.46595 
L 690.838735 -82.039427 
L 700.025338 -85.095607 
L 709.211941 -91.990726 
L 718.398544 -93.656783 
L 727.585147 -103.073226 
L 736.771749 -101.676646 
L 745.958352 -108.352322 
L 745.958352 -228.266907 
L 745.958352 -228.266907 
L 736.771749 -201.738519 
L 727.585147 -200.862244 
L 718.398544 -186.706596 
L 709.211941 -177.425859 
L 700.025338 -163.387925 
L 690.838735 -146.612186 
L 681.652132 -133.937068 
L 672.465529 -125.038938 
L 663.278926 -112.625764 
L 654.092324 -106.618859 
L 644.905721 -96.301863 
L 635.719118 -93.310241 
L 626.532515 -83.42485 
L 617.345912 -77.112413 
L 608.159309 -70.913455 
L 598.972706 -66.569644 
L 589.786103 -62.548269 
L 580.599501 -58.972602 
L 571.412898 -56.788609 
z
" style="stroke: #ff7f0e; stroke-opacity: 0.2"/>
    </defs>
    <g clip-path="url(#pd2f534c6f3)">
     <use xlink:href="#m22955cac1e" x="0" y="280.142031" style="fill: #ff7f0e; fill-opacity: 0.2; stroke: #ff7f0e; stroke-opacity: 0.2"/>
    </g>
   </g>
   <g id="PolyCollection_15">
    <defs>
     <path id="m9113590a5a" d="M 571.412898 -56.927654 
L 571.412898 -55.974269 
L 580.599501 -57.044755 
L 589.786103 -58.170037 
L 598.972706 -59.75685 
L 608.159309 -60.76864 
L 617.345912 -62.341428 
L 626.532515 -64.429379 
L 635.719118 -66.278341 
L 644.905721 -68.278903 
L 654.092324 -71.080357 
L 663.278926 -75.059653 
L 672.465529 -75.986518 
L 681.652132 -78.091532 
L 690.838735 -81.660008 
L 700.025338 -85.078547 
L 709.211941 -91.674467 
L 718.398544 -95.108501 
L 727.585147 -95.051025 
L 736.771749 -101.668209 
L 745.958352 -106.617197 
L 745.958352 -215.27228 
L 745.958352 -215.27228 
L 736.771749 -202.124489 
L 727.585147 -182.628152 
L 718.398544 -179.278439 
L 709.211941 -170.90075 
L 700.025338 -154.063977 
L 690.838735 -139.108062 
L 681.652132 -129.593517 
L 672.465529 -117.45551 
L 663.278926 -113.464219 
L 654.092324 -100.406646 
L 644.905721 -93.431651 
L 635.719118 -87.520794 
L 626.532515 -81.345907 
L 617.345912 -75.27976 
L 608.159309 -69.951325 
L 598.972706 -66.499722 
L 589.786103 -62.380093 
L 580.599501 -59.607489 
L 571.412898 -56.927654 
z
" style="stroke: #2ca02c; stroke-opacity: 0.2"/>
    </defs>
    <g clip-path="url(#pd2f534c6f3)">
     <use xlink:href="#m9113590a5a" x="0" y="280.142031" style="fill: #2ca02c; fill-opacity: 0.2; stroke: #2ca02c; stroke-opacity: 0.2"/>
    </g>
   </g>
   <g id="PolyCollection_16">
    <defs>
     <path id="m8b14d0f2d8" d="M 571.412898 -161.291272 
L 571.412898 -133.709858 
L 580.599501 -135.722327 
L 589.786103 -137.883398 
L 598.972706 -141.19468 
L 608.159309 -141.830043 
L 617.345912 -144.109981 
L 626.532515 -147.434168 
L 635.719118 -149.116492 
L 644.905721 -151.395993 
L 654.092324 -153.801581 
L 663.278926 -158.98529 
L 672.465529 -163.147047 
L 681.652132 -167.764459 
L 690.838735 -169.635102 
L 700.025338 -174.988663 
L 709.211941 -180.698455 
L 718.398544 -185.230073 
L 727.585147 -189.005285 
L 736.771749 -197.743834 
L 745.958352 -202.685094 
L 745.958352 -245.313234 
L 745.958352 -245.313234 
L 736.771749 -240.95167 
L 727.585147 -233.924352 
L 718.398544 -227.324476 
L 709.211941 -219.801302 
L 700.025338 -212.464407 
L 690.838735 -206.155573 
L 681.652132 -203.511284 
L 672.465529 -197.787157 
L 663.278926 -193.717672 
L 654.092324 -186.569609 
L 644.905721 -183.066287 
L 635.719118 -180.593097 
L 626.532515 -178.398762 
L 617.345912 -173.69431 
L 608.159309 -171.968757 
L 598.972706 -170.484159 
L 589.786103 -165.787268 
L 580.599501 -164.449469 
L 571.412898 -161.291272 
z
" style="stroke: #1f77b4; stroke-opacity: 0.2"/>
    </defs>
    <g clip-path="url(#pd2f534c6f3)">
     <use xlink:href="#m8b14d0f2d8" x="0" y="280.142031" style="fill: #1f77b4; fill-opacity: 0.2; stroke: #1f77b4; stroke-opacity: 0.2"/>
    </g>
   </g>
   <g id="PolyCollection_17">
    <defs>
     <path id="m5df4ac368b" d="M 571.412898 -178.140252 
L 571.412898 -142.281729 
L 580.599501 -145.023476 
L 589.786103 -145.391103 
L 598.972706 -146.647985 
L 608.159309 -152.573672 
L 617.345912 -153.06825 
L 626.532515 -152.16471 
L 635.719118 -162.918666 
L 644.905721 -159.287066 
L 654.092324 -162.255603 
L 663.278926 -164.693991 
L 672.465529 -168.730149 
L 681.652132 -175.409592 
L 690.838735 -175.360705 
L 700.025338 -182.683285 
L 709.211941 -187.74593 
L 718.398544 -191.411994 
L 727.585147 -194.954966 
L 736.771749 -200.026121 
L 745.958352 -205.573021 
L 745.958352 -255.436119 
L 745.958352 -255.436119 
L 736.771749 -249.421985 
L 727.585147 -240.976754 
L 718.398544 -238.112764 
L 709.211941 -231.821823 
L 700.025338 -227.200254 
L 690.838735 -221.360265 
L 681.652132 -217.124878 
L 672.465529 -209.750567 
L 663.278926 -201.920732 
L 654.092324 -200.624361 
L 644.905721 -195.120693 
L 635.719118 -201.097206 
L 626.532515 -186.046233 
L 617.345912 -187.430149 
L 608.159309 -188.561442 
L 598.972706 -181.242568 
L 589.786103 -178.544878 
L 580.599501 -180.400018 
L 571.412898 -178.140252 
z
" style="stroke: #ff7f0e; stroke-opacity: 0.2"/>
    </defs>
    <g clip-path="url(#pd2f534c6f3)">
     <use xlink:href="#m5df4ac368b" x="0" y="280.142031" style="fill: #ff7f0e; fill-opacity: 0.2; stroke: #ff7f0e; stroke-opacity: 0.2"/>
    </g>
   </g>
   <g id="PolyCollection_18">
    <defs>
     <path id="m60cf4aa8fb" d="M 571.412898 -182.139124 
L 571.412898 -148.205862 
L 580.599501 -147.930518 
L 589.786103 -145.731418 
L 598.972706 -149.364129 
L 608.159309 -150.568629 
L 617.345912 -153.471324 
L 626.532515 -155.329388 
L 635.719118 -159.959612 
L 644.905721 -160.608761 
L 654.092324 -163.94026 
L 663.278926 -165.408493 
L 672.465529 -174.186429 
L 681.652132 -171.97989 
L 690.838735 -178.071662 
L 700.025338 -178.822357 
L 709.211941 -186.362619 
L 718.398544 -189.987463 
L 727.585147 -195.990908 
L 736.771749 -204.272305 
L 745.958352 -205.866919 
L 745.958352 -257.543125 
L 745.958352 -257.543125 
L 736.771749 -257.163298 
L 727.585147 -244.132071 
L 718.398544 -238.625956 
L 709.211941 -232.208553 
L 700.025338 -223.543151 
L 690.838735 -221.933412 
L 681.652132 -215.197412 
L 672.465529 -217.843447 
L 663.278926 -206.719326 
L 654.092324 -203.833891 
L 644.905721 -200.60515 
L 635.719118 -200.273686 
L 626.532515 -195.818292 
L 617.345912 -191.490342 
L 608.159309 -189.393108 
L 598.972706 -185.086691 
L 589.786103 -180.260753 
L 580.599501 -185.418463 
L 571.412898 -182.139124 
z
" style="stroke: #2ca02c; stroke-opacity: 0.2"/>
    </defs>
    <g clip-path="url(#pd2f534c6f3)">
     <use xlink:href="#m60cf4aa8fb" x="0" y="280.142031" style="fill: #2ca02c; fill-opacity: 0.2; stroke: #2ca02c; stroke-opacity: 0.2"/>
    </g>
   </g>
   <g id="line2d_74">
    <path d="M 571.412898 223.848442 
L 580.599501 222.303076 
L 589.786103 219.879352 
L 598.972706 216.732166 
L 608.159309 213.748868 
L 617.345912 209.560985 
L 626.532515 205.062917 
L 635.719118 198.887911 
L 644.905721 195.493227 
L 654.092324 189.382688 
L 663.278926 180.947096 
L 672.465529 176.789125 
L 681.652132 171.709522 
L 690.838735 161.617648 
L 700.025338 154.325617 
L 709.211941 144.707849 
L 718.398544 138.818084 
L 727.585147 132.221514 
L 736.771749 119.261491 
L 745.958352 115.804676 
" clip-path="url(#pd2f534c6f3)" style="fill: none; stroke-dasharray: 7.4,3.2; stroke-dashoffset: 0; stroke: #1f77b4; stroke-width: 2"/>
   </g>
   <g id="line2d_75">
    <path d="M 571.412898 223.767373 
L 580.599501 222.287123 
L 589.786103 219.897565 
L 598.972706 217.394087 
L 608.159309 214.484598 
L 617.345912 210.91917 
L 626.532515 207.091735 
L 635.719118 201.321227 
L 644.905721 198.887086 
L 654.092324 191.85475 
L 663.278926 188.488293 
L 672.465529 181.520023 
L 681.652132 173.892603 
L 690.838735 168.04166 
L 700.025338 159.695443 
L 709.211941 150.194157 
L 718.398544 143.856807 
L 727.585147 135.063107 
L 736.771749 129.621403 
L 745.958352 114.854992 
" clip-path="url(#pd2f534c6f3)" style="fill: none; stroke-dasharray: 7.4,3.2; stroke-dashoffset: 0; stroke: #ff7f0e; stroke-width: 2"/>
   </g>
   <g id="line2d_76">
    <path d="M 571.412898 223.723763 
L 580.599501 221.904727 
L 589.786103 220.0405 
L 598.972706 217.252675 
L 608.159309 215.055873 
L 617.345912 211.702061 
L 626.532515 207.805829 
L 635.719118 204.05526 
L 644.905721 199.930239 
L 654.092324 195.315011 
L 663.278926 188.35582 
L 672.465529 184.5964 
L 681.652132 176.929652 
L 690.838735 172.617211 
L 700.025338 164.175612 
L 709.211941 153.505731 
L 718.398544 148.003944 
L 727.585147 144.572333 
L 736.771749 132.587463 
L 745.958352 123.624346 
" clip-path="url(#pd2f534c6f3)" style="fill: none; stroke-dasharray: 7.4,3.2; stroke-dashoffset: 0; stroke: #2ca02c; stroke-width: 2"/>
   </g>
   <g id="line2d_77"/>
   <g id="line2d_78"/>
   <g id="line2d_79"/>
   <g id="line2d_80">
    <path d="M 571.412898 132.425515 
L 580.599501 131.052901 
L 589.786103 128.122575 
L 598.972706 124.935678 
L 608.159309 123.830381 
L 617.345912 122.129776 
L 626.532515 117.936575 
L 635.719118 114.723898 
L 644.905721 113.934627 
L 654.092324 109.605808 
L 663.278926 104.833391 
L 672.465529 99.970833 
L 681.652132 95.295525 
L 690.838735 93.124587 
L 700.025338 86.59998 
L 709.211941 80.414283 
L 718.398544 73.894143 
L 727.585147 69.285075 
L 736.771749 60.909002 
L 745.958352 56.162265 
" clip-path="url(#pd2f534c6f3)" style="fill: none; stroke: #1f77b4; stroke-width: 2; stroke-linecap: round"/>
   </g>
   <g id="line2d_81">
    <path d="M 571.412898 119.477804 
L 580.599501 117.831302 
L 589.786103 117.635567 
L 598.972706 116.950669 
L 608.159309 108.830732 
L 617.345912 110.299321 
L 626.532515 111.175975 
L 635.719118 99.465762 
L 644.905721 103.418264 
L 654.092324 99.982621 
L 663.278926 97.591827 
L 672.465529 91.862784 
L 681.652132 85.396419 
L 690.838735 83.013971 
L 700.025338 75.321303 
L 709.211941 72.178219 
L 718.398544 66.781755 
L 727.585147 63.157611 
L 736.771749 55.795675 
L 745.958352 50.732407 
" clip-path="url(#pd2f534c6f3)" style="fill: none; stroke: #ff7f0e; stroke-width: 2; stroke-linecap: round"/>
   </g>
   <g id="line2d_82">
    <path d="M 571.412898 115.3167 
L 580.599501 114.794667 
L 589.786103 117.553162 
L 598.972706 113.513483 
L 608.159309 110.313068 
L 617.345912 109.155732 
L 626.532515 105.00944 
L 635.719118 101.166563 
L 644.905721 101.190169 
L 654.092324 97.394793 
L 663.278926 94.555999 
L 672.465529 85.140963 
L 681.652132 85.667473 
L 690.838735 80.841346 
L 700.025338 79.374872 
L 709.211941 72.420462 
L 718.398544 66.474852 
L 727.585147 60.914973 
L 736.771749 52.72884 
L 745.958352 49.302754 
" clip-path="url(#pd2f534c6f3)" style="fill: none; stroke: #2ca02c; stroke-width: 2; stroke-linecap: round"/>
   </g>
   <g id="line2d_83"/>
   <g id="line2d_84"/>
   <g id="line2d_85"/>
   <g id="patch_15">
    <path d="M 562.685625 234.278906 
L 562.685625 12.518906 
" style="fill: none; stroke: #cccccc; stroke-width: 1.25; stroke-linejoin: miter; stroke-linecap: square"/>
   </g>
   <g id="patch_16">
    <path d="M 754.685625 234.278906 
L 754.685625 12.518906 
" style="fill: none; stroke: #cccccc; stroke-width: 1.25; stroke-linejoin: miter; stroke-linecap: square"/>
   </g>
   <g id="patch_17">
    <path d="M 562.685625 234.278906 
L 754.685625 234.278906 
" style="fill: none; stroke: #cccccc; stroke-width: 1.25; stroke-linejoin: miter; stroke-linecap: square"/>
   </g>
   <g id="patch_18">
    <path d="M 562.685625 12.518906 
L 754.685625 12.518906 
" style="fill: none; stroke: #cccccc; stroke-width: 1.25; stroke-linejoin: miter; stroke-linecap: square"/>
   </g>
   <g id="legend_3">
    <g id="patch_19">
     <path d="M 570.385625 135.642031 
L 631.275625 135.642031 
Q 633.475625 135.642031 633.475625 133.442031 
L 633.475625 20.218906 
Q 633.475625 18.018906 631.275625 18.018906 
L 570.385625 18.018906 
Q 568.185625 18.018906 568.185625 20.218906 
L 568.185625 133.442031 
Q 568.185625 135.642031 570.385625 135.642031 
z
" style="fill: #ffffff; opacity: 0.8; stroke: #cccccc; stroke-linejoin: miter"/>
    </g>
    <g id="text_59">
     <!-- noise_std -->
     <g style="fill: #262626" transform="translate(572.585625 31.537031) scale(0.12 -0.12)">
      <use xlink:href="#DejaVuSans-6e"/>
      <use xlink:href="#DejaVuSans-6f" x="63.378906"/>
      <use xlink:href="#DejaVuSans-69" x="124.560547"/>
      <use xlink:href="#DejaVuSans-73" x="152.34375"/>
      <use xlink:href="#DejaVuSans-65" x="204.443359"/>
      <use xlink:href="#DejaVuSans-5f" x="265.966797"/>
      <use xlink:href="#DejaVuSans-73" x="315.966797"/>
      <use xlink:href="#DejaVuSans-74" x="368.066406"/>
      <use xlink:href="#DejaVuSans-64" x="407.275391"/>
     </g>
    </g>
    <g id="line2d_86">
     <path d="M 576.683906 44.374687 
L 587.683906 44.374687 
L 598.683906 44.374687 
" style="fill: none; stroke-dasharray: 7.4,3.2; stroke-dashoffset: 0; stroke: #1f77b4; stroke-width: 2"/>
    </g>
    <g id="text_60">
     <!-- 0.1 -->
     <g style="fill: #262626" transform="translate(607.483906 48.224687) scale(0.11 -0.11)">
      <use xlink:href="#DejaVuSans-30"/>
      <use xlink:href="#DejaVuSans-2e" x="63.623047"/>
      <use xlink:href="#DejaVuSans-31" x="95.410156"/>
     </g>
    </g>
    <g id="line2d_87">
     <path d="M 576.683906 60.520625 
L 587.683906 60.520625 
L 598.683906 60.520625 
" style="fill: none; stroke-dasharray: 7.4,3.2; stroke-dashoffset: 0; stroke: #ff7f0e; stroke-width: 2"/>
    </g>
    <g id="text_61">
     <!-- 0.3 -->
     <g style="fill: #262626" transform="translate(607.483906 64.370625) scale(0.11 -0.11)">
      <use xlink:href="#DejaVuSans-30"/>
      <use xlink:href="#DejaVuSans-2e" x="63.623047"/>
      <use xlink:href="#DejaVuSans-33" x="95.410156"/>
     </g>
    </g>
    <g id="line2d_88">
     <path d="M 576.683906 76.666562 
L 587.683906 76.666562 
L 598.683906 76.666562 
" style="fill: none; stroke-dasharray: 7.4,3.2; stroke-dashoffset: 0; stroke: #2ca02c; stroke-width: 2"/>
    </g>
    <g id="text_62">
     <!-- 0.5 -->
     <g style="fill: #262626" transform="translate(607.483906 80.516562) scale(0.11 -0.11)">
      <use xlink:href="#DejaVuSans-30"/>
      <use xlink:href="#DejaVuSans-2e" x="63.623047"/>
      <use xlink:href="#DejaVuSans-35" x="95.410156"/>
     </g>
    </g>
    <g id="line2d_89">
     <path d="M 576.683906 92.8125 
L 587.683906 92.8125 
L 598.683906 92.8125 
" style="fill: none; stroke: #1f77b4; stroke-width: 2; stroke-linecap: round"/>
    </g>
    <g id="text_63">
     <!-- 0.1 -->
     <g style="fill: #262626" transform="translate(607.483906 96.6625) scale(0.11 -0.11)">
      <use xlink:href="#DejaVuSans-30"/>
      <use xlink:href="#DejaVuSans-2e" x="63.623047"/>
      <use xlink:href="#DejaVuSans-31" x="95.410156"/>
     </g>
    </g>
    <g id="line2d_90">
     <path d="M 576.683906 108.958438 
L 587.683906 108.958438 
L 598.683906 108.958438 
" style="fill: none; stroke: #ff7f0e; stroke-width: 2; stroke-linecap: round"/>
    </g>
    <g id="text_64">
     <!-- 0.3 -->
     <g style="fill: #262626" transform="translate(607.483906 112.808437) scale(0.11 -0.11)">
      <use xlink:href="#DejaVuSans-30"/>
      <use xlink:href="#DejaVuSans-2e" x="63.623047"/>
      <use xlink:href="#DejaVuSans-33" x="95.410156"/>
     </g>
    </g>
    <g id="line2d_91">
     <path d="M 576.683906 125.104375 
L 587.683906 125.104375 
L 598.683906 125.104375 
" style="fill: none; stroke: #2ca02c; stroke-width: 2; stroke-linecap: round"/>
    </g>
    <g id="text_65">
     <!-- 0.5 -->
     <g style="fill: #262626" transform="translate(607.483906 128.954375) scale(0.11 -0.11)">
      <use xlink:href="#DejaVuSans-30"/>
      <use xlink:href="#DejaVuSans-2e" x="63.623047"/>
      <use xlink:href="#DejaVuSans-35" x="95.410156"/>
     </g>
    </g>
   </g>
  </g>
 </g>
 <defs>
  <clipPath id="p07d50e4d39">
   <rect x="63.485625" y="12.518906" width="192" height="221.76"/>
  </clipPath>
  <clipPath id="pa4cb91eebe">
   <rect x="313.085625" y="12.518906" width="192" height="221.76"/>
  </clipPath>
  <clipPath id="pd2f534c6f3">
   <rect x="562.685625" y="12.518906" width="192" height="221.76"/>
  </clipPath>
 </defs>
</svg>
