<?xml version="1.0" encoding="utf-8" standalone="no"?>
<!DOCTYPE svg PUBLIC "-//W3C//DTD SVG 1.1//EN"
  "http://www.w3.org/Graphics/SVG/1.1/DTD/svg11.dtd">
<svg xmlns:xlink="http://www.w3.org/1999/xlink" width="766.519602pt" height="280.142031pt" viewBox="0 0 766.519602 280.142031" xmlns="http://www.w3.org/2000/svg" version="1.1">
 <metadata>
  <rdf:RDF xmlns:dc="http://purl.org/dc/elements/1.1/" xmlns:cc="http://creativecommons.org/ns#" xmlns:rdf="http://www.w3.org/1999/02/22-rdf-syntax-ns#">
   <cc:Work>
    <dc:type rdf:resource="http://purl.org/dc/dcmitype/StillImage"/>
    <dc:date>2024-01-11T09:05:35.060035</dc:date>
    <dc:format>image/svg+xml</dc:format>
    <dc:creator>
     <cc:Agent>
      <dc:title>Matplotlib v3.7.2, https://matplotlib.org/</dc:title>
     </cc:Agent>
    </dc:creator>
   </cc:Work>
  </rdf:RDF>
 </metadata>
 <defs>
  <style type="text/css">*{stroke-linejoin: round; stroke-linecap: butt}</style>
 </defs>
 <g id="figure_1">
  <g id="patch_1">
   <path d="M 0 280.142031 
L 766.519602 280.142031 
L 766.519602 0 
L 0 0 
z
" style="fill: #ffffff"/>
  </g>
  <g id="axes_1">
   <g id="patch_2">
    <path d="M 63.485625 234.278906 
L 255.485625 234.278906 
L 255.485625 12.518906 
L 63.485625 12.518906 
z
" style="fill: #ffffff"/>
   </g>
   <g id="matplotlib.axis_1">
    <g id="xtick_1">
     <g id="line2d_1">
      <path d="M 72.212898 234.278906 
L 72.212898 12.518906 
" clip-path="url(#pb71760ca23)" style="fill: none; stroke: #cccccc; stroke-linecap: round"/>
     </g>
     <g id="text_1">
      <!-- 5 -->
      <g style="fill: #262626" transform="translate(67.759148 254.416719) scale(0.14 -0.14)">
       <defs>
        <path id="DejaVuSans-35" d="M 691 4666 
L 3169 4666 
L 3169 4134 
L 1269 4134 
L 1269 2991 
Q 1406 3038 1543 3061 
Q 1681 3084 1819 3084 
Q 2600 3084 3056 2656 
Q 3513 2228 3513 1497 
Q 3513 744 3044 326 
Q 2575 -91 1722 -91 
Q 1428 -91 1123 -41 
Q 819 9 494 109 
L 494 744 
Q 775 591 1075 516 
Q 1375 441 1709 441 
Q 2250 441 2565 725 
Q 2881 1009 2881 1497 
Q 2881 1984 2565 2268 
Q 2250 2553 1709 2553 
Q 1456 2553 1204 2497 
Q 953 2441 691 2322 
L 691 4666 
z
" transform="scale(0.015625)"/>
       </defs>
       <use xlink:href="#DejaVuSans-35"/>
      </g>
     </g>
    </g>
    <g id="xtick_2">
     <g id="line2d_2">
      <path d="M 99.772706 234.278906 
L 99.772706 12.518906 
" clip-path="url(#pb71760ca23)" style="fill: none; stroke: #cccccc; stroke-linecap: round"/>
     </g>
     <g id="text_2">
      <!-- 20 -->
      <g style="fill: #262626" transform="translate(90.865206 254.416719) scale(0.14 -0.14)">
       <defs>
        <path id="DejaVuSans-32" d="M 1228 531 
L 3431 531 
L 3431 0 
L 469 0 
L 469 531 
Q 828 903 1448 1529 
Q 2069 2156 2228 2338 
Q 2531 2678 2651 2914 
Q 2772 3150 2772 3378 
Q 2772 3750 2511 3984 
Q 2250 4219 1831 4219 
Q 1534 4219 1204 4116 
Q 875 4013 500 3803 
L 500 4441 
Q 881 4594 1212 4672 
Q 1544 4750 1819 4750 
Q 2544 4750 2975 4387 
Q 3406 4025 3406 3419 
Q 3406 3131 3298 2873 
Q 3191 2616 2906 2266 
Q 2828 2175 2409 1742 
Q 1991 1309 1228 531 
z
" transform="scale(0.015625)"/>
        <path id="DejaVuSans-30" d="M 2034 4250 
Q 1547 4250 1301 3770 
Q 1056 3291 1056 2328 
Q 1056 1369 1301 889 
Q 1547 409 2034 409 
Q 2525 409 2770 889 
Q 3016 1369 3016 2328 
Q 3016 3291 2770 3770 
Q 2525 4250 2034 4250 
z
M 2034 4750 
Q 2819 4750 3233 4129 
Q 3647 3509 3647 2328 
Q 3647 1150 3233 529 
Q 2819 -91 2034 -91 
Q 1250 -91 836 529 
Q 422 1150 422 2328 
Q 422 3509 836 4129 
Q 1250 4750 2034 4750 
z
" transform="scale(0.015625)"/>
       </defs>
       <use xlink:href="#DejaVuSans-32"/>
       <use xlink:href="#DejaVuSans-30" x="63.623047"/>
      </g>
     </g>
    </g>
    <g id="xtick_3">
     <g id="line2d_3">
      <path d="M 136.519118 234.278906 
L 136.519118 12.518906 
" clip-path="url(#pb71760ca23)" style="fill: none; stroke: #cccccc; stroke-linecap: round"/>
     </g>
     <g id="text_3">
      <!-- 40 -->
      <g style="fill: #262626" transform="translate(127.611618 254.416719) scale(0.14 -0.14)">
       <defs>
        <path id="DejaVuSans-34" d="M 2419 4116 
L 825 1625 
L 2419 1625 
L 2419 4116 
z
M 2253 4666 
L 3047 4666 
L 3047 1625 
L 3713 1625 
L 3713 1100 
L 3047 1100 
L 3047 0 
L 2419 0 
L 2419 1100 
L 313 1100 
L 313 1709 
L 2253 4666 
z
" transform="scale(0.015625)"/>
       </defs>
       <use xlink:href="#DejaVuSans-34"/>
       <use xlink:href="#DejaVuSans-30" x="63.623047"/>
      </g>
     </g>
    </g>
    <g id="xtick_4">
     <g id="line2d_4">
      <path d="M 173.265529 234.278906 
L 173.265529 12.518906 
" clip-path="url(#pb71760ca23)" style="fill: none; stroke: #cccccc; stroke-linecap: round"/>
     </g>
     <g id="text_4">
      <!-- 60 -->
      <g style="fill: #262626" transform="translate(164.358029 254.416719) scale(0.14 -0.14)">
       <defs>
        <path id="DejaVuSans-36" d="M 2113 2584 
Q 1688 2584 1439 2293 
Q 1191 2003 1191 1497 
Q 1191 994 1439 701 
Q 1688 409 2113 409 
Q 2538 409 2786 701 
Q 3034 994 3034 1497 
Q 3034 2003 2786 2293 
Q 2538 2584 2113 2584 
z
M 3366 4563 
L 3366 3988 
Q 3128 4100 2886 4159 
Q 2644 4219 2406 4219 
Q 1781 4219 1451 3797 
Q 1122 3375 1075 2522 
Q 1259 2794 1537 2939 
Q 1816 3084 2150 3084 
Q 2853 3084 3261 2657 
Q 3669 2231 3669 1497 
Q 3669 778 3244 343 
Q 2819 -91 2113 -91 
Q 1303 -91 875 529 
Q 447 1150 447 2328 
Q 447 3434 972 4092 
Q 1497 4750 2381 4750 
Q 2619 4750 2861 4703 
Q 3103 4656 3366 4563 
z
" transform="scale(0.015625)"/>
       </defs>
       <use xlink:href="#DejaVuSans-36"/>
       <use xlink:href="#DejaVuSans-30" x="63.623047"/>
      </g>
     </g>
    </g>
    <g id="xtick_5">
     <g id="line2d_5">
      <path d="M 210.011941 234.278906 
L 210.011941 12.518906 
" clip-path="url(#pb71760ca23)" style="fill: none; stroke: #cccccc; stroke-linecap: round"/>
     </g>
     <g id="text_5">
      <!-- 80 -->
      <g style="fill: #262626" transform="translate(201.104441 254.416719) scale(0.14 -0.14)">
       <defs>
        <path id="DejaVuSans-38" d="M 2034 2216 
Q 1584 2216 1326 1975 
Q 1069 1734 1069 1313 
Q 1069 891 1326 650 
Q 1584 409 2034 409 
Q 2484 409 2743 651 
Q 3003 894 3003 1313 
Q 3003 1734 2745 1975 
Q 2488 2216 2034 2216 
z
M 1403 2484 
Q 997 2584 770 2862 
Q 544 3141 544 3541 
Q 544 4100 942 4425 
Q 1341 4750 2034 4750 
Q 2731 4750 3128 4425 
Q 3525 4100 3525 3541 
Q 3525 3141 3298 2862 
Q 3072 2584 2669 2484 
Q 3125 2378 3379 2068 
Q 3634 1759 3634 1313 
Q 3634 634 3220 271 
Q 2806 -91 2034 -91 
Q 1263 -91 848 271 
Q 434 634 434 1313 
Q 434 1759 690 2068 
Q 947 2378 1403 2484 
z
M 1172 3481 
Q 1172 3119 1398 2916 
Q 1625 2713 2034 2713 
Q 2441 2713 2670 2916 
Q 2900 3119 2900 3481 
Q 2900 3844 2670 4047 
Q 2441 4250 2034 4250 
Q 1625 4250 1398 4047 
Q 1172 3844 1172 3481 
z
" transform="scale(0.015625)"/>
       </defs>
       <use xlink:href="#DejaVuSans-38"/>
       <use xlink:href="#DejaVuSans-30" x="63.623047"/>
      </g>
     </g>
    </g>
    <g id="xtick_6">
     <g id="line2d_6">
      <path d="M 246.758352 234.278906 
L 246.758352 12.518906 
" clip-path="url(#pb71760ca23)" style="fill: none; stroke: #cccccc; stroke-linecap: round"/>
     </g>
     <g id="text_6">
      <!-- 100 -->
      <g style="fill: #262626" transform="translate(233.397102 254.416719) scale(0.14 -0.14)">
       <defs>
        <path id="DejaVuSans-31" d="M 794 531 
L 1825 531 
L 1825 4091 
L 703 3866 
L 703 4441 
L 1819 4666 
L 2450 4666 
L 2450 531 
L 3481 531 
L 3481 0 
L 794 0 
L 794 531 
z
" transform="scale(0.015625)"/>
       </defs>
       <use xlink:href="#DejaVuSans-31"/>
       <use xlink:href="#DejaVuSans-30" x="63.623047"/>
       <use xlink:href="#DejaVuSans-30" x="127.246094"/>
      </g>
     </g>
    </g>
    <g id="text_7">
     <!--   -->
     <g style="fill: #262626" transform="translate(157.57875 270.446406) scale(0.12 -0.12)">
      <defs>
       <path id="DejaVuSans-20" transform="scale(0.015625)"/>
      </defs>
      <use xlink:href="#DejaVuSans-20"/>
     </g>
    </g>
   </g>
   <g id="matplotlib.axis_2">
    <g id="ytick_1">
     <g id="line2d_7">
      <path d="M 63.485625 234.278906 
L 255.485625 234.278906 
" clip-path="url(#pb71760ca23)" style="fill: none; stroke: #cccccc; stroke-linecap: round"/>
     </g>
     <g id="text_8">
      <!-- 0.70 -->
      <g style="fill: #262626" transform="translate(22.81375 239.597812) scale(0.14 -0.14)">
       <defs>
        <path id="DejaVuSans-2e" d="M 684 794 
L 1344 794 
L 1344 0 
L 684 0 
L 684 794 
z
" transform="scale(0.015625)"/>
        <path id="DejaVuSans-37" d="M 525 4666 
L 3525 4666 
L 3525 4397 
L 1831 0 
L 1172 0 
L 2766 4134 
L 525 4134 
L 525 4666 
z
" transform="scale(0.015625)"/>
       </defs>
       <use xlink:href="#DejaVuSans-30"/>
       <use xlink:href="#DejaVuSans-2e" x="63.623047"/>
       <use xlink:href="#DejaVuSans-37" x="95.410156"/>
       <use xlink:href="#DejaVuSans-30" x="159.033203"/>
      </g>
     </g>
    </g>
    <g id="ytick_2">
     <g id="line2d_8">
      <path d="M 63.485625 197.318906 
L 255.485625 197.318906 
" clip-path="url(#pb71760ca23)" style="fill: none; stroke: #cccccc; stroke-linecap: round"/>
     </g>
     <g id="text_9">
      <!-- 0.75 -->
      <g style="fill: #262626" transform="translate(22.81375 202.637812) scale(0.14 -0.14)">
       <use xlink:href="#DejaVuSans-30"/>
       <use xlink:href="#DejaVuSans-2e" x="63.623047"/>
       <use xlink:href="#DejaVuSans-37" x="95.410156"/>
       <use xlink:href="#DejaVuSans-35" x="159.033203"/>
      </g>
     </g>
    </g>
    <g id="ytick_3">
     <g id="line2d_9">
      <path d="M 63.485625 160.358906 
L 255.485625 160.358906 
" clip-path="url(#pb71760ca23)" style="fill: none; stroke: #cccccc; stroke-linecap: round"/>
     </g>
     <g id="text_10">
      <!-- 0.80 -->
      <g style="fill: #262626" transform="translate(22.81375 165.677812) scale(0.14 -0.14)">
       <use xlink:href="#DejaVuSans-30"/>
       <use xlink:href="#DejaVuSans-2e" x="63.623047"/>
       <use xlink:href="#DejaVuSans-38" x="95.410156"/>
       <use xlink:href="#DejaVuSans-30" x="159.033203"/>
      </g>
     </g>
    </g>
    <g id="ytick_4">
     <g id="line2d_10">
      <path d="M 63.485625 123.398906 
L 255.485625 123.398906 
" clip-path="url(#pb71760ca23)" style="fill: none; stroke: #cccccc; stroke-linecap: round"/>
     </g>
     <g id="text_11">
      <!-- 0.85 -->
      <g style="fill: #262626" transform="translate(22.81375 128.717812) scale(0.14 -0.14)">
       <use xlink:href="#DejaVuSans-30"/>
       <use xlink:href="#DejaVuSans-2e" x="63.623047"/>
       <use xlink:href="#DejaVuSans-38" x="95.410156"/>
       <use xlink:href="#DejaVuSans-35" x="159.033203"/>
      </g>
     </g>
    </g>
    <g id="ytick_5">
     <g id="line2d_11">
      <path d="M 63.485625 86.438906 
L 255.485625 86.438906 
" clip-path="url(#pb71760ca23)" style="fill: none; stroke: #cccccc; stroke-linecap: round"/>
     </g>
     <g id="text_12">
      <!-- 0.90 -->
      <g style="fill: #262626" transform="translate(22.81375 91.757812) scale(0.14 -0.14)">
       <defs>
        <path id="DejaVuSans-39" d="M 703 97 
L 703 672 
Q 941 559 1184 500 
Q 1428 441 1663 441 
Q 2288 441 2617 861 
Q 2947 1281 2994 2138 
Q 2813 1869 2534 1725 
Q 2256 1581 1919 1581 
Q 1219 1581 811 2004 
Q 403 2428 403 3163 
Q 403 3881 828 4315 
Q 1253 4750 1959 4750 
Q 2769 4750 3195 4129 
Q 3622 3509 3622 2328 
Q 3622 1225 3098 567 
Q 2575 -91 1691 -91 
Q 1453 -91 1209 -44 
Q 966 3 703 97 
z
M 1959 2075 
Q 2384 2075 2632 2365 
Q 2881 2656 2881 3163 
Q 2881 3666 2632 3958 
Q 2384 4250 1959 4250 
Q 1534 4250 1286 3958 
Q 1038 3666 1038 3163 
Q 1038 2656 1286 2365 
Q 1534 2075 1959 2075 
z
" transform="scale(0.015625)"/>
       </defs>
       <use xlink:href="#DejaVuSans-30"/>
       <use xlink:href="#DejaVuSans-2e" x="63.623047"/>
       <use xlink:href="#DejaVuSans-39" x="95.410156"/>
       <use xlink:href="#DejaVuSans-30" x="159.033203"/>
      </g>
     </g>
    </g>
    <g id="ytick_6">
     <g id="line2d_12">
      <path d="M 63.485625 49.478906 
L 255.485625 49.478906 
" clip-path="url(#pb71760ca23)" style="fill: none; stroke: #cccccc; stroke-linecap: round"/>
     </g>
     <g id="text_13">
      <!-- 0.95 -->
      <g style="fill: #262626" transform="translate(22.81375 54.797812) scale(0.14 -0.14)">
       <use xlink:href="#DejaVuSans-30"/>
       <use xlink:href="#DejaVuSans-2e" x="63.623047"/>
       <use xlink:href="#DejaVuSans-39" x="95.410156"/>
       <use xlink:href="#DejaVuSans-35" x="159.033203"/>
      </g>
     </g>
    </g>
    <g id="ytick_7">
     <g id="line2d_13">
      <path d="M 63.485625 12.518906 
L 255.485625 12.518906 
" clip-path="url(#pb71760ca23)" style="fill: none; stroke: #cccccc; stroke-linecap: round"/>
     </g>
     <g id="text_14">
      <!-- 1.00 -->
      <g style="fill: #262626" transform="translate(22.81375 17.837812) scale(0.14 -0.14)">
       <use xlink:href="#DejaVuSans-31"/>
       <use xlink:href="#DejaVuSans-2e" x="63.623047"/>
       <use xlink:href="#DejaVuSans-30" x="95.410156"/>
       <use xlink:href="#DejaVuSans-30" x="159.033203"/>
      </g>
     </g>
    </g>
    <g id="text_15">
     <!-- R2 Score -->
     <g style="fill: #262626" transform="translate(16.318125 150.095156) rotate(-90) scale(0.12 -0.12)">
      <defs>
       <path id="DejaVuSans-52" d="M 2841 2188 
Q 3044 2119 3236 1894 
Q 3428 1669 3622 1275 
L 4263 0 
L 3584 0 
L 2988 1197 
Q 2756 1666 2539 1819 
Q 2322 1972 1947 1972 
L 1259 1972 
L 1259 0 
L 628 0 
L 628 4666 
L 2053 4666 
Q 2853 4666 3247 4331 
Q 3641 3997 3641 3322 
Q 3641 2881 3436 2590 
Q 3231 2300 2841 2188 
z
M 1259 4147 
L 1259 2491 
L 2053 2491 
Q 2509 2491 2742 2702 
Q 2975 2913 2975 3322 
Q 2975 3731 2742 3939 
Q 2509 4147 2053 4147 
L 1259 4147 
z
" transform="scale(0.015625)"/>
       <path id="DejaVuSans-53" d="M 3425 4513 
L 3425 3897 
Q 3066 4069 2747 4153 
Q 2428 4238 2131 4238 
Q 1616 4238 1336 4038 
Q 1056 3838 1056 3469 
Q 1056 3159 1242 3001 
Q 1428 2844 1947 2747 
L 2328 2669 
Q 3034 2534 3370 2195 
Q 3706 1856 3706 1288 
Q 3706 609 3251 259 
Q 2797 -91 1919 -91 
Q 1588 -91 1214 -16 
Q 841 59 441 206 
L 441 856 
Q 825 641 1194 531 
Q 1563 422 1919 422 
Q 2459 422 2753 634 
Q 3047 847 3047 1241 
Q 3047 1584 2836 1778 
Q 2625 1972 2144 2069 
L 1759 2144 
Q 1053 2284 737 2584 
Q 422 2884 422 3419 
Q 422 4038 858 4394 
Q 1294 4750 2059 4750 
Q 2388 4750 2728 4690 
Q 3069 4631 3425 4513 
z
" transform="scale(0.015625)"/>
       <path id="DejaVuSans-63" d="M 3122 3366 
L 3122 2828 
Q 2878 2963 2633 3030 
Q 2388 3097 2138 3097 
Q 1578 3097 1268 2742 
Q 959 2388 959 1747 
Q 959 1106 1268 751 
Q 1578 397 2138 397 
Q 2388 397 2633 464 
Q 2878 531 3122 666 
L 3122 134 
Q 2881 22 2623 -34 
Q 2366 -91 2075 -91 
Q 1284 -91 818 406 
Q 353 903 353 1747 
Q 353 2603 823 3093 
Q 1294 3584 2113 3584 
Q 2378 3584 2631 3529 
Q 2884 3475 3122 3366 
z
" transform="scale(0.015625)"/>
       <path id="DejaVuSans-6f" d="M 1959 3097 
Q 1497 3097 1228 2736 
Q 959 2375 959 1747 
Q 959 1119 1226 758 
Q 1494 397 1959 397 
Q 2419 397 2687 759 
Q 2956 1122 2956 1747 
Q 2956 2369 2687 2733 
Q 2419 3097 1959 3097 
z
M 1959 3584 
Q 2709 3584 3137 3096 
Q 3566 2609 3566 1747 
Q 3566 888 3137 398 
Q 2709 -91 1959 -91 
Q 1206 -91 779 398 
Q 353 888 353 1747 
Q 353 2609 779 3096 
Q 1206 3584 1959 3584 
z
" transform="scale(0.015625)"/>
       <path id="DejaVuSans-72" d="M 2631 2963 
Q 2534 3019 2420 3045 
Q 2306 3072 2169 3072 
Q 1681 3072 1420 2755 
Q 1159 2438 1159 1844 
L 1159 0 
L 581 0 
L 581 3500 
L 1159 3500 
L 1159 2956 
Q 1341 3275 1631 3429 
Q 1922 3584 2338 3584 
Q 2397 3584 2469 3576 
Q 2541 3569 2628 3553 
L 2631 2963 
z
" transform="scale(0.015625)"/>
       <path id="DejaVuSans-65" d="M 3597 1894 
L 3597 1613 
L 953 1613 
Q 991 1019 1311 708 
Q 1631 397 2203 397 
Q 2534 397 2845 478 
Q 3156 559 3463 722 
L 3463 178 
Q 3153 47 2828 -22 
Q 2503 -91 2169 -91 
Q 1331 -91 842 396 
Q 353 884 353 1716 
Q 353 2575 817 3079 
Q 1281 3584 2069 3584 
Q 2775 3584 3186 3129 
Q 3597 2675 3597 1894 
z
M 3022 2063 
Q 3016 2534 2758 2815 
Q 2500 3097 2075 3097 
Q 1594 3097 1305 2825 
Q 1016 2553 972 2059 
L 3022 2063 
z
" transform="scale(0.015625)"/>
      </defs>
      <use xlink:href="#DejaVuSans-52"/>
      <use xlink:href="#DejaVuSans-32" x="69.482422"/>
      <use xlink:href="#DejaVuSans-20" x="133.105469"/>
      <use xlink:href="#DejaVuSans-53" x="164.892578"/>
      <use xlink:href="#DejaVuSans-63" x="228.369141"/>
      <use xlink:href="#DejaVuSans-6f" x="283.349609"/>
      <use xlink:href="#DejaVuSans-72" x="344.53125"/>
      <use xlink:href="#DejaVuSans-65" x="383.394531"/>
     </g>
    </g>
   </g>
   <g id="PolyCollection_1">
    <defs>
     <path id="m890fb4c769" d="M 72.212898 -143.69099 
L 72.212898 -58.74221 
L 81.399501 -183.08886 
L 90.586103 -225.851313 
L 99.772706 -241.877963 
L 108.959309 -249.11215 
L 118.145912 -253.443338 
L 127.332515 -254.303041 
L 136.519118 -256.536889 
L 145.705721 -258.209979 
L 154.892324 -258.989466 
L 164.078926 -260.177384 
L 173.265529 -260.900333 
L 182.452132 -261.496241 
L 191.638735 -262.151764 
L 200.825338 -262.920006 
L 210.011941 -263.046785 
L 219.198544 -262.806101 
L 228.385147 -263.380786 
L 237.571749 -263.840439 
L 246.758352 -263.934714 
L 246.758352 -266.654317 
L 246.758352 -266.654317 
L 237.571749 -266.544884 
L 228.385147 -266.370049 
L 219.198544 -266.249408 
L 210.011941 -266.258669 
L 200.825338 -266.208189 
L 191.638735 -265.947155 
L 182.452132 -265.914885 
L 173.265529 -265.902424 
L 164.078926 -265.339072 
L 154.892324 -265.193268 
L 145.705721 -264.827918 
L 136.519118 -264.135784 
L 127.332515 -263.572214 
L 118.145912 -262.9538 
L 108.959309 -260.688506 
L 99.772706 -258.747756 
L 90.586103 -250.243137 
L 81.399501 -229.151227 
L 72.212898 -143.69099 
z
" style="stroke: #1f77b4; stroke-opacity: 0.2"/>
    </defs>
    <g clip-path="url(#pb71760ca23)">
     <use xlink:href="#m890fb4c769" x="0" y="280.142031" style="fill: #1f77b4; fill-opacity: 0.2; stroke: #1f77b4; stroke-opacity: 0.2"/>
    </g>
   </g>
   <g id="PolyCollection_2">
    <defs>
     <path id="mcc648fcc96" d="M 72.212898 -133.196569 
L 72.212898 -42.309794 
L 81.399501 -165.913228 
L 90.586103 -212.153745 
L 99.772706 -232.727201 
L 108.959309 -239.49512 
L 118.145912 -245.086428 
L 127.332515 -246.300316 
L 136.519118 -249.255318 
L 145.705721 -251.483928 
L 154.892324 -253.989028 
L 164.078926 -253.49631 
L 173.265529 -255.615353 
L 182.452132 -255.491281 
L 191.638735 -257.100537 
L 200.825338 -257.4194 
L 210.011941 -257.873317 
L 219.198544 -258.705092 
L 228.385147 -258.921821 
L 237.571749 -259.44824 
L 246.758352 -260.05629 
L 246.758352 -264.602071 
L 246.758352 -264.602071 
L 237.571749 -264.258284 
L 228.385147 -264.027665 
L 219.198544 -263.960579 
L 210.011941 -263.995318 
L 200.825338 -263.413794 
L 191.638735 -263.15205 
L 182.452132 -262.626933 
L 173.265529 -262.649366 
L 164.078926 -261.855264 
L 154.892324 -262.149797 
L 145.705721 -261.041474 
L 136.519118 -260.173566 
L 127.332515 -258.222111 
L 118.145912 -258.124042 
L 108.959309 -255.183893 
L 99.772706 -252.900887 
L 90.586103 -240.276101 
L 81.399501 -214.966847 
L 72.212898 -133.196569 
z
" style="stroke: #ff7f0e; stroke-opacity: 0.2"/>
    </defs>
    <g clip-path="url(#pb71760ca23)">
     <use xlink:href="#mcc648fcc96" x="0" y="280.142031" style="fill: #ff7f0e; fill-opacity: 0.2; stroke: #ff7f0e; stroke-opacity: 0.2"/>
    </g>
   </g>
   <g id="PolyCollection_3">
    <path d="M 72.212898 189.417989 
L 72.212898 324.741845 
L 81.399501 168.513539 
L 90.586103 83.775833 
L 99.772706 66.326806 
L 108.959309 55.394095 
L 118.145912 47.709721 
L 127.332515 44.083142 
L 136.519118 40.334221 
L 145.705721 37.794142 
L 154.892324 37.097746 
L 164.078926 36.635247 
L 173.265529 32.84924 
L 182.452132 30.449427 
L 191.638735 29.392248 
L 200.825338 28.639711 
L 210.011941 27.649498 
L 219.198544 29.740215 
L 228.385147 26.58078 
L 237.571749 26.591428 
L 246.758352 25.994663 
L 246.758352 18.033339 
L 246.758352 18.033339 
L 237.571749 18.681118 
L 228.385147 18.402784 
L 219.198544 19.609698 
L 210.011941 18.704581 
L 200.825338 19.512762 
L 191.638735 19.990537 
L 182.452132 20.233234 
L 173.265529 21.196482 
L 164.078926 23.171335 
L 154.892324 23.507801 
L 145.705721 23.426023 
L 136.519118 24.420288 
L 127.332515 26.836996 
L 118.145912 26.938507 
L 108.959309 33.149529 
L 99.772706 37.919099 
L 90.586103 46.821866 
L 81.399501 82.416219 
L 72.212898 189.417989 
z
" clip-path="url(#pb71760ca23)" style="fill: #2ca02c; fill-opacity: 0.2; stroke: #2ca02c; stroke-opacity: 0.2"/>
   </g>
   <g id="PolyCollection_4">
    <defs>
     <path id="m4c8484cd2d" d="M 72.212898 -183.220564 
L 72.212898 -161.655096 
L 81.399501 -229.995201 
L 90.586103 -246.951361 
L 99.772706 -254.748423 
L 108.959309 -257.511672 
L 118.145912 -260.350129 
L 127.332515 -260.731122 
L 136.519118 -262.10185 
L 145.705721 -262.73532 
L 154.892324 -263.516223 
L 164.078926 -263.638763 
L 173.265529 -263.901241 
L 182.452132 -264.090154 
L 191.638735 -264.370859 
L 200.825338 -264.486924 
L 210.011941 -264.69347 
L 219.198544 -264.863083 
L 228.385147 -264.96326 
L 237.571749 -265.211216 
L 246.758352 -265.248149 
L 246.758352 -265.993132 
L 246.758352 -265.993132 
L 237.571749 -266.002051 
L 228.385147 -265.757597 
L 219.198544 -265.730402 
L 210.011941 -265.586036 
L 200.825338 -265.478443 
L 191.638735 -265.353295 
L 182.452132 -265.145538 
L 173.265529 -265.045974 
L 164.078926 -264.784339 
L 154.892324 -264.736894 
L 145.705721 -264.250994 
L 136.519118 -263.646475 
L 127.332515 -262.65227 
L 118.145912 -262.38569 
L 108.959309 -260.171327 
L 99.772706 -258.037497 
L 90.586103 -251.645798 
L 81.399501 -238.12962 
L 72.212898 -183.220564 
z
" style="stroke: #1f77b4; stroke-opacity: 0.2"/>
    </defs>
    <g clip-path="url(#pb71760ca23)">
     <use xlink:href="#m4c8484cd2d" x="0" y="280.142031" style="fill: #1f77b4; fill-opacity: 0.2; stroke: #1f77b4; stroke-opacity: 0.2"/>
    </g>
   </g>
   <g id="PolyCollection_5">
    <defs>
     <path id="mf72e7e73ed" d="M 72.212898 -160.061475 
L 72.212898 -133.775125 
L 81.399501 -212.867531 
L 90.586103 -235.794701 
L 99.772706 -245.070185 
L 108.959309 -249.99618 
L 118.145912 -253.218388 
L 127.332515 -254.247816 
L 136.519118 -256.248496 
L 145.705721 -257.91704 
L 154.892324 -258.490468 
L 164.078926 -259.36403 
L 173.265529 -259.638251 
L 182.452132 -260.185039 
L 191.638735 -260.626874 
L 200.825338 -260.872737 
L 210.011941 -261.331422 
L 219.198544 -261.490784 
L 228.385147 -261.710399 
L 237.571749 -262.063863 
L 246.758352 -262.246167 
L 246.758352 -263.531041 
L 246.758352 -263.531041 
L 237.571749 -263.389055 
L 228.385147 -263.124792 
L 219.198544 -262.96267 
L 210.011941 -262.849222 
L 200.825338 -262.56315 
L 191.638735 -262.441239 
L 182.452132 -262.06075 
L 173.265529 -261.725116 
L 164.078926 -261.297729 
L 154.892324 -260.717464 
L 145.705721 -260.222813 
L 136.519118 -259.066642 
L 127.332515 -257.579512 
L 118.145912 -256.913343 
L 108.959309 -253.91306 
L 99.772706 -250.233076 
L 90.586103 -242.620291 
L 81.399501 -226.047942 
L 72.212898 -160.061475 
z
" style="stroke: #ff7f0e; stroke-opacity: 0.2"/>
    </defs>
    <g clip-path="url(#pb71760ca23)">
     <use xlink:href="#mf72e7e73ed" x="0" y="280.142031" style="fill: #ff7f0e; fill-opacity: 0.2; stroke: #ff7f0e; stroke-opacity: 0.2"/>
    </g>
   </g>
   <g id="PolyCollection_6">
    <defs>
     <path id="m82dc80c93d" d="M 72.212898 -129.872733 
L 72.212898 -95.100081 
L 81.399501 -191.528337 
L 90.586103 -220.121131 
L 99.772706 -231.089216 
L 108.959309 -240.366572 
L 118.145912 -244.301909 
L 127.332515 -246.176165 
L 136.519118 -248.12129 
L 145.705721 -251.107612 
L 154.892324 -251.906543 
L 164.078926 -253.110964 
L 173.265529 -253.625031 
L 182.452132 -254.677848 
L 191.638735 -255.164208 
L 200.825338 -255.683663 
L 210.011941 -256.820448 
L 219.198544 -256.960057 
L 228.385147 -257.241188 
L 237.571749 -257.623721 
L 246.758352 -258.282608 
L 246.758352 -260.381875 
L 246.758352 -260.381875 
L 237.571749 -259.846663 
L 228.385147 -259.577902 
L 219.198544 -259.384649 
L 210.011941 -259.31167 
L 200.825338 -258.536972 
L 191.638735 -258.073761 
L 182.452132 -257.827705 
L 173.265529 -257.139329 
L 164.078926 -256.531883 
L 154.892324 -255.588144 
L 145.705721 -255.041566 
L 136.519118 -252.975947 
L 127.332515 -251.254198 
L 118.145912 -250.034538 
L 108.959309 -246.413953 
L 99.772706 -239.725086 
L 90.586103 -231.029695 
L 81.399501 -208.823823 
L 72.212898 -129.872733 
z
" style="stroke: #2ca02c; stroke-opacity: 0.2"/>
    </defs>
    <g clip-path="url(#pb71760ca23)">
     <use xlink:href="#m82dc80c93d" x="0" y="280.142031" style="fill: #2ca02c; fill-opacity: 0.2; stroke: #2ca02c; stroke-opacity: 0.2"/>
    </g>
   </g>
   <g id="line2d_14">
    <path d="M 72.212898 176.756866 
L 81.399501 72.758722 
L 90.586103 40.681404 
L 99.772706 28.827188 
L 108.959309 24.905338 
L 118.145912 21.679922 
L 127.332515 20.830724 
L 136.519118 19.371977 
L 145.705721 18.274502 
L 154.892324 17.681074 
L 164.078926 17.199267 
L 173.265529 16.580829 
L 182.452132 16.176811 
L 191.638735 15.851154 
L 200.825338 15.482833 
L 210.011941 15.339036 
L 219.198544 15.444571 
L 228.385147 15.094746 
L 237.571749 14.898829 
L 246.758352 14.758846 
" clip-path="url(#pb71760ca23)" style="fill: none; stroke-dasharray: 7.4,3.2; stroke-dashoffset: 0; stroke: #1f77b4; stroke-width: 2"/>
   </g>
   <g id="line2d_15">
    <path d="M 72.212898 192.025419 
L 81.399501 88.57759 
L 90.586103 53.099299 
L 99.772706 37.052664 
L 108.959309 32.483585 
L 118.145912 28.271113 
L 127.332515 27.491468 
L 136.519118 25.36567 
L 145.705721 23.572035 
L 154.892324 21.795103 
L 164.078926 22.040385 
L 173.265529 20.640161 
L 182.452132 20.930087 
L 191.638735 19.87729 
L 200.825338 19.400477 
L 210.011941 19.078051 
L 219.198544 18.673118 
L 228.385147 18.650099 
L 237.571749 18.174694 
L 246.758352 17.659785 
" clip-path="url(#pb71760ca23)" style="fill: none; stroke-dasharray: 7.4,3.2; stroke-dashoffset: 0; stroke: #ff7f0e; stroke-width: 2"/>
   </g>
   <g id="line2d_16">
    <path d="M 72.212898 251.599423 
L 81.399501 121.01693 
L 90.586103 64.955162 
L 99.772706 51.421292 
L 108.959309 43.526102 
L 118.145912 36.990467 
L 127.332515 35.042255 
L 136.519118 32.186757 
L 145.705721 30.394792 
L 154.892324 29.921527 
L 164.078926 29.271059 
L 173.265529 26.38764 
L 182.452132 25.29554 
L 191.638735 24.332845 
L 200.825338 24.015997 
L 210.011941 23.005092 
L 219.198544 24.349991 
L 228.385147 22.387445 
L 237.571749 22.398023 
L 246.758352 21.980934 
" clip-path="url(#pb71760ca23)" style="fill: none; stroke-dasharray: 7.4,3.2; stroke-dashoffset: 0; stroke: #2ca02c; stroke-width: 2"/>
   </g>
   <g id="line2d_17"/>
   <g id="line2d_18"/>
   <g id="line2d_19"/>
   <g id="line2d_20">
    <path d="M 72.212898 107.591569 
L 81.399501 45.978965 
L 90.586103 30.792935 
L 99.772706 23.710999 
L 108.959309 21.282181 
L 118.145912 18.798927 
L 127.332515 18.426392 
L 136.519118 17.231957 
L 145.705721 16.646444 
L 154.892324 16.010206 
L 164.078926 15.91646 
L 173.265529 15.649855 
L 182.452132 15.478513 
L 191.638735 15.259902 
L 200.825338 15.150249 
L 210.011941 14.979638 
L 219.198544 14.826979 
L 228.385147 14.753201 
L 237.571749 14.521186 
L 246.758352 14.501461 
" clip-path="url(#pb71760ca23)" style="fill: none; stroke: #1f77b4; stroke-width: 2; stroke-linecap: round"/>
   </g>
   <g id="line2d_21">
    <path d="M 72.212898 132.678509 
L 81.399501 60.231464 
L 90.586103 40.608975 
L 99.772706 32.366111 
L 108.959309 28.125485 
L 118.145912 24.934527 
L 127.332515 24.188732 
L 136.519118 22.500622 
L 145.705721 21.034548 
L 154.892324 20.438169 
L 164.078926 19.786817 
L 173.265529 19.488005 
L 182.452132 19.009303 
L 191.638735 18.615849 
L 200.825338 18.398505 
L 210.011941 18.072634 
L 219.198544 17.899049 
L 228.385147 17.680142 
L 237.571749 17.399666 
L 246.758352 17.259543 
" clip-path="url(#pb71760ca23)" style="fill: none; stroke: #ff7f0e; stroke-width: 2; stroke-linecap: round"/>
   </g>
   <g id="line2d_22">
    <path d="M 72.212898 167.742586 
L 81.399501 80.265737 
L 90.586103 54.613685 
L 99.772706 44.712373 
L 108.959309 36.620188 
L 118.145912 32.89286 
L 127.332515 31.359679 
L 136.519118 29.437121 
L 145.705721 27.13455 
L 154.892324 26.329479 
L 164.078926 25.330836 
L 173.265529 24.70343 
L 182.452132 23.894729 
L 191.638735 23.561959 
L 200.825338 22.984358 
L 210.011941 22.036988 
L 219.198544 21.928222 
L 228.385147 21.748189 
L 237.571749 21.40194 
L 246.758352 20.792185 
" clip-path="url(#pb71760ca23)" style="fill: none; stroke: #2ca02c; stroke-width: 2; stroke-linecap: round"/>
   </g>
   <g id="line2d_23"/>
   <g id="line2d_24"/>
   <g id="line2d_25"/>
   <g id="patch_3">
    <path d="M 63.485625 234.278906 
L 63.485625 12.518906 
" style="fill: none; stroke: #cccccc; stroke-width: 1.25; stroke-linejoin: miter; stroke-linecap: square"/>
   </g>
   <g id="patch_4">
    <path d="M 255.485625 234.278906 
L 255.485625 12.518906 
" style="fill: none; stroke: #cccccc; stroke-width: 1.25; stroke-linejoin: miter; stroke-linecap: square"/>
   </g>
   <g id="patch_5">
    <path d="M 63.485625 234.278906 
L 255.485625 234.278906 
" style="fill: none; stroke: #cccccc; stroke-width: 1.25; stroke-linejoin: miter; stroke-linecap: square"/>
   </g>
   <g id="patch_6">
    <path d="M 63.485625 12.518906 
L 255.485625 12.518906 
" style="fill: none; stroke: #cccccc; stroke-width: 1.25; stroke-linejoin: miter; stroke-linecap: square"/>
   </g>
   <g id="text_16">
    <!-- number of HF samples (d) -->
    <g style="fill: #262626" transform="translate(317.826406 267.542906) scale(0.14 -0.14)">
     <defs>
      <path id="DejaVuSans-6e" d="M 3513 2113 
L 3513 0 
L 2938 0 
L 2938 2094 
Q 2938 2591 2744 2837 
Q 2550 3084 2163 3084 
Q 1697 3084 1428 2787 
Q 1159 2491 1159 1978 
L 1159 0 
L 581 0 
L 581 3500 
L 1159 3500 
L 1159 2956 
Q 1366 3272 1645 3428 
Q 1925 3584 2291 3584 
Q 2894 3584 3203 3211 
Q 3513 2838 3513 2113 
z
" transform="scale(0.015625)"/>
      <path id="DejaVuSans-75" d="M 544 1381 
L 544 3500 
L 1119 3500 
L 1119 1403 
Q 1119 906 1312 657 
Q 1506 409 1894 409 
Q 2359 409 2629 706 
Q 2900 1003 2900 1516 
L 2900 3500 
L 3475 3500 
L 3475 0 
L 2900 0 
L 2900 538 
Q 2691 219 2414 64 
Q 2138 -91 1772 -91 
Q 1169 -91 856 284 
Q 544 659 544 1381 
z
M 1991 3584 
L 1991 3584 
z
" transform="scale(0.015625)"/>
      <path id="DejaVuSans-6d" d="M 3328 2828 
Q 3544 3216 3844 3400 
Q 4144 3584 4550 3584 
Q 5097 3584 5394 3201 
Q 5691 2819 5691 2113 
L 5691 0 
L 5113 0 
L 5113 2094 
Q 5113 2597 4934 2840 
Q 4756 3084 4391 3084 
Q 3944 3084 3684 2787 
Q 3425 2491 3425 1978 
L 3425 0 
L 2847 0 
L 2847 2094 
Q 2847 2600 2669 2842 
Q 2491 3084 2119 3084 
Q 1678 3084 1418 2786 
Q 1159 2488 1159 1978 
L 1159 0 
L 581 0 
L 581 3500 
L 1159 3500 
L 1159 2956 
Q 1356 3278 1631 3431 
Q 1906 3584 2284 3584 
Q 2666 3584 2933 3390 
Q 3200 3197 3328 2828 
z
" transform="scale(0.015625)"/>
      <path id="DejaVuSans-62" d="M 3116 1747 
Q 3116 2381 2855 2742 
Q 2594 3103 2138 3103 
Q 1681 3103 1420 2742 
Q 1159 2381 1159 1747 
Q 1159 1113 1420 752 
Q 1681 391 2138 391 
Q 2594 391 2855 752 
Q 3116 1113 3116 1747 
z
M 1159 2969 
Q 1341 3281 1617 3432 
Q 1894 3584 2278 3584 
Q 2916 3584 3314 3078 
Q 3713 2572 3713 1747 
Q 3713 922 3314 415 
Q 2916 -91 2278 -91 
Q 1894 -91 1617 61 
Q 1341 213 1159 525 
L 1159 0 
L 581 0 
L 581 4863 
L 1159 4863 
L 1159 2969 
z
" transform="scale(0.015625)"/>
      <path id="DejaVuSans-66" d="M 2375 4863 
L 2375 4384 
L 1825 4384 
Q 1516 4384 1395 4259 
Q 1275 4134 1275 3809 
L 1275 3500 
L 2222 3500 
L 2222 3053 
L 1275 3053 
L 1275 0 
L 697 0 
L 697 3053 
L 147 3053 
L 147 3500 
L 697 3500 
L 697 3744 
Q 697 4328 969 4595 
Q 1241 4863 1831 4863 
L 2375 4863 
z
" transform="scale(0.015625)"/>
      <path id="DejaVuSans-48" d="M 628 4666 
L 1259 4666 
L 1259 2753 
L 3553 2753 
L 3553 4666 
L 4184 4666 
L 4184 0 
L 3553 0 
L 3553 2222 
L 1259 2222 
L 1259 0 
L 628 0 
L 628 4666 
z
" transform="scale(0.015625)"/>
      <path id="DejaVuSans-46" d="M 628 4666 
L 3309 4666 
L 3309 4134 
L 1259 4134 
L 1259 2759 
L 3109 2759 
L 3109 2228 
L 1259 2228 
L 1259 0 
L 628 0 
L 628 4666 
z
" transform="scale(0.015625)"/>
      <path id="DejaVuSans-73" d="M 2834 3397 
L 2834 2853 
Q 2591 2978 2328 3040 
Q 2066 3103 1784 3103 
Q 1356 3103 1142 2972 
Q 928 2841 928 2578 
Q 928 2378 1081 2264 
Q 1234 2150 1697 2047 
L 1894 2003 
Q 2506 1872 2764 1633 
Q 3022 1394 3022 966 
Q 3022 478 2636 193 
Q 2250 -91 1575 -91 
Q 1294 -91 989 -36 
Q 684 19 347 128 
L 347 722 
Q 666 556 975 473 
Q 1284 391 1588 391 
Q 1994 391 2212 530 
Q 2431 669 2431 922 
Q 2431 1156 2273 1281 
Q 2116 1406 1581 1522 
L 1381 1569 
Q 847 1681 609 1914 
Q 372 2147 372 2553 
Q 372 3047 722 3315 
Q 1072 3584 1716 3584 
Q 2034 3584 2315 3537 
Q 2597 3491 2834 3397 
z
" transform="scale(0.015625)"/>
      <path id="DejaVuSans-61" d="M 2194 1759 
Q 1497 1759 1228 1600 
Q 959 1441 959 1056 
Q 959 750 1161 570 
Q 1363 391 1709 391 
Q 2188 391 2477 730 
Q 2766 1069 2766 1631 
L 2766 1759 
L 2194 1759 
z
M 3341 1997 
L 3341 0 
L 2766 0 
L 2766 531 
Q 2569 213 2275 61 
Q 1981 -91 1556 -91 
Q 1019 -91 701 211 
Q 384 513 384 1019 
Q 384 1609 779 1909 
Q 1175 2209 1959 2209 
L 2766 2209 
L 2766 2266 
Q 2766 2663 2505 2880 
Q 2244 3097 1772 3097 
Q 1472 3097 1187 3025 
Q 903 2953 641 2809 
L 641 3341 
Q 956 3463 1253 3523 
Q 1550 3584 1831 3584 
Q 2591 3584 2966 3190 
Q 3341 2797 3341 1997 
z
" transform="scale(0.015625)"/>
      <path id="DejaVuSans-70" d="M 1159 525 
L 1159 -1331 
L 581 -1331 
L 581 3500 
L 1159 3500 
L 1159 2969 
Q 1341 3281 1617 3432 
Q 1894 3584 2278 3584 
Q 2916 3584 3314 3078 
Q 3713 2572 3713 1747 
Q 3713 922 3314 415 
Q 2916 -91 2278 -91 
Q 1894 -91 1617 61 
Q 1341 213 1159 525 
z
M 3116 1747 
Q 3116 2381 2855 2742 
Q 2594 3103 2138 3103 
Q 1681 3103 1420 2742 
Q 1159 2381 1159 1747 
Q 1159 1113 1420 752 
Q 1681 391 2138 391 
Q 2594 391 2855 752 
Q 3116 1113 3116 1747 
z
" transform="scale(0.015625)"/>
      <path id="DejaVuSans-6c" d="M 603 4863 
L 1178 4863 
L 1178 0 
L 603 0 
L 603 4863 
z
" transform="scale(0.015625)"/>
      <path id="DejaVuSans-28" d="M 1984 4856 
Q 1566 4138 1362 3434 
Q 1159 2731 1159 2009 
Q 1159 1288 1364 580 
Q 1569 -128 1984 -844 
L 1484 -844 
Q 1016 -109 783 600 
Q 550 1309 550 2009 
Q 550 2706 781 3412 
Q 1013 4119 1484 4856 
L 1984 4856 
z
" transform="scale(0.015625)"/>
      <path id="DejaVuSans-64" d="M 2906 2969 
L 2906 4863 
L 3481 4863 
L 3481 0 
L 2906 0 
L 2906 525 
Q 2725 213 2448 61 
Q 2172 -91 1784 -91 
Q 1150 -91 751 415 
Q 353 922 353 1747 
Q 353 2572 751 3078 
Q 1150 3584 1784 3584 
Q 2172 3584 2448 3432 
Q 2725 3281 2906 2969 
z
M 947 1747 
Q 947 1113 1208 752 
Q 1469 391 1925 391 
Q 2381 391 2643 752 
Q 2906 1113 2906 1747 
Q 2906 2381 2643 2742 
Q 2381 3103 1925 3103 
Q 1469 3103 1208 2742 
Q 947 2381 947 1747 
z
" transform="scale(0.015625)"/>
      <path id="DejaVuSans-29" d="M 513 4856 
L 1013 4856 
Q 1481 4119 1714 3412 
Q 1947 2706 1947 2009 
Q 1947 1309 1714 600 
Q 1481 -109 1013 -844 
L 513 -844 
Q 928 -128 1133 580 
Q 1338 1288 1338 2009 
Q 1338 2731 1133 3434 
Q 928 4138 513 4856 
z
" transform="scale(0.015625)"/>
     </defs>
     <use xlink:href="#DejaVuSans-6e"/>
     <use xlink:href="#DejaVuSans-75" x="63.378906"/>
     <use xlink:href="#DejaVuSans-6d" x="126.757812"/>
     <use xlink:href="#DejaVuSans-62" x="224.169922"/>
     <use xlink:href="#DejaVuSans-65" x="287.646484"/>
     <use xlink:href="#DejaVuSans-72" x="349.169922"/>
     <use xlink:href="#DejaVuSans-20" x="390.283203"/>
     <use xlink:href="#DejaVuSans-6f" x="422.070312"/>
     <use xlink:href="#DejaVuSans-66" x="483.251953"/>
     <use xlink:href="#DejaVuSans-20" x="518.457031"/>
     <use xlink:href="#DejaVuSans-48" x="550.244141"/>
     <use xlink:href="#DejaVuSans-46" x="625.439453"/>
     <use xlink:href="#DejaVuSans-20" x="682.958984"/>
     <use xlink:href="#DejaVuSans-73" x="714.746094"/>
     <use xlink:href="#DejaVuSans-61" x="766.845703"/>
     <use xlink:href="#DejaVuSans-6d" x="828.125"/>
     <use xlink:href="#DejaVuSans-70" x="925.537109"/>
     <use xlink:href="#DejaVuSans-6c" x="989.013672"/>
     <use xlink:href="#DejaVuSans-65" x="1016.796875"/>
     <use xlink:href="#DejaVuSans-73" x="1078.320312"/>
     <use xlink:href="#DejaVuSans-20" x="1130.419922"/>
     <use xlink:href="#DejaVuSans-28" x="1162.207031"/>
     <use xlink:href="#DejaVuSans-64" x="1201.220703"/>
     <use xlink:href="#DejaVuSans-29" x="1264.697266"/>
    </g>
   </g>
   <g id="legend_1">
    <g id="patch_7">
     <path d="M 186.895625 228.778906 
L 247.785625 228.778906 
Q 249.985625 228.778906 249.985625 226.578906 
L 249.985625 113.355781 
Q 249.985625 111.155781 247.785625 111.155781 
L 186.895625 111.155781 
Q 184.695625 111.155781 184.695625 113.355781 
L 184.695625 226.578906 
Q 184.695625 228.778906 186.895625 228.778906 
z
" style="fill: #ffffff; opacity: 0.8; stroke: #cccccc; stroke-linejoin: miter"/>
    </g>
    <g id="text_17">
     <!-- noise_std -->
     <g style="fill: #262626" transform="translate(189.095625 124.673906) scale(0.12 -0.12)">
      <defs>
       <path id="DejaVuSans-69" d="M 603 3500 
L 1178 3500 
L 1178 0 
L 603 0 
L 603 3500 
z
M 603 4863 
L 1178 4863 
L 1178 4134 
L 603 4134 
L 603 4863 
z
" transform="scale(0.015625)"/>
       <path id="DejaVuSans-5f" d="M 3263 -1063 
L 3263 -1509 
L -63 -1509 
L -63 -1063 
L 3263 -1063 
z
" transform="scale(0.015625)"/>
       <path id="DejaVuSans-74" d="M 1172 4494 
L 1172 3500 
L 2356 3500 
L 2356 3053 
L 1172 3053 
L 1172 1153 
Q 1172 725 1289 603 
Q 1406 481 1766 481 
L 2356 481 
L 2356 0 
L 1766 0 
Q 1100 0 847 248 
Q 594 497 594 1153 
L 594 3053 
L 172 3053 
L 172 3500 
L 594 3500 
L 594 4494 
L 1172 4494 
z
" transform="scale(0.015625)"/>
      </defs>
      <use xlink:href="#DejaVuSans-6e"/>
      <use xlink:href="#DejaVuSans-6f" x="63.378906"/>
      <use xlink:href="#DejaVuSans-69" x="124.560547"/>
      <use xlink:href="#DejaVuSans-73" x="152.34375"/>
      <use xlink:href="#DejaVuSans-65" x="204.443359"/>
      <use xlink:href="#DejaVuSans-5f" x="265.966797"/>
      <use xlink:href="#DejaVuSans-73" x="315.966797"/>
      <use xlink:href="#DejaVuSans-74" x="368.066406"/>
      <use xlink:href="#DejaVuSans-64" x="407.275391"/>
     </g>
    </g>
    <g id="line2d_26">
     <path d="M 193.193906 137.511562 
L 204.193906 137.511562 
L 215.193906 137.511562 
" style="fill: none; stroke-dasharray: 7.4,3.2; stroke-dashoffset: 0; stroke: #1f77b4; stroke-width: 2"/>
    </g>
    <g id="text_18">
     <!-- 0.1 -->
     <g style="fill: #262626" transform="translate(223.993906 141.361562) scale(0.11 -0.11)">
      <use xlink:href="#DejaVuSans-30"/>
      <use xlink:href="#DejaVuSans-2e" x="63.623047"/>
      <use xlink:href="#DejaVuSans-31" x="95.410156"/>
     </g>
    </g>
    <g id="line2d_27">
     <path d="M 193.193906 153.6575 
L 204.193906 153.6575 
L 215.193906 153.6575 
" style="fill: none; stroke-dasharray: 7.4,3.2; stroke-dashoffset: 0; stroke: #ff7f0e; stroke-width: 2"/>
    </g>
    <g id="text_19">
     <!-- 0.3 -->
     <g style="fill: #262626" transform="translate(223.993906 157.5075) scale(0.11 -0.11)">
      <defs>
       <path id="DejaVuSans-33" d="M 2597 2516 
Q 3050 2419 3304 2112 
Q 3559 1806 3559 1356 
Q 3559 666 3084 287 
Q 2609 -91 1734 -91 
Q 1441 -91 1130 -33 
Q 819 25 488 141 
L 488 750 
Q 750 597 1062 519 
Q 1375 441 1716 441 
Q 2309 441 2620 675 
Q 2931 909 2931 1356 
Q 2931 1769 2642 2001 
Q 2353 2234 1838 2234 
L 1294 2234 
L 1294 2753 
L 1863 2753 
Q 2328 2753 2575 2939 
Q 2822 3125 2822 3475 
Q 2822 3834 2567 4026 
Q 2313 4219 1838 4219 
Q 1578 4219 1281 4162 
Q 984 4106 628 3988 
L 628 4550 
Q 988 4650 1302 4700 
Q 1616 4750 1894 4750 
Q 2613 4750 3031 4423 
Q 3450 4097 3450 3541 
Q 3450 3153 3228 2886 
Q 3006 2619 2597 2516 
z
" transform="scale(0.015625)"/>
      </defs>
      <use xlink:href="#DejaVuSans-30"/>
      <use xlink:href="#DejaVuSans-2e" x="63.623047"/>
      <use xlink:href="#DejaVuSans-33" x="95.410156"/>
     </g>
    </g>
    <g id="line2d_28">
     <path d="M 193.193906 169.803438 
L 204.193906 169.803438 
L 215.193906 169.803438 
" style="fill: none; stroke-dasharray: 7.4,3.2; stroke-dashoffset: 0; stroke: #2ca02c; stroke-width: 2"/>
    </g>
    <g id="text_20">
     <!-- 0.5 -->
     <g style="fill: #262626" transform="translate(223.993906 173.653437) scale(0.11 -0.11)">
      <use xlink:href="#DejaVuSans-30"/>
      <use xlink:href="#DejaVuSans-2e" x="63.623047"/>
      <use xlink:href="#DejaVuSans-35" x="95.410156"/>
     </g>
    </g>
    <g id="line2d_29">
     <path d="M 193.193906 185.949375 
L 204.193906 185.949375 
L 215.193906 185.949375 
" style="fill: none; stroke: #1f77b4; stroke-width: 2; stroke-linecap: round"/>
    </g>
    <g id="text_21">
     <!-- 0.1 -->
     <g style="fill: #262626" transform="translate(223.993906 189.799375) scale(0.11 -0.11)">
      <use xlink:href="#DejaVuSans-30"/>
      <use xlink:href="#DejaVuSans-2e" x="63.623047"/>
      <use xlink:href="#DejaVuSans-31" x="95.410156"/>
     </g>
    </g>
    <g id="line2d_30">
     <path d="M 193.193906 202.095313 
L 204.193906 202.095313 
L 215.193906 202.095313 
" style="fill: none; stroke: #ff7f0e; stroke-width: 2; stroke-linecap: round"/>
    </g>
    <g id="text_22">
     <!-- 0.3 -->
     <g style="fill: #262626" transform="translate(223.993906 205.945312) scale(0.11 -0.11)">
      <use xlink:href="#DejaVuSans-30"/>
      <use xlink:href="#DejaVuSans-2e" x="63.623047"/>
      <use xlink:href="#DejaVuSans-33" x="95.410156"/>
     </g>
    </g>
    <g id="line2d_31">
     <path d="M 193.193906 218.24125 
L 204.193906 218.24125 
L 215.193906 218.24125 
" style="fill: none; stroke: #2ca02c; stroke-width: 2; stroke-linecap: round"/>
    </g>
    <g id="text_23">
     <!-- 0.5 -->
     <g style="fill: #262626" transform="translate(223.993906 222.09125) scale(0.11 -0.11)">
      <use xlink:href="#DejaVuSans-30"/>
      <use xlink:href="#DejaVuSans-2e" x="63.623047"/>
      <use xlink:href="#DejaVuSans-35" x="95.410156"/>
     </g>
    </g>
   </g>
  </g>
  <g id="axes_2">
   <g id="patch_8">
    <path d="M 313.085625 234.278906 
L 505.085625 234.278906 
L 505.085625 12.518906 
L 313.085625 12.518906 
z
" style="fill: #ffffff"/>
   </g>
   <g id="matplotlib.axis_3">
    <g id="xtick_7">
     <g id="line2d_32">
      <path d="M 321.812898 234.278906 
L 321.812898 12.518906 
" clip-path="url(#p245e7558ee)" style="fill: none; stroke: #cccccc; stroke-linecap: round"/>
     </g>
     <g id="text_24">
      <!-- 5 -->
      <g style="fill: #262626" transform="translate(317.359148 254.416719) scale(0.14 -0.14)">
       <use xlink:href="#DejaVuSans-35"/>
      </g>
     </g>
    </g>
    <g id="xtick_8">
     <g id="line2d_33">
      <path d="M 349.372706 234.278906 
L 349.372706 12.518906 
" clip-path="url(#p245e7558ee)" style="fill: none; stroke: #cccccc; stroke-linecap: round"/>
     </g>
     <g id="text_25">
      <!-- 20 -->
      <g style="fill: #262626" transform="translate(340.465206 254.416719) scale(0.14 -0.14)">
       <use xlink:href="#DejaVuSans-32"/>
       <use xlink:href="#DejaVuSans-30" x="63.623047"/>
      </g>
     </g>
    </g>
    <g id="xtick_9">
     <g id="line2d_34">
      <path d="M 386.119118 234.278906 
L 386.119118 12.518906 
" clip-path="url(#p245e7558ee)" style="fill: none; stroke: #cccccc; stroke-linecap: round"/>
     </g>
     <g id="text_26">
      <!-- 40 -->
      <g style="fill: #262626" transform="translate(377.211618 254.416719) scale(0.14 -0.14)">
       <use xlink:href="#DejaVuSans-34"/>
       <use xlink:href="#DejaVuSans-30" x="63.623047"/>
      </g>
     </g>
    </g>
    <g id="xtick_10">
     <g id="line2d_35">
      <path d="M 422.865529 234.278906 
L 422.865529 12.518906 
" clip-path="url(#p245e7558ee)" style="fill: none; stroke: #cccccc; stroke-linecap: round"/>
     </g>
     <g id="text_27">
      <!-- 60 -->
      <g style="fill: #262626" transform="translate(413.958029 254.416719) scale(0.14 -0.14)">
       <use xlink:href="#DejaVuSans-36"/>
       <use xlink:href="#DejaVuSans-30" x="63.623047"/>
      </g>
     </g>
    </g>
    <g id="xtick_11">
     <g id="line2d_36">
      <path d="M 459.611941 234.278906 
L 459.611941 12.518906 
" clip-path="url(#p245e7558ee)" style="fill: none; stroke: #cccccc; stroke-linecap: round"/>
     </g>
     <g id="text_28">
      <!-- 80 -->
      <g style="fill: #262626" transform="translate(450.704441 254.416719) scale(0.14 -0.14)">
       <use xlink:href="#DejaVuSans-38"/>
       <use xlink:href="#DejaVuSans-30" x="63.623047"/>
      </g>
     </g>
    </g>
    <g id="xtick_12">
     <g id="line2d_37">
      <path d="M 496.358352 234.278906 
L 496.358352 12.518906 
" clip-path="url(#p245e7558ee)" style="fill: none; stroke: #cccccc; stroke-linecap: round"/>
     </g>
     <g id="text_29">
      <!-- 100 -->
      <g style="fill: #262626" transform="translate(482.997102 254.416719) scale(0.14 -0.14)">
       <use xlink:href="#DejaVuSans-31"/>
       <use xlink:href="#DejaVuSans-30" x="63.623047"/>
       <use xlink:href="#DejaVuSans-30" x="127.246094"/>
      </g>
     </g>
    </g>
    <g id="text_30">
     <!--   -->
     <g style="fill: #262626" transform="translate(407.17875 270.446406) scale(0.12 -0.12)">
      <use xlink:href="#DejaVuSans-20"/>
     </g>
    </g>
   </g>
   <g id="matplotlib.axis_4">
    <g id="ytick_8">
     <g id="line2d_38">
      <path d="M 313.085625 234.278906 
L 505.085625 234.278906 
" clip-path="url(#p245e7558ee)" style="fill: none; stroke: #cccccc; stroke-linecap: round"/>
     </g>
     <g id="text_31">
      <!-- 0.0 -->
      <g style="fill: #262626" transform="translate(281.32125 239.597813) scale(0.14 -0.14)">
       <use xlink:href="#DejaVuSans-30"/>
       <use xlink:href="#DejaVuSans-2e" x="63.623047"/>
       <use xlink:href="#DejaVuSans-30" x="95.410156"/>
      </g>
     </g>
    </g>
    <g id="ytick_9">
     <g id="line2d_39">
      <path d="M 313.085625 189.926906 
L 505.085625 189.926906 
" clip-path="url(#p245e7558ee)" style="fill: none; stroke: #cccccc; stroke-linecap: round"/>
     </g>
     <g id="text_32">
      <!-- 0.2 -->
      <g style="fill: #262626" transform="translate(281.32125 195.245812) scale(0.14 -0.14)">
       <use xlink:href="#DejaVuSans-30"/>
       <use xlink:href="#DejaVuSans-2e" x="63.623047"/>
       <use xlink:href="#DejaVuSans-32" x="95.410156"/>
      </g>
     </g>
    </g>
    <g id="ytick_10">
     <g id="line2d_40">
      <path d="M 313.085625 145.574906 
L 505.085625 145.574906 
" clip-path="url(#p245e7558ee)" style="fill: none; stroke: #cccccc; stroke-linecap: round"/>
     </g>
     <g id="text_33">
      <!-- 0.4 -->
      <g style="fill: #262626" transform="translate(281.32125 150.893812) scale(0.14 -0.14)">
       <use xlink:href="#DejaVuSans-30"/>
       <use xlink:href="#DejaVuSans-2e" x="63.623047"/>
       <use xlink:href="#DejaVuSans-34" x="95.410156"/>
      </g>
     </g>
    </g>
    <g id="ytick_11">
     <g id="line2d_41">
      <path d="M 313.085625 101.222906 
L 505.085625 101.222906 
" clip-path="url(#p245e7558ee)" style="fill: none; stroke: #cccccc; stroke-linecap: round"/>
     </g>
     <g id="text_34">
      <!-- 0.6 -->
      <g style="fill: #262626" transform="translate(281.32125 106.541812) scale(0.14 -0.14)">
       <use xlink:href="#DejaVuSans-30"/>
       <use xlink:href="#DejaVuSans-2e" x="63.623047"/>
       <use xlink:href="#DejaVuSans-36" x="95.410156"/>
      </g>
     </g>
    </g>
    <g id="ytick_12">
     <g id="line2d_42">
      <path d="M 313.085625 56.870906 
L 505.085625 56.870906 
" clip-path="url(#p245e7558ee)" style="fill: none; stroke: #cccccc; stroke-linecap: round"/>
     </g>
     <g id="text_35">
      <!-- 0.8 -->
      <g style="fill: #262626" transform="translate(281.32125 62.189812) scale(0.14 -0.14)">
       <use xlink:href="#DejaVuSans-30"/>
       <use xlink:href="#DejaVuSans-2e" x="63.623047"/>
       <use xlink:href="#DejaVuSans-38" x="95.410156"/>
      </g>
     </g>
    </g>
    <g id="ytick_13">
     <g id="line2d_43">
      <path d="M 313.085625 12.518906 
L 505.085625 12.518906 
" clip-path="url(#p245e7558ee)" style="fill: none; stroke: #cccccc; stroke-linecap: round"/>
     </g>
     <g id="text_36">
      <!-- 1.0 -->
      <g style="fill: #262626" transform="translate(281.32125 17.837812) scale(0.14 -0.14)">
       <use xlink:href="#DejaVuSans-31"/>
       <use xlink:href="#DejaVuSans-2e" x="63.623047"/>
       <use xlink:href="#DejaVuSans-30" x="95.410156"/>
      </g>
     </g>
    </g>
    <g id="text_37">
     <!-- absolute noise error -->
     <g style="fill: #262626" transform="translate(274.825625 183.489844) rotate(-90) scale(0.12 -0.12)">
      <use xlink:href="#DejaVuSans-61"/>
      <use xlink:href="#DejaVuSans-62" x="61.279297"/>
      <use xlink:href="#DejaVuSans-73" x="124.755859"/>
      <use xlink:href="#DejaVuSans-6f" x="176.855469"/>
      <use xlink:href="#DejaVuSans-6c" x="238.037109"/>
      <use xlink:href="#DejaVuSans-75" x="265.820312"/>
      <use xlink:href="#DejaVuSans-74" x="329.199219"/>
      <use xlink:href="#DejaVuSans-65" x="368.408203"/>
      <use xlink:href="#DejaVuSans-20" x="429.931641"/>
      <use xlink:href="#DejaVuSans-6e" x="461.71875"/>
      <use xlink:href="#DejaVuSans-6f" x="525.097656"/>
      <use xlink:href="#DejaVuSans-69" x="586.279297"/>
      <use xlink:href="#DejaVuSans-73" x="614.0625"/>
      <use xlink:href="#DejaVuSans-65" x="666.162109"/>
      <use xlink:href="#DejaVuSans-20" x="727.685547"/>
      <use xlink:href="#DejaVuSans-65" x="759.472656"/>
      <use xlink:href="#DejaVuSans-72" x="820.996094"/>
      <use xlink:href="#DejaVuSans-72" x="860.359375"/>
      <use xlink:href="#DejaVuSans-6f" x="899.222656"/>
      <use xlink:href="#DejaVuSans-72" x="960.404297"/>
     </g>
    </g>
   </g>
   <g id="PolyCollection_7">
    <path d="M 321.812898 -1158.546682 
L 321.812898 61.436398 
L 330.999501 185.80788 
L 340.186103 196.921129 
L 349.372706 211.891818 
L 358.559309 216.098314 
L 367.745912 214.771767 
L 376.932515 218.157323 
L 386.119118 219.295945 
L 395.305721 222.281388 
L 404.492324 227.138412 
L 413.678926 227.201609 
L 422.865529 227.625284 
L 432.052132 228.89195 
L 441.238735 229.369176 
L 450.425338 228.251213 
L 459.611941 227.626924 
L 468.798544 229.848454 
L 477.985147 229.392499 
L 487.171749 230.013231 
L 496.358352 230.043555 
L 496.358352 220.104544 
L 496.358352 220.104544 
L 487.171749 220.017375 
L 477.985147 219.00512 
L 468.798544 220.138255 
L 459.611941 213.525985 
L 450.425338 215.752001 
L 441.238735 219.236097 
L 432.052132 219.05455 
L 422.865529 217.859623 
L 413.678926 215.048135 
L 404.492324 214.077604 
L 395.305721 203.182511 
L 386.119118 200.155504 
L 376.932515 197.313834 
L 367.745912 177.459206 
L 358.559309 192.702756 
L 349.372706 98.654527 
L 340.186103 97.077931 
L 330.999501 -0.263206 
L 321.812898 -1158.546682 
z
" clip-path="url(#p245e7558ee)" style="fill: #1f77b4; fill-opacity: 0.2; stroke: #1f77b4; stroke-opacity: 0.2"/>
   </g>
   <g id="PolyCollection_8">
    <path d="M 321.812898 -1142.225604 
L 321.812898 44.952524 
L 330.999501 175.069948 
L 340.186103 194.066174 
L 349.372706 212.687429 
L 358.559309 216.19507 
L 367.745912 217.766753 
L 376.932515 218.347809 
L 386.119118 219.479581 
L 395.305721 222.974067 
L 404.492324 223.364174 
L 413.678926 223.972064 
L 422.865529 223.142243 
L 432.052132 226.072117 
L 441.238735 226.53876 
L 450.425338 225.641229 
L 459.611941 226.324679 
L 468.798544 228.109885 
L 477.985147 228.155053 
L 487.171749 228.540554 
L 496.358352 229.104853 
L 496.358352 223.021347 
L 496.358352 223.021347 
L 487.171749 220.73983 
L 477.985147 219.001716 
L 468.798544 220.224654 
L 459.611941 215.89242 
L 450.425338 214.905937 
L 441.238735 216.415231 
L 432.052132 213.405552 
L 422.865529 210.137647 
L 413.678926 210.996921 
L 404.492324 210.563463 
L 395.305721 210.025334 
L 386.119118 206.336225 
L 376.932515 199.919591 
L 367.745912 184.316707 
L 358.559309 200.662915 
L 349.372706 111.579999 
L 340.186103 96.452962 
L 330.999501 -7.993166 
L 321.812898 -1142.225604 
z
" clip-path="url(#p245e7558ee)" style="fill: #ff7f0e; fill-opacity: 0.2; stroke: #ff7f0e; stroke-opacity: 0.2"/>
   </g>
   <g id="PolyCollection_9">
    <path d="M 321.812898 -1186.174607 
L 321.812898 29.938624 
L 330.999501 165.586021 
L 340.186103 191.131373 
L 349.372706 209.964782 
L 358.559309 215.906622 
L 367.745912 215.254996 
L 376.932515 217.645028 
L 386.119118 221.401002 
L 395.305721 221.033204 
L 404.492324 222.073695 
L 413.678926 221.336158 
L 422.865529 224.756509 
L 432.052132 224.371122 
L 441.238735 224.072855 
L 450.425338 225.326944 
L 459.611941 225.272205 
L 468.798544 224.244527 
L 477.985147 225.097198 
L 487.171749 226.075361 
L 496.358352 225.444316 
L 496.358352 215.750913 
L 496.358352 215.750913 
L 487.171749 217.060585 
L 477.985147 215.5592 
L 468.798544 214.981873 
L 459.611941 217.337901 
L 450.425338 215.125839 
L 441.238735 214.795574 
L 432.052132 214.832133 
L 422.865529 216.067335 
L 413.678926 210.816938 
L 404.492324 211.89443 
L 395.305721 210.581762 
L 386.119118 209.951326 
L 376.932515 202.288277 
L 367.745912 184.683318 
L 358.559309 199.659131 
L 349.372706 102.643419 
L 340.186103 103.19334 
L 330.999501 -9.055766 
L 321.812898 -1186.174607 
z
" clip-path="url(#p245e7558ee)" style="fill: #2ca02c; fill-opacity: 0.2; stroke: #2ca02c; stroke-opacity: 0.2"/>
   </g>
   <g id="PolyCollection_10">
    <defs>
     <path id="m8bd9288f91" d="M 321.812898 -294.881103 
L 321.812898 -196.047665 
L 330.999501 -103.222025 
L 340.186103 -87.541596 
L 349.372706 -83.017321 
L 358.559309 -69.050526 
L 367.745912 -71.409265 
L 376.932515 -65.425205 
L 386.119118 -61.407248 
L 395.305721 -61.175117 
L 404.492324 -60.765722 
L 413.678926 -60.713666 
L 422.865529 -60.777812 
L 432.052132 -60.491654 
L 441.238735 -60.092614 
L 450.425338 -58.196452 
L 459.611941 -59.376667 
L 468.798544 -55.767606 
L 477.985147 -54.92979 
L 487.171749 -55.071033 
L 496.358352 -54.466464 
L 496.358352 -57.188993 
L 496.358352 -57.188993 
L 487.171749 -57.960278 
L 477.985147 -57.694124 
L 468.798544 -58.944261 
L 459.611941 -63.084749 
L 450.425338 -61.701696 
L 441.238735 -63.886824 
L 432.052132 -64.353119 
L 422.865529 -65.077895 
L 413.678926 -64.602936 
L 404.492324 -64.796582 
L 395.305721 -64.996909 
L 386.119118 -65.394008 
L 376.932515 -70.696031 
L 367.745912 -80.008723 
L 358.559309 -75.347506 
L 349.372706 -120.883977 
L 340.186103 -109.365693 
L 330.999501 -151.97567 
L 321.812898 -294.881103 
z
" style="stroke: #1f77b4; stroke-opacity: 0.2"/>
    </defs>
    <g clip-path="url(#p245e7558ee)">
     <use xlink:href="#m8bd9288f91" x="0" y="280.142031" style="fill: #1f77b4; fill-opacity: 0.2; stroke: #1f77b4; stroke-opacity: 0.2"/>
    </g>
   </g>
   <g id="PolyCollection_11">
    <defs>
     <path id="me60a5a1061" d="M 321.812898 -307.995542 
L 321.812898 -208.843685 
L 330.999501 -108.50683 
L 340.186103 -90.656403 
L 349.372706 -82.77979 
L 358.559309 -69.11353 
L 367.745912 -70.013843 
L 376.932515 -64.801028 
L 386.119118 -61.266245 
L 395.305721 -60.362759 
L 404.492324 -59.928596 
L 413.678926 -60.150033 
L 422.865529 -60.109362 
L 432.052132 -59.354986 
L 441.238735 -59.372873 
L 450.425338 -58.607198 
L 459.611941 -58.150639 
L 468.798544 -58.576038 
L 477.985147 -58.303924 
L 487.171749 -57.81396 
L 496.358352 -57.810466 
L 496.358352 -60.409491 
L 496.358352 -60.409491 
L 487.171749 -60.397372 
L 477.985147 -60.776011 
L 468.798544 -61.239908 
L 459.611941 -60.695703 
L 450.425338 -61.339777 
L 441.238735 -62.089883 
L 432.052132 -62.207451 
L 422.865529 -62.791413 
L 413.678926 -63.049571 
L 404.492324 -62.714312 
L 395.305721 -63.256942 
L 386.119118 -64.485204 
L 376.932515 -69.607882 
L 367.745912 -78.122222 
L 358.559309 -74.995911 
L 349.372706 -121.283161 
L 340.186103 -110.599408 
L 330.999501 -154.539569 
L 321.812898 -307.995542 
z
" style="stroke: #ff7f0e; stroke-opacity: 0.2"/>
    </defs>
    <g clip-path="url(#p245e7558ee)">
     <use xlink:href="#me60a5a1061" x="0" y="280.142031" style="fill: #ff7f0e; fill-opacity: 0.2; stroke: #ff7f0e; stroke-opacity: 0.2"/>
    </g>
   </g>
   <g id="PolyCollection_12">
    <path d="M 321.812898 -62.277942 
L 321.812898 34.592603 
L 330.999501 170.804312 
L 340.186103 186.826727 
L 349.372706 195.800639 
L 358.559309 210.99487 
L 367.745912 207.701525 
L 376.932515 213.696584 
L 386.119118 218.036964 
L 395.305721 219.596772 
L 404.492324 218.424641 
L 413.678926 219.780751 
L 422.865529 220.405138 
L 432.052132 220.261507 
L 441.238735 220.520099 
L 450.425338 221.665017 
L 459.611941 221.831999 
L 468.798544 222.09024 
L 477.985147 221.753722 
L 487.171749 222.065156 
L 496.358352 222.090475 
L 496.358352 219.986042 
L 496.358352 219.986042 
L 487.171749 220.035582 
L 477.985147 219.581628 
L 468.798544 219.983686 
L 459.611941 219.576774 
L 450.425338 219.439224 
L 441.238735 218.248734 
L 432.052132 217.759624 
L 422.865529 217.916032 
L 413.678926 217.261451 
L 404.492324 215.662113 
L 395.305721 216.465275 
L 386.119118 214.988651 
L 376.932515 209.281971 
L 367.745912 197.58833 
L 358.559309 205.400775 
L 349.372706 160.843817 
L 340.186103 167.207851 
L 330.999501 137.884755 
L 321.812898 -62.277942 
z
" clip-path="url(#p245e7558ee)" style="fill: #2ca02c; fill-opacity: 0.2; stroke: #2ca02c; stroke-opacity: 0.2"/>
   </g>
   <g id="line2d_44">
    <path d="M 329.135004 -1 
L 330.999501 111.202157 
L 340.186103 155.288078 
L 349.372706 172.330944 
L 358.559309 204.93293 
L 367.745912 197.91368 
L 376.932515 208.791297 
L 386.119118 210.041133 
L 395.305721 212.897275 
L 404.492324 221.269196 
L 413.678926 221.786032 
L 422.865529 223.195863 
L 432.052132 224.333952 
L 441.238735 224.494168 
L 450.425338 222.734875 
L 459.611941 221.0318 
L 468.798544 225.342367 
L 477.985147 224.758861 
L 487.171749 225.47054 
L 496.358352 225.505619 
" clip-path="url(#p245e7558ee)" style="fill: none; stroke-dasharray: 7.4,3.2; stroke-dashoffset: 0; stroke: #1f77b4; stroke-width: 2"/>
   </g>
   <g id="line2d_45">
    <path d="M 329.290668 -1 
L 330.999501 102.890866 
L 340.186103 154.471357 
L 349.372706 174.695656 
L 358.559309 208.966678 
L 367.745912 203.124547 
L 376.932515 209.725106 
L 386.119118 213.299479 
L 395.305721 216.889582 
L 404.492324 217.553449 
L 413.678926 217.881058 
L 422.865529 217.509473 
L 432.052132 220.329685 
L 441.238735 221.782594 
L 450.425338 220.483602 
L 459.611941 221.566429 
L 468.798544 224.528884 
L 477.985147 224.014836 
L 487.171749 224.991393 
L 496.358352 226.250755 
" clip-path="url(#p245e7558ee)" style="fill: none; stroke-dasharray: 7.4,3.2; stroke-dashoffset: 0; stroke: #ff7f0e; stroke-width: 2"/>
   </g>
   <g id="line2d_46">
    <path d="M 329.482246 -1 
L 330.999501 91.779988 
L 340.186103 153.069563 
L 349.372706 170.637669 
L 358.559309 207.896246 
L 367.745912 202.512351 
L 376.932515 210.342606 
L 386.119118 215.979115 
L 395.305721 216.155204 
L 404.492324 217.246496 
L 413.678926 216.387443 
L 422.865529 220.950652 
L 432.052132 219.803615 
L 441.238735 219.734511 
L 450.425338 220.318246 
L 459.611941 221.569182 
L 468.798544 219.944306 
L 477.985147 220.622036 
L 487.171749 221.867299 
L 496.358352 220.911833 
" clip-path="url(#p245e7558ee)" style="fill: none; stroke-dasharray: 7.4,3.2; stroke-dashoffset: 0; stroke: #2ca02c; stroke-width: 2"/>
   </g>
   <g id="line2d_47"/>
   <g id="line2d_48"/>
   <g id="line2d_49"/>
   <g id="line2d_50">
    <path d="M 321.812898 35.629927 
L 330.999501 154.266892 
L 340.186103 181.578684 
L 349.372706 179.170037 
L 358.559309 207.9603 
L 367.745912 204.587417 
L 376.932515 212.152354 
L 386.119118 216.629155 
L 395.305721 217.138925 
L 404.492324 217.325056 
L 413.678926 217.467866 
L 422.865529 217.248575 
L 432.052132 217.80347 
L 441.238735 218.152235 
L 450.425338 220.301338 
L 459.611941 218.998496 
L 468.798544 222.791497 
L 477.985147 223.791719 
L 487.171749 223.661008 
L 496.358352 224.323298 
" clip-path="url(#p245e7558ee)" style="fill: none; stroke: #1f77b4; stroke-width: 2; stroke-linecap: round"/>
   </g>
   <g id="line2d_51">
    <path d="M 321.812898 23.378716 
L 330.999501 151.986855 
L 340.186103 179.82822 
L 349.372706 179.460008 
L 358.559309 208.063763 
L 367.745912 206.283492 
L 376.932515 212.99446 
L 386.119118 217.293943 
L 395.305721 218.370954 
L 404.492324 218.770422 
L 413.678926 218.553176 
L 422.865529 218.639878 
L 432.052132 219.411352 
L 441.238735 219.403966 
L 450.425338 220.210543 
L 459.611941 220.71453 
L 468.798544 220.320271 
L 477.985147 220.60605 
L 487.171749 221.078278 
L 496.358352 221.031661 
" clip-path="url(#p245e7558ee)" style="fill: none; stroke: #ff7f0e; stroke-width: 2; stroke-linecap: round"/>
   </g>
   <g id="line2d_52">
    <path d="M 322.443499 -1 
L 330.999501 154.911001 
L 340.186103 178.265514 
L 349.372706 179.64516 
L 358.559309 208.353327 
L 367.745912 202.696036 
L 376.932515 211.619526 
L 386.119118 216.590915 
L 395.305721 218.025553 
L 404.492324 217.043623 
L 413.678926 218.522078 
L 422.865529 219.114708 
L 432.052132 219.031579 
L 441.238735 219.366432 
L 450.425338 220.586445 
L 459.611941 220.669293 
L 468.798544 221.038454 
L 477.985147 220.721321 
L 487.171749 221.029282 
L 496.358352 221.03416 
" clip-path="url(#p245e7558ee)" style="fill: none; stroke: #2ca02c; stroke-width: 2; stroke-linecap: round"/>
   </g>
   <g id="line2d_53"/>
   <g id="line2d_54"/>
   <g id="line2d_55"/>
   <g id="patch_9">
    <path d="M 313.085625 234.278906 
L 313.085625 12.518906 
" style="fill: none; stroke: #cccccc; stroke-width: 1.25; stroke-linejoin: miter; stroke-linecap: square"/>
   </g>
   <g id="patch_10">
    <path d="M 505.085625 234.278906 
L 505.085625 12.518906 
" style="fill: none; stroke: #cccccc; stroke-width: 1.25; stroke-linejoin: miter; stroke-linecap: square"/>
   </g>
   <g id="patch_11">
    <path d="M 313.085625 234.278906 
L 505.085625 234.278906 
" style="fill: none; stroke: #cccccc; stroke-width: 1.25; stroke-linejoin: miter; stroke-linecap: square"/>
   </g>
   <g id="patch_12">
    <path d="M 313.085625 12.518906 
L 505.085625 12.518906 
" style="fill: none; stroke: #cccccc; stroke-width: 1.25; stroke-linejoin: miter; stroke-linecap: square"/>
   </g>
   <g id="legend_2">
    <g id="patch_13">
     <path d="M 436.495625 135.642031 
L 497.385625 135.642031 
Q 499.585625 135.642031 499.585625 133.442031 
L 499.585625 20.218906 
Q 499.585625 18.018906 497.385625 18.018906 
L 436.495625 18.018906 
Q 434.295625 18.018906 434.295625 20.218906 
L 434.295625 133.442031 
Q 434.295625 135.642031 436.495625 135.642031 
z
" style="fill: #ffffff; opacity: 0.8; stroke: #cccccc; stroke-linejoin: miter"/>
    </g>
    <g id="text_38">
     <!-- noise_std -->
     <g style="fill: #262626" transform="translate(438.695625 31.537031) scale(0.12 -0.12)">
      <use xlink:href="#DejaVuSans-6e"/>
      <use xlink:href="#DejaVuSans-6f" x="63.378906"/>
      <use xlink:href="#DejaVuSans-69" x="124.560547"/>
      <use xlink:href="#DejaVuSans-73" x="152.34375"/>
      <use xlink:href="#DejaVuSans-65" x="204.443359"/>
      <use xlink:href="#DejaVuSans-5f" x="265.966797"/>
      <use xlink:href="#DejaVuSans-73" x="315.966797"/>
      <use xlink:href="#DejaVuSans-74" x="368.066406"/>
      <use xlink:href="#DejaVuSans-64" x="407.275391"/>
     </g>
    </g>
    <g id="line2d_56">
     <path d="M 442.793906 44.374687 
L 453.793906 44.374687 
L 464.793906 44.374687 
" style="fill: none; stroke-dasharray: 7.4,3.2; stroke-dashoffset: 0; stroke: #1f77b4; stroke-width: 2"/>
    </g>
    <g id="text_39">
     <!-- 0.1 -->
     <g style="fill: #262626" transform="translate(473.593906 48.224687) scale(0.11 -0.11)">
      <use xlink:href="#DejaVuSans-30"/>
      <use xlink:href="#DejaVuSans-2e" x="63.623047"/>
      <use xlink:href="#DejaVuSans-31" x="95.410156"/>
     </g>
    </g>
    <g id="line2d_57">
     <path d="M 442.793906 60.520625 
L 453.793906 60.520625 
L 464.793906 60.520625 
" style="fill: none; stroke-dasharray: 7.4,3.2; stroke-dashoffset: 0; stroke: #ff7f0e; stroke-width: 2"/>
    </g>
    <g id="text_40">
     <!-- 0.3 -->
     <g style="fill: #262626" transform="translate(473.593906 64.370625) scale(0.11 -0.11)">
      <use xlink:href="#DejaVuSans-30"/>
      <use xlink:href="#DejaVuSans-2e" x="63.623047"/>
      <use xlink:href="#DejaVuSans-33" x="95.410156"/>
     </g>
    </g>
    <g id="line2d_58">
     <path d="M 442.793906 76.666562 
L 453.793906 76.666562 
L 464.793906 76.666562 
" style="fill: none; stroke-dasharray: 7.4,3.2; stroke-dashoffset: 0; stroke: #2ca02c; stroke-width: 2"/>
    </g>
    <g id="text_41">
     <!-- 0.5 -->
     <g style="fill: #262626" transform="translate(473.593906 80.516562) scale(0.11 -0.11)">
      <use xlink:href="#DejaVuSans-30"/>
      <use xlink:href="#DejaVuSans-2e" x="63.623047"/>
      <use xlink:href="#DejaVuSans-35" x="95.410156"/>
     </g>
    </g>
    <g id="line2d_59">
     <path d="M 442.793906 92.8125 
L 453.793906 92.8125 
L 464.793906 92.8125 
" style="fill: none; stroke: #1f77b4; stroke-width: 2; stroke-linecap: round"/>
    </g>
    <g id="text_42">
     <!-- 0.1 -->
     <g style="fill: #262626" transform="translate(473.593906 96.6625) scale(0.11 -0.11)">
      <use xlink:href="#DejaVuSans-30"/>
      <use xlink:href="#DejaVuSans-2e" x="63.623047"/>
      <use xlink:href="#DejaVuSans-31" x="95.410156"/>
     </g>
    </g>
    <g id="line2d_60">
     <path d="M 442.793906 108.958438 
L 453.793906 108.958438 
L 464.793906 108.958438 
" style="fill: none; stroke: #ff7f0e; stroke-width: 2; stroke-linecap: round"/>
    </g>
    <g id="text_43">
     <!-- 0.3 -->
     <g style="fill: #262626" transform="translate(473.593906 112.808437) scale(0.11 -0.11)">
      <use xlink:href="#DejaVuSans-30"/>
      <use xlink:href="#DejaVuSans-2e" x="63.623047"/>
      <use xlink:href="#DejaVuSans-33" x="95.410156"/>
     </g>
    </g>
    <g id="line2d_61">
     <path d="M 442.793906 125.104375 
L 453.793906 125.104375 
L 464.793906 125.104375 
" style="fill: none; stroke: #2ca02c; stroke-width: 2; stroke-linecap: round"/>
    </g>
    <g id="text_44">
     <!-- 0.5 -->
     <g style="fill: #262626" transform="translate(473.593906 128.954375) scale(0.11 -0.11)">
      <use xlink:href="#DejaVuSans-30"/>
      <use xlink:href="#DejaVuSans-2e" x="63.623047"/>
      <use xlink:href="#DejaVuSans-35" x="95.410156"/>
     </g>
    </g>
   </g>
  </g>
  <g id="axes_3">
   <g id="patch_14">
    <path d="M 562.685625 234.278906 
L 754.685625 234.278906 
L 754.685625 12.518906 
L 562.685625 12.518906 
z
" style="fill: #ffffff"/>
   </g>
   <g id="matplotlib.axis_5">
    <g id="xtick_13">
     <g id="line2d_62">
      <path d="M 571.412898 234.278906 
L 571.412898 12.518906 
" clip-path="url(#p56c5610ba8)" style="fill: none; stroke: #cccccc; stroke-linecap: round"/>
     </g>
     <g id="text_45">
      <!-- 5 -->
      <g style="fill: #262626" transform="translate(566.959148 254.416719) scale(0.14 -0.14)">
       <use xlink:href="#DejaVuSans-35"/>
      </g>
     </g>
    </g>
    <g id="xtick_14">
     <g id="line2d_63">
      <path d="M 598.972706 234.278906 
L 598.972706 12.518906 
" clip-path="url(#p56c5610ba8)" style="fill: none; stroke: #cccccc; stroke-linecap: round"/>
     </g>
     <g id="text_46">
      <!-- 20 -->
      <g style="fill: #262626" transform="translate(590.065206 254.416719) scale(0.14 -0.14)">
       <use xlink:href="#DejaVuSans-32"/>
       <use xlink:href="#DejaVuSans-30" x="63.623047"/>
      </g>
     </g>
    </g>
    <g id="xtick_15">
     <g id="line2d_64">
      <path d="M 635.719118 234.278906 
L 635.719118 12.518906 
" clip-path="url(#p56c5610ba8)" style="fill: none; stroke: #cccccc; stroke-linecap: round"/>
     </g>
     <g id="text_47">
      <!-- 40 -->
      <g style="fill: #262626" transform="translate(626.811618 254.416719) scale(0.14 -0.14)">
       <use xlink:href="#DejaVuSans-34"/>
       <use xlink:href="#DejaVuSans-30" x="63.623047"/>
      </g>
     </g>
    </g>
    <g id="xtick_16">
     <g id="line2d_65">
      <path d="M 672.465529 234.278906 
L 672.465529 12.518906 
" clip-path="url(#p56c5610ba8)" style="fill: none; stroke: #cccccc; stroke-linecap: round"/>
     </g>
     <g id="text_48">
      <!-- 60 -->
      <g style="fill: #262626" transform="translate(663.558029 254.416719) scale(0.14 -0.14)">
       <use xlink:href="#DejaVuSans-36"/>
       <use xlink:href="#DejaVuSans-30" x="63.623047"/>
      </g>
     </g>
    </g>
    <g id="xtick_17">
     <g id="line2d_66">
      <path d="M 709.211941 234.278906 
L 709.211941 12.518906 
" clip-path="url(#p56c5610ba8)" style="fill: none; stroke: #cccccc; stroke-linecap: round"/>
     </g>
     <g id="text_49">
      <!-- 80 -->
      <g style="fill: #262626" transform="translate(700.304441 254.416719) scale(0.14 -0.14)">
       <use xlink:href="#DejaVuSans-38"/>
       <use xlink:href="#DejaVuSans-30" x="63.623047"/>
      </g>
     </g>
    </g>
    <g id="xtick_18">
     <g id="line2d_67">
      <path d="M 745.958352 234.278906 
L 745.958352 12.518906 
" clip-path="url(#p56c5610ba8)" style="fill: none; stroke: #cccccc; stroke-linecap: round"/>
     </g>
     <g id="text_50">
      <!-- 100 -->
      <g style="fill: #262626" transform="translate(732.597102 254.416719) scale(0.14 -0.14)">
       <use xlink:href="#DejaVuSans-31"/>
       <use xlink:href="#DejaVuSans-30" x="63.623047"/>
       <use xlink:href="#DejaVuSans-30" x="127.246094"/>
      </g>
     </g>
    </g>
    <g id="text_51">
     <!--   -->
     <g style="fill: #262626" transform="translate(656.77875 270.446406) scale(0.12 -0.12)">
      <use xlink:href="#DejaVuSans-20"/>
     </g>
    </g>
   </g>
   <g id="matplotlib.axis_6">
    <g id="ytick_14">
     <g id="line2d_68">
      <path d="M 562.685625 225.488739 
L 754.685625 225.488739 
" clip-path="url(#p56c5610ba8)" style="fill: none; stroke: #cccccc; stroke-linecap: round"/>
     </g>
     <g id="text_52">
      <!-- 0 -->
      <g style="fill: #262626" transform="translate(544.278125 230.807645) scale(0.14 -0.14)">
       <use xlink:href="#DejaVuSans-30"/>
      </g>
     </g>
    </g>
    <g id="ytick_15">
     <g id="line2d_69">
      <path d="M 562.685625 187.167453 
L 754.685625 187.167453 
" clip-path="url(#p56c5610ba8)" style="fill: none; stroke: #cccccc; stroke-linecap: round"/>
     </g>
     <g id="text_53">
      <!-- 50 -->
      <g style="fill: #262626" transform="translate(535.370625 192.486359) scale(0.14 -0.14)">
       <use xlink:href="#DejaVuSans-35"/>
       <use xlink:href="#DejaVuSans-30" x="63.623047"/>
      </g>
     </g>
    </g>
    <g id="ytick_16">
     <g id="line2d_70">
      <path d="M 562.685625 148.846167 
L 754.685625 148.846167 
" clip-path="url(#p56c5610ba8)" style="fill: none; stroke: #cccccc; stroke-linecap: round"/>
     </g>
     <g id="text_54">
      <!-- 100 -->
      <g style="fill: #262626" transform="translate(526.463125 154.165074) scale(0.14 -0.14)">
       <use xlink:href="#DejaVuSans-31"/>
       <use xlink:href="#DejaVuSans-30" x="63.623047"/>
       <use xlink:href="#DejaVuSans-30" x="127.246094"/>
      </g>
     </g>
    </g>
    <g id="ytick_17">
     <g id="line2d_71">
      <path d="M 562.685625 110.524882 
L 754.685625 110.524882 
" clip-path="url(#p56c5610ba8)" style="fill: none; stroke: #cccccc; stroke-linecap: round"/>
     </g>
     <g id="text_55">
      <!-- 150 -->
      <g style="fill: #262626" transform="translate(526.463125 115.843788) scale(0.14 -0.14)">
       <use xlink:href="#DejaVuSans-31"/>
       <use xlink:href="#DejaVuSans-35" x="63.623047"/>
       <use xlink:href="#DejaVuSans-30" x="127.246094"/>
      </g>
     </g>
    </g>
    <g id="ytick_18">
     <g id="line2d_72">
      <path d="M 562.685625 72.203596 
L 754.685625 72.203596 
" clip-path="url(#p56c5610ba8)" style="fill: none; stroke: #cccccc; stroke-linecap: round"/>
     </g>
     <g id="text_56">
      <!-- 200 -->
      <g style="fill: #262626" transform="translate(526.463125 77.522502) scale(0.14 -0.14)">
       <use xlink:href="#DejaVuSans-32"/>
       <use xlink:href="#DejaVuSans-30" x="63.623047"/>
       <use xlink:href="#DejaVuSans-30" x="127.246094"/>
      </g>
     </g>
    </g>
    <g id="ytick_19">
     <g id="line2d_73">
      <path d="M 562.685625 33.88231 
L 754.685625 33.88231 
" clip-path="url(#p56c5610ba8)" style="fill: none; stroke: #cccccc; stroke-linecap: round"/>
     </g>
     <g id="text_57">
      <!-- 250 -->
      <g style="fill: #262626" transform="translate(526.463125 39.201216) scale(0.14 -0.14)">
       <use xlink:href="#DejaVuSans-32"/>
       <use xlink:href="#DejaVuSans-35" x="63.623047"/>
       <use xlink:href="#DejaVuSans-30" x="127.246094"/>
      </g>
     </g>
    </g>
    <g id="text_58">
     <!-- CPU time (s) -->
     <g style="fill: #262626" transform="translate(519.9675 160.774219) rotate(-90) scale(0.12 -0.12)">
      <defs>
       <path id="DejaVuSans-43" d="M 4122 4306 
L 4122 3641 
Q 3803 3938 3442 4084 
Q 3081 4231 2675 4231 
Q 1875 4231 1450 3742 
Q 1025 3253 1025 2328 
Q 1025 1406 1450 917 
Q 1875 428 2675 428 
Q 3081 428 3442 575 
Q 3803 722 4122 1019 
L 4122 359 
Q 3791 134 3420 21 
Q 3050 -91 2638 -91 
Q 1578 -91 968 557 
Q 359 1206 359 2328 
Q 359 3453 968 4101 
Q 1578 4750 2638 4750 
Q 3056 4750 3426 4639 
Q 3797 4528 4122 4306 
z
" transform="scale(0.015625)"/>
       <path id="DejaVuSans-50" d="M 1259 4147 
L 1259 2394 
L 2053 2394 
Q 2494 2394 2734 2622 
Q 2975 2850 2975 3272 
Q 2975 3691 2734 3919 
Q 2494 4147 2053 4147 
L 1259 4147 
z
M 628 4666 
L 2053 4666 
Q 2838 4666 3239 4311 
Q 3641 3956 3641 3272 
Q 3641 2581 3239 2228 
Q 2838 1875 2053 1875 
L 1259 1875 
L 1259 0 
L 628 0 
L 628 4666 
z
" transform="scale(0.015625)"/>
       <path id="DejaVuSans-55" d="M 556 4666 
L 1191 4666 
L 1191 1831 
Q 1191 1081 1462 751 
Q 1734 422 2344 422 
Q 2950 422 3222 751 
Q 3494 1081 3494 1831 
L 3494 4666 
L 4128 4666 
L 4128 1753 
Q 4128 841 3676 375 
Q 3225 -91 2344 -91 
Q 1459 -91 1007 375 
Q 556 841 556 1753 
L 556 4666 
z
" transform="scale(0.015625)"/>
      </defs>
      <use xlink:href="#DejaVuSans-43"/>
      <use xlink:href="#DejaVuSans-50" x="69.824219"/>
      <use xlink:href="#DejaVuSans-55" x="130.126953"/>
      <use xlink:href="#DejaVuSans-20" x="203.320312"/>
      <use xlink:href="#DejaVuSans-74" x="235.107422"/>
      <use xlink:href="#DejaVuSans-69" x="274.316406"/>
      <use xlink:href="#DejaVuSans-6d" x="302.099609"/>
      <use xlink:href="#DejaVuSans-65" x="399.511719"/>
      <use xlink:href="#DejaVuSans-20" x="461.035156"/>
      <use xlink:href="#DejaVuSans-28" x="492.822266"/>
      <use xlink:href="#DejaVuSans-73" x="531.835938"/>
      <use xlink:href="#DejaVuSans-29" x="583.935547"/>
     </g>
    </g>
   </g>
   <g id="PolyCollection_13">
    <defs>
     <path id="m8c945030ea" d="M 571.412898 -56.689808 
L 571.412898 -55.943125 
L 580.599501 -56.901999 
L 589.786103 -58.32801 
L 598.972706 -59.974887 
L 608.159309 -61.680435 
L 617.345912 -63.667632 
L 626.532515 -66.365797 
L 635.719118 -68.80485 
L 644.905721 -70.156303 
L 654.092324 -75.020833 
L 663.278926 -77.026442 
L 672.465529 -80.510853 
L 681.652132 -84.453907 
L 690.838735 -87.897107 
L 700.025338 -93.390553 
L 709.211941 -96.348211 
L 718.398544 -98.968866 
L 727.585147 -103.275588 
L 736.771749 -110.606511 
L 745.958352 -115.85566 
L 745.958352 -231.05531 
L 745.958352 -231.05531 
L 736.771749 -226.928512 
L 727.585147 -205.790216 
L 718.398544 -192.93795 
L 709.211941 -181.631102 
L 700.025338 -166.219183 
L 690.838735 -154.857639 
L 681.652132 -139.674475 
L 672.465529 -130.403327 
L 663.278926 -126.431473 
L 654.092324 -111.746997 
L 644.905721 -101.605629 
L 635.719118 -96.045754 
L 626.532515 -86.426768 
L 617.345912 -79.324717 
L 608.159309 -72.569937 
L 598.972706 -67.269416 
L 589.786103 -62.518325 
L 580.599501 -58.97174 
L 571.412898 -56.689808 
z
" style="stroke: #1f77b4; stroke-opacity: 0.2"/>
    </defs>
    <g clip-path="url(#p56c5610ba8)">
     <use xlink:href="#m8c945030ea" x="0" y="280.142031" style="fill: #1f77b4; fill-opacity: 0.2; stroke: #1f77b4; stroke-opacity: 0.2"/>
    </g>
   </g>
   <g id="PolyCollection_14">
    <defs>
     <path id="md780da0916" d="M 571.412898 -56.799728 
L 571.412898 -56.038857 
L 580.599501 -56.913036 
L 589.786103 -58.416331 
L 598.972706 -59.663639 
L 608.159309 -61.363857 
L 617.345912 -63.075162 
L 626.532515 -65.162701 
L 635.719118 -66.915807 
L 644.905721 -69.94777 
L 654.092324 -73.475254 
L 663.278926 -74.705899 
L 672.465529 -77.559936 
L 681.652132 -80.793649 
L 690.838735 -83.607923 
L 700.025338 -87.397822 
L 709.211941 -93.125394 
L 718.398544 -95.991459 
L 727.585147 -99.989731 
L 736.771749 -106.58825 
L 745.958352 -109.608768 
L 745.958352 -235.369786 
L 745.958352 -235.369786 
L 736.771749 -212.441544 
L 727.585147 -199.579838 
L 718.398544 -191.293621 
L 709.211941 -180.076246 
L 700.025338 -159.714756 
L 690.838735 -144.935679 
L 681.652132 -139.327063 
L 672.465529 -124.992507 
L 663.278926 -113.315409 
L 654.092324 -107.02822 
L 644.905721 -95.918844 
L 635.719118 -92.540354 
L 626.532515 -83.562305 
L 617.345912 -76.186588 
L 608.159309 -71.041237 
L 598.972706 -66.490851 
L 589.786103 -62.701564 
L 580.599501 -58.98879 
L 571.412898 -56.799728 
z
" style="stroke: #ff7f0e; stroke-opacity: 0.2"/>
    </defs>
    <g clip-path="url(#p56c5610ba8)">
     <use xlink:href="#md780da0916" x="0" y="280.142031" style="fill: #ff7f0e; fill-opacity: 0.2; stroke: #ff7f0e; stroke-opacity: 0.2"/>
    </g>
   </g>
   <g id="PolyCollection_15">
    <defs>
     <path id="m2a43d07f30" d="M 571.412898 -56.89152 
L 571.412898 -56.017407 
L 580.599501 -57.157493 
L 589.786103 -58.108173 
L 598.972706 -59.650392 
L 608.159309 -61.055364 
L 617.345912 -62.732503 
L 626.532515 -64.435972 
L 635.719118 -66.839443 
L 644.905721 -69.410931 
L 654.092324 -72.295151 
L 663.278926 -75.429458 
L 672.465529 -76.435776 
L 681.652132 -80.18743 
L 690.838735 -82.187191 
L 700.025338 -84.917437 
L 709.211941 -88.213569 
L 718.398544 -93.977491 
L 727.585147 -95.274867 
L 736.771749 -105.526083 
L 745.958352 -106.50339 
L 745.958352 -215.653766 
L 745.958352 -215.653766 
L 736.771749 -206.190927 
L 727.585147 -182.893929 
L 718.398544 -176.855826 
L 709.211941 -171.940563 
L 700.025338 -151.543463 
L 690.838735 -136.807334 
L 681.652132 -129.156144 
L 672.465529 -120.966479 
L 663.278926 -112.413134 
L 654.092324 -102.797829 
L 644.905721 -95.528966 
L 635.719118 -87.29478 
L 626.532515 -81.435759 
L 617.345912 -75.626572 
L 608.159309 -70.09577 
L 598.972706 -66.955503 
L 589.786103 -62.351602 
L 580.599501 -59.655439 
L 571.412898 -56.89152 
z
" style="stroke: #2ca02c; stroke-opacity: 0.2"/>
    </defs>
    <g clip-path="url(#p56c5610ba8)">
     <use xlink:href="#m2a43d07f30" x="0" y="280.142031" style="fill: #2ca02c; fill-opacity: 0.2; stroke: #2ca02c; stroke-opacity: 0.2"/>
    </g>
   </g>
   <g id="PolyCollection_16">
    <defs>
     <path id="m69bbb14159" d="M 571.412898 -162.995868 
L 571.412898 -134.550756 
L 580.599501 -136.5224 
L 589.786103 -139.429577 
L 598.972706 -141.777668 
L 608.159309 -142.458698 
L 617.345912 -143.860639 
L 626.532515 -148.308866 
L 635.719118 -152.364325 
L 644.905721 -151.792327 
L 654.092324 -154.249964 
L 663.278926 -160.136701 
L 672.465529 -164.798075 
L 681.652132 -168.42953 
L 690.838735 -170.1276 
L 700.025338 -175.86254 
L 709.211941 -183.678197 
L 718.398544 -187.448139 
L 727.585147 -191.21486 
L 736.771749 -199.474957 
L 745.958352 -205.406247 
L 745.958352 -250.496766 
L 745.958352 -250.496766 
L 736.771749 -243.529418 
L 727.585147 -232.998121 
L 718.398544 -229.918938 
L 709.211941 -223.380681 
L 700.025338 -214.559128 
L 690.838735 -205.777883 
L 681.652132 -204.837911 
L 672.465529 -200.127163 
L 663.278926 -194.29126 
L 654.092324 -189.581404 
L 644.905721 -183.919954 
L 635.719118 -183.726285 
L 626.532515 -179.266932 
L 617.345912 -173.873324 
L 608.159309 -173.162373 
L 598.972706 -171.297331 
L 589.786103 -169.394962 
L 580.599501 -164.711374 
L 571.412898 -162.995868 
z
" style="stroke: #1f77b4; stroke-opacity: 0.2"/>
    </defs>
    <g clip-path="url(#p56c5610ba8)">
     <use xlink:href="#m69bbb14159" x="0" y="280.142031" style="fill: #1f77b4; fill-opacity: 0.2; stroke: #1f77b4; stroke-opacity: 0.2"/>
    </g>
   </g>
   <g id="PolyCollection_17">
    <defs>
     <path id="m702f63370d" d="M 571.412898 -179.863335 
L 571.412898 -145.100691 
L 580.599501 -146.397378 
L 589.786103 -147.126159 
L 598.972706 -147.866095 
L 608.159309 -153.929943 
L 617.345912 -154.167666 
L 626.532515 -152.433738 
L 635.719118 -162.843102 
L 644.905721 -161.192926 
L 654.092324 -162.866144 
L 663.278926 -164.809699 
L 672.465529 -170.205588 
L 681.652132 -175.636542 
L 690.838735 -178.084713 
L 700.025338 -183.622327 
L 709.211941 -188.844355 
L 718.398544 -192.672758 
L 727.585147 -195.467173 
L 736.771749 -202.001869 
L 745.958352 -206.926283 
L 745.958352 -257.543125 
L 745.958352 -257.543125 
L 736.771749 -250.319247 
L 727.585147 -242.979574 
L 718.398544 -239.420907 
L 709.211941 -232.177663 
L 700.025338 -228.16818 
L 690.838735 -219.579074 
L 681.652132 -217.801772 
L 672.465529 -210.444191 
L 663.278926 -203.740921 
L 654.092324 -201.965419 
L 644.905721 -199.543103 
L 635.719118 -203.751063 
L 626.532515 -188.566756 
L 617.345912 -190.003683 
L 608.159309 -192.210498 
L 598.972706 -181.58218 
L 589.786103 -181.827871 
L 580.599501 -181.189961 
L 571.412898 -179.863335 
z
" style="stroke: #ff7f0e; stroke-opacity: 0.2"/>
    </defs>
    <g clip-path="url(#p56c5610ba8)">
     <use xlink:href="#m702f63370d" x="0" y="280.142031" style="fill: #ff7f0e; fill-opacity: 0.2; stroke: #ff7f0e; stroke-opacity: 0.2"/>
    </g>
   </g>
   <g id="PolyCollection_18">
    <defs>
     <path id="m77b011c61c" d="M 571.412898 -185.277926 
L 571.412898 -148.48656 
L 580.599501 -147.360254 
L 589.786103 -146.59075 
L 598.972706 -151.039525 
L 608.159309 -152.382042 
L 617.345912 -154.957114 
L 626.532515 -157.992238 
L 635.719118 -160.406985 
L 644.905721 -160.088664 
L 654.092324 -164.079776 
L 663.278926 -166.93513 
L 672.465529 -175.201725 
L 681.652132 -173.21246 
L 690.838735 -178.114981 
L 700.025338 -180.735135 
L 709.211941 -186.663383 
L 718.398544 -191.547167 
L 727.585147 -196.838741 
L 736.771749 -205.242904 
L 745.958352 -206.07548 
L 745.958352 -257.399236 
L 745.958352 -257.399236 
L 736.771749 -255.986958 
L 727.585147 -247.571362 
L 718.398544 -239.443089 
L 709.211941 -234.58436 
L 700.025338 -225.708398 
L 690.838735 -225.9034 
L 681.652132 -218.832134 
L 672.465529 -220.181857 
L 663.278926 -209.376264 
L 654.092324 -203.83154 
L 644.905721 -199.809064 
L 635.719118 -201.190975 
L 626.532515 -196.71726 
L 617.345912 -190.975989 
L 608.159309 -192.0626 
L 598.972706 -185.92825 
L 589.786103 -181.807368 
L 580.599501 -185.181399 
L 571.412898 -185.277926 
z
" style="stroke: #2ca02c; stroke-opacity: 0.2"/>
    </defs>
    <g clip-path="url(#p56c5610ba8)">
     <use xlink:href="#m77b011c61c" x="0" y="280.142031" style="fill: #2ca02c; fill-opacity: 0.2; stroke: #2ca02c; stroke-opacity: 0.2"/>
    </g>
   </g>
   <g id="line2d_74">
    <path d="M 571.412898 223.844962 
L 580.599501 222.281674 
L 589.786103 219.829843 
L 598.972706 216.646159 
L 608.159309 213.628265 
L 617.345912 209.391815 
L 626.532515 204.841583 
L 635.719118 198.594967 
L 644.905721 195.160915 
L 654.092324 188.979512 
L 663.278926 180.446094 
L 672.465529 176.239904 
L 681.652132 171.101393 
L 690.838735 160.892485 
L 700.025338 153.515889 
L 709.211941 143.786584 
L 718.398544 137.828516 
L 727.585147 131.155447 
L 736.771749 118.045128 
L 745.958352 114.548224 
" clip-path="url(#p56c5610ba8)" style="fill: none; stroke-dasharray: 7.4,3.2; stroke-dashoffset: 0; stroke: #1f77b4; stroke-width: 2"/>
   </g>
   <g id="line2d_75">
    <path d="M 571.412898 223.762953 
L 580.599501 222.265537 
L 589.786103 219.848267 
L 598.972706 217.315756 
L 608.159309 214.372527 
L 617.345912 210.765751 
L 626.532515 206.893929 
L 635.719118 201.056502 
L 644.905721 198.594132 
L 654.092324 191.480243 
L 663.278926 188.074745 
L 672.465529 181.025666 
L 681.652132 173.30979 
L 690.838735 167.390995 
L 700.025338 158.947988 
L 709.211941 149.336517 
L 718.398544 142.925673 
L 727.585147 134.029994 
L 736.771749 128.525183 
L 745.958352 113.587527 
" clip-path="url(#p56c5610ba8)" style="fill: none; stroke-dasharray: 7.4,3.2; stroke-dashoffset: 0; stroke: #ff7f0e; stroke-width: 2"/>
   </g>
   <g id="line2d_76">
    <path d="M 571.412898 223.718837 
L 580.599501 221.878706 
L 589.786103 219.992859 
L 598.972706 217.172705 
L 608.159309 214.950427 
L 617.345912 211.557721 
L 626.532515 207.616305 
L 635.719118 203.822241 
L 644.905721 199.649382 
L 654.092324 194.980632 
L 663.278926 187.940736 
L 672.465529 184.137718 
L 681.652132 176.382061 
L 690.838735 172.019609 
L 700.025338 163.480113 
L 709.211941 152.686495 
L 718.398544 147.120904 
L 727.585147 143.649497 
L 736.771749 131.52564 
L 745.958352 122.458579 
" clip-path="url(#p56c5610ba8)" style="fill: none; stroke-dasharray: 7.4,3.2; stroke-dashoffset: 0; stroke: #2ca02c; stroke-width: 2"/>
   </g>
   <g id="line2d_77"/>
   <g id="line2d_78"/>
   <g id="line2d_79"/>
   <g id="line2d_80">
    <path d="M 571.412898 131.361813 
L 580.599501 129.973282 
L 589.786103 127.008973 
L 598.972706 123.785118 
L 608.159309 122.667003 
L 617.345912 120.946676 
L 626.532515 116.704847 
L 635.719118 113.454913 
L 644.905721 112.656488 
L 654.092324 108.277469 
L 663.278926 103.449707 
L 672.465529 98.530758 
L 681.652132 93.801232 
L 690.838735 91.605117 
L 700.025338 85.004845 
L 709.211941 78.747413 
L 718.398544 72.15166 
L 727.585147 67.489141 
L 736.771749 59.015932 
L 745.958352 54.214147 
" clip-path="url(#p56c5610ba8)" style="fill: none; stroke: #1f77b4; stroke-width: 2; stroke-linecap: round"/>
   </g>
   <g id="line2d_81">
    <path d="M 571.412898 118.263949 
L 580.599501 116.598353 
L 589.786103 116.400348 
L 598.972706 115.707508 
L 608.159309 107.493405 
L 617.345912 108.979024 
L 626.532515 109.865845 
L 635.719118 98.01983 
L 644.905721 102.018168 
L 654.092324 98.542683 
L 663.278926 96.124163 
L 672.465529 90.328681 
L 681.652132 83.787326 
L 690.838735 81.377249 
L 700.025338 73.59537 
L 709.211941 70.415836 
L 718.398544 64.956791 
L 727.585147 61.290617 
L 736.771749 53.843306 
L 745.958352 48.72132 
" clip-path="url(#p56c5610ba8)" style="fill: none; stroke: #ff7f0e; stroke-width: 2; stroke-linecap: round"/>
   </g>
   <g id="line2d_82">
    <path d="M 571.412898 114.05459 
L 580.599501 113.526502 
L 589.786103 116.316987 
L 598.972706 112.230461 
L 608.159309 108.992931 
L 617.345912 107.822173 
L 626.532515 103.627798 
L 635.719118 99.740355 
L 644.905721 99.764234 
L 654.092324 95.924845 
L 663.278926 93.053129 
L 672.465529 83.528908 
L 681.652132 84.061524 
L 690.838735 79.179429 
L 700.025338 77.695948 
L 709.211941 70.660888 
L 718.398544 64.646328 
L 727.585147 59.021972 
L 736.771749 50.740905 
L 745.958352 47.275087 
" clip-path="url(#p56c5610ba8)" style="fill: none; stroke: #2ca02c; stroke-width: 2; stroke-linecap: round"/>
   </g>
   <g id="line2d_83"/>
   <g id="line2d_84"/>
   <g id="line2d_85"/>
   <g id="patch_15">
    <path d="M 562.685625 234.278906 
L 562.685625 12.518906 
" style="fill: none; stroke: #cccccc; stroke-width: 1.25; stroke-linejoin: miter; stroke-linecap: square"/>
   </g>
   <g id="patch_16">
    <path d="M 754.685625 234.278906 
L 754.685625 12.518906 
" style="fill: none; stroke: #cccccc; stroke-width: 1.25; stroke-linejoin: miter; stroke-linecap: square"/>
   </g>
   <g id="patch_17">
    <path d="M 562.685625 234.278906 
L 754.685625 234.278906 
" style="fill: none; stroke: #cccccc; stroke-width: 1.25; stroke-linejoin: miter; stroke-linecap: square"/>
   </g>
   <g id="patch_18">
    <path d="M 562.685625 12.518906 
L 754.685625 12.518906 
" style="fill: none; stroke: #cccccc; stroke-width: 1.25; stroke-linejoin: miter; stroke-linecap: square"/>
   </g>
   <g id="legend_3">
    <g id="patch_19">
     <path d="M 570.385625 135.642031 
L 631.275625 135.642031 
Q 633.475625 135.642031 633.475625 133.442031 
L 633.475625 20.218906 
Q 633.475625 18.018906 631.275625 18.018906 
L 570.385625 18.018906 
Q 568.185625 18.018906 568.185625 20.218906 
L 568.185625 133.442031 
Q 568.185625 135.642031 570.385625 135.642031 
z
" style="fill: #ffffff; opacity: 0.8; stroke: #cccccc; stroke-linejoin: miter"/>
    </g>
    <g id="text_59">
     <!-- noise_std -->
     <g style="fill: #262626" transform="translate(572.585625 31.537031) scale(0.12 -0.12)">
      <use xlink:href="#DejaVuSans-6e"/>
      <use xlink:href="#DejaVuSans-6f" x="63.378906"/>
      <use xlink:href="#DejaVuSans-69" x="124.560547"/>
      <use xlink:href="#DejaVuSans-73" x="152.34375"/>
      <use xlink:href="#DejaVuSans-65" x="204.443359"/>
      <use xlink:href="#DejaVuSans-5f" x="265.966797"/>
      <use xlink:href="#DejaVuSans-73" x="315.966797"/>
      <use xlink:href="#DejaVuSans-74" x="368.066406"/>
      <use xlink:href="#DejaVuSans-64" x="407.275391"/>
     </g>
    </g>
    <g id="line2d_86">
     <path d="M 576.683906 44.374687 
L 587.683906 44.374687 
L 598.683906 44.374687 
" style="fill: none; stroke-dasharray: 7.4,3.2; stroke-dashoffset: 0; stroke: #1f77b4; stroke-width: 2"/>
    </g>
    <g id="text_60">
     <!-- 0.1 -->
     <g style="fill: #262626" transform="translate(607.483906 48.224687) scale(0.11 -0.11)">
      <use xlink:href="#DejaVuSans-30"/>
      <use xlink:href="#DejaVuSans-2e" x="63.623047"/>
      <use xlink:href="#DejaVuSans-31" x="95.410156"/>
     </g>
    </g>
    <g id="line2d_87">
     <path d="M 576.683906 60.520625 
L 587.683906 60.520625 
L 598.683906 60.520625 
" style="fill: none; stroke-dasharray: 7.4,3.2; stroke-dashoffset: 0; stroke: #ff7f0e; stroke-width: 2"/>
    </g>
    <g id="text_61">
     <!-- 0.3 -->
     <g style="fill: #262626" transform="translate(607.483906 64.370625) scale(0.11 -0.11)">
      <use xlink:href="#DejaVuSans-30"/>
      <use xlink:href="#DejaVuSans-2e" x="63.623047"/>
      <use xlink:href="#DejaVuSans-33" x="95.410156"/>
     </g>
    </g>
    <g id="line2d_88">
     <path d="M 576.683906 76.666562 
L 587.683906 76.666562 
L 598.683906 76.666562 
" style="fill: none; stroke-dasharray: 7.4,3.2; stroke-dashoffset: 0; stroke: #2ca02c; stroke-width: 2"/>
    </g>
    <g id="text_62">
     <!-- 0.5 -->
     <g style="fill: #262626" transform="translate(607.483906 80.516562) scale(0.11 -0.11)">
      <use xlink:href="#DejaVuSans-30"/>
      <use xlink:href="#DejaVuSans-2e" x="63.623047"/>
      <use xlink:href="#DejaVuSans-35" x="95.410156"/>
     </g>
    </g>
    <g id="line2d_89">
     <path d="M 576.683906 92.8125 
L 587.683906 92.8125 
L 598.683906 92.8125 
" style="fill: none; stroke: #1f77b4; stroke-width: 2; stroke-linecap: round"/>
    </g>
    <g id="text_63">
     <!-- 0.1 -->
     <g style="fill: #262626" transform="translate(607.483906 96.6625) scale(0.11 -0.11)">
      <use xlink:href="#DejaVuSans-30"/>
      <use xlink:href="#DejaVuSans-2e" x="63.623047"/>
      <use xlink:href="#DejaVuSans-31" x="95.410156"/>
     </g>
    </g>
    <g id="line2d_90">
     <path d="M 576.683906 108.958438 
L 587.683906 108.958438 
L 598.683906 108.958438 
" style="fill: none; stroke: #ff7f0e; stroke-width: 2; stroke-linecap: round"/>
    </g>
    <g id="text_64">
     <!-- 0.3 -->
     <g style="fill: #262626" transform="translate(607.483906 112.808437) scale(0.11 -0.11)">
      <use xlink:href="#DejaVuSans-30"/>
      <use xlink:href="#DejaVuSans-2e" x="63.623047"/>
      <use xlink:href="#DejaVuSans-33" x="95.410156"/>
     </g>
    </g>
    <g id="line2d_91">
     <path d="M 576.683906 125.104375 
L 587.683906 125.104375 
L 598.683906 125.104375 
" style="fill: none; stroke: #2ca02c; stroke-width: 2; stroke-linecap: round"/>
    </g>
    <g id="text_65">
     <!-- 0.5 -->
     <g style="fill: #262626" transform="translate(607.483906 128.954375) scale(0.11 -0.11)">
      <use xlink:href="#DejaVuSans-30"/>
      <use xlink:href="#DejaVuSans-2e" x="63.623047"/>
      <use xlink:href="#DejaVuSans-35" x="95.410156"/>
     </g>
    </g>
   </g>
  </g>
 </g>
 <defs>
  <clipPath id="pb71760ca23">
   <rect x="63.485625" y="12.518906" width="192" height="221.76"/>
  </clipPath>
  <clipPath id="p245e7558ee">
   <rect x="313.085625" y="12.518906" width="192" height="221.76"/>
  </clipPath>
  <clipPath id="p56c5610ba8">
   <rect x="562.685625" y="12.518906" width="192" height="221.76"/>
  </clipPath>
 </defs>
</svg>
