<?xml version="1.0" encoding="utf-8" standalone="no"?>
<!DOCTYPE svg PUBLIC "-//W3C//DTD SVG 1.1//EN"
  "http://www.w3.org/Graphics/SVG/1.1/DTD/svg11.dtd">
<svg xmlns:xlink="http://www.w3.org/1999/xlink" width="761.559966pt" height="362.855563pt" viewBox="0 0 761.559966 362.855563" xmlns="http://www.w3.org/2000/svg" version="1.1">
 <metadata>
  <rdf:RDF xmlns:dc="http://purl.org/dc/elements/1.1/" xmlns:cc="http://creativecommons.org/ns#" xmlns:rdf="http://www.w3.org/1999/02/22-rdf-syntax-ns#">
   <cc:Work>
    <dc:type rdf:resource="http://purl.org/dc/dcmitype/StillImage"/>
    <dc:date>2024-01-04T11:51:12.369317</dc:date>
    <dc:format>image/svg+xml</dc:format>
    <dc:creator>
     <cc:Agent>
      <dc:title>Matplotlib v3.7.2, https://matplotlib.org/</dc:title>
     </cc:Agent>
    </dc:creator>
   </cc:Work>
  </rdf:RDF>
 </metadata>
 <defs>
  <style type="text/css">*{stroke-linejoin: round; stroke-linecap: butt}</style>
 </defs>
 <g id="figure_1">
  <g id="patch_1">
   <path d="M 0 362.855563 
L 761.559966 362.855563 
L 761.559966 0 
L 0 0 
z
" style="fill: #ffffff"/>
  </g>
  <g id="axes_1">
   <g id="patch_2">
    <path d="M 54.01375 311.164 
L 190.885037 311.164 
L 190.885037 33.964 
L 54.01375 33.964 
z
" style="fill: #ffffff"/>
   </g>
   <g id="PolyCollection_1">
    <defs>
     <path id="m8d8cfbc4f4" d="M 61.217502 -316.291563 
L 61.217502 -236.571424 
L 75.625006 -165.055897 
L 90.03251 -130.312057 
L 104.440014 -116.420537 
L 118.847518 -106.59639 
L 133.255021 -94.506359 
L 147.662525 -91.633689 
L 162.070029 -84.54609 
L 176.477533 -80.62562 
L 190.885037 -72.46539 
L 205.292541 -71.094664 
L 219.700045 -68.402752 
L 234.107549 -66.593561 
L 248.515053 -67.507404 
L 262.922557 -66.485954 
L 277.330061 -66.547424 
L 291.737564 -65.799331 
L 306.145068 -64.656493 
L 320.552572 -65.046126 
L 334.960076 -64.291563 
L 334.960076 -88.021336 
L 334.960076 -88.021336 
L 320.552572 -84.555598 
L 306.145068 -85.586823 
L 291.737564 -84.984273 
L 277.330061 -83.46326 
L 262.922557 -84.629467 
L 248.515053 -87.438178 
L 234.107549 -88.394092 
L 219.700045 -86.925133 
L 205.292541 -97.172943 
L 190.885037 -95.410014 
L 176.477533 -113.962616 
L 162.070029 -118.661798 
L 147.662525 -124.183163 
L 133.255021 -129.525907 
L 118.847518 -151.530461 
L 104.440014 -163.304598 
L 90.03251 -187.818976 
L 75.625006 -236.633919 
L 61.217502 -316.291563 
z
" style="stroke: #1f77b4; stroke-opacity: 0.2"/>
    </defs>
    <g clip-path="url(#p207b78d0e3)">
     <use xlink:href="#m8d8cfbc4f4" x="0" y="362.855563" style="fill: #1f77b4; fill-opacity: 0.2; stroke: #1f77b4; stroke-opacity: 0.2"/>
    </g>
   </g>
   <g id="PolyCollection_2">
    <defs>
     <path id="mae7cf108a7" d="M 61.217502 -269.049526 
L 61.217502 -180.074968 
L 75.625006 -139.193409 
L 90.03251 -100.99394 
L 104.440014 -95.86945 
L 118.847518 -90.020206 
L 133.255021 -78.844508 
L 147.662525 -69.568717 
L 162.070029 -71.05636 
L 176.477533 -66.66127 
L 190.885037 -66.228369 
L 190.885037 -86.902375 
L 190.885037 -86.902375 
L 176.477533 -85.923387 
L 162.070029 -97.070179 
L 147.662525 -96.325715 
L 133.255021 -112.587631 
L 118.847518 -127.71077 
L 104.440014 -135.174019 
L 90.03251 -147.040539 
L 75.625006 -248.113866 
L 61.217502 -269.049526 
z
" style="stroke: #ff7f0e; stroke-opacity: 0.2"/>
    </defs>
    <g clip-path="url(#p207b78d0e3)">
     <use xlink:href="#mae7cf108a7" x="0" y="362.855563" style="fill: #ff7f0e; fill-opacity: 0.2; stroke: #ff7f0e; stroke-opacity: 0.2"/>
    </g>
   </g>
   <g id="PolyCollection_3">
    <defs>
     <path id="m5037671533" d="M 61.217502 -261.787267 
L 61.217502 -170.893825 
L 75.625006 -147.560639 
L 90.03251 -111.805664 
L 104.440014 -98.057748 
L 118.847518 -94.090746 
L 133.255021 -79.88386 
L 147.662525 -72.592709 
L 162.070029 -72.206441 
L 176.477533 -68.847999 
L 190.885037 -67.90488 
L 190.885037 -89.049754 
L 190.885037 -89.049754 
L 176.477533 -89.428213 
L 162.070029 -97.00938 
L 147.662525 -97.255954 
L 133.255021 -113.102469 
L 118.847518 -129.746035 
L 104.440014 -139.145391 
L 90.03251 -164.041621 
L 75.625006 -208.450821 
L 61.217502 -261.787267 
z
" style="stroke: #2ca02c; stroke-opacity: 0.2"/>
    </defs>
    <g clip-path="url(#p207b78d0e3)">
     <use xlink:href="#m5037671533" x="0" y="362.855563" style="fill: #2ca02c; fill-opacity: 0.2; stroke: #2ca02c; stroke-opacity: 0.2"/>
    </g>
   </g>
   <g id="PolyCollection_4">
    <defs>
     <path id="m7cb8fc6140" d="M 61.217502 -240.407512 
L 61.217502 -166.067495 
L 75.625006 -128.388725 
L 90.03251 -108.196601 
L 104.440014 -100.775823 
L 118.847518 -100.937993 
L 133.255021 -93.834845 
L 147.662525 -81.103598 
L 162.070029 -81.258454 
L 176.477533 -75.32485 
L 190.885037 -68.95067 
L 190.885037 -90.554274 
L 190.885037 -90.554274 
L 176.477533 -101.401567 
L 162.070029 -113.835129 
L 147.662525 -105.72894 
L 133.255021 -129.04168 
L 118.847518 -141.002713 
L 104.440014 -142.714535 
L 90.03251 -153.70492 
L 75.625006 -193.763193 
L 61.217502 -240.407512 
z
" style="stroke: #d62728; stroke-opacity: 0.2"/>
    </defs>
    <g clip-path="url(#p207b78d0e3)">
     <use xlink:href="#m7cb8fc6140" x="0" y="362.855563" style="fill: #d62728; fill-opacity: 0.2; stroke: #d62728; stroke-opacity: 0.2"/>
    </g>
   </g>
   <g id="PolyCollection_5">
    <defs>
     <path id="m5195b41446" d="M 61.217502 -258.146476 
L 61.217502 -176.96044 
L 75.625006 -136.352485 
L 90.03251 -106.580253 
L 104.440014 -99.977413 
L 118.847518 -91.833416 
L 133.255021 -82.02899 
L 147.662525 -76.320278 
L 162.070029 -72.386989 
L 176.477533 -68.690162 
L 190.885037 -68.32546 
L 190.885037 -90.495557 
L 190.885037 -90.495557 
L 176.477533 -89.527765 
L 162.070029 -101.01342 
L 147.662525 -105.944162 
L 133.255021 -116.407212 
L 118.847518 -130.240561 
L 104.440014 -141.179939 
L 90.03251 -151.735135 
L 75.625006 -238.280415 
L 61.217502 -258.146476 
z
" style="stroke: #9467bd; stroke-opacity: 0.2"/>
    </defs>
    <g clip-path="url(#p207b78d0e3)">
     <use xlink:href="#m5195b41446" x="0" y="362.855563" style="fill: #9467bd; fill-opacity: 0.2; stroke: #9467bd; stroke-opacity: 0.2"/>
    </g>
   </g>
   <g id="matplotlib.axis_1">
    <g id="xtick_1">
     <g id="line2d_1">
      <defs>
       <path id="md2b122dc6b" d="M 0 0 
L 0 3.5 
" style="stroke: #000000; stroke-width: 0.8"/>
      </defs>
      <g>
       <use xlink:href="#md2b122dc6b" x="118.847518" y="311.164" style="stroke: #000000; stroke-width: 0.8"/>
      </g>
     </g>
     <g id="text_1">
      <!-- 10 -->
      <g transform="translate(109.940018 328.801813) scale(0.14 -0.14)">
       <defs>
        <path id="DejaVuSans-31" d="M 794 531 
L 1825 531 
L 1825 4091 
L 703 3866 
L 703 4441 
L 1819 4666 
L 2450 4666 
L 2450 531 
L 3481 531 
L 3481 0 
L 794 0 
L 794 531 
z
" transform="scale(0.015625)"/>
        <path id="DejaVuSans-30" d="M 2034 4250 
Q 1547 4250 1301 3770 
Q 1056 3291 1056 2328 
Q 1056 1369 1301 889 
Q 1547 409 2034 409 
Q 2525 409 2770 889 
Q 3016 1369 3016 2328 
Q 3016 3291 2770 3770 
Q 2525 4250 2034 4250 
z
M 2034 4750 
Q 2819 4750 3233 4129 
Q 3647 3509 3647 2328 
Q 3647 1150 3233 529 
Q 2819 -91 2034 -91 
Q 1250 -91 836 529 
Q 422 1150 422 2328 
Q 422 3509 836 4129 
Q 1250 4750 2034 4750 
z
" transform="scale(0.015625)"/>
       </defs>
       <use xlink:href="#DejaVuSans-31"/>
       <use xlink:href="#DejaVuSans-30" x="63.623047"/>
      </g>
     </g>
    </g>
    <g id="xtick_2">
     <g id="line2d_2">
      <g>
       <use xlink:href="#md2b122dc6b" x="190.885037" y="311.164" style="stroke: #000000; stroke-width: 0.8"/>
      </g>
     </g>
     <g id="text_2">
      <!-- 20 -->
      <g transform="translate(181.977537 328.801813) scale(0.14 -0.14)">
       <defs>
        <path id="DejaVuSans-32" d="M 1228 531 
L 3431 531 
L 3431 0 
L 469 0 
L 469 531 
Q 828 903 1448 1529 
Q 2069 2156 2228 2338 
Q 2531 2678 2651 2914 
Q 2772 3150 2772 3378 
Q 2772 3750 2511 3984 
Q 2250 4219 1831 4219 
Q 1534 4219 1204 4116 
Q 875 4013 500 3803 
L 500 4441 
Q 881 4594 1212 4672 
Q 1544 4750 1819 4750 
Q 2544 4750 2975 4387 
Q 3406 4025 3406 3419 
Q 3406 3131 3298 2873 
Q 3191 2616 2906 2266 
Q 2828 2175 2409 1742 
Q 1991 1309 1228 531 
z
" transform="scale(0.015625)"/>
       </defs>
       <use xlink:href="#DejaVuSans-32"/>
       <use xlink:href="#DejaVuSans-30" x="63.623047"/>
      </g>
     </g>
    </g>
    <g id="text_3">
     <!--   -->
     <g transform="translate(120.224706 346.351188) scale(0.14 -0.14)">
      <defs>
       <path id="DejaVuSans-20" transform="scale(0.015625)"/>
      </defs>
      <use xlink:href="#DejaVuSans-20"/>
     </g>
    </g>
   </g>
   <g id="matplotlib.axis_2">
    <g id="ytick_1">
     <g id="line2d_3">
      <defs>
       <path id="mfd02ed79e4" d="M 0 0 
L -3.5 0 
" style="stroke: #000000; stroke-width: 0.8"/>
      </defs>
      <g>
       <use xlink:href="#mfd02ed79e4" x="54.01375" y="305.764243" style="stroke: #000000; stroke-width: 0.8"/>
      </g>
     </g>
     <g id="text_4">
      <!-- 0.0 -->
      <g transform="translate(24.749375 311.08315) scale(0.14 -0.14)">
       <defs>
        <path id="DejaVuSans-2e" d="M 684 794 
L 1344 794 
L 1344 0 
L 684 0 
L 684 794 
z
" transform="scale(0.015625)"/>
       </defs>
       <use xlink:href="#DejaVuSans-30"/>
       <use xlink:href="#DejaVuSans-2e" x="63.623047"/>
       <use xlink:href="#DejaVuSans-30" x="95.410156"/>
      </g>
     </g>
    </g>
    <g id="ytick_2">
     <g id="line2d_4">
      <g>
       <use xlink:href="#mfd02ed79e4" x="54.01375" y="250.269994" style="stroke: #000000; stroke-width: 0.8"/>
      </g>
     </g>
     <g id="text_5">
      <!-- 0.5 -->
      <g transform="translate(24.749375 255.5889) scale(0.14 -0.14)">
       <defs>
        <path id="DejaVuSans-35" d="M 691 4666 
L 3169 4666 
L 3169 4134 
L 1269 4134 
L 1269 2991 
Q 1406 3038 1543 3061 
Q 1681 3084 1819 3084 
Q 2600 3084 3056 2656 
Q 3513 2228 3513 1497 
Q 3513 744 3044 326 
Q 2575 -91 1722 -91 
Q 1428 -91 1123 -41 
Q 819 9 494 109 
L 494 744 
Q 775 591 1075 516 
Q 1375 441 1709 441 
Q 2250 441 2565 725 
Q 2881 1009 2881 1497 
Q 2881 1984 2565 2268 
Q 2250 2553 1709 2553 
Q 1456 2553 1204 2497 
Q 953 2441 691 2322 
L 691 4666 
z
" transform="scale(0.015625)"/>
       </defs>
       <use xlink:href="#DejaVuSans-30"/>
       <use xlink:href="#DejaVuSans-2e" x="63.623047"/>
       <use xlink:href="#DejaVuSans-35" x="95.410156"/>
      </g>
     </g>
    </g>
    <g id="ytick_3">
     <g id="line2d_5">
      <g>
       <use xlink:href="#mfd02ed79e4" x="54.01375" y="194.775744" style="stroke: #000000; stroke-width: 0.8"/>
      </g>
     </g>
     <g id="text_6">
      <!-- 1.0 -->
      <g transform="translate(24.749375 200.09465) scale(0.14 -0.14)">
       <use xlink:href="#DejaVuSans-31"/>
       <use xlink:href="#DejaVuSans-2e" x="63.623047"/>
       <use xlink:href="#DejaVuSans-30" x="95.410156"/>
      </g>
     </g>
    </g>
    <g id="ytick_4">
     <g id="line2d_6">
      <g>
       <use xlink:href="#mfd02ed79e4" x="54.01375" y="139.281494" style="stroke: #000000; stroke-width: 0.8"/>
      </g>
     </g>
     <g id="text_7">
      <!-- 1.5 -->
      <g transform="translate(24.749375 144.6004) scale(0.14 -0.14)">
       <use xlink:href="#DejaVuSans-31"/>
       <use xlink:href="#DejaVuSans-2e" x="63.623047"/>
       <use xlink:href="#DejaVuSans-35" x="95.410156"/>
      </g>
     </g>
    </g>
    <g id="ytick_5">
     <g id="line2d_7">
      <g>
       <use xlink:href="#mfd02ed79e4" x="54.01375" y="83.787244" style="stroke: #000000; stroke-width: 0.8"/>
      </g>
     </g>
     <g id="text_8">
      <!-- 2.0 -->
      <g transform="translate(24.749375 89.10615) scale(0.14 -0.14)">
       <use xlink:href="#DejaVuSans-32"/>
       <use xlink:href="#DejaVuSans-2e" x="63.623047"/>
       <use xlink:href="#DejaVuSans-30" x="95.410156"/>
      </g>
     </g>
    </g>
    <g id="text_9">
     <!-- NMAE -->
     <g transform="translate(17.837813 193.052125) rotate(-90) scale(0.14 -0.14)">
      <defs>
       <path id="DejaVuSans-4e" d="M 628 4666 
L 1478 4666 
L 3547 763 
L 3547 4666 
L 4159 4666 
L 4159 0 
L 3309 0 
L 1241 3903 
L 1241 0 
L 628 0 
L 628 4666 
z
" transform="scale(0.015625)"/>
       <path id="DejaVuSans-4d" d="M 628 4666 
L 1569 4666 
L 2759 1491 
L 3956 4666 
L 4897 4666 
L 4897 0 
L 4281 0 
L 4281 4097 
L 3078 897 
L 2444 897 
L 1241 4097 
L 1241 0 
L 628 0 
L 628 4666 
z
" transform="scale(0.015625)"/>
       <path id="DejaVuSans-41" d="M 2188 4044 
L 1331 1722 
L 3047 1722 
L 2188 4044 
z
M 1831 4666 
L 2547 4666 
L 4325 0 
L 3669 0 
L 3244 1197 
L 1141 1197 
L 716 0 
L 50 0 
L 1831 4666 
z
" transform="scale(0.015625)"/>
       <path id="DejaVuSans-45" d="M 628 4666 
L 3578 4666 
L 3578 4134 
L 1259 4134 
L 1259 2753 
L 3481 2753 
L 3481 2222 
L 1259 2222 
L 1259 531 
L 3634 531 
L 3634 0 
L 628 0 
L 628 4666 
z
" transform="scale(0.015625)"/>
      </defs>
      <use xlink:href="#DejaVuSans-4e"/>
      <use xlink:href="#DejaVuSans-4d" x="74.804688"/>
      <use xlink:href="#DejaVuSans-41" x="161.083984"/>
      <use xlink:href="#DejaVuSans-45" x="229.492188"/>
     </g>
    </g>
   </g>
   <g id="line2d_8">
    <path d="M 61.217502 86.665963 
L 75.625006 164.493889 
L 90.03251 204.717136 
L 104.440014 223.859086 
L 118.847518 234.078783 
L 133.255021 251.463933 
L 147.662525 254.506516 
L 162.070029 262.297556 
L 176.477533 266.655135 
L 190.885037 279.751903 
L 205.292541 279.712355 
L 219.700045 285.813916 
L 234.107549 285.82613 
L 248.515053 286.479245 
L 262.922557 288.194678 
L 277.330061 288.751208 
L 291.737564 288.303225 
L 306.145068 288.922416 
L 320.552572 289.433179 
L 334.960076 287.471092 
" clip-path="url(#p207b78d0e3)" style="fill: none; stroke: #1f77b4; stroke-width: 2; stroke-linecap: square"/>
   </g>
   <g id="line2d_9">
    <path d="M 61.217502 139.73395 
L 75.625006 175.626214 
L 90.03251 239.280632 
L 104.440014 246.588343 
L 118.847518 254.02796 
L 133.255021 268.320849 
L 147.662525 280.427268 
L 162.070029 280.372236 
L 176.477533 287.224499 
L 190.885037 287.021305 
" clip-path="url(#p207b78d0e3)" style="fill: none; stroke: #ff7f0e; stroke-width: 2; stroke-linecap: square"/>
   </g>
   <g id="line2d_10">
    <path d="M 61.217502 147.236429 
L 75.625006 185.588627 
L 90.03251 225.861689 
L 104.440014 243.215718 
L 118.847518 251.484189 
L 133.255021 267.635914 
L 147.662525 278.740028 
L 162.070029 278.619646 
L 176.477533 284.350881 
L 190.885037 285.365726 
" clip-path="url(#p207b78d0e3)" style="fill: none; stroke: #2ca02c; stroke-width: 2; stroke-linecap: square"/>
   </g>
   <g id="line2d_11">
    <path d="M 61.217502 160.194461 
L 75.625006 202.25435 
L 90.03251 233.263103 
L 104.440014 241.837034 
L 118.847518 242.629908 
L 133.255021 252.278125 
L 147.662525 269.251107 
L 162.070029 265.631005 
L 176.477533 274.91803 
L 190.885037 283.883026 
" clip-path="url(#p207b78d0e3)" style="fill: none; stroke: #d62728; stroke-width: 2; stroke-linecap: square"/>
   </g>
   <g id="line2d_12">
    <path d="M 61.217502 145.526418 
L 75.625006 182.08269 
L 90.03251 234.366461 
L 104.440014 243.709627 
L 118.847518 253.031463 
L 133.255021 264.850181 
L 147.662525 272.752729 
L 162.070029 277.059854 
L 176.477533 284.491169 
L 190.885037 284.490768 
" clip-path="url(#p207b78d0e3)" style="fill: none; stroke: #9467bd; stroke-width: 2; stroke-linecap: square"/>
   </g>
   <g id="patch_3">
    <path d="M 54.01375 311.164 
L 54.01375 33.964 
" style="fill: none; stroke: #000000; stroke-width: 0.8; stroke-linejoin: miter; stroke-linecap: square"/>
   </g>
   <g id="patch_4">
    <path d="M 190.885037 311.164 
L 190.885037 33.964 
" style="fill: none; stroke: #000000; stroke-width: 0.8; stroke-linejoin: miter; stroke-linecap: square"/>
   </g>
   <g id="patch_5">
    <path d="M 54.01375 311.164 
L 190.885037 311.164 
" style="fill: none; stroke: #000000; stroke-width: 0.8; stroke-linejoin: miter; stroke-linecap: square"/>
   </g>
   <g id="patch_6">
    <path d="M 54.01375 33.964 
L 190.885037 33.964 
" style="fill: none; stroke: #000000; stroke-width: 0.8; stroke-linejoin: miter; stroke-linecap: square"/>
   </g>
   <g id="text_10">
    <!-- number of HF samples (d) -->
    <g transform="translate(291.24562 352.744) scale(0.14 -0.14)">
     <defs>
      <path id="DejaVuSans-6e" d="M 3513 2113 
L 3513 0 
L 2938 0 
L 2938 2094 
Q 2938 2591 2744 2837 
Q 2550 3084 2163 3084 
Q 1697 3084 1428 2787 
Q 1159 2491 1159 1978 
L 1159 0 
L 581 0 
L 581 3500 
L 1159 3500 
L 1159 2956 
Q 1366 3272 1645 3428 
Q 1925 3584 2291 3584 
Q 2894 3584 3203 3211 
Q 3513 2838 3513 2113 
z
" transform="scale(0.015625)"/>
      <path id="DejaVuSans-75" d="M 544 1381 
L 544 3500 
L 1119 3500 
L 1119 1403 
Q 1119 906 1312 657 
Q 1506 409 1894 409 
Q 2359 409 2629 706 
Q 2900 1003 2900 1516 
L 2900 3500 
L 3475 3500 
L 3475 0 
L 2900 0 
L 2900 538 
Q 2691 219 2414 64 
Q 2138 -91 1772 -91 
Q 1169 -91 856 284 
Q 544 659 544 1381 
z
M 1991 3584 
L 1991 3584 
z
" transform="scale(0.015625)"/>
      <path id="DejaVuSans-6d" d="M 3328 2828 
Q 3544 3216 3844 3400 
Q 4144 3584 4550 3584 
Q 5097 3584 5394 3201 
Q 5691 2819 5691 2113 
L 5691 0 
L 5113 0 
L 5113 2094 
Q 5113 2597 4934 2840 
Q 4756 3084 4391 3084 
Q 3944 3084 3684 2787 
Q 3425 2491 3425 1978 
L 3425 0 
L 2847 0 
L 2847 2094 
Q 2847 2600 2669 2842 
Q 2491 3084 2119 3084 
Q 1678 3084 1418 2786 
Q 1159 2488 1159 1978 
L 1159 0 
L 581 0 
L 581 3500 
L 1159 3500 
L 1159 2956 
Q 1356 3278 1631 3431 
Q 1906 3584 2284 3584 
Q 2666 3584 2933 3390 
Q 3200 3197 3328 2828 
z
" transform="scale(0.015625)"/>
      <path id="DejaVuSans-62" d="M 3116 1747 
Q 3116 2381 2855 2742 
Q 2594 3103 2138 3103 
Q 1681 3103 1420 2742 
Q 1159 2381 1159 1747 
Q 1159 1113 1420 752 
Q 1681 391 2138 391 
Q 2594 391 2855 752 
Q 3116 1113 3116 1747 
z
M 1159 2969 
Q 1341 3281 1617 3432 
Q 1894 3584 2278 3584 
Q 2916 3584 3314 3078 
Q 3713 2572 3713 1747 
Q 3713 922 3314 415 
Q 2916 -91 2278 -91 
Q 1894 -91 1617 61 
Q 1341 213 1159 525 
L 1159 0 
L 581 0 
L 581 4863 
L 1159 4863 
L 1159 2969 
z
" transform="scale(0.015625)"/>
      <path id="DejaVuSans-65" d="M 3597 1894 
L 3597 1613 
L 953 1613 
Q 991 1019 1311 708 
Q 1631 397 2203 397 
Q 2534 397 2845 478 
Q 3156 559 3463 722 
L 3463 178 
Q 3153 47 2828 -22 
Q 2503 -91 2169 -91 
Q 1331 -91 842 396 
Q 353 884 353 1716 
Q 353 2575 817 3079 
Q 1281 3584 2069 3584 
Q 2775 3584 3186 3129 
Q 3597 2675 3597 1894 
z
M 3022 2063 
Q 3016 2534 2758 2815 
Q 2500 3097 2075 3097 
Q 1594 3097 1305 2825 
Q 1016 2553 972 2059 
L 3022 2063 
z
" transform="scale(0.015625)"/>
      <path id="DejaVuSans-72" d="M 2631 2963 
Q 2534 3019 2420 3045 
Q 2306 3072 2169 3072 
Q 1681 3072 1420 2755 
Q 1159 2438 1159 1844 
L 1159 0 
L 581 0 
L 581 3500 
L 1159 3500 
L 1159 2956 
Q 1341 3275 1631 3429 
Q 1922 3584 2338 3584 
Q 2397 3584 2469 3576 
Q 2541 3569 2628 3553 
L 2631 2963 
z
" transform="scale(0.015625)"/>
      <path id="DejaVuSans-6f" d="M 1959 3097 
Q 1497 3097 1228 2736 
Q 959 2375 959 1747 
Q 959 1119 1226 758 
Q 1494 397 1959 397 
Q 2419 397 2687 759 
Q 2956 1122 2956 1747 
Q 2956 2369 2687 2733 
Q 2419 3097 1959 3097 
z
M 1959 3584 
Q 2709 3584 3137 3096 
Q 3566 2609 3566 1747 
Q 3566 888 3137 398 
Q 2709 -91 1959 -91 
Q 1206 -91 779 398 
Q 353 888 353 1747 
Q 353 2609 779 3096 
Q 1206 3584 1959 3584 
z
" transform="scale(0.015625)"/>
      <path id="DejaVuSans-66" d="M 2375 4863 
L 2375 4384 
L 1825 4384 
Q 1516 4384 1395 4259 
Q 1275 4134 1275 3809 
L 1275 3500 
L 2222 3500 
L 2222 3053 
L 1275 3053 
L 1275 0 
L 697 0 
L 697 3053 
L 147 3053 
L 147 3500 
L 697 3500 
L 697 3744 
Q 697 4328 969 4595 
Q 1241 4863 1831 4863 
L 2375 4863 
z
" transform="scale(0.015625)"/>
      <path id="DejaVuSans-48" d="M 628 4666 
L 1259 4666 
L 1259 2753 
L 3553 2753 
L 3553 4666 
L 4184 4666 
L 4184 0 
L 3553 0 
L 3553 2222 
L 1259 2222 
L 1259 0 
L 628 0 
L 628 4666 
z
" transform="scale(0.015625)"/>
      <path id="DejaVuSans-46" d="M 628 4666 
L 3309 4666 
L 3309 4134 
L 1259 4134 
L 1259 2759 
L 3109 2759 
L 3109 2228 
L 1259 2228 
L 1259 0 
L 628 0 
L 628 4666 
z
" transform="scale(0.015625)"/>
      <path id="DejaVuSans-73" d="M 2834 3397 
L 2834 2853 
Q 2591 2978 2328 3040 
Q 2066 3103 1784 3103 
Q 1356 3103 1142 2972 
Q 928 2841 928 2578 
Q 928 2378 1081 2264 
Q 1234 2150 1697 2047 
L 1894 2003 
Q 2506 1872 2764 1633 
Q 3022 1394 3022 966 
Q 3022 478 2636 193 
Q 2250 -91 1575 -91 
Q 1294 -91 989 -36 
Q 684 19 347 128 
L 347 722 
Q 666 556 975 473 
Q 1284 391 1588 391 
Q 1994 391 2212 530 
Q 2431 669 2431 922 
Q 2431 1156 2273 1281 
Q 2116 1406 1581 1522 
L 1381 1569 
Q 847 1681 609 1914 
Q 372 2147 372 2553 
Q 372 3047 722 3315 
Q 1072 3584 1716 3584 
Q 2034 3584 2315 3537 
Q 2597 3491 2834 3397 
z
" transform="scale(0.015625)"/>
      <path id="DejaVuSans-61" d="M 2194 1759 
Q 1497 1759 1228 1600 
Q 959 1441 959 1056 
Q 959 750 1161 570 
Q 1363 391 1709 391 
Q 2188 391 2477 730 
Q 2766 1069 2766 1631 
L 2766 1759 
L 2194 1759 
z
M 3341 1997 
L 3341 0 
L 2766 0 
L 2766 531 
Q 2569 213 2275 61 
Q 1981 -91 1556 -91 
Q 1019 -91 701 211 
Q 384 513 384 1019 
Q 384 1609 779 1909 
Q 1175 2209 1959 2209 
L 2766 2209 
L 2766 2266 
Q 2766 2663 2505 2880 
Q 2244 3097 1772 3097 
Q 1472 3097 1187 3025 
Q 903 2953 641 2809 
L 641 3341 
Q 956 3463 1253 3523 
Q 1550 3584 1831 3584 
Q 2591 3584 2966 3190 
Q 3341 2797 3341 1997 
z
" transform="scale(0.015625)"/>
      <path id="DejaVuSans-70" d="M 1159 525 
L 1159 -1331 
L 581 -1331 
L 581 3500 
L 1159 3500 
L 1159 2969 
Q 1341 3281 1617 3432 
Q 1894 3584 2278 3584 
Q 2916 3584 3314 3078 
Q 3713 2572 3713 1747 
Q 3713 922 3314 415 
Q 2916 -91 2278 -91 
Q 1894 -91 1617 61 
Q 1341 213 1159 525 
z
M 3116 1747 
Q 3116 2381 2855 2742 
Q 2594 3103 2138 3103 
Q 1681 3103 1420 2742 
Q 1159 2381 1159 1747 
Q 1159 1113 1420 752 
Q 1681 391 2138 391 
Q 2594 391 2855 752 
Q 3116 1113 3116 1747 
z
" transform="scale(0.015625)"/>
      <path id="DejaVuSans-6c" d="M 603 4863 
L 1178 4863 
L 1178 0 
L 603 0 
L 603 4863 
z
" transform="scale(0.015625)"/>
      <path id="DejaVuSans-28" d="M 1984 4856 
Q 1566 4138 1362 3434 
Q 1159 2731 1159 2009 
Q 1159 1288 1364 580 
Q 1569 -128 1984 -844 
L 1484 -844 
Q 1016 -109 783 600 
Q 550 1309 550 2009 
Q 550 2706 781 3412 
Q 1013 4119 1484 4856 
L 1984 4856 
z
" transform="scale(0.015625)"/>
      <path id="DejaVuSans-64" d="M 2906 2969 
L 2906 4863 
L 3481 4863 
L 3481 0 
L 2906 0 
L 2906 525 
Q 2725 213 2448 61 
Q 2172 -91 1784 -91 
Q 1150 -91 751 415 
Q 353 922 353 1747 
Q 353 2572 751 3078 
Q 1150 3584 1784 3584 
Q 2172 3584 2448 3432 
Q 2725 3281 2906 2969 
z
M 947 1747 
Q 947 1113 1208 752 
Q 1469 391 1925 391 
Q 2381 391 2643 752 
Q 2906 1113 2906 1747 
Q 2906 2381 2643 2742 
Q 2381 3103 1925 3103 
Q 1469 3103 1208 2742 
Q 947 2381 947 1747 
z
" transform="scale(0.015625)"/>
      <path id="DejaVuSans-29" d="M 513 4856 
L 1013 4856 
Q 1481 4119 1714 3412 
Q 1947 2706 1947 2009 
Q 1947 1309 1714 600 
Q 1481 -109 1013 -844 
L 513 -844 
Q 928 -128 1133 580 
Q 1338 1288 1338 2009 
Q 1338 2731 1133 3434 
Q 928 4138 513 4856 
z
" transform="scale(0.015625)"/>
     </defs>
     <use xlink:href="#DejaVuSans-6e"/>
     <use xlink:href="#DejaVuSans-75" x="63.378906"/>
     <use xlink:href="#DejaVuSans-6d" x="126.757812"/>
     <use xlink:href="#DejaVuSans-62" x="224.169922"/>
     <use xlink:href="#DejaVuSans-65" x="287.646484"/>
     <use xlink:href="#DejaVuSans-72" x="349.169922"/>
     <use xlink:href="#DejaVuSans-20" x="390.283203"/>
     <use xlink:href="#DejaVuSans-6f" x="422.070312"/>
     <use xlink:href="#DejaVuSans-66" x="483.251953"/>
     <use xlink:href="#DejaVuSans-20" x="518.457031"/>
     <use xlink:href="#DejaVuSans-48" x="550.244141"/>
     <use xlink:href="#DejaVuSans-46" x="625.439453"/>
     <use xlink:href="#DejaVuSans-20" x="682.958984"/>
     <use xlink:href="#DejaVuSans-73" x="714.746094"/>
     <use xlink:href="#DejaVuSans-61" x="766.845703"/>
     <use xlink:href="#DejaVuSans-6d" x="828.125"/>
     <use xlink:href="#DejaVuSans-70" x="925.537109"/>
     <use xlink:href="#DejaVuSans-6c" x="989.013672"/>
     <use xlink:href="#DejaVuSans-65" x="1016.796875"/>
     <use xlink:href="#DejaVuSans-73" x="1078.320312"/>
     <use xlink:href="#DejaVuSans-20" x="1130.419922"/>
     <use xlink:href="#DejaVuSans-28" x="1162.207031"/>
     <use xlink:href="#DejaVuSans-64" x="1201.220703"/>
     <use xlink:href="#DejaVuSans-29" x="1264.697266"/>
    </g>
   </g>
  </g>
  <g id="axes_2">
   <g id="patch_7">
    <path d="M 238.789988 311.164 
L 375.661275 311.164 
L 375.661275 33.964 
L 238.789988 33.964 
z
" style="fill: #ffffff"/>
   </g>
   <g id="PolyCollection_6">
    <defs>
     <path id="mc76500101b" d="M 245.99374 -316.291563 
L 245.99374 -232.845104 
L 260.401243 -155.086523 
L 274.808747 -115.241754 
L 289.216251 -102.972997 
L 303.623755 -95.650206 
L 318.031259 -86.812018 
L 332.438763 -83.841568 
L 346.846267 -78.238478 
L 361.253771 -76.25017 
L 375.661275 -70.419648 
L 390.068779 -68.759839 
L 404.476283 -67.505367 
L 418.883786 -67.107771 
L 433.29129 -65.947225 
L 447.698794 -66.09585 
L 462.106298 -65.883521 
L 476.513802 -65.375711 
L 490.921306 -64.949292 
L 505.32881 -65.017972 
L 519.736314 -64.291563 
L 519.736314 -75.48291 
L 519.736314 -75.48291 
L 505.32881 -75.231436 
L 490.921306 -76.168439 
L 476.513802 -76.906883 
L 462.106298 -78.185735 
L 447.698794 -78.059976 
L 433.29129 -78.402392 
L 418.883786 -80.51833 
L 404.476283 -81.649061 
L 390.068779 -83.999354 
L 375.661275 -87.139158 
L 361.253771 -97.697938 
L 346.846267 -98.633699 
L 332.438763 -104.774986 
L 318.031259 -110.983895 
L 303.623755 -122.522831 
L 289.216251 -137.457288 
L 274.808747 -161.218943 
L 260.401243 -215.10116 
L 245.99374 -316.291563 
z
" style="stroke: #1f77b4; stroke-opacity: 0.2"/>
    </defs>
    <g clip-path="url(#pac25c323c8)">
     <use xlink:href="#mc76500101b" x="0" y="362.855563" style="fill: #1f77b4; fill-opacity: 0.2; stroke: #1f77b4; stroke-opacity: 0.2"/>
    </g>
   </g>
   <g id="PolyCollection_7">
    <defs>
     <path id="m341193b0a1" d="M 245.99374 -271.008685 
L 245.99374 -182.054358 
L 260.401243 -130.929251 
L 274.808747 -94.863626 
L 289.216251 -90.076936 
L 303.623755 -82.675707 
L 318.031259 -75.729963 
L 332.438763 -68.794686 
L 346.846267 -68.686417 
L 361.253771 -67.227112 
L 375.661275 -67.154582 
L 375.661275 -81.057004 
L 375.661275 -81.057004 
L 361.253771 -81.003642 
L 346.846267 -84.915535 
L 332.438763 -85.247755 
L 318.031259 -96.897526 
L 303.623755 -107.868163 
L 289.216251 -119.378096 
L 274.808747 -135.866564 
L 260.401243 -227.512438 
L 245.99374 -271.008685 
z
" style="stroke: #ff7f0e; stroke-opacity: 0.2"/>
    </defs>
    <g clip-path="url(#pac25c323c8)">
     <use xlink:href="#m341193b0a1" x="0" y="362.855563" style="fill: #ff7f0e; fill-opacity: 0.2; stroke: #ff7f0e; stroke-opacity: 0.2"/>
    </g>
   </g>
   <g id="PolyCollection_8">
    <defs>
     <path id="m6e52688425" d="M 245.99374 -288.556538 
L 245.99374 -183.001346 
L 260.401243 -145.075937 
L 274.808747 -105.337192 
L 289.216251 -92.82573 
L 303.623755 -85.898612 
L 318.031259 -75.426866 
L 332.438763 -70.879086 
L 346.846267 -69.250376 
L 361.253771 -67.920024 
L 375.661275 -66.607551 
L 375.661275 -81.305694 
L 375.661275 -81.305694 
L 361.253771 -81.914351 
L 346.846267 -86.947154 
L 332.438763 -87.611101 
L 318.031259 -99.238737 
L 303.623755 -113.827806 
L 289.216251 -124.75322 
L 274.808747 -152.467669 
L 260.401243 -208.467739 
L 245.99374 -288.556538 
z
" style="stroke: #2ca02c; stroke-opacity: 0.2"/>
    </defs>
    <g clip-path="url(#pac25c323c8)">
     <use xlink:href="#m6e52688425" x="0" y="362.855563" style="fill: #2ca02c; fill-opacity: 0.2; stroke: #2ca02c; stroke-opacity: 0.2"/>
    </g>
   </g>
   <g id="PolyCollection_9">
    <defs>
     <path id="mcd49a919dc" d="M 245.99374 -242.525459 
L 245.99374 -171.785819 
L 260.401243 -123.245083 
L 274.808747 -99.392228 
L 289.216251 -91.310549 
L 303.623755 -88.848624 
L 318.031259 -84.22974 
L 332.438763 -77.1033 
L 346.846267 -76.124806 
L 361.253771 -73.872206 
L 375.661275 -68.834906 
L 375.661275 -84.187583 
L 375.661275 -84.187583 
L 361.253771 -90.095976 
L 346.846267 -95.128596 
L 332.438763 -95.016443 
L 318.031259 -107.609436 
L 303.623755 -114.252383 
L 289.216251 -122.651994 
L 274.808747 -139.48688 
L 260.401243 -177.968238 
L 245.99374 -242.525459 
z
" style="stroke: #d62728; stroke-opacity: 0.2"/>
    </defs>
    <g clip-path="url(#pac25c323c8)">
     <use xlink:href="#mcd49a919dc" x="0" y="362.855563" style="fill: #d62728; fill-opacity: 0.2; stroke: #d62728; stroke-opacity: 0.2"/>
    </g>
   </g>
   <g id="PolyCollection_10">
    <defs>
     <path id="m1ce9088de0" d="M 245.99374 -262.926807 
L 245.99374 -176.131883 
L 260.401243 -129.114186 
L 274.808747 -99.662983 
L 289.216251 -91.884696 
L 303.623755 -84.148249 
L 318.031259 -75.904578 
L 332.438763 -72.012035 
L 346.846267 -69.896948 
L 361.253771 -68.876799 
L 375.661275 -68.45913 
L 375.661275 -81.995913 
L 375.661275 -81.995913 
L 361.253771 -83.217382 
L 346.846267 -86.104495 
L 332.438763 -89.244802 
L 318.031259 -98.011486 
L 303.623755 -109.732735 
L 289.216251 -121.436909 
L 274.808747 -141.897712 
L 260.401243 -219.7897 
L 245.99374 -262.926807 
z
" style="stroke: #9467bd; stroke-opacity: 0.2"/>
    </defs>
    <g clip-path="url(#pac25c323c8)">
     <use xlink:href="#m1ce9088de0" x="0" y="362.855563" style="fill: #9467bd; fill-opacity: 0.2; stroke: #9467bd; stroke-opacity: 0.2"/>
    </g>
   </g>
   <g id="matplotlib.axis_3">
    <g id="xtick_3">
     <g id="line2d_13">
      <g>
       <use xlink:href="#md2b122dc6b" x="303.623755" y="311.164" style="stroke: #000000; stroke-width: 0.8"/>
      </g>
     </g>
     <g id="text_11">
      <!-- 10 -->
      <g transform="translate(294.716255 328.801813) scale(0.14 -0.14)">
       <use xlink:href="#DejaVuSans-31"/>
       <use xlink:href="#DejaVuSans-30" x="63.623047"/>
      </g>
     </g>
    </g>
    <g id="xtick_4">
     <g id="line2d_14">
      <g>
       <use xlink:href="#md2b122dc6b" x="375.661275" y="311.164" style="stroke: #000000; stroke-width: 0.8"/>
      </g>
     </g>
     <g id="text_12">
      <!-- 20 -->
      <g transform="translate(366.753775 328.801813) scale(0.14 -0.14)">
       <use xlink:href="#DejaVuSans-32"/>
       <use xlink:href="#DejaVuSans-30" x="63.623047"/>
      </g>
     </g>
    </g>
    <g id="text_13">
     <!--   -->
     <g transform="translate(305.000944 346.351188) scale(0.14 -0.14)">
      <use xlink:href="#DejaVuSans-20"/>
     </g>
    </g>
   </g>
   <g id="matplotlib.axis_4">
    <g id="ytick_6">
     <g id="line2d_15">
      <g>
       <use xlink:href="#mfd02ed79e4" x="238.789988" y="302.480871" style="stroke: #000000; stroke-width: 0.8"/>
      </g>
     </g>
     <g id="text_14">
      <!-- 0.0 -->
      <g transform="translate(209.525613 307.799778) scale(0.14 -0.14)">
       <use xlink:href="#DejaVuSans-30"/>
       <use xlink:href="#DejaVuSans-2e" x="63.623047"/>
       <use xlink:href="#DejaVuSans-30" x="95.410156"/>
      </g>
     </g>
    </g>
    <g id="ytick_7">
     <g id="line2d_16">
      <g>
       <use xlink:href="#mfd02ed79e4" x="238.789988" y="266.309752" style="stroke: #000000; stroke-width: 0.8"/>
      </g>
     </g>
     <g id="text_15">
      <!-- 0.1 -->
      <g transform="translate(209.525613 271.628658) scale(0.14 -0.14)">
       <use xlink:href="#DejaVuSans-30"/>
       <use xlink:href="#DejaVuSans-2e" x="63.623047"/>
       <use xlink:href="#DejaVuSans-31" x="95.410156"/>
      </g>
     </g>
    </g>
    <g id="ytick_8">
     <g id="line2d_17">
      <g>
       <use xlink:href="#mfd02ed79e4" x="238.789988" y="230.138632" style="stroke: #000000; stroke-width: 0.8"/>
      </g>
     </g>
     <g id="text_16">
      <!-- 0.2 -->
      <g transform="translate(209.525613 235.457538) scale(0.14 -0.14)">
       <use xlink:href="#DejaVuSans-30"/>
       <use xlink:href="#DejaVuSans-2e" x="63.623047"/>
       <use xlink:href="#DejaVuSans-32" x="95.410156"/>
      </g>
     </g>
    </g>
    <g id="ytick_9">
     <g id="line2d_18">
      <g>
       <use xlink:href="#mfd02ed79e4" x="238.789988" y="193.967513" style="stroke: #000000; stroke-width: 0.8"/>
      </g>
     </g>
     <g id="text_17">
      <!-- 0.3 -->
      <g transform="translate(209.525613 199.286419) scale(0.14 -0.14)">
       <defs>
        <path id="DejaVuSans-33" d="M 2597 2516 
Q 3050 2419 3304 2112 
Q 3559 1806 3559 1356 
Q 3559 666 3084 287 
Q 2609 -91 1734 -91 
Q 1441 -91 1130 -33 
Q 819 25 488 141 
L 488 750 
Q 750 597 1062 519 
Q 1375 441 1716 441 
Q 2309 441 2620 675 
Q 2931 909 2931 1356 
Q 2931 1769 2642 2001 
Q 2353 2234 1838 2234 
L 1294 2234 
L 1294 2753 
L 1863 2753 
Q 2328 2753 2575 2939 
Q 2822 3125 2822 3475 
Q 2822 3834 2567 4026 
Q 2313 4219 1838 4219 
Q 1578 4219 1281 4162 
Q 984 4106 628 3988 
L 628 4550 
Q 988 4650 1302 4700 
Q 1616 4750 1894 4750 
Q 2613 4750 3031 4423 
Q 3450 4097 3450 3541 
Q 3450 3153 3228 2886 
Q 3006 2619 2597 2516 
z
" transform="scale(0.015625)"/>
       </defs>
       <use xlink:href="#DejaVuSans-30"/>
       <use xlink:href="#DejaVuSans-2e" x="63.623047"/>
       <use xlink:href="#DejaVuSans-33" x="95.410156"/>
      </g>
     </g>
    </g>
    <g id="ytick_10">
     <g id="line2d_19">
      <g>
       <use xlink:href="#mfd02ed79e4" x="238.789988" y="157.796393" style="stroke: #000000; stroke-width: 0.8"/>
      </g>
     </g>
     <g id="text_18">
      <!-- 0.4 -->
      <g transform="translate(209.525613 163.115299) scale(0.14 -0.14)">
       <defs>
        <path id="DejaVuSans-34" d="M 2419 4116 
L 825 1625 
L 2419 1625 
L 2419 4116 
z
M 2253 4666 
L 3047 4666 
L 3047 1625 
L 3713 1625 
L 3713 1100 
L 3047 1100 
L 3047 0 
L 2419 0 
L 2419 1100 
L 313 1100 
L 313 1709 
L 2253 4666 
z
" transform="scale(0.015625)"/>
       </defs>
       <use xlink:href="#DejaVuSans-30"/>
       <use xlink:href="#DejaVuSans-2e" x="63.623047"/>
       <use xlink:href="#DejaVuSans-34" x="95.410156"/>
      </g>
     </g>
    </g>
    <g id="ytick_11">
     <g id="line2d_20">
      <g>
       <use xlink:href="#mfd02ed79e4" x="238.789988" y="121.625274" style="stroke: #000000; stroke-width: 0.8"/>
      </g>
     </g>
     <g id="text_19">
      <!-- 0.5 -->
      <g transform="translate(209.525613 126.94418) scale(0.14 -0.14)">
       <use xlink:href="#DejaVuSans-30"/>
       <use xlink:href="#DejaVuSans-2e" x="63.623047"/>
       <use xlink:href="#DejaVuSans-35" x="95.410156"/>
      </g>
     </g>
    </g>
    <g id="ytick_12">
     <g id="line2d_21">
      <g>
       <use xlink:href="#mfd02ed79e4" x="238.789988" y="85.454154" style="stroke: #000000; stroke-width: 0.8"/>
      </g>
     </g>
     <g id="text_20">
      <!-- 0.6 -->
      <g transform="translate(209.525613 90.77306) scale(0.14 -0.14)">
       <defs>
        <path id="DejaVuSans-36" d="M 2113 2584 
Q 1688 2584 1439 2293 
Q 1191 2003 1191 1497 
Q 1191 994 1439 701 
Q 1688 409 2113 409 
Q 2538 409 2786 701 
Q 3034 994 3034 1497 
Q 3034 2003 2786 2293 
Q 2538 2584 2113 2584 
z
M 3366 4563 
L 3366 3988 
Q 3128 4100 2886 4159 
Q 2644 4219 2406 4219 
Q 1781 4219 1451 3797 
Q 1122 3375 1075 2522 
Q 1259 2794 1537 2939 
Q 1816 3084 2150 3084 
Q 2853 3084 3261 2657 
Q 3669 2231 3669 1497 
Q 3669 778 3244 343 
Q 2819 -91 2113 -91 
Q 1303 -91 875 529 
Q 447 1150 447 2328 
Q 447 3434 972 4092 
Q 1497 4750 2381 4750 
Q 2619 4750 2861 4703 
Q 3103 4656 3366 4563 
z
" transform="scale(0.015625)"/>
       </defs>
       <use xlink:href="#DejaVuSans-30"/>
       <use xlink:href="#DejaVuSans-2e" x="63.623047"/>
       <use xlink:href="#DejaVuSans-36" x="95.410156"/>
      </g>
     </g>
    </g>
    <g id="ytick_13">
     <g id="line2d_22">
      <g>
       <use xlink:href="#mfd02ed79e4" x="238.789988" y="49.283034" style="stroke: #000000; stroke-width: 0.8"/>
      </g>
     </g>
     <g id="text_21">
      <!-- 0.7 -->
      <g transform="translate(209.525613 54.601941) scale(0.14 -0.14)">
       <defs>
        <path id="DejaVuSans-37" d="M 525 4666 
L 3525 4666 
L 3525 4397 
L 1831 0 
L 1172 0 
L 2766 4134 
L 525 4134 
L 525 4666 
z
" transform="scale(0.015625)"/>
       </defs>
       <use xlink:href="#DejaVuSans-30"/>
       <use xlink:href="#DejaVuSans-2e" x="63.623047"/>
       <use xlink:href="#DejaVuSans-37" x="95.410156"/>
      </g>
     </g>
    </g>
    <g id="text_22">
     <!-- NRMSE -->
     <g transform="translate(202.61405 197.5715) rotate(-90) scale(0.14 -0.14)">
      <defs>
       <path id="DejaVuSans-52" d="M 2841 2188 
Q 3044 2119 3236 1894 
Q 3428 1669 3622 1275 
L 4263 0 
L 3584 0 
L 2988 1197 
Q 2756 1666 2539 1819 
Q 2322 1972 1947 1972 
L 1259 1972 
L 1259 0 
L 628 0 
L 628 4666 
L 2053 4666 
Q 2853 4666 3247 4331 
Q 3641 3997 3641 3322 
Q 3641 2881 3436 2590 
Q 3231 2300 2841 2188 
z
M 1259 4147 
L 1259 2491 
L 2053 2491 
Q 2509 2491 2742 2702 
Q 2975 2913 2975 3322 
Q 2975 3731 2742 3939 
Q 2509 4147 2053 4147 
L 1259 4147 
z
" transform="scale(0.015625)"/>
       <path id="DejaVuSans-53" d="M 3425 4513 
L 3425 3897 
Q 3066 4069 2747 4153 
Q 2428 4238 2131 4238 
Q 1616 4238 1336 4038 
Q 1056 3838 1056 3469 
Q 1056 3159 1242 3001 
Q 1428 2844 1947 2747 
L 2328 2669 
Q 3034 2534 3370 2195 
Q 3706 1856 3706 1288 
Q 3706 609 3251 259 
Q 2797 -91 1919 -91 
Q 1588 -91 1214 -16 
Q 841 59 441 206 
L 441 856 
Q 825 641 1194 531 
Q 1563 422 1919 422 
Q 2459 422 2753 634 
Q 3047 847 3047 1241 
Q 3047 1584 2836 1778 
Q 2625 1972 2144 2069 
L 1759 2144 
Q 1053 2284 737 2584 
Q 422 2884 422 3419 
Q 422 4038 858 4394 
Q 1294 4750 2059 4750 
Q 2388 4750 2728 4690 
Q 3069 4631 3425 4513 
z
" transform="scale(0.015625)"/>
      </defs>
      <use xlink:href="#DejaVuSans-4e"/>
      <use xlink:href="#DejaVuSans-52" x="74.804688"/>
      <use xlink:href="#DejaVuSans-4d" x="144.287109"/>
      <use xlink:href="#DejaVuSans-53" x="230.566406"/>
      <use xlink:href="#DejaVuSans-45" x="294.042969"/>
     </g>
    </g>
   </g>
   <g id="line2d_23">
    <path d="M 245.99374 90.51824 
L 260.401243 178.40333 
L 274.808747 226.164842 
L 289.216251 242.747943 
L 303.623755 253.916338 
L 318.031259 263.86645 
L 332.438763 268.85584 
L 346.846267 274.958751 
L 361.253771 276.351665 
L 375.661275 284.282271 
L 390.068779 287.099669 
L 404.476283 289.04193 
L 418.883786 289.592569 
L 433.29129 290.848882 
L 447.698794 291.289468 
L 462.106298 291.574479 
L 476.513802 292.32429 
L 490.921306 292.831909 
L 505.32881 293.23321 
L 519.736314 293.418382 
" clip-path="url(#pac25c323c8)" style="fill: none; stroke: #1f77b4; stroke-width: 2; stroke-linecap: square"/>
   </g>
   <g id="line2d_24">
    <path d="M 245.99374 137.380468 
L 260.401243 188.932967 
L 274.808747 247.831075 
L 289.216251 258.219048 
L 303.623755 267.550846 
L 318.031259 276.634453 
L 332.438763 286.223771 
L 346.846267 286.329302 
L 361.253771 289.079233 
L 375.661275 289.433585 
" clip-path="url(#pac25c323c8)" style="fill: none; stroke: #ff7f0e; stroke-width: 2; stroke-linecap: square"/>
   </g>
   <g id="line2d_25">
    <path d="M 245.99374 129.525312 
L 260.401243 188.053429 
L 274.808747 234.134802 
L 289.216251 254.791101 
L 303.623755 263.503852 
L 318.031259 276.192026 
L 332.438763 284.179789 
L 346.846267 285.130947 
L 361.253771 288.20807 
L 375.661275 288.833737 
" clip-path="url(#pac25c323c8)" style="fill: none; stroke: #2ca02c; stroke-width: 2; stroke-linecap: square"/>
   </g>
   <g id="line2d_26">
    <path d="M 245.99374 156.29448 
L 260.401243 211.517832 
L 274.808747 243.562468 
L 289.216251 256.158338 
L 303.623755 261.459658 
L 318.031259 267.149792 
L 332.438763 277.458897 
L 346.846267 277.963959 
L 361.253771 281.529468 
L 375.661275 286.789397 
" clip-path="url(#pac25c323c8)" style="fill: none; stroke: #d62728; stroke-width: 2; stroke-linecap: square"/>
   </g>
   <g id="line2d_27">
    <path d="M 245.99374 142.007811 
L 260.401243 194.71955 
L 274.808747 243.554202 
L 289.216251 256.959071 
L 303.623755 266.217534 
L 318.031259 275.801848 
L 332.438763 282.250196 
L 346.846267 285.220375 
L 361.253771 287.437663 
L 375.661275 288.01344 
" clip-path="url(#pac25c323c8)" style="fill: none; stroke: #9467bd; stroke-width: 2; stroke-linecap: square"/>
   </g>
   <g id="patch_8">
    <path d="M 238.789988 311.164 
L 238.789988 33.964 
" style="fill: none; stroke: #000000; stroke-width: 0.8; stroke-linejoin: miter; stroke-linecap: square"/>
   </g>
   <g id="patch_9">
    <path d="M 375.661275 311.164 
L 375.661275 33.964 
" style="fill: none; stroke: #000000; stroke-width: 0.8; stroke-linejoin: miter; stroke-linecap: square"/>
   </g>
   <g id="patch_10">
    <path d="M 238.789988 311.164 
L 375.661275 311.164 
" style="fill: none; stroke: #000000; stroke-width: 0.8; stroke-linejoin: miter; stroke-linecap: square"/>
   </g>
   <g id="patch_11">
    <path d="M 238.789988 33.964 
L 375.661275 33.964 
" style="fill: none; stroke: #000000; stroke-width: 0.8; stroke-linejoin: miter; stroke-linecap: square"/>
   </g>
  </g>
  <g id="axes_3">
   <g id="patch_12">
    <path d="M 423.566225 311.164 
L 560.437512 311.164 
L 560.437512 33.964 
L 423.566225 33.964 
z
" style="fill: #ffffff"/>
   </g>
   <g id="PolyCollection_11">
    <defs>
     <path id="m9d311c2074" d="M 430.769977 -188.978263 
L 430.769977 -121.948011 
L 445.177481 -206.480209 
L 459.584985 -249.348752 
L 473.992489 -274.873026 
L 488.399993 -289.600008 
L 502.807497 -300.586304 
L 517.215001 -303.263985 
L 531.622505 -305.812095 
L 546.030008 -307.960444 
L 560.437512 -310.328261 
L 574.845016 -310.09517 
L 589.25252 -311.34546 
L 603.660024 -311.53046 
L 618.067528 -312.684958 
L 632.475032 -312.721169 
L 646.882536 -313.158221 
L 661.29004 -313.137627 
L 675.697544 -313.346983 
L 690.105048 -313.600845 
L 704.512551 -313.611967 
L 704.512551 -316.291563 
L 704.512551 -316.291563 
L 690.105048 -316.248447 
L 675.697544 -316.116986 
L 661.29004 -316.215027 
L 646.882536 -315.957908 
L 632.475032 -316.038903 
L 618.067528 -316.073835 
L 603.660024 -315.881786 
L 589.25252 -315.775559 
L 574.845016 -315.541862 
L 560.437512 -315.41799 
L 546.030008 -314.35605 
L 531.622505 -313.796896 
L 517.215001 -311.909378 
L 502.807497 -310.417559 
L 488.399993 -306.045337 
L 473.992489 -297.429817 
L 459.584985 -288.560235 
L 445.177481 -258.051168 
L 430.769977 -188.978263 
z
" style="stroke: #1f77b4; stroke-opacity: 0.2"/>
    </defs>
    <g clip-path="url(#pba96b227bf)">
     <use xlink:href="#m9d311c2074" x="0" y="362.855563" style="fill: #1f77b4; fill-opacity: 0.2; stroke: #1f77b4; stroke-opacity: 0.2"/>
    </g>
   </g>
   <g id="PolyCollection_12">
    <defs>
     <path id="mb4075e0281" d="M 430.769977 -238.070132 
L 430.769977 -154.347802 
L 445.177481 -178.882099 
L 459.584985 -277.484682 
L 473.992489 -293.326631 
L 488.399993 -301.624966 
L 502.807497 -306.135668 
L 517.215001 -310.56352 
L 531.622505 -310.452957 
L 546.030008 -311.992467 
L 560.437512 -311.597562 
L 560.437512 -315.784297 
L 560.437512 -315.784297 
L 546.030008 -315.691786 
L 531.622505 -315.416086 
L 517.215001 -315.326444 
L 502.807497 -312.772264 
L 488.399993 -310.648983 
L 473.992489 -307.938487 
L 459.584985 -304.55586 
L 445.177481 -282.783792 
L 430.769977 -238.070132 
z
" style="stroke: #ff7f0e; stroke-opacity: 0.2"/>
    </defs>
    <g clip-path="url(#pba96b227bf)">
     <use xlink:href="#mb4075e0281" x="0" y="362.855563" style="fill: #ff7f0e; fill-opacity: 0.2; stroke: #ff7f0e; stroke-opacity: 0.2"/>
    </g>
   </g>
   <g id="PolyCollection_13">
    <defs>
     <path id="m164cd057f4" d="M 430.769977 -237.861222 
L 430.769977 -64.291563 
L 445.177481 -232.513976 
L 459.584985 -266.111506 
L 473.992489 -288.825328 
L 488.399993 -298.764775 
L 502.807497 -306.156356 
L 517.215001 -310.790795 
L 531.622505 -310.307789 
L 546.030008 -312.153638 
L 560.437512 -312.157419 
L 560.437512 -315.742696 
L 560.437512 -315.742696 
L 546.030008 -315.670274 
L 531.622505 -315.120486 
L 517.215001 -315.084505 
L 502.807497 -312.910411 
L 488.399993 -309.379506 
L 473.992489 -305.75847 
L 459.584985 -299.208554 
L 445.177481 -277.264773 
L 430.769977 -237.861222 
z
" style="stroke: #2ca02c; stroke-opacity: 0.2"/>
    </defs>
    <g clip-path="url(#pba96b227bf)">
     <use xlink:href="#m164cd057f4" x="0" y="362.855563" style="fill: #2ca02c; fill-opacity: 0.2; stroke: #2ca02c; stroke-opacity: 0.2"/>
    </g>
   </g>
   <g id="PolyCollection_14">
    <defs>
     <path id="ma1a386b97b" d="M 430.769977 -258.13474 
L 430.769977 -202.901565 
L 445.177481 -251.184958 
L 459.584985 -275.005097 
L 473.992489 -292.723156 
L 488.399993 -299.398913 
L 502.807497 -303.617776 
L 517.215001 -309.094258 
L 531.622505 -308.984153 
L 546.030008 -310.500506 
L 560.437512 -311.787657 
L 560.437512 -315.71155 
L 560.437512 -315.71155 
L 546.030008 -315.195708 
L 531.622505 -314.327862 
L 517.215001 -314.272379 
L 502.807497 -311.620095 
L 488.399993 -309.792232 
L 473.992489 -307.037502 
L 459.584985 -300.80114 
L 445.177481 -288.688042 
L 430.769977 -258.13474 
z
" style="stroke: #d62728; stroke-opacity: 0.2"/>
    </defs>
    <g clip-path="url(#pba96b227bf)">
     <use xlink:href="#ma1a386b97b" x="0" y="362.855563" style="fill: #d62728; fill-opacity: 0.2; stroke: #d62728; stroke-opacity: 0.2"/>
    </g>
   </g>
   <g id="PolyCollection_15">
    <defs>
     <path id="m39a04ed50e" d="M 430.769977 -242.62691 
L 430.769977 -182.790122 
L 445.177481 -196.078103 
L 459.584985 -271.003081 
L 473.992489 -293.123186 
L 488.399993 -300.443341 
L 502.807497 -306.067054 
L 517.215001 -309.268118 
L 531.622505 -310.31782 
L 546.030008 -311.253628 
L 560.437512 -311.095777 
L 560.437512 -315.664364 
L 560.437512 -315.664364 
L 546.030008 -315.59952 
L 531.622505 -315.210127 
L 517.215001 -314.833297 
L 502.807497 -312.745609 
L 488.399993 -310.182202 
L 473.992489 -307.493606 
L 459.584985 -301.718562 
L 445.177481 -283.254118 
L 430.769977 -242.62691 
z
" style="stroke: #9467bd; stroke-opacity: 0.2"/>
    </defs>
    <g clip-path="url(#pba96b227bf)">
     <use xlink:href="#m39a04ed50e" x="0" y="362.855563" style="fill: #9467bd; fill-opacity: 0.2; stroke: #9467bd; stroke-opacity: 0.2"/>
    </g>
   </g>
   <g id="matplotlib.axis_5">
    <g id="xtick_5">
     <g id="line2d_28">
      <g>
       <use xlink:href="#md2b122dc6b" x="488.399993" y="311.164" style="stroke: #000000; stroke-width: 0.8"/>
      </g>
     </g>
     <g id="text_23">
      <!-- 10 -->
      <g transform="translate(479.492493 328.801813) scale(0.14 -0.14)">
       <use xlink:href="#DejaVuSans-31"/>
       <use xlink:href="#DejaVuSans-30" x="63.623047"/>
      </g>
     </g>
    </g>
    <g id="xtick_6">
     <g id="line2d_29">
      <g>
       <use xlink:href="#md2b122dc6b" x="560.437512" y="311.164" style="stroke: #000000; stroke-width: 0.8"/>
      </g>
     </g>
     <g id="text_24">
      <!-- 20 -->
      <g transform="translate(551.530012 328.801813) scale(0.14 -0.14)">
       <use xlink:href="#DejaVuSans-32"/>
       <use xlink:href="#DejaVuSans-30" x="63.623047"/>
      </g>
     </g>
    </g>
    <g id="text_25">
     <!--   -->
     <g transform="translate(489.777181 346.351188) scale(0.14 -0.14)">
      <use xlink:href="#DejaVuSans-20"/>
     </g>
    </g>
   </g>
   <g id="matplotlib.axis_6">
    <g id="ytick_14">
     <g id="line2d_30">
      <g>
       <use xlink:href="#mfd02ed79e4" x="423.566225" y="309.491084" style="stroke: #000000; stroke-width: 0.8"/>
      </g>
     </g>
     <g id="text_26">
      <!-- 0.0 -->
      <g transform="translate(394.30185 314.809991) scale(0.14 -0.14)">
       <use xlink:href="#DejaVuSans-30"/>
       <use xlink:href="#DejaVuSans-2e" x="63.623047"/>
       <use xlink:href="#DejaVuSans-30" x="95.410156"/>
      </g>
     </g>
    </g>
    <g id="ytick_15">
     <g id="line2d_31">
      <g>
       <use xlink:href="#mfd02ed79e4" x="423.566225" y="256.822708" style="stroke: #000000; stroke-width: 0.8"/>
      </g>
     </g>
     <g id="text_27">
      <!-- 0.2 -->
      <g transform="translate(394.30185 262.141614) scale(0.14 -0.14)">
       <use xlink:href="#DejaVuSans-30"/>
       <use xlink:href="#DejaVuSans-2e" x="63.623047"/>
       <use xlink:href="#DejaVuSans-32" x="95.410156"/>
      </g>
     </g>
    </g>
    <g id="ytick_16">
     <g id="line2d_32">
      <g>
       <use xlink:href="#mfd02ed79e4" x="423.566225" y="204.154331" style="stroke: #000000; stroke-width: 0.8"/>
      </g>
     </g>
     <g id="text_28">
      <!-- 0.4 -->
      <g transform="translate(394.30185 209.473238) scale(0.14 -0.14)">
       <use xlink:href="#DejaVuSans-30"/>
       <use xlink:href="#DejaVuSans-2e" x="63.623047"/>
       <use xlink:href="#DejaVuSans-34" x="95.410156"/>
      </g>
     </g>
    </g>
    <g id="ytick_17">
     <g id="line2d_33">
      <g>
       <use xlink:href="#mfd02ed79e4" x="423.566225" y="151.485955" style="stroke: #000000; stroke-width: 0.8"/>
      </g>
     </g>
     <g id="text_29">
      <!-- 0.6 -->
      <g transform="translate(394.30185 156.804861) scale(0.14 -0.14)">
       <use xlink:href="#DejaVuSans-30"/>
       <use xlink:href="#DejaVuSans-2e" x="63.623047"/>
       <use xlink:href="#DejaVuSans-36" x="95.410156"/>
      </g>
     </g>
    </g>
    <g id="ytick_18">
     <g id="line2d_34">
      <g>
       <use xlink:href="#mfd02ed79e4" x="423.566225" y="98.817579" style="stroke: #000000; stroke-width: 0.8"/>
      </g>
     </g>
     <g id="text_30">
      <!-- 0.8 -->
      <g transform="translate(394.30185 104.136485) scale(0.14 -0.14)">
       <defs>
        <path id="DejaVuSans-38" d="M 2034 2216 
Q 1584 2216 1326 1975 
Q 1069 1734 1069 1313 
Q 1069 891 1326 650 
Q 1584 409 2034 409 
Q 2484 409 2743 651 
Q 3003 894 3003 1313 
Q 3003 1734 2745 1975 
Q 2488 2216 2034 2216 
z
M 1403 2484 
Q 997 2584 770 2862 
Q 544 3141 544 3541 
Q 544 4100 942 4425 
Q 1341 4750 2034 4750 
Q 2731 4750 3128 4425 
Q 3525 4100 3525 3541 
Q 3525 3141 3298 2862 
Q 3072 2584 2669 2484 
Q 3125 2378 3379 2068 
Q 3634 1759 3634 1313 
Q 3634 634 3220 271 
Q 2806 -91 2034 -91 
Q 1263 -91 848 271 
Q 434 634 434 1313 
Q 434 1759 690 2068 
Q 947 2378 1403 2484 
z
M 1172 3481 
Q 1172 3119 1398 2916 
Q 1625 2713 2034 2713 
Q 2441 2713 2670 2916 
Q 2900 3119 2900 3481 
Q 2900 3844 2670 4047 
Q 2441 4250 2034 4250 
Q 1625 4250 1398 4047 
Q 1172 3844 1172 3481 
z
" transform="scale(0.015625)"/>
       </defs>
       <use xlink:href="#DejaVuSans-30"/>
       <use xlink:href="#DejaVuSans-2e" x="63.623047"/>
       <use xlink:href="#DejaVuSans-38" x="95.410156"/>
      </g>
     </g>
    </g>
    <g id="ytick_19">
     <g id="line2d_35">
      <g>
       <use xlink:href="#mfd02ed79e4" x="423.566225" y="46.149202" style="stroke: #000000; stroke-width: 0.8"/>
      </g>
     </g>
     <g id="text_31">
      <!-- 1.0 -->
      <g transform="translate(394.30185 51.468108) scale(0.14 -0.14)">
       <use xlink:href="#DejaVuSans-31"/>
       <use xlink:href="#DejaVuSans-2e" x="63.623047"/>
       <use xlink:href="#DejaVuSans-30" x="95.410156"/>
      </g>
     </g>
    </g>
    <g id="text_32">
     <!-- R2 Score -->
     <g transform="translate(387.390288 203.709625) rotate(-90) scale(0.14 -0.14)">
      <defs>
       <path id="DejaVuSans-63" d="M 3122 3366 
L 3122 2828 
Q 2878 2963 2633 3030 
Q 2388 3097 2138 3097 
Q 1578 3097 1268 2742 
Q 959 2388 959 1747 
Q 959 1106 1268 751 
Q 1578 397 2138 397 
Q 2388 397 2633 464 
Q 2878 531 3122 666 
L 3122 134 
Q 2881 22 2623 -34 
Q 2366 -91 2075 -91 
Q 1284 -91 818 406 
Q 353 903 353 1747 
Q 353 2603 823 3093 
Q 1294 3584 2113 3584 
Q 2378 3584 2631 3529 
Q 2884 3475 3122 3366 
z
" transform="scale(0.015625)"/>
      </defs>
      <use xlink:href="#DejaVuSans-52"/>
      <use xlink:href="#DejaVuSans-32" x="69.482422"/>
      <use xlink:href="#DejaVuSans-20" x="133.105469"/>
      <use xlink:href="#DejaVuSans-53" x="164.892578"/>
      <use xlink:href="#DejaVuSans-63" x="228.369141"/>
      <use xlink:href="#DejaVuSans-6f" x="283.349609"/>
      <use xlink:href="#DejaVuSans-72" x="344.53125"/>
      <use xlink:href="#DejaVuSans-65" x="383.394531"/>
     </g>
    </g>
   </g>
   <g id="line2d_36">
    <path d="M 430.769977 208.485918 
L 445.177481 129.921377 
L 459.584985 92.985104 
L 473.992489 75.872411 
L 488.399993 64.464258 
L 502.807497 57.045884 
L 517.215001 55.135313 
L 531.622505 52.539553 
L 546.030008 51.457685 
L 560.437512 49.906754 
L 574.845016 49.842957 
L 589.25252 49.013694 
L 603.660024 48.909943 
L 618.067528 48.378708 
L 632.475032 48.286699 
L 646.882536 48.115936 
L 661.29004 48.063508 
L 675.697544 47.943328 
L 690.105048 47.844799 
L 704.512551 47.822736 
" clip-path="url(#pba96b227bf)" style="fill: none; stroke: #1f77b4; stroke-width: 2; stroke-linecap: square"/>
   </g>
   <g id="line2d_37">
    <path d="M 430.769977 162.685084 
L 445.177481 123.223577 
L 459.584985 70.746571 
L 473.992489 61.68761 
L 488.399993 56.341536 
L 502.807497 53.132373 
L 517.215001 49.687848 
L 531.622505 49.642709 
L 546.030008 48.857076 
L 560.437512 48.913588 
" clip-path="url(#pba96b227bf)" style="fill: none; stroke: #ff7f0e; stroke-width: 2; stroke-linecap: square"/>
   </g>
   <g id="line2d_38">
    <path d="M 430.769977 199.14511 
L 445.177481 106.624928 
L 459.584985 78.859703 
L 473.992489 65.154731 
L 488.399993 58.306478 
L 502.807497 53.139086 
L 517.215001 49.775415 
L 531.622505 49.866467 
L 546.030008 48.818163 
L 560.437512 48.798708 
" clip-path="url(#pba96b227bf)" style="fill: none; stroke: #2ca02c; stroke-width: 2; stroke-linecap: square"/>
   </g>
   <g id="line2d_39">
    <path d="M 430.769977 130.611975 
L 445.177481 92.41205 
L 459.584985 73.376284 
L 473.992489 62.342218 
L 488.399993 57.960328 
L 502.807497 55.197404 
L 517.215001 50.941759 
L 531.622505 50.980543 
L 546.030008 49.798915 
L 560.437512 48.94787 
" clip-path="url(#pba96b227bf)" style="fill: none; stroke: #d62728; stroke-width: 2; stroke-linecap: square"/>
   </g>
   <g id="line2d_40">
    <path d="M 430.769977 149.846677 
L 445.177481 114.422791 
L 459.584985 74.999102 
L 473.992489 62.102097 
L 488.399993 57.210067 
L 502.807497 53.262303 
L 517.215001 50.497654 
L 531.622505 49.768543 
L 546.030008 49.233851 
L 560.437512 49.241822 
" clip-path="url(#pba96b227bf)" style="fill: none; stroke: #9467bd; stroke-width: 2; stroke-linecap: square"/>
   </g>
   <g id="patch_13">
    <path d="M 423.566225 311.164 
L 423.566225 33.964 
" style="fill: none; stroke: #000000; stroke-width: 0.8; stroke-linejoin: miter; stroke-linecap: square"/>
   </g>
   <g id="patch_14">
    <path d="M 560.437512 311.164 
L 560.437512 33.964 
" style="fill: none; stroke: #000000; stroke-width: 0.8; stroke-linejoin: miter; stroke-linecap: square"/>
   </g>
   <g id="patch_15">
    <path d="M 423.566225 311.164 
L 560.437512 311.164 
" style="fill: none; stroke: #000000; stroke-width: 0.8; stroke-linejoin: miter; stroke-linecap: square"/>
   </g>
   <g id="patch_16">
    <path d="M 423.566225 33.964 
L 560.437512 33.964 
" style="fill: none; stroke: #000000; stroke-width: 0.8; stroke-linejoin: miter; stroke-linecap: square"/>
   </g>
  </g>
  <g id="axes_4">
   <g id="patch_17">
    <path d="M 608.342463 311.164 
L 745.21375 311.164 
L 745.21375 33.964 
L 608.342463 33.964 
z
" style="fill: #ffffff"/>
   </g>
   <g id="PolyCollection_16">
    <defs>
     <path id="m9f45e2f9b7" d="M 615.546215 -64.856704 
L 615.546215 -64.291562 
L 629.953719 -64.832419 
L 644.361223 -65.674211 
L 658.768727 -66.405718 
L 673.17623 -66.990269 
L 687.583734 -67.377318 
L 701.991238 -68.293185 
L 716.398742 -69.460792 
L 730.806246 -70.057863 
L 745.21375 -71.220796 
L 759.621254 -72.750262 
L 774.028758 -73.468543 
L 788.436262 -74.710327 
L 802.843766 -76.312392 
L 817.25127 -76.884204 
L 831.658773 -78.785408 
L 846.066277 -78.932687 
L 860.473781 -80.823322 
L 874.881285 -82.863903 
L 889.288789 -82.711563 
L 889.288789 -98.633926 
L 889.288789 -98.633926 
L 874.881285 -98.671421 
L 860.473781 -93.92803 
L 846.066277 -90.679301 
L 831.658773 -90.20029 
L 817.25127 -87.188852 
L 802.843766 -85.866791 
L 788.436262 -82.006788 
L 774.028758 -80.62636 
L 759.621254 -78.729289 
L 745.21375 -76.830273 
L 730.806246 -74.786909 
L 716.398742 -73.633426 
L 701.991238 -71.281978 
L 687.583734 -69.963957 
L 673.17623 -68.757214 
L 658.768727 -67.78888 
L 644.361223 -66.658003 
L 629.953719 -65.639518 
L 615.546215 -64.856704 
z
" style="stroke: #1f77b4; stroke-opacity: 0.2"/>
    </defs>
    <g clip-path="url(#pe280153269)">
     <use xlink:href="#m9f45e2f9b7" x="0" y="362.855563" style="fill: #1f77b4; fill-opacity: 0.2; stroke: #1f77b4; stroke-opacity: 0.2"/>
    </g>
   </g>
   <g id="PolyCollection_17">
    <defs>
     <path id="m5e89be8db2" d="M 615.546215 -210.872091 
L 615.546215 -136.472978 
L 629.953719 -140.707434 
L 644.361223 -141.807239 
L 658.768727 -142.519583 
L 673.17623 -147.198256 
L 687.583734 -143.281563 
L 701.991238 -144.338216 
L 716.398742 -152.544549 
L 730.806246 -152.837045 
L 745.21375 -150.390029 
L 745.21375 -240.264382 
L 745.21375 -240.264382 
L 730.806246 -250.938454 
L 716.398742 -240.145955 
L 701.991238 -232.812897 
L 687.583734 -230.66333 
L 673.17623 -232.629745 
L 658.768727 -228.006014 
L 644.361223 -228.367267 
L 629.953719 -224.919081 
L 615.546215 -210.872091 
z
" style="stroke: #ff7f0e; stroke-opacity: 0.2"/>
    </defs>
    <g clip-path="url(#pe280153269)">
     <use xlink:href="#m5e89be8db2" x="0" y="362.855563" style="fill: #ff7f0e; fill-opacity: 0.2; stroke: #ff7f0e; stroke-opacity: 0.2"/>
    </g>
   </g>
   <g id="PolyCollection_18">
    <defs>
     <path id="m06cb39f339" d="M 615.546215 -285.950008 
L 615.546215 -175.450105 
L 629.953719 -177.872645 
L 644.361223 -180.238875 
L 658.768727 -180.875436 
L 673.17623 -190.39272 
L 687.583734 -188.001307 
L 701.991238 -187.771096 
L 716.398742 -186.745771 
L 730.806246 -190.650163 
L 745.21375 -197.334584 
L 745.21375 -316.291563 
L 745.21375 -316.291563 
L 730.806246 -306.342625 
L 716.398742 -309.528712 
L 701.991238 -310.172004 
L 687.583734 -303.133098 
L 673.17623 -310.006451 
L 658.768727 -292.986449 
L 644.361223 -292.591023 
L 629.953719 -283.06696 
L 615.546215 -285.950008 
z
" style="stroke: #2ca02c; stroke-opacity: 0.2"/>
    </defs>
    <g clip-path="url(#pe280153269)">
     <use xlink:href="#m06cb39f339" x="0" y="362.855563" style="fill: #2ca02c; fill-opacity: 0.2; stroke: #2ca02c; stroke-opacity: 0.2"/>
    </g>
   </g>
   <g id="PolyCollection_19">
    <defs>
     <path id="m84c3b846a3" d="M 615.546215 -254.354777 
L 615.546215 -153.029099 
L 629.953719 -158.885939 
L 644.361223 -151.34062 
L 658.768727 -156.433987 
L 673.17623 -165.830642 
L 687.583734 -161.889403 
L 701.991238 -160.215017 
L 716.398742 -160.493879 
L 730.806246 -168.34056 
L 745.21375 -157.432885 
L 745.21375 -258.526775 
L 745.21375 -258.526775 
L 730.806246 -272.136622 
L 716.398742 -266.087298 
L 701.991238 -260.505527 
L 687.583734 -248.745451 
L 673.17623 -268.747446 
L 658.768727 -242.338917 
L 644.361223 -241.873788 
L 629.953719 -249.551515 
L 615.546215 -254.354777 
z
" style="stroke: #d62728; stroke-opacity: 0.2"/>
    </defs>
    <g clip-path="url(#pe280153269)">
     <use xlink:href="#m84c3b846a3" x="0" y="362.855563" style="fill: #d62728; fill-opacity: 0.2; stroke: #d62728; stroke-opacity: 0.2"/>
    </g>
   </g>
   <g id="PolyCollection_20">
    <defs>
     <path id="md5edea5882" d="M 615.546215 -75.496083 
L 615.546215 -68.808232 
L 629.953719 -68.873423 
L 644.361223 -70.00576 
L 658.768727 -70.138607 
L 673.17623 -70.638791 
L 687.583734 -71.08447 
L 701.991238 -71.342338 
L 716.398742 -72.779713 
L 730.806246 -73.307714 
L 745.21375 -73.659342 
L 745.21375 -83.058335 
L 745.21375 -83.058335 
L 730.806246 -83.041265 
L 716.398742 -83.980526 
L 701.991238 -79.491526 
L 687.583734 -78.700786 
L 673.17623 -77.272471 
L 658.768727 -76.528389 
L 644.361223 -78.996517 
L 629.953719 -75.285436 
L 615.546215 -75.496083 
z
" style="stroke: #9467bd; stroke-opacity: 0.2"/>
    </defs>
    <g clip-path="url(#pe280153269)">
     <use xlink:href="#md5edea5882" x="0" y="362.855563" style="fill: #9467bd; fill-opacity: 0.2; stroke: #9467bd; stroke-opacity: 0.2"/>
    </g>
   </g>
   <g id="matplotlib.axis_7">
    <g id="xtick_7">
     <g id="line2d_41">
      <g>
       <use xlink:href="#md2b122dc6b" x="673.17623" y="311.164" style="stroke: #000000; stroke-width: 0.8"/>
      </g>
     </g>
     <g id="text_33">
      <!-- 10 -->
      <g transform="translate(664.26873 328.801813) scale(0.14 -0.14)">
       <use xlink:href="#DejaVuSans-31"/>
       <use xlink:href="#DejaVuSans-30" x="63.623047"/>
      </g>
     </g>
    </g>
    <g id="xtick_8">
     <g id="line2d_42">
      <g>
       <use xlink:href="#md2b122dc6b" x="745.21375" y="311.164" style="stroke: #000000; stroke-width: 0.8"/>
      </g>
     </g>
     <g id="text_34">
      <!-- 20 -->
      <g transform="translate(736.30625 328.801813) scale(0.14 -0.14)">
       <use xlink:href="#DejaVuSans-32"/>
       <use xlink:href="#DejaVuSans-30" x="63.623047"/>
      </g>
     </g>
    </g>
    <g id="text_35">
     <!--   -->
     <g transform="translate(674.553419 346.351188) scale(0.14 -0.14)">
      <use xlink:href="#DejaVuSans-20"/>
     </g>
    </g>
   </g>
   <g id="matplotlib.axis_8">
    <g id="ytick_20">
     <g id="line2d_43">
      <g>
       <use xlink:href="#mfd02ed79e4" x="608.342463" y="299.459378" style="stroke: #000000; stroke-width: 0.8"/>
      </g>
     </g>
     <g id="text_36">
      <!-- 0 -->
      <g transform="translate(592.434963 304.778284) scale(0.14 -0.14)">
       <use xlink:href="#DejaVuSans-30"/>
      </g>
     </g>
    </g>
    <g id="ytick_21">
     <g id="line2d_44">
      <g>
       <use xlink:href="#mfd02ed79e4" x="608.342463" y="245.735422" style="stroke: #000000; stroke-width: 0.8"/>
      </g>
     </g>
     <g id="text_37">
      <!-- 20 -->
      <g transform="translate(583.527463 251.054328) scale(0.14 -0.14)">
       <use xlink:href="#DejaVuSans-32"/>
       <use xlink:href="#DejaVuSans-30" x="63.623047"/>
      </g>
     </g>
    </g>
    <g id="ytick_22">
     <g id="line2d_45">
      <g>
       <use xlink:href="#mfd02ed79e4" x="608.342463" y="192.011466" style="stroke: #000000; stroke-width: 0.8"/>
      </g>
     </g>
     <g id="text_38">
      <!-- 40 -->
      <g transform="translate(583.527463 197.330373) scale(0.14 -0.14)">
       <use xlink:href="#DejaVuSans-34"/>
       <use xlink:href="#DejaVuSans-30" x="63.623047"/>
      </g>
     </g>
    </g>
    <g id="ytick_23">
     <g id="line2d_46">
      <g>
       <use xlink:href="#mfd02ed79e4" x="608.342463" y="138.287511" style="stroke: #000000; stroke-width: 0.8"/>
      </g>
     </g>
     <g id="text_39">
      <!-- 60 -->
      <g transform="translate(583.527463 143.606417) scale(0.14 -0.14)">
       <use xlink:href="#DejaVuSans-36"/>
       <use xlink:href="#DejaVuSans-30" x="63.623047"/>
      </g>
     </g>
    </g>
    <g id="ytick_24">
     <g id="line2d_47">
      <g>
       <use xlink:href="#mfd02ed79e4" x="608.342463" y="84.563555" style="stroke: #000000; stroke-width: 0.8"/>
      </g>
     </g>
     <g id="text_40">
      <!-- 80 -->
      <g transform="translate(583.527463 89.882461) scale(0.14 -0.14)">
       <use xlink:href="#DejaVuSans-38"/>
       <use xlink:href="#DejaVuSans-30" x="63.623047"/>
      </g>
     </g>
    </g>
    <g id="text_41">
     <!-- CPU time (s) -->
     <g transform="translate(576.6159 216.168531) rotate(-90) scale(0.14 -0.14)">
      <defs>
       <path id="DejaVuSans-43" d="M 4122 4306 
L 4122 3641 
Q 3803 3938 3442 4084 
Q 3081 4231 2675 4231 
Q 1875 4231 1450 3742 
Q 1025 3253 1025 2328 
Q 1025 1406 1450 917 
Q 1875 428 2675 428 
Q 3081 428 3442 575 
Q 3803 722 4122 1019 
L 4122 359 
Q 3791 134 3420 21 
Q 3050 -91 2638 -91 
Q 1578 -91 968 557 
Q 359 1206 359 2328 
Q 359 3453 968 4101 
Q 1578 4750 2638 4750 
Q 3056 4750 3426 4639 
Q 3797 4528 4122 4306 
z
" transform="scale(0.015625)"/>
       <path id="DejaVuSans-50" d="M 1259 4147 
L 1259 2394 
L 2053 2394 
Q 2494 2394 2734 2622 
Q 2975 2850 2975 3272 
Q 2975 3691 2734 3919 
Q 2494 4147 2053 4147 
L 1259 4147 
z
M 628 4666 
L 2053 4666 
Q 2838 4666 3239 4311 
Q 3641 3956 3641 3272 
Q 3641 2581 3239 2228 
Q 2838 1875 2053 1875 
L 1259 1875 
L 1259 0 
L 628 0 
L 628 4666 
z
" transform="scale(0.015625)"/>
       <path id="DejaVuSans-55" d="M 556 4666 
L 1191 4666 
L 1191 1831 
Q 1191 1081 1462 751 
Q 1734 422 2344 422 
Q 2950 422 3222 751 
Q 3494 1081 3494 1831 
L 3494 4666 
L 4128 4666 
L 4128 1753 
Q 4128 841 3676 375 
Q 3225 -91 2344 -91 
Q 1459 -91 1007 375 
Q 556 841 556 1753 
L 556 4666 
z
" transform="scale(0.015625)"/>
       <path id="DejaVuSans-74" d="M 1172 4494 
L 1172 3500 
L 2356 3500 
L 2356 3053 
L 1172 3053 
L 1172 1153 
Q 1172 725 1289 603 
Q 1406 481 1766 481 
L 2356 481 
L 2356 0 
L 1766 0 
Q 1100 0 847 248 
Q 594 497 594 1153 
L 594 3053 
L 172 3053 
L 172 3500 
L 594 3500 
L 594 4494 
L 1172 4494 
z
" transform="scale(0.015625)"/>
       <path id="DejaVuSans-69" d="M 603 3500 
L 1178 3500 
L 1178 0 
L 603 0 
L 603 3500 
z
M 603 4863 
L 1178 4863 
L 1178 4134 
L 603 4134 
L 603 4863 
z
" transform="scale(0.015625)"/>
      </defs>
      <use xlink:href="#DejaVuSans-43"/>
      <use xlink:href="#DejaVuSans-50" x="69.824219"/>
      <use xlink:href="#DejaVuSans-55" x="130.126953"/>
      <use xlink:href="#DejaVuSans-20" x="203.320312"/>
      <use xlink:href="#DejaVuSans-74" x="235.107422"/>
      <use xlink:href="#DejaVuSans-69" x="274.316406"/>
      <use xlink:href="#DejaVuSans-6d" x="302.099609"/>
      <use xlink:href="#DejaVuSans-65" x="399.511719"/>
      <use xlink:href="#DejaVuSans-20" x="461.035156"/>
      <use xlink:href="#DejaVuSans-28" x="492.822266"/>
      <use xlink:href="#DejaVuSans-73" x="531.835938"/>
      <use xlink:href="#DejaVuSans-29" x="583.935547"/>
     </g>
    </g>
   </g>
   <g id="line2d_48">
    <path d="M 615.546215 298.290975 
L 629.953719 297.635263 
L 644.361223 296.71301 
L 658.768727 295.790278 
L 673.17623 295.024896 
L 687.583734 294.22334 
L 701.991238 293.115791 
L 716.398742 291.420706 
L 730.806246 290.513313 
L 745.21375 288.939658 
L 759.621254 287.312144 
L 762.559966 287.040392 
" clip-path="url(#pe280153269)" style="fill: none; stroke: #1f77b4; stroke-width: 2; stroke-linecap: square"/>
   </g>
   <g id="line2d_49">
    <path d="M 615.546215 189.977676 
L 629.953719 184.962987 
L 644.361223 181.143957 
L 658.768727 181.987855 
L 673.17623 175.148766 
L 687.583734 178.026427 
L 701.991238 174.589148 
L 716.398742 169.564907 
L 730.806246 165.429925 
L 745.21375 171.875118 
" clip-path="url(#pe280153269)" style="fill: none; stroke: #ff7f0e; stroke-width: 2; stroke-linecap: square"/>
   </g>
   <g id="line2d_50">
    <path d="M 615.546215 134.305427 
L 629.953719 136.042874 
L 644.361223 127.285082 
L 658.768727 126.213955 
L 673.17623 118.889784 
L 687.583734 120.677358 
L 701.991238 115.884635 
L 716.398742 119.695554 
L 730.806246 114.703417 
L 745.21375 108.327112 
" clip-path="url(#pe280153269)" style="fill: none; stroke: #2ca02c; stroke-width: 2; stroke-linecap: square"/>
   </g>
   <g id="line2d_51">
    <path d="M 615.546215 162.507589 
L 629.953719 161.262134 
L 644.361223 169.074971 
L 658.768727 166.983411 
L 673.17623 150.031427 
L 687.583734 161.49541 
L 701.991238 157.021537 
L 716.398742 151.776898 
L 730.806246 147.498818 
L 745.21375 157.606806 
" clip-path="url(#pe280153269)" style="fill: none; stroke: #d62728; stroke-width: 2; stroke-linecap: square"/>
   </g>
   <g id="line2d_52">
    <path d="M 615.546215 290.961664 
L 629.953719 291.024031 
L 644.361223 288.900787 
L 658.768727 289.749721 
L 673.17623 289.403097 
L 687.583734 288.277407 
L 701.991238 287.711986 
L 716.398742 284.983955 
L 730.806246 285.087862 
L 745.21375 284.80214 
" clip-path="url(#pe280153269)" style="fill: none; stroke: #9467bd; stroke-width: 2; stroke-linecap: square"/>
   </g>
   <g id="patch_18">
    <path d="M 608.342463 311.164 
L 608.342463 33.964 
" style="fill: none; stroke: #000000; stroke-width: 0.8; stroke-linejoin: miter; stroke-linecap: square"/>
   </g>
   <g id="patch_19">
    <path d="M 745.21375 311.164 
L 745.21375 33.964 
" style="fill: none; stroke: #000000; stroke-width: 0.8; stroke-linejoin: miter; stroke-linecap: square"/>
   </g>
   <g id="patch_20">
    <path d="M 608.342463 311.164 
L 745.21375 311.164 
" style="fill: none; stroke: #000000; stroke-width: 0.8; stroke-linejoin: miter; stroke-linecap: square"/>
   </g>
   <g id="patch_21">
    <path d="M 608.342463 33.964 
L 745.21375 33.964 
" style="fill: none; stroke: #000000; stroke-width: 0.8; stroke-linejoin: miter; stroke-linecap: square"/>
   </g>
   <g id="legend_1">
    <g id="patch_22">
     <path d="M 26.936841 30.181563 
L 751.759966 30.181563 
Q 754.359966 30.181563 754.359966 27.581563 
L 754.359966 9.8 
Q 754.359966 7.2 751.759966 7.2 
L 26.936841 7.2 
Q 24.336841 7.2 24.336841 9.8 
L 24.336841 27.581563 
Q 24.336841 30.181563 26.936841 30.181563 
z
" style="fill: #ffffff; opacity: 0.8; stroke: #cccccc; stroke-linejoin: miter"/>
    </g>
    <g id="line2d_53">
     <path d="M 29.536841 17.727969 
L 42.536841 17.727969 
L 55.536841 17.727969 
" style="fill: none; stroke: #1f77b4; stroke-width: 2; stroke-linecap: square"/>
    </g>
    <g id="text_42">
     <!-- Kriging -->
     <g transform="translate(65.936841 22.277969) scale(0.13 -0.13)">
      <defs>
       <path id="DejaVuSans-4b" d="M 628 4666 
L 1259 4666 
L 1259 2694 
L 3353 4666 
L 4166 4666 
L 1850 2491 
L 4331 0 
L 3500 0 
L 1259 2247 
L 1259 0 
L 628 0 
L 628 4666 
z
" transform="scale(0.015625)"/>
       <path id="DejaVuSans-67" d="M 2906 1791 
Q 2906 2416 2648 2759 
Q 2391 3103 1925 3103 
Q 1463 3103 1205 2759 
Q 947 2416 947 1791 
Q 947 1169 1205 825 
Q 1463 481 1925 481 
Q 2391 481 2648 825 
Q 2906 1169 2906 1791 
z
M 3481 434 
Q 3481 -459 3084 -895 
Q 2688 -1331 1869 -1331 
Q 1566 -1331 1297 -1286 
Q 1028 -1241 775 -1147 
L 775 -588 
Q 1028 -725 1275 -790 
Q 1522 -856 1778 -856 
Q 2344 -856 2625 -561 
Q 2906 -266 2906 331 
L 2906 616 
Q 2728 306 2450 153 
Q 2172 0 1784 0 
Q 1141 0 747 490 
Q 353 981 353 1791 
Q 353 2603 747 3093 
Q 1141 3584 1784 3584 
Q 2172 3584 2450 3431 
Q 2728 3278 2906 2969 
L 2906 3500 
L 3481 3500 
L 3481 434 
z
" transform="scale(0.015625)"/>
      </defs>
      <use xlink:href="#DejaVuSans-4b"/>
      <use xlink:href="#DejaVuSans-72" x="65.576172"/>
      <use xlink:href="#DejaVuSans-69" x="106.689453"/>
      <use xlink:href="#DejaVuSans-67" x="134.472656"/>
      <use xlink:href="#DejaVuSans-69" x="197.949219"/>
      <use xlink:href="#DejaVuSans-6e" x="225.732422"/>
      <use xlink:href="#DejaVuSans-67" x="289.111328"/>
     </g>
    </g>
    <g id="line2d_54">
     <path d="M 137.774028 17.727969 
L 150.774028 17.727969 
L 163.774028 17.727969 
" style="fill: none; stroke: #ff7f0e; stroke-width: 2; stroke-linecap: square"/>
    </g>
    <g id="text_43">
     <!-- Hierarchical Kriging -->
     <g transform="translate(174.174028 22.277969) scale(0.13 -0.13)">
      <defs>
       <path id="DejaVuSans-68" d="M 3513 2113 
L 3513 0 
L 2938 0 
L 2938 2094 
Q 2938 2591 2744 2837 
Q 2550 3084 2163 3084 
Q 1697 3084 1428 2787 
Q 1159 2491 1159 1978 
L 1159 0 
L 581 0 
L 581 4863 
L 1159 4863 
L 1159 2956 
Q 1366 3272 1645 3428 
Q 1925 3584 2291 3584 
Q 2894 3584 3203 3211 
Q 3513 2838 3513 2113 
z
" transform="scale(0.015625)"/>
      </defs>
      <use xlink:href="#DejaVuSans-48"/>
      <use xlink:href="#DejaVuSans-69" x="75.195312"/>
      <use xlink:href="#DejaVuSans-65" x="102.978516"/>
      <use xlink:href="#DejaVuSans-72" x="164.501953"/>
      <use xlink:href="#DejaVuSans-61" x="205.615234"/>
      <use xlink:href="#DejaVuSans-72" x="266.894531"/>
      <use xlink:href="#DejaVuSans-63" x="305.757812"/>
      <use xlink:href="#DejaVuSans-68" x="360.738281"/>
      <use xlink:href="#DejaVuSans-69" x="424.117188"/>
      <use xlink:href="#DejaVuSans-63" x="451.900391"/>
      <use xlink:href="#DejaVuSans-61" x="506.880859"/>
      <use xlink:href="#DejaVuSans-6c" x="568.160156"/>
      <use xlink:href="#DejaVuSans-20" x="595.943359"/>
      <use xlink:href="#DejaVuSans-4b" x="627.730469"/>
      <use xlink:href="#DejaVuSans-72" x="693.306641"/>
      <use xlink:href="#DejaVuSans-69" x="734.419922"/>
      <use xlink:href="#DejaVuSans-67" x="762.203125"/>
      <use xlink:href="#DejaVuSans-69" x="825.679688"/>
      <use xlink:href="#DejaVuSans-6e" x="853.462891"/>
      <use xlink:href="#DejaVuSans-67" x="916.841797"/>
     </g>
    </g>
    <g id="line2d_55">
     <path d="M 327.616685 17.727969 
L 340.616685 17.727969 
L 353.616685 17.727969 
" style="fill: none; stroke: #2ca02c; stroke-width: 2; stroke-linecap: square"/>
    </g>
    <g id="text_44">
     <!-- Co-Kriging -->
     <g transform="translate(364.016685 22.277969) scale(0.13 -0.13)">
      <defs>
       <path id="DejaVuSans-2d" d="M 313 2009 
L 1997 2009 
L 1997 1497 
L 313 1497 
L 313 2009 
z
" transform="scale(0.015625)"/>
      </defs>
      <use xlink:href="#DejaVuSans-43"/>
      <use xlink:href="#DejaVuSans-6f" x="69.824219"/>
      <use xlink:href="#DejaVuSans-2d" x="132.880859"/>
      <use xlink:href="#DejaVuSans-4b" x="168.964844"/>
      <use xlink:href="#DejaVuSans-72" x="234.541016"/>
      <use xlink:href="#DejaVuSans-69" x="275.654297"/>
      <use xlink:href="#DejaVuSans-67" x="303.4375"/>
      <use xlink:href="#DejaVuSans-69" x="366.914062"/>
      <use xlink:href="#DejaVuSans-6e" x="394.697266"/>
      <use xlink:href="#DejaVuSans-67" x="458.076172"/>
     </g>
    </g>
    <g id="line2d_56">
     <path d="M 457.81981 17.727969 
L 470.81981 17.727969 
L 483.81981 17.727969 
" style="fill: none; stroke: #d62728; stroke-width: 2; stroke-linecap: square"/>
    </g>
    <g id="text_45">
     <!-- Scaled Kriging -->
     <g transform="translate(494.21981 22.277969) scale(0.13 -0.13)">
      <use xlink:href="#DejaVuSans-53"/>
      <use xlink:href="#DejaVuSans-63" x="63.476562"/>
      <use xlink:href="#DejaVuSans-61" x="118.457031"/>
      <use xlink:href="#DejaVuSans-6c" x="179.736328"/>
      <use xlink:href="#DejaVuSans-65" x="207.519531"/>
      <use xlink:href="#DejaVuSans-64" x="269.042969"/>
      <use xlink:href="#DejaVuSans-20" x="332.519531"/>
      <use xlink:href="#DejaVuSans-4b" x="364.306641"/>
      <use xlink:href="#DejaVuSans-72" x="429.882812"/>
      <use xlink:href="#DejaVuSans-69" x="470.996094"/>
      <use xlink:href="#DejaVuSans-67" x="498.779297"/>
      <use xlink:href="#DejaVuSans-69" x="562.255859"/>
      <use xlink:href="#DejaVuSans-6e" x="590.039062"/>
      <use xlink:href="#DejaVuSans-67" x="653.417969"/>
     </g>
    </g>
    <g id="line2d_57">
     <path d="M 613.419653 17.727969 
L 626.419653 17.727969 
L 639.419653 17.727969 
" style="fill: none; stroke: #9467bd; stroke-width: 2; stroke-linecap: square"/>
    </g>
    <g id="text_46">
     <!-- MF-RBF-Kriging -->
     <g transform="translate(649.819653 22.277969) scale(0.13 -0.13)">
      <defs>
       <path id="DejaVuSans-42" d="M 1259 2228 
L 1259 519 
L 2272 519 
Q 2781 519 3026 730 
Q 3272 941 3272 1375 
Q 3272 1813 3026 2020 
Q 2781 2228 2272 2228 
L 1259 2228 
z
M 1259 4147 
L 1259 2741 
L 2194 2741 
Q 2656 2741 2882 2914 
Q 3109 3088 3109 3444 
Q 3109 3797 2882 3972 
Q 2656 4147 2194 4147 
L 1259 4147 
z
M 628 4666 
L 2241 4666 
Q 2963 4666 3353 4366 
Q 3744 4066 3744 3513 
Q 3744 3084 3544 2831 
Q 3344 2578 2956 2516 
Q 3422 2416 3680 2098 
Q 3938 1781 3938 1306 
Q 3938 681 3513 340 
Q 3088 0 2303 0 
L 628 0 
L 628 4666 
z
" transform="scale(0.015625)"/>
      </defs>
      <use xlink:href="#DejaVuSans-4d"/>
      <use xlink:href="#DejaVuSans-46" x="86.279297"/>
      <use xlink:href="#DejaVuSans-2d" x="143.798828"/>
      <use xlink:href="#DejaVuSans-52" x="179.882812"/>
      <use xlink:href="#DejaVuSans-42" x="249.365234"/>
      <use xlink:href="#DejaVuSans-46" x="317.96875"/>
      <use xlink:href="#DejaVuSans-2d" x="375.488281"/>
      <use xlink:href="#DejaVuSans-4b" x="411.572266"/>
      <use xlink:href="#DejaVuSans-72" x="477.148438"/>
      <use xlink:href="#DejaVuSans-69" x="518.261719"/>
      <use xlink:href="#DejaVuSans-67" x="546.044922"/>
      <use xlink:href="#DejaVuSans-69" x="609.521484"/>
      <use xlink:href="#DejaVuSans-6e" x="637.304688"/>
      <use xlink:href="#DejaVuSans-67" x="700.683594"/>
     </g>
    </g>
   </g>
  </g>
 </g>
 <defs>
  <clipPath id="p207b78d0e3">
   <rect x="54.01375" y="33.964" width="136.871287" height="277.2"/>
  </clipPath>
  <clipPath id="pac25c323c8">
   <rect x="238.789988" y="33.964" width="136.871287" height="277.2"/>
  </clipPath>
  <clipPath id="pba96b227bf">
   <rect x="423.566225" y="33.964" width="136.871287" height="277.2"/>
  </clipPath>
  <clipPath id="pe280153269">
   <rect x="608.342463" y="33.964" width="136.871287" height="277.2"/>
  </clipPath>
 </defs>
</svg>
