<?xml version="1.0" encoding="utf-8" standalone="no"?>
<!DOCTYPE svg PUBLIC "-//W3C//DTD SVG 1.1//EN"
  "http://www.w3.org/Graphics/SVG/1.1/DTD/svg11.dtd">
<svg xmlns:xlink="http://www.w3.org/1999/xlink" width="766.519602pt" height="280.142031pt" viewBox="0 0 766.519602 280.142031" xmlns="http://www.w3.org/2000/svg" version="1.1">
 <metadata>
  <rdf:RDF xmlns:dc="http://purl.org/dc/elements/1.1/" xmlns:cc="http://creativecommons.org/ns#" xmlns:rdf="http://www.w3.org/1999/02/22-rdf-syntax-ns#">
   <cc:Work>
    <dc:type rdf:resource="http://purl.org/dc/dcmitype/StillImage"/>
    <dc:date>2024-02-07T16:04:45.083932</dc:date>
    <dc:format>image/svg+xml</dc:format>
    <dc:creator>
     <cc:Agent>
      <dc:title>Matplotlib v3.7.2, https://matplotlib.org/</dc:title>
     </cc:Agent>
    </dc:creator>
   </cc:Work>
  </rdf:RDF>
 </metadata>
 <defs>
  <style type="text/css">*{stroke-linejoin: round; stroke-linecap: butt}</style>
 </defs>
 <g id="figure_1">
  <g id="patch_1">
   <path d="M 0 280.142031 
L 766.519602 280.142031 
L 766.519602 0 
L 0 0 
z
" style="fill: #ffffff"/>
  </g>
  <g id="axes_1">
   <g id="patch_2">
    <path d="M 63.485625 234.278906 
L 255.485625 234.278906 
L 255.485625 12.518906 
L 63.485625 12.518906 
z
" style="fill: #ffffff"/>
   </g>
   <g id="matplotlib.axis_1">
    <g id="xtick_1">
     <g id="line2d_1">
      <path d="M 72.212898 234.278906 
L 72.212898 12.518906 
" clip-path="url(#p0ebe503a9d)" style="fill: none; stroke: #cccccc; stroke-linecap: round"/>
     </g>
     <g id="text_1">
      <!-- 5 -->
      <g style="fill: #262626" transform="translate(67.759148 254.416719) scale(0.14 -0.14)">
       <defs>
        <path id="DejaVuSans-35" d="M 691 4666 
L 3169 4666 
L 3169 4134 
L 1269 4134 
L 1269 2991 
Q 1406 3038 1543 3061 
Q 1681 3084 1819 3084 
Q 2600 3084 3056 2656 
Q 3513 2228 3513 1497 
Q 3513 744 3044 326 
Q 2575 -91 1722 -91 
Q 1428 -91 1123 -41 
Q 819 9 494 109 
L 494 744 
Q 775 591 1075 516 
Q 1375 441 1709 441 
Q 2250 441 2565 725 
Q 2881 1009 2881 1497 
Q 2881 1984 2565 2268 
Q 2250 2553 1709 2553 
Q 1456 2553 1204 2497 
Q 953 2441 691 2322 
L 691 4666 
z
" transform="scale(0.015625)"/>
       </defs>
       <use xlink:href="#DejaVuSans-35"/>
      </g>
     </g>
    </g>
    <g id="xtick_2">
     <g id="line2d_2">
      <path d="M 99.772706 234.278906 
L 99.772706 12.518906 
" clip-path="url(#p0ebe503a9d)" style="fill: none; stroke: #cccccc; stroke-linecap: round"/>
     </g>
     <g id="text_2">
      <!-- 20 -->
      <g style="fill: #262626" transform="translate(90.865206 254.416719) scale(0.14 -0.14)">
       <defs>
        <path id="DejaVuSans-32" d="M 1228 531 
L 3431 531 
L 3431 0 
L 469 0 
L 469 531 
Q 828 903 1448 1529 
Q 2069 2156 2228 2338 
Q 2531 2678 2651 2914 
Q 2772 3150 2772 3378 
Q 2772 3750 2511 3984 
Q 2250 4219 1831 4219 
Q 1534 4219 1204 4116 
Q 875 4013 500 3803 
L 500 4441 
Q 881 4594 1212 4672 
Q 1544 4750 1819 4750 
Q 2544 4750 2975 4387 
Q 3406 4025 3406 3419 
Q 3406 3131 3298 2873 
Q 3191 2616 2906 2266 
Q 2828 2175 2409 1742 
Q 1991 1309 1228 531 
z
" transform="scale(0.015625)"/>
        <path id="DejaVuSans-30" d="M 2034 4250 
Q 1547 4250 1301 3770 
Q 1056 3291 1056 2328 
Q 1056 1369 1301 889 
Q 1547 409 2034 409 
Q 2525 409 2770 889 
Q 3016 1369 3016 2328 
Q 3016 3291 2770 3770 
Q 2525 4250 2034 4250 
z
M 2034 4750 
Q 2819 4750 3233 4129 
Q 3647 3509 3647 2328 
Q 3647 1150 3233 529 
Q 2819 -91 2034 -91 
Q 1250 -91 836 529 
Q 422 1150 422 2328 
Q 422 3509 836 4129 
Q 1250 4750 2034 4750 
z
" transform="scale(0.015625)"/>
       </defs>
       <use xlink:href="#DejaVuSans-32"/>
       <use xlink:href="#DejaVuSans-30" x="63.623047"/>
      </g>
     </g>
    </g>
    <g id="xtick_3">
     <g id="line2d_3">
      <path d="M 136.519118 234.278906 
L 136.519118 12.518906 
" clip-path="url(#p0ebe503a9d)" style="fill: none; stroke: #cccccc; stroke-linecap: round"/>
     </g>
     <g id="text_3">
      <!-- 40 -->
      <g style="fill: #262626" transform="translate(127.611618 254.416719) scale(0.14 -0.14)">
       <defs>
        <path id="DejaVuSans-34" d="M 2419 4116 
L 825 1625 
L 2419 1625 
L 2419 4116 
z
M 2253 4666 
L 3047 4666 
L 3047 1625 
L 3713 1625 
L 3713 1100 
L 3047 1100 
L 3047 0 
L 2419 0 
L 2419 1100 
L 313 1100 
L 313 1709 
L 2253 4666 
z
" transform="scale(0.015625)"/>
       </defs>
       <use xlink:href="#DejaVuSans-34"/>
       <use xlink:href="#DejaVuSans-30" x="63.623047"/>
      </g>
     </g>
    </g>
    <g id="xtick_4">
     <g id="line2d_4">
      <path d="M 173.265529 234.278906 
L 173.265529 12.518906 
" clip-path="url(#p0ebe503a9d)" style="fill: none; stroke: #cccccc; stroke-linecap: round"/>
     </g>
     <g id="text_4">
      <!-- 60 -->
      <g style="fill: #262626" transform="translate(164.358029 254.416719) scale(0.14 -0.14)">
       <defs>
        <path id="DejaVuSans-36" d="M 2113 2584 
Q 1688 2584 1439 2293 
Q 1191 2003 1191 1497 
Q 1191 994 1439 701 
Q 1688 409 2113 409 
Q 2538 409 2786 701 
Q 3034 994 3034 1497 
Q 3034 2003 2786 2293 
Q 2538 2584 2113 2584 
z
M 3366 4563 
L 3366 3988 
Q 3128 4100 2886 4159 
Q 2644 4219 2406 4219 
Q 1781 4219 1451 3797 
Q 1122 3375 1075 2522 
Q 1259 2794 1537 2939 
Q 1816 3084 2150 3084 
Q 2853 3084 3261 2657 
Q 3669 2231 3669 1497 
Q 3669 778 3244 343 
Q 2819 -91 2113 -91 
Q 1303 -91 875 529 
Q 447 1150 447 2328 
Q 447 3434 972 4092 
Q 1497 4750 2381 4750 
Q 2619 4750 2861 4703 
Q 3103 4656 3366 4563 
z
" transform="scale(0.015625)"/>
       </defs>
       <use xlink:href="#DejaVuSans-36"/>
       <use xlink:href="#DejaVuSans-30" x="63.623047"/>
      </g>
     </g>
    </g>
    <g id="xtick_5">
     <g id="line2d_5">
      <path d="M 210.011941 234.278906 
L 210.011941 12.518906 
" clip-path="url(#p0ebe503a9d)" style="fill: none; stroke: #cccccc; stroke-linecap: round"/>
     </g>
     <g id="text_5">
      <!-- 80 -->
      <g style="fill: #262626" transform="translate(201.104441 254.416719) scale(0.14 -0.14)">
       <defs>
        <path id="DejaVuSans-38" d="M 2034 2216 
Q 1584 2216 1326 1975 
Q 1069 1734 1069 1313 
Q 1069 891 1326 650 
Q 1584 409 2034 409 
Q 2484 409 2743 651 
Q 3003 894 3003 1313 
Q 3003 1734 2745 1975 
Q 2488 2216 2034 2216 
z
M 1403 2484 
Q 997 2584 770 2862 
Q 544 3141 544 3541 
Q 544 4100 942 4425 
Q 1341 4750 2034 4750 
Q 2731 4750 3128 4425 
Q 3525 4100 3525 3541 
Q 3525 3141 3298 2862 
Q 3072 2584 2669 2484 
Q 3125 2378 3379 2068 
Q 3634 1759 3634 1313 
Q 3634 634 3220 271 
Q 2806 -91 2034 -91 
Q 1263 -91 848 271 
Q 434 634 434 1313 
Q 434 1759 690 2068 
Q 947 2378 1403 2484 
z
M 1172 3481 
Q 1172 3119 1398 2916 
Q 1625 2713 2034 2713 
Q 2441 2713 2670 2916 
Q 2900 3119 2900 3481 
Q 2900 3844 2670 4047 
Q 2441 4250 2034 4250 
Q 1625 4250 1398 4047 
Q 1172 3844 1172 3481 
z
" transform="scale(0.015625)"/>
       </defs>
       <use xlink:href="#DejaVuSans-38"/>
       <use xlink:href="#DejaVuSans-30" x="63.623047"/>
      </g>
     </g>
    </g>
    <g id="xtick_6">
     <g id="line2d_6">
      <path d="M 246.758352 234.278906 
L 246.758352 12.518906 
" clip-path="url(#p0ebe503a9d)" style="fill: none; stroke: #cccccc; stroke-linecap: round"/>
     </g>
     <g id="text_6">
      <!-- 100 -->
      <g style="fill: #262626" transform="translate(233.397102 254.416719) scale(0.14 -0.14)">
       <defs>
        <path id="DejaVuSans-31" d="M 794 531 
L 1825 531 
L 1825 4091 
L 703 3866 
L 703 4441 
L 1819 4666 
L 2450 4666 
L 2450 531 
L 3481 531 
L 3481 0 
L 794 0 
L 794 531 
z
" transform="scale(0.015625)"/>
       </defs>
       <use xlink:href="#DejaVuSans-31"/>
       <use xlink:href="#DejaVuSans-30" x="63.623047"/>
       <use xlink:href="#DejaVuSans-30" x="127.246094"/>
      </g>
     </g>
    </g>
    <g id="text_7">
     <!--   -->
     <g style="fill: #262626" transform="translate(157.57875 270.446406) scale(0.12 -0.12)">
      <defs>
       <path id="DejaVuSans-20" transform="scale(0.015625)"/>
      </defs>
      <use xlink:href="#DejaVuSans-20"/>
     </g>
    </g>
   </g>
   <g id="matplotlib.axis_2">
    <g id="ytick_1">
     <g id="line2d_7">
      <path d="M 63.485625 234.278906 
L 255.485625 234.278906 
" clip-path="url(#p0ebe503a9d)" style="fill: none; stroke: #cccccc; stroke-linecap: round"/>
     </g>
     <g id="text_8">
      <!-- 0.70 -->
      <g style="fill: #262626" transform="translate(22.81375 239.597812) scale(0.14 -0.14)">
       <defs>
        <path id="DejaVuSans-2e" d="M 684 794 
L 1344 794 
L 1344 0 
L 684 0 
L 684 794 
z
" transform="scale(0.015625)"/>
        <path id="DejaVuSans-37" d="M 525 4666 
L 3525 4666 
L 3525 4397 
L 1831 0 
L 1172 0 
L 2766 4134 
L 525 4134 
L 525 4666 
z
" transform="scale(0.015625)"/>
       </defs>
       <use xlink:href="#DejaVuSans-30"/>
       <use xlink:href="#DejaVuSans-2e" x="63.623047"/>
       <use xlink:href="#DejaVuSans-37" x="95.410156"/>
       <use xlink:href="#DejaVuSans-30" x="159.033203"/>
      </g>
     </g>
    </g>
    <g id="ytick_2">
     <g id="line2d_8">
      <path d="M 63.485625 197.318906 
L 255.485625 197.318906 
" clip-path="url(#p0ebe503a9d)" style="fill: none; stroke: #cccccc; stroke-linecap: round"/>
     </g>
     <g id="text_9">
      <!-- 0.75 -->
      <g style="fill: #262626" transform="translate(22.81375 202.637812) scale(0.14 -0.14)">
       <use xlink:href="#DejaVuSans-30"/>
       <use xlink:href="#DejaVuSans-2e" x="63.623047"/>
       <use xlink:href="#DejaVuSans-37" x="95.410156"/>
       <use xlink:href="#DejaVuSans-35" x="159.033203"/>
      </g>
     </g>
    </g>
    <g id="ytick_3">
     <g id="line2d_9">
      <path d="M 63.485625 160.358906 
L 255.485625 160.358906 
" clip-path="url(#p0ebe503a9d)" style="fill: none; stroke: #cccccc; stroke-linecap: round"/>
     </g>
     <g id="text_10">
      <!-- 0.80 -->
      <g style="fill: #262626" transform="translate(22.81375 165.677812) scale(0.14 -0.14)">
       <use xlink:href="#DejaVuSans-30"/>
       <use xlink:href="#DejaVuSans-2e" x="63.623047"/>
       <use xlink:href="#DejaVuSans-38" x="95.410156"/>
       <use xlink:href="#DejaVuSans-30" x="159.033203"/>
      </g>
     </g>
    </g>
    <g id="ytick_4">
     <g id="line2d_10">
      <path d="M 63.485625 123.398906 
L 255.485625 123.398906 
" clip-path="url(#p0ebe503a9d)" style="fill: none; stroke: #cccccc; stroke-linecap: round"/>
     </g>
     <g id="text_11">
      <!-- 0.85 -->
      <g style="fill: #262626" transform="translate(22.81375 128.717812) scale(0.14 -0.14)">
       <use xlink:href="#DejaVuSans-30"/>
       <use xlink:href="#DejaVuSans-2e" x="63.623047"/>
       <use xlink:href="#DejaVuSans-38" x="95.410156"/>
       <use xlink:href="#DejaVuSans-35" x="159.033203"/>
      </g>
     </g>
    </g>
    <g id="ytick_5">
     <g id="line2d_11">
      <path d="M 63.485625 86.438906 
L 255.485625 86.438906 
" clip-path="url(#p0ebe503a9d)" style="fill: none; stroke: #cccccc; stroke-linecap: round"/>
     </g>
     <g id="text_12">
      <!-- 0.90 -->
      <g style="fill: #262626" transform="translate(22.81375 91.757812) scale(0.14 -0.14)">
       <defs>
        <path id="DejaVuSans-39" d="M 703 97 
L 703 672 
Q 941 559 1184 500 
Q 1428 441 1663 441 
Q 2288 441 2617 861 
Q 2947 1281 2994 2138 
Q 2813 1869 2534 1725 
Q 2256 1581 1919 1581 
Q 1219 1581 811 2004 
Q 403 2428 403 3163 
Q 403 3881 828 4315 
Q 1253 4750 1959 4750 
Q 2769 4750 3195 4129 
Q 3622 3509 3622 2328 
Q 3622 1225 3098 567 
Q 2575 -91 1691 -91 
Q 1453 -91 1209 -44 
Q 966 3 703 97 
z
M 1959 2075 
Q 2384 2075 2632 2365 
Q 2881 2656 2881 3163 
Q 2881 3666 2632 3958 
Q 2384 4250 1959 4250 
Q 1534 4250 1286 3958 
Q 1038 3666 1038 3163 
Q 1038 2656 1286 2365 
Q 1534 2075 1959 2075 
z
" transform="scale(0.015625)"/>
       </defs>
       <use xlink:href="#DejaVuSans-30"/>
       <use xlink:href="#DejaVuSans-2e" x="63.623047"/>
       <use xlink:href="#DejaVuSans-39" x="95.410156"/>
       <use xlink:href="#DejaVuSans-30" x="159.033203"/>
      </g>
     </g>
    </g>
    <g id="ytick_6">
     <g id="line2d_12">
      <path d="M 63.485625 49.478906 
L 255.485625 49.478906 
" clip-path="url(#p0ebe503a9d)" style="fill: none; stroke: #cccccc; stroke-linecap: round"/>
     </g>
     <g id="text_13">
      <!-- 0.95 -->
      <g style="fill: #262626" transform="translate(22.81375 54.797812) scale(0.14 -0.14)">
       <use xlink:href="#DejaVuSans-30"/>
       <use xlink:href="#DejaVuSans-2e" x="63.623047"/>
       <use xlink:href="#DejaVuSans-39" x="95.410156"/>
       <use xlink:href="#DejaVuSans-35" x="159.033203"/>
      </g>
     </g>
    </g>
    <g id="ytick_7">
     <g id="line2d_13">
      <path d="M 63.485625 12.518906 
L 255.485625 12.518906 
" clip-path="url(#p0ebe503a9d)" style="fill: none; stroke: #cccccc; stroke-linecap: round"/>
     </g>
     <g id="text_14">
      <!-- 1.00 -->
      <g style="fill: #262626" transform="translate(22.81375 17.837812) scale(0.14 -0.14)">
       <use xlink:href="#DejaVuSans-31"/>
       <use xlink:href="#DejaVuSans-2e" x="63.623047"/>
       <use xlink:href="#DejaVuSans-30" x="95.410156"/>
       <use xlink:href="#DejaVuSans-30" x="159.033203"/>
      </g>
     </g>
    </g>
    <g id="text_15">
     <!-- R2 Score -->
     <g style="fill: #262626" transform="translate(16.318125 150.095156) rotate(-90) scale(0.12 -0.12)">
      <defs>
       <path id="DejaVuSans-52" d="M 2841 2188 
Q 3044 2119 3236 1894 
Q 3428 1669 3622 1275 
L 4263 0 
L 3584 0 
L 2988 1197 
Q 2756 1666 2539 1819 
Q 2322 1972 1947 1972 
L 1259 1972 
L 1259 0 
L 628 0 
L 628 4666 
L 2053 4666 
Q 2853 4666 3247 4331 
Q 3641 3997 3641 3322 
Q 3641 2881 3436 2590 
Q 3231 2300 2841 2188 
z
M 1259 4147 
L 1259 2491 
L 2053 2491 
Q 2509 2491 2742 2702 
Q 2975 2913 2975 3322 
Q 2975 3731 2742 3939 
Q 2509 4147 2053 4147 
L 1259 4147 
z
" transform="scale(0.015625)"/>
       <path id="DejaVuSans-53" d="M 3425 4513 
L 3425 3897 
Q 3066 4069 2747 4153 
Q 2428 4238 2131 4238 
Q 1616 4238 1336 4038 
Q 1056 3838 1056 3469 
Q 1056 3159 1242 3001 
Q 1428 2844 1947 2747 
L 2328 2669 
Q 3034 2534 3370 2195 
Q 3706 1856 3706 1288 
Q 3706 609 3251 259 
Q 2797 -91 1919 -91 
Q 1588 -91 1214 -16 
Q 841 59 441 206 
L 441 856 
Q 825 641 1194 531 
Q 1563 422 1919 422 
Q 2459 422 2753 634 
Q 3047 847 3047 1241 
Q 3047 1584 2836 1778 
Q 2625 1972 2144 2069 
L 1759 2144 
Q 1053 2284 737 2584 
Q 422 2884 422 3419 
Q 422 4038 858 4394 
Q 1294 4750 2059 4750 
Q 2388 4750 2728 4690 
Q 3069 4631 3425 4513 
z
" transform="scale(0.015625)"/>
       <path id="DejaVuSans-63" d="M 3122 3366 
L 3122 2828 
Q 2878 2963 2633 3030 
Q 2388 3097 2138 3097 
Q 1578 3097 1268 2742 
Q 959 2388 959 1747 
Q 959 1106 1268 751 
Q 1578 397 2138 397 
Q 2388 397 2633 464 
Q 2878 531 3122 666 
L 3122 134 
Q 2881 22 2623 -34 
Q 2366 -91 2075 -91 
Q 1284 -91 818 406 
Q 353 903 353 1747 
Q 353 2603 823 3093 
Q 1294 3584 2113 3584 
Q 2378 3584 2631 3529 
Q 2884 3475 3122 3366 
z
" transform="scale(0.015625)"/>
       <path id="DejaVuSans-6f" d="M 1959 3097 
Q 1497 3097 1228 2736 
Q 959 2375 959 1747 
Q 959 1119 1226 758 
Q 1494 397 1959 397 
Q 2419 397 2687 759 
Q 2956 1122 2956 1747 
Q 2956 2369 2687 2733 
Q 2419 3097 1959 3097 
z
M 1959 3584 
Q 2709 3584 3137 3096 
Q 3566 2609 3566 1747 
Q 3566 888 3137 398 
Q 2709 -91 1959 -91 
Q 1206 -91 779 398 
Q 353 888 353 1747 
Q 353 2609 779 3096 
Q 1206 3584 1959 3584 
z
" transform="scale(0.015625)"/>
       <path id="DejaVuSans-72" d="M 2631 2963 
Q 2534 3019 2420 3045 
Q 2306 3072 2169 3072 
Q 1681 3072 1420 2755 
Q 1159 2438 1159 1844 
L 1159 0 
L 581 0 
L 581 3500 
L 1159 3500 
L 1159 2956 
Q 1341 3275 1631 3429 
Q 1922 3584 2338 3584 
Q 2397 3584 2469 3576 
Q 2541 3569 2628 3553 
L 2631 2963 
z
" transform="scale(0.015625)"/>
       <path id="DejaVuSans-65" d="M 3597 1894 
L 3597 1613 
L 953 1613 
Q 991 1019 1311 708 
Q 1631 397 2203 397 
Q 2534 397 2845 478 
Q 3156 559 3463 722 
L 3463 178 
Q 3153 47 2828 -22 
Q 2503 -91 2169 -91 
Q 1331 -91 842 396 
Q 353 884 353 1716 
Q 353 2575 817 3079 
Q 1281 3584 2069 3584 
Q 2775 3584 3186 3129 
Q 3597 2675 3597 1894 
z
M 3022 2063 
Q 3016 2534 2758 2815 
Q 2500 3097 2075 3097 
Q 1594 3097 1305 2825 
Q 1016 2553 972 2059 
L 3022 2063 
z
" transform="scale(0.015625)"/>
      </defs>
      <use xlink:href="#DejaVuSans-52"/>
      <use xlink:href="#DejaVuSans-32" x="69.482422"/>
      <use xlink:href="#DejaVuSans-20" x="133.105469"/>
      <use xlink:href="#DejaVuSans-53" x="164.892578"/>
      <use xlink:href="#DejaVuSans-63" x="228.369141"/>
      <use xlink:href="#DejaVuSans-6f" x="283.349609"/>
      <use xlink:href="#DejaVuSans-72" x="344.53125"/>
      <use xlink:href="#DejaVuSans-65" x="383.394531"/>
     </g>
    </g>
   </g>
   <g id="PolyCollection_1">
    <defs>
     <path id="m4229a91b68" d="M 72.212898 -143.78478 
L 72.212898 -56.836836 
L 81.399501 -182.471914 
L 90.586103 -227.179546 
L 99.772706 -242.001318 
L 108.959309 -248.528592 
L 118.145912 -253.837202 
L 127.332515 -254.498488 
L 136.519118 -256.648039 
L 145.705721 -258.480825 
L 154.892324 -258.826842 
L 164.078926 -260.020894 
L 173.265529 -260.806528 
L 182.452132 -261.517203 
L 191.638735 -262.3049 
L 200.825338 -262.680872 
L 210.011941 -263.10791 
L 219.198544 -262.772069 
L 228.385147 -263.391584 
L 237.571749 -263.706544 
L 246.758352 -263.906013 
L 246.758352 -266.630503 
L 246.758352 -266.630503 
L 237.571749 -266.557729 
L 228.385147 -266.4765 
L 219.198544 -266.249181 
L 210.011941 -266.282908 
L 200.825338 -266.142535 
L 191.638735 -266.029735 
L 182.452132 -265.881468 
L 173.265529 -265.799694 
L 164.078926 -265.246172 
L 154.892324 -265.101743 
L 145.705721 -264.889927 
L 136.519118 -264.36557 
L 127.332515 -263.149641 
L 118.145912 -262.465593 
L 108.959309 -260.97217 
L 99.772706 -258.578866 
L 90.586103 -250.303988 
L 81.399501 -229.599125 
L 72.212898 -143.78478 
z
" style="stroke: #1f77b4; stroke-opacity: 0.2"/>
    </defs>
    <g clip-path="url(#p0ebe503a9d)">
     <use xlink:href="#m4229a91b68" x="0" y="280.142031" style="fill: #1f77b4; fill-opacity: 0.2; stroke: #1f77b4; stroke-opacity: 0.2"/>
    </g>
   </g>
   <g id="PolyCollection_2">
    <defs>
     <path id="m1543c5dfc6" d="M 72.212898 -130.626255 
L 72.212898 -44.104757 
L 81.399501 -165.69927 
L 90.586103 -212.561461 
L 99.772706 -231.949973 
L 108.959309 -238.427633 
L 118.145912 -245.100332 
L 127.332515 -246.019682 
L 136.519118 -248.851956 
L 145.705721 -251.676731 
L 154.892324 -253.734027 
L 164.078926 -253.908338 
L 173.265529 -255.676915 
L 182.452132 -255.436336 
L 191.638735 -257.179129 
L 200.825338 -257.661554 
L 210.011941 -258.183652 
L 219.198544 -258.75794 
L 228.385147 -258.73882 
L 237.571749 -259.321011 
L 246.758352 -259.930562 
L 246.758352 -264.640512 
L 246.758352 -264.640512 
L 237.571749 -264.419807 
L 228.385147 -264.084989 
L 219.198544 -263.889046 
L 210.011941 -263.926341 
L 200.825338 -263.62561 
L 191.638735 -263.133833 
L 182.452132 -262.660057 
L 173.265529 -262.811738 
L 164.078926 -261.985344 
L 154.892324 -262.182034 
L 145.705721 -261.317575 
L 136.519118 -260.004141 
L 127.332515 -258.397659 
L 118.145912 -258.228168 
L 108.959309 -254.755611 
L 99.772706 -252.152608 
L 90.586103 -240.985027 
L 81.399501 -214.573151 
L 72.212898 -130.626255 
z
" style="stroke: #ff7f0e; stroke-opacity: 0.2"/>
    </defs>
    <g clip-path="url(#p0ebe503a9d)">
     <use xlink:href="#m1543c5dfc6" x="0" y="280.142031" style="fill: #ff7f0e; fill-opacity: 0.2; stroke: #ff7f0e; stroke-opacity: 0.2"/>
    </g>
   </g>
   <g id="PolyCollection_3">
    <path d="M 72.212898 184.79257 
L 72.212898 321.825412 
L 81.399501 167.196779 
L 90.586103 84.440885 
L 99.772706 67.302621 
L 108.959309 54.652948 
L 118.145912 47.501008 
L 127.332515 44.46298 
L 136.519118 40.158241 
L 145.705721 38.137315 
L 154.892324 37.282802 
L 164.078926 36.151718 
L 173.265529 31.716056 
L 182.452132 30.771517 
L 191.638735 29.308292 
L 200.825338 28.618418 
L 210.011941 27.487113 
L 219.198544 29.099332 
L 228.385147 26.388624 
L 237.571749 26.590242 
L 246.758352 26.182422 
L 246.758352 18.236337 
L 246.758352 18.236337 
L 237.571749 18.663168 
L 228.385147 18.439443 
L 219.198544 19.273663 
L 210.011941 18.857963 
L 200.825338 19.621926 
L 191.638735 19.78964 
L 182.452132 20.501778 
L 173.265529 21.130227 
L 164.078926 22.427521 
L 154.892324 23.022397 
L 145.705721 23.941717 
L 136.519118 24.579942 
L 127.332515 27.038477 
L 118.145912 27.512598 
L 108.959309 32.785164 
L 99.772706 36.989577 
L 90.586103 47.236372 
L 81.399501 81.376781 
L 72.212898 184.79257 
z
" clip-path="url(#p0ebe503a9d)" style="fill: #2ca02c; fill-opacity: 0.2; stroke: #2ca02c; stroke-opacity: 0.2"/>
   </g>
   <g id="PolyCollection_4">
    <defs>
     <path id="m5f1a42fe14" d="M 72.212898 -186.224168 
L 72.212898 -160.569162 
L 81.399501 -232.440911 
L 90.586103 -248.789276 
L 99.772706 -255.921649 
L 108.959309 -258.542414 
L 118.145912 -260.926261 
L 127.332515 -261.427622 
L 136.519118 -262.469801 
L 145.705721 -263.113453 
L 154.892324 -263.744756 
L 164.078926 -263.946849 
L 173.265529 -264.129565 
L 182.452132 -264.32664 
L 191.638735 -264.569629 
L 200.825338 -264.750179 
L 210.011941 -264.917601 
L 219.198544 -265.086646 
L 228.385147 -265.142628 
L 237.571749 -265.259412 
L 246.758352 -265.343563 
L 246.758352 -266.066767 
L 246.758352 -266.066767 
L 237.571749 -266.018341 
L 228.385147 -265.894493 
L 219.198544 -265.866068 
L 210.011941 -265.759965 
L 200.825338 -265.680708 
L 191.638735 -265.577793 
L 182.452132 -265.342607 
L 173.265529 -265.271009 
L 164.078926 -265.094185 
L 154.892324 -264.903079 
L 145.705721 -264.528546 
L 136.519118 -264.065052 
L 127.332515 -263.252497 
L 118.145912 -262.921698 
L 108.959309 -260.933231 
L 99.772706 -258.985959 
L 90.586103 -253.512585 
L 81.399501 -240.792101 
L 72.212898 -186.224168 
z
" style="stroke: #1f77b4; stroke-opacity: 0.2"/>
    </defs>
    <g clip-path="url(#p0ebe503a9d)">
     <use xlink:href="#m5f1a42fe14" x="0" y="280.142031" style="fill: #1f77b4; fill-opacity: 0.2; stroke: #1f77b4; stroke-opacity: 0.2"/>
    </g>
   </g>
   <g id="PolyCollection_5">
    <defs>
     <path id="mb633877ab1" d="M 72.212898 -164.291733 
L 72.212898 -132.821334 
L 81.399501 -214.410031 
L 90.586103 -236.506936 
L 99.772706 -245.271562 
L 108.959309 -250.940477 
L 118.145912 -254.176588 
L 127.332515 -255.059923 
L 136.519118 -256.877016 
L 145.705721 -258.02989 
L 154.892324 -258.951538 
L 164.078926 -259.600196 
L 173.265529 -259.88847 
L 182.452132 -260.319525 
L 191.638735 -260.839225 
L 200.825338 -261.030059 
L 210.011941 -261.385376 
L 219.198544 -261.595714 
L 228.385147 -261.97347 
L 237.571749 -262.135701 
L 246.758352 -262.404384 
L 246.758352 -263.703547 
L 246.758352 -263.703547 
L 237.571749 -263.482815 
L 228.385147 -263.335321 
L 219.198544 -263.086368 
L 210.011941 -262.925464 
L 200.825338 -262.645167 
L 191.638735 -262.511599 
L 182.452132 -262.139534 
L 173.265529 -261.876315 
L 164.078926 -261.586759 
L 154.892324 -261.109572 
L 145.705721 -260.550823 
L 136.519118 -259.530672 
L 127.332515 -258.182636 
L 118.145912 -257.515147 
L 108.959309 -254.927339 
L 99.772706 -250.971289 
L 90.586103 -243.787807 
L 81.399501 -228.180569 
L 72.212898 -164.291733 
z
" style="stroke: #ff7f0e; stroke-opacity: 0.2"/>
    </defs>
    <g clip-path="url(#p0ebe503a9d)">
     <use xlink:href="#mb633877ab1" x="0" y="280.142031" style="fill: #ff7f0e; fill-opacity: 0.2; stroke: #ff7f0e; stroke-opacity: 0.2"/>
    </g>
   </g>
   <g id="PolyCollection_6">
    <path d="M 72.212898 164.394082 
L 72.212898 623.155722 
L 81.399501 96.960155 
L 90.586103 61.102213 
L 99.772706 47.994837 
L 108.959309 40.378655 
L 118.145912 35.369207 
L 127.332515 34.231852 
L 136.519118 32.013104 
L 145.705721 28.632532 
L 154.892324 27.682068 
L 164.078926 26.782814 
L 173.265529 26.223012 
L 182.452132 25.08856 
L 191.638735 24.412567 
L 200.825338 24.049225 
L 210.011941 23.6161 
L 219.198544 23.01391 
L 228.385147 22.86589 
L 237.571749 21.973887 
L 246.758352 21.874854 
L 246.758352 19.742184 
L 246.758352 19.742184 
L 237.571749 19.810933 
L 228.385147 20.389618 
L 219.198544 20.434505 
L 210.011941 21.046133 
L 200.825338 21.345107 
L 191.638735 21.681353 
L 182.452132 22.116878 
L 173.265529 22.967134 
L 164.078926 23.273493 
L 154.892324 23.95032 
L 145.705721 24.618633 
L 136.519118 27.023847 
L 127.332515 29.107707 
L 118.145912 29.725755 
L 108.959309 33.44531 
L 99.772706 39.274996 
L 90.586103 48.716668 
L 81.399501 76.470878 
L 72.212898 164.394082 
z
" clip-path="url(#p0ebe503a9d)" style="fill: #2ca02c; fill-opacity: 0.2; stroke: #2ca02c; stroke-opacity: 0.2"/>
   </g>
   <g id="line2d_14">
    <path d="M 72.212898 176.756866 
L 81.399501 72.758722 
L 90.586103 40.681404 
L 99.772706 28.827188 
L 108.959309 24.905338 
L 118.145912 21.679922 
L 127.332515 20.830724 
L 136.519118 19.371977 
L 145.705721 18.274502 
L 154.892324 17.681074 
L 164.078926 17.199267 
L 173.265529 16.580829 
L 182.452132 16.176811 
L 191.638735 15.851154 
L 200.825338 15.482833 
L 210.011941 15.339036 
L 219.198544 15.444571 
L 228.385147 15.094746 
L 237.571749 14.898829 
L 246.758352 14.758846 
" clip-path="url(#p0ebe503a9d)" style="fill: none; stroke-dasharray: 7.4,3.2; stroke-dashoffset: 0; stroke: #1f77b4; stroke-width: 2"/>
   </g>
   <g id="line2d_15">
    <path d="M 72.212898 192.025419 
L 81.399501 88.57759 
L 90.586103 53.099299 
L 99.772706 37.052664 
L 108.959309 32.483585 
L 118.145912 28.271113 
L 127.332515 27.491468 
L 136.519118 25.36567 
L 145.705721 23.572035 
L 154.892324 21.795103 
L 164.078926 22.040385 
L 173.265529 20.640161 
L 182.452132 20.930087 
L 191.638735 19.87729 
L 200.825338 19.400477 
L 210.011941 19.078051 
L 219.198544 18.673118 
L 228.385147 18.650099 
L 237.571749 18.174694 
L 246.758352 17.659785 
" clip-path="url(#p0ebe503a9d)" style="fill: none; stroke-dasharray: 7.4,3.2; stroke-dashoffset: 0; stroke: #ff7f0e; stroke-width: 2"/>
   </g>
   <g id="line2d_16">
    <path d="M 72.212898 251.599423 
L 81.399501 121.01693 
L 90.586103 64.955162 
L 99.772706 51.421292 
L 108.959309 43.526102 
L 118.145912 36.990467 
L 127.332515 35.042255 
L 136.519118 32.186757 
L 145.705721 30.394792 
L 154.892324 29.921527 
L 164.078926 29.271059 
L 173.265529 26.38764 
L 182.452132 25.29554 
L 191.638735 24.332845 
L 200.825338 24.015997 
L 210.011941 23.005092 
L 219.198544 24.349991 
L 228.385147 22.387445 
L 237.571749 22.398023 
L 246.758352 21.980934 
" clip-path="url(#p0ebe503a9d)" style="fill: none; stroke-dasharray: 7.4,3.2; stroke-dashoffset: 0; stroke: #2ca02c; stroke-width: 2"/>
   </g>
   <g id="line2d_17"/>
   <g id="line2d_18"/>
   <g id="line2d_19"/>
   <g id="line2d_20">
    <path d="M 72.212898 106.610733 
L 81.399501 43.378643 
L 90.586103 29.001606 
L 99.772706 22.660433 
L 108.959309 20.338661 
L 118.145912 18.184038 
L 127.332515 17.784599 
L 136.519118 16.816382 
L 145.705721 16.282402 
L 154.892324 15.810425 
L 164.078926 15.585099 
L 173.265529 15.433905 
L 182.452132 15.264398 
L 191.638735 15.05313 
L 200.825338 14.917034 
L 210.011941 14.794393 
L 219.198544 14.667178 
L 228.385147 14.608834 
L 237.571749 14.463298 
L 246.758352 14.425577 
" clip-path="url(#p0ebe503a9d)" style="fill: none; stroke: #1f77b4; stroke-width: 2; stroke-linecap: round"/>
   </g>
   <g id="line2d_21">
    <path d="M 72.212898 130.895881 
L 81.399501 58.786227 
L 90.586103 40.024967 
L 99.772706 31.863489 
L 108.959309 27.220522 
L 118.145912 24.30522 
L 127.332515 23.476557 
L 136.519118 21.91669 
L 145.705721 20.904731 
L 154.892324 20.116671 
L 164.078926 19.498939 
L 173.265529 19.256232 
L 182.452132 18.954397 
L 191.638735 18.468481 
L 200.825338 18.288033 
L 210.011941 17.926873 
L 219.198544 17.740736 
L 228.385147 17.438994 
L 237.571749 17.303541 
L 246.758352 17.090909 
" clip-path="url(#p0ebe503a9d)" style="fill: none; stroke: #ff7f0e; stroke-width: 2; stroke-linecap: round"/>
   </g>
   <g id="line2d_22">
    <path d="M 73.895285 281.142031 
L 81.399501 86.613512 
L 90.586103 54.668169 
L 99.772706 43.4453 
L 108.959309 36.808634 
L 118.145912 32.580421 
L 127.332515 31.562728 
L 136.519118 29.424274 
L 145.705721 26.546882 
L 154.892324 25.835136 
L 164.078926 24.921702 
L 173.265529 24.542359 
L 182.452132 23.617928 
L 191.638735 23.05158 
L 200.825338 22.664765 
L 210.011941 22.269908 
L 219.198544 21.735265 
L 228.385147 21.702724 
L 237.571749 20.888468 
L 246.758352 20.798024 
" clip-path="url(#p0ebe503a9d)" style="fill: none; stroke: #2ca02c; stroke-width: 2; stroke-linecap: round"/>
   </g>
   <g id="line2d_23"/>
   <g id="line2d_24"/>
   <g id="line2d_25"/>
   <g id="patch_3">
    <path d="M 63.485625 234.278906 
L 63.485625 12.518906 
" style="fill: none; stroke: #cccccc; stroke-width: 1.25; stroke-linejoin: miter; stroke-linecap: square"/>
   </g>
   <g id="patch_4">
    <path d="M 255.485625 234.278906 
L 255.485625 12.518906 
" style="fill: none; stroke: #cccccc; stroke-width: 1.25; stroke-linejoin: miter; stroke-linecap: square"/>
   </g>
   <g id="patch_5">
    <path d="M 63.485625 234.278906 
L 255.485625 234.278906 
" style="fill: none; stroke: #cccccc; stroke-width: 1.25; stroke-linejoin: miter; stroke-linecap: square"/>
   </g>
   <g id="patch_6">
    <path d="M 63.485625 12.518906 
L 255.485625 12.518906 
" style="fill: none; stroke: #cccccc; stroke-width: 1.25; stroke-linejoin: miter; stroke-linecap: square"/>
   </g>
   <g id="text_16">
    <!-- number of HF samples (d) -->
    <g style="fill: #262626" transform="translate(317.826406 267.542906) scale(0.14 -0.14)">
     <defs>
      <path id="DejaVuSans-6e" d="M 3513 2113 
L 3513 0 
L 2938 0 
L 2938 2094 
Q 2938 2591 2744 2837 
Q 2550 3084 2163 3084 
Q 1697 3084 1428 2787 
Q 1159 2491 1159 1978 
L 1159 0 
L 581 0 
L 581 3500 
L 1159 3500 
L 1159 2956 
Q 1366 3272 1645 3428 
Q 1925 3584 2291 3584 
Q 2894 3584 3203 3211 
Q 3513 2838 3513 2113 
z
" transform="scale(0.015625)"/>
      <path id="DejaVuSans-75" d="M 544 1381 
L 544 3500 
L 1119 3500 
L 1119 1403 
Q 1119 906 1312 657 
Q 1506 409 1894 409 
Q 2359 409 2629 706 
Q 2900 1003 2900 1516 
L 2900 3500 
L 3475 3500 
L 3475 0 
L 2900 0 
L 2900 538 
Q 2691 219 2414 64 
Q 2138 -91 1772 -91 
Q 1169 -91 856 284 
Q 544 659 544 1381 
z
M 1991 3584 
L 1991 3584 
z
" transform="scale(0.015625)"/>
      <path id="DejaVuSans-6d" d="M 3328 2828 
Q 3544 3216 3844 3400 
Q 4144 3584 4550 3584 
Q 5097 3584 5394 3201 
Q 5691 2819 5691 2113 
L 5691 0 
L 5113 0 
L 5113 2094 
Q 5113 2597 4934 2840 
Q 4756 3084 4391 3084 
Q 3944 3084 3684 2787 
Q 3425 2491 3425 1978 
L 3425 0 
L 2847 0 
L 2847 2094 
Q 2847 2600 2669 2842 
Q 2491 3084 2119 3084 
Q 1678 3084 1418 2786 
Q 1159 2488 1159 1978 
L 1159 0 
L 581 0 
L 581 3500 
L 1159 3500 
L 1159 2956 
Q 1356 3278 1631 3431 
Q 1906 3584 2284 3584 
Q 2666 3584 2933 3390 
Q 3200 3197 3328 2828 
z
" transform="scale(0.015625)"/>
      <path id="DejaVuSans-62" d="M 3116 1747 
Q 3116 2381 2855 2742 
Q 2594 3103 2138 3103 
Q 1681 3103 1420 2742 
Q 1159 2381 1159 1747 
Q 1159 1113 1420 752 
Q 1681 391 2138 391 
Q 2594 391 2855 752 
Q 3116 1113 3116 1747 
z
M 1159 2969 
Q 1341 3281 1617 3432 
Q 1894 3584 2278 3584 
Q 2916 3584 3314 3078 
Q 3713 2572 3713 1747 
Q 3713 922 3314 415 
Q 2916 -91 2278 -91 
Q 1894 -91 1617 61 
Q 1341 213 1159 525 
L 1159 0 
L 581 0 
L 581 4863 
L 1159 4863 
L 1159 2969 
z
" transform="scale(0.015625)"/>
      <path id="DejaVuSans-66" d="M 2375 4863 
L 2375 4384 
L 1825 4384 
Q 1516 4384 1395 4259 
Q 1275 4134 1275 3809 
L 1275 3500 
L 2222 3500 
L 2222 3053 
L 1275 3053 
L 1275 0 
L 697 0 
L 697 3053 
L 147 3053 
L 147 3500 
L 697 3500 
L 697 3744 
Q 697 4328 969 4595 
Q 1241 4863 1831 4863 
L 2375 4863 
z
" transform="scale(0.015625)"/>
      <path id="DejaVuSans-48" d="M 628 4666 
L 1259 4666 
L 1259 2753 
L 3553 2753 
L 3553 4666 
L 4184 4666 
L 4184 0 
L 3553 0 
L 3553 2222 
L 1259 2222 
L 1259 0 
L 628 0 
L 628 4666 
z
" transform="scale(0.015625)"/>
      <path id="DejaVuSans-46" d="M 628 4666 
L 3309 4666 
L 3309 4134 
L 1259 4134 
L 1259 2759 
L 3109 2759 
L 3109 2228 
L 1259 2228 
L 1259 0 
L 628 0 
L 628 4666 
z
" transform="scale(0.015625)"/>
      <path id="DejaVuSans-73" d="M 2834 3397 
L 2834 2853 
Q 2591 2978 2328 3040 
Q 2066 3103 1784 3103 
Q 1356 3103 1142 2972 
Q 928 2841 928 2578 
Q 928 2378 1081 2264 
Q 1234 2150 1697 2047 
L 1894 2003 
Q 2506 1872 2764 1633 
Q 3022 1394 3022 966 
Q 3022 478 2636 193 
Q 2250 -91 1575 -91 
Q 1294 -91 989 -36 
Q 684 19 347 128 
L 347 722 
Q 666 556 975 473 
Q 1284 391 1588 391 
Q 1994 391 2212 530 
Q 2431 669 2431 922 
Q 2431 1156 2273 1281 
Q 2116 1406 1581 1522 
L 1381 1569 
Q 847 1681 609 1914 
Q 372 2147 372 2553 
Q 372 3047 722 3315 
Q 1072 3584 1716 3584 
Q 2034 3584 2315 3537 
Q 2597 3491 2834 3397 
z
" transform="scale(0.015625)"/>
      <path id="DejaVuSans-61" d="M 2194 1759 
Q 1497 1759 1228 1600 
Q 959 1441 959 1056 
Q 959 750 1161 570 
Q 1363 391 1709 391 
Q 2188 391 2477 730 
Q 2766 1069 2766 1631 
L 2766 1759 
L 2194 1759 
z
M 3341 1997 
L 3341 0 
L 2766 0 
L 2766 531 
Q 2569 213 2275 61 
Q 1981 -91 1556 -91 
Q 1019 -91 701 211 
Q 384 513 384 1019 
Q 384 1609 779 1909 
Q 1175 2209 1959 2209 
L 2766 2209 
L 2766 2266 
Q 2766 2663 2505 2880 
Q 2244 3097 1772 3097 
Q 1472 3097 1187 3025 
Q 903 2953 641 2809 
L 641 3341 
Q 956 3463 1253 3523 
Q 1550 3584 1831 3584 
Q 2591 3584 2966 3190 
Q 3341 2797 3341 1997 
z
" transform="scale(0.015625)"/>
      <path id="DejaVuSans-70" d="M 1159 525 
L 1159 -1331 
L 581 -1331 
L 581 3500 
L 1159 3500 
L 1159 2969 
Q 1341 3281 1617 3432 
Q 1894 3584 2278 3584 
Q 2916 3584 3314 3078 
Q 3713 2572 3713 1747 
Q 3713 922 3314 415 
Q 2916 -91 2278 -91 
Q 1894 -91 1617 61 
Q 1341 213 1159 525 
z
M 3116 1747 
Q 3116 2381 2855 2742 
Q 2594 3103 2138 3103 
Q 1681 3103 1420 2742 
Q 1159 2381 1159 1747 
Q 1159 1113 1420 752 
Q 1681 391 2138 391 
Q 2594 391 2855 752 
Q 3116 1113 3116 1747 
z
" transform="scale(0.015625)"/>
      <path id="DejaVuSans-6c" d="M 603 4863 
L 1178 4863 
L 1178 0 
L 603 0 
L 603 4863 
z
" transform="scale(0.015625)"/>
      <path id="DejaVuSans-28" d="M 1984 4856 
Q 1566 4138 1362 3434 
Q 1159 2731 1159 2009 
Q 1159 1288 1364 580 
Q 1569 -128 1984 -844 
L 1484 -844 
Q 1016 -109 783 600 
Q 550 1309 550 2009 
Q 550 2706 781 3412 
Q 1013 4119 1484 4856 
L 1984 4856 
z
" transform="scale(0.015625)"/>
      <path id="DejaVuSans-64" d="M 2906 2969 
L 2906 4863 
L 3481 4863 
L 3481 0 
L 2906 0 
L 2906 525 
Q 2725 213 2448 61 
Q 2172 -91 1784 -91 
Q 1150 -91 751 415 
Q 353 922 353 1747 
Q 353 2572 751 3078 
Q 1150 3584 1784 3584 
Q 2172 3584 2448 3432 
Q 2725 3281 2906 2969 
z
M 947 1747 
Q 947 1113 1208 752 
Q 1469 391 1925 391 
Q 2381 391 2643 752 
Q 2906 1113 2906 1747 
Q 2906 2381 2643 2742 
Q 2381 3103 1925 3103 
Q 1469 3103 1208 2742 
Q 947 2381 947 1747 
z
" transform="scale(0.015625)"/>
      <path id="DejaVuSans-29" d="M 513 4856 
L 1013 4856 
Q 1481 4119 1714 3412 
Q 1947 2706 1947 2009 
Q 1947 1309 1714 600 
Q 1481 -109 1013 -844 
L 513 -844 
Q 928 -128 1133 580 
Q 1338 1288 1338 2009 
Q 1338 2731 1133 3434 
Q 928 4138 513 4856 
z
" transform="scale(0.015625)"/>
     </defs>
     <use xlink:href="#DejaVuSans-6e"/>
     <use xlink:href="#DejaVuSans-75" x="63.378906"/>
     <use xlink:href="#DejaVuSans-6d" x="126.757812"/>
     <use xlink:href="#DejaVuSans-62" x="224.169922"/>
     <use xlink:href="#DejaVuSans-65" x="287.646484"/>
     <use xlink:href="#DejaVuSans-72" x="349.169922"/>
     <use xlink:href="#DejaVuSans-20" x="390.283203"/>
     <use xlink:href="#DejaVuSans-6f" x="422.070312"/>
     <use xlink:href="#DejaVuSans-66" x="483.251953"/>
     <use xlink:href="#DejaVuSans-20" x="518.457031"/>
     <use xlink:href="#DejaVuSans-48" x="550.244141"/>
     <use xlink:href="#DejaVuSans-46" x="625.439453"/>
     <use xlink:href="#DejaVuSans-20" x="682.958984"/>
     <use xlink:href="#DejaVuSans-73" x="714.746094"/>
     <use xlink:href="#DejaVuSans-61" x="766.845703"/>
     <use xlink:href="#DejaVuSans-6d" x="828.125"/>
     <use xlink:href="#DejaVuSans-70" x="925.537109"/>
     <use xlink:href="#DejaVuSans-6c" x="989.013672"/>
     <use xlink:href="#DejaVuSans-65" x="1016.796875"/>
     <use xlink:href="#DejaVuSans-73" x="1078.320312"/>
     <use xlink:href="#DejaVuSans-20" x="1130.419922"/>
     <use xlink:href="#DejaVuSans-28" x="1162.207031"/>
     <use xlink:href="#DejaVuSans-64" x="1201.220703"/>
     <use xlink:href="#DejaVuSans-29" x="1264.697266"/>
    </g>
   </g>
   <g id="legend_1">
    <g id="patch_7">
     <path d="M 186.895625 228.778906 
L 247.785625 228.778906 
Q 249.985625 228.778906 249.985625 226.578906 
L 249.985625 113.355781 
Q 249.985625 111.155781 247.785625 111.155781 
L 186.895625 111.155781 
Q 184.695625 111.155781 184.695625 113.355781 
L 184.695625 226.578906 
Q 184.695625 228.778906 186.895625 228.778906 
z
" style="fill: #ffffff; opacity: 0.8; stroke: #cccccc; stroke-linejoin: miter"/>
    </g>
    <g id="text_17">
     <!-- noise_std -->
     <g style="fill: #262626" transform="translate(189.095625 124.673906) scale(0.12 -0.12)">
      <defs>
       <path id="DejaVuSans-69" d="M 603 3500 
L 1178 3500 
L 1178 0 
L 603 0 
L 603 3500 
z
M 603 4863 
L 1178 4863 
L 1178 4134 
L 603 4134 
L 603 4863 
z
" transform="scale(0.015625)"/>
       <path id="DejaVuSans-5f" d="M 3263 -1063 
L 3263 -1509 
L -63 -1509 
L -63 -1063 
L 3263 -1063 
z
" transform="scale(0.015625)"/>
       <path id="DejaVuSans-74" d="M 1172 4494 
L 1172 3500 
L 2356 3500 
L 2356 3053 
L 1172 3053 
L 1172 1153 
Q 1172 725 1289 603 
Q 1406 481 1766 481 
L 2356 481 
L 2356 0 
L 1766 0 
Q 1100 0 847 248 
Q 594 497 594 1153 
L 594 3053 
L 172 3053 
L 172 3500 
L 594 3500 
L 594 4494 
L 1172 4494 
z
" transform="scale(0.015625)"/>
      </defs>
      <use xlink:href="#DejaVuSans-6e"/>
      <use xlink:href="#DejaVuSans-6f" x="63.378906"/>
      <use xlink:href="#DejaVuSans-69" x="124.560547"/>
      <use xlink:href="#DejaVuSans-73" x="152.34375"/>
      <use xlink:href="#DejaVuSans-65" x="204.443359"/>
      <use xlink:href="#DejaVuSans-5f" x="265.966797"/>
      <use xlink:href="#DejaVuSans-73" x="315.966797"/>
      <use xlink:href="#DejaVuSans-74" x="368.066406"/>
      <use xlink:href="#DejaVuSans-64" x="407.275391"/>
     </g>
    </g>
    <g id="line2d_26">
     <path d="M 193.193906 137.511562 
L 204.193906 137.511562 
L 215.193906 137.511562 
" style="fill: none; stroke-dasharray: 7.4,3.2; stroke-dashoffset: 0; stroke: #1f77b4; stroke-width: 2"/>
    </g>
    <g id="text_18">
     <!-- 0.1 -->
     <g style="fill: #262626" transform="translate(223.993906 141.361562) scale(0.11 -0.11)">
      <use xlink:href="#DejaVuSans-30"/>
      <use xlink:href="#DejaVuSans-2e" x="63.623047"/>
      <use xlink:href="#DejaVuSans-31" x="95.410156"/>
     </g>
    </g>
    <g id="line2d_27">
     <path d="M 193.193906 153.6575 
L 204.193906 153.6575 
L 215.193906 153.6575 
" style="fill: none; stroke-dasharray: 7.4,3.2; stroke-dashoffset: 0; stroke: #ff7f0e; stroke-width: 2"/>
    </g>
    <g id="text_19">
     <!-- 0.3 -->
     <g style="fill: #262626" transform="translate(223.993906 157.5075) scale(0.11 -0.11)">
      <defs>
       <path id="DejaVuSans-33" d="M 2597 2516 
Q 3050 2419 3304 2112 
Q 3559 1806 3559 1356 
Q 3559 666 3084 287 
Q 2609 -91 1734 -91 
Q 1441 -91 1130 -33 
Q 819 25 488 141 
L 488 750 
Q 750 597 1062 519 
Q 1375 441 1716 441 
Q 2309 441 2620 675 
Q 2931 909 2931 1356 
Q 2931 1769 2642 2001 
Q 2353 2234 1838 2234 
L 1294 2234 
L 1294 2753 
L 1863 2753 
Q 2328 2753 2575 2939 
Q 2822 3125 2822 3475 
Q 2822 3834 2567 4026 
Q 2313 4219 1838 4219 
Q 1578 4219 1281 4162 
Q 984 4106 628 3988 
L 628 4550 
Q 988 4650 1302 4700 
Q 1616 4750 1894 4750 
Q 2613 4750 3031 4423 
Q 3450 4097 3450 3541 
Q 3450 3153 3228 2886 
Q 3006 2619 2597 2516 
z
" transform="scale(0.015625)"/>
      </defs>
      <use xlink:href="#DejaVuSans-30"/>
      <use xlink:href="#DejaVuSans-2e" x="63.623047"/>
      <use xlink:href="#DejaVuSans-33" x="95.410156"/>
     </g>
    </g>
    <g id="line2d_28">
     <path d="M 193.193906 169.803438 
L 204.193906 169.803438 
L 215.193906 169.803438 
" style="fill: none; stroke-dasharray: 7.4,3.2; stroke-dashoffset: 0; stroke: #2ca02c; stroke-width: 2"/>
    </g>
    <g id="text_20">
     <!-- 0.5 -->
     <g style="fill: #262626" transform="translate(223.993906 173.653437) scale(0.11 -0.11)">
      <use xlink:href="#DejaVuSans-30"/>
      <use xlink:href="#DejaVuSans-2e" x="63.623047"/>
      <use xlink:href="#DejaVuSans-35" x="95.410156"/>
     </g>
    </g>
    <g id="line2d_29">
     <path d="M 193.193906 185.949375 
L 204.193906 185.949375 
L 215.193906 185.949375 
" style="fill: none; stroke: #1f77b4; stroke-width: 2; stroke-linecap: round"/>
    </g>
    <g id="text_21">
     <!-- 0.1 -->
     <g style="fill: #262626" transform="translate(223.993906 189.799375) scale(0.11 -0.11)">
      <use xlink:href="#DejaVuSans-30"/>
      <use xlink:href="#DejaVuSans-2e" x="63.623047"/>
      <use xlink:href="#DejaVuSans-31" x="95.410156"/>
     </g>
    </g>
    <g id="line2d_30">
     <path d="M 193.193906 202.095313 
L 204.193906 202.095313 
L 215.193906 202.095313 
" style="fill: none; stroke: #ff7f0e; stroke-width: 2; stroke-linecap: round"/>
    </g>
    <g id="text_22">
     <!-- 0.3 -->
     <g style="fill: #262626" transform="translate(223.993906 205.945312) scale(0.11 -0.11)">
      <use xlink:href="#DejaVuSans-30"/>
      <use xlink:href="#DejaVuSans-2e" x="63.623047"/>
      <use xlink:href="#DejaVuSans-33" x="95.410156"/>
     </g>
    </g>
    <g id="line2d_31">
     <path d="M 193.193906 218.24125 
L 204.193906 218.24125 
L 215.193906 218.24125 
" style="fill: none; stroke: #2ca02c; stroke-width: 2; stroke-linecap: round"/>
    </g>
    <g id="text_23">
     <!-- 0.5 -->
     <g style="fill: #262626" transform="translate(223.993906 222.09125) scale(0.11 -0.11)">
      <use xlink:href="#DejaVuSans-30"/>
      <use xlink:href="#DejaVuSans-2e" x="63.623047"/>
      <use xlink:href="#DejaVuSans-35" x="95.410156"/>
     </g>
    </g>
   </g>
  </g>
  <g id="axes_2">
   <g id="patch_8">
    <path d="M 313.085625 234.278906 
L 505.085625 234.278906 
L 505.085625 12.518906 
L 313.085625 12.518906 
z
" style="fill: #ffffff"/>
   </g>
   <g id="matplotlib.axis_3">
    <g id="xtick_7">
     <g id="line2d_32">
      <path d="M 321.812898 234.278906 
L 321.812898 12.518906 
" clip-path="url(#p9a4ec50de1)" style="fill: none; stroke: #cccccc; stroke-linecap: round"/>
     </g>
     <g id="text_24">
      <!-- 5 -->
      <g style="fill: #262626" transform="translate(317.359148 254.416719) scale(0.14 -0.14)">
       <use xlink:href="#DejaVuSans-35"/>
      </g>
     </g>
    </g>
    <g id="xtick_8">
     <g id="line2d_33">
      <path d="M 349.372706 234.278906 
L 349.372706 12.518906 
" clip-path="url(#p9a4ec50de1)" style="fill: none; stroke: #cccccc; stroke-linecap: round"/>
     </g>
     <g id="text_25">
      <!-- 20 -->
      <g style="fill: #262626" transform="translate(340.465206 254.416719) scale(0.14 -0.14)">
       <use xlink:href="#DejaVuSans-32"/>
       <use xlink:href="#DejaVuSans-30" x="63.623047"/>
      </g>
     </g>
    </g>
    <g id="xtick_9">
     <g id="line2d_34">
      <path d="M 386.119118 234.278906 
L 386.119118 12.518906 
" clip-path="url(#p9a4ec50de1)" style="fill: none; stroke: #cccccc; stroke-linecap: round"/>
     </g>
     <g id="text_26">
      <!-- 40 -->
      <g style="fill: #262626" transform="translate(377.211618 254.416719) scale(0.14 -0.14)">
       <use xlink:href="#DejaVuSans-34"/>
       <use xlink:href="#DejaVuSans-30" x="63.623047"/>
      </g>
     </g>
    </g>
    <g id="xtick_10">
     <g id="line2d_35">
      <path d="M 422.865529 234.278906 
L 422.865529 12.518906 
" clip-path="url(#p9a4ec50de1)" style="fill: none; stroke: #cccccc; stroke-linecap: round"/>
     </g>
     <g id="text_27">
      <!-- 60 -->
      <g style="fill: #262626" transform="translate(413.958029 254.416719) scale(0.14 -0.14)">
       <use xlink:href="#DejaVuSans-36"/>
       <use xlink:href="#DejaVuSans-30" x="63.623047"/>
      </g>
     </g>
    </g>
    <g id="xtick_11">
     <g id="line2d_36">
      <path d="M 459.611941 234.278906 
L 459.611941 12.518906 
" clip-path="url(#p9a4ec50de1)" style="fill: none; stroke: #cccccc; stroke-linecap: round"/>
     </g>
     <g id="text_28">
      <!-- 80 -->
      <g style="fill: #262626" transform="translate(450.704441 254.416719) scale(0.14 -0.14)">
       <use xlink:href="#DejaVuSans-38"/>
       <use xlink:href="#DejaVuSans-30" x="63.623047"/>
      </g>
     </g>
    </g>
    <g id="xtick_12">
     <g id="line2d_37">
      <path d="M 496.358352 234.278906 
L 496.358352 12.518906 
" clip-path="url(#p9a4ec50de1)" style="fill: none; stroke: #cccccc; stroke-linecap: round"/>
     </g>
     <g id="text_29">
      <!-- 100 -->
      <g style="fill: #262626" transform="translate(482.997102 254.416719) scale(0.14 -0.14)">
       <use xlink:href="#DejaVuSans-31"/>
       <use xlink:href="#DejaVuSans-30" x="63.623047"/>
       <use xlink:href="#DejaVuSans-30" x="127.246094"/>
      </g>
     </g>
    </g>
    <g id="text_30">
     <!--   -->
     <g style="fill: #262626" transform="translate(407.17875 270.446406) scale(0.12 -0.12)">
      <use xlink:href="#DejaVuSans-20"/>
     </g>
    </g>
   </g>
   <g id="matplotlib.axis_4">
    <g id="ytick_8">
     <g id="line2d_38">
      <path d="M 313.085625 234.278906 
L 505.085625 234.278906 
" clip-path="url(#p9a4ec50de1)" style="fill: none; stroke: #cccccc; stroke-linecap: round"/>
     </g>
     <g id="text_31">
      <!-- 0.0 -->
      <g style="fill: #262626" transform="translate(281.32125 239.597813) scale(0.14 -0.14)">
       <use xlink:href="#DejaVuSans-30"/>
       <use xlink:href="#DejaVuSans-2e" x="63.623047"/>
       <use xlink:href="#DejaVuSans-30" x="95.410156"/>
      </g>
     </g>
    </g>
    <g id="ytick_9">
     <g id="line2d_39">
      <path d="M 313.085625 189.926906 
L 505.085625 189.926906 
" clip-path="url(#p9a4ec50de1)" style="fill: none; stroke: #cccccc; stroke-linecap: round"/>
     </g>
     <g id="text_32">
      <!-- 0.2 -->
      <g style="fill: #262626" transform="translate(281.32125 195.245812) scale(0.14 -0.14)">
       <use xlink:href="#DejaVuSans-30"/>
       <use xlink:href="#DejaVuSans-2e" x="63.623047"/>
       <use xlink:href="#DejaVuSans-32" x="95.410156"/>
      </g>
     </g>
    </g>
    <g id="ytick_10">
     <g id="line2d_40">
      <path d="M 313.085625 145.574906 
L 505.085625 145.574906 
" clip-path="url(#p9a4ec50de1)" style="fill: none; stroke: #cccccc; stroke-linecap: round"/>
     </g>
     <g id="text_33">
      <!-- 0.4 -->
      <g style="fill: #262626" transform="translate(281.32125 150.893812) scale(0.14 -0.14)">
       <use xlink:href="#DejaVuSans-30"/>
       <use xlink:href="#DejaVuSans-2e" x="63.623047"/>
       <use xlink:href="#DejaVuSans-34" x="95.410156"/>
      </g>
     </g>
    </g>
    <g id="ytick_11">
     <g id="line2d_41">
      <path d="M 313.085625 101.222906 
L 505.085625 101.222906 
" clip-path="url(#p9a4ec50de1)" style="fill: none; stroke: #cccccc; stroke-linecap: round"/>
     </g>
     <g id="text_34">
      <!-- 0.6 -->
      <g style="fill: #262626" transform="translate(281.32125 106.541812) scale(0.14 -0.14)">
       <use xlink:href="#DejaVuSans-30"/>
       <use xlink:href="#DejaVuSans-2e" x="63.623047"/>
       <use xlink:href="#DejaVuSans-36" x="95.410156"/>
      </g>
     </g>
    </g>
    <g id="ytick_12">
     <g id="line2d_42">
      <path d="M 313.085625 56.870906 
L 505.085625 56.870906 
" clip-path="url(#p9a4ec50de1)" style="fill: none; stroke: #cccccc; stroke-linecap: round"/>
     </g>
     <g id="text_35">
      <!-- 0.8 -->
      <g style="fill: #262626" transform="translate(281.32125 62.189812) scale(0.14 -0.14)">
       <use xlink:href="#DejaVuSans-30"/>
       <use xlink:href="#DejaVuSans-2e" x="63.623047"/>
       <use xlink:href="#DejaVuSans-38" x="95.410156"/>
      </g>
     </g>
    </g>
    <g id="ytick_13">
     <g id="line2d_43">
      <path d="M 313.085625 12.518906 
L 505.085625 12.518906 
" clip-path="url(#p9a4ec50de1)" style="fill: none; stroke: #cccccc; stroke-linecap: round"/>
     </g>
     <g id="text_36">
      <!-- 1.0 -->
      <g style="fill: #262626" transform="translate(281.32125 17.837812) scale(0.14 -0.14)">
       <use xlink:href="#DejaVuSans-31"/>
       <use xlink:href="#DejaVuSans-2e" x="63.623047"/>
       <use xlink:href="#DejaVuSans-30" x="95.410156"/>
      </g>
     </g>
    </g>
    <g id="text_37">
     <!-- absolute noise error -->
     <g style="fill: #262626" transform="translate(274.825625 183.489844) rotate(-90) scale(0.12 -0.12)">
      <use xlink:href="#DejaVuSans-61"/>
      <use xlink:href="#DejaVuSans-62" x="61.279297"/>
      <use xlink:href="#DejaVuSans-73" x="124.755859"/>
      <use xlink:href="#DejaVuSans-6f" x="176.855469"/>
      <use xlink:href="#DejaVuSans-6c" x="238.037109"/>
      <use xlink:href="#DejaVuSans-75" x="265.820312"/>
      <use xlink:href="#DejaVuSans-74" x="329.199219"/>
      <use xlink:href="#DejaVuSans-65" x="368.408203"/>
      <use xlink:href="#DejaVuSans-20" x="429.931641"/>
      <use xlink:href="#DejaVuSans-6e" x="461.71875"/>
      <use xlink:href="#DejaVuSans-6f" x="525.097656"/>
      <use xlink:href="#DejaVuSans-69" x="586.279297"/>
      <use xlink:href="#DejaVuSans-73" x="614.0625"/>
      <use xlink:href="#DejaVuSans-65" x="666.162109"/>
      <use xlink:href="#DejaVuSans-20" x="727.685547"/>
      <use xlink:href="#DejaVuSans-65" x="759.472656"/>
      <use xlink:href="#DejaVuSans-72" x="820.996094"/>
      <use xlink:href="#DejaVuSans-72" x="860.359375"/>
      <use xlink:href="#DejaVuSans-6f" x="899.222656"/>
      <use xlink:href="#DejaVuSans-72" x="960.404297"/>
     </g>
    </g>
   </g>
   <g id="PolyCollection_7">
    <path d="M 321.812898 -1214.610141 
L 321.812898 55.858588 
L 330.999501 185.062516 
L 340.186103 196.770207 
L 349.372706 212.275242 
L 358.559309 216.465111 
L 367.745912 213.8137 
L 376.932515 218.73033 
L 386.119118 219.569105 
L 395.305721 221.430458 
L 404.492324 227.304576 
L 413.678926 227.719436 
L 422.865529 228.03628 
L 432.052132 229.011907 
L 441.238735 229.392125 
L 450.425338 228.300803 
L 459.611941 227.629631 
L 468.798544 229.988046 
L 477.985147 229.182558 
L 487.171749 230.245386 
L 496.358352 229.983233 
L 496.358352 220.15702 
L 496.358352 220.15702 
L 487.171749 219.742683 
L 477.985147 219.825716 
L 468.798544 219.922555 
L 459.611941 213.231303 
L 450.425338 216.53309 
L 441.238735 219.037899 
L 432.052132 219.411314 
L 422.865529 217.662419 
L 413.678926 214.916235 
L 404.492324 214.115551 
L 395.305721 203.926076 
L 386.119118 199.509196 
L 376.932515 196.94917 
L 367.745912 176.522719 
L 358.559309 192.861488 
L 349.372706 87.765215 
L 340.186103 94.26015 
L 330.999501 -5.963562 
L 321.812898 -1214.610141 
z
" clip-path="url(#p9a4ec50de1)" style="fill: #1f77b4; fill-opacity: 0.2; stroke: #1f77b4; stroke-opacity: 0.2"/>
   </g>
   <g id="PolyCollection_8">
    <path d="M 321.812898 -1183.951601 
L 321.812898 52.223871 
L 330.999501 179.162537 
L 340.186103 197.554684 
L 349.372706 212.151139 
L 358.559309 216.740053 
L 367.745912 217.186931 
L 376.932515 217.871107 
L 386.119118 219.4799 
L 395.305721 223.611596 
L 404.492324 223.568276 
L 413.678926 223.800737 
L 422.865529 223.471605 
L 432.052132 226.046332 
L 441.238735 226.617655 
L 450.425338 225.375631 
L 459.611941 226.2952 
L 468.798544 227.899947 
L 477.985147 227.885566 
L 487.171749 228.801819 
L 496.358352 228.91472 
L 496.358352 222.842854 
L 496.358352 222.842854 
L 487.171749 220.710709 
L 477.985147 219.499271 
L 468.798544 220.522905 
L 459.611941 216.033004 
L 450.425338 215.064463 
L 441.238735 216.615427 
L 432.052132 212.755594 
L 422.865529 211.270054 
L 413.678926 211.2853 
L 404.492324 211.559265 
L 395.305721 209.830665 
L 386.119118 206.440229 
L 376.932515 199.928209 
L 367.745912 181.344812 
L 358.559309 201.108625 
L 349.372706 107.939972 
L 340.186103 97.329679 
L 330.999501 -4.350791 
L 321.812898 -1183.951601 
z
" clip-path="url(#p9a4ec50de1)" style="fill: #ff7f0e; fill-opacity: 0.2; stroke: #ff7f0e; stroke-opacity: 0.2"/>
   </g>
   <g id="PolyCollection_9">
    <path d="M 321.812898 -1178.888679 
L 321.812898 30.094134 
L 330.999501 165.418457 
L 340.186103 192.184563 
L 349.372706 210.510875 
L 358.559309 215.904899 
L 367.745912 215.745367 
L 376.932515 217.539608 
L 386.119118 221.671579 
L 395.305721 221.250462 
L 404.492324 222.159477 
L 413.678926 221.674774 
L 422.865529 225.43409 
L 432.052132 223.793294 
L 441.238735 224.312973 
L 450.425338 225.036038 
L 459.611941 225.677649 
L 468.798544 224.12431 
L 477.985147 225.115968 
L 487.171749 226.066577 
L 496.358352 225.47836 
L 496.358352 216.403263 
L 496.358352 216.403263 
L 487.171749 217.058186 
L 477.985147 215.240878 
L 468.798544 215.097822 
L 459.611941 217.054569 
L 450.425338 215.360355 
L 441.238735 214.444426 
L 432.052132 214.792821 
L 422.865529 215.924258 
L 413.678926 210.936785 
L 404.492324 211.575849 
L 395.305721 209.808021 
L 386.119118 209.95568 
L 376.932515 202.121787 
L 367.745912 185.82804 
L 358.559309 199.103181 
L 349.372706 101.84661 
L 340.186103 99.351815 
L 330.999501 -11.505292 
L 321.812898 -1178.888679 
z
" clip-path="url(#p9a4ec50de1)" style="fill: #2ca02c; fill-opacity: 0.2; stroke: #2ca02c; stroke-opacity: 0.2"/>
   </g>
   <g id="PolyCollection_10">
    <path d="M 321.812898 -55.322519 
L 321.812898 70.417429 
L 330.999501 189.528018 
L 340.186103 200.712557 
L 349.372706 205.312021 
L 358.559309 218.402246 
L 367.745912 217.63914 
L 376.932515 221.665415 
L 386.119118 223.98257 
L 395.305721 224.377274 
L 404.492324 224.041889 
L 413.678926 224.722806 
L 422.865529 224.323209 
L 432.052132 225.121207 
L 441.238735 224.990716 
L 450.425338 225.255762 
L 459.611941 225.282887 
L 468.798544 225.752402 
L 477.985147 225.903209 
L 487.171749 225.654507 
L 496.358352 225.988969 
L 496.358352 223.137528 
L 496.358352 223.137528 
L 487.171749 223.006248 
L 477.985147 223.12359 
L 468.798544 222.956984 
L 459.611941 222.432571 
L 450.425338 222.549816 
L 441.238735 222.002078 
L 432.052132 222.269196 
L 422.865529 221.416362 
L 413.678926 221.941552 
L 404.492324 221.030494 
L 395.305721 221.469662 
L 386.119118 221.244954 
L 376.932515 217.980542 
L 367.745912 211.683378 
L 358.559309 213.799105 
L 349.372706 169.906471 
L 340.186103 179.955103 
L 330.999501 156.291697 
L 321.812898 -55.322519 
z
" clip-path="url(#p9a4ec50de1)" style="fill: #1f77b4; fill-opacity: 0.2; stroke: #1f77b4; stroke-opacity: 0.2"/>
   </g>
   <g id="PolyCollection_11">
    <path d="M 321.812898 -76.884834 
L 321.812898 58.373701 
L 330.999501 185.786012 
L 340.186103 196.116786 
L 349.372706 203.370047 
L 358.559309 216.904387 
L 367.745912 215.16593 
L 376.932515 219.169055 
L 386.119118 221.364911 
L 395.305721 222.939788 
L 404.492324 222.35591 
L 413.678926 222.67618 
L 422.865529 222.714796 
L 432.052132 223.663742 
L 441.238735 224.144844 
L 450.425338 224.080817 
L 459.611941 224.413829 
L 468.798544 224.383059 
L 477.985147 225.158942 
L 487.171749 225.506368 
L 496.358352 225.511579 
L 496.358352 223.515643 
L 496.358352 223.515643 
L 487.171749 223.559279 
L 477.985147 223.192531 
L 468.798544 222.455616 
L 459.611941 222.578582 
L 450.425338 222.008831 
L 441.238735 222.001876 
L 432.052132 221.628039 
L 422.865529 220.481819 
L 413.678926 220.442754 
L 404.492324 220.143586 
L 395.305721 220.651886 
L 386.119118 218.633421 
L 376.932515 215.502011 
L 367.745912 208.249008 
L 358.559309 212.471054 
L 349.372706 169.187291 
L 340.186103 176.493774 
L 330.999501 153.767168 
L 321.812898 -76.884834 
z
" clip-path="url(#p9a4ec50de1)" style="fill: #ff7f0e; fill-opacity: 0.2; stroke: #ff7f0e; stroke-opacity: 0.2"/>
   </g>
   <g id="PolyCollection_12">
    <path d="M 321.812898 -104.181264 
L 321.812898 34.286823 
L 330.999501 167.805068 
L 340.186103 191.043613 
L 349.372706 200.111064 
L 358.559309 215.043207 
L 367.745912 211.475061 
L 376.932515 217.666252 
L 386.119118 219.924349 
L 395.305721 220.002911 
L 404.492324 221.120084 
L 413.678926 221.874946 
L 422.865529 222.351466 
L 432.052132 222.040182 
L 441.238735 222.95249 
L 450.425338 222.778996 
L 459.611941 223.34192 
L 468.798544 223.233129 
L 477.985147 223.70096 
L 487.171749 224.050029 
L 496.358352 224.673263 
L 496.358352 222.957318 
L 496.358352 222.957318 
L 487.171749 222.237916 
L 477.985147 221.970069 
L 468.798544 221.379907 
L 459.611941 221.607839 
L 450.425338 220.821375 
L 441.238735 221.073892 
L 432.052132 219.89754 
L 422.865529 220.294523 
L 413.678926 219.781407 
L 404.492324 218.739645 
L 395.305721 217.033799 
L 386.119118 216.887891 
L 376.932515 213.873586 
L 367.745912 202.540801 
L 358.559309 210.86982 
L 349.372706 167.914652 
L 340.186103 171.22111 
L 330.999501 114.186375 
L 321.812898 -104.181264 
z
" clip-path="url(#p9a4ec50de1)" style="fill: #2ca02c; fill-opacity: 0.2; stroke: #2ca02c; stroke-opacity: 0.2"/>
   </g>
   <g id="line2d_44">
    <path d="M 329.135004 -1 
L 330.999501 111.202157 
L 340.186103 155.288078 
L 349.372706 172.330944 
L 358.559309 204.93293 
L 367.745912 197.91368 
L 376.932515 208.791297 
L 386.119118 210.041133 
L 395.305721 212.897275 
L 404.492324 221.269196 
L 413.678926 221.786032 
L 422.865529 223.195863 
L 432.052132 224.333952 
L 441.238735 224.494168 
L 450.425338 222.734875 
L 459.611941 221.0318 
L 468.798544 225.342367 
L 477.985147 224.758861 
L 487.171749 225.47054 
L 496.358352 225.505619 
" clip-path="url(#p9a4ec50de1)" style="fill: none; stroke-dasharray: 7.4,3.2; stroke-dashoffset: 0; stroke: #1f77b4; stroke-width: 2"/>
   </g>
   <g id="line2d_45">
    <path d="M 329.290668 -1 
L 330.999501 102.890866 
L 340.186103 154.471357 
L 349.372706 174.695656 
L 358.559309 208.966678 
L 367.745912 203.124547 
L 376.932515 209.725106 
L 386.119118 213.299479 
L 395.305721 216.889582 
L 404.492324 217.553449 
L 413.678926 217.881058 
L 422.865529 217.509473 
L 432.052132 220.329685 
L 441.238735 221.782594 
L 450.425338 220.483602 
L 459.611941 221.566429 
L 468.798544 224.528884 
L 477.985147 224.014836 
L 487.171749 224.991393 
L 496.358352 226.250755 
" clip-path="url(#p9a4ec50de1)" style="fill: none; stroke-dasharray: 7.4,3.2; stroke-dashoffset: 0; stroke: #ff7f0e; stroke-width: 2"/>
   </g>
   <g id="line2d_46">
    <path d="M 329.482246 -1 
L 330.999501 91.779988 
L 340.186103 153.069563 
L 349.372706 170.637669 
L 358.559309 207.896246 
L 367.745912 202.512351 
L 376.932515 210.342606 
L 386.119118 215.979115 
L 395.305721 216.155204 
L 404.492324 217.246496 
L 413.678926 216.387443 
L 422.865529 220.950652 
L 432.052132 219.803615 
L 441.238735 219.734511 
L 450.425338 220.318246 
L 459.611941 221.569182 
L 468.798544 219.944306 
L 477.985147 220.622036 
L 487.171749 221.867299 
L 496.358352 220.911833 
" clip-path="url(#p9a4ec50de1)" style="fill: none; stroke-dasharray: 7.4,3.2; stroke-dashoffset: 0; stroke: #2ca02c; stroke-width: 2"/>
   </g>
   <g id="line2d_47"/>
   <g id="line2d_48"/>
   <g id="line2d_49"/>
   <g id="line2d_50">
    <path d="M 321.812898 9.252371 
L 330.999501 174.058707 
L 340.186103 190.376897 
L 349.372706 188.945405 
L 358.559309 216.150959 
L 367.745912 214.75999 
L 376.932515 219.885237 
L 386.119118 222.606715 
L 395.305721 222.946324 
L 404.492324 222.547127 
L 413.678926 223.336648 
L 422.865529 222.872524 
L 432.052132 223.712752 
L 441.238735 223.496684 
L 450.425338 223.99059 
L 459.611941 223.951251 
L 468.798544 224.348307 
L 477.985147 224.521843 
L 487.171749 224.389378 
L 496.358352 224.558943 
" clip-path="url(#p9a4ec50de1)" style="fill: none; stroke: #1f77b4; stroke-width: 2; stroke-linecap: round"/>
   </g>
   <g id="line2d_51">
    <path d="M 322.115083 -1 
L 330.999501 170.767112 
L 340.186103 186.402826 
L 349.372706 187.142403 
L 358.559309 214.816996 
L 367.745912 211.85161 
L 376.932515 217.428933 
L 386.119118 220.038613 
L 395.305721 221.828169 
L 404.492324 221.259025 
L 413.678926 221.574249 
L 422.865529 221.60878 
L 432.052132 222.636732 
L 441.238735 223.073851 
L 450.425338 223.019731 
L 459.611941 223.49898 
L 468.798544 223.3706 
L 477.985147 224.229539 
L 487.171749 224.535208 
L 496.358352 224.579869 
" clip-path="url(#p9a4ec50de1)" style="fill: none; stroke: #ff7f0e; stroke-width: 2; stroke-linecap: round"/>
   </g>
   <g id="line2d_52">
    <path d="M 323.263726 -1 
L 330.999501 142.154858 
L 340.186103 182.128788 
L 349.372706 184.767511 
L 358.559309 212.958799 
L 367.745912 207.359934 
L 376.932515 215.817121 
L 386.119118 218.419409 
L 395.305721 218.587425 
L 404.492324 219.948968 
L 413.678926 220.914596 
L 422.865529 221.306738 
L 432.052132 221.051457 
L 441.238735 222.026471 
L 450.425338 221.846751 
L 459.611941 222.480517 
L 468.798544 222.358627 
L 477.985147 222.850633 
L 487.171749 223.123296 
L 496.358352 223.842404 
" clip-path="url(#p9a4ec50de1)" style="fill: none; stroke: #2ca02c; stroke-width: 2; stroke-linecap: round"/>
   </g>
   <g id="line2d_53"/>
   <g id="line2d_54"/>
   <g id="line2d_55"/>
   <g id="patch_9">
    <path d="M 313.085625 234.278906 
L 313.085625 12.518906 
" style="fill: none; stroke: #cccccc; stroke-width: 1.25; stroke-linejoin: miter; stroke-linecap: square"/>
   </g>
   <g id="patch_10">
    <path d="M 505.085625 234.278906 
L 505.085625 12.518906 
" style="fill: none; stroke: #cccccc; stroke-width: 1.25; stroke-linejoin: miter; stroke-linecap: square"/>
   </g>
   <g id="patch_11">
    <path d="M 313.085625 234.278906 
L 505.085625 234.278906 
" style="fill: none; stroke: #cccccc; stroke-width: 1.25; stroke-linejoin: miter; stroke-linecap: square"/>
   </g>
   <g id="patch_12">
    <path d="M 313.085625 12.518906 
L 505.085625 12.518906 
" style="fill: none; stroke: #cccccc; stroke-width: 1.25; stroke-linejoin: miter; stroke-linecap: square"/>
   </g>
   <g id="legend_2">
    <g id="patch_13">
     <path d="M 436.495625 135.642031 
L 497.385625 135.642031 
Q 499.585625 135.642031 499.585625 133.442031 
L 499.585625 20.218906 
Q 499.585625 18.018906 497.385625 18.018906 
L 436.495625 18.018906 
Q 434.295625 18.018906 434.295625 20.218906 
L 434.295625 133.442031 
Q 434.295625 135.642031 436.495625 135.642031 
z
" style="fill: #ffffff; opacity: 0.8; stroke: #cccccc; stroke-linejoin: miter"/>
    </g>
    <g id="text_38">
     <!-- noise_std -->
     <g style="fill: #262626" transform="translate(438.695625 31.537031) scale(0.12 -0.12)">
      <use xlink:href="#DejaVuSans-6e"/>
      <use xlink:href="#DejaVuSans-6f" x="63.378906"/>
      <use xlink:href="#DejaVuSans-69" x="124.560547"/>
      <use xlink:href="#DejaVuSans-73" x="152.34375"/>
      <use xlink:href="#DejaVuSans-65" x="204.443359"/>
      <use xlink:href="#DejaVuSans-5f" x="265.966797"/>
      <use xlink:href="#DejaVuSans-73" x="315.966797"/>
      <use xlink:href="#DejaVuSans-74" x="368.066406"/>
      <use xlink:href="#DejaVuSans-64" x="407.275391"/>
     </g>
    </g>
    <g id="line2d_56">
     <path d="M 442.793906 44.374687 
L 453.793906 44.374687 
L 464.793906 44.374687 
" style="fill: none; stroke-dasharray: 7.4,3.2; stroke-dashoffset: 0; stroke: #1f77b4; stroke-width: 2"/>
    </g>
    <g id="text_39">
     <!-- 0.1 -->
     <g style="fill: #262626" transform="translate(473.593906 48.224687) scale(0.11 -0.11)">
      <use xlink:href="#DejaVuSans-30"/>
      <use xlink:href="#DejaVuSans-2e" x="63.623047"/>
      <use xlink:href="#DejaVuSans-31" x="95.410156"/>
     </g>
    </g>
    <g id="line2d_57">
     <path d="M 442.793906 60.520625 
L 453.793906 60.520625 
L 464.793906 60.520625 
" style="fill: none; stroke-dasharray: 7.4,3.2; stroke-dashoffset: 0; stroke: #ff7f0e; stroke-width: 2"/>
    </g>
    <g id="text_40">
     <!-- 0.3 -->
     <g style="fill: #262626" transform="translate(473.593906 64.370625) scale(0.11 -0.11)">
      <use xlink:href="#DejaVuSans-30"/>
      <use xlink:href="#DejaVuSans-2e" x="63.623047"/>
      <use xlink:href="#DejaVuSans-33" x="95.410156"/>
     </g>
    </g>
    <g id="line2d_58">
     <path d="M 442.793906 76.666562 
L 453.793906 76.666562 
L 464.793906 76.666562 
" style="fill: none; stroke-dasharray: 7.4,3.2; stroke-dashoffset: 0; stroke: #2ca02c; stroke-width: 2"/>
    </g>
    <g id="text_41">
     <!-- 0.5 -->
     <g style="fill: #262626" transform="translate(473.593906 80.516562) scale(0.11 -0.11)">
      <use xlink:href="#DejaVuSans-30"/>
      <use xlink:href="#DejaVuSans-2e" x="63.623047"/>
      <use xlink:href="#DejaVuSans-35" x="95.410156"/>
     </g>
    </g>
    <g id="line2d_59">
     <path d="M 442.793906 92.8125 
L 453.793906 92.8125 
L 464.793906 92.8125 
" style="fill: none; stroke: #1f77b4; stroke-width: 2; stroke-linecap: round"/>
    </g>
    <g id="text_42">
     <!-- 0.1 -->
     <g style="fill: #262626" transform="translate(473.593906 96.6625) scale(0.11 -0.11)">
      <use xlink:href="#DejaVuSans-30"/>
      <use xlink:href="#DejaVuSans-2e" x="63.623047"/>
      <use xlink:href="#DejaVuSans-31" x="95.410156"/>
     </g>
    </g>
    <g id="line2d_60">
     <path d="M 442.793906 108.958438 
L 453.793906 108.958438 
L 464.793906 108.958438 
" style="fill: none; stroke: #ff7f0e; stroke-width: 2; stroke-linecap: round"/>
    </g>
    <g id="text_43">
     <!-- 0.3 -->
     <g style="fill: #262626" transform="translate(473.593906 112.808437) scale(0.11 -0.11)">
      <use xlink:href="#DejaVuSans-30"/>
      <use xlink:href="#DejaVuSans-2e" x="63.623047"/>
      <use xlink:href="#DejaVuSans-33" x="95.410156"/>
     </g>
    </g>
    <g id="line2d_61">
     <path d="M 442.793906 125.104375 
L 453.793906 125.104375 
L 464.793906 125.104375 
" style="fill: none; stroke: #2ca02c; stroke-width: 2; stroke-linecap: round"/>
    </g>
    <g id="text_44">
     <!-- 0.5 -->
     <g style="fill: #262626" transform="translate(473.593906 128.954375) scale(0.11 -0.11)">
      <use xlink:href="#DejaVuSans-30"/>
      <use xlink:href="#DejaVuSans-2e" x="63.623047"/>
      <use xlink:href="#DejaVuSans-35" x="95.410156"/>
     </g>
    </g>
   </g>
  </g>
  <g id="axes_3">
   <g id="patch_14">
    <path d="M 562.685625 234.278906 
L 754.685625 234.278906 
L 754.685625 12.518906 
L 562.685625 12.518906 
z
" style="fill: #ffffff"/>
   </g>
   <g id="matplotlib.axis_5">
    <g id="xtick_13">
     <g id="line2d_62">
      <path d="M 571.412898 234.278906 
L 571.412898 12.518906 
" clip-path="url(#pfef233f160)" style="fill: none; stroke: #cccccc; stroke-linecap: round"/>
     </g>
     <g id="text_45">
      <!-- 5 -->
      <g style="fill: #262626" transform="translate(566.959148 254.416719) scale(0.14 -0.14)">
       <use xlink:href="#DejaVuSans-35"/>
      </g>
     </g>
    </g>
    <g id="xtick_14">
     <g id="line2d_63">
      <path d="M 598.972706 234.278906 
L 598.972706 12.518906 
" clip-path="url(#pfef233f160)" style="fill: none; stroke: #cccccc; stroke-linecap: round"/>
     </g>
     <g id="text_46">
      <!-- 20 -->
      <g style="fill: #262626" transform="translate(590.065206 254.416719) scale(0.14 -0.14)">
       <use xlink:href="#DejaVuSans-32"/>
       <use xlink:href="#DejaVuSans-30" x="63.623047"/>
      </g>
     </g>
    </g>
    <g id="xtick_15">
     <g id="line2d_64">
      <path d="M 635.719118 234.278906 
L 635.719118 12.518906 
" clip-path="url(#pfef233f160)" style="fill: none; stroke: #cccccc; stroke-linecap: round"/>
     </g>
     <g id="text_47">
      <!-- 40 -->
      <g style="fill: #262626" transform="translate(626.811618 254.416719) scale(0.14 -0.14)">
       <use xlink:href="#DejaVuSans-34"/>
       <use xlink:href="#DejaVuSans-30" x="63.623047"/>
      </g>
     </g>
    </g>
    <g id="xtick_16">
     <g id="line2d_65">
      <path d="M 672.465529 234.278906 
L 672.465529 12.518906 
" clip-path="url(#pfef233f160)" style="fill: none; stroke: #cccccc; stroke-linecap: round"/>
     </g>
     <g id="text_48">
      <!-- 60 -->
      <g style="fill: #262626" transform="translate(663.558029 254.416719) scale(0.14 -0.14)">
       <use xlink:href="#DejaVuSans-36"/>
       <use xlink:href="#DejaVuSans-30" x="63.623047"/>
      </g>
     </g>
    </g>
    <g id="xtick_17">
     <g id="line2d_66">
      <path d="M 709.211941 234.278906 
L 709.211941 12.518906 
" clip-path="url(#pfef233f160)" style="fill: none; stroke: #cccccc; stroke-linecap: round"/>
     </g>
     <g id="text_49">
      <!-- 80 -->
      <g style="fill: #262626" transform="translate(700.304441 254.416719) scale(0.14 -0.14)">
       <use xlink:href="#DejaVuSans-38"/>
       <use xlink:href="#DejaVuSans-30" x="63.623047"/>
      </g>
     </g>
    </g>
    <g id="xtick_18">
     <g id="line2d_67">
      <path d="M 745.958352 234.278906 
L 745.958352 12.518906 
" clip-path="url(#pfef233f160)" style="fill: none; stroke: #cccccc; stroke-linecap: round"/>
     </g>
     <g id="text_50">
      <!-- 100 -->
      <g style="fill: #262626" transform="translate(732.597102 254.416719) scale(0.14 -0.14)">
       <use xlink:href="#DejaVuSans-31"/>
       <use xlink:href="#DejaVuSans-30" x="63.623047"/>
       <use xlink:href="#DejaVuSans-30" x="127.246094"/>
      </g>
     </g>
    </g>
    <g id="text_51">
     <!--   -->
     <g style="fill: #262626" transform="translate(656.77875 270.446406) scale(0.12 -0.12)">
      <use xlink:href="#DejaVuSans-20"/>
     </g>
    </g>
   </g>
   <g id="matplotlib.axis_6">
    <g id="ytick_14">
     <g id="line2d_68">
      <path d="M 562.685625 225.477463 
L 754.685625 225.477463 
" clip-path="url(#pfef233f160)" style="fill: none; stroke: #cccccc; stroke-linecap: round"/>
     </g>
     <g id="text_52">
      <!-- 0 -->
      <g style="fill: #262626" transform="translate(544.278125 230.796369) scale(0.14 -0.14)">
       <use xlink:href="#DejaVuSans-30"/>
      </g>
     </g>
    </g>
    <g id="ytick_15">
     <g id="line2d_69">
      <path d="M 562.685625 187.055679 
L 754.685625 187.055679 
" clip-path="url(#pfef233f160)" style="fill: none; stroke: #cccccc; stroke-linecap: round"/>
     </g>
     <g id="text_53">
      <!-- 50 -->
      <g style="fill: #262626" transform="translate(535.370625 192.374585) scale(0.14 -0.14)">
       <use xlink:href="#DejaVuSans-35"/>
       <use xlink:href="#DejaVuSans-30" x="63.623047"/>
      </g>
     </g>
    </g>
    <g id="ytick_16">
     <g id="line2d_70">
      <path d="M 562.685625 148.633894 
L 754.685625 148.633894 
" clip-path="url(#pfef233f160)" style="fill: none; stroke: #cccccc; stroke-linecap: round"/>
     </g>
     <g id="text_54">
      <!-- 100 -->
      <g style="fill: #262626" transform="translate(526.463125 153.952801) scale(0.14 -0.14)">
       <use xlink:href="#DejaVuSans-31"/>
       <use xlink:href="#DejaVuSans-30" x="63.623047"/>
       <use xlink:href="#DejaVuSans-30" x="127.246094"/>
      </g>
     </g>
    </g>
    <g id="ytick_17">
     <g id="line2d_71">
      <path d="M 562.685625 110.21211 
L 754.685625 110.21211 
" clip-path="url(#pfef233f160)" style="fill: none; stroke: #cccccc; stroke-linecap: round"/>
     </g>
     <g id="text_55">
      <!-- 150 -->
      <g style="fill: #262626" transform="translate(526.463125 115.531016) scale(0.14 -0.14)">
       <use xlink:href="#DejaVuSans-31"/>
       <use xlink:href="#DejaVuSans-35" x="63.623047"/>
       <use xlink:href="#DejaVuSans-30" x="127.246094"/>
      </g>
     </g>
    </g>
    <g id="ytick_18">
     <g id="line2d_72">
      <path d="M 562.685625 71.790326 
L 754.685625 71.790326 
" clip-path="url(#pfef233f160)" style="fill: none; stroke: #cccccc; stroke-linecap: round"/>
     </g>
     <g id="text_56">
      <!-- 200 -->
      <g style="fill: #262626" transform="translate(526.463125 77.109232) scale(0.14 -0.14)">
       <use xlink:href="#DejaVuSans-32"/>
       <use xlink:href="#DejaVuSans-30" x="63.623047"/>
       <use xlink:href="#DejaVuSans-30" x="127.246094"/>
      </g>
     </g>
    </g>
    <g id="ytick_19">
     <g id="line2d_73">
      <path d="M 562.685625 33.368541 
L 754.685625 33.368541 
" clip-path="url(#pfef233f160)" style="fill: none; stroke: #cccccc; stroke-linecap: round"/>
     </g>
     <g id="text_57">
      <!-- 250 -->
      <g style="fill: #262626" transform="translate(526.463125 38.687447) scale(0.14 -0.14)">
       <use xlink:href="#DejaVuSans-32"/>
       <use xlink:href="#DejaVuSans-35" x="63.623047"/>
       <use xlink:href="#DejaVuSans-30" x="127.246094"/>
      </g>
     </g>
    </g>
    <g id="text_58">
     <!-- CPU time (s) -->
     <g style="fill: #262626" transform="translate(519.9675 160.774219) rotate(-90) scale(0.12 -0.12)">
      <defs>
       <path id="DejaVuSans-43" d="M 4122 4306 
L 4122 3641 
Q 3803 3938 3442 4084 
Q 3081 4231 2675 4231 
Q 1875 4231 1450 3742 
Q 1025 3253 1025 2328 
Q 1025 1406 1450 917 
Q 1875 428 2675 428 
Q 3081 428 3442 575 
Q 3803 722 4122 1019 
L 4122 359 
Q 3791 134 3420 21 
Q 3050 -91 2638 -91 
Q 1578 -91 968 557 
Q 359 1206 359 2328 
Q 359 3453 968 4101 
Q 1578 4750 2638 4750 
Q 3056 4750 3426 4639 
Q 3797 4528 4122 4306 
z
" transform="scale(0.015625)"/>
       <path id="DejaVuSans-50" d="M 1259 4147 
L 1259 2394 
L 2053 2394 
Q 2494 2394 2734 2622 
Q 2975 2850 2975 3272 
Q 2975 3691 2734 3919 
Q 2494 4147 2053 4147 
L 1259 4147 
z
M 628 4666 
L 2053 4666 
Q 2838 4666 3239 4311 
Q 3641 3956 3641 3272 
Q 3641 2581 3239 2228 
Q 2838 1875 2053 1875 
L 1259 1875 
L 1259 0 
L 628 0 
L 628 4666 
z
" transform="scale(0.015625)"/>
       <path id="DejaVuSans-55" d="M 556 4666 
L 1191 4666 
L 1191 1831 
Q 1191 1081 1462 751 
Q 1734 422 2344 422 
Q 2950 422 3222 751 
Q 3494 1081 3494 1831 
L 3494 4666 
L 4128 4666 
L 4128 1753 
Q 4128 841 3676 375 
Q 3225 -91 2344 -91 
Q 1459 -91 1007 375 
Q 556 841 556 1753 
L 556 4666 
z
" transform="scale(0.015625)"/>
      </defs>
      <use xlink:href="#DejaVuSans-43"/>
      <use xlink:href="#DejaVuSans-50" x="69.824219"/>
      <use xlink:href="#DejaVuSans-55" x="130.126953"/>
      <use xlink:href="#DejaVuSans-20" x="203.320312"/>
      <use xlink:href="#DejaVuSans-74" x="235.107422"/>
      <use xlink:href="#DejaVuSans-69" x="274.316406"/>
      <use xlink:href="#DejaVuSans-6d" x="302.099609"/>
      <use xlink:href="#DejaVuSans-65" x="399.511719"/>
      <use xlink:href="#DejaVuSans-20" x="461.035156"/>
      <use xlink:href="#DejaVuSans-28" x="492.822266"/>
      <use xlink:href="#DejaVuSans-73" x="531.835938"/>
      <use xlink:href="#DejaVuSans-29" x="583.935547"/>
     </g>
    </g>
   </g>
   <g id="PolyCollection_13">
    <defs>
     <path id="m8810fcfda5" d="M 571.412898 -56.72213 
L 571.412898 -55.943125 
L 580.599501 -56.977336 
L 589.786103 -58.347219 
L 598.972706 -59.853438 
L 608.159309 -61.6732 
L 617.345912 -63.642161 
L 626.532515 -65.664866 
L 635.719118 -68.419338 
L 644.905721 -72.163619 
L 654.092324 -74.246632 
L 663.278926 -78.631127 
L 672.465529 -81.447167 
L 681.652132 -82.342529 
L 690.838735 -88.063556 
L 700.025338 -93.120653 
L 709.211941 -96.162832 
L 718.398544 -100.852858 
L 727.585147 -100.76454 
L 736.771749 -113.038209 
L 745.958352 -113.987958 
L 745.958352 -225.16086 
L 745.958352 -225.16086 
L 736.771749 -225.204127 
L 727.585147 -202.414822 
L 718.398544 -193.153886 
L 709.211941 -181.578429 
L 700.025338 -172.842608 
L 690.838735 -156.201123 
L 681.652132 -138.33531 
L 672.465529 -129.969533 
L 663.278926 -125.427342 
L 654.092324 -111.558867 
L 644.905721 -102.334728 
L 635.719118 -95.170546 
L 626.532515 -86.679124 
L 617.345912 -79.069018 
L 608.159309 -72.519556 
L 598.972706 -67.102526 
L 589.786103 -62.843699 
L 580.599501 -58.945872 
L 571.412898 -56.72213 
z
" style="stroke: #1f77b4; stroke-opacity: 0.2"/>
    </defs>
    <g clip-path="url(#pfef233f160)">
     <use xlink:href="#m8810fcfda5" x="0" y="280.142031" style="fill: #1f77b4; fill-opacity: 0.2; stroke: #1f77b4; stroke-opacity: 0.2"/>
    </g>
   </g>
   <g id="PolyCollection_14">
    <defs>
     <path id="md426345849" d="M 571.412898 -56.806898 
L 571.412898 -56.005858 
L 580.599501 -56.924007 
L 589.786103 -58.314398 
L 598.972706 -59.72913 
L 608.159309 -61.392472 
L 617.345912 -63.034282 
L 626.532515 -64.561638 
L 635.719118 -67.166931 
L 644.905721 -69.511452 
L 654.092324 -72.657414 
L 663.278926 -74.471174 
L 672.465529 -79.838329 
L 681.652132 -82.797076 
L 690.838735 -83.237225 
L 700.025338 -86.655438 
L 709.211941 -92.648692 
L 718.398544 -93.250423 
L 727.585147 -99.618492 
L 736.771749 -103.629336 
L 745.958352 -111.301512 
L 745.958352 -231.220529 
L 745.958352 -231.220529 
L 736.771749 -208.89603 
L 727.585147 -204.055703 
L 718.398544 -191.996661 
L 709.211941 -175.149393 
L 700.025338 -158.341533 
L 690.838735 -144.895269 
L 681.652132 -136.593633 
L 672.465529 -125.861011 
L 663.278926 -111.678875 
L 654.092324 -108.036773 
L 644.905721 -97.35876 
L 635.719118 -92.834585 
L 626.532515 -83.320018 
L 617.345912 -77.360928 
L 608.159309 -71.022834 
L 598.972706 -66.732301 
L 589.786103 -62.670534 
L 580.599501 -58.921905 
L 571.412898 -56.806898 
z
" style="stroke: #ff7f0e; stroke-opacity: 0.2"/>
    </defs>
    <g clip-path="url(#pfef233f160)">
     <use xlink:href="#md426345849" x="0" y="280.142031" style="fill: #ff7f0e; fill-opacity: 0.2; stroke: #ff7f0e; stroke-opacity: 0.2"/>
    </g>
   </g>
   <g id="PolyCollection_15">
    <defs>
     <path id="m0c1468758a" d="M 571.412898 -56.916975 
L 571.412898 -56.006425 
L 580.599501 -57.108715 
L 589.786103 -58.232932 
L 598.972706 -59.800237 
L 608.159309 -61.05856 
L 617.345912 -62.73421 
L 626.532515 -65.0179 
L 635.719118 -67.208501 
L 644.905721 -68.484478 
L 654.092324 -70.943062 
L 663.278926 -73.664985 
L 672.465529 -75.525664 
L 681.652132 -81.394701 
L 690.838735 -82.136978 
L 700.025338 -88.666043 
L 709.211941 -91.397035 
L 718.398544 -93.114207 
L 727.585147 -94.69957 
L 736.771749 -103.9165 
L 745.958352 -106.447808 
L 745.958352 -216.581852 
L 745.958352 -216.581852 
L 736.771749 -200.949391 
L 727.585147 -185.924986 
L 718.398544 -179.383802 
L 709.211941 -171.300256 
L 700.025338 -152.563834 
L 690.838735 -139.003967 
L 681.652132 -133.808838 
L 672.465529 -118.603396 
L 663.278926 -113.695963 
L 654.092324 -101.712099 
L 644.905721 -94.656804 
L 635.719118 -87.725224 
L 626.532515 -81.743334 
L 617.345912 -75.318097 
L 608.159309 -70.070569 
L 598.972706 -66.97947 
L 589.786103 -62.461327 
L 580.599501 -59.659189 
L 571.412898 -56.916975 
z
" style="stroke: #2ca02c; stroke-opacity: 0.2"/>
    </defs>
    <g clip-path="url(#pfef233f160)">
     <use xlink:href="#m0c1468758a" x="0" y="280.142031" style="fill: #2ca02c; fill-opacity: 0.2; stroke: #2ca02c; stroke-opacity: 0.2"/>
    </g>
   </g>
   <g id="PolyCollection_16">
    <defs>
     <path id="m051fb2e463" d="M 571.412898 -163.207361 
L 571.412898 -134.112496 
L 580.599501 -135.061078 
L 589.786103 -136.541774 
L 598.972706 -139.286046 
L 608.159309 -141.03349 
L 617.345912 -142.81781 
L 626.532515 -146.875626 
L 635.719118 -148.057528 
L 644.905721 -150.318587 
L 654.092324 -153.611297 
L 663.278926 -155.98134 
L 672.465529 -163.520217 
L 681.652132 -166.899125 
L 690.838735 -170.248079 
L 700.025338 -173.34356 
L 709.211941 -180.360476 
L 718.398544 -185.449056 
L 727.585147 -192.019418 
L 736.771749 -194.715634 
L 745.958352 -200.742049 
L 745.958352 -247.922534 
L 745.958352 -247.922534 
L 736.771749 -241.327305 
L 727.585147 -234.937111 
L 718.398544 -222.999195 
L 709.211941 -219.885345 
L 700.025338 -209.451519 
L 690.838735 -207.916896 
L 681.652132 -200.545693 
L 672.465529 -199.020927 
L 663.278926 -191.061697 
L 654.092324 -185.235637 
L 644.905721 -181.735015 
L 635.719118 -179.099149 
L 626.532515 -177.061054 
L 617.345912 -171.897288 
L 608.159309 -173.320415 
L 598.972706 -167.495335 
L 589.786103 -166.171708 
L 580.599501 -163.390125 
L 571.412898 -163.207361 
z
" style="stroke: #1f77b4; stroke-opacity: 0.2"/>
    </defs>
    <g clip-path="url(#pfef233f160)">
     <use xlink:href="#m051fb2e463" x="0" y="280.142031" style="fill: #1f77b4; fill-opacity: 0.2; stroke: #1f77b4; stroke-opacity: 0.2"/>
    </g>
   </g>
   <g id="PolyCollection_17">
    <defs>
     <path id="m9f3d47d631" d="M 571.412898 -171.529031 
L 571.412898 -139.610725 
L 580.599501 -142.990456 
L 589.786103 -144.522168 
L 598.972706 -147.545202 
L 608.159309 -152.406614 
L 617.345912 -150.970973 
L 626.532515 -151.23855 
L 635.719118 -155.729645 
L 644.905721 -158.105843 
L 654.092324 -160.477996 
L 663.278926 -164.838269 
L 672.465529 -168.508045 
L 681.652132 -171.289778 
L 690.838735 -174.164956 
L 700.025338 -183.123415 
L 709.211941 -183.592577 
L 718.398544 -189.765126 
L 727.585147 -192.548266 
L 736.771749 -199.635911 
L 745.958352 -205.082491 
L 745.958352 -252.456176 
L 745.958352 -252.456176 
L 736.771749 -245.232065 
L 727.585147 -237.811113 
L 718.398544 -235.93685 
L 709.211941 -227.952458 
L 700.025338 -223.431573 
L 690.838735 -214.897953 
L 681.652132 -209.443617 
L 672.465529 -207.625324 
L 663.278926 -203.494294 
L 654.092324 -195.252067 
L 644.905721 -198.652126 
L 635.719118 -191.939391 
L 626.532515 -185.355807 
L 617.345912 -183.430293 
L 608.159309 -186.826779 
L 598.972706 -178.442909 
L 589.786103 -176.641652 
L 580.599501 -177.136526 
L 571.412898 -171.529031 
z
" style="stroke: #ff7f0e; stroke-opacity: 0.2"/>
    </defs>
    <g clip-path="url(#pfef233f160)">
     <use xlink:href="#m9f3d47d631" x="0" y="280.142031" style="fill: #ff7f0e; fill-opacity: 0.2; stroke: #ff7f0e; stroke-opacity: 0.2"/>
    </g>
   </g>
   <g id="PolyCollection_18">
    <defs>
     <path id="me3902bf4f4" d="M 571.412898 -178.269828 
L 571.412898 -145.569722 
L 580.599501 -147.622101 
L 589.786103 -150.188631 
L 598.972706 -151.65766 
L 608.159309 -151.86037 
L 617.345912 -151.611159 
L 626.532515 -155.517425 
L 635.719118 -155.177043 
L 644.905721 -161.304811 
L 654.092324 -158.441247 
L 663.278926 -164.678943 
L 672.465529 -168.447369 
L 681.652132 -173.587763 
L 690.838735 -176.895415 
L 700.025338 -182.054789 
L 709.211941 -186.723014 
L 718.398544 -188.811644 
L 727.585147 -198.226844 
L 736.771749 -196.716886 
L 745.958352 -205.570802 
L 745.958352 -257.543125 
L 745.958352 -257.543125 
L 736.771749 -242.960803 
L 727.585147 -246.11369 
L 718.398544 -232.267471 
L 709.211941 -229.457713 
L 700.025338 -225.86636 
L 690.838735 -219.833118 
L 681.652132 -215.683849 
L 672.465529 -212.245241 
L 663.278926 -206.147972 
L 654.092324 -198.258554 
L 644.905721 -199.840653 
L 635.719118 -192.707361 
L 626.532515 -189.89366 
L 617.345912 -191.160955 
L 608.159309 -187.386603 
L 598.972706 -186.996474 
L 589.786103 -184.887328 
L 580.599501 -181.264438 
L 571.412898 -178.269828 
z
" style="stroke: #2ca02c; stroke-opacity: 0.2"/>
    </defs>
    <g clip-path="url(#pfef233f160)">
     <use xlink:href="#me3902bf4f4" x="0" y="280.142031" style="fill: #2ca02c; fill-opacity: 0.2; stroke: #2ca02c; stroke-opacity: 0.2"/>
    </g>
   </g>
   <g id="line2d_74">
    <path d="M 571.412898 223.829375 
L 580.599501 222.261988 
L 589.786103 219.803726 
L 598.972706 216.611693 
L 608.159309 213.585884 
L 617.345912 209.338325 
L 626.532515 204.77616 
L 635.719118 198.513161 
L 644.905721 195.070103 
L 654.092324 188.87249 
L 663.278926 180.316693 
L 672.465529 176.099471 
L 681.652132 170.947485 
L 690.838735 160.711803 
L 700.025338 153.315862 
L 709.211941 143.561042 
L 718.398544 137.587349 
L 727.585147 130.89678 
L 736.771749 117.752078 
L 745.958352 114.246004 
" clip-path="url(#pfef233f160)" style="fill: none; stroke-dasharray: 7.4,3.2; stroke-dashoffset: 0; stroke: #1f77b4; stroke-width: 2"/>
   </g>
   <g id="line2d_75">
    <path d="M 571.412898 223.747151 
L 580.599501 222.245808 
L 589.786103 219.822199 
L 598.972706 217.283047 
L 608.159309 214.332098 
L 617.345912 210.715863 
L 626.532515 206.833888 
L 635.719118 200.981152 
L 644.905721 198.512325 
L 654.092324 191.379779 
L 663.278926 187.96535 
L 672.465529 180.897784 
L 681.652132 173.161674 
L 690.838735 167.227356 
L 700.025338 158.762207 
L 709.211941 149.125529 
L 718.398544 142.697873 
L 727.585147 133.778865 
L 736.771749 128.259617 
L 745.958352 113.282787 
" clip-path="url(#pfef233f160)" style="fill: none; stroke-dasharray: 7.4,3.2; stroke-dashoffset: 0; stroke: #ff7f0e; stroke-width: 2"/>
   </g>
   <g id="line2d_76">
    <path d="M 571.412898 223.702919 
L 580.599501 221.857963 
L 589.786103 219.967171 
L 598.972706 217.13962 
L 608.159309 214.911514 
L 617.345912 211.509911 
L 626.532515 207.558159 
L 635.719118 203.754144 
L 644.905721 199.570342 
L 654.092324 194.889348 
L 663.278926 187.83099 
L 672.465529 184.017998 
L 681.652132 176.242001 
L 690.838735 171.868109 
L 700.025338 163.306218 
L 709.211941 152.484293 
L 718.398544 146.904106 
L 727.585147 143.423595 
L 736.771749 131.267943 
L 745.958352 122.177103 
" clip-path="url(#pfef233f160)" style="fill: none; stroke-dasharray: 7.4,3.2; stroke-dashoffset: 0; stroke: #2ca02c; stroke-width: 2"/>
   </g>
   <g id="line2d_77"/>
   <g id="line2d_78"/>
   <g id="line2d_79"/>
   <g id="line2d_80">
    <path d="M 571.412898 131.739833 
L 580.599501 130.835142 
L 589.786103 129.589536 
L 598.972706 127.379266 
L 608.159309 123.503795 
L 617.345912 123.310459 
L 626.532515 119.017666 
L 635.719118 116.992367 
L 644.905721 113.950619 
L 654.092324 110.992179 
L 663.278926 106.263273 
L 672.465529 99.338104 
L 681.652132 96.349002 
L 690.838735 91.842772 
L 700.025338 89.531841 
L 709.211941 80.479519 
L 718.398544 77.096845 
L 727.585147 66.774209 
L 736.771749 62.693321 
L 745.958352 55.299034 
" clip-path="url(#pfef233f160)" style="fill: none; stroke: #1f77b4; stroke-width: 2; stroke-linecap: round"/>
   </g>
   <g id="line2d_81">
    <path d="M 571.412898 124.728424 
L 580.599501 120.578434 
L 589.786103 120.011304 
L 598.972706 118.041452 
L 608.159309 111.895697 
L 617.345912 113.140854 
L 626.532515 111.697252 
L 635.719118 107.027478 
L 644.905721 102.899426 
L 654.092324 103.310969 
L 663.278926 96.322233 
L 672.465529 91.467271 
L 681.652132 90.529395 
L 690.838735 86.903633 
L 700.025338 78.354477 
L 709.211941 75.998803 
L 718.398544 69.009756 
L 727.585147 65.672192 
L 736.771749 58.1266 
L 745.958352 52.573714 
" clip-path="url(#pfef233f160)" style="fill: none; stroke: #ff7f0e; stroke-width: 2; stroke-linecap: round"/>
   </g>
   <g id="line2d_82">
    <path d="M 571.412898 117.727137 
L 580.599501 115.704183 
L 589.786103 113.277548 
L 598.972706 110.901598 
L 608.159309 111.417961 
L 617.345912 108.674191 
L 626.532515 109.513189 
L 635.719118 106.878689 
L 644.905721 99.91122 
L 654.092324 102.236168 
L 663.278926 95.121981 
L 672.465529 90.172818 
L 681.652132 84.687851 
L 690.838735 81.374568 
L 700.025338 77.021981 
L 709.211941 72.610787 
L 718.398544 69.256192 
L 727.585147 58.792598 
L 736.771749 59.834199 
L 745.958352 50.111552 
" clip-path="url(#pfef233f160)" style="fill: none; stroke: #2ca02c; stroke-width: 2; stroke-linecap: round"/>
   </g>
   <g id="line2d_83"/>
   <g id="line2d_84"/>
   <g id="line2d_85"/>
   <g id="patch_15">
    <path d="M 562.685625 234.278906 
L 562.685625 12.518906 
" style="fill: none; stroke: #cccccc; stroke-width: 1.25; stroke-linejoin: miter; stroke-linecap: square"/>
   </g>
   <g id="patch_16">
    <path d="M 754.685625 234.278906 
L 754.685625 12.518906 
" style="fill: none; stroke: #cccccc; stroke-width: 1.25; stroke-linejoin: miter; stroke-linecap: square"/>
   </g>
   <g id="patch_17">
    <path d="M 562.685625 234.278906 
L 754.685625 234.278906 
" style="fill: none; stroke: #cccccc; stroke-width: 1.25; stroke-linejoin: miter; stroke-linecap: square"/>
   </g>
   <g id="patch_18">
    <path d="M 562.685625 12.518906 
L 754.685625 12.518906 
" style="fill: none; stroke: #cccccc; stroke-width: 1.25; stroke-linejoin: miter; stroke-linecap: square"/>
   </g>
   <g id="legend_3">
    <g id="patch_19">
     <path d="M 570.385625 135.642031 
L 631.275625 135.642031 
Q 633.475625 135.642031 633.475625 133.442031 
L 633.475625 20.218906 
Q 633.475625 18.018906 631.275625 18.018906 
L 570.385625 18.018906 
Q 568.185625 18.018906 568.185625 20.218906 
L 568.185625 133.442031 
Q 568.185625 135.642031 570.385625 135.642031 
z
" style="fill: #ffffff; opacity: 0.8; stroke: #cccccc; stroke-linejoin: miter"/>
    </g>
    <g id="text_59">
     <!-- noise_std -->
     <g style="fill: #262626" transform="translate(572.585625 31.537031) scale(0.12 -0.12)">
      <use xlink:href="#DejaVuSans-6e"/>
      <use xlink:href="#DejaVuSans-6f" x="63.378906"/>
      <use xlink:href="#DejaVuSans-69" x="124.560547"/>
      <use xlink:href="#DejaVuSans-73" x="152.34375"/>
      <use xlink:href="#DejaVuSans-65" x="204.443359"/>
      <use xlink:href="#DejaVuSans-5f" x="265.966797"/>
      <use xlink:href="#DejaVuSans-73" x="315.966797"/>
      <use xlink:href="#DejaVuSans-74" x="368.066406"/>
      <use xlink:href="#DejaVuSans-64" x="407.275391"/>
     </g>
    </g>
    <g id="line2d_86">
     <path d="M 576.683906 44.374687 
L 587.683906 44.374687 
L 598.683906 44.374687 
" style="fill: none; stroke-dasharray: 7.4,3.2; stroke-dashoffset: 0; stroke: #1f77b4; stroke-width: 2"/>
    </g>
    <g id="text_60">
     <!-- 0.1 -->
     <g style="fill: #262626" transform="translate(607.483906 48.224687) scale(0.11 -0.11)">
      <use xlink:href="#DejaVuSans-30"/>
      <use xlink:href="#DejaVuSans-2e" x="63.623047"/>
      <use xlink:href="#DejaVuSans-31" x="95.410156"/>
     </g>
    </g>
    <g id="line2d_87">
     <path d="M 576.683906 60.520625 
L 587.683906 60.520625 
L 598.683906 60.520625 
" style="fill: none; stroke-dasharray: 7.4,3.2; stroke-dashoffset: 0; stroke: #ff7f0e; stroke-width: 2"/>
    </g>
    <g id="text_61">
     <!-- 0.3 -->
     <g style="fill: #262626" transform="translate(607.483906 64.370625) scale(0.11 -0.11)">
      <use xlink:href="#DejaVuSans-30"/>
      <use xlink:href="#DejaVuSans-2e" x="63.623047"/>
      <use xlink:href="#DejaVuSans-33" x="95.410156"/>
     </g>
    </g>
    <g id="line2d_88">
     <path d="M 576.683906 76.666562 
L 587.683906 76.666562 
L 598.683906 76.666562 
" style="fill: none; stroke-dasharray: 7.4,3.2; stroke-dashoffset: 0; stroke: #2ca02c; stroke-width: 2"/>
    </g>
    <g id="text_62">
     <!-- 0.5 -->
     <g style="fill: #262626" transform="translate(607.483906 80.516562) scale(0.11 -0.11)">
      <use xlink:href="#DejaVuSans-30"/>
      <use xlink:href="#DejaVuSans-2e" x="63.623047"/>
      <use xlink:href="#DejaVuSans-35" x="95.410156"/>
     </g>
    </g>
    <g id="line2d_89">
     <path d="M 576.683906 92.8125 
L 587.683906 92.8125 
L 598.683906 92.8125 
" style="fill: none; stroke: #1f77b4; stroke-width: 2; stroke-linecap: round"/>
    </g>
    <g id="text_63">
     <!-- 0.1 -->
     <g style="fill: #262626" transform="translate(607.483906 96.6625) scale(0.11 -0.11)">
      <use xlink:href="#DejaVuSans-30"/>
      <use xlink:href="#DejaVuSans-2e" x="63.623047"/>
      <use xlink:href="#DejaVuSans-31" x="95.410156"/>
     </g>
    </g>
    <g id="line2d_90">
     <path d="M 576.683906 108.958438 
L 587.683906 108.958438 
L 598.683906 108.958438 
" style="fill: none; stroke: #ff7f0e; stroke-width: 2; stroke-linecap: round"/>
    </g>
    <g id="text_64">
     <!-- 0.3 -->
     <g style="fill: #262626" transform="translate(607.483906 112.808437) scale(0.11 -0.11)">
      <use xlink:href="#DejaVuSans-30"/>
      <use xlink:href="#DejaVuSans-2e" x="63.623047"/>
      <use xlink:href="#DejaVuSans-33" x="95.410156"/>
     </g>
    </g>
    <g id="line2d_91">
     <path d="M 576.683906 125.104375 
L 587.683906 125.104375 
L 598.683906 125.104375 
" style="fill: none; stroke: #2ca02c; stroke-width: 2; stroke-linecap: round"/>
    </g>
    <g id="text_65">
     <!-- 0.5 -->
     <g style="fill: #262626" transform="translate(607.483906 128.954375) scale(0.11 -0.11)">
      <use xlink:href="#DejaVuSans-30"/>
      <use xlink:href="#DejaVuSans-2e" x="63.623047"/>
      <use xlink:href="#DejaVuSans-35" x="95.410156"/>
     </g>
    </g>
   </g>
  </g>
 </g>
 <defs>
  <clipPath id="p0ebe503a9d">
   <rect x="63.485625" y="12.518906" width="192" height="221.76"/>
  </clipPath>
  <clipPath id="p9a4ec50de1">
   <rect x="313.085625" y="12.518906" width="192" height="221.76"/>
  </clipPath>
  <clipPath id="pfef233f160">
   <rect x="562.685625" y="12.518906" width="192" height="221.76"/>
  </clipPath>
 </defs>
</svg>
