<?xml version="1.0" encoding="utf-8" standalone="no"?>
<!DOCTYPE svg PUBLIC "-//W3C//DTD SVG 1.1//EN"
  "http://www.w3.org/Graphics/SVG/1.1/DTD/svg11.dtd">
<svg xmlns:xlink="http://www.w3.org/1999/xlink" width="766.519602pt" height="280.142031pt" viewBox="0 0 766.519602 280.142031" xmlns="http://www.w3.org/2000/svg" version="1.1">
 <metadata>
  <rdf:RDF xmlns:dc="http://purl.org/dc/elements/1.1/" xmlns:cc="http://creativecommons.org/ns#" xmlns:rdf="http://www.w3.org/1999/02/22-rdf-syntax-ns#">
   <cc:Work>
    <dc:type rdf:resource="http://purl.org/dc/dcmitype/StillImage"/>
    <dc:date>2024-05-10T17:50:46.545198</dc:date>
    <dc:format>image/svg+xml</dc:format>
    <dc:creator>
     <cc:Agent>
      <dc:title>Matplotlib v3.8.2, https://matplotlib.org/</dc:title>
     </cc:Agent>
    </dc:creator>
   </cc:Work>
  </rdf:RDF>
 </metadata>
 <defs>
  <style type="text/css">*{stroke-linejoin: round; stroke-linecap: butt}</style>
 </defs>
 <g id="figure_1">
  <g id="patch_1">
   <path d="M 0 280.142031 
L 766.519602 280.142031 
L 766.519602 0 
L 0 0 
z
" style="fill: #ffffff"/>
  </g>
  <g id="axes_1">
   <g id="patch_2">
    <path d="M 63.485625 234.278906 
L 255.485625 234.278906 
L 255.485625 12.518906 
L 63.485625 12.518906 
z
" style="fill: #ffffff"/>
   </g>
   <g id="matplotlib.axis_1">
    <g id="xtick_1">
     <g id="line2d_1">
      <path d="M 72.212898 234.278906 
L 72.212898 12.518906 
" clip-path="url(#pf347b4910f)" style="fill: none; stroke: #cccccc; stroke-linecap: round"/>
     </g>
     <g id="text_1">
      <!-- 5 -->
      <g style="fill: #262626" transform="translate(67.759148 254.416719) scale(0.14 -0.14)">
       <defs>
        <path id="DejaVuSans-35" d="M 691 4666 
L 3169 4666 
L 3169 4134 
L 1269 4134 
L 1269 2991 
Q 1406 3038 1543 3061 
Q 1681 3084 1819 3084 
Q 2600 3084 3056 2656 
Q 3513 2228 3513 1497 
Q 3513 744 3044 326 
Q 2575 -91 1722 -91 
Q 1428 -91 1123 -41 
Q 819 9 494 109 
L 494 744 
Q 775 591 1075 516 
Q 1375 441 1709 441 
Q 2250 441 2565 725 
Q 2881 1009 2881 1497 
Q 2881 1984 2565 2268 
Q 2250 2553 1709 2553 
Q 1456 2553 1204 2497 
Q 953 2441 691 2322 
L 691 4666 
z
" transform="scale(0.015625)"/>
       </defs>
       <use xlink:href="#DejaVuSans-35"/>
      </g>
     </g>
    </g>
    <g id="xtick_2">
     <g id="line2d_2">
      <path d="M 99.772706 234.278906 
L 99.772706 12.518906 
" clip-path="url(#pf347b4910f)" style="fill: none; stroke: #cccccc; stroke-linecap: round"/>
     </g>
     <g id="text_2">
      <!-- 20 -->
      <g style="fill: #262626" transform="translate(90.865206 254.416719) scale(0.14 -0.14)">
       <defs>
        <path id="DejaVuSans-32" d="M 1228 531 
L 3431 531 
L 3431 0 
L 469 0 
L 469 531 
Q 828 903 1448 1529 
Q 2069 2156 2228 2338 
Q 2531 2678 2651 2914 
Q 2772 3150 2772 3378 
Q 2772 3750 2511 3984 
Q 2250 4219 1831 4219 
Q 1534 4219 1204 4116 
Q 875 4013 500 3803 
L 500 4441 
Q 881 4594 1212 4672 
Q 1544 4750 1819 4750 
Q 2544 4750 2975 4387 
Q 3406 4025 3406 3419 
Q 3406 3131 3298 2873 
Q 3191 2616 2906 2266 
Q 2828 2175 2409 1742 
Q 1991 1309 1228 531 
z
" transform="scale(0.015625)"/>
        <path id="DejaVuSans-30" d="M 2034 4250 
Q 1547 4250 1301 3770 
Q 1056 3291 1056 2328 
Q 1056 1369 1301 889 
Q 1547 409 2034 409 
Q 2525 409 2770 889 
Q 3016 1369 3016 2328 
Q 3016 3291 2770 3770 
Q 2525 4250 2034 4250 
z
M 2034 4750 
Q 2819 4750 3233 4129 
Q 3647 3509 3647 2328 
Q 3647 1150 3233 529 
Q 2819 -91 2034 -91 
Q 1250 -91 836 529 
Q 422 1150 422 2328 
Q 422 3509 836 4129 
Q 1250 4750 2034 4750 
z
" transform="scale(0.015625)"/>
       </defs>
       <use xlink:href="#DejaVuSans-32"/>
       <use xlink:href="#DejaVuSans-30" x="63.623047"/>
      </g>
     </g>
    </g>
    <g id="xtick_3">
     <g id="line2d_3">
      <path d="M 136.519118 234.278906 
L 136.519118 12.518906 
" clip-path="url(#pf347b4910f)" style="fill: none; stroke: #cccccc; stroke-linecap: round"/>
     </g>
     <g id="text_3">
      <!-- 40 -->
      <g style="fill: #262626" transform="translate(127.611618 254.416719) scale(0.14 -0.14)">
       <defs>
        <path id="DejaVuSans-34" d="M 2419 4116 
L 825 1625 
L 2419 1625 
L 2419 4116 
z
M 2253 4666 
L 3047 4666 
L 3047 1625 
L 3713 1625 
L 3713 1100 
L 3047 1100 
L 3047 0 
L 2419 0 
L 2419 1100 
L 313 1100 
L 313 1709 
L 2253 4666 
z
" transform="scale(0.015625)"/>
       </defs>
       <use xlink:href="#DejaVuSans-34"/>
       <use xlink:href="#DejaVuSans-30" x="63.623047"/>
      </g>
     </g>
    </g>
    <g id="xtick_4">
     <g id="line2d_4">
      <path d="M 173.265529 234.278906 
L 173.265529 12.518906 
" clip-path="url(#pf347b4910f)" style="fill: none; stroke: #cccccc; stroke-linecap: round"/>
     </g>
     <g id="text_4">
      <!-- 60 -->
      <g style="fill: #262626" transform="translate(164.358029 254.416719) scale(0.14 -0.14)">
       <defs>
        <path id="DejaVuSans-36" d="M 2113 2584 
Q 1688 2584 1439 2293 
Q 1191 2003 1191 1497 
Q 1191 994 1439 701 
Q 1688 409 2113 409 
Q 2538 409 2786 701 
Q 3034 994 3034 1497 
Q 3034 2003 2786 2293 
Q 2538 2584 2113 2584 
z
M 3366 4563 
L 3366 3988 
Q 3128 4100 2886 4159 
Q 2644 4219 2406 4219 
Q 1781 4219 1451 3797 
Q 1122 3375 1075 2522 
Q 1259 2794 1537 2939 
Q 1816 3084 2150 3084 
Q 2853 3084 3261 2657 
Q 3669 2231 3669 1497 
Q 3669 778 3244 343 
Q 2819 -91 2113 -91 
Q 1303 -91 875 529 
Q 447 1150 447 2328 
Q 447 3434 972 4092 
Q 1497 4750 2381 4750 
Q 2619 4750 2861 4703 
Q 3103 4656 3366 4563 
z
" transform="scale(0.015625)"/>
       </defs>
       <use xlink:href="#DejaVuSans-36"/>
       <use xlink:href="#DejaVuSans-30" x="63.623047"/>
      </g>
     </g>
    </g>
    <g id="xtick_5">
     <g id="line2d_5">
      <path d="M 210.011941 234.278906 
L 210.011941 12.518906 
" clip-path="url(#pf347b4910f)" style="fill: none; stroke: #cccccc; stroke-linecap: round"/>
     </g>
     <g id="text_5">
      <!-- 80 -->
      <g style="fill: #262626" transform="translate(201.104441 254.416719) scale(0.14 -0.14)">
       <defs>
        <path id="DejaVuSans-38" d="M 2034 2216 
Q 1584 2216 1326 1975 
Q 1069 1734 1069 1313 
Q 1069 891 1326 650 
Q 1584 409 2034 409 
Q 2484 409 2743 651 
Q 3003 894 3003 1313 
Q 3003 1734 2745 1975 
Q 2488 2216 2034 2216 
z
M 1403 2484 
Q 997 2584 770 2862 
Q 544 3141 544 3541 
Q 544 4100 942 4425 
Q 1341 4750 2034 4750 
Q 2731 4750 3128 4425 
Q 3525 4100 3525 3541 
Q 3525 3141 3298 2862 
Q 3072 2584 2669 2484 
Q 3125 2378 3379 2068 
Q 3634 1759 3634 1313 
Q 3634 634 3220 271 
Q 2806 -91 2034 -91 
Q 1263 -91 848 271 
Q 434 634 434 1313 
Q 434 1759 690 2068 
Q 947 2378 1403 2484 
z
M 1172 3481 
Q 1172 3119 1398 2916 
Q 1625 2713 2034 2713 
Q 2441 2713 2670 2916 
Q 2900 3119 2900 3481 
Q 2900 3844 2670 4047 
Q 2441 4250 2034 4250 
Q 1625 4250 1398 4047 
Q 1172 3844 1172 3481 
z
" transform="scale(0.015625)"/>
       </defs>
       <use xlink:href="#DejaVuSans-38"/>
       <use xlink:href="#DejaVuSans-30" x="63.623047"/>
      </g>
     </g>
    </g>
    <g id="xtick_6">
     <g id="line2d_6">
      <path d="M 246.758352 234.278906 
L 246.758352 12.518906 
" clip-path="url(#pf347b4910f)" style="fill: none; stroke: #cccccc; stroke-linecap: round"/>
     </g>
     <g id="text_6">
      <!-- 100 -->
      <g style="fill: #262626" transform="translate(233.397102 254.416719) scale(0.14 -0.14)">
       <defs>
        <path id="DejaVuSans-31" d="M 794 531 
L 1825 531 
L 1825 4091 
L 703 3866 
L 703 4441 
L 1819 4666 
L 2450 4666 
L 2450 531 
L 3481 531 
L 3481 0 
L 794 0 
L 794 531 
z
" transform="scale(0.015625)"/>
       </defs>
       <use xlink:href="#DejaVuSans-31"/>
       <use xlink:href="#DejaVuSans-30" x="63.623047"/>
       <use xlink:href="#DejaVuSans-30" x="127.246094"/>
      </g>
     </g>
    </g>
    <g id="text_7">
     <!--   -->
     <g style="fill: #262626" transform="translate(157.57875 270.446406) scale(0.12 -0.12)">
      <defs>
       <path id="DejaVuSans-20" transform="scale(0.015625)"/>
      </defs>
      <use xlink:href="#DejaVuSans-20"/>
     </g>
    </g>
   </g>
   <g id="matplotlib.axis_2">
    <g id="ytick_1">
     <g id="line2d_7">
      <path d="M 63.485625 234.278906 
L 255.485625 234.278906 
" clip-path="url(#pf347b4910f)" style="fill: none; stroke: #cccccc; stroke-linecap: round"/>
     </g>
     <g id="text_8">
      <!-- 0.70 -->
      <g style="fill: #262626" transform="translate(22.81375 239.597812) scale(0.14 -0.14)">
       <defs>
        <path id="DejaVuSans-2e" d="M 684 794 
L 1344 794 
L 1344 0 
L 684 0 
L 684 794 
z
" transform="scale(0.015625)"/>
        <path id="DejaVuSans-37" d="M 525 4666 
L 3525 4666 
L 3525 4397 
L 1831 0 
L 1172 0 
L 2766 4134 
L 525 4134 
L 525 4666 
z
" transform="scale(0.015625)"/>
       </defs>
       <use xlink:href="#DejaVuSans-30"/>
       <use xlink:href="#DejaVuSans-2e" x="63.623047"/>
       <use xlink:href="#DejaVuSans-37" x="95.410156"/>
       <use xlink:href="#DejaVuSans-30" x="159.033203"/>
      </g>
     </g>
    </g>
    <g id="ytick_2">
     <g id="line2d_8">
      <path d="M 63.485625 197.318906 
L 255.485625 197.318906 
" clip-path="url(#pf347b4910f)" style="fill: none; stroke: #cccccc; stroke-linecap: round"/>
     </g>
     <g id="text_9">
      <!-- 0.75 -->
      <g style="fill: #262626" transform="translate(22.81375 202.637812) scale(0.14 -0.14)">
       <use xlink:href="#DejaVuSans-30"/>
       <use xlink:href="#DejaVuSans-2e" x="63.623047"/>
       <use xlink:href="#DejaVuSans-37" x="95.410156"/>
       <use xlink:href="#DejaVuSans-35" x="159.033203"/>
      </g>
     </g>
    </g>
    <g id="ytick_3">
     <g id="line2d_9">
      <path d="M 63.485625 160.358906 
L 255.485625 160.358906 
" clip-path="url(#pf347b4910f)" style="fill: none; stroke: #cccccc; stroke-linecap: round"/>
     </g>
     <g id="text_10">
      <!-- 0.80 -->
      <g style="fill: #262626" transform="translate(22.81375 165.677812) scale(0.14 -0.14)">
       <use xlink:href="#DejaVuSans-30"/>
       <use xlink:href="#DejaVuSans-2e" x="63.623047"/>
       <use xlink:href="#DejaVuSans-38" x="95.410156"/>
       <use xlink:href="#DejaVuSans-30" x="159.033203"/>
      </g>
     </g>
    </g>
    <g id="ytick_4">
     <g id="line2d_10">
      <path d="M 63.485625 123.398906 
L 255.485625 123.398906 
" clip-path="url(#pf347b4910f)" style="fill: none; stroke: #cccccc; stroke-linecap: round"/>
     </g>
     <g id="text_11">
      <!-- 0.85 -->
      <g style="fill: #262626" transform="translate(22.81375 128.717812) scale(0.14 -0.14)">
       <use xlink:href="#DejaVuSans-30"/>
       <use xlink:href="#DejaVuSans-2e" x="63.623047"/>
       <use xlink:href="#DejaVuSans-38" x="95.410156"/>
       <use xlink:href="#DejaVuSans-35" x="159.033203"/>
      </g>
     </g>
    </g>
    <g id="ytick_5">
     <g id="line2d_11">
      <path d="M 63.485625 86.438906 
L 255.485625 86.438906 
" clip-path="url(#pf347b4910f)" style="fill: none; stroke: #cccccc; stroke-linecap: round"/>
     </g>
     <g id="text_12">
      <!-- 0.90 -->
      <g style="fill: #262626" transform="translate(22.81375 91.757812) scale(0.14 -0.14)">
       <defs>
        <path id="DejaVuSans-39" d="M 703 97 
L 703 672 
Q 941 559 1184 500 
Q 1428 441 1663 441 
Q 2288 441 2617 861 
Q 2947 1281 2994 2138 
Q 2813 1869 2534 1725 
Q 2256 1581 1919 1581 
Q 1219 1581 811 2004 
Q 403 2428 403 3163 
Q 403 3881 828 4315 
Q 1253 4750 1959 4750 
Q 2769 4750 3195 4129 
Q 3622 3509 3622 2328 
Q 3622 1225 3098 567 
Q 2575 -91 1691 -91 
Q 1453 -91 1209 -44 
Q 966 3 703 97 
z
M 1959 2075 
Q 2384 2075 2632 2365 
Q 2881 2656 2881 3163 
Q 2881 3666 2632 3958 
Q 2384 4250 1959 4250 
Q 1534 4250 1286 3958 
Q 1038 3666 1038 3163 
Q 1038 2656 1286 2365 
Q 1534 2075 1959 2075 
z
" transform="scale(0.015625)"/>
       </defs>
       <use xlink:href="#DejaVuSans-30"/>
       <use xlink:href="#DejaVuSans-2e" x="63.623047"/>
       <use xlink:href="#DejaVuSans-39" x="95.410156"/>
       <use xlink:href="#DejaVuSans-30" x="159.033203"/>
      </g>
     </g>
    </g>
    <g id="ytick_6">
     <g id="line2d_12">
      <path d="M 63.485625 49.478906 
L 255.485625 49.478906 
" clip-path="url(#pf347b4910f)" style="fill: none; stroke: #cccccc; stroke-linecap: round"/>
     </g>
     <g id="text_13">
      <!-- 0.95 -->
      <g style="fill: #262626" transform="translate(22.81375 54.797812) scale(0.14 -0.14)">
       <use xlink:href="#DejaVuSans-30"/>
       <use xlink:href="#DejaVuSans-2e" x="63.623047"/>
       <use xlink:href="#DejaVuSans-39" x="95.410156"/>
       <use xlink:href="#DejaVuSans-35" x="159.033203"/>
      </g>
     </g>
    </g>
    <g id="ytick_7">
     <g id="line2d_13">
      <path d="M 63.485625 12.518906 
L 255.485625 12.518906 
" clip-path="url(#pf347b4910f)" style="fill: none; stroke: #cccccc; stroke-linecap: round"/>
     </g>
     <g id="text_14">
      <!-- 1.00 -->
      <g style="fill: #262626" transform="translate(22.81375 17.837812) scale(0.14 -0.14)">
       <use xlink:href="#DejaVuSans-31"/>
       <use xlink:href="#DejaVuSans-2e" x="63.623047"/>
       <use xlink:href="#DejaVuSans-30" x="95.410156"/>
       <use xlink:href="#DejaVuSans-30" x="159.033203"/>
      </g>
     </g>
    </g>
    <g id="text_15">
     <!-- R2 Score -->
     <g style="fill: #262626" transform="translate(16.318125 150.095156) rotate(-90) scale(0.12 -0.12)">
      <defs>
       <path id="DejaVuSans-52" d="M 2841 2188 
Q 3044 2119 3236 1894 
Q 3428 1669 3622 1275 
L 4263 0 
L 3584 0 
L 2988 1197 
Q 2756 1666 2539 1819 
Q 2322 1972 1947 1972 
L 1259 1972 
L 1259 0 
L 628 0 
L 628 4666 
L 2053 4666 
Q 2853 4666 3247 4331 
Q 3641 3997 3641 3322 
Q 3641 2881 3436 2590 
Q 3231 2300 2841 2188 
z
M 1259 4147 
L 1259 2491 
L 2053 2491 
Q 2509 2491 2742 2702 
Q 2975 2913 2975 3322 
Q 2975 3731 2742 3939 
Q 2509 4147 2053 4147 
L 1259 4147 
z
" transform="scale(0.015625)"/>
       <path id="DejaVuSans-53" d="M 3425 4513 
L 3425 3897 
Q 3066 4069 2747 4153 
Q 2428 4238 2131 4238 
Q 1616 4238 1336 4038 
Q 1056 3838 1056 3469 
Q 1056 3159 1242 3001 
Q 1428 2844 1947 2747 
L 2328 2669 
Q 3034 2534 3370 2195 
Q 3706 1856 3706 1288 
Q 3706 609 3251 259 
Q 2797 -91 1919 -91 
Q 1588 -91 1214 -16 
Q 841 59 441 206 
L 441 856 
Q 825 641 1194 531 
Q 1563 422 1919 422 
Q 2459 422 2753 634 
Q 3047 847 3047 1241 
Q 3047 1584 2836 1778 
Q 2625 1972 2144 2069 
L 1759 2144 
Q 1053 2284 737 2584 
Q 422 2884 422 3419 
Q 422 4038 858 4394 
Q 1294 4750 2059 4750 
Q 2388 4750 2728 4690 
Q 3069 4631 3425 4513 
z
" transform="scale(0.015625)"/>
       <path id="DejaVuSans-63" d="M 3122 3366 
L 3122 2828 
Q 2878 2963 2633 3030 
Q 2388 3097 2138 3097 
Q 1578 3097 1268 2742 
Q 959 2388 959 1747 
Q 959 1106 1268 751 
Q 1578 397 2138 397 
Q 2388 397 2633 464 
Q 2878 531 3122 666 
L 3122 134 
Q 2881 22 2623 -34 
Q 2366 -91 2075 -91 
Q 1284 -91 818 406 
Q 353 903 353 1747 
Q 353 2603 823 3093 
Q 1294 3584 2113 3584 
Q 2378 3584 2631 3529 
Q 2884 3475 3122 3366 
z
" transform="scale(0.015625)"/>
       <path id="DejaVuSans-6f" d="M 1959 3097 
Q 1497 3097 1228 2736 
Q 959 2375 959 1747 
Q 959 1119 1226 758 
Q 1494 397 1959 397 
Q 2419 397 2687 759 
Q 2956 1122 2956 1747 
Q 2956 2369 2687 2733 
Q 2419 3097 1959 3097 
z
M 1959 3584 
Q 2709 3584 3137 3096 
Q 3566 2609 3566 1747 
Q 3566 888 3137 398 
Q 2709 -91 1959 -91 
Q 1206 -91 779 398 
Q 353 888 353 1747 
Q 353 2609 779 3096 
Q 1206 3584 1959 3584 
z
" transform="scale(0.015625)"/>
       <path id="DejaVuSans-72" d="M 2631 2963 
Q 2534 3019 2420 3045 
Q 2306 3072 2169 3072 
Q 1681 3072 1420 2755 
Q 1159 2438 1159 1844 
L 1159 0 
L 581 0 
L 581 3500 
L 1159 3500 
L 1159 2956 
Q 1341 3275 1631 3429 
Q 1922 3584 2338 3584 
Q 2397 3584 2469 3576 
Q 2541 3569 2628 3553 
L 2631 2963 
z
" transform="scale(0.015625)"/>
       <path id="DejaVuSans-65" d="M 3597 1894 
L 3597 1613 
L 953 1613 
Q 991 1019 1311 708 
Q 1631 397 2203 397 
Q 2534 397 2845 478 
Q 3156 559 3463 722 
L 3463 178 
Q 3153 47 2828 -22 
Q 2503 -91 2169 -91 
Q 1331 -91 842 396 
Q 353 884 353 1716 
Q 353 2575 817 3079 
Q 1281 3584 2069 3584 
Q 2775 3584 3186 3129 
Q 3597 2675 3597 1894 
z
M 3022 2063 
Q 3016 2534 2758 2815 
Q 2500 3097 2075 3097 
Q 1594 3097 1305 2825 
Q 1016 2553 972 2059 
L 3022 2063 
z
" transform="scale(0.015625)"/>
      </defs>
      <use xlink:href="#DejaVuSans-52"/>
      <use xlink:href="#DejaVuSans-32" x="69.482422"/>
      <use xlink:href="#DejaVuSans-20" x="133.105469"/>
      <use xlink:href="#DejaVuSans-53" x="164.892578"/>
      <use xlink:href="#DejaVuSans-63" x="228.369141"/>
      <use xlink:href="#DejaVuSans-6f" x="283.349609"/>
      <use xlink:href="#DejaVuSans-72" x="344.53125"/>
      <use xlink:href="#DejaVuSans-65" x="383.394531"/>
     </g>
    </g>
   </g>
   <g id="PolyCollection_1">
    <defs>
     <path id="mc47a860dd9" d="M 72.212898 -147.988498 
L 72.212898 -57.286093 
L 81.399501 -180.165542 
L 90.586103 -227.257622 
L 99.772706 -242.028911 
L 108.959309 -248.465626 
L 118.145912 -253.41051 
L 127.332515 -254.559924 
L 136.519118 -256.434722 
L 145.705721 -258.318258 
L 154.892324 -259.306383 
L 164.078926 -259.943968 
L 173.265529 -260.67197 
L 182.452132 -261.558723 
L 191.638735 -262.077445 
L 200.825338 -262.636777 
L 210.011941 -262.899645 
L 219.198544 -262.747004 
L 228.385147 -263.306106 
L 237.571749 -263.725163 
L 246.758352 -263.932957 
L 246.758352 -266.609295 
L 246.758352 -266.609295 
L 237.571749 -266.526714 
L 228.385147 -266.439433 
L 219.198544 -266.212442 
L 210.011941 -266.358094 
L 200.825338 -266.304818 
L 191.638735 -266.0598 
L 182.452132 -266.095133 
L 173.265529 -265.838413 
L 164.078926 -265.286242 
L 154.892324 -265.208221 
L 145.705721 -264.729316 
L 136.519118 -264.415599 
L 127.332515 -263.59764 
L 118.145912 -262.545205 
L 108.959309 -261.203958 
L 99.772706 -258.978221 
L 90.586103 -250.562756 
L 81.399501 -229.084989 
L 72.212898 -147.988498 
z
" style="stroke: #1f77b4; stroke-opacity: 0.2"/>
    </defs>
    <g clip-path="url(#pf347b4910f)">
     <use xlink:href="#mc47a860dd9" x="0" y="280.142031" style="fill: #1f77b4; fill-opacity: 0.2; stroke: #1f77b4; stroke-opacity: 0.2"/>
    </g>
   </g>
   <g id="PolyCollection_2">
    <defs>
     <path id="m5fcb910361" d="M 72.212898 -128.90322 
L 72.212898 -44.390075 
L 81.399501 -166.236543 
L 90.586103 -211.454298 
L 99.772706 -233.192875 
L 108.959309 -239.097716 
L 118.145912 -244.70019 
L 127.332515 -245.763221 
L 136.519118 -248.942436 
L 145.705721 -251.239061 
L 154.892324 -254.093741 
L 164.078926 -253.898491 
L 173.265529 -255.958864 
L 182.452132 -255.402862 
L 191.638735 -257.200445 
L 200.825338 -257.217155 
L 210.011941 -257.656802 
L 219.198544 -258.515152 
L 228.385147 -258.521079 
L 237.571749 -259.497612 
L 246.758352 -260.088312 
L 246.758352 -264.704906 
L 246.758352 -264.704906 
L 237.571749 -264.14456 
L 228.385147 -263.984728 
L 219.198544 -263.885955 
L 210.011941 -263.760278 
L 200.825338 -263.558084 
L 191.638735 -263.019755 
L 182.452132 -262.583101 
L 173.265529 -262.792936 
L 164.078926 -261.871177 
L 154.892324 -262.325566 
L 145.705721 -261.459068 
L 136.519118 -260.264909 
L 127.332515 -258.506742 
L 118.145912 -258.036164 
L 108.959309 -254.987864 
L 99.772706 -252.542488 
L 90.586103 -239.945541 
L 81.399501 -216.444617 
L 72.212898 -128.90322 
z
" style="stroke: #ff7f0e; stroke-opacity: 0.2"/>
    </defs>
    <g clip-path="url(#pf347b4910f)">
     <use xlink:href="#m5fcb910361" x="0" y="280.142031" style="fill: #ff7f0e; fill-opacity: 0.2; stroke: #ff7f0e; stroke-opacity: 0.2"/>
    </g>
   </g>
   <g id="PolyCollection_3">
    <path d="M 72.212898 185.531253 
L 72.212898 325.146792 
L 81.399501 168.064413 
L 90.586103 83.333883 
L 99.772706 68.589197 
L 108.959309 55.349886 
L 118.145912 47.652226 
L 127.332515 44.328082 
L 136.519118 40.860669 
L 145.705721 37.65481 
L 154.892324 38.010046 
L 164.078926 36.029125 
L 173.265529 32.1758 
L 182.452132 30.728103 
L 191.638735 29.387146 
L 200.825338 28.97891 
L 210.011941 27.459419 
L 219.198544 29.598455 
L 228.385147 26.509281 
L 237.571749 26.587244 
L 246.758352 26.246389 
L 246.758352 18.196103 
L 246.758352 18.196103 
L 237.571749 18.574596 
L 228.385147 18.472754 
L 219.198544 19.577607 
L 210.011941 18.81399 
L 200.825338 19.878232 
L 191.638735 19.974462 
L 182.452132 20.227624 
L 173.265529 20.660147 
L 164.078926 22.976099 
L 154.892324 23.284062 
L 145.705721 23.953825 
L 136.519118 24.766765 
L 127.332515 27.201908 
L 118.145912 27.238411 
L 108.959309 32.796419 
L 99.772706 36.901316 
L 90.586103 48.031316 
L 81.399501 79.95434 
L 72.212898 185.531253 
z
" clip-path="url(#pf347b4910f)" style="fill: #2ca02c; fill-opacity: 0.2; stroke: #2ca02c; stroke-opacity: 0.2"/>
   </g>
   <g id="PolyCollection_4">
    <defs>
     <path id="m9ff92e59dd" d="M 72.212898 -209.802847 
L 72.212898 -183.646014 
L 81.399501 -241.427637 
L 90.586103 -252.738634 
L 99.772706 -256.525427 
L 108.959309 -259.023199 
L 118.145912 -260.675421 
L 127.332515 -261.144522 
L 136.519118 -262.214141 
L 145.705721 -262.676048 
L 154.892324 -263.347814 
L 164.078926 -263.687205 
L 173.265529 -263.768096 
L 182.452132 -264.019683 
L 191.638735 -264.329315 
L 200.825338 -264.505508 
L 210.011941 -264.570492 
L 219.198544 -264.74392 
L 228.385147 -264.847746 
L 237.571749 -265.045529 
L 246.758352 -265.091251 
L 246.758352 -265.903959 
L 246.758352 -265.903959 
L 237.571749 -265.864958 
L 228.385147 -265.728347 
L 219.198544 -265.665755 
L 210.011941 -265.540561 
L 200.825338 -265.451237 
L 191.638735 -265.35087 
L 182.452132 -265.139195 
L 173.265529 -265.02953 
L 164.078926 -264.907456 
L 154.892324 -264.7354 
L 145.705721 -264.288558 
L 136.519118 -263.823019 
L 127.332515 -263.248882 
L 118.145912 -262.76948 
L 108.959309 -261.669837 
L 99.772706 -259.866307 
L 90.586103 -257.147182 
L 81.399501 -249.030175 
L 72.212898 -209.802847 
z
" style="stroke: #1f77b4; stroke-opacity: 0.2"/>
    </defs>
    <g clip-path="url(#pf347b4910f)">
     <use xlink:href="#m9ff92e59dd" x="0" y="280.142031" style="fill: #1f77b4; fill-opacity: 0.2; stroke: #1f77b4; stroke-opacity: 0.2"/>
    </g>
   </g>
   <g id="PolyCollection_5">
    <defs>
     <path id="m8498dfa777" d="M 72.212898 -185.788772 
L 72.212898 -154.345644 
L 81.399501 -221.001907 
L 90.586103 -238.648776 
L 99.772706 -245.023856 
L 108.959309 -250.576579 
L 118.145912 -253.009198 
L 127.332515 -254.261021 
L 136.519118 -255.957581 
L 145.705721 -257.066958 
L 154.892324 -258.092763 
L 164.078926 -259.012258 
L 173.265529 -259.140864 
L 182.452132 -259.511552 
L 191.638735 -260.092017 
L 200.825338 -260.351246 
L 210.011941 -260.84075 
L 219.198544 -261.040721 
L 228.385147 -261.436792 
L 237.571749 -261.565411 
L 246.758352 -261.847462 
L 246.758352 -263.243208 
L 246.758352 -263.243208 
L 237.571749 -263.060515 
L 228.385147 -262.939614 
L 219.198544 -262.598033 
L 210.011941 -262.51068 
L 200.825338 -262.130716 
L 191.638735 -261.9437 
L 182.452132 -261.453916 
L 173.265529 -261.30421 
L 164.078926 -261.05022 
L 154.892324 -260.517891 
L 145.705721 -259.705742 
L 136.519118 -258.769057 
L 127.332515 -257.629533 
L 118.145912 -256.88728 
L 108.959309 -254.909989 
L 99.772706 -250.951482 
L 90.586103 -246.848742 
L 81.399501 -234.612933 
L 72.212898 -185.788772 
z
" style="stroke: #ff7f0e; stroke-opacity: 0.2"/>
    </defs>
    <g clip-path="url(#pf347b4910f)">
     <use xlink:href="#m8498dfa777" x="0" y="280.142031" style="fill: #ff7f0e; fill-opacity: 0.2; stroke: #ff7f0e; stroke-opacity: 0.2"/>
    </g>
   </g>
   <g id="PolyCollection_6">
    <path d="M 72.212898 145.076417 
L 72.212898 652.805017 
L 81.399501 94.477469 
L 90.586103 60.793359 
L 99.772706 50.423636 
L 108.959309 41.610993 
L 118.145912 37.413061 
L 127.332515 35.913629 
L 136.519118 33.715852 
L 145.705721 29.981528 
L 154.892324 29.144674 
L 164.078926 27.979461 
L 173.265529 27.556301 
L 182.452132 26.527776 
L 191.638735 25.66765 
L 200.825338 25.3066 
L 210.011941 24.71995 
L 219.198544 24.023553 
L 228.385147 24.129781 
L 237.571749 22.921877 
L 246.758352 22.992078 
L 246.758352 20.471473 
L 246.758352 20.471473 
L 237.571749 20.584045 
L 228.385147 21.366278 
L 219.198544 21.422733 
L 210.011941 21.913228 
L 200.825338 22.404814 
L 191.638735 22.721719 
L 182.452132 23.15351 
L 173.265529 24.067771 
L 164.078926 24.346578 
L 154.892324 25.065288 
L 145.705721 25.762679 
L 136.519118 28.22951 
L 127.332515 30.232653 
L 118.145912 31.073895 
L 108.959309 34.376996 
L 99.772706 40.076767 
L 90.586103 47.199001 
L 81.399501 70.245815 
L 72.212898 145.076417 
z
" clip-path="url(#pf347b4910f)" style="fill: #2ca02c; fill-opacity: 0.2; stroke: #2ca02c; stroke-opacity: 0.2"/>
   </g>
   <g id="line2d_14">
    <path d="M 72.212898 176.756866 
L 81.399501 72.758722 
L 90.586103 40.681404 
L 99.772706 28.827188 
L 108.959309 24.905338 
L 118.145912 21.679922 
L 127.332515 20.830724 
L 136.519118 19.371977 
L 145.705721 18.274502 
L 154.892324 17.681074 
L 164.078926 17.199267 
L 173.265529 16.580829 
L 182.452132 16.176811 
L 191.638735 15.851154 
L 200.825338 15.482833 
L 210.011941 15.339036 
L 219.198544 15.444571 
L 228.385147 15.094746 
L 237.571749 14.898829 
L 246.758352 14.758846 
" clip-path="url(#pf347b4910f)" style="fill: none; stroke-dasharray: 7.4,3.2; stroke-dashoffset: 0; stroke: #1f77b4; stroke-width: 2"/>
   </g>
   <g id="line2d_15">
    <path d="M 72.212898 192.025419 
L 81.399501 88.57759 
L 90.586103 53.099299 
L 99.772706 37.052664 
L 108.959309 32.483585 
L 118.145912 28.271113 
L 127.332515 27.491468 
L 136.519118 25.36567 
L 145.705721 23.572035 
L 154.892324 21.795103 
L 164.078926 22.040385 
L 173.265529 20.640161 
L 182.452132 20.930087 
L 191.638735 19.87729 
L 200.825338 19.400477 
L 210.011941 19.078051 
L 219.198544 18.673118 
L 228.385147 18.650099 
L 237.571749 18.174694 
L 246.758352 17.659785 
" clip-path="url(#pf347b4910f)" style="fill: none; stroke-dasharray: 7.4,3.2; stroke-dashoffset: 0; stroke: #ff7f0e; stroke-width: 2"/>
   </g>
   <g id="line2d_16">
    <path d="M 72.212898 251.599423 
L 81.399501 121.01693 
L 90.586103 64.955162 
L 99.772706 51.421292 
L 108.959309 43.526102 
L 118.145912 36.990467 
L 127.332515 35.042255 
L 136.519118 32.186757 
L 145.705721 30.394792 
L 154.892324 29.921527 
L 164.078926 29.271059 
L 173.265529 26.38764 
L 182.452132 25.29554 
L 191.638735 24.332845 
L 200.825338 24.015997 
L 210.011941 23.005092 
L 219.198544 24.349991 
L 228.385147 22.387445 
L 237.571749 22.398023 
L 246.758352 21.980934 
" clip-path="url(#pf347b4910f)" style="fill: none; stroke-dasharray: 7.4,3.2; stroke-dashoffset: 0; stroke: #2ca02c; stroke-width: 2"/>
   </g>
   <g id="line2d_17"/>
   <g id="line2d_18"/>
   <g id="line2d_19"/>
   <g id="line2d_20">
    <path d="M 72.212898 82.889337 
L 81.399501 34.852977 
L 90.586103 25.241949 
L 99.772706 21.880014 
L 108.959309 19.805028 
L 118.145912 18.428465 
L 127.332515 17.920358 
L 136.519118 17.110457 
L 145.705721 16.622916 
L 154.892324 16.073792 
L 164.078926 15.831944 
L 173.265529 15.720041 
L 182.452132 15.553787 
L 191.638735 15.297461 
L 200.825338 15.171461 
L 210.011941 15.03864 
L 219.198544 14.894634 
L 228.385147 14.829724 
L 237.571749 14.67334 
L 246.758352 14.633551 
" clip-path="url(#pf347b4910f)" style="fill: none; stroke: #1f77b4; stroke-width: 2; stroke-linecap: round"/>
   </g>
   <g id="line2d_21">
    <path d="M 72.212898 109.797161 
L 81.399501 52.190262 
L 90.586103 37.449038 
L 99.772706 32.071517 
L 108.959309 27.392143 
L 118.145912 25.156407 
L 127.332515 24.130959 
L 136.519118 22.735352 
L 145.705721 21.719431 
L 154.892324 20.820829 
L 164.078926 20.113732 
L 173.265529 19.938506 
L 182.452132 19.633744 
L 191.638735 19.056706 
L 200.825338 18.893847 
L 210.011941 18.508719 
L 219.198544 18.293441 
L 228.385147 17.957986 
L 237.571749 17.819271 
L 246.758352 17.588964 
" clip-path="url(#pf347b4910f)" style="fill: none; stroke: #ff7f0e; stroke-width: 2; stroke-linecap: round"/>
   </g>
   <g id="line2d_22">
    <path d="M 73.862962 281.142031 
L 81.399501 82.461371 
L 90.586103 53.618655 
L 99.772706 44.842671 
L 108.959309 37.893965 
L 118.145912 34.23789 
L 127.332515 33.041454 
L 136.519118 31.01527 
L 145.705721 27.946702 
L 154.892324 27.145574 
L 164.078926 26.096691 
L 173.265529 25.786822 
L 182.452132 24.797284 
L 191.638735 24.1234 
L 200.825338 23.736603 
L 210.011941 23.323863 
L 219.198544 22.717603 
L 228.385147 22.679455 
L 237.571749 21.791447 
L 246.758352 21.699499 
" clip-path="url(#pf347b4910f)" style="fill: none; stroke: #2ca02c; stroke-width: 2; stroke-linecap: round"/>
   </g>
   <g id="line2d_23"/>
   <g id="line2d_24"/>
   <g id="line2d_25"/>
   <g id="patch_3">
    <path d="M 63.485625 234.278906 
L 63.485625 12.518906 
" style="fill: none; stroke: #cccccc; stroke-width: 1.25; stroke-linejoin: miter; stroke-linecap: square"/>
   </g>
   <g id="patch_4">
    <path d="M 255.485625 234.278906 
L 255.485625 12.518906 
" style="fill: none; stroke: #cccccc; stroke-width: 1.25; stroke-linejoin: miter; stroke-linecap: square"/>
   </g>
   <g id="patch_5">
    <path d="M 63.485625 234.278906 
L 255.485625 234.278906 
" style="fill: none; stroke: #cccccc; stroke-width: 1.25; stroke-linejoin: miter; stroke-linecap: square"/>
   </g>
   <g id="patch_6">
    <path d="M 63.485625 12.518906 
L 255.485625 12.518906 
" style="fill: none; stroke: #cccccc; stroke-width: 1.25; stroke-linejoin: miter; stroke-linecap: square"/>
   </g>
   <g id="text_16">
    <!-- number of HF samples (d) -->
    <g style="fill: #262626" transform="translate(317.826406 267.542906) scale(0.14 -0.14)">
     <defs>
      <path id="DejaVuSans-6e" d="M 3513 2113 
L 3513 0 
L 2938 0 
L 2938 2094 
Q 2938 2591 2744 2837 
Q 2550 3084 2163 3084 
Q 1697 3084 1428 2787 
Q 1159 2491 1159 1978 
L 1159 0 
L 581 0 
L 581 3500 
L 1159 3500 
L 1159 2956 
Q 1366 3272 1645 3428 
Q 1925 3584 2291 3584 
Q 2894 3584 3203 3211 
Q 3513 2838 3513 2113 
z
" transform="scale(0.015625)"/>
      <path id="DejaVuSans-75" d="M 544 1381 
L 544 3500 
L 1119 3500 
L 1119 1403 
Q 1119 906 1312 657 
Q 1506 409 1894 409 
Q 2359 409 2629 706 
Q 2900 1003 2900 1516 
L 2900 3500 
L 3475 3500 
L 3475 0 
L 2900 0 
L 2900 538 
Q 2691 219 2414 64 
Q 2138 -91 1772 -91 
Q 1169 -91 856 284 
Q 544 659 544 1381 
z
M 1991 3584 
L 1991 3584 
z
" transform="scale(0.015625)"/>
      <path id="DejaVuSans-6d" d="M 3328 2828 
Q 3544 3216 3844 3400 
Q 4144 3584 4550 3584 
Q 5097 3584 5394 3201 
Q 5691 2819 5691 2113 
L 5691 0 
L 5113 0 
L 5113 2094 
Q 5113 2597 4934 2840 
Q 4756 3084 4391 3084 
Q 3944 3084 3684 2787 
Q 3425 2491 3425 1978 
L 3425 0 
L 2847 0 
L 2847 2094 
Q 2847 2600 2669 2842 
Q 2491 3084 2119 3084 
Q 1678 3084 1418 2786 
Q 1159 2488 1159 1978 
L 1159 0 
L 581 0 
L 581 3500 
L 1159 3500 
L 1159 2956 
Q 1356 3278 1631 3431 
Q 1906 3584 2284 3584 
Q 2666 3584 2933 3390 
Q 3200 3197 3328 2828 
z
" transform="scale(0.015625)"/>
      <path id="DejaVuSans-62" d="M 3116 1747 
Q 3116 2381 2855 2742 
Q 2594 3103 2138 3103 
Q 1681 3103 1420 2742 
Q 1159 2381 1159 1747 
Q 1159 1113 1420 752 
Q 1681 391 2138 391 
Q 2594 391 2855 752 
Q 3116 1113 3116 1747 
z
M 1159 2969 
Q 1341 3281 1617 3432 
Q 1894 3584 2278 3584 
Q 2916 3584 3314 3078 
Q 3713 2572 3713 1747 
Q 3713 922 3314 415 
Q 2916 -91 2278 -91 
Q 1894 -91 1617 61 
Q 1341 213 1159 525 
L 1159 0 
L 581 0 
L 581 4863 
L 1159 4863 
L 1159 2969 
z
" transform="scale(0.015625)"/>
      <path id="DejaVuSans-66" d="M 2375 4863 
L 2375 4384 
L 1825 4384 
Q 1516 4384 1395 4259 
Q 1275 4134 1275 3809 
L 1275 3500 
L 2222 3500 
L 2222 3053 
L 1275 3053 
L 1275 0 
L 697 0 
L 697 3053 
L 147 3053 
L 147 3500 
L 697 3500 
L 697 3744 
Q 697 4328 969 4595 
Q 1241 4863 1831 4863 
L 2375 4863 
z
" transform="scale(0.015625)"/>
      <path id="DejaVuSans-48" d="M 628 4666 
L 1259 4666 
L 1259 2753 
L 3553 2753 
L 3553 4666 
L 4184 4666 
L 4184 0 
L 3553 0 
L 3553 2222 
L 1259 2222 
L 1259 0 
L 628 0 
L 628 4666 
z
" transform="scale(0.015625)"/>
      <path id="DejaVuSans-46" d="M 628 4666 
L 3309 4666 
L 3309 4134 
L 1259 4134 
L 1259 2759 
L 3109 2759 
L 3109 2228 
L 1259 2228 
L 1259 0 
L 628 0 
L 628 4666 
z
" transform="scale(0.015625)"/>
      <path id="DejaVuSans-73" d="M 2834 3397 
L 2834 2853 
Q 2591 2978 2328 3040 
Q 2066 3103 1784 3103 
Q 1356 3103 1142 2972 
Q 928 2841 928 2578 
Q 928 2378 1081 2264 
Q 1234 2150 1697 2047 
L 1894 2003 
Q 2506 1872 2764 1633 
Q 3022 1394 3022 966 
Q 3022 478 2636 193 
Q 2250 -91 1575 -91 
Q 1294 -91 989 -36 
Q 684 19 347 128 
L 347 722 
Q 666 556 975 473 
Q 1284 391 1588 391 
Q 1994 391 2212 530 
Q 2431 669 2431 922 
Q 2431 1156 2273 1281 
Q 2116 1406 1581 1522 
L 1381 1569 
Q 847 1681 609 1914 
Q 372 2147 372 2553 
Q 372 3047 722 3315 
Q 1072 3584 1716 3584 
Q 2034 3584 2315 3537 
Q 2597 3491 2834 3397 
z
" transform="scale(0.015625)"/>
      <path id="DejaVuSans-61" d="M 2194 1759 
Q 1497 1759 1228 1600 
Q 959 1441 959 1056 
Q 959 750 1161 570 
Q 1363 391 1709 391 
Q 2188 391 2477 730 
Q 2766 1069 2766 1631 
L 2766 1759 
L 2194 1759 
z
M 3341 1997 
L 3341 0 
L 2766 0 
L 2766 531 
Q 2569 213 2275 61 
Q 1981 -91 1556 -91 
Q 1019 -91 701 211 
Q 384 513 384 1019 
Q 384 1609 779 1909 
Q 1175 2209 1959 2209 
L 2766 2209 
L 2766 2266 
Q 2766 2663 2505 2880 
Q 2244 3097 1772 3097 
Q 1472 3097 1187 3025 
Q 903 2953 641 2809 
L 641 3341 
Q 956 3463 1253 3523 
Q 1550 3584 1831 3584 
Q 2591 3584 2966 3190 
Q 3341 2797 3341 1997 
z
" transform="scale(0.015625)"/>
      <path id="DejaVuSans-70" d="M 1159 525 
L 1159 -1331 
L 581 -1331 
L 581 3500 
L 1159 3500 
L 1159 2969 
Q 1341 3281 1617 3432 
Q 1894 3584 2278 3584 
Q 2916 3584 3314 3078 
Q 3713 2572 3713 1747 
Q 3713 922 3314 415 
Q 2916 -91 2278 -91 
Q 1894 -91 1617 61 
Q 1341 213 1159 525 
z
M 3116 1747 
Q 3116 2381 2855 2742 
Q 2594 3103 2138 3103 
Q 1681 3103 1420 2742 
Q 1159 2381 1159 1747 
Q 1159 1113 1420 752 
Q 1681 391 2138 391 
Q 2594 391 2855 752 
Q 3116 1113 3116 1747 
z
" transform="scale(0.015625)"/>
      <path id="DejaVuSans-6c" d="M 603 4863 
L 1178 4863 
L 1178 0 
L 603 0 
L 603 4863 
z
" transform="scale(0.015625)"/>
      <path id="DejaVuSans-28" d="M 1984 4856 
Q 1566 4138 1362 3434 
Q 1159 2731 1159 2009 
Q 1159 1288 1364 580 
Q 1569 -128 1984 -844 
L 1484 -844 
Q 1016 -109 783 600 
Q 550 1309 550 2009 
Q 550 2706 781 3412 
Q 1013 4119 1484 4856 
L 1984 4856 
z
" transform="scale(0.015625)"/>
      <path id="DejaVuSans-64" d="M 2906 2969 
L 2906 4863 
L 3481 4863 
L 3481 0 
L 2906 0 
L 2906 525 
Q 2725 213 2448 61 
Q 2172 -91 1784 -91 
Q 1150 -91 751 415 
Q 353 922 353 1747 
Q 353 2572 751 3078 
Q 1150 3584 1784 3584 
Q 2172 3584 2448 3432 
Q 2725 3281 2906 2969 
z
M 947 1747 
Q 947 1113 1208 752 
Q 1469 391 1925 391 
Q 2381 391 2643 752 
Q 2906 1113 2906 1747 
Q 2906 2381 2643 2742 
Q 2381 3103 1925 3103 
Q 1469 3103 1208 2742 
Q 947 2381 947 1747 
z
" transform="scale(0.015625)"/>
      <path id="DejaVuSans-29" d="M 513 4856 
L 1013 4856 
Q 1481 4119 1714 3412 
Q 1947 2706 1947 2009 
Q 1947 1309 1714 600 
Q 1481 -109 1013 -844 
L 513 -844 
Q 928 -128 1133 580 
Q 1338 1288 1338 2009 
Q 1338 2731 1133 3434 
Q 928 4138 513 4856 
z
" transform="scale(0.015625)"/>
     </defs>
     <use xlink:href="#DejaVuSans-6e"/>
     <use xlink:href="#DejaVuSans-75" x="63.378906"/>
     <use xlink:href="#DejaVuSans-6d" x="126.757812"/>
     <use xlink:href="#DejaVuSans-62" x="224.169922"/>
     <use xlink:href="#DejaVuSans-65" x="287.646484"/>
     <use xlink:href="#DejaVuSans-72" x="349.169922"/>
     <use xlink:href="#DejaVuSans-20" x="390.283203"/>
     <use xlink:href="#DejaVuSans-6f" x="422.070312"/>
     <use xlink:href="#DejaVuSans-66" x="483.251953"/>
     <use xlink:href="#DejaVuSans-20" x="518.457031"/>
     <use xlink:href="#DejaVuSans-48" x="550.244141"/>
     <use xlink:href="#DejaVuSans-46" x="625.439453"/>
     <use xlink:href="#DejaVuSans-20" x="682.958984"/>
     <use xlink:href="#DejaVuSans-73" x="714.746094"/>
     <use xlink:href="#DejaVuSans-61" x="766.845703"/>
     <use xlink:href="#DejaVuSans-6d" x="828.125"/>
     <use xlink:href="#DejaVuSans-70" x="925.537109"/>
     <use xlink:href="#DejaVuSans-6c" x="989.013672"/>
     <use xlink:href="#DejaVuSans-65" x="1016.796875"/>
     <use xlink:href="#DejaVuSans-73" x="1078.320312"/>
     <use xlink:href="#DejaVuSans-20" x="1130.419922"/>
     <use xlink:href="#DejaVuSans-28" x="1162.207031"/>
     <use xlink:href="#DejaVuSans-64" x="1201.220703"/>
     <use xlink:href="#DejaVuSans-29" x="1264.697266"/>
    </g>
   </g>
   <g id="legend_1">
    <g id="patch_7">
     <path d="M 186.895625 228.778906 
L 247.785625 228.778906 
Q 249.985625 228.778906 249.985625 226.578906 
L 249.985625 113.355781 
Q 249.985625 111.155781 247.785625 111.155781 
L 186.895625 111.155781 
Q 184.695625 111.155781 184.695625 113.355781 
L 184.695625 226.578906 
Q 184.695625 228.778906 186.895625 228.778906 
z
" style="fill: #ffffff; opacity: 0.8; stroke: #cccccc; stroke-linejoin: miter"/>
    </g>
    <g id="text_17">
     <!-- noise_std -->
     <g style="fill: #262626" transform="translate(189.095625 124.673906) scale(0.12 -0.12)">
      <defs>
       <path id="DejaVuSans-69" d="M 603 3500 
L 1178 3500 
L 1178 0 
L 603 0 
L 603 3500 
z
M 603 4863 
L 1178 4863 
L 1178 4134 
L 603 4134 
L 603 4863 
z
" transform="scale(0.015625)"/>
       <path id="DejaVuSans-5f" d="M 3263 -1063 
L 3263 -1509 
L -63 -1509 
L -63 -1063 
L 3263 -1063 
z
" transform="scale(0.015625)"/>
       <path id="DejaVuSans-74" d="M 1172 4494 
L 1172 3500 
L 2356 3500 
L 2356 3053 
L 1172 3053 
L 1172 1153 
Q 1172 725 1289 603 
Q 1406 481 1766 481 
L 2356 481 
L 2356 0 
L 1766 0 
Q 1100 0 847 248 
Q 594 497 594 1153 
L 594 3053 
L 172 3053 
L 172 3500 
L 594 3500 
L 594 4494 
L 1172 4494 
z
" transform="scale(0.015625)"/>
      </defs>
      <use xlink:href="#DejaVuSans-6e"/>
      <use xlink:href="#DejaVuSans-6f" x="63.378906"/>
      <use xlink:href="#DejaVuSans-69" x="124.560547"/>
      <use xlink:href="#DejaVuSans-73" x="152.34375"/>
      <use xlink:href="#DejaVuSans-65" x="204.443359"/>
      <use xlink:href="#DejaVuSans-5f" x="265.966797"/>
      <use xlink:href="#DejaVuSans-73" x="315.966797"/>
      <use xlink:href="#DejaVuSans-74" x="368.066406"/>
      <use xlink:href="#DejaVuSans-64" x="407.275391"/>
     </g>
    </g>
    <g id="line2d_26">
     <path d="M 193.193906 137.511562 
L 204.193906 137.511562 
L 215.193906 137.511562 
" style="fill: none; stroke-dasharray: 7.4,3.2; stroke-dashoffset: 0; stroke: #1f77b4; stroke-width: 2"/>
    </g>
    <g id="text_18">
     <!-- 0.1 -->
     <g style="fill: #262626" transform="translate(223.993906 141.361562) scale(0.11 -0.11)">
      <use xlink:href="#DejaVuSans-30"/>
      <use xlink:href="#DejaVuSans-2e" x="63.623047"/>
      <use xlink:href="#DejaVuSans-31" x="95.410156"/>
     </g>
    </g>
    <g id="line2d_27">
     <path d="M 193.193906 153.6575 
L 204.193906 153.6575 
L 215.193906 153.6575 
" style="fill: none; stroke-dasharray: 7.4,3.2; stroke-dashoffset: 0; stroke: #ff7f0e; stroke-width: 2"/>
    </g>
    <g id="text_19">
     <!-- 0.3 -->
     <g style="fill: #262626" transform="translate(223.993906 157.5075) scale(0.11 -0.11)">
      <defs>
       <path id="DejaVuSans-33" d="M 2597 2516 
Q 3050 2419 3304 2112 
Q 3559 1806 3559 1356 
Q 3559 666 3084 287 
Q 2609 -91 1734 -91 
Q 1441 -91 1130 -33 
Q 819 25 488 141 
L 488 750 
Q 750 597 1062 519 
Q 1375 441 1716 441 
Q 2309 441 2620 675 
Q 2931 909 2931 1356 
Q 2931 1769 2642 2001 
Q 2353 2234 1838 2234 
L 1294 2234 
L 1294 2753 
L 1863 2753 
Q 2328 2753 2575 2939 
Q 2822 3125 2822 3475 
Q 2822 3834 2567 4026 
Q 2313 4219 1838 4219 
Q 1578 4219 1281 4162 
Q 984 4106 628 3988 
L 628 4550 
Q 988 4650 1302 4700 
Q 1616 4750 1894 4750 
Q 2613 4750 3031 4423 
Q 3450 4097 3450 3541 
Q 3450 3153 3228 2886 
Q 3006 2619 2597 2516 
z
" transform="scale(0.015625)"/>
      </defs>
      <use xlink:href="#DejaVuSans-30"/>
      <use xlink:href="#DejaVuSans-2e" x="63.623047"/>
      <use xlink:href="#DejaVuSans-33" x="95.410156"/>
     </g>
    </g>
    <g id="line2d_28">
     <path d="M 193.193906 169.803438 
L 204.193906 169.803438 
L 215.193906 169.803438 
" style="fill: none; stroke-dasharray: 7.4,3.2; stroke-dashoffset: 0; stroke: #2ca02c; stroke-width: 2"/>
    </g>
    <g id="text_20">
     <!-- 0.5 -->
     <g style="fill: #262626" transform="translate(223.993906 173.653437) scale(0.11 -0.11)">
      <use xlink:href="#DejaVuSans-30"/>
      <use xlink:href="#DejaVuSans-2e" x="63.623047"/>
      <use xlink:href="#DejaVuSans-35" x="95.410156"/>
     </g>
    </g>
    <g id="line2d_29">
     <path d="M 193.193906 185.949375 
L 204.193906 185.949375 
L 215.193906 185.949375 
" style="fill: none; stroke: #1f77b4; stroke-width: 2; stroke-linecap: round"/>
    </g>
    <g id="text_21">
     <!-- 0.1 -->
     <g style="fill: #262626" transform="translate(223.993906 189.799375) scale(0.11 -0.11)">
      <use xlink:href="#DejaVuSans-30"/>
      <use xlink:href="#DejaVuSans-2e" x="63.623047"/>
      <use xlink:href="#DejaVuSans-31" x="95.410156"/>
     </g>
    </g>
    <g id="line2d_30">
     <path d="M 193.193906 202.095313 
L 204.193906 202.095313 
L 215.193906 202.095313 
" style="fill: none; stroke: #ff7f0e; stroke-width: 2; stroke-linecap: round"/>
    </g>
    <g id="text_22">
     <!-- 0.3 -->
     <g style="fill: #262626" transform="translate(223.993906 205.945312) scale(0.11 -0.11)">
      <use xlink:href="#DejaVuSans-30"/>
      <use xlink:href="#DejaVuSans-2e" x="63.623047"/>
      <use xlink:href="#DejaVuSans-33" x="95.410156"/>
     </g>
    </g>
    <g id="line2d_31">
     <path d="M 193.193906 218.24125 
L 204.193906 218.24125 
L 215.193906 218.24125 
" style="fill: none; stroke: #2ca02c; stroke-width: 2; stroke-linecap: round"/>
    </g>
    <g id="text_23">
     <!-- 0.5 -->
     <g style="fill: #262626" transform="translate(223.993906 222.09125) scale(0.11 -0.11)">
      <use xlink:href="#DejaVuSans-30"/>
      <use xlink:href="#DejaVuSans-2e" x="63.623047"/>
      <use xlink:href="#DejaVuSans-35" x="95.410156"/>
     </g>
    </g>
   </g>
  </g>
  <g id="axes_2">
   <g id="patch_8">
    <path d="M 313.085625 234.278906 
L 505.085625 234.278906 
L 505.085625 12.518906 
L 313.085625 12.518906 
z
" style="fill: #ffffff"/>
   </g>
   <g id="matplotlib.axis_3">
    <g id="xtick_7">
     <g id="line2d_32">
      <path d="M 321.812898 234.278906 
L 321.812898 12.518906 
" clip-path="url(#p2925a449cc)" style="fill: none; stroke: #cccccc; stroke-linecap: round"/>
     </g>
     <g id="text_24">
      <!-- 5 -->
      <g style="fill: #262626" transform="translate(317.359148 254.416719) scale(0.14 -0.14)">
       <use xlink:href="#DejaVuSans-35"/>
      </g>
     </g>
    </g>
    <g id="xtick_8">
     <g id="line2d_33">
      <path d="M 349.372706 234.278906 
L 349.372706 12.518906 
" clip-path="url(#p2925a449cc)" style="fill: none; stroke: #cccccc; stroke-linecap: round"/>
     </g>
     <g id="text_25">
      <!-- 20 -->
      <g style="fill: #262626" transform="translate(340.465206 254.416719) scale(0.14 -0.14)">
       <use xlink:href="#DejaVuSans-32"/>
       <use xlink:href="#DejaVuSans-30" x="63.623047"/>
      </g>
     </g>
    </g>
    <g id="xtick_9">
     <g id="line2d_34">
      <path d="M 386.119118 234.278906 
L 386.119118 12.518906 
" clip-path="url(#p2925a449cc)" style="fill: none; stroke: #cccccc; stroke-linecap: round"/>
     </g>
     <g id="text_26">
      <!-- 40 -->
      <g style="fill: #262626" transform="translate(377.211618 254.416719) scale(0.14 -0.14)">
       <use xlink:href="#DejaVuSans-34"/>
       <use xlink:href="#DejaVuSans-30" x="63.623047"/>
      </g>
     </g>
    </g>
    <g id="xtick_10">
     <g id="line2d_35">
      <path d="M 422.865529 234.278906 
L 422.865529 12.518906 
" clip-path="url(#p2925a449cc)" style="fill: none; stroke: #cccccc; stroke-linecap: round"/>
     </g>
     <g id="text_27">
      <!-- 60 -->
      <g style="fill: #262626" transform="translate(413.958029 254.416719) scale(0.14 -0.14)">
       <use xlink:href="#DejaVuSans-36"/>
       <use xlink:href="#DejaVuSans-30" x="63.623047"/>
      </g>
     </g>
    </g>
    <g id="xtick_11">
     <g id="line2d_36">
      <path d="M 459.611941 234.278906 
L 459.611941 12.518906 
" clip-path="url(#p2925a449cc)" style="fill: none; stroke: #cccccc; stroke-linecap: round"/>
     </g>
     <g id="text_28">
      <!-- 80 -->
      <g style="fill: #262626" transform="translate(450.704441 254.416719) scale(0.14 -0.14)">
       <use xlink:href="#DejaVuSans-38"/>
       <use xlink:href="#DejaVuSans-30" x="63.623047"/>
      </g>
     </g>
    </g>
    <g id="xtick_12">
     <g id="line2d_37">
      <path d="M 496.358352 234.278906 
L 496.358352 12.518906 
" clip-path="url(#p2925a449cc)" style="fill: none; stroke: #cccccc; stroke-linecap: round"/>
     </g>
     <g id="text_29">
      <!-- 100 -->
      <g style="fill: #262626" transform="translate(482.997102 254.416719) scale(0.14 -0.14)">
       <use xlink:href="#DejaVuSans-31"/>
       <use xlink:href="#DejaVuSans-30" x="63.623047"/>
       <use xlink:href="#DejaVuSans-30" x="127.246094"/>
      </g>
     </g>
    </g>
    <g id="text_30">
     <!--   -->
     <g style="fill: #262626" transform="translate(407.17875 270.446406) scale(0.12 -0.12)">
      <use xlink:href="#DejaVuSans-20"/>
     </g>
    </g>
   </g>
   <g id="matplotlib.axis_4">
    <g id="ytick_8">
     <g id="line2d_38">
      <path d="M 313.085625 234.278906 
L 505.085625 234.278906 
" clip-path="url(#p2925a449cc)" style="fill: none; stroke: #cccccc; stroke-linecap: round"/>
     </g>
     <g id="text_31">
      <!-- 0.0 -->
      <g style="fill: #262626" transform="translate(281.32125 239.597813) scale(0.14 -0.14)">
       <use xlink:href="#DejaVuSans-30"/>
       <use xlink:href="#DejaVuSans-2e" x="63.623047"/>
       <use xlink:href="#DejaVuSans-30" x="95.410156"/>
      </g>
     </g>
    </g>
    <g id="ytick_9">
     <g id="line2d_39">
      <path d="M 313.085625 189.926906 
L 505.085625 189.926906 
" clip-path="url(#p2925a449cc)" style="fill: none; stroke: #cccccc; stroke-linecap: round"/>
     </g>
     <g id="text_32">
      <!-- 0.2 -->
      <g style="fill: #262626" transform="translate(281.32125 195.245812) scale(0.14 -0.14)">
       <use xlink:href="#DejaVuSans-30"/>
       <use xlink:href="#DejaVuSans-2e" x="63.623047"/>
       <use xlink:href="#DejaVuSans-32" x="95.410156"/>
      </g>
     </g>
    </g>
    <g id="ytick_10">
     <g id="line2d_40">
      <path d="M 313.085625 145.574906 
L 505.085625 145.574906 
" clip-path="url(#p2925a449cc)" style="fill: none; stroke: #cccccc; stroke-linecap: round"/>
     </g>
     <g id="text_33">
      <!-- 0.4 -->
      <g style="fill: #262626" transform="translate(281.32125 150.893812) scale(0.14 -0.14)">
       <use xlink:href="#DejaVuSans-30"/>
       <use xlink:href="#DejaVuSans-2e" x="63.623047"/>
       <use xlink:href="#DejaVuSans-34" x="95.410156"/>
      </g>
     </g>
    </g>
    <g id="ytick_11">
     <g id="line2d_41">
      <path d="M 313.085625 101.222906 
L 505.085625 101.222906 
" clip-path="url(#p2925a449cc)" style="fill: none; stroke: #cccccc; stroke-linecap: round"/>
     </g>
     <g id="text_34">
      <!-- 0.6 -->
      <g style="fill: #262626" transform="translate(281.32125 106.541812) scale(0.14 -0.14)">
       <use xlink:href="#DejaVuSans-30"/>
       <use xlink:href="#DejaVuSans-2e" x="63.623047"/>
       <use xlink:href="#DejaVuSans-36" x="95.410156"/>
      </g>
     </g>
    </g>
    <g id="ytick_12">
     <g id="line2d_42">
      <path d="M 313.085625 56.870906 
L 505.085625 56.870906 
" clip-path="url(#p2925a449cc)" style="fill: none; stroke: #cccccc; stroke-linecap: round"/>
     </g>
     <g id="text_35">
      <!-- 0.8 -->
      <g style="fill: #262626" transform="translate(281.32125 62.189812) scale(0.14 -0.14)">
       <use xlink:href="#DejaVuSans-30"/>
       <use xlink:href="#DejaVuSans-2e" x="63.623047"/>
       <use xlink:href="#DejaVuSans-38" x="95.410156"/>
      </g>
     </g>
    </g>
    <g id="ytick_13">
     <g id="line2d_43">
      <path d="M 313.085625 12.518906 
L 505.085625 12.518906 
" clip-path="url(#p2925a449cc)" style="fill: none; stroke: #cccccc; stroke-linecap: round"/>
     </g>
     <g id="text_36">
      <!-- 1.0 -->
      <g style="fill: #262626" transform="translate(281.32125 17.837812) scale(0.14 -0.14)">
       <use xlink:href="#DejaVuSans-31"/>
       <use xlink:href="#DejaVuSans-2e" x="63.623047"/>
       <use xlink:href="#DejaVuSans-30" x="95.410156"/>
      </g>
     </g>
    </g>
    <g id="text_37">
     <!-- absolute noise error -->
     <g style="fill: #262626" transform="translate(274.825625 183.489844) rotate(-90) scale(0.12 -0.12)">
      <use xlink:href="#DejaVuSans-61"/>
      <use xlink:href="#DejaVuSans-62" x="61.279297"/>
      <use xlink:href="#DejaVuSans-73" x="124.755859"/>
      <use xlink:href="#DejaVuSans-6f" x="176.855469"/>
      <use xlink:href="#DejaVuSans-6c" x="238.037109"/>
      <use xlink:href="#DejaVuSans-75" x="265.820312"/>
      <use xlink:href="#DejaVuSans-74" x="329.199219"/>
      <use xlink:href="#DejaVuSans-65" x="368.408203"/>
      <use xlink:href="#DejaVuSans-20" x="429.931641"/>
      <use xlink:href="#DejaVuSans-6e" x="461.71875"/>
      <use xlink:href="#DejaVuSans-6f" x="525.097656"/>
      <use xlink:href="#DejaVuSans-69" x="586.279297"/>
      <use xlink:href="#DejaVuSans-73" x="614.0625"/>
      <use xlink:href="#DejaVuSans-65" x="666.162109"/>
      <use xlink:href="#DejaVuSans-20" x="727.685547"/>
      <use xlink:href="#DejaVuSans-65" x="759.472656"/>
      <use xlink:href="#DejaVuSans-72" x="820.996094"/>
      <use xlink:href="#DejaVuSans-72" x="860.359375"/>
      <use xlink:href="#DejaVuSans-6f" x="899.222656"/>
      <use xlink:href="#DejaVuSans-72" x="960.404297"/>
     </g>
    </g>
   </g>
   <g id="PolyCollection_7">
    <path d="M 321.812898 -1152.958977 
L 321.812898 53.228554 
L 330.999501 187.763805 
L 340.186103 195.626385 
L 349.372706 212.400873 
L 358.559309 215.380294 
L 367.745912 213.904473 
L 376.932515 219.535082 
L 386.119118 219.411505 
L 395.305721 221.850704 
L 404.492324 227.158948 
L 413.678926 227.662061 
L 422.865529 227.935021 
L 432.052132 228.796784 
L 441.238735 229.042813 
L 450.425338 228.556446 
L 459.611941 227.40866 
L 468.798544 229.895291 
L 477.985147 229.54815 
L 487.171749 230.07135 
L 496.358352 229.553286 
L 496.358352 220.68589 
L 496.358352 220.68589 
L 487.171749 219.794628 
L 477.985147 219.565998 
L 468.798544 220.257306 
L 459.611941 213.448373 
L 450.425338 216.568717 
L 441.238735 218.872373 
L 432.052132 219.46054 
L 422.865529 217.782762 
L 413.678926 214.768515 
L 404.492324 214.605853 
L 395.305721 203.864263 
L 386.119118 199.990891 
L 376.932515 198.275747 
L 367.745912 177.752459 
L 358.559309 193.53505 
L 349.372706 100.496177 
L 340.186103 105.35298 
L 330.999501 -3.58435 
L 321.812898 -1152.958977 
z
" clip-path="url(#p2925a449cc)" style="fill: #1f77b4; fill-opacity: 0.2; stroke: #1f77b4; stroke-opacity: 0.2"/>
   </g>
   <g id="PolyCollection_8">
    <path d="M 321.812898 -1092.058168 
L 321.812898 51.073959 
L 330.999501 174.026121 
L 340.186103 195.349705 
L 349.372706 212.040132 
L 358.559309 216.601293 
L 367.745912 217.367324 
L 376.932515 218.194154 
L 386.119118 219.722067 
L 395.305721 223.003646 
L 404.492324 223.645064 
L 413.678926 223.708582 
L 422.865529 223.264911 
L 432.052132 225.727908 
L 441.238735 226.042847 
L 450.425338 225.826689 
L 459.611941 226.198103 
L 468.798544 227.787884 
L 477.985147 228.19453 
L 487.171749 228.605669 
L 496.358352 229.132774 
L 496.358352 222.81908 
L 496.358352 222.81908 
L 487.171749 221.058685 
L 477.985147 219.314022 
L 468.798544 220.603263 
L 459.611941 216.167982 
L 450.425338 214.721262 
L 441.238735 216.136697 
L 432.052132 214.297282 
L 422.865529 210.71138 
L 413.678926 210.634813 
L 404.492324 211.115366 
L 395.305721 210.513735 
L 386.119118 205.909217 
L 376.932515 199.02672 
L 367.745912 184.418528 
L 358.559309 201.124531 
L 349.372706 109.650832 
L 340.186103 95.046415 
L 330.999501 -12.812071 
L 321.812898 -1092.058168 
z
" clip-path="url(#p2925a449cc)" style="fill: #ff7f0e; fill-opacity: 0.2; stroke: #ff7f0e; stroke-opacity: 0.2"/>
   </g>
   <g id="PolyCollection_9">
    <path d="M 321.812898 -1197.652425 
L 321.812898 49.478181 
L 330.999501 164.524877 
L 340.186103 191.418195 
L 349.372706 211.671825 
L 358.559309 215.744956 
L 367.745912 215.724068 
L 376.932515 217.462686 
L 386.119118 221.560499 
L 395.305721 221.241422 
L 404.492324 221.96842 
L 413.678926 221.674573 
L 422.865529 225.371716 
L 432.052132 224.376109 
L 441.238735 224.558368 
L 450.425338 224.662368 
L 459.611941 225.111283 
L 468.798544 224.451917 
L 477.985147 224.980951 
L 487.171749 225.905718 
L 496.358352 225.356917 
L 496.358352 215.58471 
L 496.358352 215.58471 
L 487.171749 217.310447 
L 477.985147 215.443824 
L 468.798544 215.143043 
L 459.611941 217.310188 
L 450.425338 215.330025 
L 441.238735 214.789374 
L 432.052132 214.0419 
L 422.865529 216.439158 
L 413.678926 210.981836 
L 404.492324 211.634415 
L 395.305721 210.620758 
L 386.119118 210.018468 
L 376.932515 202.97583 
L 367.745912 184.004476 
L 358.559309 198.453165 
L 349.372706 104.761955 
L 340.186103 99.787441 
L 330.999501 -10.036159 
L 321.812898 -1197.652425 
z
" clip-path="url(#p2925a449cc)" style="fill: #2ca02c; fill-opacity: 0.2; stroke: #2ca02c; stroke-opacity: 0.2"/>
   </g>
   <g id="PolyCollection_10">
    <defs>
     <path id="mdcf05f285e" d="M 321.812898 -298.896805 
L 321.812898 -171.001981 
L 330.999501 -65.699995 
L 340.186103 -58.693594 
L 349.372706 -58.773845 
L 358.559309 -57.139893 
L 367.745912 -56.220379 
L 376.932515 -55.777514 
L 386.119118 -55.737902 
L 395.305721 -55.661252 
L 404.492324 -56.100154 
L 413.678926 -55.566446 
L 422.865529 -55.996199 
L 432.052132 -55.254396 
L 441.238735 -55.285452 
L 450.425338 -54.917853 
L 459.611941 -55.030723 
L 468.798544 -54.775505 
L 477.985147 -54.567855 
L 487.171749 -54.770967 
L 496.358352 -54.679916 
L 496.358352 -57.635386 
L 496.358352 -57.635386 
L 487.171749 -57.786119 
L 477.985147 -57.642016 
L 468.798544 -57.725084 
L 459.611941 -58.113652 
L 450.425338 -58.005742 
L 441.238735 -58.437362 
L 432.052132 -58.408064 
L 422.865529 -59.230782 
L 413.678926 -58.553644 
L 404.492324 -59.291637 
L 395.305721 -58.64816 
L 386.119118 -58.816601 
L 376.932515 -58.952672 
L 367.745912 -59.194694 
L 358.559309 -60.504954 
L 349.372706 -62.123729 
L 340.186103 -62.110089 
L 330.999501 -70.529248 
L 321.812898 -298.896805 
z
" style="stroke: #1f77b4; stroke-opacity: 0.2"/>
    </defs>
    <g clip-path="url(#p2925a449cc)">
     <use xlink:href="#mdcf05f285e" x="0" y="280.142031" style="fill: #1f77b4; fill-opacity: 0.2; stroke: #1f77b4; stroke-opacity: 0.2"/>
    </g>
   </g>
   <g id="PolyCollection_11">
    <defs>
     <path id="m2126d9ef60" d="M 321.812898 -314.929513 
L 321.812898 -180.077532 
L 330.999501 -69.345309 
L 340.186103 -64.196097 
L 349.372706 -60.416152 
L 358.559309 -59.295923 
L 367.745912 -57.753408 
L 376.932515 -57.987823 
L 386.119118 -57.022601 
L 395.305721 -56.09654 
L 404.492324 -56.795017 
L 413.678926 -56.597776 
L 422.865529 -56.360783 
L 432.052132 -56.064009 
L 441.238735 -55.499745 
L 450.425338 -55.711844 
L 459.611941 -55.34111 
L 468.798544 -55.301234 
L 477.985147 -54.490569 
L 487.171749 -54.450851 
L 496.358352 -54.479062 
L 496.358352 -56.626014 
L 496.358352 -56.626014 
L 487.171749 -56.619397 
L 477.985147 -56.596148 
L 468.798544 -57.350936 
L 459.611941 -57.523579 
L 450.425338 -57.909654 
L 441.238735 -57.67549 
L 432.052132 -58.355933 
L 422.865529 -58.751222 
L 413.678926 -59.069489 
L 404.492324 -59.177696 
L 395.305721 -58.285999 
L 386.119118 -59.657974 
L 376.932515 -60.577953 
L 367.745912 -60.380731 
L 358.559309 -62.649931 
L 349.372706 -63.347106 
L 340.186103 -67.935467 
L 330.999501 -74.143557 
L 321.812898 -314.929513 
z
" style="stroke: #ff7f0e; stroke-opacity: 0.2"/>
    </defs>
    <g clip-path="url(#p2925a449cc)">
     <use xlink:href="#m2126d9ef60" x="0" y="280.142031" style="fill: #ff7f0e; fill-opacity: 0.2; stroke: #ff7f0e; stroke-opacity: 0.2"/>
    </g>
   </g>
   <g id="PolyCollection_12">
    <defs>
     <path id="m37cdaefa80" d="M 321.812898 -330.545227 
L 321.812898 -207.62851 
L 330.999501 -78.733224 
L 340.186103 -67.596067 
L 349.372706 -62.275843 
L 358.559309 -61.48708 
L 367.745912 -59.138122 
L 376.932515 -58.558628 
L 386.119118 -57.924019 
L 395.305721 -57.394207 
L 404.492324 -57.309482 
L 413.678926 -56.970776 
L 422.865529 -56.553469 
L 432.052132 -57.192863 
L 441.238735 -56.442238 
L 450.425338 -56.666291 
L 459.611941 -55.992937 
L 468.798544 -55.833974 
L 477.985147 -55.455805 
L 487.171749 -55.627357 
L 496.358352 -54.98222 
L 496.358352 -56.873695 
L 496.358352 -56.873695 
L 487.171749 -57.559781 
L 477.985147 -57.22854 
L 468.798544 -57.735839 
L 459.611941 -57.926854 
L 450.425338 -58.862717 
L 441.238735 -58.379561 
L 432.052132 -59.317629 
L 422.865529 -58.553871 
L 413.678926 -59.027803 
L 404.492324 -59.553702 
L 395.305721 -59.54961 
L 386.119118 -60.175194 
L 376.932515 -60.9977 
L 367.745912 -61.785572 
L 358.559309 -64.590577 
L 349.372706 -65.322135 
L 340.186103 -71.992084 
L 330.999501 -85.496687 
L 321.812898 -330.545227 
z
" style="stroke: #2ca02c; stroke-opacity: 0.2"/>
    </defs>
    <g clip-path="url(#p2925a449cc)">
     <use xlink:href="#m37cdaefa80" x="0" y="280.142031" style="fill: #2ca02c; fill-opacity: 0.2; stroke: #2ca02c; stroke-opacity: 0.2"/>
    </g>
   </g>
   <g id="line2d_44">
    <path d="M 329.135004 -1 
L 330.999501 111.202157 
L 340.186103 155.288078 
L 349.372706 172.330944 
L 358.559309 204.93293 
L 367.745912 197.91368 
L 376.932515 208.791297 
L 386.119118 210.041133 
L 395.305721 212.897275 
L 404.492324 221.269196 
L 413.678926 221.786032 
L 422.865529 223.195863 
L 432.052132 224.333952 
L 441.238735 224.494168 
L 450.425338 222.734875 
L 459.611941 221.0318 
L 468.798544 225.342367 
L 477.985147 224.758861 
L 487.171749 225.47054 
L 496.358352 225.505619 
" clip-path="url(#p2925a449cc)" style="fill: none; stroke-dasharray: 7.4,3.2; stroke-dashoffset: 0; stroke: #1f77b4; stroke-width: 2"/>
   </g>
   <g id="line2d_45">
    <path d="M 329.290668 -1 
L 330.999501 102.890866 
L 340.186103 154.471357 
L 349.372706 174.695656 
L 358.559309 208.966678 
L 367.745912 203.124547 
L 376.932515 209.725106 
L 386.119118 213.299479 
L 395.305721 216.889582 
L 404.492324 217.553449 
L 413.678926 217.881058 
L 422.865529 217.509473 
L 432.052132 220.329685 
L 441.238735 221.782594 
L 450.425338 220.483602 
L 459.611941 221.566429 
L 468.798544 224.528884 
L 477.985147 224.014836 
L 487.171749 224.991393 
L 496.358352 226.250755 
" clip-path="url(#p2925a449cc)" style="fill: none; stroke-dasharray: 7.4,3.2; stroke-dashoffset: 0; stroke: #ff7f0e; stroke-width: 2"/>
   </g>
   <g id="line2d_46">
    <path d="M 329.482246 -1 
L 330.999501 91.779988 
L 340.186103 153.069563 
L 349.372706 170.637669 
L 358.559309 207.896246 
L 367.745912 202.512351 
L 376.932515 210.342606 
L 386.119118 215.979115 
L 395.305721 216.155204 
L 404.492324 217.246496 
L 413.678926 216.387443 
L 422.865529 220.950652 
L 432.052132 219.803615 
L 441.238735 219.734511 
L 450.425338 220.318246 
L 459.611941 221.569182 
L 468.798544 219.944306 
L 477.985147 220.622036 
L 487.171749 221.867299 
L 496.358352 220.911833 
" clip-path="url(#p2925a449cc)" style="fill: none; stroke-dasharray: 7.4,3.2; stroke-dashoffset: 0; stroke: #2ca02c; stroke-width: 2"/>
   </g>
   <g id="line2d_47"/>
   <g id="line2d_48"/>
   <g id="line2d_49"/>
   <g id="line2d_50">
    <path d="M 321.812898 50.84744 
L 330.999501 212.097266 
L 340.186103 219.770482 
L 349.372706 219.676073 
L 358.559309 221.396234 
L 367.745912 222.420913 
L 376.932515 222.742091 
L 386.119118 222.889623 
L 395.305721 222.979559 
L 404.492324 222.456521 
L 413.678926 223.127385 
L 422.865529 222.620103 
L 432.052132 223.341048 
L 441.238735 223.222237 
L 450.425338 223.647193 
L 459.611941 223.593437 
L 468.798544 223.91447 
L 477.985147 224.041498 
L 487.171749 223.871066 
L 496.358352 224.00344 
" clip-path="url(#p2925a449cc)" style="fill: none; stroke: #1f77b4; stroke-width: 2; stroke-linecap: round"/>
   </g>
   <g id="line2d_51">
    <path d="M 321.812898 35.874432 
L 330.999501 208.475315 
L 340.186103 214.064113 
L 349.372706 218.335917 
L 358.559309 219.198346 
L 367.745912 221.139048 
L 376.932515 220.940533 
L 386.119118 221.813963 
L 395.305721 223.010852 
L 404.492324 222.195924 
L 413.678926 222.318885 
L 422.865529 222.640149 
L 432.052132 222.972639 
L 441.238735 223.528313 
L 450.425338 223.354722 
L 459.611941 223.830998 
L 468.798544 223.831959 
L 477.985147 224.570795 
L 487.171749 224.607961 
L 496.358352 224.59827 
" clip-path="url(#p2925a449cc)" style="fill: none; stroke: #ff7f0e; stroke-width: 2; stroke-linecap: round"/>
   </g>
   <g id="line2d_52">
    <path d="M 321.812898 14.747039 
L 330.999501 198.006816 
L 340.186103 210.434408 
L 349.372706 216.430131 
L 358.559309 217.138522 
L 367.745912 219.705737 
L 376.932515 220.360453 
L 386.119118 221.113258 
L 395.305721 221.666439 
L 404.492324 221.693223 
L 413.678926 222.160726 
L 422.865529 222.592315 
L 432.052132 221.923367 
L 441.238735 222.736589 
L 450.425338 222.433128 
L 459.611941 223.15845 
L 468.798544 223.408396 
L 477.985147 223.837291 
L 487.171749 223.60447 
L 496.358352 224.238331 
" clip-path="url(#p2925a449cc)" style="fill: none; stroke: #2ca02c; stroke-width: 2; stroke-linecap: round"/>
   </g>
   <g id="line2d_53"/>
   <g id="line2d_54"/>
   <g id="line2d_55"/>
   <g id="patch_9">
    <path d="M 313.085625 234.278906 
L 313.085625 12.518906 
" style="fill: none; stroke: #cccccc; stroke-width: 1.25; stroke-linejoin: miter; stroke-linecap: square"/>
   </g>
   <g id="patch_10">
    <path d="M 505.085625 234.278906 
L 505.085625 12.518906 
" style="fill: none; stroke: #cccccc; stroke-width: 1.25; stroke-linejoin: miter; stroke-linecap: square"/>
   </g>
   <g id="patch_11">
    <path d="M 313.085625 234.278906 
L 505.085625 234.278906 
" style="fill: none; stroke: #cccccc; stroke-width: 1.25; stroke-linejoin: miter; stroke-linecap: square"/>
   </g>
   <g id="patch_12">
    <path d="M 313.085625 12.518906 
L 505.085625 12.518906 
" style="fill: none; stroke: #cccccc; stroke-width: 1.25; stroke-linejoin: miter; stroke-linecap: square"/>
   </g>
   <g id="legend_2">
    <g id="patch_13">
     <path d="M 436.495625 135.642031 
L 497.385625 135.642031 
Q 499.585625 135.642031 499.585625 133.442031 
L 499.585625 20.218906 
Q 499.585625 18.018906 497.385625 18.018906 
L 436.495625 18.018906 
Q 434.295625 18.018906 434.295625 20.218906 
L 434.295625 133.442031 
Q 434.295625 135.642031 436.495625 135.642031 
z
" style="fill: #ffffff; opacity: 0.8; stroke: #cccccc; stroke-linejoin: miter"/>
    </g>
    <g id="text_38">
     <!-- noise_std -->
     <g style="fill: #262626" transform="translate(438.695625 31.537031) scale(0.12 -0.12)">
      <use xlink:href="#DejaVuSans-6e"/>
      <use xlink:href="#DejaVuSans-6f" x="63.378906"/>
      <use xlink:href="#DejaVuSans-69" x="124.560547"/>
      <use xlink:href="#DejaVuSans-73" x="152.34375"/>
      <use xlink:href="#DejaVuSans-65" x="204.443359"/>
      <use xlink:href="#DejaVuSans-5f" x="265.966797"/>
      <use xlink:href="#DejaVuSans-73" x="315.966797"/>
      <use xlink:href="#DejaVuSans-74" x="368.066406"/>
      <use xlink:href="#DejaVuSans-64" x="407.275391"/>
     </g>
    </g>
    <g id="line2d_56">
     <path d="M 442.793906 44.374687 
L 453.793906 44.374687 
L 464.793906 44.374687 
" style="fill: none; stroke-dasharray: 7.4,3.2; stroke-dashoffset: 0; stroke: #1f77b4; stroke-width: 2"/>
    </g>
    <g id="text_39">
     <!-- 0.1 -->
     <g style="fill: #262626" transform="translate(473.593906 48.224687) scale(0.11 -0.11)">
      <use xlink:href="#DejaVuSans-30"/>
      <use xlink:href="#DejaVuSans-2e" x="63.623047"/>
      <use xlink:href="#DejaVuSans-31" x="95.410156"/>
     </g>
    </g>
    <g id="line2d_57">
     <path d="M 442.793906 60.520625 
L 453.793906 60.520625 
L 464.793906 60.520625 
" style="fill: none; stroke-dasharray: 7.4,3.2; stroke-dashoffset: 0; stroke: #ff7f0e; stroke-width: 2"/>
    </g>
    <g id="text_40">
     <!-- 0.3 -->
     <g style="fill: #262626" transform="translate(473.593906 64.370625) scale(0.11 -0.11)">
      <use xlink:href="#DejaVuSans-30"/>
      <use xlink:href="#DejaVuSans-2e" x="63.623047"/>
      <use xlink:href="#DejaVuSans-33" x="95.410156"/>
     </g>
    </g>
    <g id="line2d_58">
     <path d="M 442.793906 76.666562 
L 453.793906 76.666562 
L 464.793906 76.666562 
" style="fill: none; stroke-dasharray: 7.4,3.2; stroke-dashoffset: 0; stroke: #2ca02c; stroke-width: 2"/>
    </g>
    <g id="text_41">
     <!-- 0.5 -->
     <g style="fill: #262626" transform="translate(473.593906 80.516562) scale(0.11 -0.11)">
      <use xlink:href="#DejaVuSans-30"/>
      <use xlink:href="#DejaVuSans-2e" x="63.623047"/>
      <use xlink:href="#DejaVuSans-35" x="95.410156"/>
     </g>
    </g>
    <g id="line2d_59">
     <path d="M 442.793906 92.8125 
L 453.793906 92.8125 
L 464.793906 92.8125 
" style="fill: none; stroke: #1f77b4; stroke-width: 2; stroke-linecap: round"/>
    </g>
    <g id="text_42">
     <!-- 0.1 -->
     <g style="fill: #262626" transform="translate(473.593906 96.6625) scale(0.11 -0.11)">
      <use xlink:href="#DejaVuSans-30"/>
      <use xlink:href="#DejaVuSans-2e" x="63.623047"/>
      <use xlink:href="#DejaVuSans-31" x="95.410156"/>
     </g>
    </g>
    <g id="line2d_60">
     <path d="M 442.793906 108.958438 
L 453.793906 108.958438 
L 464.793906 108.958438 
" style="fill: none; stroke: #ff7f0e; stroke-width: 2; stroke-linecap: round"/>
    </g>
    <g id="text_43">
     <!-- 0.3 -->
     <g style="fill: #262626" transform="translate(473.593906 112.808437) scale(0.11 -0.11)">
      <use xlink:href="#DejaVuSans-30"/>
      <use xlink:href="#DejaVuSans-2e" x="63.623047"/>
      <use xlink:href="#DejaVuSans-33" x="95.410156"/>
     </g>
    </g>
    <g id="line2d_61">
     <path d="M 442.793906 125.104375 
L 453.793906 125.104375 
L 464.793906 125.104375 
" style="fill: none; stroke: #2ca02c; stroke-width: 2; stroke-linecap: round"/>
    </g>
    <g id="text_44">
     <!-- 0.5 -->
     <g style="fill: #262626" transform="translate(473.593906 128.954375) scale(0.11 -0.11)">
      <use xlink:href="#DejaVuSans-30"/>
      <use xlink:href="#DejaVuSans-2e" x="63.623047"/>
      <use xlink:href="#DejaVuSans-35" x="95.410156"/>
     </g>
    </g>
   </g>
  </g>
  <g id="axes_3">
   <g id="patch_14">
    <path d="M 562.685625 234.278906 
L 754.685625 234.278906 
L 754.685625 12.518906 
L 562.685625 12.518906 
z
" style="fill: #ffffff"/>
   </g>
   <g id="matplotlib.axis_5">
    <g id="xtick_13">
     <g id="line2d_62">
      <path d="M 571.412898 234.278906 
L 571.412898 12.518906 
" clip-path="url(#p3a6a5f5755)" style="fill: none; stroke: #cccccc; stroke-linecap: round"/>
     </g>
     <g id="text_45">
      <!-- 5 -->
      <g style="fill: #262626" transform="translate(566.959148 254.416719) scale(0.14 -0.14)">
       <use xlink:href="#DejaVuSans-35"/>
      </g>
     </g>
    </g>
    <g id="xtick_14">
     <g id="line2d_63">
      <path d="M 598.972706 234.278906 
L 598.972706 12.518906 
" clip-path="url(#p3a6a5f5755)" style="fill: none; stroke: #cccccc; stroke-linecap: round"/>
     </g>
     <g id="text_46">
      <!-- 20 -->
      <g style="fill: #262626" transform="translate(590.065206 254.416719) scale(0.14 -0.14)">
       <use xlink:href="#DejaVuSans-32"/>
       <use xlink:href="#DejaVuSans-30" x="63.623047"/>
      </g>
     </g>
    </g>
    <g id="xtick_15">
     <g id="line2d_64">
      <path d="M 635.719118 234.278906 
L 635.719118 12.518906 
" clip-path="url(#p3a6a5f5755)" style="fill: none; stroke: #cccccc; stroke-linecap: round"/>
     </g>
     <g id="text_47">
      <!-- 40 -->
      <g style="fill: #262626" transform="translate(626.811618 254.416719) scale(0.14 -0.14)">
       <use xlink:href="#DejaVuSans-34"/>
       <use xlink:href="#DejaVuSans-30" x="63.623047"/>
      </g>
     </g>
    </g>
    <g id="xtick_16">
     <g id="line2d_65">
      <path d="M 672.465529 234.278906 
L 672.465529 12.518906 
" clip-path="url(#p3a6a5f5755)" style="fill: none; stroke: #cccccc; stroke-linecap: round"/>
     </g>
     <g id="text_48">
      <!-- 60 -->
      <g style="fill: #262626" transform="translate(663.558029 254.416719) scale(0.14 -0.14)">
       <use xlink:href="#DejaVuSans-36"/>
       <use xlink:href="#DejaVuSans-30" x="63.623047"/>
      </g>
     </g>
    </g>
    <g id="xtick_17">
     <g id="line2d_66">
      <path d="M 709.211941 234.278906 
L 709.211941 12.518906 
" clip-path="url(#p3a6a5f5755)" style="fill: none; stroke: #cccccc; stroke-linecap: round"/>
     </g>
     <g id="text_49">
      <!-- 80 -->
      <g style="fill: #262626" transform="translate(700.304441 254.416719) scale(0.14 -0.14)">
       <use xlink:href="#DejaVuSans-38"/>
       <use xlink:href="#DejaVuSans-30" x="63.623047"/>
      </g>
     </g>
    </g>
    <g id="xtick_18">
     <g id="line2d_67">
      <path d="M 745.958352 234.278906 
L 745.958352 12.518906 
" clip-path="url(#p3a6a5f5755)" style="fill: none; stroke: #cccccc; stroke-linecap: round"/>
     </g>
     <g id="text_50">
      <!-- 100 -->
      <g style="fill: #262626" transform="translate(732.597102 254.416719) scale(0.14 -0.14)">
       <use xlink:href="#DejaVuSans-31"/>
       <use xlink:href="#DejaVuSans-30" x="63.623047"/>
       <use xlink:href="#DejaVuSans-30" x="127.246094"/>
      </g>
     </g>
    </g>
    <g id="text_51">
     <!--   -->
     <g style="fill: #262626" transform="translate(656.77875 270.446406) scale(0.12 -0.12)">
      <use xlink:href="#DejaVuSans-20"/>
     </g>
    </g>
   </g>
   <g id="matplotlib.axis_6">
    <g id="ytick_14">
     <g id="line2d_68">
      <path d="M 562.685625 225.388184 
L 754.685625 225.388184 
" clip-path="url(#p3a6a5f5755)" style="fill: none; stroke: #cccccc; stroke-linecap: round"/>
     </g>
     <g id="text_52">
      <!-- 0 -->
      <g style="fill: #262626" transform="translate(544.278125 230.70709) scale(0.14 -0.14)">
       <use xlink:href="#DejaVuSans-30"/>
      </g>
     </g>
    </g>
    <g id="ytick_15">
     <g id="line2d_69">
      <path d="M 562.685625 190.133299 
L 754.685625 190.133299 
" clip-path="url(#p3a6a5f5755)" style="fill: none; stroke: #cccccc; stroke-linecap: round"/>
     </g>
     <g id="text_53">
      <!-- 50 -->
      <g style="fill: #262626" transform="translate(535.370625 195.452205) scale(0.14 -0.14)">
       <use xlink:href="#DejaVuSans-35"/>
       <use xlink:href="#DejaVuSans-30" x="63.623047"/>
      </g>
     </g>
    </g>
    <g id="ytick_16">
     <g id="line2d_70">
      <path d="M 562.685625 154.878414 
L 754.685625 154.878414 
" clip-path="url(#p3a6a5f5755)" style="fill: none; stroke: #cccccc; stroke-linecap: round"/>
     </g>
     <g id="text_54">
      <!-- 100 -->
      <g style="fill: #262626" transform="translate(526.463125 160.197321) scale(0.14 -0.14)">
       <use xlink:href="#DejaVuSans-31"/>
       <use xlink:href="#DejaVuSans-30" x="63.623047"/>
       <use xlink:href="#DejaVuSans-30" x="127.246094"/>
      </g>
     </g>
    </g>
    <g id="ytick_17">
     <g id="line2d_71">
      <path d="M 562.685625 119.62353 
L 754.685625 119.62353 
" clip-path="url(#p3a6a5f5755)" style="fill: none; stroke: #cccccc; stroke-linecap: round"/>
     </g>
     <g id="text_55">
      <!-- 150 -->
      <g style="fill: #262626" transform="translate(526.463125 124.942436) scale(0.14 -0.14)">
       <use xlink:href="#DejaVuSans-31"/>
       <use xlink:href="#DejaVuSans-35" x="63.623047"/>
       <use xlink:href="#DejaVuSans-30" x="127.246094"/>
      </g>
     </g>
    </g>
    <g id="ytick_18">
     <g id="line2d_72">
      <path d="M 562.685625 84.368645 
L 754.685625 84.368645 
" clip-path="url(#p3a6a5f5755)" style="fill: none; stroke: #cccccc; stroke-linecap: round"/>
     </g>
     <g id="text_56">
      <!-- 200 -->
      <g style="fill: #262626" transform="translate(526.463125 89.687551) scale(0.14 -0.14)">
       <use xlink:href="#DejaVuSans-32"/>
       <use xlink:href="#DejaVuSans-30" x="63.623047"/>
       <use xlink:href="#DejaVuSans-30" x="127.246094"/>
      </g>
     </g>
    </g>
    <g id="ytick_19">
     <g id="line2d_73">
      <path d="M 562.685625 49.11376 
L 754.685625 49.11376 
" clip-path="url(#p3a6a5f5755)" style="fill: none; stroke: #cccccc; stroke-linecap: round"/>
     </g>
     <g id="text_57">
      <!-- 250 -->
      <g style="fill: #262626" transform="translate(526.463125 54.432667) scale(0.14 -0.14)">
       <use xlink:href="#DejaVuSans-32"/>
       <use xlink:href="#DejaVuSans-35" x="63.623047"/>
       <use xlink:href="#DejaVuSans-30" x="127.246094"/>
      </g>
     </g>
    </g>
    <g id="ytick_20">
     <g id="line2d_74">
      <path d="M 562.685625 13.858876 
L 754.685625 13.858876 
" clip-path="url(#p3a6a5f5755)" style="fill: none; stroke: #cccccc; stroke-linecap: round"/>
     </g>
     <g id="text_58">
      <!-- 300 -->
      <g style="fill: #262626" transform="translate(526.463125 19.177782) scale(0.14 -0.14)">
       <use xlink:href="#DejaVuSans-33"/>
       <use xlink:href="#DejaVuSans-30" x="63.623047"/>
       <use xlink:href="#DejaVuSans-30" x="127.246094"/>
      </g>
     </g>
    </g>
    <g id="text_59">
     <!-- CPU time (s) -->
     <g style="fill: #262626" transform="translate(519.9675 160.774219) rotate(-90) scale(0.12 -0.12)">
      <defs>
       <path id="DejaVuSans-43" d="M 4122 4306 
L 4122 3641 
Q 3803 3938 3442 4084 
Q 3081 4231 2675 4231 
Q 1875 4231 1450 3742 
Q 1025 3253 1025 2328 
Q 1025 1406 1450 917 
Q 1875 428 2675 428 
Q 3081 428 3442 575 
Q 3803 722 4122 1019 
L 4122 359 
Q 3791 134 3420 21 
Q 3050 -91 2638 -91 
Q 1578 -91 968 557 
Q 359 1206 359 2328 
Q 359 3453 968 4101 
Q 1578 4750 2638 4750 
Q 3056 4750 3426 4639 
Q 3797 4528 4122 4306 
z
" transform="scale(0.015625)"/>
       <path id="DejaVuSans-50" d="M 1259 4147 
L 1259 2394 
L 2053 2394 
Q 2494 2394 2734 2622 
Q 2975 2850 2975 3272 
Q 2975 3691 2734 3919 
Q 2494 4147 2053 4147 
L 1259 4147 
z
M 628 4666 
L 2053 4666 
Q 2838 4666 3239 4311 
Q 3641 3956 3641 3272 
Q 3641 2581 3239 2228 
Q 2838 1875 2053 1875 
L 1259 1875 
L 1259 0 
L 628 0 
L 628 4666 
z
" transform="scale(0.015625)"/>
       <path id="DejaVuSans-55" d="M 556 4666 
L 1191 4666 
L 1191 1831 
Q 1191 1081 1462 751 
Q 1734 422 2344 422 
Q 2950 422 3222 751 
Q 3494 1081 3494 1831 
L 3494 4666 
L 4128 4666 
L 4128 1753 
Q 4128 841 3676 375 
Q 3225 -91 2344 -91 
Q 1459 -91 1007 375 
Q 556 841 556 1753 
L 556 4666 
z
" transform="scale(0.015625)"/>
      </defs>
      <use xlink:href="#DejaVuSans-43"/>
      <use xlink:href="#DejaVuSans-50" x="69.824219"/>
      <use xlink:href="#DejaVuSans-55" x="130.126953"/>
      <use xlink:href="#DejaVuSans-20" x="203.320312"/>
      <use xlink:href="#DejaVuSans-74" x="235.107422"/>
      <use xlink:href="#DejaVuSans-69" x="274.316406"/>
      <use xlink:href="#DejaVuSans-6d" x="302.099609"/>
      <use xlink:href="#DejaVuSans-65" x="399.511719"/>
      <use xlink:href="#DejaVuSans-20" x="461.035156"/>
      <use xlink:href="#DejaVuSans-28" x="492.822266"/>
      <use xlink:href="#DejaVuSans-73" x="531.835938"/>
      <use xlink:href="#DejaVuSans-29" x="583.935547"/>
     </g>
    </g>
   </g>
   <g id="PolyCollection_13">
    <defs>
     <path id="m9b2447eb77" d="M 571.412898 -56.656693 
L 571.412898 -55.943125 
L 580.599501 -56.881658 
L 589.786103 -58.158602 
L 598.972706 -59.577485 
L 608.159309 -61.087982 
L 617.345912 -63.12856 
L 626.532515 -65.597622 
L 635.719118 -67.636646 
L 644.905721 -70.173379 
L 654.092324 -72.106479 
L 663.278926 -76.756319 
L 672.465529 -78.514929 
L 681.652132 -80.8036 
L 690.838735 -85.655744 
L 700.025338 -90.656527 
L 709.211941 -94.948914 
L 718.398544 -94.61488 
L 727.585147 -100.690471 
L 736.771749 -107.013222 
L 745.958352 -111.988026 
L 745.958352 -214.416415 
L 745.958352 -214.416415 
L 736.771749 -209.840229 
L 727.585147 -194.912676 
L 718.398544 -186.027597 
L 709.211941 -172.187569 
L 700.025338 -157.133213 
L 690.838735 -149.762191 
L 681.652132 -131.579974 
L 672.465529 -124.965493 
L 663.278926 -118.337631 
L 654.092324 -106.877257 
L 644.905721 -99.844616 
L 635.719118 -94.774785 
L 626.532515 -84.260159 
L 617.345912 -77.694796 
L 608.159309 -70.704656 
L 598.972706 -66.737313 
L 589.786103 -61.894839 
L 580.599501 -58.711566 
L 571.412898 -56.656693 
z
" style="stroke: #1f77b4; stroke-opacity: 0.2"/>
    </defs>
    <g clip-path="url(#p3a6a5f5755)">
     <use xlink:href="#m9b2447eb77" x="0" y="280.142031" style="fill: #1f77b4; fill-opacity: 0.2; stroke: #1f77b4; stroke-opacity: 0.2"/>
    </g>
   </g>
   <g id="PolyCollection_14">
    <defs>
     <path id="m76ae6e3a8f" d="M 571.412898 -56.725722 
L 571.412898 -55.999068 
L 580.599501 -56.783105 
L 589.786103 -58.218254 
L 598.972706 -59.358555 
L 608.159309 -60.66432 
L 617.345912 -62.817673 
L 626.532515 -64.327839 
L 635.719118 -66.652663 
L 644.905721 -68.401227 
L 654.092324 -71.65583 
L 663.278926 -73.159651 
L 672.465529 -75.81116 
L 681.652132 -80.838739 
L 690.838735 -83.070111 
L 700.025338 -85.092557 
L 709.211941 -90.73466 
L 718.398544 -92.126433 
L 727.585147 -97.390734 
L 736.771749 -102.301319 
L 745.958352 -105.542442 
L 745.958352 -220.071105 
L 745.958352 -220.071105 
L 736.771749 -195.608068 
L 727.585147 -189.937495 
L 718.398544 -178.648034 
L 709.211941 -164.005069 
L 700.025338 -150.203446 
L 690.838735 -138.905702 
L 681.652132 -130.78225 
L 672.465529 -121.120197 
L 663.278926 -107.653372 
L 654.092324 -102.172415 
L 644.905721 -92.049591 
L 635.719118 -89.943489 
L 626.532515 -81.027978 
L 617.345912 -75.699869 
L 608.159309 -70.000466 
L 598.972706 -65.36148 
L 589.786103 -62.138432 
L 580.599501 -58.790545 
L 571.412898 -56.725722 
z
" style="stroke: #ff7f0e; stroke-opacity: 0.2"/>
    </defs>
    <g clip-path="url(#p3a6a5f5755)">
     <use xlink:href="#m76ae6e3a8f" x="0" y="280.142031" style="fill: #ff7f0e; fill-opacity: 0.2; stroke: #ff7f0e; stroke-opacity: 0.2"/>
    </g>
   </g>
   <g id="PolyCollection_15">
    <defs>
     <path id="m2382bb69df" d="M 571.412898 -56.839046 
L 571.412898 -55.977251 
L 580.599501 -56.915003 
L 589.786103 -57.963796 
L 598.972706 -59.518942 
L 608.159309 -60.457652 
L 617.345912 -61.746794 
L 626.532515 -63.749121 
L 635.719118 -66.143793 
L 644.905721 -67.829661 
L 654.092324 -70.961899 
L 663.278926 -73.09889 
L 672.465529 -74.475289 
L 681.652132 -77.972683 
L 690.838735 -79.359105 
L 700.025338 -84.118204 
L 709.211941 -88.322877 
L 718.398544 -91.99996 
L 727.585147 -90.771706 
L 736.771749 -97.350925 
L 745.958352 -100.785043 
L 745.958352 -210.596444 
L 745.958352 -210.596444 
L 736.771749 -188.037053 
L 727.585147 -174.135555 
L 718.398544 -169.164138 
L 709.211941 -159.007469 
L 700.025338 -145.243979 
L 690.838735 -128.788685 
L 681.652132 -124.455361 
L 672.465529 -113.169934 
L 663.278926 -109.603192 
L 654.092324 -97.891845 
L 644.905721 -91.058116 
L 635.719118 -85.235335 
L 626.532515 -79.665171 
L 617.345912 -74.018201 
L 608.159309 -68.802322 
L 598.972706 -65.802853 
L 589.786103 -61.708744 
L 580.599501 -59.353219 
L 571.412898 -56.839046 
z
" style="stroke: #2ca02c; stroke-opacity: 0.2"/>
    </defs>
    <g clip-path="url(#p3a6a5f5755)">
     <use xlink:href="#m2382bb69df" x="0" y="280.142031" style="fill: #2ca02c; fill-opacity: 0.2; stroke: #2ca02c; stroke-opacity: 0.2"/>
    </g>
   </g>
   <g id="PolyCollection_16">
    <defs>
     <path id="m7b9c688dd0" d="M 571.412898 -162.994288 
L 571.412898 -135.840578 
L 580.599501 -136.815372 
L 589.786103 -137.596717 
L 598.972706 -139.807514 
L 608.159309 -144.221511 
L 617.345912 -143.410035 
L 626.532515 -148.588244 
L 635.719118 -148.667412 
L 644.905721 -152.061114 
L 654.092324 -155.013459 
L 663.278926 -159.006065 
L 672.465529 -164.268911 
L 681.652132 -167.381459 
L 690.838735 -171.058342 
L 700.025338 -172.974857 
L 709.211941 -180.239646 
L 718.398544 -183.095082 
L 727.585147 -195.785739 
L 736.771749 -198.251875 
L 745.958352 -204.48724 
L 745.958352 -248.677552 
L 745.958352 -248.677552 
L 736.771749 -240.589989 
L 727.585147 -235.241146 
L 718.398544 -223.014839 
L 709.211941 -219.982864 
L 700.025338 -209.576936 
L 690.838735 -207.598915 
L 681.652132 -203.983959 
L 672.465529 -199.83696 
L 663.278926 -191.41458 
L 654.092324 -186.381289 
L 644.905721 -183.574464 
L 635.719118 -179.366795 
L 626.532515 -177.576544 
L 617.345912 -171.637831 
L 608.159309 -172.441061 
L 598.972706 -168.872142 
L 589.786103 -165.117503 
L 580.599501 -165.458466 
L 571.412898 -162.994288 
z
" style="stroke: #1f77b4; stroke-opacity: 0.2"/>
    </defs>
    <g clip-path="url(#p3a6a5f5755)">
     <use xlink:href="#m7b9c688dd0" x="0" y="280.142031" style="fill: #1f77b4; fill-opacity: 0.2; stroke: #1f77b4; stroke-opacity: 0.2"/>
    </g>
   </g>
   <g id="PolyCollection_17">
    <defs>
     <path id="m9b25ce3f2a" d="M 571.412898 -172.704789 
L 571.412898 -140.855011 
L 580.599501 -145.121898 
L 589.786103 -144.476887 
L 598.972706 -147.54278 
L 608.159309 -151.134518 
L 617.345912 -151.903978 
L 626.532515 -152.788199 
L 635.719118 -155.169095 
L 644.905721 -160.488309 
L 654.092324 -159.788112 
L 663.278926 -164.796359 
L 672.465529 -170.483492 
L 681.652132 -171.058936 
L 690.838735 -174.948711 
L 700.025338 -182.491776 
L 709.211941 -185.138335 
L 718.398544 -190.391339 
L 727.585147 -194.620876 
L 736.771749 -198.743853 
L 745.958352 -203.763592 
L 745.958352 -251.725409 
L 745.958352 -251.725409 
L 736.771749 -246.656957 
L 727.585147 -239.976783 
L 718.398544 -234.538614 
L 709.211941 -225.762221 
L 700.025338 -225.080851 
L 690.838735 -213.79621 
L 681.652132 -210.048543 
L 672.465529 -210.844051 
L 663.278926 -202.281543 
L 654.092324 -195.844523 
L 644.905721 -197.17416 
L 635.719118 -192.335383 
L 626.532515 -186.359625 
L 617.345912 -185.748727 
L 608.159309 -187.330591 
L 598.972706 -180.232728 
L 589.786103 -177.312242 
L 580.599501 -177.169882 
L 571.412898 -172.704789 
z
" style="stroke: #ff7f0e; stroke-opacity: 0.2"/>
    </defs>
    <g clip-path="url(#p3a6a5f5755)">
     <use xlink:href="#m9b25ce3f2a" x="0" y="280.142031" style="fill: #ff7f0e; fill-opacity: 0.2; stroke: #ff7f0e; stroke-opacity: 0.2"/>
    </g>
   </g>
   <g id="PolyCollection_18">
    <defs>
     <path id="md1dc306d19" d="M 571.412898 -181.683316 
L 571.412898 -145.929068 
L 580.599501 -147.833131 
L 589.786103 -149.718897 
L 598.972706 -150.95448 
L 608.159309 -152.606088 
L 617.345912 -155.284837 
L 626.532515 -153.847603 
L 635.719118 -156.595347 
L 644.905721 -162.431189 
L 654.092324 -161.115042 
L 663.278926 -166.11043 
L 672.465529 -170.501113 
L 681.652132 -176.050361 
L 690.838735 -178.107931 
L 700.025338 -182.269723 
L 709.211941 -185.751908 
L 718.398544 -189.379021 
L 727.585147 -199.137995 
L 736.771749 -197.435095 
L 745.958352 -206.284598 
L 745.958352 -257.543125 
L 745.958352 -257.543125 
L 736.771749 -247.580532 
L 727.585147 -247.275555 
L 718.398544 -236.503475 
L 709.211941 -232.383701 
L 700.025338 -226.42294 
L 690.838735 -222.426957 
L 681.652132 -217.544758 
L 672.465529 -211.516364 
L 663.278926 -207.436118 
L 654.092324 -197.615102 
L 644.905721 -201.621056 
L 635.719118 -192.80198 
L 626.532515 -190.25561 
L 617.345912 -192.132164 
L 608.159309 -187.481487 
L 598.972706 -187.314896 
L 589.786103 -187.270065 
L 580.599501 -183.821339 
L 571.412898 -181.683316 
z
" style="stroke: #2ca02c; stroke-opacity: 0.2"/>
    </defs>
    <g clip-path="url(#p3a6a5f5755)">
     <use xlink:href="#md1dc306d19" x="0" y="280.142031" style="fill: #2ca02c; fill-opacity: 0.2; stroke: #2ca02c; stroke-opacity: 0.2"/>
    </g>
   </g>
   <g id="line2d_75">
    <path d="M 571.412898 223.875939 
L 580.599501 222.437743 
L 589.786103 220.182102 
L 598.972706 217.253171 
L 608.159309 214.476763 
L 617.345912 210.579307 
L 626.532515 206.393177 
L 635.719118 200.646403 
L 644.905721 197.487138 
L 654.092324 191.800361 
L 663.278926 183.949771 
L 672.465529 180.080153 
L 681.652132 175.352816 
L 690.838735 165.960807 
L 700.025338 159.174473 
L 709.211941 150.22369 
L 718.398544 144.742376 
L 727.585147 138.603274 
L 736.771749 126.542019 
L 745.958352 123.324932 
" clip-path="url(#p3a6a5f5755)" style="fill: none; stroke-dasharray: 7.4,3.2; stroke-dashoffset: 0; stroke: #1f77b4; stroke-width: 2"/>
   </g>
   <g id="line2d_76">
    <path d="M 571.412898 223.800492 
L 580.599501 222.422897 
L 589.786103 220.199052 
L 598.972706 217.869189 
L 608.159309 215.161471 
L 617.345912 211.843303 
L 626.532515 208.281298 
L 635.719118 202.910971 
L 644.905721 200.645636 
L 654.092324 194.100987 
L 663.278926 190.967991 
L 672.465529 184.482966 
L 681.652132 177.384502 
L 690.838735 171.939318 
L 700.025338 164.171905 
L 709.211941 155.329527 
L 718.398544 149.431667 
L 727.585147 141.247804 
L 736.771749 136.183479 
L 745.958352 122.441108 
" clip-path="url(#p3a6a5f5755)" style="fill: none; stroke-dasharray: 7.4,3.2; stroke-dashoffset: 0; stroke: #ff7f0e; stroke-width: 2"/>
   </g>
   <g id="line2d_77">
    <path d="M 571.412898 223.759906 
L 580.599501 222.067019 
L 589.786103 220.332075 
L 598.972706 217.737584 
L 608.159309 215.693129 
L 617.345912 212.571901 
L 626.532515 208.94587 
L 635.719118 205.4554 
L 644.905721 201.616446 
L 654.092324 197.321282 
L 663.278926 190.844705 
L 672.465529 187.345998 
L 681.652132 180.210934 
L 690.838735 176.197558 
L 700.025338 168.341378 
L 709.211941 158.411446 
L 718.398544 153.291203 
L 727.585147 150.097572 
L 736.771749 138.943844 
L 745.958352 130.602314 
" clip-path="url(#p3a6a5f5755)" style="fill: none; stroke-dasharray: 7.4,3.2; stroke-dashoffset: 0; stroke: #2ca02c; stroke-width: 2"/>
   </g>
   <g id="line2d_78"/>
   <g id="line2d_79"/>
   <g id="line2d_80"/>
   <g id="line2d_81">
    <path d="M 571.412898 130.676064 
L 580.599501 129.78034 
L 589.786103 128.609041 
L 598.972706 126.382526 
L 608.159309 122.485713 
L 617.345912 122.371468 
L 626.532515 118.073695 
L 635.719118 116.153868 
L 644.905721 113.133976 
L 654.092324 110.2291 
L 663.278926 105.48667 
L 672.465529 98.553819 
L 681.652132 95.58012 
L 690.838735 91.116644 
L 700.025338 88.880233 
L 709.211941 79.822567 
L 718.398544 76.487877 
L 727.585147 66.058491 
L 736.771749 62.046707 
L 745.958352 54.639724 
" clip-path="url(#p3a6a5f5755)" style="fill: none; stroke: #1f77b4; stroke-width: 2; stroke-linecap: round"/>
   </g>
   <g id="line2d_82">
    <path d="M 571.412898 123.853985 
L 580.599501 119.577928 
L 589.786103 119.133901 
L 598.972706 117.168191 
L 608.159309 110.943962 
L 617.345912 112.291973 
L 626.532515 110.897226 
L 635.719118 106.214644 
L 644.905721 102.11506 
L 654.092324 102.577323 
L 663.278926 95.568437 
L 672.465529 90.654224 
L 681.652132 89.82497 
L 690.838735 86.250204 
L 700.025338 77.618076 
L 709.211941 75.327217 
L 718.398544 68.281754 
L 727.585147 65.030715 
L 736.771749 57.444338 
L 745.958352 51.89072 
" clip-path="url(#p3a6a5f5755)" style="fill: none; stroke: #ff7f0e; stroke-width: 2; stroke-linecap: round"/>
   </g>
   <g id="line2d_83">
    <path d="M 571.412898 116.838132 
L 580.599501 114.83992 
L 589.786103 112.377749 
L 598.972706 110.019927 
L 608.159309 110.601545 
L 617.345912 107.898153 
L 626.532515 108.842153 
L 635.719118 106.181001 
L 644.905721 99.060679 
L 654.092324 101.513298 
L 663.278926 94.426671 
L 672.465529 89.43446 
L 681.652132 83.888167 
L 690.838735 80.597962 
L 700.025338 76.287726 
L 709.211941 71.89651 
L 718.398544 68.61295 
L 727.585147 58.005433 
L 736.771749 59.121737 
L 745.958352 49.401244 
" clip-path="url(#p3a6a5f5755)" style="fill: none; stroke: #2ca02c; stroke-width: 2; stroke-linecap: round"/>
   </g>
   <g id="line2d_84"/>
   <g id="line2d_85"/>
   <g id="line2d_86"/>
   <g id="patch_15">
    <path d="M 562.685625 234.278906 
L 562.685625 12.518906 
" style="fill: none; stroke: #cccccc; stroke-width: 1.25; stroke-linejoin: miter; stroke-linecap: square"/>
   </g>
   <g id="patch_16">
    <path d="M 754.685625 234.278906 
L 754.685625 12.518906 
" style="fill: none; stroke: #cccccc; stroke-width: 1.25; stroke-linejoin: miter; stroke-linecap: square"/>
   </g>
   <g id="patch_17">
    <path d="M 562.685625 234.278906 
L 754.685625 234.278906 
" style="fill: none; stroke: #cccccc; stroke-width: 1.25; stroke-linejoin: miter; stroke-linecap: square"/>
   </g>
   <g id="patch_18">
    <path d="M 562.685625 12.518906 
L 754.685625 12.518906 
" style="fill: none; stroke: #cccccc; stroke-width: 1.25; stroke-linejoin: miter; stroke-linecap: square"/>
   </g>
   <g id="legend_3">
    <g id="patch_19">
     <path d="M 570.385625 135.642031 
L 631.275625 135.642031 
Q 633.475625 135.642031 633.475625 133.442031 
L 633.475625 20.218906 
Q 633.475625 18.018906 631.275625 18.018906 
L 570.385625 18.018906 
Q 568.185625 18.018906 568.185625 20.218906 
L 568.185625 133.442031 
Q 568.185625 135.642031 570.385625 135.642031 
z
" style="fill: #ffffff; opacity: 0.8; stroke: #cccccc; stroke-linejoin: miter"/>
    </g>
    <g id="text_60">
     <!-- noise_std -->
     <g style="fill: #262626" transform="translate(572.585625 31.537031) scale(0.12 -0.12)">
      <use xlink:href="#DejaVuSans-6e"/>
      <use xlink:href="#DejaVuSans-6f" x="63.378906"/>
      <use xlink:href="#DejaVuSans-69" x="124.560547"/>
      <use xlink:href="#DejaVuSans-73" x="152.34375"/>
      <use xlink:href="#DejaVuSans-65" x="204.443359"/>
      <use xlink:href="#DejaVuSans-5f" x="265.966797"/>
      <use xlink:href="#DejaVuSans-73" x="315.966797"/>
      <use xlink:href="#DejaVuSans-74" x="368.066406"/>
      <use xlink:href="#DejaVuSans-64" x="407.275391"/>
     </g>
    </g>
    <g id="line2d_87">
     <path d="M 576.683906 44.374687 
L 587.683906 44.374687 
L 598.683906 44.374687 
" style="fill: none; stroke-dasharray: 7.4,3.2; stroke-dashoffset: 0; stroke: #1f77b4; stroke-width: 2"/>
    </g>
    <g id="text_61">
     <!-- 0.1 -->
     <g style="fill: #262626" transform="translate(607.483906 48.224687) scale(0.11 -0.11)">
      <use xlink:href="#DejaVuSans-30"/>
      <use xlink:href="#DejaVuSans-2e" x="63.623047"/>
      <use xlink:href="#DejaVuSans-31" x="95.410156"/>
     </g>
    </g>
    <g id="line2d_88">
     <path d="M 576.683906 60.520625 
L 587.683906 60.520625 
L 598.683906 60.520625 
" style="fill: none; stroke-dasharray: 7.4,3.2; stroke-dashoffset: 0; stroke: #ff7f0e; stroke-width: 2"/>
    </g>
    <g id="text_62">
     <!-- 0.3 -->
     <g style="fill: #262626" transform="translate(607.483906 64.370625) scale(0.11 -0.11)">
      <use xlink:href="#DejaVuSans-30"/>
      <use xlink:href="#DejaVuSans-2e" x="63.623047"/>
      <use xlink:href="#DejaVuSans-33" x="95.410156"/>
     </g>
    </g>
    <g id="line2d_89">
     <path d="M 576.683906 76.666562 
L 587.683906 76.666562 
L 598.683906 76.666562 
" style="fill: none; stroke-dasharray: 7.4,3.2; stroke-dashoffset: 0; stroke: #2ca02c; stroke-width: 2"/>
    </g>
    <g id="text_63">
     <!-- 0.5 -->
     <g style="fill: #262626" transform="translate(607.483906 80.516562) scale(0.11 -0.11)">
      <use xlink:href="#DejaVuSans-30"/>
      <use xlink:href="#DejaVuSans-2e" x="63.623047"/>
      <use xlink:href="#DejaVuSans-35" x="95.410156"/>
     </g>
    </g>
    <g id="line2d_90">
     <path d="M 576.683906 92.8125 
L 587.683906 92.8125 
L 598.683906 92.8125 
" style="fill: none; stroke: #1f77b4; stroke-width: 2; stroke-linecap: round"/>
    </g>
    <g id="text_64">
     <!-- 0.1 -->
     <g style="fill: #262626" transform="translate(607.483906 96.6625) scale(0.11 -0.11)">
      <use xlink:href="#DejaVuSans-30"/>
      <use xlink:href="#DejaVuSans-2e" x="63.623047"/>
      <use xlink:href="#DejaVuSans-31" x="95.410156"/>
     </g>
    </g>
    <g id="line2d_91">
     <path d="M 576.683906 108.958438 
L 587.683906 108.958438 
L 598.683906 108.958438 
" style="fill: none; stroke: #ff7f0e; stroke-width: 2; stroke-linecap: round"/>
    </g>
    <g id="text_65">
     <!-- 0.3 -->
     <g style="fill: #262626" transform="translate(607.483906 112.808437) scale(0.11 -0.11)">
      <use xlink:href="#DejaVuSans-30"/>
      <use xlink:href="#DejaVuSans-2e" x="63.623047"/>
      <use xlink:href="#DejaVuSans-33" x="95.410156"/>
     </g>
    </g>
    <g id="line2d_92">
     <path d="M 576.683906 125.104375 
L 587.683906 125.104375 
L 598.683906 125.104375 
" style="fill: none; stroke: #2ca02c; stroke-width: 2; stroke-linecap: round"/>
    </g>
    <g id="text_66">
     <!-- 0.5 -->
     <g style="fill: #262626" transform="translate(607.483906 128.954375) scale(0.11 -0.11)">
      <use xlink:href="#DejaVuSans-30"/>
      <use xlink:href="#DejaVuSans-2e" x="63.623047"/>
      <use xlink:href="#DejaVuSans-35" x="95.410156"/>
     </g>
    </g>
   </g>
  </g>
 </g>
 <defs>
  <clipPath id="pf347b4910f">
   <rect x="63.485625" y="12.518906" width="192" height="221.76"/>
  </clipPath>
  <clipPath id="p2925a449cc">
   <rect x="313.085625" y="12.518906" width="192" height="221.76"/>
  </clipPath>
  <clipPath id="p3a6a5f5755">
   <rect x="562.685625" y="12.518906" width="192" height="221.76"/>
  </clipPath>
 </defs>
</svg>
