<?xml version="1.0" encoding="utf-8" standalone="no"?>
<!DOCTYPE svg PUBLIC "-//W3C//DTD SVG 1.1//EN"
  "http://www.w3.org/Graphics/SVG/1.1/DTD/svg11.dtd">
<svg xmlns:xlink="http://www.w3.org/1999/xlink" width="423.6225pt" height="278.1075pt" viewBox="0 0 423.6225 278.1075" xmlns="http://www.w3.org/2000/svg" version="1.1">
 <metadata>
  <rdf:RDF xmlns:dc="http://purl.org/dc/elements/1.1/" xmlns:cc="http://creativecommons.org/ns#" xmlns:rdf="http://www.w3.org/1999/02/22-rdf-syntax-ns#">
   <cc:Work>
    <dc:type rdf:resource="http://purl.org/dc/dcmitype/StillImage"/>
    <dc:date>2024-01-19T12:29:12.076961</dc:date>
    <dc:format>image/svg+xml</dc:format>
    <dc:creator>
     <cc:Agent>
      <dc:title>Matplotlib v3.7.2, https://matplotlib.org/</dc:title>
     </cc:Agent>
    </dc:creator>
   </cc:Work>
  </rdf:RDF>
 </metadata>
 <defs>
  <style type="text/css">*{stroke-linejoin: round; stroke-linecap: butt}</style>
 </defs>
 <g id="figure_1">
  <g id="patch_1">
   <path d="M 0 278.1075 
L 423.6225 278.1075 
L 423.6225 0 
L 0 0 
z
" style="fill: #ffffff"/>
  </g>
  <g id="axes_1">
   <g id="patch_2">
    <path d="M 56.5325 236.68 
L 416.4225 236.68 
L 416.4225 7.2 
L 56.5325 7.2 
z
" style="fill: #ffffff"/>
   </g>
   <g id="matplotlib.axis_1">
    <g id="xtick_1">
     <g id="line2d_1">
      <defs>
       <path id="m2f57ad08c1" d="M 0 0 
L 0 3.5 
" style="stroke: #000000; stroke-width: 0.8"/>
      </defs>
      <g>
       <use xlink:href="#m2f57ad08c1" x="72.891136" y="236.68" style="stroke: #000000; stroke-width: 0.8"/>
      </g>
     </g>
     <g id="text_1">
      <!-- 0.0 -->
      <g transform="translate(63.349261 252.798125) scale(0.12 -0.12)">
       <defs>
        <path id="DejaVuSans-30" d="M 2034 4250 
Q 1547 4250 1301 3770 
Q 1056 3291 1056 2328 
Q 1056 1369 1301 889 
Q 1547 409 2034 409 
Q 2525 409 2770 889 
Q 3016 1369 3016 2328 
Q 3016 3291 2770 3770 
Q 2525 4250 2034 4250 
z
M 2034 4750 
Q 2819 4750 3233 4129 
Q 3647 3509 3647 2328 
Q 3647 1150 3233 529 
Q 2819 -91 2034 -91 
Q 1250 -91 836 529 
Q 422 1150 422 2328 
Q 422 3509 836 4129 
Q 1250 4750 2034 4750 
z
" transform="scale(0.015625)"/>
        <path id="DejaVuSans-2e" d="M 684 794 
L 1344 794 
L 1344 0 
L 684 0 
L 684 794 
z
" transform="scale(0.015625)"/>
       </defs>
       <use xlink:href="#DejaVuSans-30"/>
       <use xlink:href="#DejaVuSans-2e" x="63.623047"/>
       <use xlink:href="#DejaVuSans-30" x="95.410156"/>
      </g>
     </g>
    </g>
    <g id="xtick_2">
     <g id="line2d_2">
      <g>
       <use xlink:href="#m2f57ad08c1" x="138.325682" y="236.68" style="stroke: #000000; stroke-width: 0.8"/>
      </g>
     </g>
     <g id="text_2">
      <!-- 0.2 -->
      <g transform="translate(128.783807 252.798125) scale(0.12 -0.12)">
       <defs>
        <path id="DejaVuSans-32" d="M 1228 531 
L 3431 531 
L 3431 0 
L 469 0 
L 469 531 
Q 828 903 1448 1529 
Q 2069 2156 2228 2338 
Q 2531 2678 2651 2914 
Q 2772 3150 2772 3378 
Q 2772 3750 2511 3984 
Q 2250 4219 1831 4219 
Q 1534 4219 1204 4116 
Q 875 4013 500 3803 
L 500 4441 
Q 881 4594 1212 4672 
Q 1544 4750 1819 4750 
Q 2544 4750 2975 4387 
Q 3406 4025 3406 3419 
Q 3406 3131 3298 2873 
Q 3191 2616 2906 2266 
Q 2828 2175 2409 1742 
Q 1991 1309 1228 531 
z
" transform="scale(0.015625)"/>
       </defs>
       <use xlink:href="#DejaVuSans-30"/>
       <use xlink:href="#DejaVuSans-2e" x="63.623047"/>
       <use xlink:href="#DejaVuSans-32" x="95.410156"/>
      </g>
     </g>
    </g>
    <g id="xtick_3">
     <g id="line2d_3">
      <g>
       <use xlink:href="#m2f57ad08c1" x="203.760227" y="236.68" style="stroke: #000000; stroke-width: 0.8"/>
      </g>
     </g>
     <g id="text_3">
      <!-- 0.4 -->
      <g transform="translate(194.218352 252.798125) scale(0.12 -0.12)">
       <defs>
        <path id="DejaVuSans-34" d="M 2419 4116 
L 825 1625 
L 2419 1625 
L 2419 4116 
z
M 2253 4666 
L 3047 4666 
L 3047 1625 
L 3713 1625 
L 3713 1100 
L 3047 1100 
L 3047 0 
L 2419 0 
L 2419 1100 
L 313 1100 
L 313 1709 
L 2253 4666 
z
" transform="scale(0.015625)"/>
       </defs>
       <use xlink:href="#DejaVuSans-30"/>
       <use xlink:href="#DejaVuSans-2e" x="63.623047"/>
       <use xlink:href="#DejaVuSans-34" x="95.410156"/>
      </g>
     </g>
    </g>
    <g id="xtick_4">
     <g id="line2d_4">
      <g>
       <use xlink:href="#m2f57ad08c1" x="269.194773" y="236.68" style="stroke: #000000; stroke-width: 0.8"/>
      </g>
     </g>
     <g id="text_4">
      <!-- 0.6 -->
      <g transform="translate(259.652898 252.798125) scale(0.12 -0.12)">
       <defs>
        <path id="DejaVuSans-36" d="M 2113 2584 
Q 1688 2584 1439 2293 
Q 1191 2003 1191 1497 
Q 1191 994 1439 701 
Q 1688 409 2113 409 
Q 2538 409 2786 701 
Q 3034 994 3034 1497 
Q 3034 2003 2786 2293 
Q 2538 2584 2113 2584 
z
M 3366 4563 
L 3366 3988 
Q 3128 4100 2886 4159 
Q 2644 4219 2406 4219 
Q 1781 4219 1451 3797 
Q 1122 3375 1075 2522 
Q 1259 2794 1537 2939 
Q 1816 3084 2150 3084 
Q 2853 3084 3261 2657 
Q 3669 2231 3669 1497 
Q 3669 778 3244 343 
Q 2819 -91 2113 -91 
Q 1303 -91 875 529 
Q 447 1150 447 2328 
Q 447 3434 972 4092 
Q 1497 4750 2381 4750 
Q 2619 4750 2861 4703 
Q 3103 4656 3366 4563 
z
" transform="scale(0.015625)"/>
       </defs>
       <use xlink:href="#DejaVuSans-30"/>
       <use xlink:href="#DejaVuSans-2e" x="63.623047"/>
       <use xlink:href="#DejaVuSans-36" x="95.410156"/>
      </g>
     </g>
    </g>
    <g id="xtick_5">
     <g id="line2d_5">
      <g>
       <use xlink:href="#m2f57ad08c1" x="334.629318" y="236.68" style="stroke: #000000; stroke-width: 0.8"/>
      </g>
     </g>
     <g id="text_5">
      <!-- 0.8 -->
      <g transform="translate(325.087443 252.798125) scale(0.12 -0.12)">
       <defs>
        <path id="DejaVuSans-38" d="M 2034 2216 
Q 1584 2216 1326 1975 
Q 1069 1734 1069 1313 
Q 1069 891 1326 650 
Q 1584 409 2034 409 
Q 2484 409 2743 651 
Q 3003 894 3003 1313 
Q 3003 1734 2745 1975 
Q 2488 2216 2034 2216 
z
M 1403 2484 
Q 997 2584 770 2862 
Q 544 3141 544 3541 
Q 544 4100 942 4425 
Q 1341 4750 2034 4750 
Q 2731 4750 3128 4425 
Q 3525 4100 3525 3541 
Q 3525 3141 3298 2862 
Q 3072 2584 2669 2484 
Q 3125 2378 3379 2068 
Q 3634 1759 3634 1313 
Q 3634 634 3220 271 
Q 2806 -91 2034 -91 
Q 1263 -91 848 271 
Q 434 634 434 1313 
Q 434 1759 690 2068 
Q 947 2378 1403 2484 
z
M 1172 3481 
Q 1172 3119 1398 2916 
Q 1625 2713 2034 2713 
Q 2441 2713 2670 2916 
Q 2900 3119 2900 3481 
Q 2900 3844 2670 4047 
Q 2441 4250 2034 4250 
Q 1625 4250 1398 4047 
Q 1172 3844 1172 3481 
z
" transform="scale(0.015625)"/>
       </defs>
       <use xlink:href="#DejaVuSans-30"/>
       <use xlink:href="#DejaVuSans-2e" x="63.623047"/>
       <use xlink:href="#DejaVuSans-38" x="95.410156"/>
      </g>
     </g>
    </g>
    <g id="xtick_6">
     <g id="line2d_6">
      <g>
       <use xlink:href="#m2f57ad08c1" x="400.063864" y="236.68" style="stroke: #000000; stroke-width: 0.8"/>
      </g>
     </g>
     <g id="text_6">
      <!-- 1.0 -->
      <g transform="translate(390.521989 252.798125) scale(0.12 -0.12)">
       <defs>
        <path id="DejaVuSans-31" d="M 794 531 
L 1825 531 
L 1825 4091 
L 703 3866 
L 703 4441 
L 1819 4666 
L 2450 4666 
L 2450 531 
L 3481 531 
L 3481 0 
L 794 0 
L 794 531 
z
" transform="scale(0.015625)"/>
       </defs>
       <use xlink:href="#DejaVuSans-31"/>
       <use xlink:href="#DejaVuSans-2e" x="63.623047"/>
       <use xlink:href="#DejaVuSans-30" x="95.410156"/>
      </g>
     </g>
    </g>
    <g id="text_7">
     <!-- x -->
     <g transform="translate(232.92625 268.411875) scale(0.12 -0.12)">
      <defs>
       <path id="DejaVuSans-78" d="M 3513 3500 
L 2247 1797 
L 3578 0 
L 2900 0 
L 1881 1375 
L 863 0 
L 184 0 
L 1544 1831 
L 300 3500 
L 978 3500 
L 1906 2253 
L 2834 3500 
L 3513 3500 
z
" transform="scale(0.015625)"/>
      </defs>
      <use xlink:href="#DejaVuSans-78"/>
     </g>
    </g>
   </g>
   <g id="matplotlib.axis_2">
    <g id="ytick_1">
     <g id="line2d_7">
      <defs>
       <path id="md72772d1c9" d="M 0 0 
L -3.5 0 
" style="stroke: #000000; stroke-width: 0.8"/>
      </defs>
      <g>
       <use xlink:href="#md72772d1c9" x="56.5325" y="226.256907" style="stroke: #000000; stroke-width: 0.8"/>
      </g>
     </g>
     <g id="text_8">
      <!-- 0.00 -->
      <g transform="translate(22.81375 230.815969) scale(0.12 -0.12)">
       <use xlink:href="#DejaVuSans-30"/>
       <use xlink:href="#DejaVuSans-2e" x="63.623047"/>
       <use xlink:href="#DejaVuSans-30" x="95.410156"/>
       <use xlink:href="#DejaVuSans-30" x="159.033203"/>
      </g>
     </g>
    </g>
    <g id="ytick_2">
     <g id="line2d_8">
      <g>
       <use xlink:href="#md72772d1c9" x="56.5325" y="200.290424" style="stroke: #000000; stroke-width: 0.8"/>
      </g>
     </g>
     <g id="text_9">
      <!-- 0.05 -->
      <g transform="translate(22.81375 204.849487) scale(0.12 -0.12)">
       <defs>
        <path id="DejaVuSans-35" d="M 691 4666 
L 3169 4666 
L 3169 4134 
L 1269 4134 
L 1269 2991 
Q 1406 3038 1543 3061 
Q 1681 3084 1819 3084 
Q 2600 3084 3056 2656 
Q 3513 2228 3513 1497 
Q 3513 744 3044 326 
Q 2575 -91 1722 -91 
Q 1428 -91 1123 -41 
Q 819 9 494 109 
L 494 744 
Q 775 591 1075 516 
Q 1375 441 1709 441 
Q 2250 441 2565 725 
Q 2881 1009 2881 1497 
Q 2881 1984 2565 2268 
Q 2250 2553 1709 2553 
Q 1456 2553 1204 2497 
Q 953 2441 691 2322 
L 691 4666 
z
" transform="scale(0.015625)"/>
       </defs>
       <use xlink:href="#DejaVuSans-30"/>
       <use xlink:href="#DejaVuSans-2e" x="63.623047"/>
       <use xlink:href="#DejaVuSans-30" x="95.410156"/>
       <use xlink:href="#DejaVuSans-35" x="159.033203"/>
      </g>
     </g>
    </g>
    <g id="ytick_3">
     <g id="line2d_9">
      <g>
       <use xlink:href="#md72772d1c9" x="56.5325" y="174.323942" style="stroke: #000000; stroke-width: 0.8"/>
      </g>
     </g>
     <g id="text_10">
      <!-- 0.10 -->
      <g transform="translate(22.81375 178.883004) scale(0.12 -0.12)">
       <use xlink:href="#DejaVuSans-30"/>
       <use xlink:href="#DejaVuSans-2e" x="63.623047"/>
       <use xlink:href="#DejaVuSans-31" x="95.410156"/>
       <use xlink:href="#DejaVuSans-30" x="159.033203"/>
      </g>
     </g>
    </g>
    <g id="ytick_4">
     <g id="line2d_10">
      <g>
       <use xlink:href="#md72772d1c9" x="56.5325" y="148.357459" style="stroke: #000000; stroke-width: 0.8"/>
      </g>
     </g>
     <g id="text_11">
      <!-- 0.15 -->
      <g transform="translate(22.81375 152.916522) scale(0.12 -0.12)">
       <use xlink:href="#DejaVuSans-30"/>
       <use xlink:href="#DejaVuSans-2e" x="63.623047"/>
       <use xlink:href="#DejaVuSans-31" x="95.410156"/>
       <use xlink:href="#DejaVuSans-35" x="159.033203"/>
      </g>
     </g>
    </g>
    <g id="ytick_5">
     <g id="line2d_11">
      <g>
       <use xlink:href="#md72772d1c9" x="56.5325" y="122.390977" style="stroke: #000000; stroke-width: 0.8"/>
      </g>
     </g>
     <g id="text_12">
      <!-- 0.20 -->
      <g transform="translate(22.81375 126.950039) scale(0.12 -0.12)">
       <use xlink:href="#DejaVuSans-30"/>
       <use xlink:href="#DejaVuSans-2e" x="63.623047"/>
       <use xlink:href="#DejaVuSans-32" x="95.410156"/>
       <use xlink:href="#DejaVuSans-30" x="159.033203"/>
      </g>
     </g>
    </g>
    <g id="ytick_6">
     <g id="line2d_12">
      <g>
       <use xlink:href="#md72772d1c9" x="56.5325" y="96.424495" style="stroke: #000000; stroke-width: 0.8"/>
      </g>
     </g>
     <g id="text_13">
      <!-- 0.25 -->
      <g transform="translate(22.81375 100.983557) scale(0.12 -0.12)">
       <use xlink:href="#DejaVuSans-30"/>
       <use xlink:href="#DejaVuSans-2e" x="63.623047"/>
       <use xlink:href="#DejaVuSans-32" x="95.410156"/>
       <use xlink:href="#DejaVuSans-35" x="159.033203"/>
      </g>
     </g>
    </g>
    <g id="ytick_7">
     <g id="line2d_13">
      <g>
       <use xlink:href="#md72772d1c9" x="56.5325" y="70.458012" style="stroke: #000000; stroke-width: 0.8"/>
      </g>
     </g>
     <g id="text_14">
      <!-- 0.30 -->
      <g transform="translate(22.81375 75.017075) scale(0.12 -0.12)">
       <defs>
        <path id="DejaVuSans-33" d="M 2597 2516 
Q 3050 2419 3304 2112 
Q 3559 1806 3559 1356 
Q 3559 666 3084 287 
Q 2609 -91 1734 -91 
Q 1441 -91 1130 -33 
Q 819 25 488 141 
L 488 750 
Q 750 597 1062 519 
Q 1375 441 1716 441 
Q 2309 441 2620 675 
Q 2931 909 2931 1356 
Q 2931 1769 2642 2001 
Q 2353 2234 1838 2234 
L 1294 2234 
L 1294 2753 
L 1863 2753 
Q 2328 2753 2575 2939 
Q 2822 3125 2822 3475 
Q 2822 3834 2567 4026 
Q 2313 4219 1838 4219 
Q 1578 4219 1281 4162 
Q 984 4106 628 3988 
L 628 4550 
Q 988 4650 1302 4700 
Q 1616 4750 1894 4750 
Q 2613 4750 3031 4423 
Q 3450 4097 3450 3541 
Q 3450 3153 3228 2886 
Q 3006 2619 2597 2516 
z
" transform="scale(0.015625)"/>
       </defs>
       <use xlink:href="#DejaVuSans-30"/>
       <use xlink:href="#DejaVuSans-2e" x="63.623047"/>
       <use xlink:href="#DejaVuSans-33" x="95.410156"/>
       <use xlink:href="#DejaVuSans-30" x="159.033203"/>
      </g>
     </g>
    </g>
    <g id="ytick_8">
     <g id="line2d_14">
      <g>
       <use xlink:href="#md72772d1c9" x="56.5325" y="44.49153" style="stroke: #000000; stroke-width: 0.8"/>
      </g>
     </g>
     <g id="text_15">
      <!-- 0.35 -->
      <g transform="translate(22.81375 49.050592) scale(0.12 -0.12)">
       <use xlink:href="#DejaVuSans-30"/>
       <use xlink:href="#DejaVuSans-2e" x="63.623047"/>
       <use xlink:href="#DejaVuSans-33" x="95.410156"/>
       <use xlink:href="#DejaVuSans-35" x="159.033203"/>
      </g>
     </g>
    </g>
    <g id="ytick_9">
     <g id="line2d_15">
      <g>
       <use xlink:href="#md72772d1c9" x="56.5325" y="18.525047" style="stroke: #000000; stroke-width: 0.8"/>
      </g>
     </g>
     <g id="text_16">
      <!-- 0.40 -->
      <g transform="translate(22.81375 23.08411) scale(0.12 -0.12)">
       <use xlink:href="#DejaVuSans-30"/>
       <use xlink:href="#DejaVuSans-2e" x="63.623047"/>
       <use xlink:href="#DejaVuSans-34" x="95.410156"/>
       <use xlink:href="#DejaVuSans-30" x="159.033203"/>
      </g>
     </g>
    </g>
    <g id="text_17">
     <!-- Absolute error -->
     <g transform="translate(16.318125 164.593437) rotate(-90) scale(0.12 -0.12)">
      <defs>
       <path id="DejaVuSans-41" d="M 2188 4044 
L 1331 1722 
L 3047 1722 
L 2188 4044 
z
M 1831 4666 
L 2547 4666 
L 4325 0 
L 3669 0 
L 3244 1197 
L 1141 1197 
L 716 0 
L 50 0 
L 1831 4666 
z
" transform="scale(0.015625)"/>
       <path id="DejaVuSans-62" d="M 3116 1747 
Q 3116 2381 2855 2742 
Q 2594 3103 2138 3103 
Q 1681 3103 1420 2742 
Q 1159 2381 1159 1747 
Q 1159 1113 1420 752 
Q 1681 391 2138 391 
Q 2594 391 2855 752 
Q 3116 1113 3116 1747 
z
M 1159 2969 
Q 1341 3281 1617 3432 
Q 1894 3584 2278 3584 
Q 2916 3584 3314 3078 
Q 3713 2572 3713 1747 
Q 3713 922 3314 415 
Q 2916 -91 2278 -91 
Q 1894 -91 1617 61 
Q 1341 213 1159 525 
L 1159 0 
L 581 0 
L 581 4863 
L 1159 4863 
L 1159 2969 
z
" transform="scale(0.015625)"/>
       <path id="DejaVuSans-73" d="M 2834 3397 
L 2834 2853 
Q 2591 2978 2328 3040 
Q 2066 3103 1784 3103 
Q 1356 3103 1142 2972 
Q 928 2841 928 2578 
Q 928 2378 1081 2264 
Q 1234 2150 1697 2047 
L 1894 2003 
Q 2506 1872 2764 1633 
Q 3022 1394 3022 966 
Q 3022 478 2636 193 
Q 2250 -91 1575 -91 
Q 1294 -91 989 -36 
Q 684 19 347 128 
L 347 722 
Q 666 556 975 473 
Q 1284 391 1588 391 
Q 1994 391 2212 530 
Q 2431 669 2431 922 
Q 2431 1156 2273 1281 
Q 2116 1406 1581 1522 
L 1381 1569 
Q 847 1681 609 1914 
Q 372 2147 372 2553 
Q 372 3047 722 3315 
Q 1072 3584 1716 3584 
Q 2034 3584 2315 3537 
Q 2597 3491 2834 3397 
z
" transform="scale(0.015625)"/>
       <path id="DejaVuSans-6f" d="M 1959 3097 
Q 1497 3097 1228 2736 
Q 959 2375 959 1747 
Q 959 1119 1226 758 
Q 1494 397 1959 397 
Q 2419 397 2687 759 
Q 2956 1122 2956 1747 
Q 2956 2369 2687 2733 
Q 2419 3097 1959 3097 
z
M 1959 3584 
Q 2709 3584 3137 3096 
Q 3566 2609 3566 1747 
Q 3566 888 3137 398 
Q 2709 -91 1959 -91 
Q 1206 -91 779 398 
Q 353 888 353 1747 
Q 353 2609 779 3096 
Q 1206 3584 1959 3584 
z
" transform="scale(0.015625)"/>
       <path id="DejaVuSans-6c" d="M 603 4863 
L 1178 4863 
L 1178 0 
L 603 0 
L 603 4863 
z
" transform="scale(0.015625)"/>
       <path id="DejaVuSans-75" d="M 544 1381 
L 544 3500 
L 1119 3500 
L 1119 1403 
Q 1119 906 1312 657 
Q 1506 409 1894 409 
Q 2359 409 2629 706 
Q 2900 1003 2900 1516 
L 2900 3500 
L 3475 3500 
L 3475 0 
L 2900 0 
L 2900 538 
Q 2691 219 2414 64 
Q 2138 -91 1772 -91 
Q 1169 -91 856 284 
Q 544 659 544 1381 
z
M 1991 3584 
L 1991 3584 
z
" transform="scale(0.015625)"/>
       <path id="DejaVuSans-74" d="M 1172 4494 
L 1172 3500 
L 2356 3500 
L 2356 3053 
L 1172 3053 
L 1172 1153 
Q 1172 725 1289 603 
Q 1406 481 1766 481 
L 2356 481 
L 2356 0 
L 1766 0 
Q 1100 0 847 248 
Q 594 497 594 1153 
L 594 3053 
L 172 3053 
L 172 3500 
L 594 3500 
L 594 4494 
L 1172 4494 
z
" transform="scale(0.015625)"/>
       <path id="DejaVuSans-65" d="M 3597 1894 
L 3597 1613 
L 953 1613 
Q 991 1019 1311 708 
Q 1631 397 2203 397 
Q 2534 397 2845 478 
Q 3156 559 3463 722 
L 3463 178 
Q 3153 47 2828 -22 
Q 2503 -91 2169 -91 
Q 1331 -91 842 396 
Q 353 884 353 1716 
Q 353 2575 817 3079 
Q 1281 3584 2069 3584 
Q 2775 3584 3186 3129 
Q 3597 2675 3597 1894 
z
M 3022 2063 
Q 3016 2534 2758 2815 
Q 2500 3097 2075 3097 
Q 1594 3097 1305 2825 
Q 1016 2553 972 2059 
L 3022 2063 
z
" transform="scale(0.015625)"/>
       <path id="DejaVuSans-20" transform="scale(0.015625)"/>
       <path id="DejaVuSans-72" d="M 2631 2963 
Q 2534 3019 2420 3045 
Q 2306 3072 2169 3072 
Q 1681 3072 1420 2755 
Q 1159 2438 1159 1844 
L 1159 0 
L 581 0 
L 581 3500 
L 1159 3500 
L 1159 2956 
Q 1341 3275 1631 3429 
Q 1922 3584 2338 3584 
Q 2397 3584 2469 3576 
Q 2541 3569 2628 3553 
L 2631 2963 
z
" transform="scale(0.015625)"/>
      </defs>
      <use xlink:href="#DejaVuSans-41"/>
      <use xlink:href="#DejaVuSans-62" x="68.408203"/>
      <use xlink:href="#DejaVuSans-73" x="131.884766"/>
      <use xlink:href="#DejaVuSans-6f" x="183.984375"/>
      <use xlink:href="#DejaVuSans-6c" x="245.166016"/>
      <use xlink:href="#DejaVuSans-75" x="272.949219"/>
      <use xlink:href="#DejaVuSans-74" x="336.328125"/>
      <use xlink:href="#DejaVuSans-65" x="375.537109"/>
      <use xlink:href="#DejaVuSans-20" x="437.060547"/>
      <use xlink:href="#DejaVuSans-65" x="468.847656"/>
      <use xlink:href="#DejaVuSans-72" x="530.371094"/>
      <use xlink:href="#DejaVuSans-72" x="569.734375"/>
      <use xlink:href="#DejaVuSans-6f" x="608.597656"/>
      <use xlink:href="#DejaVuSans-72" x="669.779297"/>
     </g>
    </g>
   </g>
   <g id="line2d_16">
    <path d="M 72.891136 211.219571 
L 73.218309 222.998927 
L 73.545482 226.084202 
L 73.872655 221.966588 
L 74.854173 198.851502 
L 75.181346 194.253238 
L 75.508518 191.771588 
L 75.835691 190.776221 
L 76.162864 190.548911 
L 76.490037 190.502696 
L 76.817209 190.252266 
L 77.144382 189.623736 
L 77.798727 187.277512 
L 79.761764 178.143431 
L 80.088937 177.501033 
L 80.41611 177.552093 
L 80.743282 178.396252 
L 81.070455 180.03755 
L 81.7248 185.606257 
L 82.379146 194.117789 
L 83.360664 210.99577 
L 84.01501 223.01712 
L 84.342182 223.879388 
L 84.996527 214.258246 
L 85.650873 207.32711 
L 86.305219 203.21546 
L 86.632392 202.172047 
L 86.959564 201.760291 
L 87.286738 201.939269 
L 87.61391 202.662365 
L 88.268255 205.506523 
L 88.922601 209.76338 
L 90.885637 224.772517 
L 91.21281 225.70567 
L 91.867155 222.592518 
L 92.194329 221.603894 
L 92.521501 221.040028 
L 92.848674 220.925868 
L 93.175846 221.278068 
L 93.503019 222.105914 
L 93.830192 223.411387 
L 94.157365 225.187678 
L 94.484536 225.092524 
L 95.138883 219.348738 
L 96.120401 208.107688 
L 98.737783 175.254482 
L 99.392127 170.253542 
L 99.719301 168.757141 
L 100.046474 168.035903 
L 100.373648 168.153127 
L 100.700818 169.160385 
L 101.027992 171.095317 
L 101.682339 177.813921 
L 102.336683 188.224494 
L 103.318201 209.129464 
L 103.972548 224.148072 
L 104.299718 221.340781 
L 104.954065 209.320484 
L 105.60841 200.698382 
L 106.262756 195.496362 
L 106.58993 194.075954 
L 106.917101 193.439531 
L 107.244274 193.574291 
L 107.571447 194.376445 
L 108.225792 197.18622 
L 109.207312 201.526964 
L 109.534483 202.465449 
L 109.861656 202.994685 
L 110.18883 203.042846 
L 110.516001 202.552624 
L 110.843174 201.487303 
L 111.497521 197.70978 
L 112.151865 193.047376 
L 112.479039 191.653818 
L 112.806212 192.003043 
L 113.133383 194.852882 
L 113.787727 205.763739 
L 114.114901 208.453461 
L 114.442074 204.205047 
L 114.769247 190.773516 
L 115.423594 143.330197 
L 116.077936 96.357571 
L 116.732283 68.547032 
L 117.059456 61.363075 
L 117.38663 57.398505 
L 117.713803 55.732598 
L 118.040976 55.83546 
L 118.36815 57.968098 
L 118.695318 63.183135 
L 119.022492 72.577473 
L 119.676839 103.185281 
L 121.312701 191.614812 
L 121.967047 220.32481 
L 122.294221 220.013671 
L 122.948568 200.808379 
L 123.602909 189.056178 
L 123.930083 185.966366 
L 124.257256 184.625388 
L 124.58443 184.909735 
L 124.911603 186.679185 
L 125.238776 189.79113 
L 125.893118 199.490617 
L 126.547465 212.969953 
L 126.874639 220.822356 
L 127.201812 223.255408 
L 129.164847 166.877834 
L 130.473541 131.629496 
L 131.455056 110.319889 
L 132.109403 99.420577 
L 132.76375 91.523227 
L 133.418092 86.82174 
L 133.745265 85.705027 
L 134.072438 85.419627 
L 134.399612 85.965107 
L 134.726785 87.336451 
L 135.053959 89.523074 
L 135.708301 96.274675 
L 136.362647 106.030963 
L 137.344167 125.659867 
L 138.652856 158.894679 
L 140.943065 222.186767 
L 141.270238 222.348813 
L 142.251759 202.52759 
L 142.906105 194.022388 
L 143.233274 191.586953 
L 143.560447 190.546852 
L 143.887621 191.031661 
L 144.214794 193.158913 
L 144.541967 197.025249 
L 145.196314 210.219649 
L 145.523488 219.605645 
L 145.850656 221.651611 
L 146.505003 193.404924 
L 147.15935 156.572553 
L 148.140865 82.973931 
L 148.795212 36.837888 
L 149.122385 23.299413 
L 149.449559 17.630909 
L 149.776732 18.288289 
L 150.103905 22.907128 
L 150.758247 38.323083 
L 151.085421 49.441259 
L 151.739767 84.481784 
L 153.048456 182.068902 
L 153.375629 194.995561 
L 153.702803 200.15998 
L 154.029976 199.686123 
L 154.35715 197.249038 
L 154.684318 196.253183 
L 155.011496 198.158894 
L 155.665843 208.092969 
L 156.647359 223.517124 
L 156.974527 225.478075 
L 157.628874 220.930573 
L 157.956052 219.674569 
L 158.283221 218.936742 
L 158.610399 218.616971 
L 158.937567 218.639099 
L 159.264736 218.945897 
L 159.919083 220.229338 
L 162.209292 226.185402 
L 163.845163 222.244559 
L 164.172332 221.804139 
L 164.4995 221.576221 
L 164.826679 221.571485 
L 165.153847 221.780737 
L 165.808194 222.694172 
L 166.789709 224.33383 
L 167.116888 224.651794 
L 167.444056 224.744843 
L 167.771234 224.565493 
L 168.098403 224.083161 
L 168.425581 223.285743 
L 169.079918 220.768279 
L 169.734265 217.174652 
L 170.71579 210.428468 
L 172.678821 196.488746 
L 173.660346 191.436978 
L 174.314683 189.290906 
L 174.641861 188.629285 
L 174.969029 188.251888 
L 175.296208 188.159458 
L 175.623376 188.349581 
L 175.950554 188.813031 
L 176.604891 190.506673 
L 177.259238 193.081589 
L 178.240763 198.064638 
L 179.876625 206.536626 
L 180.530972 208.847655 
L 180.858141 209.593038 
L 181.185319 210.026865 
L 181.512487 210.137279 
L 181.839656 209.930132 
L 182.166834 209.42932 
L 182.821181 207.756881 
L 184.129865 203.942766 
L 184.457043 203.377413 
L 184.784212 203.088175 
L 185.11139 203.098328 
L 185.438558 203.406743 
L 185.765737 203.990621 
L 186.420074 205.803995 
L 187.728767 210.614582 
L 188.710283 215.046842 
L 190.018976 221.52893 
L 190.673323 223.978697 
L 191.32767 225.770724 
L 191.654838 226.051036 
L 191.982016 225.530932 
L 192.309185 225.278823 
L 192.636363 225.444186 
L 192.963532 226.20418 
L 193.29071 224.782441 
L 193.617878 222.370691 
L 194.272225 215.232387 
L 194.926572 208.467209 
L 195.253741 207.162656 
L 195.580919 207.399032 
L 195.908087 207.870347 
L 196.235256 206.501291 
L 196.562434 201.464101 
L 196.889603 191.935225 
L 197.543949 161.162867 
L 199.50699 46.053077 
L 199.834158 33.836605 
L 200.161337 26.086646 
L 200.488505 23.64923 
L 200.815683 27.232239 
L 201.142852 37.145684 
L 201.797199 74.106979 
L 203.433061 189.514598 
L 204.087407 218.341016 
L 204.414576 223.544058 
L 205.068923 207.874013 
L 205.72327 197.757693 
L 206.377616 191.860838 
L 206.704785 190.368461 
L 207.031963 189.857713 
L 207.359132 190.337786 
L 207.68631 191.792862 
L 208.013478 194.177934 
L 208.667825 201.450127 
L 209.322172 211.44331 
L 209.976519 223.339635 
L 210.303687 222.778338 
L 212.593896 178.811893 
L 213.575411 164.500625 
L 214.229758 157.412085 
L 214.884105 152.499117 
L 215.211283 150.891775 
L 215.538452 149.860527 
L 215.86562 149.409119 
L 216.192799 149.537549 
L 216.519967 150.24331 
L 216.847145 151.521172 
L 217.501492 155.755557 
L 218.155839 162.133352 
L 218.810176 170.481831 
L 219.791701 186.09201 
L 222.08191 225.298835 
L 222.736257 216.275239 
L 223.390594 210.331147 
L 223.717772 208.757515 
L 224.04494 208.183124 
L 224.372119 208.602464 
L 224.699287 209.964058 
L 225.026465 212.193367 
L 225.680802 219.106489 
L 226.007981 223.901969 
L 226.335149 222.722171 
L 226.989496 206.649099 
L 227.643843 182.262108 
L 228.29819 146.689452 
L 229.279705 85.30833 
L 229.934052 58.211431 
L 230.26123 50.678184 
L 230.588398 46.459385 
L 230.915567 45.171927 
L 231.242745 46.991105 
L 231.569914 52.429711 
L 231.897092 61.786888 
L 232.551439 90.666934 
L 234.187301 176.58109 
L 234.841648 198.606263 
L 235.495985 211.295817 
L 236.47749 224.94792 
L 236.804669 222.643004 
L 237.459006 214.185149 
L 237.786174 211.33156 
L 238.113362 209.462313 
L 238.440531 208.415619 
L 238.767699 207.976453 
L 239.094868 207.94995 
L 239.422056 208.205466 
L 239.749224 208.699447 
L 240.076393 209.455368 
L 240.73073 211.921084 
L 241.385086 215.646573 
L 242.69378 225.121373 
L 243.020948 224.988517 
L 244.002473 218.623336 
L 244.65681 215.450396 
L 245.311147 213.175011 
L 245.965504 211.705107 
L 246.292672 211.300331 
L 246.619841 211.163327 
L 246.947029 211.334969 
L 247.274198 211.847745 
L 247.601366 212.714656 
L 248.255703 215.483362 
L 248.91006 219.461846 
L 249.564397 224.321882 
L 249.891565 225.578261 
L 251.200259 215.638165 
L 251.854615 211.855902 
L 252.508952 209.186327 
L 253.163309 207.563137 
L 253.817646 206.752564 
L 254.472002 206.428099 
L 255.453508 206.092986 
L 256.107864 205.526086 
L 256.762201 204.421538 
L 257.416538 202.653977 
L 258.070895 200.191612 
L 259.05242 195.367266 
L 261.342619 183.011515 
L 261.996976 180.818918 
L 262.324144 180.189397 
L 262.651313 179.922167 
L 262.978481 180.044375 
L 263.30565 180.570168 
L 263.632838 181.499328 
L 264.287175 184.480738 
L 265.2687 190.966687 
L 266.904562 202.486002 
L 267.558899 206.120242 
L 268.213255 208.822504 
L 268.867593 210.637302 
L 269.52193 211.686534 
L 269.849118 211.879961 
L 270.176286 211.792136 
L 270.503455 211.38387 
L 270.830623 210.641311 
L 271.48498 208.215959 
L 272.466485 202.888279 
L 273.44801 197.305514 
L 274.102367 194.748661 
L 274.429535 194.208962 
L 274.756704 194.337885 
L 275.083872 195.186039 
L 275.411041 196.709436 
L 276.065397 201.718763 
L 276.719734 210.68216 
L 277.374091 224.589932 
L 277.701259 219.920209 
L 278.355596 202.491611 
L 279.009953 178.589632 
L 280.318647 122.204336 
L 280.645815 115.144792 
L 280.972984 112.546227 
L 281.300152 114.070471 
L 281.62734 118.944622 
L 283.263202 152.880754 
L 283.917539 163.155878 
L 284.571876 179.97332 
L 285.553401 218.760673 
L 285.88057 220.987668 
L 286.534926 201.732524 
L 286.862095 195.881404 
L 287.189263 192.376926 
L 287.516432 190.865606 
L 287.84362 190.940423 
L 288.170788 192.203442 
L 288.825125 196.862444 
L 290.133819 207.440465 
L 292.424038 223.270421 
L 292.751206 225.994382 
L 293.405543 220.836379 
L 295.041405 207.409263 
L 296.02293 201.398371 
L 296.677267 198.6394 
L 297.331624 196.969717 
L 297.658792 196.545176 
L 297.985961 196.386597 
L 298.313149 196.482958 
L 298.640317 196.818845 
L 299.294654 198.125556 
L 299.949011 200.104506 
L 303.220735 212.0047 
L 303.875072 214.906185 
L 304.529429 219.278967 
L 305.183766 225.581357 
L 305.510934 223.160687 
L 306.819628 207.903389 
L 307.146796 205.376035 
L 307.473984 204.038384 
L 307.801153 204.251413 
L 308.128321 206.323009 
L 308.45549 210.424815 
L 309.109846 224.263254 
L 309.437015 219.441044 
L 310.41854 194.36411 
L 311.072877 183.842967 
L 312.708739 165.36172 
L 313.363096 152.982486 
L 314.344601 132.854937 
L 314.67177 128.064487 
L 314.998958 125.671761 
L 315.326126 126.620508 
L 315.653295 131.445542 
L 315.980463 140.024856 
L 316.961988 178.614813 
L 317.616325 202.228442 
L 318.270682 218.97357 
L 318.59785 225.834746 
L 319.252187 212.81912 
L 320.233712 191.995559 
L 320.888069 183.048312 
L 321.215237 180.80382 
L 321.542406 179.737988 
L 321.869574 179.553879 
L 322.196743 180.034424 
L 322.523931 181.045799 
L 323.178268 184.325114 
L 324.159793 191.190596 
L 325.141299 198.100568 
L 325.795655 201.474426 
L 326.449992 203.493183 
L 326.777161 204.04774 
L 327.104349 204.334572 
L 327.431517 204.366873 
L 327.758686 204.163177 
L 328.413042 203.180141 
L 329.394548 200.900453 
L 330.376073 198.513973 
L 331.03041 197.434622 
L 331.357578 197.179124 
L 331.684766 197.144578 
L 332.011935 197.337162 
L 332.339103 197.749599 
L 332.99346 199.163304 
L 333.647797 201.20116 
L 334.956491 206.284006 
L 336.265184 211.310515 
L 337.24669 214.210886 
L 337.901046 215.520724 
L 338.555383 216.276106 
L 338.882552 216.446324 
L 339.20974 216.484429 
L 339.864077 216.202248 
L 340.518433 215.532796 
L 342.808632 212.49248 
L 343.462969 212.201942 
L 343.790158 212.260446 
L 344.117326 212.475192 
L 344.444495 212.858254 
L 345.098851 214.148497 
L 345.753188 216.078431 
L 347.38905 221.373825 
L 347.716219 222.003656 
L 348.043407 222.377028 
L 348.370575 222.465744 
L 348.697744 222.238476 
L 349.024912 221.664147 
L 349.352081 220.713041 
L 350.006437 217.583467 
L 350.660774 212.682541 
L 351.315131 205.929887 
L 353.932498 174.313533 
L 354.586855 169.925699 
L 354.914024 168.758507 
L 355.241192 168.341725 
L 355.56838 168.695271 
L 355.895549 169.820741 
L 356.222717 171.721329 
L 356.877054 177.96975 
L 357.531411 187.745644 
L 359.494441 222.143907 
L 359.82161 224.806913 
L 360.475966 210.047218 
L 361.457472 178.566025 
L 362.438997 147.686 
L 363.093353 136.050211 
L 363.420522 133.79644 
L 363.74769 133.883569 
L 364.074859 136.048764 
L 364.729215 144.964352 
L 365.710721 164.192477 
L 367.346583 199.677288 
L 368.328108 223.497208 
L 369.309633 194.541277 
L 369.96397 183.606955 
L 370.291139 181.53686 
L 370.618307 181.541318 
L 370.945495 183.244061 
L 371.599832 189.853178 
L 372.581357 201.231712 
L 373.235694 206.709599 
L 373.890051 209.960421 
L 374.217219 210.887848 
L 374.544388 211.463322 
L 374.871556 211.773176 
L 375.525913 211.902906 
L 377.161775 211.719501 
L 377.816112 211.968963 
L 378.470469 212.482126 
L 379.451974 213.689938 
L 381.087836 216.351402 
L 382.069361 217.73078 
L 382.723718 218.174713 
L 383.050886 218.15402 
L 383.378055 217.919942 
L 383.705223 217.430955 
L 384.032392 216.644882 
L 384.686748 214.022327 
L 385.341085 209.792864 
L 385.995442 203.921531 
L 387.631304 186.912365 
L 387.958473 184.679605 
L 388.285641 183.392007 
L 388.61281 183.244293 
L 388.939998 184.380228 
L 389.267166 186.874879 
L 389.921503 195.879973 
L 390.57586 209.413363 
L 391.230197 225.661637 
L 393.520415 176.15347 
L 394.829109 154.821359 
L 395.483446 147.218936 
L 395.810614 145.461752 
L 396.137783 145.612585 
L 396.464971 147.919567 
L 396.792139 152.526209 
L 397.446477 168.74527 
L 398.428002 206.007865 
L 398.75517 218.729629 
L 399.082339 222.293562 
L 399.736695 203.876837 
L 400.063864 196.884994 
L 400.063864 196.884994 
" clip-path="url(#pc68f1e5488)" style="fill: none; stroke: #0077bb; stroke-width: 2; stroke-linecap: square"/>
   </g>
   <g id="line2d_17">
    <path d="M 72.891136 213.782761 
L 74.527 201.109838 
L 76.817209 185.494891 
L 78.453073 175.429196 
L 79.434591 170.261336 
L 80.41611 166.263568 
L 81.070455 164.504145 
L 81.397627 163.955969 
L 81.7248 163.651702 
L 82.051973 163.610531 
L 82.379146 163.847207 
L 82.706319 164.374335 
L 83.033491 165.205082 
L 83.687836 167.806648 
L 84.342182 171.686346 
L 84.996527 176.831565 
L 85.978046 186.766207 
L 87.286738 203.439961 
L 88.595427 222.579659 
L 88.922601 224.986493 
L 91.21281 191.989778 
L 92.521501 176.817787 
L 93.503019 168.168105 
L 94.157365 163.843051 
L 94.81171 160.686846 
L 95.466056 158.661716 
L 95.793227 158.050092 
L 96.120401 157.688612 
L 96.447574 157.563784 
L 96.774748 157.656861 
L 97.101918 157.950639 
L 97.756265 159.058131 
L 98.41061 160.722196 
L 99.392127 163.897914 
L 102.336683 173.982991 
L 103.972548 178.420929 
L 105.281239 181.950439 
L 106.262756 185.274442 
L 107.244274 189.760847 
L 108.225792 195.871321 
L 109.207312 203.896783 
L 110.18883 213.875376 
L 111.170347 225.543151 
L 111.497521 222.796025 
L 114.769247 181.304182 
L 115.750768 172.309297 
L 116.40511 168.065709 
L 117.059456 165.458543 
L 117.38663 164.81562 
L 117.713803 164.629479 
L 118.040976 164.908553 
L 118.36815 165.655718 
L 118.695318 166.870636 
L 119.349665 170.685055 
L 120.004012 176.270416 
L 120.985527 187.656028 
L 121.967047 202.041532 
L 123.275741 224.396205 
L 123.602909 222.2006 
L 126.220292 175.842453 
L 127.528985 156.66199 
L 128.510501 145.288756 
L 129.492021 136.844996 
L 130.146368 132.873923 
L 130.800709 130.17823 
L 131.455056 128.664315 
L 131.78223 128.310612 
L 132.109403 128.199554 
L 132.436576 128.311965 
L 132.76375 128.624212 
L 133.418092 129.756447 
L 134.072438 131.409576 
L 135.381132 135.564354 
L 137.344167 141.896252 
L 138.98003 146.33779 
L 140.615897 150.759873 
L 141.597412 154.062907 
L 142.578932 158.266464 
L 143.560447 163.57151 
L 144.541967 169.994502 
L 146.17783 182.577377 
L 148.468038 200.526139 
L 149.449559 206.768234 
L 150.431079 211.43688 
L 151.085421 213.533257 
L 151.739767 214.785795 
L 152.066941 215.103671 
L 152.394114 215.225279 
L 152.721288 215.164261 
L 153.048456 214.936232 
L 153.702803 214.051773 
L 154.684318 212.003229 
L 155.993012 209.048888 
L 156.647359 207.969912 
L 157.301705 207.41229 
L 157.628874 207.374399 
L 157.956052 207.512797 
L 158.283221 207.835465 
L 158.937567 209.039919 
L 159.591914 210.950675 
L 160.573429 214.887535 
L 162.863638 225.327414 
L 163.190817 226.028351 
L 163.845163 224.276023 
L 164.172332 223.735623 
L 164.4995 223.447143 
L 164.826679 223.428614 
L 165.153847 223.692446 
L 165.481025 224.248321 
L 166.135372 226.249091 
L 166.789709 223.093614 
L 167.444056 218.828935 
L 168.425581 210.673856 
L 169.734265 197.514916 
L 172.678821 167.036475 
L 173.660346 159.087831 
L 174.641861 153.101619 
L 175.296208 150.341664 
L 175.950554 148.619805 
L 176.277723 148.150155 
L 176.604891 147.938819 
L 176.93207 147.983764 
L 177.259238 148.27855 
L 177.586417 148.815371 
L 178.240763 150.580692 
L 178.8951 153.19661 
L 179.876625 158.491354 
L 181.185319 167.496032 
L 183.14835 183.237376 
L 186.092905 206.748104 
L 188.055945 220.449922 
L 188.710283 224.63823 
L 189.037461 225.844972 
L 191.000501 214.421564 
L 192.636363 205.922478 
L 193.945047 200.102706 
L 194.926572 196.612677 
L 195.580919 194.842124 
L 196.235256 193.607038 
L 196.889603 192.982682 
L 197.216781 192.920793 
L 197.543949 193.035456 
L 197.871128 193.332733 
L 198.525465 194.494728 
L 199.179812 196.432585 
L 199.834158 199.150758 
L 200.815683 204.649979 
L 201.797199 211.707553 
L 203.105892 223.07974 
L 203.433061 226.185181 
L 205.068923 209.991253 
L 207.359132 187.899544 
L 208.667825 177.507895 
L 209.64934 171.370864 
L 210.630866 166.876217 
L 211.285203 164.837533 
L 211.939549 163.566522 
L 212.266728 163.212606 
L 212.593896 163.040448 
L 212.921074 163.043997 
L 213.248243 163.216862 
L 213.90259 164.035362 
L 214.556936 165.42192 
L 215.538452 168.374769 
L 216.847145 173.426309 
L 220.118869 186.835824 
L 221.100385 190.010449 
L 222.08191 192.537636 
L 223.063425 194.408406 
L 224.04494 195.700797 
L 225.026465 196.564534 
L 227.643843 198.511218 
L 228.29819 199.347655 
L 228.952536 200.489899 
L 229.606883 202.016471 
L 230.26123 203.999152 
L 230.915567 206.502782 
L 231.897092 211.35109 
L 232.878607 217.623039 
L 233.860123 225.378271 
L 234.187301 224.223298 
L 235.495985 211.0375 
L 237.131837 191.692007 
L 241.057918 143.132268 
L 242.039423 133.766758 
L 243.020948 126.80806 
L 243.675285 123.791535 
L 244.002473 122.823823 
L 244.329642 122.234639 
L 244.65681 122.037514 
L 244.983979 122.240869 
L 245.311147 122.851866 
L 245.638335 123.874059 
L 246.292672 127.157248 
L 246.947029 132.064042 
L 247.601366 138.530557 
L 248.582891 150.901973 
L 249.891565 171.519836 
L 251.527447 201.538163 
L 252.836121 225.906466 
L 254.799171 190.995742 
L 256.107864 171.885422 
L 257.08937 160.612563 
L 258.070895 152.333447 
L 258.725232 148.570699 
L 259.379589 146.238721 
L 259.706757 145.607296 
L 260.033926 145.327695 
L 260.361094 145.397199 
L 260.688282 145.80749 
L 261.015451 146.550571 
L 261.669788 149.001893 
L 262.324144 152.66325 
L 263.30565 160.19294 
L 264.287175 169.788064 
L 265.595868 184.947654 
L 268.867593 226.053666 
L 270.176286 211.603663 
L 271.157811 202.73176 
L 272.139317 195.977369 
L 272.793673 192.777574 
L 273.44801 190.663334 
L 273.775179 190.01358 
L 274.102367 189.631311 
L 274.429535 189.511196 
L 274.756704 189.645412 
L 275.083872 190.023078 
L 275.738229 191.459024 
L 276.392566 193.698617 
L 277.374091 198.238694 
L 279.009953 207.492697 
L 280.645815 216.372709 
L 281.62734 220.451642 
L 282.281677 222.3952 
L 282.936014 223.627762 
L 283.263202 223.965396 
L 283.590371 224.114655 
L 283.917539 224.077406 
L 284.244708 223.857783 
L 284.899064 222.894576 
L 285.553401 221.298708 
L 286.534926 217.950286 
L 288.170788 210.979658 
L 289.479482 205.563818 
L 290.460988 202.391911 
L 291.115344 200.936436 
L 291.769681 200.114405 
L 292.09685 199.961237 
L 292.424038 199.9841 
L 292.751206 200.188173 
L 293.078375 200.571313 
L 293.732731 201.869703 
L 294.387068 203.838237 
L 295.368593 207.896554 
L 296.677267 214.825059 
L 298.640317 226.161006 
L 299.949011 219.335971 
L 300.930517 215.368496 
L 301.584873 213.447163 
L 302.23921 212.179707 
L 302.566379 211.803894 
L 302.893567 211.602425 
L 303.220735 211.57936 
L 303.547904 211.730577 
L 303.875072 212.056417 
L 304.529429 213.212673 
L 305.183766 215.003278 
L 306.165291 218.731511 
L 307.146796 223.448332 
L 307.473984 225.180151 
L 307.801153 225.544397 
L 311.072877 207.688866 
L 312.054402 203.551838 
L 313.035908 200.474512 
L 313.690264 199.090481 
L 314.344601 198.265902 
L 314.67177 198.064081 
L 314.998958 198.000497 
L 315.326126 198.072763 
L 315.980463 198.604596 
L 316.63482 199.616096 
L 317.289157 201.046739 
L 318.270682 203.825773 
L 319.579375 208.309218 
L 323.178268 221.077711 
L 324.81413 225.954265 
L 325.141299 225.648373 
L 328.740211 215.580638 
L 330.376073 210.222865 
L 335.283659 193.262377 
L 336.265184 190.90326 
L 336.919521 189.741728 
L 337.573878 188.958031 
L 338.228215 188.584958 
L 338.882552 188.642538 
L 339.536908 189.145883 
L 340.191245 190.094348 
L 340.845602 191.478132 
L 341.827107 194.326528 
L 342.808632 198.001703 
L 344.117326 203.927428 
L 346.080357 214.113201 
L 348.370575 226.040786 
L 349.024912 223.37071 
L 350.333606 217.866935 
L 351.315131 214.480402 
L 352.296636 211.807042 
L 353.278161 209.886779 
L 353.932498 209.026275 
L 354.586855 208.495312 
L 355.241192 208.28452 
L 355.895549 208.378294 
L 356.549886 208.761958 
L 357.204242 209.414216 
L 358.185748 210.856744 
L 359.167273 212.792326 
L 360.475966 216.019354 
L 362.111828 220.872054 
L 363.74769 226.168472 
L 368.00094 211.615266 
L 369.309633 207.974672 
L 370.291139 205.829631 
L 370.945495 204.758379 
L 371.599832 204.023577 
L 372.254189 203.670835 
L 372.908526 203.738728 
L 373.562863 204.26809 
L 374.217219 205.294054 
L 374.871556 206.849443 
L 375.525913 208.958911 
L 376.507419 213.207513 
L 377.488944 218.789627 
L 378.470469 225.702618 
L 378.797637 224.217888 
L 380.106331 212.480198 
L 381.742193 195.120916 
L 384.032392 167.534985 
L 386.976948 132.132741 
L 388.285641 118.870089 
L 389.267166 110.801067 
L 390.248672 104.824768 
L 390.903028 102.212611 
L 391.230197 101.363833 
L 391.557365 100.838801 
L 391.884553 100.651889 
L 392.211722 100.8173 
L 392.53889 101.347194 
L 392.866059 102.254599 
L 393.520415 105.249338 
L 394.174752 109.889106 
L 394.829109 116.249926 
L 395.483446 124.396522 
L 396.464971 140.070355 
L 397.446477 159.981348 
L 398.428002 184.164885 
L 399.736695 222.970781 
L 400.063864 218.699493 
L 400.063864 218.699493 
" clip-path="url(#pc68f1e5488)" style="fill: none; stroke: #ee7733; stroke-width: 2; stroke-linecap: square"/>
   </g>
   <g id="patch_3">
    <path d="M 56.5325 236.68 
L 56.5325 7.2 
" style="fill: none; stroke: #000000; stroke-width: 0.8; stroke-linejoin: miter; stroke-linecap: square"/>
   </g>
   <g id="patch_4">
    <path d="M 416.4225 236.68 
L 416.4225 7.2 
" style="fill: none; stroke: #000000; stroke-width: 0.8; stroke-linejoin: miter; stroke-linecap: square"/>
   </g>
   <g id="patch_5">
    <path d="M 56.5325 236.68 
L 416.4225 236.68 
" style="fill: none; stroke: #000000; stroke-width: 0.8; stroke-linejoin: miter; stroke-linecap: square"/>
   </g>
   <g id="patch_6">
    <path d="M 56.5325 7.2 
L 416.4225 7.2 
" style="fill: none; stroke: #000000; stroke-width: 0.8; stroke-linejoin: miter; stroke-linecap: square"/>
   </g>
   <g id="legend_1">
    <g id="patch_7">
     <path d="M 299.370937 44.55625 
L 409.4225 44.55625 
Q 411.4225 44.55625 411.4225 42.55625 
L 411.4225 14.2 
Q 411.4225 12.2 409.4225 12.2 
L 299.370937 12.2 
Q 297.370937 12.2 297.370937 14.2 
L 297.370937 42.55625 
Q 297.370937 44.55625 299.370937 44.55625 
z
" style="fill: #ffffff; opacity: 0.8; stroke: #cccccc; stroke-linejoin: miter"/>
    </g>
    <g id="line2d_18">
     <path d="M 301.370937 20.298437 
L 311.370937 20.298437 
L 321.370937 20.298437 
" style="fill: none; stroke: #0077bb; stroke-width: 2; stroke-linecap: square"/>
    </g>
    <g id="text_18">
     <!-- Meng's MF-BNN -->
     <g transform="translate(329.370937 23.798437) scale(0.1 -0.1)">
      <defs>
       <path id="DejaVuSans-4d" d="M 628 4666 
L 1569 4666 
L 2759 1491 
L 3956 4666 
L 4897 4666 
L 4897 0 
L 4281 0 
L 4281 4097 
L 3078 897 
L 2444 897 
L 1241 4097 
L 1241 0 
L 628 0 
L 628 4666 
z
" transform="scale(0.015625)"/>
       <path id="DejaVuSans-6e" d="M 3513 2113 
L 3513 0 
L 2938 0 
L 2938 2094 
Q 2938 2591 2744 2837 
Q 2550 3084 2163 3084 
Q 1697 3084 1428 2787 
Q 1159 2491 1159 1978 
L 1159 0 
L 581 0 
L 581 3500 
L 1159 3500 
L 1159 2956 
Q 1366 3272 1645 3428 
Q 1925 3584 2291 3584 
Q 2894 3584 3203 3211 
Q 3513 2838 3513 2113 
z
" transform="scale(0.015625)"/>
       <path id="DejaVuSans-67" d="M 2906 1791 
Q 2906 2416 2648 2759 
Q 2391 3103 1925 3103 
Q 1463 3103 1205 2759 
Q 947 2416 947 1791 
Q 947 1169 1205 825 
Q 1463 481 1925 481 
Q 2391 481 2648 825 
Q 2906 1169 2906 1791 
z
M 3481 434 
Q 3481 -459 3084 -895 
Q 2688 -1331 1869 -1331 
Q 1566 -1331 1297 -1286 
Q 1028 -1241 775 -1147 
L 775 -588 
Q 1028 -725 1275 -790 
Q 1522 -856 1778 -856 
Q 2344 -856 2625 -561 
Q 2906 -266 2906 331 
L 2906 616 
Q 2728 306 2450 153 
Q 2172 0 1784 0 
Q 1141 0 747 490 
Q 353 981 353 1791 
Q 353 2603 747 3093 
Q 1141 3584 1784 3584 
Q 2172 3584 2450 3431 
Q 2728 3278 2906 2969 
L 2906 3500 
L 3481 3500 
L 3481 434 
z
" transform="scale(0.015625)"/>
       <path id="DejaVuSans-27" d="M 1147 4666 
L 1147 2931 
L 616 2931 
L 616 4666 
L 1147 4666 
z
" transform="scale(0.015625)"/>
       <path id="DejaVuSans-46" d="M 628 4666 
L 3309 4666 
L 3309 4134 
L 1259 4134 
L 1259 2759 
L 3109 2759 
L 3109 2228 
L 1259 2228 
L 1259 0 
L 628 0 
L 628 4666 
z
" transform="scale(0.015625)"/>
       <path id="DejaVuSans-2d" d="M 313 2009 
L 1997 2009 
L 1997 1497 
L 313 1497 
L 313 2009 
z
" transform="scale(0.015625)"/>
       <path id="DejaVuSans-42" d="M 1259 2228 
L 1259 519 
L 2272 519 
Q 2781 519 3026 730 
Q 3272 941 3272 1375 
Q 3272 1813 3026 2020 
Q 2781 2228 2272 2228 
L 1259 2228 
z
M 1259 4147 
L 1259 2741 
L 2194 2741 
Q 2656 2741 2882 2914 
Q 3109 3088 3109 3444 
Q 3109 3797 2882 3972 
Q 2656 4147 2194 4147 
L 1259 4147 
z
M 628 4666 
L 2241 4666 
Q 2963 4666 3353 4366 
Q 3744 4066 3744 3513 
Q 3744 3084 3544 2831 
Q 3344 2578 2956 2516 
Q 3422 2416 3680 2098 
Q 3938 1781 3938 1306 
Q 3938 681 3513 340 
Q 3088 0 2303 0 
L 628 0 
L 628 4666 
z
" transform="scale(0.015625)"/>
       <path id="DejaVuSans-4e" d="M 628 4666 
L 1478 4666 
L 3547 763 
L 3547 4666 
L 4159 4666 
L 4159 0 
L 3309 0 
L 1241 3903 
L 1241 0 
L 628 0 
L 628 4666 
z
" transform="scale(0.015625)"/>
      </defs>
      <use xlink:href="#DejaVuSans-4d"/>
      <use xlink:href="#DejaVuSans-65" x="86.279297"/>
      <use xlink:href="#DejaVuSans-6e" x="147.802734"/>
      <use xlink:href="#DejaVuSans-67" x="211.181641"/>
      <use xlink:href="#DejaVuSans-27" x="274.658203"/>
      <use xlink:href="#DejaVuSans-73" x="302.148438"/>
      <use xlink:href="#DejaVuSans-20" x="354.248047"/>
      <use xlink:href="#DejaVuSans-4d" x="386.035156"/>
      <use xlink:href="#DejaVuSans-46" x="472.314453"/>
      <use xlink:href="#DejaVuSans-2d" x="529.833984"/>
      <use xlink:href="#DejaVuSans-42" x="562.292969"/>
      <use xlink:href="#DejaVuSans-4e" x="630.896484"/>
      <use xlink:href="#DejaVuSans-4e" x="705.701172"/>
     </g>
    </g>
    <g id="line2d_19">
     <path d="M 301.370937 34.976562 
L 311.370937 34.976562 
L 321.370937 34.976562 
" style="fill: none; stroke: #ee7733; stroke-width: 2; stroke-linecap: square"/>
    </g>
    <g id="text_19">
     <!-- MF-DNN-BNN -->
     <g transform="translate(329.370937 38.476562) scale(0.1 -0.1)">
      <defs>
       <path id="DejaVuSans-44" d="M 1259 4147 
L 1259 519 
L 2022 519 
Q 2988 519 3436 956 
Q 3884 1394 3884 2338 
Q 3884 3275 3436 3711 
Q 2988 4147 2022 4147 
L 1259 4147 
z
M 628 4666 
L 1925 4666 
Q 3281 4666 3915 4102 
Q 4550 3538 4550 2338 
Q 4550 1131 3912 565 
Q 3275 0 1925 0 
L 628 0 
L 628 4666 
z
" transform="scale(0.015625)"/>
      </defs>
      <use xlink:href="#DejaVuSans-4d"/>
      <use xlink:href="#DejaVuSans-46" x="86.279297"/>
      <use xlink:href="#DejaVuSans-2d" x="143.798828"/>
      <use xlink:href="#DejaVuSans-44" x="179.882812"/>
      <use xlink:href="#DejaVuSans-4e" x="256.884766"/>
      <use xlink:href="#DejaVuSans-4e" x="331.689453"/>
      <use xlink:href="#DejaVuSans-2d" x="406.494141"/>
      <use xlink:href="#DejaVuSans-42" x="438.953125"/>
      <use xlink:href="#DejaVuSans-4e" x="507.556641"/>
      <use xlink:href="#DejaVuSans-4e" x="582.361328"/>
     </g>
    </g>
   </g>
  </g>
 </g>
 <defs>
  <clipPath id="pc68f1e5488">
   <rect x="56.5325" y="7.2" width="359.89" height="229.48"/>
  </clipPath>
 </defs>
</svg>
