<?xml version="1.0" encoding="utf-8" standalone="no"?>
<!DOCTYPE svg PUBLIC "-//W3C//DTD SVG 1.1//EN"
  "http://www.w3.org/Graphics/SVG/1.1/DTD/svg11.dtd">
<svg xmlns:xlink="http://www.w3.org/1999/xlink" width="423.5475pt" height="278.1075pt" viewBox="0 0 423.5475 278.1075" xmlns="http://www.w3.org/2000/svg" version="1.1">
 <metadata>
  <rdf:RDF xmlns:dc="http://purl.org/dc/elements/1.1/" xmlns:cc="http://creativecommons.org/ns#" xmlns:rdf="http://www.w3.org/1999/02/22-rdf-syntax-ns#">
   <cc:Work>
    <dc:type rdf:resource="http://purl.org/dc/dcmitype/StillImage"/>
    <dc:date>2024-01-19T10:59:20.826161</dc:date>
    <dc:format>image/svg+xml</dc:format>
    <dc:creator>
     <cc:Agent>
      <dc:title>Matplotlib v3.8.2, https://matplotlib.org/</dc:title>
     </cc:Agent>
    </dc:creator>
   </cc:Work>
  </rdf:RDF>
 </metadata>
 <defs>
  <style type="text/css">*{stroke-linejoin: round; stroke-linecap: butt}</style>
 </defs>
 <g id="figure_1">
  <g id="patch_1">
   <path d="M 0 278.1075 
L 423.5475 278.1075 
L 423.5475 0 
L 0 0 
z
" style="fill: #ffffff"/>
  </g>
  <g id="axes_1">
   <g id="patch_2">
    <path d="M 48.8975 236.68 
L 416.3475 236.68 
L 416.3475 7.2 
L 48.8975 7.2 
z
" style="fill: #ffffff"/>
   </g>
   <g id="matplotlib.axis_1">
    <g id="xtick_1">
     <g id="line2d_1">
      <defs>
       <path id="mc12668e618" d="M 0 0 
L 0 3.5 
" style="stroke: #000000; stroke-width: 0.8"/>
      </defs>
      <g>
       <use xlink:href="#mc12668e618" x="65.599773" y="236.68" style="stroke: #000000; stroke-width: 0.8"/>
      </g>
     </g>
     <g id="text_1">
      <!-- 0.0 -->
      <g transform="translate(56.057898 252.798125) scale(0.12 -0.12)">
       <defs>
        <path id="DejaVuSans-30" d="M 2034 4250 
Q 1547 4250 1301 3770 
Q 1056 3291 1056 2328 
Q 1056 1369 1301 889 
Q 1547 409 2034 409 
Q 2525 409 2770 889 
Q 3016 1369 3016 2328 
Q 3016 3291 2770 3770 
Q 2525 4250 2034 4250 
z
M 2034 4750 
Q 2819 4750 3233 4129 
Q 3647 3509 3647 2328 
Q 3647 1150 3233 529 
Q 2819 -91 2034 -91 
Q 1250 -91 836 529 
Q 422 1150 422 2328 
Q 422 3509 836 4129 
Q 1250 4750 2034 4750 
z
" transform="scale(0.015625)"/>
        <path id="DejaVuSans-2e" d="M 684 794 
L 1344 794 
L 1344 0 
L 684 0 
L 684 794 
z
" transform="scale(0.015625)"/>
       </defs>
       <use xlink:href="#DejaVuSans-30"/>
       <use xlink:href="#DejaVuSans-2e" x="63.623047"/>
       <use xlink:href="#DejaVuSans-30" x="95.410156"/>
      </g>
     </g>
    </g>
    <g id="xtick_2">
     <g id="line2d_2">
      <g>
       <use xlink:href="#mc12668e618" x="132.408864" y="236.68" style="stroke: #000000; stroke-width: 0.8"/>
      </g>
     </g>
     <g id="text_2">
      <!-- 0.2 -->
      <g transform="translate(122.866989 252.798125) scale(0.12 -0.12)">
       <defs>
        <path id="DejaVuSans-32" d="M 1228 531 
L 3431 531 
L 3431 0 
L 469 0 
L 469 531 
Q 828 903 1448 1529 
Q 2069 2156 2228 2338 
Q 2531 2678 2651 2914 
Q 2772 3150 2772 3378 
Q 2772 3750 2511 3984 
Q 2250 4219 1831 4219 
Q 1534 4219 1204 4116 
Q 875 4013 500 3803 
L 500 4441 
Q 881 4594 1212 4672 
Q 1544 4750 1819 4750 
Q 2544 4750 2975 4387 
Q 3406 4025 3406 3419 
Q 3406 3131 3298 2873 
Q 3191 2616 2906 2266 
Q 2828 2175 2409 1742 
Q 1991 1309 1228 531 
z
" transform="scale(0.015625)"/>
       </defs>
       <use xlink:href="#DejaVuSans-30"/>
       <use xlink:href="#DejaVuSans-2e" x="63.623047"/>
       <use xlink:href="#DejaVuSans-32" x="95.410156"/>
      </g>
     </g>
    </g>
    <g id="xtick_3">
     <g id="line2d_3">
      <g>
       <use xlink:href="#mc12668e618" x="199.217955" y="236.68" style="stroke: #000000; stroke-width: 0.8"/>
      </g>
     </g>
     <g id="text_3">
      <!-- 0.4 -->
      <g transform="translate(189.67608 252.798125) scale(0.12 -0.12)">
       <defs>
        <path id="DejaVuSans-34" d="M 2419 4116 
L 825 1625 
L 2419 1625 
L 2419 4116 
z
M 2253 4666 
L 3047 4666 
L 3047 1625 
L 3713 1625 
L 3713 1100 
L 3047 1100 
L 3047 0 
L 2419 0 
L 2419 1100 
L 313 1100 
L 313 1709 
L 2253 4666 
z
" transform="scale(0.015625)"/>
       </defs>
       <use xlink:href="#DejaVuSans-30"/>
       <use xlink:href="#DejaVuSans-2e" x="63.623047"/>
       <use xlink:href="#DejaVuSans-34" x="95.410156"/>
      </g>
     </g>
    </g>
    <g id="xtick_4">
     <g id="line2d_4">
      <g>
       <use xlink:href="#mc12668e618" x="266.027045" y="236.68" style="stroke: #000000; stroke-width: 0.8"/>
      </g>
     </g>
     <g id="text_4">
      <!-- 0.6 -->
      <g transform="translate(256.48517 252.798125) scale(0.12 -0.12)">
       <defs>
        <path id="DejaVuSans-36" d="M 2113 2584 
Q 1688 2584 1439 2293 
Q 1191 2003 1191 1497 
Q 1191 994 1439 701 
Q 1688 409 2113 409 
Q 2538 409 2786 701 
Q 3034 994 3034 1497 
Q 3034 2003 2786 2293 
Q 2538 2584 2113 2584 
z
M 3366 4563 
L 3366 3988 
Q 3128 4100 2886 4159 
Q 2644 4219 2406 4219 
Q 1781 4219 1451 3797 
Q 1122 3375 1075 2522 
Q 1259 2794 1537 2939 
Q 1816 3084 2150 3084 
Q 2853 3084 3261 2657 
Q 3669 2231 3669 1497 
Q 3669 778 3244 343 
Q 2819 -91 2113 -91 
Q 1303 -91 875 529 
Q 447 1150 447 2328 
Q 447 3434 972 4092 
Q 1497 4750 2381 4750 
Q 2619 4750 2861 4703 
Q 3103 4656 3366 4563 
z
" transform="scale(0.015625)"/>
       </defs>
       <use xlink:href="#DejaVuSans-30"/>
       <use xlink:href="#DejaVuSans-2e" x="63.623047"/>
       <use xlink:href="#DejaVuSans-36" x="95.410156"/>
      </g>
     </g>
    </g>
    <g id="xtick_5">
     <g id="line2d_5">
      <g>
       <use xlink:href="#mc12668e618" x="332.836136" y="236.68" style="stroke: #000000; stroke-width: 0.8"/>
      </g>
     </g>
     <g id="text_5">
      <!-- 0.8 -->
      <g transform="translate(323.294261 252.798125) scale(0.12 -0.12)">
       <defs>
        <path id="DejaVuSans-38" d="M 2034 2216 
Q 1584 2216 1326 1975 
Q 1069 1734 1069 1313 
Q 1069 891 1326 650 
Q 1584 409 2034 409 
Q 2484 409 2743 651 
Q 3003 894 3003 1313 
Q 3003 1734 2745 1975 
Q 2488 2216 2034 2216 
z
M 1403 2484 
Q 997 2584 770 2862 
Q 544 3141 544 3541 
Q 544 4100 942 4425 
Q 1341 4750 2034 4750 
Q 2731 4750 3128 4425 
Q 3525 4100 3525 3541 
Q 3525 3141 3298 2862 
Q 3072 2584 2669 2484 
Q 3125 2378 3379 2068 
Q 3634 1759 3634 1313 
Q 3634 634 3220 271 
Q 2806 -91 2034 -91 
Q 1263 -91 848 271 
Q 434 634 434 1313 
Q 434 1759 690 2068 
Q 947 2378 1403 2484 
z
M 1172 3481 
Q 1172 3119 1398 2916 
Q 1625 2713 2034 2713 
Q 2441 2713 2670 2916 
Q 2900 3119 2900 3481 
Q 2900 3844 2670 4047 
Q 2441 4250 2034 4250 
Q 1625 4250 1398 4047 
Q 1172 3844 1172 3481 
z
" transform="scale(0.015625)"/>
       </defs>
       <use xlink:href="#DejaVuSans-30"/>
       <use xlink:href="#DejaVuSans-2e" x="63.623047"/>
       <use xlink:href="#DejaVuSans-38" x="95.410156"/>
      </g>
     </g>
    </g>
    <g id="xtick_6">
     <g id="line2d_6">
      <g>
       <use xlink:href="#mc12668e618" x="399.645227" y="236.68" style="stroke: #000000; stroke-width: 0.8"/>
      </g>
     </g>
     <g id="text_6">
      <!-- 1.0 -->
      <g transform="translate(390.103352 252.798125) scale(0.12 -0.12)">
       <defs>
        <path id="DejaVuSans-31" d="M 794 531 
L 1825 531 
L 1825 4091 
L 703 3866 
L 703 4441 
L 1819 4666 
L 2450 4666 
L 2450 531 
L 3481 531 
L 3481 0 
L 794 0 
L 794 531 
z
" transform="scale(0.015625)"/>
       </defs>
       <use xlink:href="#DejaVuSans-31"/>
       <use xlink:href="#DejaVuSans-2e" x="63.623047"/>
       <use xlink:href="#DejaVuSans-30" x="95.410156"/>
      </g>
     </g>
    </g>
    <g id="text_7">
     <!-- x -->
     <g transform="translate(229.07125 268.411875) scale(0.12 -0.12)">
      <defs>
       <path id="DejaVuSans-78" d="M 3513 3500 
L 2247 1797 
L 3578 0 
L 2900 0 
L 1881 1375 
L 863 0 
L 184 0 
L 1544 1831 
L 300 3500 
L 978 3500 
L 1906 2253 
L 2834 3500 
L 3513 3500 
z
" transform="scale(0.015625)"/>
      </defs>
      <use xlink:href="#DejaVuSans-78"/>
     </g>
    </g>
   </g>
   <g id="matplotlib.axis_2">
    <g id="ytick_1">
     <g id="line2d_7">
      <defs>
       <path id="m76b2df0923" d="M 0 0 
L -3.5 0 
" style="stroke: #000000; stroke-width: 0.8"/>
      </defs>
      <g>
       <use xlink:href="#m76b2df0923" x="48.8975" y="226.26555" style="stroke: #000000; stroke-width: 0.8"/>
      </g>
     </g>
     <g id="text_8">
      <!-- 0.0 -->
      <g transform="translate(22.81375 230.824613) scale(0.12 -0.12)">
       <use xlink:href="#DejaVuSans-30"/>
       <use xlink:href="#DejaVuSans-2e" x="63.623047"/>
       <use xlink:href="#DejaVuSans-30" x="95.410156"/>
      </g>
     </g>
    </g>
    <g id="ytick_2">
     <g id="line2d_8">
      <g>
       <use xlink:href="#m76b2df0923" x="48.8975" y="179.815493" style="stroke: #000000; stroke-width: 0.8"/>
      </g>
     </g>
     <g id="text_9">
      <!-- 0.1 -->
      <g transform="translate(22.81375 184.374555) scale(0.12 -0.12)">
       <use xlink:href="#DejaVuSans-30"/>
       <use xlink:href="#DejaVuSans-2e" x="63.623047"/>
       <use xlink:href="#DejaVuSans-31" x="95.410156"/>
      </g>
     </g>
    </g>
    <g id="ytick_3">
     <g id="line2d_9">
      <g>
       <use xlink:href="#m76b2df0923" x="48.8975" y="133.365435" style="stroke: #000000; stroke-width: 0.8"/>
      </g>
     </g>
     <g id="text_10">
      <!-- 0.2 -->
      <g transform="translate(22.81375 137.924497) scale(0.12 -0.12)">
       <use xlink:href="#DejaVuSans-30"/>
       <use xlink:href="#DejaVuSans-2e" x="63.623047"/>
       <use xlink:href="#DejaVuSans-32" x="95.410156"/>
      </g>
     </g>
    </g>
    <g id="ytick_4">
     <g id="line2d_10">
      <g>
       <use xlink:href="#m76b2df0923" x="48.8975" y="86.915377" style="stroke: #000000; stroke-width: 0.8"/>
      </g>
     </g>
     <g id="text_11">
      <!-- 0.3 -->
      <g transform="translate(22.81375 91.474439) scale(0.12 -0.12)">
       <defs>
        <path id="DejaVuSans-33" d="M 2597 2516 
Q 3050 2419 3304 2112 
Q 3559 1806 3559 1356 
Q 3559 666 3084 287 
Q 2609 -91 1734 -91 
Q 1441 -91 1130 -33 
Q 819 25 488 141 
L 488 750 
Q 750 597 1062 519 
Q 1375 441 1716 441 
Q 2309 441 2620 675 
Q 2931 909 2931 1356 
Q 2931 1769 2642 2001 
Q 2353 2234 1838 2234 
L 1294 2234 
L 1294 2753 
L 1863 2753 
Q 2328 2753 2575 2939 
Q 2822 3125 2822 3475 
Q 2822 3834 2567 4026 
Q 2313 4219 1838 4219 
Q 1578 4219 1281 4162 
Q 984 4106 628 3988 
L 628 4550 
Q 988 4650 1302 4700 
Q 1616 4750 1894 4750 
Q 2613 4750 3031 4423 
Q 3450 4097 3450 3541 
Q 3450 3153 3228 2886 
Q 3006 2619 2597 2516 
z
" transform="scale(0.015625)"/>
       </defs>
       <use xlink:href="#DejaVuSans-30"/>
       <use xlink:href="#DejaVuSans-2e" x="63.623047"/>
       <use xlink:href="#DejaVuSans-33" x="95.410156"/>
      </g>
     </g>
    </g>
    <g id="ytick_5">
     <g id="line2d_11">
      <g>
       <use xlink:href="#m76b2df0923" x="48.8975" y="40.465319" style="stroke: #000000; stroke-width: 0.8"/>
      </g>
     </g>
     <g id="text_12">
      <!-- 0.4 -->
      <g transform="translate(22.81375 45.024382) scale(0.12 -0.12)">
       <use xlink:href="#DejaVuSans-30"/>
       <use xlink:href="#DejaVuSans-2e" x="63.623047"/>
       <use xlink:href="#DejaVuSans-34" x="95.410156"/>
      </g>
     </g>
    </g>
    <g id="text_13">
     <!-- Absolute error -->
     <g transform="translate(16.318125 164.593437) rotate(-90) scale(0.12 -0.12)">
      <defs>
       <path id="DejaVuSans-41" d="M 2188 4044 
L 1331 1722 
L 3047 1722 
L 2188 4044 
z
M 1831 4666 
L 2547 4666 
L 4325 0 
L 3669 0 
L 3244 1197 
L 1141 1197 
L 716 0 
L 50 0 
L 1831 4666 
z
" transform="scale(0.015625)"/>
       <path id="DejaVuSans-62" d="M 3116 1747 
Q 3116 2381 2855 2742 
Q 2594 3103 2138 3103 
Q 1681 3103 1420 2742 
Q 1159 2381 1159 1747 
Q 1159 1113 1420 752 
Q 1681 391 2138 391 
Q 2594 391 2855 752 
Q 3116 1113 3116 1747 
z
M 1159 2969 
Q 1341 3281 1617 3432 
Q 1894 3584 2278 3584 
Q 2916 3584 3314 3078 
Q 3713 2572 3713 1747 
Q 3713 922 3314 415 
Q 2916 -91 2278 -91 
Q 1894 -91 1617 61 
Q 1341 213 1159 525 
L 1159 0 
L 581 0 
L 581 4863 
L 1159 4863 
L 1159 2969 
z
" transform="scale(0.015625)"/>
       <path id="DejaVuSans-73" d="M 2834 3397 
L 2834 2853 
Q 2591 2978 2328 3040 
Q 2066 3103 1784 3103 
Q 1356 3103 1142 2972 
Q 928 2841 928 2578 
Q 928 2378 1081 2264 
Q 1234 2150 1697 2047 
L 1894 2003 
Q 2506 1872 2764 1633 
Q 3022 1394 3022 966 
Q 3022 478 2636 193 
Q 2250 -91 1575 -91 
Q 1294 -91 989 -36 
Q 684 19 347 128 
L 347 722 
Q 666 556 975 473 
Q 1284 391 1588 391 
Q 1994 391 2212 530 
Q 2431 669 2431 922 
Q 2431 1156 2273 1281 
Q 2116 1406 1581 1522 
L 1381 1569 
Q 847 1681 609 1914 
Q 372 2147 372 2553 
Q 372 3047 722 3315 
Q 1072 3584 1716 3584 
Q 2034 3584 2315 3537 
Q 2597 3491 2834 3397 
z
" transform="scale(0.015625)"/>
       <path id="DejaVuSans-6f" d="M 1959 3097 
Q 1497 3097 1228 2736 
Q 959 2375 959 1747 
Q 959 1119 1226 758 
Q 1494 397 1959 397 
Q 2419 397 2687 759 
Q 2956 1122 2956 1747 
Q 2956 2369 2687 2733 
Q 2419 3097 1959 3097 
z
M 1959 3584 
Q 2709 3584 3137 3096 
Q 3566 2609 3566 1747 
Q 3566 888 3137 398 
Q 2709 -91 1959 -91 
Q 1206 -91 779 398 
Q 353 888 353 1747 
Q 353 2609 779 3096 
Q 1206 3584 1959 3584 
z
" transform="scale(0.015625)"/>
       <path id="DejaVuSans-6c" d="M 603 4863 
L 1178 4863 
L 1178 0 
L 603 0 
L 603 4863 
z
" transform="scale(0.015625)"/>
       <path id="DejaVuSans-75" d="M 544 1381 
L 544 3500 
L 1119 3500 
L 1119 1403 
Q 1119 906 1312 657 
Q 1506 409 1894 409 
Q 2359 409 2629 706 
Q 2900 1003 2900 1516 
L 2900 3500 
L 3475 3500 
L 3475 0 
L 2900 0 
L 2900 538 
Q 2691 219 2414 64 
Q 2138 -91 1772 -91 
Q 1169 -91 856 284 
Q 544 659 544 1381 
z
M 1991 3584 
L 1991 3584 
z
" transform="scale(0.015625)"/>
       <path id="DejaVuSans-74" d="M 1172 4494 
L 1172 3500 
L 2356 3500 
L 2356 3053 
L 1172 3053 
L 1172 1153 
Q 1172 725 1289 603 
Q 1406 481 1766 481 
L 2356 481 
L 2356 0 
L 1766 0 
Q 1100 0 847 248 
Q 594 497 594 1153 
L 594 3053 
L 172 3053 
L 172 3500 
L 594 3500 
L 594 4494 
L 1172 4494 
z
" transform="scale(0.015625)"/>
       <path id="DejaVuSans-65" d="M 3597 1894 
L 3597 1613 
L 953 1613 
Q 991 1019 1311 708 
Q 1631 397 2203 397 
Q 2534 397 2845 478 
Q 3156 559 3463 722 
L 3463 178 
Q 3153 47 2828 -22 
Q 2503 -91 2169 -91 
Q 1331 -91 842 396 
Q 353 884 353 1716 
Q 353 2575 817 3079 
Q 1281 3584 2069 3584 
Q 2775 3584 3186 3129 
Q 3597 2675 3597 1894 
z
M 3022 2063 
Q 3016 2534 2758 2815 
Q 2500 3097 2075 3097 
Q 1594 3097 1305 2825 
Q 1016 2553 972 2059 
L 3022 2063 
z
" transform="scale(0.015625)"/>
       <path id="DejaVuSans-20" transform="scale(0.015625)"/>
       <path id="DejaVuSans-72" d="M 2631 2963 
Q 2534 3019 2420 3045 
Q 2306 3072 2169 3072 
Q 1681 3072 1420 2755 
Q 1159 2438 1159 1844 
L 1159 0 
L 581 0 
L 581 3500 
L 1159 3500 
L 1159 2956 
Q 1341 3275 1631 3429 
Q 1922 3584 2338 3584 
Q 2397 3584 2469 3576 
Q 2541 3569 2628 3553 
L 2631 2963 
z
" transform="scale(0.015625)"/>
      </defs>
      <use xlink:href="#DejaVuSans-41"/>
      <use xlink:href="#DejaVuSans-62" x="68.408203"/>
      <use xlink:href="#DejaVuSans-73" x="131.884766"/>
      <use xlink:href="#DejaVuSans-6f" x="183.984375"/>
      <use xlink:href="#DejaVuSans-6c" x="245.166016"/>
      <use xlink:href="#DejaVuSans-75" x="272.949219"/>
      <use xlink:href="#DejaVuSans-74" x="336.328125"/>
      <use xlink:href="#DejaVuSans-65" x="375.537109"/>
      <use xlink:href="#DejaVuSans-20" x="437.060547"/>
      <use xlink:href="#DejaVuSans-65" x="468.847656"/>
      <use xlink:href="#DejaVuSans-72" x="530.371094"/>
      <use xlink:href="#DejaVuSans-72" x="569.734375"/>
      <use xlink:href="#DejaVuSans-6f" x="608.597656"/>
      <use xlink:href="#DejaVuSans-72" x="669.779297"/>
     </g>
    </g>
   </g>
   <g id="line2d_12">
    <path d="M 65.599773 215.577094 
L 65.933818 217.593487 
L 66.267864 213.923073 
L 66.601909 203.984608 
L 67.27 171.452845 
L 69.274273 59.380313 
L 69.942364 33.549934 
L 70.276409 25.145536 
L 70.610455 19.85893 
L 70.9445 17.630909 
L 71.278546 18.432195 
L 71.612591 22.312747 
L 71.946637 29.366742 
L 72.614728 53.06405 
L 73.282819 87.734639 
L 74.953046 183.737314 
L 75.621137 212.136492 
L 75.955182 223.317503 
L 76.289228 219.93442 
L 76.957319 206.508264 
L 77.62541 198.918372 
L 77.959455 196.958812 
L 78.293501 196.053938 
L 78.627546 196.086691 
L 78.961592 196.949925 
L 79.295637 198.539955 
L 79.963728 203.509828 
L 80.965865 214.062219 
L 81.968001 226.2336 
L 83.304183 210.731602 
L 84.306319 201.768963 
L 84.97441 197.716727 
L 85.308456 196.360648 
L 85.642501 195.480276 
L 85.976547 195.092777 
L 86.310592 195.20906 
L 86.644637 195.837541 
L 86.978683 196.980214 
L 87.646773 200.796672 
L 88.314865 206.593538 
L 88.982955 214.235813 
L 89.651047 223.515184 
L 89.985093 223.847255 
L 91.321275 200.711177 
L 93.325547 165.524984 
L 93.993637 156.227257 
L 94.661729 149.437585 
L 94.995775 147.257946 
L 95.329819 146.045531 
L 95.663865 145.927199 
L 95.997911 147.0377 
L 96.331957 149.522637 
L 96.666001 153.539185 
L 97.334093 166.841638 
L 98.002183 188.337741 
L 98.670275 219.118751 
L 99.004319 214.53347 
L 101.676683 53.477602 
L 102.344775 35.897477 
L 102.678821 31.7424 
L 103.012865 30.312882 
L 103.346911 31.310326 
L 103.680957 34.489015 
L 104.015001 39.693129 
L 104.683093 55.985172 
L 105.351183 80.069579 
L 106.353321 127.65155 
L 107.355455 175.308095 
L 107.689501 184.058653 
L 108.023547 183.721578 
L 108.357593 172.753597 
L 109.025685 141.315705 
L 109.359731 139.163296 
L 109.693772 150.423386 
L 110.695911 208.037346 
L 111.029957 215.804265 
L 111.364003 214.5685 
L 111.698049 207.427459 
L 112.700183 174.670699 
L 113.034229 169.847245 
L 113.368275 171.424587 
L 114.704455 195.138764 
L 115.372547 211.764263 
L 115.706593 222.962287 
L 116.040639 216.558605 
L 117.376819 160.159887 
L 118.044911 143.159806 
L 118.378957 139.892922 
L 118.713003 139.873293 
L 119.047049 142.629279 
L 119.381095 147.702257 
L 120.049183 163.330229 
L 121.051321 195.91426 
L 121.719413 220.345646 
L 122.053459 219.921518 
L 123.389639 174.15522 
L 124.391777 145.453125 
L 125.393911 122.78013 
L 126.062003 111.344266 
L 126.730095 103.018303 
L 127.398183 97.899809 
L 127.732229 96.562445 
L 128.066275 96.045651 
L 128.400321 96.350035 
L 128.734367 97.475044 
L 129.068413 99.416359 
L 129.736501 105.722931 
L 130.404593 115.192729 
L 131.072685 127.706314 
L 132.074823 151.809699 
L 133.076957 181.610778 
L 134.413141 224.308787 
L 136.417413 153.420217 
L 137.085505 137.42313 
L 137.419547 132.60484 
L 137.753593 130.615157 
L 138.087639 132.060636 
L 138.421685 137.454084 
L 138.755731 146.943788 
L 139.423823 175.910399 
L 140.425957 223.63814 
L 141.428095 176.71012 
L 142.096188 156.803065 
L 142.764275 142.996159 
L 143.432367 117.492264 
L 143.766413 104.73976 
L 144.100459 98.079466 
L 144.434505 99.916264 
L 144.768552 111.196351 
L 146.104731 194.115856 
L 146.438777 204.270873 
L 146.772823 205.734485 
L 147.10687 199.26747 
L 147.440911 190.396359 
L 147.774957 184.943178 
L 148.109003 184.195375 
L 148.777095 188.204656 
L 149.111136 188.451241 
L 149.445187 186.307068 
L 149.779229 181.999723 
L 150.447321 168.903638 
L 152.451598 123.119053 
L 152.785639 118.865488 
L 153.11969 116.584635 
L 153.453731 116.470726 
L 153.787772 118.641471 
L 154.121823 123.159509 
L 154.455865 130.034317 
L 155.123957 150.534014 
L 156.1261 194.157787 
L 156.794182 226.249091 
L 157.796326 184.171022 
L 158.464418 164.053563 
L 159.1325 151.079139 
L 159.466552 147.107138 
L 159.800593 144.653127 
L 160.134644 143.57812 
L 160.468685 143.739836 
L 160.802736 144.998625 
L 161.136777 147.218243 
L 161.804869 154.030702 
L 162.807003 168.453983 
L 166.147464 224.521252 
L 166.481505 223.3118 
L 167.483639 211.286825 
L 168.151731 205.211544 
L 168.819823 200.83117 
L 169.487916 198.217076 
L 169.821957 197.583334 
L 170.156008 197.399054 
L 170.490049 197.661521 
L 170.8241 198.366859 
L 171.158141 199.506985 
L 171.826233 203.051784 
L 172.494326 208.189105 
L 173.496459 218.540659 
L 174.164551 225.632944 
L 175.834777 201.860937 
L 177.170962 183.605361 
L 177.839054 176.458728 
L 178.507146 171.74548 
L 178.841187 170.609701 
L 179.175228 170.465953 
L 179.50928 171.453804 
L 179.843321 173.710632 
L 180.177372 177.364184 
L 180.845464 189.253579 
L 181.513546 207.408307 
L 181.847598 218.594233 
L 182.181639 221.688104 
L 183.851864 161.055182 
L 184.519957 146.585886 
L 184.854008 142.849988 
L 185.188049 141.556058 
L 185.5221 142.640859 
L 185.856141 145.947376 
L 186.524233 158.282003 
L 187.192326 176.308377 
L 188.862551 226.049229 
L 189.196593 219.091837 
L 189.530644 214.472764 
L 189.864685 212.874838 
L 190.198736 215.144674 
L 190.532777 222.255474 
L 190.866828 217.582863 
L 191.868962 165.722277 
L 192.203003 165.562264 
L 192.537054 183.2379 
L 192.871095 212.636093 
L 193.205146 209.92947 
L 193.873228 170.890745 
L 194.207279 161.391738 
L 194.541321 157.804385 
L 194.875372 160.775771 
L 195.209413 170.788475 
L 195.543464 188.317855 
L 195.877505 212.82949 
L 196.211556 211.375664 
L 196.879639 163.520967 
L 197.21369 151.413639 
L 197.547731 148.507412 
L 197.881782 153.592135 
L 198.549874 179.130624 
L 199.217957 213.128357 
L 199.552008 221.15078 
L 201.222233 129.584531 
L 201.556274 117.622155 
L 201.890326 109.644376 
L 202.224367 105.557782 
L 202.558418 104.921161 
L 202.892459 107.151771 
L 203.22651 111.679908 
L 203.894602 125.820372 
L 204.896736 155.122598 
L 206.901003 222.08186 
L 207.235054 220.051561 
L 208.237187 192.198719 
L 209.239321 170.439706 
L 209.907413 159.701816 
L 210.575505 152.095451 
L 211.243597 147.657156 
L 211.577639 146.628717 
L 211.91169 146.392691 
L 212.245731 146.946861 
L 212.579782 148.287796 
L 212.913823 150.410014 
L 213.581915 156.967674 
L 214.250008 166.524989 
L 214.9181 178.904544 
L 215.920233 202.024232 
L 216.588326 219.620927 
L 216.922367 223.777153 
L 218.592602 180.752334 
L 219.260685 167.83342 
L 219.928777 159.245351 
L 220.262828 157.037167 
L 220.596869 156.59795 
L 220.93092 158.332613 
L 221.264961 162.68508 
L 221.599003 169.948245 
L 222.267095 192.031313 
L 222.935187 216.841116 
L 223.269238 224.867595 
L 224.271372 197.530287 
L 224.605413 190.30825 
L 224.939464 186.117472 
L 225.273505 187.214137 
L 225.607556 195.543782 
L 225.941597 211.748205 
L 226.275648 217.879495 
L 227.277782 145.223993 
L 227.611823 135.912007 
L 227.945874 138.726855 
L 228.279915 151.707855 
L 228.948007 195.602456 
L 229.282049 221.230955 
L 229.6161 206.075491 
L 230.284192 165.595356 
L 230.618233 159.773932 
L 230.952284 167.667842 
L 231.954418 220.387648 
L 232.288459 220.001937 
L 232.62249 211.668066 
L 232.956541 206.3552 
L 233.290582 203.408222 
L 233.624623 202.342834 
L 233.958665 202.806341 
L 234.292726 204.552882 
L 234.626767 207.436807 
L 235.294849 216.406085 
L 235.62891 222.417689 
L 235.962951 223.219616 
L 237.967218 179.373247 
L 238.301259 174.928612 
L 238.63532 172.085386 
L 238.969362 170.982408 
L 239.303403 171.662905 
L 239.637444 174.074058 
L 239.971485 178.07137 
L 240.639587 189.867732 
L 242.309813 225.961028 
L 242.977895 214.581478 
L 243.645997 207.128592 
L 243.980039 204.954864 
L 244.31408 203.770828 
L 244.648121 203.504014 
L 244.982182 204.062033 
L 245.316223 205.339345 
L 245.984305 209.60867 
L 246.986449 218.698472 
L 247.654531 225.469456 
L 247.988592 223.684625 
L 249.324757 211.429244 
L 250.3269 204.466282 
L 250.995002 201.174093 
L 251.663085 199.046173 
L 251.997126 198.429043 
L 252.331167 198.111314 
L 252.665228 198.092293 
L 252.999269 198.369572 
L 253.33331 198.939442 
L 254.001393 200.936516 
L 254.669495 204.030083 
L 255.337577 208.149237 
L 256.339721 216.05946 
L 257.341864 225.736076 
L 257.675905 223.245297 
L 259.346131 203.84547 
L 261.350398 180.610441 
L 262.0185 174.722404 
L 262.686582 171.135064 
L 263.020623 170.572255 
L 263.354684 171.0459 
L 263.688726 172.710364 
L 264.022767 175.701339 
L 264.690849 185.969336 
L 265.358951 201.713632 
L 266.027034 221.214404 
L 266.361075 221.16526 
L 267.029177 202.725147 
L 267.697259 190.32561 
L 268.03132 187.415396 
L 268.365361 186.948541 
L 268.699403 188.876158 
L 269.033444 192.957907 
L 269.701546 205.817049 
L 270.369628 221.036958 
L 270.703669 224.516295 
L 271.371772 214.230563 
L 271.705813 211.475752 
L 272.039854 210.403293 
L 272.373895 210.875294 
L 272.707956 212.633899 
L 273.376038 218.869508 
L 273.71008 222.983333 
L 274.044121 224.766474 
L 274.712223 211.987226 
L 275.380305 195.52491 
L 275.714366 191.864471 
L 276.048407 195.615614 
L 276.71649 219.026398 
L 277.050531 220.278875 
L 278.052674 183.742329 
L 278.386715 176.811158 
L 278.720777 174.402705 
L 279.054818 177.861438 
L 279.388859 188.263133 
L 280.056941 225.470397 
L 280.725043 183.075187 
L 281.059085 169.697026 
L 281.393126 164.675586 
L 281.727167 168.285525 
L 282.061228 179.019408 
L 283.063351 224.333303 
L 284.065495 179.504536 
L 284.733577 159.431625 
L 285.067638 153.645639 
L 285.401679 150.647632 
L 285.73572 150.149153 
L 286.069762 151.815361 
L 286.403823 155.33653 
L 287.071905 166.895378 
L 287.739987 183.003099 
L 289.076172 222.656546 
L 289.410213 219.442018 
L 290.746397 180.091155 
L 291.748541 156.084783 
L 292.416623 143.793824 
L 293.084725 134.842232 
L 293.752808 129.373589 
L 294.086849 127.955104 
L 294.42091 127.403397 
L 294.754951 127.704071 
L 295.088992 128.83459 
L 295.423033 130.766768 
L 296.091136 136.895261 
L 296.759218 145.74314 
L 297.761361 163.141075 
L 299.431587 198.48054 
L 300.767771 225.845686 
L 301.769895 208.087164 
L 302.437997 198.83786 
L 303.106079 192.103228 
L 303.440141 189.793103 
L 303.774182 188.275848 
L 304.108223 187.658178 
L 304.442264 188.095845 
L 304.776305 189.805521 
L 305.110366 193.052982 
L 305.444407 198.111729 
L 306.11249 214.342433 
L 306.446551 225.365784 
L 307.114633 201.4733 
L 308.116776 163.830826 
L 308.450818 154.945086 
L 308.784859 149.864066 
L 309.1189 149.720477 
L 309.452941 155.140331 
L 309.787002 165.975857 
L 310.455084 199.257659 
L 310.789126 217.996726 
L 311.123187 217.093616 
L 311.791269 191.905821 
L 312.12531 185.262461 
L 312.459351 182.064603 
L 312.793412 181.193094 
L 313.127453 181.543251 
L 313.461495 182.875015 
L 313.795536 186.133059 
L 314.129577 193.057592 
L 314.797679 220.686666 
L 315.13172 217.559252 
L 315.465761 209.26966 
L 315.799822 207.168939 
L 316.133864 208.539712 
L 316.801946 212.794424 
L 317.470048 219.271919 
L 317.804089 223.302628 
L 318.13813 225.462418 
L 318.472172 222.515205 
L 318.806233 220.698557 
L 319.140274 220.107922 
L 319.474315 220.697692 
L 319.808356 222.336554 
L 320.142397 224.829208 
L 320.476458 224.61731 
L 321.478582 215.458939 
L 321.812623 213.82123 
L 322.146684 213.503501 
L 322.480725 214.722651 
L 322.814766 217.543998 
L 323.482869 225.025525 
L 325.821177 179.239868 
L 326.489279 172.024365 
L 326.82332 169.794364 
L 327.157361 168.386927 
L 327.491402 167.701439 
L 327.825443 167.627392 
L 328.159504 168.055714 
L 328.493546 168.884728 
L 329.161628 171.388464 
L 330.497812 177.998105 
L 332.502079 188.018074 
L 333.838264 193.61629 
L 334.840407 197.009119 
L 335.842551 199.593726 
L 336.510633 200.823943 
L 337.178715 201.634878 
L 337.846817 202.011883 
L 338.180859 202.034337 
L 338.848961 201.743935 
L 339.517043 201.005428 
L 340.185125 199.822831 
L 340.853228 198.209822 
L 341.855351 195.051663 
L 343.191536 189.868743 
L 344.52772 184.857561 
L 345.195822 183.194301 
L 345.529863 182.760289 
L 345.863905 182.66927 
L 346.197946 182.980202 
L 346.532007 183.743336 
L 346.866048 185.000547 
L 347.53413 189.076455 
L 348.202233 195.123578 
L 350.874582 223.06933 
L 351.208643 224.987207 
L 351.542684 226.16916 
L 351.876725 225.297728 
L 352.210766 224.865986 
L 352.544807 224.794839 
L 352.878868 225.001026 
L 353.880992 226.166426 
L 354.215053 225.824511 
L 354.549094 225.757107 
L 354.883135 226.102661 
L 355.217176 225.552414 
L 355.551218 224.067883 
L 356.21932 219.302269 
L 357.221443 210.555182 
L 357.889545 206.877421 
L 358.223587 207.535876 
L 358.557628 213.757648 
L 358.891689 224.36184 
L 359.893812 161.050849 
L 360.227853 150.589712 
L 360.561915 148.655811 
L 360.895956 154.222942 
L 361.564038 177.760224 
L 362.23214 202.189428 
L 362.900222 219.228258 
L 363.234264 225.64397 
L 364.570448 190.746599 
L 364.904489 186.092983 
L 365.23855 185.732264 
L 365.572592 190.299481 
L 365.906633 199.744181 
L 366.574735 223.205055 
L 367.576858 177.213625 
L 368.244961 158.653166 
L 368.579002 153.503068 
L 368.913043 150.763306 
L 369.247084 150.13704 
L 369.581125 151.341633 
L 369.915186 154.103891 
L 370.583269 163.228744 
L 371.585412 182.095954 
L 373.255638 214.587859 
L 373.92372 225.470037 
L 374.257781 222.239603 
L 375.259904 210.315226 
L 375.928007 204.418025 
L 376.596089 200.070887 
L 377.264171 197.201913 
L 377.598232 196.305967 
L 377.932274 195.764837 
L 378.266315 195.577566 
L 378.600356 195.745982 
L 378.934417 196.274128 
L 379.268458 197.168163 
L 379.93654 200.091915 
L 380.604643 204.616702 
L 381.272725 210.874851 
L 381.940827 219.01627 
L 382.274868 223.835253 
L 382.608909 223.362355 
L 383.611053 204.295166 
L 384.947217 173.019234 
L 386.617463 133.665602 
L 387.285545 122.121429 
L 387.953628 115.011716 
L 388.287689 113.42786 
L 388.62173 113.307106 
L 388.955771 114.789546 
L 389.289812 118.056021 
L 389.623853 123.328078 
L 390.291956 140.764158 
L 390.960038 167.575002 
L 391.962181 213.48075 
L 392.296222 224.818961 
L 392.964325 216.792963 
L 393.298366 216.793295 
L 393.632407 219.224008 
L 394.300509 225.54985 
L 395.302633 212.613621 
L 395.636674 205.037314 
L 395.970735 193.381419 
L 397.64096 117.370929 
L 397.975002 117.762096 
L 398.309043 126.304829 
L 398.643084 141.863965 
L 399.645227 208.533302 
L 399.645227 208.533302 
" clip-path="url(#p12eaf6b3ac)" style="fill: none; stroke: #0077bb; stroke-width: 2; stroke-linecap: square"/>
   </g>
   <g id="line2d_13">
    <path d="M 65.599773 199.808446 
L 66.267864 197.5346 
L 66.935955 196.04665 
L 67.604045 195.236325 
L 67.938091 195.052146 
L 68.272136 194.998424 
L 68.940228 195.233192 
L 69.608318 195.853207 
L 70.276409 196.788157 
L 71.278546 198.660351 
L 72.280682 201.002885 
L 73.616864 204.810742 
L 74.953046 209.477907 
L 76.289228 215.13248 
L 77.62541 221.818824 
L 78.293501 225.513461 
L 78.627546 225.09845 
L 83.638228 196.018374 
L 84.97441 190.255081 
L 85.976547 186.896406 
L 86.978683 184.357952 
L 87.980819 182.556361 
L 88.982955 181.363951 
L 89.985093 180.635057 
L 90.987229 180.251155 
L 91.989365 180.149618 
L 92.657455 180.241484 
L 93.325547 180.490054 
L 93.993637 180.936519 
L 94.661729 181.636168 
L 95.329819 182.654386 
L 95.997911 184.060343 
L 96.666001 185.919705 
L 97.334093 188.291607 
L 98.336229 192.904903 
L 99.338365 198.841743 
L 100.340501 206.05931 
L 101.676683 217.361636 
L 102.678821 225.83167 
L 105.351183 200.911765 
L 106.687365 190.706404 
L 107.689501 185.017954 
L 108.357593 182.404823 
L 109.025685 180.861215 
L 109.359731 180.518306 
L 109.693772 180.474138 
L 110.027819 180.735791 
L 110.361865 181.309204 
L 110.695911 182.199077 
L 111.364003 184.938366 
L 112.032095 188.96063 
L 112.700183 194.24483 
L 113.702321 204.436297 
L 114.704455 217.113798 
L 115.372547 225.760658 
L 117.042777 198.401434 
L 121.719413 118.00149 
L 122.721547 104.543212 
L 123.723685 93.765138 
L 124.391777 88.311455 
L 125.059865 84.382815 
L 125.727957 82.072691 
L 126.062003 81.547339 
L 126.396049 81.450477 
L 126.730095 81.786557 
L 127.064141 82.557794 
L 127.398183 83.766101 
L 128.066275 87.483858 
L 128.734367 92.909394 
L 129.402459 99.981638 
L 130.404593 113.472176 
L 131.406731 130.030677 
L 132.742911 155.891417 
L 135.081229 206.703013 
L 135.749321 221.316564 
L 136.083367 224.054815 
L 137.753593 191.040249 
L 138.755731 174.572637 
L 139.75787 161.529479 
L 140.425957 155.041928 
L 141.094049 150.487748 
L 141.428095 148.96891 
L 141.762141 147.968184 
L 142.096188 147.491744 
L 142.430229 147.543086 
L 142.764275 148.121847 
L 143.098321 149.225686 
L 143.766413 152.983254 
L 144.434505 158.730781 
L 145.102593 166.332735 
L 146.104731 180.789996 
L 147.440911 204.393099 
L 148.443049 223.902084 
L 148.777095 222.035602 
L 150.447321 190.75223 
L 151.449454 175.234394 
L 152.117547 167.064741 
L 152.785639 161.006918 
L 153.453731 157.284861 
L 153.787772 156.340859 
L 154.121823 156.012545 
L 154.455865 156.295307 
L 154.789916 157.172182 
L 155.123957 158.619183 
L 155.792049 163.076606 
L 156.460141 169.28865 
L 157.796326 184.889045 
L 159.1325 200.640426 
L 160.134644 209.717973 
L 160.802736 213.617384 
L 161.136777 214.81625 
L 161.470818 215.487127 
L 161.804869 215.622639 
L 162.138911 215.226243 
L 162.472962 214.305227 
L 163.141054 210.970644 
L 163.809136 205.83784 
L 164.81128 195.44118 
L 166.147464 178.470034 
L 168.485782 148.495105 
L 169.487916 138.240401 
L 170.490049 130.589772 
L 171.158141 127.14128 
L 171.826233 125.091183 
L 172.160275 124.598314 
L 172.494326 124.458545 
L 172.828367 124.667607 
L 173.162418 125.220879 
L 173.496459 126.109042 
L 174.164551 128.852018 
L 174.832644 132.796788 
L 175.834777 140.701984 
L 176.836911 150.56359 
L 178.507146 169.909003 
L 182.51569 218.469314 
L 183.183782 225.542322 
L 183.517823 223.634215 
L 184.854008 211.52891 
L 186.190192 201.621777 
L 187.192326 195.641752 
L 188.194459 190.879607 
L 189.196593 187.319515 
L 189.864685 185.615998 
L 190.532777 184.459337 
L 191.200869 183.866685 
L 191.53491 183.78786 
L 191.868962 183.858188 
L 192.203003 184.080896 
L 192.871095 184.995987 
L 193.539187 186.55645 
L 194.207279 188.781598 
L 194.875372 191.683814 
L 195.877505 197.30377 
L 196.879639 204.39212 
L 198.215823 215.885098 
L 199.217957 225.733745 
L 199.552008 223.341141 
L 203.894602 178.349588 
L 204.896736 170.19652 
L 205.898869 163.748076 
L 206.566961 160.544599 
L 207.235054 158.293152 
L 207.903146 157.031188 
L 208.237187 156.776791 
L 208.571238 156.771317 
L 208.905279 157.013563 
L 209.239321 157.49807 
L 209.907413 159.167398 
L 210.575505 161.710139 
L 211.577639 166.944268 
L 212.579782 173.50095 
L 214.9181 191.018405 
L 216.254284 200.381629 
L 217.256418 206.283396 
L 218.258551 210.93529 
L 218.926643 213.299796 
L 219.594736 215.098243 
L 220.262828 216.384654 
L 220.93092 217.240317 
L 221.599003 217.764071 
L 222.601146 218.16285 
L 224.271372 218.650771 
L 224.939464 219.030441 
L 225.607556 219.60491 
L 226.275648 220.410683 
L 226.943731 221.472874 
L 227.945874 223.586677 
L 228.948007 226.155866 
L 229.950141 222.609565 
L 230.952284 218.185482 
L 231.954418 212.738164 
L 232.956541 206.130419 
L 234.292726 195.412858 
L 235.62891 182.734005 
L 239.303403 146.353867 
L 240.305546 139.448046 
L 240.973628 136.362271 
L 241.30767 135.3502 
L 241.641711 134.722536 
L 241.975772 134.49424 
L 242.309813 134.682862 
L 242.643854 135.296319 
L 242.977895 136.343453 
L 243.645997 139.749631 
L 244.31408 144.887048 
L 244.982182 151.686719 
L 245.984305 164.721245 
L 247.32049 186.423481 
L 249.324757 224.465984 
L 249.658818 221.489383 
L 251.997126 177.476156 
L 253.33331 156.163073 
L 254.335454 143.01732 
L 255.337577 132.751316 
L 256.005679 127.653533 
L 256.673762 124.02647 
L 257.341864 121.911109 
L 257.675905 121.428658 
L 258.009946 121.33272 
L 258.343987 121.621223 
L 258.678048 122.295268 
L 259.01209 123.352129 
L 259.680172 126.595901 
L 260.348274 131.311521 
L 261.016356 137.433311 
L 262.0185 149.050977 
L 263.020623 163.220312 
L 264.356808 185.123207 
L 266.695136 225.639835 
L 268.365361 198.132942 
L 269.367485 184.385864 
L 270.369628 173.482649 
L 271.03773 167.990185 
L 271.705813 163.981957 
L 272.373895 161.447709 
L 272.707956 160.71563 
L 273.041997 160.324337 
L 273.376038 160.257978 
L 273.71008 160.498446 
L 274.044121 161.024929 
L 274.712223 162.841296 
L 275.380305 165.503578 
L 276.382449 170.595024 
L 279.388859 187.001394 
L 280.391002 190.983065 
L 281.059085 192.972714 
L 281.727167 194.430715 
L 282.395269 195.40638 
L 283.063351 195.984639 
L 283.731454 196.279769 
L 285.73572 196.847232 
L 286.403823 197.402665 
L 287.071905 198.351222 
L 287.739987 199.786059 
L 288.408089 201.770366 
L 289.076172 204.335153 
L 290.078315 209.259724 
L 291.080459 215.339472 
L 292.416623 224.749458 
L 292.750684 225.289877 
L 295.423033 205.91294 
L 296.425177 199.972231 
L 297.42732 195.338405 
L 298.095402 193.109579 
L 298.763505 191.633117 
L 299.097546 191.187775 
L 299.431587 190.940759 
L 299.765628 190.8923 
L 300.099669 191.041092 
L 300.43373 191.386095 
L 301.101813 192.647047 
L 301.769895 194.633039 
L 302.437997 197.282818 
L 303.440141 202.327116 
L 304.776305 210.540863 
L 307.114633 226.067264 
L 308.784859 215.796473 
L 309.787002 210.827144 
L 310.789126 207.042457 
L 311.457228 205.244264 
L 312.12531 204.042917 
L 312.793412 203.427681 
L 313.127453 203.331156 
L 313.461495 203.368126 
L 314.129577 203.813929 
L 314.797679 204.699189 
L 315.465761 205.943193 
L 316.467905 208.288108 
L 319.808356 216.765618 
L 320.8105 218.714165 
L 321.812623 220.278297 
L 323.148808 221.944018 
L 324.819033 223.97942 
L 325.821177 225.574454 
L 326.155218 226.21544 
L 326.82332 224.832578 
L 327.825443 222.037575 
L 328.827587 218.506058 
L 330.163771 212.687463 
L 331.833997 204.026436 
L 335.508489 184.155224 
L 336.510633 179.766154 
L 337.512776 176.258374 
L 338.180859 174.505943 
L 338.848961 173.275966 
L 339.517043 172.609686 
L 339.851084 172.498592 
L 340.185125 172.539011 
L 340.519186 172.733643 
L 341.187269 173.594596 
L 341.855351 175.09117 
L 342.523453 177.223798 
L 343.191536 179.982111 
L 344.193679 185.245227 
L 345.195822 191.747493 
L 346.532007 202.012325 
L 348.870315 222.424599 
L 349.204356 225.37145 
L 349.538397 224.254124 
L 351.208643 210.944366 
L 352.210766 204.557004 
L 352.878868 201.227015 
L 353.546951 198.75785 
L 354.215053 197.219806 
L 354.549094 196.814767 
L 354.883135 196.655881 
L 355.217176 196.741515 
L 355.551218 197.070101 
L 355.885279 197.635285 
L 356.553361 199.442039 
L 357.221443 202.068481 
L 358.223587 207.242743 
L 360.227853 219.707247 
L 361.229997 225.507507 
L 361.564038 225.341252 
L 362.23214 222.503923 
L 362.900222 220.506757 
L 363.234264 219.863429 
L 363.568325 219.472786 
L 363.902366 219.340917 
L 364.236407 219.470203 
L 364.570448 219.86022 
L 364.904489 220.504602 
L 365.572592 222.518273 
L 366.240674 225.391066 
L 366.574735 225.433146 
L 367.9109 217.404182 
L 369.915186 204.883531 
L 370.91731 199.864977 
L 371.585412 197.274509 
L 372.253494 195.34467 
L 372.921596 194.067163 
L 373.589679 193.390361 
L 374.257781 193.2268 
L 374.925863 193.46092 
L 375.928007 194.267968 
L 377.264171 195.447811 
L 377.932274 195.774349 
L 378.600356 195.760983 
L 379.268458 195.305322 
L 379.93654 194.322258 
L 380.604643 192.748817 
L 381.272725 190.541216 
L 381.940827 187.678806 
L 382.942951 182.165635 
L 383.945094 175.277596 
L 385.281278 164.31258 
L 387.619586 142.512985 
L 389.289812 127.738673 
L 390.291956 120.487903 
L 390.960038 116.724932 
L 391.62814 114.044816 
L 391.962181 113.172075 
L 392.296222 112.642504 
L 392.630263 112.479389 
L 392.964325 112.705408 
L 393.298366 113.342563 
L 393.632407 114.412452 
L 394.300509 117.931134 
L 394.968591 123.410968 
L 395.636674 130.983597 
L 396.304776 140.758496 
L 397.306899 159.730267 
L 398.309043 184.022653 
L 399.311186 213.67658 
L 399.645227 224.739438 
L 399.645227 224.739438 
" clip-path="url(#p12eaf6b3ac)" style="fill: none; stroke: #ee7733; stroke-width: 2; stroke-linecap: square"/>
   </g>
   <g id="patch_3">
    <path d="M 48.8975 236.68 
L 48.8975 7.2 
" style="fill: none; stroke: #000000; stroke-width: 0.8; stroke-linejoin: miter; stroke-linecap: square"/>
   </g>
   <g id="patch_4">
    <path d="M 416.3475 236.68 
L 416.3475 7.2 
" style="fill: none; stroke: #000000; stroke-width: 0.8; stroke-linejoin: miter; stroke-linecap: square"/>
   </g>
   <g id="patch_5">
    <path d="M 48.8975 236.68 
L 416.3475 236.68 
" style="fill: none; stroke: #000000; stroke-width: 0.8; stroke-linejoin: miter; stroke-linecap: square"/>
   </g>
   <g id="patch_6">
    <path d="M 48.8975 7.2 
L 416.3475 7.2 
" style="fill: none; stroke: #000000; stroke-width: 0.8; stroke-linejoin: miter; stroke-linecap: square"/>
   </g>
   <g id="legend_1">
    <g id="patch_7">
     <path d="M 299.295937 44.55625 
L 409.3475 44.55625 
Q 411.3475 44.55625 411.3475 42.55625 
L 411.3475 14.2 
Q 411.3475 12.2 409.3475 12.2 
L 299.295937 12.2 
Q 297.295937 12.2 297.295937 14.2 
L 297.295937 42.55625 
Q 297.295937 44.55625 299.295937 44.55625 
z
" style="fill: #ffffff; opacity: 0.8; stroke: #cccccc; stroke-linejoin: miter"/>
    </g>
    <g id="line2d_14">
     <path d="M 301.295937 20.298437 
L 311.295937 20.298437 
L 321.295937 20.298437 
" style="fill: none; stroke: #0077bb; stroke-width: 2; stroke-linecap: square"/>
    </g>
    <g id="text_14">
     <!-- Meng's MF-BNN -->
     <g transform="translate(329.295937 23.798437) scale(0.1 -0.1)">
      <defs>
       <path id="DejaVuSans-4d" d="M 628 4666 
L 1569 4666 
L 2759 1491 
L 3956 4666 
L 4897 4666 
L 4897 0 
L 4281 0 
L 4281 4097 
L 3078 897 
L 2444 897 
L 1241 4097 
L 1241 0 
L 628 0 
L 628 4666 
z
" transform="scale(0.015625)"/>
       <path id="DejaVuSans-6e" d="M 3513 2113 
L 3513 0 
L 2938 0 
L 2938 2094 
Q 2938 2591 2744 2837 
Q 2550 3084 2163 3084 
Q 1697 3084 1428 2787 
Q 1159 2491 1159 1978 
L 1159 0 
L 581 0 
L 581 3500 
L 1159 3500 
L 1159 2956 
Q 1366 3272 1645 3428 
Q 1925 3584 2291 3584 
Q 2894 3584 3203 3211 
Q 3513 2838 3513 2113 
z
" transform="scale(0.015625)"/>
       <path id="DejaVuSans-67" d="M 2906 1791 
Q 2906 2416 2648 2759 
Q 2391 3103 1925 3103 
Q 1463 3103 1205 2759 
Q 947 2416 947 1791 
Q 947 1169 1205 825 
Q 1463 481 1925 481 
Q 2391 481 2648 825 
Q 2906 1169 2906 1791 
z
M 3481 434 
Q 3481 -459 3084 -895 
Q 2688 -1331 1869 -1331 
Q 1566 -1331 1297 -1286 
Q 1028 -1241 775 -1147 
L 775 -588 
Q 1028 -725 1275 -790 
Q 1522 -856 1778 -856 
Q 2344 -856 2625 -561 
Q 2906 -266 2906 331 
L 2906 616 
Q 2728 306 2450 153 
Q 2172 0 1784 0 
Q 1141 0 747 490 
Q 353 981 353 1791 
Q 353 2603 747 3093 
Q 1141 3584 1784 3584 
Q 2172 3584 2450 3431 
Q 2728 3278 2906 2969 
L 2906 3500 
L 3481 3500 
L 3481 434 
z
" transform="scale(0.015625)"/>
       <path id="DejaVuSans-27" d="M 1147 4666 
L 1147 2931 
L 616 2931 
L 616 4666 
L 1147 4666 
z
" transform="scale(0.015625)"/>
       <path id="DejaVuSans-46" d="M 628 4666 
L 3309 4666 
L 3309 4134 
L 1259 4134 
L 1259 2759 
L 3109 2759 
L 3109 2228 
L 1259 2228 
L 1259 0 
L 628 0 
L 628 4666 
z
" transform="scale(0.015625)"/>
       <path id="DejaVuSans-2d" d="M 313 2009 
L 1997 2009 
L 1997 1497 
L 313 1497 
L 313 2009 
z
" transform="scale(0.015625)"/>
       <path id="DejaVuSans-42" d="M 1259 2228 
L 1259 519 
L 2272 519 
Q 2781 519 3026 730 
Q 3272 941 3272 1375 
Q 3272 1813 3026 2020 
Q 2781 2228 2272 2228 
L 1259 2228 
z
M 1259 4147 
L 1259 2741 
L 2194 2741 
Q 2656 2741 2882 2914 
Q 3109 3088 3109 3444 
Q 3109 3797 2882 3972 
Q 2656 4147 2194 4147 
L 1259 4147 
z
M 628 4666 
L 2241 4666 
Q 2963 4666 3353 4366 
Q 3744 4066 3744 3513 
Q 3744 3084 3544 2831 
Q 3344 2578 2956 2516 
Q 3422 2416 3680 2098 
Q 3938 1781 3938 1306 
Q 3938 681 3513 340 
Q 3088 0 2303 0 
L 628 0 
L 628 4666 
z
" transform="scale(0.015625)"/>
       <path id="DejaVuSans-4e" d="M 628 4666 
L 1478 4666 
L 3547 763 
L 3547 4666 
L 4159 4666 
L 4159 0 
L 3309 0 
L 1241 3903 
L 1241 0 
L 628 0 
L 628 4666 
z
" transform="scale(0.015625)"/>
      </defs>
      <use xlink:href="#DejaVuSans-4d"/>
      <use xlink:href="#DejaVuSans-65" x="86.279297"/>
      <use xlink:href="#DejaVuSans-6e" x="147.802734"/>
      <use xlink:href="#DejaVuSans-67" x="211.181641"/>
      <use xlink:href="#DejaVuSans-27" x="274.658203"/>
      <use xlink:href="#DejaVuSans-73" x="302.148438"/>
      <use xlink:href="#DejaVuSans-20" x="354.248047"/>
      <use xlink:href="#DejaVuSans-4d" x="386.035156"/>
      <use xlink:href="#DejaVuSans-46" x="472.314453"/>
      <use xlink:href="#DejaVuSans-2d" x="529.833984"/>
      <use xlink:href="#DejaVuSans-42" x="562.292969"/>
      <use xlink:href="#DejaVuSans-4e" x="630.896484"/>
      <use xlink:href="#DejaVuSans-4e" x="705.701172"/>
     </g>
    </g>
    <g id="line2d_15">
     <path d="M 301.295937 34.976562 
L 311.295937 34.976562 
L 321.295937 34.976562 
" style="fill: none; stroke: #ee7733; stroke-width: 2; stroke-linecap: square"/>
    </g>
    <g id="text_15">
     <!-- MF-DNN-BNN -->
     <g transform="translate(329.295937 38.476562) scale(0.1 -0.1)">
      <defs>
       <path id="DejaVuSans-44" d="M 1259 4147 
L 1259 519 
L 2022 519 
Q 2988 519 3436 956 
Q 3884 1394 3884 2338 
Q 3884 3275 3436 3711 
Q 2988 4147 2022 4147 
L 1259 4147 
z
M 628 4666 
L 1925 4666 
Q 3281 4666 3915 4102 
Q 4550 3538 4550 2338 
Q 4550 1131 3912 565 
Q 3275 0 1925 0 
L 628 0 
L 628 4666 
z
" transform="scale(0.015625)"/>
      </defs>
      <use xlink:href="#DejaVuSans-4d"/>
      <use xlink:href="#DejaVuSans-46" x="86.279297"/>
      <use xlink:href="#DejaVuSans-2d" x="143.798828"/>
      <use xlink:href="#DejaVuSans-44" x="179.882812"/>
      <use xlink:href="#DejaVuSans-4e" x="256.884766"/>
      <use xlink:href="#DejaVuSans-4e" x="331.689453"/>
      <use xlink:href="#DejaVuSans-2d" x="406.494141"/>
      <use xlink:href="#DejaVuSans-42" x="438.953125"/>
      <use xlink:href="#DejaVuSans-4e" x="507.556641"/>
      <use xlink:href="#DejaVuSans-4e" x="582.361328"/>
     </g>
    </g>
   </g>
  </g>
 </g>
 <defs>
  <clipPath id="p12eaf6b3ac">
   <rect x="48.8975" y="7.2" width="367.45" height="229.48"/>
  </clipPath>
 </defs>
</svg>
