<?xml version="1.0" encoding="utf-8" standalone="no"?>
<!DOCTYPE svg PUBLIC "-//W3C//DTD SVG 1.1//EN"
  "http://www.w3.org/Graphics/SVG/1.1/DTD/svg11.dtd">
<svg xmlns:xlink="http://www.w3.org/1999/xlink" width="423.5475pt" height="278.1075pt" viewBox="0 0 423.5475 278.1075" xmlns="http://www.w3.org/2000/svg" version="1.1">
 <metadata>
  <rdf:RDF xmlns:dc="http://purl.org/dc/elements/1.1/" xmlns:cc="http://creativecommons.org/ns#" xmlns:rdf="http://www.w3.org/1999/02/22-rdf-syntax-ns#">
   <cc:Work>
    <dc:type rdf:resource="http://purl.org/dc/dcmitype/StillImage"/>
    <dc:date>2024-01-12T11:33:17.119592</dc:date>
    <dc:format>image/svg+xml</dc:format>
    <dc:creator>
     <cc:Agent>
      <dc:title>Matplotlib v3.7.2, https://matplotlib.org/</dc:title>
     </cc:Agent>
    </dc:creator>
   </cc:Work>
  </rdf:RDF>
 </metadata>
 <defs>
  <style type="text/css">*{stroke-linejoin: round; stroke-linecap: butt}</style>
 </defs>
 <g id="figure_1">
  <g id="patch_1">
   <path d="M 0 278.1075 
L 423.5475 278.1075 
L 423.5475 0 
L 0 0 
z
" style="fill: #ffffff"/>
  </g>
  <g id="axes_1">
   <g id="patch_2">
    <path d="M 48.8975 236.68 
L 416.3475 236.68 
L 416.3475 7.2 
L 48.8975 7.2 
z
" style="fill: #ffffff"/>
   </g>
   <g id="matplotlib.axis_1">
    <g id="xtick_1">
     <g id="line2d_1">
      <defs>
       <path id="m0d35048e92" d="M 0 0 
L 0 3.5 
" style="stroke: #000000; stroke-width: 0.8"/>
      </defs>
      <g>
       <use xlink:href="#m0d35048e92" x="65.599773" y="236.68" style="stroke: #000000; stroke-width: 0.8"/>
      </g>
     </g>
     <g id="text_1">
      <!-- 0.0 -->
      <g transform="translate(56.057898 252.798125) scale(0.12 -0.12)">
       <defs>
        <path id="DejaVuSans-30" d="M 2034 4250 
Q 1547 4250 1301 3770 
Q 1056 3291 1056 2328 
Q 1056 1369 1301 889 
Q 1547 409 2034 409 
Q 2525 409 2770 889 
Q 3016 1369 3016 2328 
Q 3016 3291 2770 3770 
Q 2525 4250 2034 4250 
z
M 2034 4750 
Q 2819 4750 3233 4129 
Q 3647 3509 3647 2328 
Q 3647 1150 3233 529 
Q 2819 -91 2034 -91 
Q 1250 -91 836 529 
Q 422 1150 422 2328 
Q 422 3509 836 4129 
Q 1250 4750 2034 4750 
z
" transform="scale(0.015625)"/>
        <path id="DejaVuSans-2e" d="M 684 794 
L 1344 794 
L 1344 0 
L 684 0 
L 684 794 
z
" transform="scale(0.015625)"/>
       </defs>
       <use xlink:href="#DejaVuSans-30"/>
       <use xlink:href="#DejaVuSans-2e" x="63.623047"/>
       <use xlink:href="#DejaVuSans-30" x="95.410156"/>
      </g>
     </g>
    </g>
    <g id="xtick_2">
     <g id="line2d_2">
      <g>
       <use xlink:href="#m0d35048e92" x="132.408864" y="236.68" style="stroke: #000000; stroke-width: 0.8"/>
      </g>
     </g>
     <g id="text_2">
      <!-- 0.2 -->
      <g transform="translate(122.866989 252.798125) scale(0.12 -0.12)">
       <defs>
        <path id="DejaVuSans-32" d="M 1228 531 
L 3431 531 
L 3431 0 
L 469 0 
L 469 531 
Q 828 903 1448 1529 
Q 2069 2156 2228 2338 
Q 2531 2678 2651 2914 
Q 2772 3150 2772 3378 
Q 2772 3750 2511 3984 
Q 2250 4219 1831 4219 
Q 1534 4219 1204 4116 
Q 875 4013 500 3803 
L 500 4441 
Q 881 4594 1212 4672 
Q 1544 4750 1819 4750 
Q 2544 4750 2975 4387 
Q 3406 4025 3406 3419 
Q 3406 3131 3298 2873 
Q 3191 2616 2906 2266 
Q 2828 2175 2409 1742 
Q 1991 1309 1228 531 
z
" transform="scale(0.015625)"/>
       </defs>
       <use xlink:href="#DejaVuSans-30"/>
       <use xlink:href="#DejaVuSans-2e" x="63.623047"/>
       <use xlink:href="#DejaVuSans-32" x="95.410156"/>
      </g>
     </g>
    </g>
    <g id="xtick_3">
     <g id="line2d_3">
      <g>
       <use xlink:href="#m0d35048e92" x="199.217955" y="236.68" style="stroke: #000000; stroke-width: 0.8"/>
      </g>
     </g>
     <g id="text_3">
      <!-- 0.4 -->
      <g transform="translate(189.67608 252.798125) scale(0.12 -0.12)">
       <defs>
        <path id="DejaVuSans-34" d="M 2419 4116 
L 825 1625 
L 2419 1625 
L 2419 4116 
z
M 2253 4666 
L 3047 4666 
L 3047 1625 
L 3713 1625 
L 3713 1100 
L 3047 1100 
L 3047 0 
L 2419 0 
L 2419 1100 
L 313 1100 
L 313 1709 
L 2253 4666 
z
" transform="scale(0.015625)"/>
       </defs>
       <use xlink:href="#DejaVuSans-30"/>
       <use xlink:href="#DejaVuSans-2e" x="63.623047"/>
       <use xlink:href="#DejaVuSans-34" x="95.410156"/>
      </g>
     </g>
    </g>
    <g id="xtick_4">
     <g id="line2d_4">
      <g>
       <use xlink:href="#m0d35048e92" x="266.027045" y="236.68" style="stroke: #000000; stroke-width: 0.8"/>
      </g>
     </g>
     <g id="text_4">
      <!-- 0.6 -->
      <g transform="translate(256.48517 252.798125) scale(0.12 -0.12)">
       <defs>
        <path id="DejaVuSans-36" d="M 2113 2584 
Q 1688 2584 1439 2293 
Q 1191 2003 1191 1497 
Q 1191 994 1439 701 
Q 1688 409 2113 409 
Q 2538 409 2786 701 
Q 3034 994 3034 1497 
Q 3034 2003 2786 2293 
Q 2538 2584 2113 2584 
z
M 3366 4563 
L 3366 3988 
Q 3128 4100 2886 4159 
Q 2644 4219 2406 4219 
Q 1781 4219 1451 3797 
Q 1122 3375 1075 2522 
Q 1259 2794 1537 2939 
Q 1816 3084 2150 3084 
Q 2853 3084 3261 2657 
Q 3669 2231 3669 1497 
Q 3669 778 3244 343 
Q 2819 -91 2113 -91 
Q 1303 -91 875 529 
Q 447 1150 447 2328 
Q 447 3434 972 4092 
Q 1497 4750 2381 4750 
Q 2619 4750 2861 4703 
Q 3103 4656 3366 4563 
z
" transform="scale(0.015625)"/>
       </defs>
       <use xlink:href="#DejaVuSans-30"/>
       <use xlink:href="#DejaVuSans-2e" x="63.623047"/>
       <use xlink:href="#DejaVuSans-36" x="95.410156"/>
      </g>
     </g>
    </g>
    <g id="xtick_5">
     <g id="line2d_5">
      <g>
       <use xlink:href="#m0d35048e92" x="332.836136" y="236.68" style="stroke: #000000; stroke-width: 0.8"/>
      </g>
     </g>
     <g id="text_5">
      <!-- 0.8 -->
      <g transform="translate(323.294261 252.798125) scale(0.12 -0.12)">
       <defs>
        <path id="DejaVuSans-38" d="M 2034 2216 
Q 1584 2216 1326 1975 
Q 1069 1734 1069 1313 
Q 1069 891 1326 650 
Q 1584 409 2034 409 
Q 2484 409 2743 651 
Q 3003 894 3003 1313 
Q 3003 1734 2745 1975 
Q 2488 2216 2034 2216 
z
M 1403 2484 
Q 997 2584 770 2862 
Q 544 3141 544 3541 
Q 544 4100 942 4425 
Q 1341 4750 2034 4750 
Q 2731 4750 3128 4425 
Q 3525 4100 3525 3541 
Q 3525 3141 3298 2862 
Q 3072 2584 2669 2484 
Q 3125 2378 3379 2068 
Q 3634 1759 3634 1313 
Q 3634 634 3220 271 
Q 2806 -91 2034 -91 
Q 1263 -91 848 271 
Q 434 634 434 1313 
Q 434 1759 690 2068 
Q 947 2378 1403 2484 
z
M 1172 3481 
Q 1172 3119 1398 2916 
Q 1625 2713 2034 2713 
Q 2441 2713 2670 2916 
Q 2900 3119 2900 3481 
Q 2900 3844 2670 4047 
Q 2441 4250 2034 4250 
Q 1625 4250 1398 4047 
Q 1172 3844 1172 3481 
z
" transform="scale(0.015625)"/>
       </defs>
       <use xlink:href="#DejaVuSans-30"/>
       <use xlink:href="#DejaVuSans-2e" x="63.623047"/>
       <use xlink:href="#DejaVuSans-38" x="95.410156"/>
      </g>
     </g>
    </g>
    <g id="xtick_6">
     <g id="line2d_6">
      <g>
       <use xlink:href="#m0d35048e92" x="399.645227" y="236.68" style="stroke: #000000; stroke-width: 0.8"/>
      </g>
     </g>
     <g id="text_6">
      <!-- 1.0 -->
      <g transform="translate(390.103352 252.798125) scale(0.12 -0.12)">
       <defs>
        <path id="DejaVuSans-31" d="M 794 531 
L 1825 531 
L 1825 4091 
L 703 3866 
L 703 4441 
L 1819 4666 
L 2450 4666 
L 2450 531 
L 3481 531 
L 3481 0 
L 794 0 
L 794 531 
z
" transform="scale(0.015625)"/>
       </defs>
       <use xlink:href="#DejaVuSans-31"/>
       <use xlink:href="#DejaVuSans-2e" x="63.623047"/>
       <use xlink:href="#DejaVuSans-30" x="95.410156"/>
      </g>
     </g>
    </g>
    <g id="text_7">
     <!-- x -->
     <g transform="translate(229.07125 268.411875) scale(0.12 -0.12)">
      <defs>
       <path id="DejaVuSans-78" d="M 3513 3500 
L 2247 1797 
L 3578 0 
L 2900 0 
L 1881 1375 
L 863 0 
L 184 0 
L 1544 1831 
L 300 3500 
L 978 3500 
L 1906 2253 
L 2834 3500 
L 3513 3500 
z
" transform="scale(0.015625)"/>
      </defs>
      <use xlink:href="#DejaVuSans-78"/>
     </g>
    </g>
   </g>
   <g id="matplotlib.axis_2">
    <g id="ytick_1">
     <g id="line2d_7">
      <defs>
       <path id="mb98a209fd1" d="M 0 0 
L -3.5 0 
" style="stroke: #000000; stroke-width: 0.8"/>
      </defs>
      <g>
       <use xlink:href="#mb98a209fd1" x="48.8975" y="226.294048" style="stroke: #000000; stroke-width: 0.8"/>
      </g>
     </g>
     <g id="text_8">
      <!-- 0.0 -->
      <g transform="translate(22.81375 230.853111) scale(0.12 -0.12)">
       <use xlink:href="#DejaVuSans-30"/>
       <use xlink:href="#DejaVuSans-2e" x="63.623047"/>
       <use xlink:href="#DejaVuSans-30" x="95.410156"/>
      </g>
     </g>
    </g>
    <g id="ytick_2">
     <g id="line2d_8">
      <g>
       <use xlink:href="#mb98a209fd1" x="48.8975" y="186.596289" style="stroke: #000000; stroke-width: 0.8"/>
      </g>
     </g>
     <g id="text_9">
      <!-- 0.1 -->
      <g transform="translate(22.81375 191.155352) scale(0.12 -0.12)">
       <use xlink:href="#DejaVuSans-30"/>
       <use xlink:href="#DejaVuSans-2e" x="63.623047"/>
       <use xlink:href="#DejaVuSans-31" x="95.410156"/>
      </g>
     </g>
    </g>
    <g id="ytick_3">
     <g id="line2d_9">
      <g>
       <use xlink:href="#mb98a209fd1" x="48.8975" y="146.898531" style="stroke: #000000; stroke-width: 0.8"/>
      </g>
     </g>
     <g id="text_10">
      <!-- 0.2 -->
      <g transform="translate(22.81375 151.457593) scale(0.12 -0.12)">
       <use xlink:href="#DejaVuSans-30"/>
       <use xlink:href="#DejaVuSans-2e" x="63.623047"/>
       <use xlink:href="#DejaVuSans-32" x="95.410156"/>
      </g>
     </g>
    </g>
    <g id="ytick_4">
     <g id="line2d_10">
      <g>
       <use xlink:href="#mb98a209fd1" x="48.8975" y="107.200772" style="stroke: #000000; stroke-width: 0.8"/>
      </g>
     </g>
     <g id="text_11">
      <!-- 0.3 -->
      <g transform="translate(22.81375 111.759834) scale(0.12 -0.12)">
       <defs>
        <path id="DejaVuSans-33" d="M 2597 2516 
Q 3050 2419 3304 2112 
Q 3559 1806 3559 1356 
Q 3559 666 3084 287 
Q 2609 -91 1734 -91 
Q 1441 -91 1130 -33 
Q 819 25 488 141 
L 488 750 
Q 750 597 1062 519 
Q 1375 441 1716 441 
Q 2309 441 2620 675 
Q 2931 909 2931 1356 
Q 2931 1769 2642 2001 
Q 2353 2234 1838 2234 
L 1294 2234 
L 1294 2753 
L 1863 2753 
Q 2328 2753 2575 2939 
Q 2822 3125 2822 3475 
Q 2822 3834 2567 4026 
Q 2313 4219 1838 4219 
Q 1578 4219 1281 4162 
Q 984 4106 628 3988 
L 628 4550 
Q 988 4650 1302 4700 
Q 1616 4750 1894 4750 
Q 2613 4750 3031 4423 
Q 3450 4097 3450 3541 
Q 3450 3153 3228 2886 
Q 3006 2619 2597 2516 
z
" transform="scale(0.015625)"/>
       </defs>
       <use xlink:href="#DejaVuSans-30"/>
       <use xlink:href="#DejaVuSans-2e" x="63.623047"/>
       <use xlink:href="#DejaVuSans-33" x="95.410156"/>
      </g>
     </g>
    </g>
    <g id="ytick_5">
     <g id="line2d_11">
      <g>
       <use xlink:href="#mb98a209fd1" x="48.8975" y="67.503013" style="stroke: #000000; stroke-width: 0.8"/>
      </g>
     </g>
     <g id="text_12">
      <!-- 0.4 -->
      <g transform="translate(22.81375 72.062076) scale(0.12 -0.12)">
       <use xlink:href="#DejaVuSans-30"/>
       <use xlink:href="#DejaVuSans-2e" x="63.623047"/>
       <use xlink:href="#DejaVuSans-34" x="95.410156"/>
      </g>
     </g>
    </g>
    <g id="ytick_6">
     <g id="line2d_12">
      <g>
       <use xlink:href="#mb98a209fd1" x="48.8975" y="27.805254" style="stroke: #000000; stroke-width: 0.8"/>
      </g>
     </g>
     <g id="text_13">
      <!-- 0.5 -->
      <g transform="translate(22.81375 32.364317) scale(0.12 -0.12)">
       <defs>
        <path id="DejaVuSans-35" d="M 691 4666 
L 3169 4666 
L 3169 4134 
L 1269 4134 
L 1269 2991 
Q 1406 3038 1543 3061 
Q 1681 3084 1819 3084 
Q 2600 3084 3056 2656 
Q 3513 2228 3513 1497 
Q 3513 744 3044 326 
Q 2575 -91 1722 -91 
Q 1428 -91 1123 -41 
Q 819 9 494 109 
L 494 744 
Q 775 591 1075 516 
Q 1375 441 1709 441 
Q 2250 441 2565 725 
Q 2881 1009 2881 1497 
Q 2881 1984 2565 2268 
Q 2250 2553 1709 2553 
Q 1456 2553 1204 2497 
Q 953 2441 691 2322 
L 691 4666 
z
" transform="scale(0.015625)"/>
       </defs>
       <use xlink:href="#DejaVuSans-30"/>
       <use xlink:href="#DejaVuSans-2e" x="63.623047"/>
       <use xlink:href="#DejaVuSans-35" x="95.410156"/>
      </g>
     </g>
    </g>
    <g id="text_14">
     <!-- Absolute error -->
     <g transform="translate(16.318125 164.593437) rotate(-90) scale(0.12 -0.12)">
      <defs>
       <path id="DejaVuSans-41" d="M 2188 4044 
L 1331 1722 
L 3047 1722 
L 2188 4044 
z
M 1831 4666 
L 2547 4666 
L 4325 0 
L 3669 0 
L 3244 1197 
L 1141 1197 
L 716 0 
L 50 0 
L 1831 4666 
z
" transform="scale(0.015625)"/>
       <path id="DejaVuSans-62" d="M 3116 1747 
Q 3116 2381 2855 2742 
Q 2594 3103 2138 3103 
Q 1681 3103 1420 2742 
Q 1159 2381 1159 1747 
Q 1159 1113 1420 752 
Q 1681 391 2138 391 
Q 2594 391 2855 752 
Q 3116 1113 3116 1747 
z
M 1159 2969 
Q 1341 3281 1617 3432 
Q 1894 3584 2278 3584 
Q 2916 3584 3314 3078 
Q 3713 2572 3713 1747 
Q 3713 922 3314 415 
Q 2916 -91 2278 -91 
Q 1894 -91 1617 61 
Q 1341 213 1159 525 
L 1159 0 
L 581 0 
L 581 4863 
L 1159 4863 
L 1159 2969 
z
" transform="scale(0.015625)"/>
       <path id="DejaVuSans-73" d="M 2834 3397 
L 2834 2853 
Q 2591 2978 2328 3040 
Q 2066 3103 1784 3103 
Q 1356 3103 1142 2972 
Q 928 2841 928 2578 
Q 928 2378 1081 2264 
Q 1234 2150 1697 2047 
L 1894 2003 
Q 2506 1872 2764 1633 
Q 3022 1394 3022 966 
Q 3022 478 2636 193 
Q 2250 -91 1575 -91 
Q 1294 -91 989 -36 
Q 684 19 347 128 
L 347 722 
Q 666 556 975 473 
Q 1284 391 1588 391 
Q 1994 391 2212 530 
Q 2431 669 2431 922 
Q 2431 1156 2273 1281 
Q 2116 1406 1581 1522 
L 1381 1569 
Q 847 1681 609 1914 
Q 372 2147 372 2553 
Q 372 3047 722 3315 
Q 1072 3584 1716 3584 
Q 2034 3584 2315 3537 
Q 2597 3491 2834 3397 
z
" transform="scale(0.015625)"/>
       <path id="DejaVuSans-6f" d="M 1959 3097 
Q 1497 3097 1228 2736 
Q 959 2375 959 1747 
Q 959 1119 1226 758 
Q 1494 397 1959 397 
Q 2419 397 2687 759 
Q 2956 1122 2956 1747 
Q 2956 2369 2687 2733 
Q 2419 3097 1959 3097 
z
M 1959 3584 
Q 2709 3584 3137 3096 
Q 3566 2609 3566 1747 
Q 3566 888 3137 398 
Q 2709 -91 1959 -91 
Q 1206 -91 779 398 
Q 353 888 353 1747 
Q 353 2609 779 3096 
Q 1206 3584 1959 3584 
z
" transform="scale(0.015625)"/>
       <path id="DejaVuSans-6c" d="M 603 4863 
L 1178 4863 
L 1178 0 
L 603 0 
L 603 4863 
z
" transform="scale(0.015625)"/>
       <path id="DejaVuSans-75" d="M 544 1381 
L 544 3500 
L 1119 3500 
L 1119 1403 
Q 1119 906 1312 657 
Q 1506 409 1894 409 
Q 2359 409 2629 706 
Q 2900 1003 2900 1516 
L 2900 3500 
L 3475 3500 
L 3475 0 
L 2900 0 
L 2900 538 
Q 2691 219 2414 64 
Q 2138 -91 1772 -91 
Q 1169 -91 856 284 
Q 544 659 544 1381 
z
M 1991 3584 
L 1991 3584 
z
" transform="scale(0.015625)"/>
       <path id="DejaVuSans-74" d="M 1172 4494 
L 1172 3500 
L 2356 3500 
L 2356 3053 
L 1172 3053 
L 1172 1153 
Q 1172 725 1289 603 
Q 1406 481 1766 481 
L 2356 481 
L 2356 0 
L 1766 0 
Q 1100 0 847 248 
Q 594 497 594 1153 
L 594 3053 
L 172 3053 
L 172 3500 
L 594 3500 
L 594 4494 
L 1172 4494 
z
" transform="scale(0.015625)"/>
       <path id="DejaVuSans-65" d="M 3597 1894 
L 3597 1613 
L 953 1613 
Q 991 1019 1311 708 
Q 1631 397 2203 397 
Q 2534 397 2845 478 
Q 3156 559 3463 722 
L 3463 178 
Q 3153 47 2828 -22 
Q 2503 -91 2169 -91 
Q 1331 -91 842 396 
Q 353 884 353 1716 
Q 353 2575 817 3079 
Q 1281 3584 2069 3584 
Q 2775 3584 3186 3129 
Q 3597 2675 3597 1894 
z
M 3022 2063 
Q 3016 2534 2758 2815 
Q 2500 3097 2075 3097 
Q 1594 3097 1305 2825 
Q 1016 2553 972 2059 
L 3022 2063 
z
" transform="scale(0.015625)"/>
       <path id="DejaVuSans-20" transform="scale(0.015625)"/>
       <path id="DejaVuSans-72" d="M 2631 2963 
Q 2534 3019 2420 3045 
Q 2306 3072 2169 3072 
Q 1681 3072 1420 2755 
Q 1159 2438 1159 1844 
L 1159 0 
L 581 0 
L 581 3500 
L 1159 3500 
L 1159 2956 
Q 1341 3275 1631 3429 
Q 1922 3584 2338 3584 
Q 2397 3584 2469 3576 
Q 2541 3569 2628 3553 
L 2631 2963 
z
" transform="scale(0.015625)"/>
      </defs>
      <use xlink:href="#DejaVuSans-41"/>
      <use xlink:href="#DejaVuSans-62" x="68.408203"/>
      <use xlink:href="#DejaVuSans-73" x="131.884766"/>
      <use xlink:href="#DejaVuSans-6f" x="183.984375"/>
      <use xlink:href="#DejaVuSans-6c" x="245.166016"/>
      <use xlink:href="#DejaVuSans-75" x="272.949219"/>
      <use xlink:href="#DejaVuSans-74" x="336.328125"/>
      <use xlink:href="#DejaVuSans-65" x="375.537109"/>
      <use xlink:href="#DejaVuSans-20" x="437.060547"/>
      <use xlink:href="#DejaVuSans-65" x="468.847656"/>
      <use xlink:href="#DejaVuSans-72" x="530.371094"/>
      <use xlink:href="#DejaVuSans-72" x="569.734375"/>
      <use xlink:href="#DejaVuSans-6f" x="608.597656"/>
      <use xlink:href="#DejaVuSans-72" x="669.779297"/>
     </g>
    </g>
   </g>
   <g id="line2d_13">
    <path d="M 65.599773 211.772883 
L 66.267864 198.960108 
L 66.935955 181.434265 
L 67.604045 155.9791 
L 68.272136 120.795306 
L 69.608318 45.843379 
L 70.276409 24.702069 
L 70.610455 19.648969 
L 70.9445 17.630909 
L 71.278546 18.018488 
L 71.612591 20.305487 
L 71.946637 24.148716 
L 72.614728 35.637114 
L 73.616864 59.968957 
L 76.623273 142.919086 
L 77.62541 162.885592 
L 78.961592 184.620504 
L 81.633955 224.530304 
L 81.968001 223.629692 
L 82.970137 211.821554 
L 83.972274 202.33761 
L 84.97441 194.87783 
L 85.976547 188.896151 
L 86.978683 183.958094 
L 87.980819 179.979709 
L 88.648911 178.000928 
L 89.317001 176.745816 
L 89.651047 176.443798 
L 89.985093 176.383413 
L 90.319137 176.579522 
L 90.653183 177.036145 
L 91.321275 178.703728 
L 91.989365 181.232076 
L 94.327683 191.159204 
L 95.663865 195.175708 
L 96.331957 198.532168 
L 97.000047 204.308275 
L 97.668137 213.389899 
L 98.336229 226.113675 
L 99.004319 210.477048 
L 102.010729 132.887888 
L 102.678821 123.2077 
L 103.012865 120.612223 
L 103.346911 120.03095 
L 103.680957 121.989548 
L 104.015001 126.958672 
L 104.349047 135.093792 
L 105.017139 158.737352 
L 106.019275 193.859108 
L 106.687365 206.307111 
L 107.021411 209.544577 
L 107.689501 212.984865 
L 108.691639 216.488546 
L 109.359731 219.608633 
L 110.361865 225.482182 
L 110.695911 225.099857 
L 111.364003 221.557654 
L 112.032095 219.162877 
L 112.366137 218.512966 
L 112.700183 218.236308 
L 113.034229 218.307719 
L 113.368275 218.681266 
L 114.036367 220.105955 
L 115.038501 223.171661 
L 115.706593 225.526285 
L 116.040639 225.785818 
L 117.042777 221.291655 
L 117.710865 217.467308 
L 118.713003 210.067914 
L 119.715137 200.564023 
L 121.051321 185.298861 
L 123.723685 153.30951 
L 124.725819 143.605322 
L 125.727957 136.345272 
L 126.396049 133.13045 
L 127.064141 131.346996 
L 127.398183 131.014809 
L 127.732229 131.063197 
L 128.066275 131.494054 
L 128.400321 132.306904 
L 129.068413 135.067137 
L 129.736501 139.290681 
L 130.404593 144.885823 
L 131.406731 155.549279 
L 132.742911 172.980884 
L 135.749321 214.595108 
L 136.751459 225.111223 
L 137.085505 224.688885 
L 137.753593 220.336693 
L 138.421685 217.696354 
L 138.755731 217.023604 
L 139.089777 216.774777 
L 139.423823 216.938824 
L 139.75787 217.502978 
L 140.091911 218.454877 
L 140.760003 221.482534 
L 141.428095 225.970948 
L 141.762141 223.832745 
L 142.764275 213.473005 
L 145.102593 185.730241 
L 145.770685 180.693997 
L 146.104731 179.162135 
L 146.438777 178.366087 
L 146.772823 178.341511 
L 147.10687 179.10488 
L 147.440911 180.646765 
L 148.109003 185.808789 
L 149.111136 195.272691 
L 149.445187 196.833305 
L 149.779229 196.274732 
L 150.11328 192.946529 
L 150.781372 178.884562 
L 151.449454 163.911091 
L 151.783505 159.401376 
L 152.117547 157.294626 
L 152.451598 157.282506 
L 152.785639 159.029733 
L 153.11969 162.325129 
L 153.787772 173.030029 
L 154.789916 196.599098 
L 155.792049 223.26852 
L 156.1261 220.778812 
L 157.128234 198.189559 
L 157.796326 186.457173 
L 158.464418 177.812959 
L 159.1325 172.380468 
L 159.466552 170.849815 
L 159.800593 170.072244 
L 160.134644 170.010038 
L 160.468685 170.613672 
L 160.802736 171.829386 
L 161.470818 175.855828 
L 162.138911 181.594573 
L 163.141054 192.357338 
L 165.813413 224.413747 
L 166.147464 224.476024 
L 167.483639 211.452052 
L 168.485782 204.023412 
L 169.153864 200.38798 
L 169.821957 197.895881 
L 170.156008 197.094601 
L 170.490049 196.594961 
L 170.8241 196.399184 
L 171.158141 196.507081 
L 171.492182 196.916476 
L 171.826233 197.623109 
L 172.494326 199.897851 
L 173.162418 203.246148 
L 174.164551 209.973385 
L 175.500736 220.987271 
L 176.168828 225.895467 
L 177.170962 218.18104 
L 177.839054 214.26091 
L 178.507146 211.879832 
L 178.841187 211.416844 
L 179.175228 211.515419 
L 179.50928 212.22934 
L 179.843321 213.605505 
L 180.177372 215.684564 
L 180.845464 222.060424 
L 181.179505 226.210581 
L 181.847598 215.393537 
L 182.849731 194.652299 
L 184.854008 150.727136 
L 185.5221 140.854477 
L 185.856141 137.57736 
L 186.190192 135.547907 
L 186.524233 134.812247 
L 186.858275 135.364192 
L 187.192326 137.161157 
L 187.526367 140.173564 
L 188.194459 150.103691 
L 189.864685 183.618135 
L 190.198736 183.886571 
L 190.532777 181.02325 
L 191.200869 169.125847 
L 192.537054 140.541084 
L 193.205146 129.956942 
L 193.873228 123.518011 
L 194.207279 122.039154 
L 194.541321 121.785489 
L 194.875372 122.78438 
L 195.209413 125.03927 
L 195.543464 128.524947 
L 196.211556 138.912188 
L 197.21369 161.073638 
L 199.552008 217.833603 
L 199.886049 224.200129 
L 200.2201 222.732949 
L 200.888192 213.68134 
L 201.556274 207.693674 
L 201.890326 205.820921 
L 202.224367 204.660054 
L 202.558418 204.173474 
L 202.892459 204.316296 
L 203.22651 205.039588 
L 203.560551 206.288476 
L 204.228644 210.13542 
L 205.230777 218.404738 
L 205.898869 224.925739 
L 206.23292 224.255829 
L 208.237187 204.521041 
L 209.239321 196.649146 
L 209.907413 192.603349 
L 210.575505 189.669817 
L 211.243597 187.929523 
L 211.577639 187.521547 
L 211.91169 187.423777 
L 212.245731 187.635597 
L 212.579782 188.152889 
L 213.247874 190.078124 
L 213.915966 193.118488 
L 214.584049 197.150679 
L 215.586192 204.67418 
L 217.92451 224.325323 
L 218.258551 225.914065 
L 218.926643 222.18621 
L 219.260685 220.953648 
L 219.594736 220.244672 
L 219.928777 220.135592 
L 220.262828 220.699427 
L 220.596869 222.004701 
L 221.264961 225.523315 
L 221.933054 216.962687 
L 222.601146 204.890247 
L 223.603279 181.263085 
L 225.273505 138.531022 
L 225.941597 126.066827 
L 226.275648 121.755048 
L 226.60969 118.911727 
L 226.943731 117.608701 
L 227.277782 117.865004 
L 227.611823 119.654752 
L 227.945874 122.913963 
L 228.613966 133.443902 
L 229.282049 148.435517 
L 230.618233 185.860998 
L 231.620367 211.249896 
L 231.954418 216.761267 
L 232.288459 219.753185 
L 232.62249 219.644796 
L 232.956541 216.123045 
L 233.290582 209.350837 
L 233.958665 189.292517 
L 234.960808 158.170376 
L 235.62891 142.808278 
L 236.296993 132.908462 
L 236.631034 130.258688 
L 236.965075 129.250456 
L 237.299136 129.891233 
L 237.633177 132.114499 
L 237.967218 135.784649 
L 238.63532 146.687242 
L 239.637444 168.540326 
L 241.30767 206.438302 
L 242.309813 224.538716 
L 242.643854 223.16099 
L 243.311956 215.213424 
L 243.980039 209.688758 
L 244.648121 206.459314 
L 244.982182 205.641683 
L 245.316223 205.31288 
L 245.650264 205.436655 
L 245.984305 205.976804 
L 246.318347 206.892394 
L 246.986449 209.68651 
L 247.988592 215.644931 
L 249.324757 225.084959 
L 249.658818 225.153838 
L 250.660941 218.741468 
L 251.329044 215.321215 
L 251.997126 212.838274 
L 252.665228 211.454111 
L 252.999269 211.211389 
L 253.33331 211.282635 
L 253.667352 211.674756 
L 254.001393 212.391683 
L 254.669495 214.805461 
L 255.337577 218.509843 
L 256.339721 226.232954 
L 257.341864 216.001891 
L 259.01209 195.703553 
L 260.348274 179.877443 
L 261.016356 173.46079 
L 261.684439 168.782137 
L 262.0185 167.265989 
L 262.352541 166.385088 
L 262.686582 166.199781 
L 263.020623 166.764728 
L 263.354684 168.129949 
L 263.688726 170.336747 
L 264.356808 177.397874 
L 265.02491 188.07587 
L 265.692992 202.261656 
L 266.361075 219.526634 
L 266.695136 223.516241 
L 269.033444 157.017199 
L 269.701546 145.74414 
L 270.035587 142.570336 
L 270.369628 141.158217 
L 270.703669 141.505435 
L 271.03773 143.570504 
L 271.371772 147.326233 
L 271.705813 152.814554 
L 272.373895 169.542329 
L 273.041997 194.15346 
L 273.71008 221.927727 
L 274.044121 218.721004 
L 274.378182 209.573761 
L 274.712223 203.645704 
L 275.046264 200.784021 
L 275.380305 200.491535 
L 275.714366 202.169162 
L 276.382449 209.338645 
L 277.384592 224.219378 
L 277.718633 223.302519 
L 278.720777 210.216261 
L 279.388859 204.435316 
L 279.7229 202.644626 
L 280.056941 201.623641 
L 280.391002 201.37617 
L 280.725043 201.890401 
L 281.059085 203.143936 
L 281.727167 207.719933 
L 282.395269 214.646773 
L 283.063351 223.148638 
L 283.397412 224.9293 
L 284.399536 212.196698 
L 285.067638 205.760915 
L 285.73572 201.845174 
L 286.069762 200.921019 
L 286.403823 200.679326 
L 286.737864 201.085586 
L 287.071905 202.091907 
L 287.739987 205.65271 
L 288.408089 210.817564 
L 290.078315 225.370342 
L 291.748541 209.32451 
L 292.750684 201.751604 
L 293.418767 197.917106 
L 294.086849 195.166811 
L 294.754951 193.549864 
L 295.088992 193.171656 
L 295.423033 193.078074 
L 295.757094 193.265427 
L 296.091136 193.72683 
L 296.759218 195.435419 
L 297.42732 198.108174 
L 298.429444 203.625848 
L 299.765628 212.808578 
L 301.435854 224.389707 
L 301.769895 226.240691 
L 302.437997 222.992246 
L 303.106079 220.854848 
L 303.440141 220.26469 
L 303.774182 220.010327 
L 304.108223 220.090729 
L 304.442264 220.489488 
L 305.110366 222.111711 
L 306.11249 225.731609 
L 306.446551 225.641671 
L 307.114633 223.710556 
L 307.448674 223.144048 
L 307.782715 222.922409 
L 308.116776 223.080374 
L 308.450818 223.63223 
L 308.784859 224.569583 
L 309.1189 225.863565 
L 309.452941 225.117765 
L 310.455084 219.004553 
L 312.793412 203.633182 
L 313.795536 198.559122 
L 314.463638 196.372363 
L 314.797679 196.089754 
L 315.13172 196.874781 
L 315.465761 199.37619 
L 315.799822 204.341805 
L 316.133864 212.335783 
L 316.467905 223.365619 
L 316.801946 215.924699 
L 317.804089 176.484609 
L 318.472172 159.920579 
L 319.140274 151.29268 
L 319.474315 149.344931 
L 319.808356 148.922511 
L 320.142397 150.127164 
L 320.476458 153.067024 
L 320.8105 157.777692 
L 321.478582 172.057722 
L 322.480725 201.532009 
L 323.148808 222.780415 
L 323.482869 219.530449 
L 324.484992 192.266666 
L 325.153094 178.101845 
L 325.821177 167.554118 
L 326.489279 160.591329 
L 326.82332 158.38659 
L 327.157361 156.979109 
L 327.491402 156.323562 
L 327.825443 156.367726 
L 328.159504 157.058684 
L 328.493546 158.339965 
L 329.161628 162.440231 
L 329.82973 168.189388 
L 330.831854 178.838848 
L 333.504223 208.544383 
L 334.506366 216.866821 
L 335.174448 220.960581 
L 335.842551 223.756922 
L 336.176592 224.64698 
L 336.510633 225.192785 
L 336.844674 225.392395 
L 337.178715 225.247278 
L 337.512776 224.760817 
L 337.846817 223.938738 
L 338.5149 221.325847 
L 339.183002 217.509379 
L 340.185125 209.862151 
L 341.52131 197.236359 
L 343.525597 178.100674 
L 344.193679 173.155779 
L 344.861761 169.586126 
L 345.195822 168.438687 
L 345.529863 167.779496 
L 345.863905 167.653225 
L 346.197946 168.105412 
L 346.532007 169.176412 
L 346.866048 170.907313 
L 347.53413 176.48672 
L 348.202233 185.071519 
L 348.870315 196.757517 
L 350.206499 223.927718 
L 352.544807 160.394168 
L 353.21291 148.919375 
L 353.546951 145.357294 
L 353.880992 143.298667 
L 354.215053 142.674642 
L 354.549094 143.37675 
L 354.883135 145.313177 
L 355.217176 148.466934 
L 355.551218 152.928101 
L 356.21932 166.551483 
L 356.887402 187.264972 
L 357.889545 224.8185 
L 358.891689 204.118099 
L 359.22573 201.509326 
L 359.559771 200.888206 
L 359.893812 201.549333 
L 361.564038 207.915068 
L 362.566181 210.713781 
L 363.234264 213.541328 
L 363.902366 217.765082 
L 364.904489 226.212261 
L 366.240674 214.124394 
L 366.908776 209.614946 
L 367.576858 206.84232 
L 367.9109 206.160147 
L 368.244961 205.934243 
L 368.579002 206.130534 
L 368.913043 206.699646 
L 369.581125 208.713115 
L 370.91731 214.361035 
L 371.919453 218.259893 
L 372.587535 220.219307 
L 373.255638 221.59604 
L 373.92372 222.439615 
L 374.591822 222.853411 
L 375.259904 222.965792 
L 376.262048 222.838055 
L 377.598232 222.626412 
L 378.600356 222.684419 
L 379.93654 223.077109 
L 381.272725 223.454454 
L 381.940827 223.403226 
L 382.608909 223.0271 
L 383.276992 222.194042 
L 383.945094 220.780657 
L 384.613176 218.700142 
L 385.281278 215.929782 
L 386.283402 210.678066 
L 387.953628 201.355087 
L 388.62173 198.717942 
L 388.955771 197.875727 
L 389.289812 197.417879 
L 389.623853 197.380914 
L 389.957914 197.787889 
L 390.291956 198.648356 
L 390.960038 201.688676 
L 391.62814 206.277589 
L 392.630263 215.100936 
L 393.632407 224.597045 
L 393.966448 224.966851 
L 395.302633 214.174816 
L 397.975002 194.495706 
L 398.309043 194.011498 
L 398.643084 195.263084 
L 398.977145 198.779504 
L 399.311186 204.917891 
L 399.645227 213.721203 
L 399.645227 213.721203 
" clip-path="url(#pd1128e6c35)" style="fill: none; stroke: #0077bb; stroke-width: 2; stroke-linecap: square"/>
   </g>
   <g id="line2d_14">
    <path d="M 65.599773 216.357904 
L 66.267864 217.910613 
L 66.601909 218.398464 
L 66.935955 218.674303 
L 67.27 218.725207 
L 67.604045 218.541048 
L 67.938091 218.114116 
L 68.606182 216.522783 
L 69.274273 213.960714 
L 69.942364 210.498906 
L 70.9445 203.924624 
L 74.284955 180.030582 
L 74.953046 177.12606 
L 75.621137 175.499554 
L 75.955182 175.228415 
L 76.289228 175.343458 
L 76.623273 175.859496 
L 76.957319 176.784787 
L 77.62541 179.867766 
L 78.293501 184.566389 
L 78.961592 190.776215 
L 79.963728 202.538569 
L 81.633955 225.979939 
L 84.306319 185.998325 
L 85.308456 173.564476 
L 86.310592 163.609711 
L 86.978683 158.557984 
L 87.646773 154.852229 
L 88.314865 152.506691 
L 88.648911 151.837444 
L 88.982955 151.493639 
L 89.317001 151.468842 
L 89.651047 151.74857 
L 89.985093 152.317634 
L 90.653183 154.261491 
L 91.321275 157.153567 
L 92.323411 162.884859 
L 93.659593 172.132517 
L 95.997911 188.522722 
L 97.000047 194.283283 
L 98.002183 198.827845 
L 98.670275 201.137725 
L 99.338365 202.888987 
L 100.006457 204.135675 
L 100.674547 204.959717 
L 101.342639 205.457832 
L 102.344775 205.836336 
L 103.680957 206.224084 
L 104.349047 206.578249 
L 105.017139 207.130043 
L 105.685229 207.913679 
L 106.687365 209.540827 
L 107.689501 211.6319 
L 110.695911 218.473324 
L 111.364003 219.548728 
L 112.032095 220.27267 
L 112.700183 220.57008 
L 113.034229 220.54113 
L 113.368275 220.384105 
L 114.036367 219.669799 
L 114.704455 218.40559 
L 115.372547 216.582727 
L 116.040639 214.215965 
L 117.042777 209.721577 
L 118.378957 202.26433 
L 120.383229 189.268657 
L 122.387501 176.511305 
L 123.723685 169.525706 
L 124.725819 165.612107 
L 125.393911 163.771463 
L 126.062003 162.610383 
L 126.396049 162.298379 
L 126.730095 162.169612 
L 127.064141 162.224792 
L 127.398183 162.467703 
L 127.732229 162.896642 
L 128.400321 164.309861 
L 129.068413 166.444005 
L 129.736501 169.259465 
L 130.738639 174.639569 
L 132.074823 183.570776 
L 134.079095 199.143469 
L 136.417413 216.959717 
L 137.753593 225.233246 
L 138.087639 225.62163 
L 139.089777 221.366639 
L 139.75787 219.374832 
L 140.425957 218.090215 
L 140.760003 217.714881 
L 141.094049 217.516264 
L 141.428095 217.49194 
L 141.762141 217.635614 
L 142.096188 217.943476 
L 142.764275 219.019144 
L 143.432367 220.651204 
L 144.434505 223.944719 
L 144.768552 225.217378 
L 145.102593 226.034612 
L 148.777095 211.178782 
L 149.779229 208.374235 
L 150.447321 207.016229 
L 151.115413 206.085054 
L 151.783505 205.564264 
L 152.451598 205.414114 
L 153.11969 205.57179 
L 154.121823 206.202886 
L 155.792049 207.46386 
L 156.460141 207.730054 
L 157.128234 207.710781 
L 157.796326 207.322753 
L 158.464418 206.503679 
L 159.1325 205.212602 
L 159.800593 203.431207 
L 160.802736 199.86366 
L 161.804869 195.34806 
L 163.475095 186.409873 
L 165.813413 173.72954 
L 166.815546 169.327468 
L 167.81769 166.056095 
L 168.485782 164.638712 
L 169.153864 163.897674 
L 169.487916 163.793563 
L 169.821957 163.8707 
L 170.156008 164.128897 
L 170.8241 165.189556 
L 171.492182 166.956707 
L 172.160275 169.391781 
L 173.162418 174.162644 
L 174.498593 182.183632 
L 176.502869 196.149884 
L 178.507146 209.919531 
L 179.843321 217.809078 
L 180.845464 222.722787 
L 181.513546 225.468657 
L 181.847598 225.906919 
L 182.849731 222.899954 
L 183.851864 220.776528 
L 184.519957 219.795396 
L 185.188049 219.114246 
L 185.856141 218.687572 
L 186.524233 218.475093 
L 187.192326 218.435888 
L 188.194459 218.630331 
L 189.196593 219.062137 
L 190.198736 219.696616 
L 191.200869 220.546818 
L 192.203003 221.668333 
L 193.205146 223.144981 
L 194.207279 225.076644 
L 194.541321 225.838788 
L 194.875372 225.92379 
L 195.877505 223.037387 
L 196.879639 219.507509 
L 198.215823 213.809232 
L 199.886049 205.340813 
L 204.562685 180.175533 
L 205.564828 176.042283 
L 206.566961 172.820504 
L 207.235054 171.25727 
L 207.903146 170.202857 
L 208.571238 169.678159 
L 208.905279 169.619336 
L 209.239321 169.697017 
L 209.573372 169.911084 
L 210.241464 170.743787 
L 210.909556 172.101638 
L 211.577639 173.960549 
L 212.579782 177.60599 
L 213.581915 182.141963 
L 214.9181 189.24296 
L 217.590459 205.132176 
L 219.594736 216.53745 
L 220.93092 223.137079 
L 221.599003 226.041625 
L 221.933054 225.199422 
L 223.269238 220.522224 
L 224.271372 217.722665 
L 225.273505 215.442659 
L 226.60969 213.005674 
L 230.618233 206.451991 
L 231.954418 203.49644 
L 233.290582 199.923252 
L 235.294849 193.700511 
L 237.299136 187.491571 
L 238.301259 184.922451 
L 239.303403 183.026994 
L 239.971485 182.25357 
L 240.639587 181.944258 
L 240.973628 181.979892 
L 241.30767 182.150245 
L 241.975772 182.917559 
L 242.643854 184.274215 
L 243.311956 186.239272 
L 243.980039 188.813595 
L 244.982182 193.78996 
L 245.984305 200.006458 
L 247.32049 209.91681 
L 249.324757 225.581476 
L 251.997126 202.712577 
L 253.33331 193.114276 
L 254.335454 187.350639 
L 255.003536 184.338598 
L 255.671638 182.062886 
L 256.339721 180.571536 
L 256.673762 180.128944 
L 257.007803 179.891735 
L 257.341864 179.860714 
L 257.675905 180.034746 
L 258.009946 180.412056 
L 258.678048 181.767564 
L 259.346131 183.884932 
L 260.014213 186.705313 
L 261.016356 192.0707 
L 262.352541 200.77996 
L 265.692992 223.574099 
L 266.027034 225.439683 
L 266.361075 225.421913 
L 267.363218 221.204344 
L 268.03132 219.290916 
L 268.699403 218.150398 
L 269.033444 217.875437 
L 269.367485 217.795857 
L 269.701546 217.908691 
L 270.035587 218.207207 
L 270.703669 219.330217 
L 271.371772 221.084542 
L 272.373895 224.650907 
L 272.707956 226.021826 
L 273.041997 225.135445 
L 275.380305 215.147829 
L 276.382449 211.98241 
L 277.050531 210.599833 
L 277.384592 210.168196 
L 277.718633 209.924668 
L 278.052674 209.878286 
L 278.386715 210.035175 
L 278.720777 210.400677 
L 279.388859 211.766889 
L 280.056941 213.974095 
L 280.725043 216.98781 
L 281.727167 222.861882 
L 282.061228 225.133376 
L 282.395269 225.052495 
L 284.065495 211.713219 
L 286.403823 193.013288 
L 287.405946 186.511571 
L 288.408089 181.590598 
L 289.076172 179.354046 
L 289.744274 178.03209 
L 290.078315 177.725103 
L 290.412356 177.659111 
L 290.746397 177.831179 
L 291.080459 178.241354 
L 291.748541 179.756224 
L 292.416623 182.15564 
L 293.084725 185.366321 
L 294.086849 191.487581 
L 295.423033 201.461914 
L 298.429444 226.249091 
L 300.099669 214.444454 
L 301.101813 208.741036 
L 302.103956 204.314167 
L 302.772038 202.102105 
L 303.440141 200.476687 
L 304.108223 199.415957 
L 304.776305 198.88151 
L 305.444407 198.829146 
L 306.11249 199.202859 
L 306.780592 199.946298 
L 307.448674 200.996784 
L 308.450818 203.023019 
L 309.787002 206.301869 
L 311.791269 211.911294 
L 313.795536 218.137159 
L 315.465761 224.028854 
L 315.799822 225.308389 
L 316.133864 225.960506 
L 317.804089 218.841054 
L 321.478582 202.526185 
L 322.480725 199.120422 
L 323.148808 197.393815 
L 323.81691 196.190038 
L 324.484992 195.570503 
L 324.819033 195.492674 
L 325.153094 195.576324 
L 325.487135 195.819578 
L 326.155218 196.7903 
L 326.82332 198.391783 
L 327.491402 200.586809 
L 328.493546 204.860634 
L 329.82973 211.972634 
L 332.168038 226.111451 
L 332.83614 222.529707 
L 334.172325 215.335649 
L 335.174448 210.820663 
L 336.176592 207.2428 
L 336.844674 205.42984 
L 337.512776 204.092764 
L 338.180859 203.229514 
L 338.848961 202.836399 
L 339.517043 202.89586 
L 340.185125 203.387787 
L 340.853228 204.284874 
L 341.52131 205.557164 
L 342.523453 208.103791 
L 343.525597 211.324599 
L 344.861761 216.491606 
L 346.532007 224.044364 
L 346.866048 225.667202 
L 347.200089 225.268656 
L 352.878868 197.219408 
L 353.880992 193.571402 
L 354.883135 190.832663 
L 355.551218 189.614512 
L 356.21932 188.950113 
L 356.553361 188.843075 
L 356.887402 188.890644 
L 357.221443 189.098977 
L 357.555504 189.472777 
L 358.223587 190.730977 
L 358.891689 192.679775 
L 359.559771 195.322037 
L 360.561915 200.556355 
L 361.564038 207.21637 
L 362.900222 217.987777 
L 363.568325 224.011347 
L 363.902366 225.444492 
L 368.579002 181.291562 
L 369.581125 173.864944 
L 370.583269 167.895474 
L 371.251371 164.852353 
L 371.919453 162.628389 
L 372.587535 161.270385 
L 372.921596 160.927503 
L 373.255638 160.81498 
L 373.589679 160.932318 
L 373.92372 161.283517 
L 374.257781 161.867878 
L 374.925863 163.73978 
L 375.593946 166.538842 
L 376.262048 170.246028 
L 377.264171 177.441754 
L 378.266315 186.465573 
L 379.602499 200.996417 
L 381.606766 225.682641 
L 387.285545 147.697177 
L 388.62173 133.857385 
L 389.623853 125.854386 
L 390.291956 121.85664 
L 390.960038 119.049137 
L 391.294099 118.120403 
L 391.62814 117.524725 
L 391.962181 117.270149 
L 392.296222 117.3671 
L 392.630263 117.826214 
L 392.964325 118.655867 
L 393.632407 121.452125 
L 394.300509 125.81435 
L 394.968591 131.782988 
L 395.636674 139.388759 
L 396.638817 153.90522 
L 397.64096 172.152043 
L 398.643084 194.070977 
L 399.645227 219.542656 
L 399.645227 219.542656 
" clip-path="url(#pd1128e6c35)" style="fill: none; stroke: #ee7733; stroke-width: 2; stroke-linecap: square"/>
   </g>
   <g id="patch_3">
    <path d="M 48.8975 236.68 
L 48.8975 7.2 
" style="fill: none; stroke: #000000; stroke-width: 0.8; stroke-linejoin: miter; stroke-linecap: square"/>
   </g>
   <g id="patch_4">
    <path d="M 416.3475 236.68 
L 416.3475 7.2 
" style="fill: none; stroke: #000000; stroke-width: 0.8; stroke-linejoin: miter; stroke-linecap: square"/>
   </g>
   <g id="patch_5">
    <path d="M 48.8975 236.68 
L 416.3475 236.68 
" style="fill: none; stroke: #000000; stroke-width: 0.8; stroke-linejoin: miter; stroke-linecap: square"/>
   </g>
   <g id="patch_6">
    <path d="M 48.8975 7.2 
L 416.3475 7.2 
" style="fill: none; stroke: #000000; stroke-width: 0.8; stroke-linejoin: miter; stroke-linecap: square"/>
   </g>
   <g id="legend_1">
    <g id="patch_7">
     <path d="M 299.295937 44.55625 
L 409.3475 44.55625 
Q 411.3475 44.55625 411.3475 42.55625 
L 411.3475 14.2 
Q 411.3475 12.2 409.3475 12.2 
L 299.295937 12.2 
Q 297.295937 12.2 297.295937 14.2 
L 297.295937 42.55625 
Q 297.295937 44.55625 299.295937 44.55625 
z
" style="fill: #ffffff; opacity: 0.8; stroke: #cccccc; stroke-linejoin: miter"/>
    </g>
    <g id="line2d_15">
     <path d="M 301.295937 20.298437 
L 311.295937 20.298437 
L 321.295937 20.298437 
" style="fill: none; stroke: #0077bb; stroke-width: 2; stroke-linecap: square"/>
    </g>
    <g id="text_15">
     <!-- Meng's MF-BNN -->
     <g transform="translate(329.295937 23.798437) scale(0.1 -0.1)">
      <defs>
       <path id="DejaVuSans-4d" d="M 628 4666 
L 1569 4666 
L 2759 1491 
L 3956 4666 
L 4897 4666 
L 4897 0 
L 4281 0 
L 4281 4097 
L 3078 897 
L 2444 897 
L 1241 4097 
L 1241 0 
L 628 0 
L 628 4666 
z
" transform="scale(0.015625)"/>
       <path id="DejaVuSans-6e" d="M 3513 2113 
L 3513 0 
L 2938 0 
L 2938 2094 
Q 2938 2591 2744 2837 
Q 2550 3084 2163 3084 
Q 1697 3084 1428 2787 
Q 1159 2491 1159 1978 
L 1159 0 
L 581 0 
L 581 3500 
L 1159 3500 
L 1159 2956 
Q 1366 3272 1645 3428 
Q 1925 3584 2291 3584 
Q 2894 3584 3203 3211 
Q 3513 2838 3513 2113 
z
" transform="scale(0.015625)"/>
       <path id="DejaVuSans-67" d="M 2906 1791 
Q 2906 2416 2648 2759 
Q 2391 3103 1925 3103 
Q 1463 3103 1205 2759 
Q 947 2416 947 1791 
Q 947 1169 1205 825 
Q 1463 481 1925 481 
Q 2391 481 2648 825 
Q 2906 1169 2906 1791 
z
M 3481 434 
Q 3481 -459 3084 -895 
Q 2688 -1331 1869 -1331 
Q 1566 -1331 1297 -1286 
Q 1028 -1241 775 -1147 
L 775 -588 
Q 1028 -725 1275 -790 
Q 1522 -856 1778 -856 
Q 2344 -856 2625 -561 
Q 2906 -266 2906 331 
L 2906 616 
Q 2728 306 2450 153 
Q 2172 0 1784 0 
Q 1141 0 747 490 
Q 353 981 353 1791 
Q 353 2603 747 3093 
Q 1141 3584 1784 3584 
Q 2172 3584 2450 3431 
Q 2728 3278 2906 2969 
L 2906 3500 
L 3481 3500 
L 3481 434 
z
" transform="scale(0.015625)"/>
       <path id="DejaVuSans-27" d="M 1147 4666 
L 1147 2931 
L 616 2931 
L 616 4666 
L 1147 4666 
z
" transform="scale(0.015625)"/>
       <path id="DejaVuSans-46" d="M 628 4666 
L 3309 4666 
L 3309 4134 
L 1259 4134 
L 1259 2759 
L 3109 2759 
L 3109 2228 
L 1259 2228 
L 1259 0 
L 628 0 
L 628 4666 
z
" transform="scale(0.015625)"/>
       <path id="DejaVuSans-2d" d="M 313 2009 
L 1997 2009 
L 1997 1497 
L 313 1497 
L 313 2009 
z
" transform="scale(0.015625)"/>
       <path id="DejaVuSans-42" d="M 1259 2228 
L 1259 519 
L 2272 519 
Q 2781 519 3026 730 
Q 3272 941 3272 1375 
Q 3272 1813 3026 2020 
Q 2781 2228 2272 2228 
L 1259 2228 
z
M 1259 4147 
L 1259 2741 
L 2194 2741 
Q 2656 2741 2882 2914 
Q 3109 3088 3109 3444 
Q 3109 3797 2882 3972 
Q 2656 4147 2194 4147 
L 1259 4147 
z
M 628 4666 
L 2241 4666 
Q 2963 4666 3353 4366 
Q 3744 4066 3744 3513 
Q 3744 3084 3544 2831 
Q 3344 2578 2956 2516 
Q 3422 2416 3680 2098 
Q 3938 1781 3938 1306 
Q 3938 681 3513 340 
Q 3088 0 2303 0 
L 628 0 
L 628 4666 
z
" transform="scale(0.015625)"/>
       <path id="DejaVuSans-4e" d="M 628 4666 
L 1478 4666 
L 3547 763 
L 3547 4666 
L 4159 4666 
L 4159 0 
L 3309 0 
L 1241 3903 
L 1241 0 
L 628 0 
L 628 4666 
z
" transform="scale(0.015625)"/>
      </defs>
      <use xlink:href="#DejaVuSans-4d"/>
      <use xlink:href="#DejaVuSans-65" x="86.279297"/>
      <use xlink:href="#DejaVuSans-6e" x="147.802734"/>
      <use xlink:href="#DejaVuSans-67" x="211.181641"/>
      <use xlink:href="#DejaVuSans-27" x="274.658203"/>
      <use xlink:href="#DejaVuSans-73" x="302.148438"/>
      <use xlink:href="#DejaVuSans-20" x="354.248047"/>
      <use xlink:href="#DejaVuSans-4d" x="386.035156"/>
      <use xlink:href="#DejaVuSans-46" x="472.314453"/>
      <use xlink:href="#DejaVuSans-2d" x="529.833984"/>
      <use xlink:href="#DejaVuSans-42" x="562.292969"/>
      <use xlink:href="#DejaVuSans-4e" x="630.896484"/>
      <use xlink:href="#DejaVuSans-4e" x="705.701172"/>
     </g>
    </g>
    <g id="line2d_16">
     <path d="M 301.295937 34.976562 
L 311.295937 34.976562 
L 321.295937 34.976562 
" style="fill: none; stroke: #ee7733; stroke-width: 2; stroke-linecap: square"/>
    </g>
    <g id="text_16">
     <!-- MF-DNN-BNN -->
     <g transform="translate(329.295937 38.476562) scale(0.1 -0.1)">
      <defs>
       <path id="DejaVuSans-44" d="M 1259 4147 
L 1259 519 
L 2022 519 
Q 2988 519 3436 956 
Q 3884 1394 3884 2338 
Q 3884 3275 3436 3711 
Q 2988 4147 2022 4147 
L 1259 4147 
z
M 628 4666 
L 1925 4666 
Q 3281 4666 3915 4102 
Q 4550 3538 4550 2338 
Q 4550 1131 3912 565 
Q 3275 0 1925 0 
L 628 0 
L 628 4666 
z
" transform="scale(0.015625)"/>
      </defs>
      <use xlink:href="#DejaVuSans-4d"/>
      <use xlink:href="#DejaVuSans-46" x="86.279297"/>
      <use xlink:href="#DejaVuSans-2d" x="143.798828"/>
      <use xlink:href="#DejaVuSans-44" x="179.882812"/>
      <use xlink:href="#DejaVuSans-4e" x="256.884766"/>
      <use xlink:href="#DejaVuSans-4e" x="331.689453"/>
      <use xlink:href="#DejaVuSans-2d" x="406.494141"/>
      <use xlink:href="#DejaVuSans-42" x="438.953125"/>
      <use xlink:href="#DejaVuSans-4e" x="507.556641"/>
      <use xlink:href="#DejaVuSans-4e" x="582.361328"/>
     </g>
    </g>
   </g>
  </g>
 </g>
 <defs>
  <clipPath id="pd1128e6c35">
   <rect x="48.8975" y="7.2" width="367.45" height="229.48"/>
  </clipPath>
 </defs>
</svg>
