<?xml version="1.0" encoding="utf-8" standalone="no"?>
<!DOCTYPE svg PUBLIC "-//W3C//DTD SVG 1.1//EN"
  "http://www.w3.org/Graphics/SVG/1.1/DTD/svg11.dtd">
<svg xmlns:xlink="http://www.w3.org/1999/xlink" width="954.324062pt" height="325.384375pt" viewBox="0 0 954.324062 325.384375" xmlns="http://www.w3.org/2000/svg" version="1.1">
 <metadata>
  <rdf:RDF xmlns:dc="http://purl.org/dc/elements/1.1/" xmlns:cc="http://creativecommons.org/ns#" xmlns:rdf="http://www.w3.org/1999/02/22-rdf-syntax-ns#">
   <cc:Work>
    <dc:type rdf:resource="http://purl.org/dc/dcmitype/StillImage"/>
    <dc:date>2024-07-04T09:22:01.358249</dc:date>
    <dc:format>image/svg+xml</dc:format>
    <dc:creator>
     <cc:Agent>
      <dc:title>Matplotlib v3.8.2, https://matplotlib.org/</dc:title>
     </cc:Agent>
    </dc:creator>
   </cc:Work>
  </rdf:RDF>
 </metadata>
 <defs>
  <style type="text/css">*{stroke-linejoin: round; stroke-linecap: butt}</style>
 </defs>
 <g id="figure_1">
  <g id="patch_1">
   <path d="M 0 325.384375 
L 954.324062 325.384375 
L 954.324062 0 
L 0 0 
z
" style="fill: #ffffff"/>
  </g>
  <g id="axes_1">
   <g id="patch_2">
    <path d="M 54.324062 278.15 
L 316.912298 278.15 
L 316.912298 56.39 
L 54.324062 56.39 
z
" style="fill: #ffffff"/>
   </g>
   <g id="PolyCollection_1">
    <defs>
     <path id="mb555215b17" d="M 66.259891 -145.09435 
L 66.259891 -129.318008 
L 68.647057 -127.95651 
L 71.034223 -126.513699 
L 73.421389 -124.992616 
L 75.808554 -123.397591 
L 78.19572 -121.73427 
L 80.582886 -120.010064 
L 82.970052 -118.234689 
L 85.357217 -116.421015 
L 87.744382 -114.58557 
L 90.131548 -112.74843 
L 92.518715 -110.932196 
L 94.90588 -109.160396 
L 97.293045 -107.455568 
L 99.680212 -105.837739 
L 102.067376 -104.323455 
L 104.454543 -102.925577 
L 106.84171 -101.653501 
L 109.228873 -100.51369 
L 111.616041 -99.510168 
L 114.003204 -98.644924 
L 116.390371 -97.918135 
L 118.777538 -97.328253 
L 121.164702 -96.8721 
L 123.551869 -96.544847 
L 125.939036 -96.34018 
L 128.326199 -96.250409 
L 130.713363 -96.26673 
L 133.100533 -96.379684 
L 135.487697 -96.579801 
L 137.87486 -96.858427 
L 140.262031 -97.208613 
L 142.649194 -97.625658 
L 145.036358 -98.107034 
L 147.423529 -98.65156 
L 149.810692 -99.257946 
L 152.197856 -99.923317 
L 154.585026 -100.642077 
L 156.97219 -101.405703 
L 159.359353 -102.203392 
L 161.746517 -103.023524 
L 164.133687 -103.855113 
L 166.520851 -104.688621 
L 168.908014 -105.515304 
L 171.295185 -106.324998 
L 173.682348 -107.103081 
L 176.069512 -107.827791 
L 178.456683 -108.469359 
L 180.843846 -108.991539 
L 183.23101 -109.355283 
L 185.61818 -109.523632 
L 188.005344 -109.466465 
L 190.392507 -109.163362 
L 192.779685 -108.602667 
L 195.166848 -107.777831 
L 197.554012 -106.685774 
L 199.941175 -105.333686 
L 202.328339 -103.752814 
L 204.715502 -102.00502 
L 207.10268 -100.167279 
L 209.489844 -98.300736 
L 211.877007 -96.428512 
L 214.264171 -94.538682 
L 216.651334 -92.605014 
L 219.038498 -90.603039 
L 221.425675 -88.501361 
L 223.812839 -86.233729 
L 226.200002 -83.693439 
L 228.587166 -80.791037 
L 230.974329 -77.544147 
L 233.361493 -74.103828 
L 235.748656 -70.697017 
L 238.135834 -67.557666 
L 240.522998 -64.889591 
L 242.910161 -62.855042 
L 245.297325 -61.575536 
L 247.684488 -61.136573 
L 250.071652 -61.592944 
L 252.458829 -62.97256 
L 254.845993 -65.277449 
L 257.233156 -68.48009 
L 259.62032 -72.514267 
L 262.007483 -77.263967 
L 264.394647 -82.570263 
L 266.781824 -88.296215 
L 269.168988 -94.432659 
L 271.556151 -101.113977 
L 273.943315 -108.519701 
L 276.330478 -116.789578 
L 278.717642 -125.994537 
L 281.104805 -136.130796 
L 283.491983 -147.117453 
L 285.879147 -158.796321 
L 288.26631 -170.940295 
L 290.653474 -183.26987 
L 293.040637 -195.474665 
L 295.427801 -207.23108 
L 297.814978 -218.207582 
L 300.202142 -228.060218 
L 302.589305 -236.460337 
L 304.976469 -243.231487 
L 304.976469 -258.914375 
L 304.976469 -258.914375 
L 302.589305 -252.094011 
L 300.202142 -245.184582 
L 297.814978 -237.972094 
L 295.427801 -230.161222 
L 293.040637 -221.530801 
L 290.653474 -211.974103 
L 288.26631 -201.496979 
L 285.879147 -190.21029 
L 283.491983 -178.318311 
L 281.104805 -166.098982 
L 278.717642 -153.876386 
L 276.330478 -141.988722 
L 273.943315 -130.762425 
L 271.556151 -120.498679 
L 269.168988 -111.471064 
L 266.781824 -103.910005 
L 264.394647 -97.936693 
L 262.007483 -93.484677 
L 259.62032 -90.33296 
L 257.233156 -88.225112 
L 254.845993 -86.942476 
L 252.458829 -86.314317 
L 250.071652 -86.206053 
L 247.684488 -86.506733 
L 245.297325 -87.120696 
L 242.910161 -87.964787 
L 240.522998 -88.971396 
L 238.135834 -90.096688 
L 235.748656 -91.332559 
L 233.361493 -92.717374 
L 230.974329 -94.335638 
L 228.587166 -96.290414 
L 226.200002 -98.640475 
L 223.812839 -101.342593 
L 221.425675 -104.269764 
L 219.038498 -107.286072 
L 216.651334 -110.28716 
L 214.264171 -113.184289 
L 211.877007 -115.878796 
L 209.489844 -118.26601 
L 207.10268 -120.265271 
L 204.715502 -121.847727 
L 202.328339 -123.039433 
L 199.941175 -123.898206 
L 197.554012 -124.483649 
L 195.166848 -124.84273 
L 192.779685 -125.013674 
L 190.392507 -125.033624 
L 188.005344 -124.938749 
L 185.61818 -124.758147 
L 183.23101 -124.508356 
L 180.843846 -124.192428 
L 178.456683 -123.803688 
L 176.069512 -123.331597 
L 173.682348 -122.767669 
L 171.295185 -122.109865 
L 168.908014 -121.364768 
L 166.520851 -120.547073 
L 164.133687 -119.676824 
L 161.746517 -118.775628 
L 159.359353 -117.863335 
L 156.97219 -116.956311 
L 154.585026 -116.067671 
L 152.197856 -115.208849 
L 149.810692 -114.391573 
L 147.423529 -113.629134 
L 145.036358 -112.936585 
L 142.649194 -112.329831 
L 140.262031 -111.82404 
L 137.87486 -111.431993 
L 135.487697 -111.163058 
L 133.100533 -111.022833 
L 130.713363 -111.013546 
L 128.326199 -111.134842 
L 125.939036 -111.384567 
L 123.551869 -111.759452 
L 121.164702 -112.255559 
L 118.777538 -112.868522 
L 116.390371 -113.593707 
L 114.003204 -114.426233 
L 111.616041 -115.36101 
L 109.228873 -116.392736 
L 106.84171 -117.515882 
L 104.454543 -118.724776 
L 102.067376 -120.013766 
L 99.680212 -121.377531 
L 97.293045 -122.811362 
L 94.90588 -124.311292 
L 92.518715 -125.873927 
L 90.131548 -127.495826 
L 87.744382 -129.172517 
L 85.357217 -130.897526 
L 82.970052 -132.66177 
L 80.582886 -134.453674 
L 78.19572 -136.260135 
L 75.808554 -138.067782 
L 73.421389 -139.864327 
L 71.034223 -141.6394 
L 68.647057 -143.384796 
L 66.259891 -145.09435 
z
" style="stroke: #bbbbbb; stroke-opacity: 0.5"/>
    </defs>
    <g clip-path="url(#p34c0a80cb2)">
     <use xlink:href="#mb555215b17" x="0" y="325.384375" style="fill: #bbbbbb; fill-opacity: 0.5; stroke: #bbbbbb; stroke-opacity: 0.5"/>
    </g>
   </g>
   <g id="matplotlib.axis_1">
    <g id="xtick_1">
     <g id="line2d_1">
      <defs>
       <path id="m855e333bab" d="M 0 0 
L 0 3.5 
" style="stroke: #000000; stroke-width: 0.8"/>
      </defs>
      <g>
       <use xlink:href="#m855e333bab" x="66.259891" y="278.15" style="stroke: #000000; stroke-width: 0.8"/>
      </g>
     </g>
     <g id="text_1">
      <!-- 0.0 -->
      <g transform="translate(55.127704 295.787812) scale(0.14 -0.14)">
       <defs>
        <path id="DejaVuSans-30" d="M 2034 4250 
Q 1547 4250 1301 3770 
Q 1056 3291 1056 2328 
Q 1056 1369 1301 889 
Q 1547 409 2034 409 
Q 2525 409 2770 889 
Q 3016 1369 3016 2328 
Q 3016 3291 2770 3770 
Q 2525 4250 2034 4250 
z
M 2034 4750 
Q 2819 4750 3233 4129 
Q 3647 3509 3647 2328 
Q 3647 1150 3233 529 
Q 2819 -91 2034 -91 
Q 1250 -91 836 529 
Q 422 1150 422 2328 
Q 422 3509 836 4129 
Q 1250 4750 2034 4750 
z
" transform="scale(0.015625)"/>
        <path id="DejaVuSans-2e" d="M 684 794 
L 1344 794 
L 1344 0 
L 684 0 
L 684 794 
z
" transform="scale(0.015625)"/>
       </defs>
       <use xlink:href="#DejaVuSans-30"/>
       <use xlink:href="#DejaVuSans-2e" x="63.623047"/>
       <use xlink:href="#DejaVuSans-30" x="95.410156"/>
      </g>
     </g>
    </g>
    <g id="xtick_2">
     <g id="line2d_2">
      <g>
       <use xlink:href="#m855e333bab" x="114.003207" y="278.15" style="stroke: #000000; stroke-width: 0.8"/>
      </g>
     </g>
     <g id="text_2">
      <!-- 0.2 -->
      <g transform="translate(102.871019 295.787812) scale(0.14 -0.14)">
       <defs>
        <path id="DejaVuSans-32" d="M 1228 531 
L 3431 531 
L 3431 0 
L 469 0 
L 469 531 
Q 828 903 1448 1529 
Q 2069 2156 2228 2338 
Q 2531 2678 2651 2914 
Q 2772 3150 2772 3378 
Q 2772 3750 2511 3984 
Q 2250 4219 1831 4219 
Q 1534 4219 1204 4116 
Q 875 4013 500 3803 
L 500 4441 
Q 881 4594 1212 4672 
Q 1544 4750 1819 4750 
Q 2544 4750 2975 4387 
Q 3406 4025 3406 3419 
Q 3406 3131 3298 2873 
Q 3191 2616 2906 2266 
Q 2828 2175 2409 1742 
Q 1991 1309 1228 531 
z
" transform="scale(0.015625)"/>
       </defs>
       <use xlink:href="#DejaVuSans-30"/>
       <use xlink:href="#DejaVuSans-2e" x="63.623047"/>
       <use xlink:href="#DejaVuSans-32" x="95.410156"/>
      </g>
     </g>
    </g>
    <g id="xtick_3">
     <g id="line2d_3">
      <g>
       <use xlink:href="#m855e333bab" x="161.746522" y="278.15" style="stroke: #000000; stroke-width: 0.8"/>
      </g>
     </g>
     <g id="text_3">
      <!-- 0.4 -->
      <g transform="translate(150.614335 295.787812) scale(0.14 -0.14)">
       <defs>
        <path id="DejaVuSans-34" d="M 2419 4116 
L 825 1625 
L 2419 1625 
L 2419 4116 
z
M 2253 4666 
L 3047 4666 
L 3047 1625 
L 3713 1625 
L 3713 1100 
L 3047 1100 
L 3047 0 
L 2419 0 
L 2419 1100 
L 313 1100 
L 313 1709 
L 2253 4666 
z
" transform="scale(0.015625)"/>
       </defs>
       <use xlink:href="#DejaVuSans-30"/>
       <use xlink:href="#DejaVuSans-2e" x="63.623047"/>
       <use xlink:href="#DejaVuSans-34" x="95.410156"/>
      </g>
     </g>
    </g>
    <g id="xtick_4">
     <g id="line2d_4">
      <g>
       <use xlink:href="#m855e333bab" x="209.489838" y="278.15" style="stroke: #000000; stroke-width: 0.8"/>
      </g>
     </g>
     <g id="text_4">
      <!-- 0.6 -->
      <g transform="translate(198.35765 295.787812) scale(0.14 -0.14)">
       <defs>
        <path id="DejaVuSans-36" d="M 2113 2584 
Q 1688 2584 1439 2293 
Q 1191 2003 1191 1497 
Q 1191 994 1439 701 
Q 1688 409 2113 409 
Q 2538 409 2786 701 
Q 3034 994 3034 1497 
Q 3034 2003 2786 2293 
Q 2538 2584 2113 2584 
z
M 3366 4563 
L 3366 3988 
Q 3128 4100 2886 4159 
Q 2644 4219 2406 4219 
Q 1781 4219 1451 3797 
Q 1122 3375 1075 2522 
Q 1259 2794 1537 2939 
Q 1816 3084 2150 3084 
Q 2853 3084 3261 2657 
Q 3669 2231 3669 1497 
Q 3669 778 3244 343 
Q 2819 -91 2113 -91 
Q 1303 -91 875 529 
Q 447 1150 447 2328 
Q 447 3434 972 4092 
Q 1497 4750 2381 4750 
Q 2619 4750 2861 4703 
Q 3103 4656 3366 4563 
z
" transform="scale(0.015625)"/>
       </defs>
       <use xlink:href="#DejaVuSans-30"/>
       <use xlink:href="#DejaVuSans-2e" x="63.623047"/>
       <use xlink:href="#DejaVuSans-36" x="95.410156"/>
      </g>
     </g>
    </g>
    <g id="xtick_5">
     <g id="line2d_5">
      <g>
       <use xlink:href="#m855e333bab" x="257.233153" y="278.15" style="stroke: #000000; stroke-width: 0.8"/>
      </g>
     </g>
     <g id="text_5">
      <!-- 0.8 -->
      <g transform="translate(246.100966 295.787812) scale(0.14 -0.14)">
       <defs>
        <path id="DejaVuSans-38" d="M 2034 2216 
Q 1584 2216 1326 1975 
Q 1069 1734 1069 1313 
Q 1069 891 1326 650 
Q 1584 409 2034 409 
Q 2484 409 2743 651 
Q 3003 894 3003 1313 
Q 3003 1734 2745 1975 
Q 2488 2216 2034 2216 
z
M 1403 2484 
Q 997 2584 770 2862 
Q 544 3141 544 3541 
Q 544 4100 942 4425 
Q 1341 4750 2034 4750 
Q 2731 4750 3128 4425 
Q 3525 4100 3525 3541 
Q 3525 3141 3298 2862 
Q 3072 2584 2669 2484 
Q 3125 2378 3379 2068 
Q 3634 1759 3634 1313 
Q 3634 634 3220 271 
Q 2806 -91 2034 -91 
Q 1263 -91 848 271 
Q 434 634 434 1313 
Q 434 1759 690 2068 
Q 947 2378 1403 2484 
z
M 1172 3481 
Q 1172 3119 1398 2916 
Q 1625 2713 2034 2713 
Q 2441 2713 2670 2916 
Q 2900 3119 2900 3481 
Q 2900 3844 2670 4047 
Q 2441 4250 2034 4250 
Q 1625 4250 1398 4047 
Q 1172 3844 1172 3481 
z
" transform="scale(0.015625)"/>
       </defs>
       <use xlink:href="#DejaVuSans-30"/>
       <use xlink:href="#DejaVuSans-2e" x="63.623047"/>
       <use xlink:href="#DejaVuSans-38" x="95.410156"/>
      </g>
     </g>
    </g>
    <g id="xtick_6">
     <g id="line2d_6">
      <g>
       <use xlink:href="#m855e333bab" x="304.976469" y="278.15" style="stroke: #000000; stroke-width: 0.8"/>
      </g>
     </g>
     <g id="text_6">
      <!-- 1.0 -->
      <g transform="translate(293.844281 295.787812) scale(0.14 -0.14)">
       <defs>
        <path id="DejaVuSans-31" d="M 794 531 
L 1825 531 
L 1825 4091 
L 703 3866 
L 703 4441 
L 1819 4666 
L 2450 4666 
L 2450 531 
L 3481 531 
L 3481 0 
L 794 0 
L 794 531 
z
" transform="scale(0.015625)"/>
       </defs>
       <use xlink:href="#DejaVuSans-31"/>
       <use xlink:href="#DejaVuSans-2e" x="63.623047"/>
       <use xlink:href="#DejaVuSans-30" x="95.410156"/>
      </g>
     </g>
    </g>
    <g id="text_7">
     <!-- x -->
     <g transform="translate(180.88318 314.856875) scale(0.16 -0.16)">
      <defs>
       <path id="DejaVuSans-78" d="M 3513 3500 
L 2247 1797 
L 3578 0 
L 2900 0 
L 1881 1375 
L 863 0 
L 184 0 
L 1544 1831 
L 300 3500 
L 978 3500 
L 1906 2253 
L 2834 3500 
L 3513 3500 
z
" transform="scale(0.015625)"/>
      </defs>
      <use xlink:href="#DejaVuSans-78"/>
     </g>
    </g>
   </g>
   <g id="matplotlib.axis_2">
    <g id="ytick_1">
     <g id="line2d_7">
      <defs>
       <path id="m4e402b4121" d="M 0 0 
L -3.5 0 
" style="stroke: #000000; stroke-width: 0.8"/>
      </defs>
      <g>
       <use xlink:href="#m4e402b4121" x="54.324062" y="258.88022" style="stroke: #000000; stroke-width: 0.8"/>
      </g>
     </g>
     <g id="text_8">
      <!-- −5 -->
      <g transform="translate(26.685 264.199126) scale(0.14 -0.14)">
       <defs>
        <path id="DejaVuSans-2212" d="M 678 2272 
L 4684 2272 
L 4684 1741 
L 678 1741 
L 678 2272 
z
" transform="scale(0.015625)"/>
        <path id="DejaVuSans-35" d="M 691 4666 
L 3169 4666 
L 3169 4134 
L 1269 4134 
L 1269 2991 
Q 1406 3038 1543 3061 
Q 1681 3084 1819 3084 
Q 2600 3084 3056 2656 
Q 3513 2228 3513 1497 
Q 3513 744 3044 326 
Q 2575 -91 1722 -91 
Q 1428 -91 1123 -41 
Q 819 9 494 109 
L 494 744 
Q 775 591 1075 516 
Q 1375 441 1709 441 
Q 2250 441 2565 725 
Q 2881 1009 2881 1497 
Q 2881 1984 2565 2268 
Q 2250 2553 1709 2553 
Q 1456 2553 1204 2497 
Q 953 2441 691 2322 
L 691 4666 
z
" transform="scale(0.015625)"/>
       </defs>
       <use xlink:href="#DejaVuSans-2212"/>
       <use xlink:href="#DejaVuSans-35" x="83.789062"/>
      </g>
     </g>
    </g>
    <g id="ytick_2">
     <g id="line2d_8">
      <g>
       <use xlink:href="#m4e402b4121" x="54.324062" y="213.684567" style="stroke: #000000; stroke-width: 0.8"/>
      </g>
     </g>
     <g id="text_9">
      <!-- 0 -->
      <g transform="translate(38.416562 219.003473) scale(0.14 -0.14)">
       <use xlink:href="#DejaVuSans-30"/>
      </g>
     </g>
    </g>
    <g id="ytick_3">
     <g id="line2d_9">
      <g>
       <use xlink:href="#m4e402b4121" x="54.324062" y="168.488914" style="stroke: #000000; stroke-width: 0.8"/>
      </g>
     </g>
     <g id="text_10">
      <!-- 5 -->
      <g transform="translate(38.416562 173.80782) scale(0.14 -0.14)">
       <use xlink:href="#DejaVuSans-35"/>
      </g>
     </g>
    </g>
    <g id="ytick_4">
     <g id="line2d_10">
      <g>
       <use xlink:href="#m4e402b4121" x="54.324062" y="123.293261" style="stroke: #000000; stroke-width: 0.8"/>
      </g>
     </g>
     <g id="text_11">
      <!-- 10 -->
      <g transform="translate(29.509062 128.612168) scale(0.14 -0.14)">
       <use xlink:href="#DejaVuSans-31"/>
       <use xlink:href="#DejaVuSans-30" x="63.623047"/>
      </g>
     </g>
    </g>
    <g id="ytick_5">
     <g id="line2d_11">
      <g>
       <use xlink:href="#m4e402b4121" x="54.324062" y="78.097609" style="stroke: #000000; stroke-width: 0.8"/>
      </g>
     </g>
     <g id="text_12">
      <!-- 15 -->
      <g transform="translate(29.509062 83.416515) scale(0.14 -0.14)">
       <use xlink:href="#DejaVuSans-31"/>
       <use xlink:href="#DejaVuSans-35" x="63.623047"/>
      </g>
     </g>
    </g>
    <g id="text_13">
     <!-- y -->
     <g transform="translate(19.3575 172.005) rotate(-90) scale(0.16 -0.16)">
      <defs>
       <path id="DejaVuSans-79" d="M 2059 -325 
Q 1816 -950 1584 -1140 
Q 1353 -1331 966 -1331 
L 506 -1331 
L 506 -850 
L 844 -850 
Q 1081 -850 1212 -737 
Q 1344 -625 1503 -206 
L 1606 56 
L 191 3500 
L 800 3500 
L 1894 763 
L 2988 3500 
L 3597 3500 
L 2059 -325 
z
" transform="scale(0.015625)"/>
      </defs>
      <use xlink:href="#DejaVuSans-79"/>
     </g>
    </g>
   </g>
   <g id="line2d_12">
    <defs>
     <path id="m373a158210" d="M -5 5 
L 5 -5 
M -5 -5 
L 5 5 
" style="stroke: #000000"/>
    </defs>
    <g clip-path="url(#p34c0a80cb2)">
     <use xlink:href="#m373a158210" x="66.259891" y="183.713166" style="stroke: #000000"/>
     <use xlink:href="#m373a158210" x="106.045989" y="220.525033" style="stroke: #000000"/>
     <use xlink:href="#m373a158210" x="145.832086" y="218.365595" style="stroke: #000000"/>
     <use xlink:href="#m373a158210" x="185.61818" y="207.238194" style="stroke: #000000"/>
     <use xlink:href="#m373a158210" x="225.404267" y="232.931017" style="stroke: #000000"/>
     <use xlink:href="#m373a158210" x="265.190368" y="236.822111" style="stroke: #000000"/>
     <use xlink:href="#m373a158210" x="304.976469" y="70.857104" style="stroke: #000000"/>
    </g>
   </g>
   <g id="line2d_13">
    <path d="M 66.259891 186.32122 
L 68.647057 190.785551 
L 71.034223 195.163147 
L 73.421389 199.371847 
L 75.808554 203.340365 
L 78.19572 207.009041 
L 80.582886 210.33039 
L 82.970052 213.269227 
L 85.357217 215.802582 
L 87.744382 217.919315 
L 90.131548 219.619448 
L 92.518715 220.913292 
L 94.90588 221.820363 
L 97.293045 222.368147 
L 99.680212 222.590738 
L 102.067376 222.527373 
L 104.454543 222.220947 
L 106.84171 221.716496 
L 109.228873 221.059732 
L 111.616041 220.295632 
L 114.003204 219.467144 
L 116.390371 218.614006 
L 118.777538 217.771742 
L 121.164702 216.970829 
L 123.551869 216.236056 
L 125.939036 215.586108 
L 128.326199 215.033342 
L 130.713363 214.583783 
L 133.100533 214.237335 
L 135.487697 213.988183 
L 137.87486 213.825367 
L 140.262031 213.733528 
L 142.649194 213.693783 
L 145.036358 213.684711 
L 147.423529 213.683411 
L 149.810692 213.666609 
L 152.197856 213.611776 
L 154.585026 213.498221 
L 156.97219 213.308132 
L 159.359353 213.027527 
L 161.746517 212.647084 
L 164.133687 212.162835 
L 166.520851 211.576695 
L 168.908014 210.896786 
L 171.295185 210.137584 
L 173.682348 209.319841 
L 176.069512 208.470303 
L 178.456683 207.621205 
L 180.843846 206.809584 
L 183.23101 206.076366 
L 185.61818 205.465309 
L 188.005344 205.02179 
L 190.392507 204.791455 
L 192.779685 204.818794 
L 195.166848 205.145647 
L 197.554012 205.809704 
L 199.941175 206.84301 
L 202.328339 208.270544 
L 204.715502 210.108886 
L 207.10268 212.365036 
L 209.489844 215.035361 
L 211.877007 218.104846 
L 214.264171 221.546484 
L 216.651334 225.32099 
L 219.038498 229.376778 
L 221.425675 233.65027 
L 223.812839 238.066406 
L 226.200002 242.539671 
L 228.587166 246.97522 
L 230.974329 251.270409 
L 233.361493 255.316569 
L 235.748656 259.001021 
L 238.135834 262.209378 
L 240.522998 264.827804 
L 242.910161 266.745775 
L 245.297325 267.858576 
L 247.684488 268.07 
L 250.071652 267.294984 
L 252.458829 265.462143 
L 254.845993 262.516251 
L 257.233156 258.420391 
L 259.62032 253.157925 
L 262.007483 246.73419 
L 264.394647 239.177746 
L 266.781824 230.541319 
L 269.168988 220.90215 
L 271.556151 210.362409 
L 273.943315 199.047797 
L 276.330478 187.107811 
L 278.717642 174.712829 
L 281.104805 162.05358 
L 283.491983 149.337135 
L 285.879147 136.785416 
L 288.26631 124.630732 
L 290.653474 113.112559 
L 293.040637 102.473338 
L 295.427801 92.954164 
L 297.814978 84.790218 
L 300.202142 78.206389 
L 302.589305 73.412204 
L 304.976469 70.597553 
" clip-path="url(#p34c0a80cb2)" style="fill: none; stroke-dasharray: 7.4,3.2; stroke-dashoffset: 0; stroke: #33bbee; stroke-width: 2"/>
   </g>
   <g id="line2d_14">
    <path d="M 66.259891 188.178196 
L 68.647057 189.713722 
L 71.034223 191.307825 
L 73.421389 192.955903 
L 75.808554 194.651688 
L 78.19572 196.387173 
L 80.582886 198.152506 
L 82.970052 199.936146 
L 85.357217 201.725105 
L 87.744382 203.505331 
L 90.131548 205.262247 
L 92.518715 206.981313 
L 94.90588 208.648531 
L 97.293045 210.25091 
L 99.680212 211.77674 
L 102.067376 213.215764 
L 104.454543 214.559198 
L 106.84171 215.799684 
L 109.228873 216.931163 
L 111.616041 217.948786 
L 114.003204 218.848796 
L 116.390371 219.628454 
L 118.777538 220.285987 
L 121.164702 220.820546 
L 123.551869 221.232226 
L 125.939036 221.522001 
L 128.326199 221.69175 
L 130.713363 221.744237 
L 133.100533 221.683116 
L 135.487697 221.512946 
L 137.87486 221.239165 
L 140.262031 220.868049 
L 142.649194 220.406631 
L 145.036358 219.862566 
L 147.423529 219.244028 
L 149.810692 218.559615 
L 152.197856 217.818292 
L 154.585026 217.029501 
L 156.97219 216.203368 
L 159.359353 215.351011 
L 161.746517 214.484799 
L 164.133687 213.618406 
L 166.520851 212.766528 
L 168.908014 211.944339 
L 171.295185 211.166944 
L 173.682348 210.449 
L 176.069512 209.804681 
L 178.456683 209.247852 
L 180.843846 208.792391 
L 183.23101 208.452556 
L 185.61818 208.243486 
L 188.005344 208.181768 
L 190.392507 208.285882 
L 192.779685 208.576204 
L 195.166848 209.074095 
L 197.554012 209.799663 
L 199.941175 210.768429 
L 202.328339 211.988251 
L 204.715502 213.458002 
L 207.10268 215.1681 
L 209.489844 217.101002 
L 211.877007 219.230721 
L 214.264171 221.522889 
L 216.651334 223.938288 
L 219.038498 226.43982 
L 221.425675 228.998813 
L 223.812839 231.596214 
L 226.200002 234.217418 
L 228.587166 236.843649 
L 230.974329 239.444482 
L 233.361493 241.973773 
L 235.748656 244.369587 
L 238.135834 246.557198 
L 240.522998 248.453881 
L 242.910161 249.974459 
L 245.297325 251.036258 
L 247.684488 251.562722 
L 250.071652 251.484876 
L 252.458829 250.740937 
L 254.845993 249.274413 
L 257.233156 247.031774 
L 259.62032 243.960761 
L 262.007483 240.010053 
L 264.394647 235.130897 
L 266.781824 229.281265 
L 269.168988 222.432514 
L 271.556151 214.578047 
L 273.943315 205.743312 
L 276.330478 195.995225 
L 278.717642 185.448913 
L 281.104805 174.269487 
L 283.491983 162.666494 
L 285.879147 150.881072 
L 288.26631 139.165738 
L 290.653474 127.762389 
L 293.040637 116.881642 
L 295.427801 106.688224 
L 297.814978 97.294537 
L 300.202142 88.761975 
L 302.589305 81.107201 
L 304.976469 74.31144 
" clip-path="url(#p34c0a80cb2)" style="fill: none; stroke: #cc3311; stroke-width: 2; stroke-linecap: square"/>
   </g>
   <g id="patch_3">
    <path d="M 54.324062 278.15 
L 54.324062 56.39 
" style="fill: none; stroke: #000000; stroke-width: 1.5; stroke-linejoin: miter; stroke-linecap: square"/>
   </g>
   <g id="patch_4">
    <path d="M 316.912298 278.15 
L 316.912298 56.39 
" style="fill: none; stroke: #000000; stroke-width: 1.5; stroke-linejoin: miter; stroke-linecap: square"/>
   </g>
   <g id="patch_5">
    <path d="M 54.324062 278.15 
L 316.912298 278.15 
" style="fill: none; stroke: #000000; stroke-width: 1.5; stroke-linejoin: miter; stroke-linecap: square"/>
   </g>
   <g id="patch_6">
    <path d="M 54.324062 56.39 
L 316.912298 56.39 
" style="fill: none; stroke: #000000; stroke-width: 1.5; stroke-linejoin: miter; stroke-linecap: square"/>
   </g>
   <g id="text_14">
    <!-- BNN -->
    <g transform="translate(168.15943 50.39) scale(0.16 -0.16)">
     <defs>
      <path id="DejaVuSans-42" d="M 1259 2228 
L 1259 519 
L 2272 519 
Q 2781 519 3026 730 
Q 3272 941 3272 1375 
Q 3272 1813 3026 2020 
Q 2781 2228 2272 2228 
L 1259 2228 
z
M 1259 4147 
L 1259 2741 
L 2194 2741 
Q 2656 2741 2882 2914 
Q 3109 3088 3109 3444 
Q 3109 3797 2882 3972 
Q 2656 4147 2194 4147 
L 1259 4147 
z
M 628 4666 
L 2241 4666 
Q 2963 4666 3353 4366 
Q 3744 4066 3744 3513 
Q 3744 3084 3544 2831 
Q 3344 2578 2956 2516 
Q 3422 2416 3680 2098 
Q 3938 1781 3938 1306 
Q 3938 681 3513 340 
Q 3088 0 2303 0 
L 628 0 
L 628 4666 
z
" transform="scale(0.015625)"/>
      <path id="DejaVuSans-4e" d="M 628 4666 
L 1478 4666 
L 3547 763 
L 3547 4666 
L 4159 4666 
L 4159 0 
L 3309 0 
L 1241 3903 
L 1241 0 
L 628 0 
L 628 4666 
z
" transform="scale(0.015625)"/>
     </defs>
     <use xlink:href="#DejaVuSans-42"/>
     <use xlink:href="#DejaVuSans-4e" x="68.603516"/>
     <use xlink:href="#DejaVuSans-4e" x="143.408203"/>
    </g>
   </g>
  </g>
  <g id="axes_2">
   <g id="patch_7">
    <path d="M 369.429945 278.15 
L 632.01818 278.15 
L 632.01818 56.39 
L 369.429945 56.39 
z
" style="fill: #ffffff"/>
   </g>
   <g id="PolyCollection_2">
    <defs>
     <path id="mee2511b52f" d="M 381.365774 -144.34418 
L 381.365774 -141.698726 
L 383.752939 -132.517524 
L 386.140105 -124.409122 
L 388.527271 -118.140533 
L 390.914437 -113.614125 
L 393.301602 -110.483195 
L 395.688768 -108.375651 
L 398.075934 -106.974616 
L 400.4631 -106.04444 
L 402.850265 -105.423134 
L 405.23743 -105.003462 
L 407.624597 -104.716186 
L 410.011762 -104.517997 
L 412.398928 -104.382852 
L 414.786095 -104.29579 
L 417.173258 -104.248794 
L 419.560425 -104.237928 
L 421.947592 -104.26156 
L 424.334756 -104.318827 
L 426.721923 -104.408601 
L 429.109086 -104.52852 
L 431.496253 -104.674373 
L 433.883421 -104.840244 
L 436.270584 -105.019003 
L 438.657751 -105.203004 
L 441.044918 -105.385383 
L 443.432082 -105.56059 
L 445.819245 -105.725018 
L 448.206416 -105.877214 
L 450.593579 -106.017765 
L 452.980743 -106.149032 
L 455.367913 -106.274984 
L 457.755077 -106.400778 
L 460.14224 -106.532815 
L 462.529411 -106.678402 
L 464.916574 -106.846132 
L 467.303738 -107.045867 
L 469.690909 -107.288957 
L 472.078072 -107.588498 
L 474.465236 -107.959282 
L 476.852399 -108.417229 
L 479.23957 -108.978664 
L 481.626733 -109.658373 
L 484.013897 -110.466746 
L 486.401067 -111.406031 
L 488.788231 -112.464972 
L 491.175394 -113.61316 
L 493.562565 -114.795212 
L 495.949728 -115.928558 
L 498.336892 -116.912327 
L 500.724063 -117.656637 
L 503.111226 -118.111489 
L 505.498389 -118.25869 
L 507.885567 -118.082684 
L 510.272731 -117.554932 
L 512.659894 -116.63276 
L 515.047058 -115.269203 
L 517.434221 -113.435304 
L 519.821385 -111.153688 
L 522.208562 -108.524008 
L 524.595726 -105.715301 
L 526.982889 -102.921449 
L 529.370053 -100.309335 
L 531.757216 -97.988278 
L 534.14438 -95.997488 
L 536.531558 -94.286144 
L 538.918721 -92.674037 
L 541.305885 -90.801196 
L 543.693048 -88.375403 
L 546.080212 -85.490783 
L 548.467375 -82.325024 
L 550.854539 -79.045817 
L 553.241716 -75.847715 
L 555.62888 -72.945182 
L 558.016043 -70.546341 
L 560.403207 -68.832046 
L 562.79037 -67.946536 
L 565.177534 -67.993603 
L 567.564712 -69.025493 
L 569.951875 -71.016791 
L 572.339039 -73.839103 
L 574.726202 -77.309567 
L 577.113366 -81.391656 
L 579.500529 -86.236463 
L 581.887707 -90.87711 
L 584.27487 -98.414004 
L 586.662034 -110.253387 
L 589.049197 -119.32313 
L 591.436361 -120.914665 
L 593.823524 -120.104188 
L 596.210688 -124.656969 
L 598.597866 -135.770691 
L 600.985029 -151.456995 
L 603.372193 -170.067733 
L 605.759356 -188.858463 
L 608.14652 -207.725928 
L 610.533683 -224.849141 
L 612.920861 -238.130897 
L 615.308024 -247.393516 
L 617.695188 -253.216757 
L 620.082351 -256.323077 
L 620.082351 -258.914375 
L 620.082351 -258.914375 
L 617.695188 -256.470792 
L 615.308024 -253.717137 
L 612.920861 -250.990243 
L 610.533683 -248.652913 
L 608.14652 -245.969688 
L 605.759356 -239.721952 
L 603.372193 -227.396174 
L 600.985029 -209.181236 
L 598.597866 -185.821303 
L 596.210688 -168.293258 
L 593.823524 -156.195267 
L 591.436361 -143.115162 
L 589.049197 -130.491263 
L 586.662034 -119.297697 
L 584.27487 -106.596189 
L 581.887707 -95.347323 
L 579.500529 -89.389228 
L 577.113366 -87.735317 
L 574.726202 -86.949619 
L 572.339039 -86.490045 
L 569.951875 -86.293419 
L 567.564712 -86.29452 
L 565.177534 -86.442759 
L 562.79037 -86.711342 
L 560.403207 -87.083136 
L 558.016043 -87.542586 
L 555.62888 -88.077476 
L 553.241716 -88.684013 
L 550.854539 -89.369916 
L 548.467375 -90.152737 
L 546.080212 -91.059749 
L 543.693048 -92.150055 
L 541.305885 -93.575683 
L 538.918721 -95.496142 
L 536.531558 -97.764564 
L 534.14438 -100.206308 
L 531.757216 -102.802041 
L 529.370053 -105.562731 
L 526.982889 -108.435458 
L 524.595726 -111.284805 
L 522.208562 -113.945562 
L 519.821385 -116.289692 
L 517.434221 -118.246937 
L 515.047058 -119.784436 
L 512.659894 -120.883847 
L 510.272731 -121.5386 
L 507.885567 -121.762518 
L 505.498389 -121.596759 
L 503.111226 -121.111072 
L 500.724063 -120.399181 
L 498.336892 -119.559723 
L 495.949728 -118.663906 
L 493.562565 -117.741673 
L 491.175394 -116.803877 
L 488.788231 -115.864246 
L 486.401067 -114.943201 
L 484.013897 -114.062897 
L 481.626733 -113.242553 
L 479.23957 -112.495658 
L 476.852399 -111.829675 
L 474.465236 -111.246449 
L 472.078072 -110.743422 
L 469.690909 -110.314994 
L 467.303738 -109.953311 
L 464.916574 -109.649277 
L 462.529411 -109.393208 
L 460.14224 -109.175223 
L 457.755077 -108.985643 
L 455.367913 -108.81551 
L 452.980743 -108.656583 
L 450.593579 -108.501959 
L 448.206416 -108.346185 
L 445.819245 -108.185757 
L 443.432082 -108.019279 
L 441.044918 -107.847619 
L 438.657751 -107.673901 
L 436.270584 -107.50314 
L 433.883421 -107.341603 
L 431.496253 -107.196478 
L 429.109086 -107.074947 
L 426.721923 -106.983932 
L 424.334756 -106.929904 
L 421.947592 -106.918786 
L 419.560425 -106.956359 
L 417.173258 -107.049027 
L 414.786095 -107.204707 
L 412.398928 -107.434395 
L 410.011762 -107.753864 
L 407.624597 -108.186003 
L 405.23743 -108.763726 
L 402.850265 -109.534058 
L 400.4631 -110.563513 
L 398.075934 -111.944217 
L 395.688768 -113.799718 
L 393.301602 -116.29078 
L 390.914437 -119.622826 
L 388.527271 -124.028279 
L 386.140105 -129.642222 
L 383.752939 -136.359703 
L 381.365774 -144.34418 
z
" style="stroke: #bbbbbb; stroke-opacity: 0.5"/>
    </defs>
    <g clip-path="url(#p41a663a8d9)">
     <use xlink:href="#mee2511b52f" x="0" y="325.384375" style="fill: #bbbbbb; fill-opacity: 0.5; stroke: #bbbbbb; stroke-opacity: 0.5"/>
    </g>
   </g>
   <g id="matplotlib.axis_3">
    <g id="xtick_7">
     <g id="line2d_15">
      <g>
       <use xlink:href="#m855e333bab" x="381.365774" y="278.15" style="stroke: #000000; stroke-width: 0.8"/>
      </g>
     </g>
     <g id="text_15">
      <!-- 0.0 -->
      <g transform="translate(370.233586 295.787812) scale(0.14 -0.14)">
       <use xlink:href="#DejaVuSans-30"/>
       <use xlink:href="#DejaVuSans-2e" x="63.623047"/>
       <use xlink:href="#DejaVuSans-30" x="95.410156"/>
      </g>
     </g>
    </g>
    <g id="xtick_8">
     <g id="line2d_16">
      <g>
       <use xlink:href="#m855e333bab" x="429.109089" y="278.15" style="stroke: #000000; stroke-width: 0.8"/>
      </g>
     </g>
     <g id="text_16">
      <!-- 0.2 -->
      <g transform="translate(417.976902 295.787812) scale(0.14 -0.14)">
       <use xlink:href="#DejaVuSans-30"/>
       <use xlink:href="#DejaVuSans-2e" x="63.623047"/>
       <use xlink:href="#DejaVuSans-32" x="95.410156"/>
      </g>
     </g>
    </g>
    <g id="xtick_9">
     <g id="line2d_17">
      <g>
       <use xlink:href="#m855e333bab" x="476.852405" y="278.15" style="stroke: #000000; stroke-width: 0.8"/>
      </g>
     </g>
     <g id="text_17">
      <!-- 0.4 -->
      <g transform="translate(465.720217 295.787812) scale(0.14 -0.14)">
       <use xlink:href="#DejaVuSans-30"/>
       <use xlink:href="#DejaVuSans-2e" x="63.623047"/>
       <use xlink:href="#DejaVuSans-34" x="95.410156"/>
      </g>
     </g>
    </g>
    <g id="xtick_10">
     <g id="line2d_18">
      <g>
       <use xlink:href="#m855e333bab" x="524.59572" y="278.15" style="stroke: #000000; stroke-width: 0.8"/>
      </g>
     </g>
     <g id="text_18">
      <!-- 0.6 -->
      <g transform="translate(513.463533 295.787812) scale(0.14 -0.14)">
       <use xlink:href="#DejaVuSans-30"/>
       <use xlink:href="#DejaVuSans-2e" x="63.623047"/>
       <use xlink:href="#DejaVuSans-36" x="95.410156"/>
      </g>
     </g>
    </g>
    <g id="xtick_11">
     <g id="line2d_19">
      <g>
       <use xlink:href="#m855e333bab" x="572.339036" y="278.15" style="stroke: #000000; stroke-width: 0.8"/>
      </g>
     </g>
     <g id="text_19">
      <!-- 0.8 -->
      <g transform="translate(561.206848 295.787812) scale(0.14 -0.14)">
       <use xlink:href="#DejaVuSans-30"/>
       <use xlink:href="#DejaVuSans-2e" x="63.623047"/>
       <use xlink:href="#DejaVuSans-38" x="95.410156"/>
      </g>
     </g>
    </g>
    <g id="xtick_12">
     <g id="line2d_20">
      <g>
       <use xlink:href="#m855e333bab" x="620.082351" y="278.15" style="stroke: #000000; stroke-width: 0.8"/>
      </g>
     </g>
     <g id="text_20">
      <!-- 1.0 -->
      <g transform="translate(608.950164 295.787812) scale(0.14 -0.14)">
       <use xlink:href="#DejaVuSans-31"/>
       <use xlink:href="#DejaVuSans-2e" x="63.623047"/>
       <use xlink:href="#DejaVuSans-30" x="95.410156"/>
      </g>
     </g>
    </g>
    <g id="text_21">
     <!-- x -->
     <g transform="translate(495.989062 314.856875) scale(0.16 -0.16)">
      <use xlink:href="#DejaVuSans-78"/>
     </g>
    </g>
   </g>
   <g id="matplotlib.axis_4">
    <g id="ytick_6">
     <g id="line2d_21">
      <g>
       <use xlink:href="#m4e402b4121" x="369.429945" y="258.734972" style="stroke: #000000; stroke-width: 0.8"/>
      </g>
     </g>
     <g id="text_22">
      <!-- −5 -->
      <g transform="translate(341.790882 264.053879) scale(0.14 -0.14)">
       <use xlink:href="#DejaVuSans-2212"/>
       <use xlink:href="#DejaVuSans-35" x="83.789062"/>
      </g>
     </g>
    </g>
    <g id="ytick_7">
     <g id="line2d_22">
      <g>
       <use xlink:href="#m4e402b4121" x="369.429945" y="212.824989" style="stroke: #000000; stroke-width: 0.8"/>
      </g>
     </g>
     <g id="text_23">
      <!-- 0 -->
      <g transform="translate(353.522445 218.143895) scale(0.14 -0.14)">
       <use xlink:href="#DejaVuSans-30"/>
      </g>
     </g>
    </g>
    <g id="ytick_8">
     <g id="line2d_23">
      <g>
       <use xlink:href="#m4e402b4121" x="369.429945" y="166.915006" style="stroke: #000000; stroke-width: 0.8"/>
      </g>
     </g>
     <g id="text_24">
      <!-- 5 -->
      <g transform="translate(353.522445 172.233912) scale(0.14 -0.14)">
       <use xlink:href="#DejaVuSans-35"/>
      </g>
     </g>
    </g>
    <g id="ytick_9">
     <g id="line2d_24">
      <g>
       <use xlink:href="#m4e402b4121" x="369.429945" y="121.005023" style="stroke: #000000; stroke-width: 0.8"/>
      </g>
     </g>
     <g id="text_25">
      <!-- 10 -->
      <g transform="translate(344.614945 126.323929) scale(0.14 -0.14)">
       <use xlink:href="#DejaVuSans-31"/>
       <use xlink:href="#DejaVuSans-30" x="63.623047"/>
      </g>
     </g>
    </g>
    <g id="ytick_10">
     <g id="line2d_25">
      <g>
       <use xlink:href="#m4e402b4121" x="369.429945" y="75.09504" style="stroke: #000000; stroke-width: 0.8"/>
      </g>
     </g>
     <g id="text_26">
      <!-- 15 -->
      <g transform="translate(344.614945 80.413946) scale(0.14 -0.14)">
       <use xlink:href="#DejaVuSans-31"/>
       <use xlink:href="#DejaVuSans-35" x="63.623047"/>
      </g>
     </g>
    </g>
    <g id="text_27">
     <!--   -->
     <g transform="translate(334.463382 169.8125) rotate(-90) scale(0.16 -0.16)">
      <defs>
       <path id="DejaVuSans-20" transform="scale(0.015625)"/>
      </defs>
      <use xlink:href="#DejaVuSans-20"/>
     </g>
    </g>
   </g>
   <g id="line2d_26">
    <g clip-path="url(#p41a663a8d9)">
     <use xlink:href="#m373a158210" x="381.365774" y="182.379881" style="stroke: #000000"/>
     <use xlink:href="#m373a158210" x="421.151871" y="219.773571" style="stroke: #000000"/>
     <use xlink:href="#m373a158210" x="460.937969" y="217.580002" style="stroke: #000000"/>
     <use xlink:href="#m373a158210" x="500.724063" y="206.27673" style="stroke: #000000"/>
     <use xlink:href="#m373a158210" x="540.510149" y="232.375636" style="stroke: #000000"/>
     <use xlink:href="#m373a158210" x="580.29625" y="236.328229" style="stroke: #000000"/>
     <use xlink:href="#m373a158210" x="620.082351" y="67.740097" style="stroke: #000000"/>
    </g>
   </g>
   <g id="line2d_27">
    <path d="M 381.365774 185.029157 
L 383.752939 189.564047 
L 386.140105 194.010833 
L 388.527271 198.286053 
L 390.914437 202.317294 
L 393.301602 206.043955 
L 395.688768 209.417799 
L 398.075934 212.403085 
L 400.4631 214.97648 
L 402.850265 217.126669 
L 405.23743 218.853673 
L 407.624597 220.167966 
L 410.011762 221.089374 
L 412.398928 221.645816 
L 414.786095 221.871925 
L 417.173258 221.807558 
L 419.560425 221.496289 
L 421.947592 220.983865 
L 424.334756 220.316721 
L 426.721923 219.540544 
L 429.109086 218.698962 
L 431.496253 217.832339 
L 433.883421 216.976764 
L 436.270584 216.163192 
L 438.657751 215.416806 
L 441.044918 214.756585 
L 443.432082 214.195082 
L 445.819245 213.738417 
L 448.206416 213.386494 
L 450.593579 213.133404 
L 452.980743 212.968015 
L 455.367913 212.874724 
L 457.755077 212.834352 
L 460.14224 212.825136 
L 462.529411 212.823815 
L 464.916574 212.806747 
L 467.303738 212.751048 
L 469.690909 212.635698 
L 472.078072 212.442605 
L 474.465236 212.157564 
L 476.852399 211.771108 
L 479.23957 211.279206 
L 481.626733 210.683802 
L 484.013897 209.993147 
L 486.401067 209.221945 
L 488.788231 208.391278 
L 491.175394 207.528312 
L 493.562565 206.665794 
L 495.949728 205.841345 
L 498.336892 205.096539 
L 500.724063 204.475824 
L 503.111226 204.025295 
L 505.498389 203.79132 
L 507.885567 203.81909 
L 510.272731 204.151109 
L 512.659894 204.825661 
L 515.047058 205.8753 
L 517.434221 207.325397 
L 519.821385 209.192793 
L 522.208562 211.484602 
L 524.595726 214.197134 
L 526.982889 217.315132 
L 529.370053 220.811166 
L 531.757216 224.645329 
L 534.14438 228.765221 
L 536.531558 233.106256 
L 538.918721 237.59219 
L 541.305885 242.136157 
L 543.693048 246.641811 
L 546.080212 251.004887 
L 548.467375 255.114997 
L 550.854539 258.857684 
L 553.241716 262.11675 
L 555.62888 264.77656 
L 558.016043 266.724845 
L 560.403207 267.855235 
L 562.79037 268.07 
L 565.177534 267.282735 
L 567.564712 265.420925 
L 569.951875 262.428473 
L 572.339039 258.267876 
L 574.726202 252.922235 
L 577.113366 246.396971 
L 579.500529 238.721096 
L 581.887707 229.948167 
L 584.27487 220.156649 
L 586.662034 209.450324 
L 589.049197 197.956881 
L 591.436361 185.82818 
L 593.823524 173.237292 
L 596.210688 160.37796 
L 598.597866 147.460527 
L 600.985029 134.710425 
L 603.372193 122.363632 
L 605.759356 110.663411 
L 608.14652 99.856035 
L 610.533683 90.186407 
L 612.920861 81.893428 
L 615.308024 75.20554 
L 617.695188 70.335581 
L 620.082351 67.476444 
" clip-path="url(#p41a663a8d9)" style="fill: none; stroke-dasharray: 7.4,3.2; stroke-dashoffset: 0; stroke: #33bbee; stroke-width: 2"/>
   </g>
   <g id="line2d_28">
    <path d="M 381.365774 182.362922 
L 383.752939 190.945761 
L 386.140105 198.358703 
L 388.527271 204.299969 
L 390.914437 208.7659 
L 393.301602 211.997388 
L 395.688768 214.29669 
L 398.075934 215.924958 
L 400.4631 217.080398 
L 402.850265 217.905779 
L 405.23743 218.500781 
L 407.624597 218.93328 
L 410.011762 219.248445 
L 412.398928 219.475752 
L 414.786095 219.634126 
L 417.173258 219.735465 
L 419.560425 219.787232 
L 421.947592 219.794202 
L 424.334756 219.760009 
L 426.721923 219.688109 
L 429.109086 219.582642 
L 431.496253 219.44895 
L 433.883421 219.293452 
L 436.270584 219.123304 
L 438.657751 218.945923 
L 441.044918 218.767874 
L 443.432082 218.59444 
L 445.819245 218.428988 
L 448.206416 218.272675 
L 450.593579 218.124513 
L 452.980743 217.981568 
L 455.367913 217.839128 
L 457.755077 217.691165 
L 460.14224 217.530356 
L 462.529411 217.34857 
L 464.916574 217.136671 
L 467.303738 216.884786 
L 469.690909 216.5824 
L 472.078072 216.218415 
L 474.465236 215.781509 
L 476.852399 215.260923 
L 479.23957 214.647214 
L 481.626733 213.933912 
L 484.013897 213.119554 
L 486.401067 212.209759 
L 488.788231 211.219766 
L 491.175394 210.175857 
L 493.562565 209.115933 
L 495.949728 208.088143 
L 498.336892 207.14835 
L 500.724063 206.356466 
L 503.111226 205.773094 
L 505.498389 205.45665 
L 507.885567 205.461774 
L 510.272731 205.837609 
L 512.659894 206.626071 
L 515.047058 207.857555 
L 517.434221 209.543254 
L 519.821385 211.662685 
L 522.208562 214.14959 
L 524.595726 216.884322 
L 526.982889 219.705922 
L 529.370053 222.448342 
L 531.757216 224.989215 
L 534.14438 227.282477 
L 536.531558 229.359021 
L 538.918721 231.299285 
L 541.305885 233.195935 
L 543.693048 235.121646 
L 546.080212 237.109109 
L 548.467375 239.145495 
L 550.854539 241.176509 
L 553.241716 243.118511 
L 555.62888 244.873047 
L 558.016043 246.339911 
L 560.403207 247.426784 
L 562.79037 248.055436 
L 565.177534 248.166194 
L 567.564712 247.724369 
L 569.951875 246.72927 
L 572.339039 245.219801 
L 574.726202 243.254782 
L 577.113366 240.820888 
L 579.500529 237.571529 
L 581.887707 232.272158 
L 584.27487 222.879278 
L 586.662034 210.608833 
L 589.049197 200.477178 
L 591.436361 193.369462 
L 593.823524 187.234647 
L 596.210688 178.909261 
L 598.597866 164.588377 
L 600.985029 145.065259 
L 603.372193 126.652422 
L 605.759356 111.094168 
L 608.14652 98.536567 
L 610.533683 88.633348 
L 612.920861 80.823805 
L 615.308024 74.829048 
L 617.695188 70.5406 
L 620.082351 67.765649 
" clip-path="url(#p41a663a8d9)" style="fill: none; stroke: #cc3311; stroke-width: 2; stroke-linecap: square"/>
   </g>
   <g id="patch_8">
    <path d="M 369.429945 278.15 
L 369.429945 56.39 
" style="fill: none; stroke: #000000; stroke-width: 1.5; stroke-linejoin: miter; stroke-linecap: square"/>
   </g>
   <g id="patch_9">
    <path d="M 632.01818 278.15 
L 632.01818 56.39 
" style="fill: none; stroke: #000000; stroke-width: 1.5; stroke-linejoin: miter; stroke-linecap: square"/>
   </g>
   <g id="patch_10">
    <path d="M 369.429945 278.15 
L 632.01818 278.15 
" style="fill: none; stroke: #000000; stroke-width: 1.5; stroke-linejoin: miter; stroke-linecap: square"/>
   </g>
   <g id="patch_11">
    <path d="M 369.429945 56.39 
L 632.01818 56.39 
" style="fill: none; stroke: #000000; stroke-width: 1.5; stroke-linejoin: miter; stroke-linecap: square"/>
   </g>
   <g id="text_28">
    <!-- Concatenate MF-BNN -->
    <g transform="translate(415.680313 50.39) scale(0.16 -0.16)">
     <defs>
      <path id="DejaVuSans-43" d="M 4122 4306 
L 4122 3641 
Q 3803 3938 3442 4084 
Q 3081 4231 2675 4231 
Q 1875 4231 1450 3742 
Q 1025 3253 1025 2328 
Q 1025 1406 1450 917 
Q 1875 428 2675 428 
Q 3081 428 3442 575 
Q 3803 722 4122 1019 
L 4122 359 
Q 3791 134 3420 21 
Q 3050 -91 2638 -91 
Q 1578 -91 968 557 
Q 359 1206 359 2328 
Q 359 3453 968 4101 
Q 1578 4750 2638 4750 
Q 3056 4750 3426 4639 
Q 3797 4528 4122 4306 
z
" transform="scale(0.015625)"/>
      <path id="DejaVuSans-6f" d="M 1959 3097 
Q 1497 3097 1228 2736 
Q 959 2375 959 1747 
Q 959 1119 1226 758 
Q 1494 397 1959 397 
Q 2419 397 2687 759 
Q 2956 1122 2956 1747 
Q 2956 2369 2687 2733 
Q 2419 3097 1959 3097 
z
M 1959 3584 
Q 2709 3584 3137 3096 
Q 3566 2609 3566 1747 
Q 3566 888 3137 398 
Q 2709 -91 1959 -91 
Q 1206 -91 779 398 
Q 353 888 353 1747 
Q 353 2609 779 3096 
Q 1206 3584 1959 3584 
z
" transform="scale(0.015625)"/>
      <path id="DejaVuSans-6e" d="M 3513 2113 
L 3513 0 
L 2938 0 
L 2938 2094 
Q 2938 2591 2744 2837 
Q 2550 3084 2163 3084 
Q 1697 3084 1428 2787 
Q 1159 2491 1159 1978 
L 1159 0 
L 581 0 
L 581 3500 
L 1159 3500 
L 1159 2956 
Q 1366 3272 1645 3428 
Q 1925 3584 2291 3584 
Q 2894 3584 3203 3211 
Q 3513 2838 3513 2113 
z
" transform="scale(0.015625)"/>
      <path id="DejaVuSans-63" d="M 3122 3366 
L 3122 2828 
Q 2878 2963 2633 3030 
Q 2388 3097 2138 3097 
Q 1578 3097 1268 2742 
Q 959 2388 959 1747 
Q 959 1106 1268 751 
Q 1578 397 2138 397 
Q 2388 397 2633 464 
Q 2878 531 3122 666 
L 3122 134 
Q 2881 22 2623 -34 
Q 2366 -91 2075 -91 
Q 1284 -91 818 406 
Q 353 903 353 1747 
Q 353 2603 823 3093 
Q 1294 3584 2113 3584 
Q 2378 3584 2631 3529 
Q 2884 3475 3122 3366 
z
" transform="scale(0.015625)"/>
      <path id="DejaVuSans-61" d="M 2194 1759 
Q 1497 1759 1228 1600 
Q 959 1441 959 1056 
Q 959 750 1161 570 
Q 1363 391 1709 391 
Q 2188 391 2477 730 
Q 2766 1069 2766 1631 
L 2766 1759 
L 2194 1759 
z
M 3341 1997 
L 3341 0 
L 2766 0 
L 2766 531 
Q 2569 213 2275 61 
Q 1981 -91 1556 -91 
Q 1019 -91 701 211 
Q 384 513 384 1019 
Q 384 1609 779 1909 
Q 1175 2209 1959 2209 
L 2766 2209 
L 2766 2266 
Q 2766 2663 2505 2880 
Q 2244 3097 1772 3097 
Q 1472 3097 1187 3025 
Q 903 2953 641 2809 
L 641 3341 
Q 956 3463 1253 3523 
Q 1550 3584 1831 3584 
Q 2591 3584 2966 3190 
Q 3341 2797 3341 1997 
z
" transform="scale(0.015625)"/>
      <path id="DejaVuSans-74" d="M 1172 4494 
L 1172 3500 
L 2356 3500 
L 2356 3053 
L 1172 3053 
L 1172 1153 
Q 1172 725 1289 603 
Q 1406 481 1766 481 
L 2356 481 
L 2356 0 
L 1766 0 
Q 1100 0 847 248 
Q 594 497 594 1153 
L 594 3053 
L 172 3053 
L 172 3500 
L 594 3500 
L 594 4494 
L 1172 4494 
z
" transform="scale(0.015625)"/>
      <path id="DejaVuSans-65" d="M 3597 1894 
L 3597 1613 
L 953 1613 
Q 991 1019 1311 708 
Q 1631 397 2203 397 
Q 2534 397 2845 478 
Q 3156 559 3463 722 
L 3463 178 
Q 3153 47 2828 -22 
Q 2503 -91 2169 -91 
Q 1331 -91 842 396 
Q 353 884 353 1716 
Q 353 2575 817 3079 
Q 1281 3584 2069 3584 
Q 2775 3584 3186 3129 
Q 3597 2675 3597 1894 
z
M 3022 2063 
Q 3016 2534 2758 2815 
Q 2500 3097 2075 3097 
Q 1594 3097 1305 2825 
Q 1016 2553 972 2059 
L 3022 2063 
z
" transform="scale(0.015625)"/>
      <path id="DejaVuSans-4d" d="M 628 4666 
L 1569 4666 
L 2759 1491 
L 3956 4666 
L 4897 4666 
L 4897 0 
L 4281 0 
L 4281 4097 
L 3078 897 
L 2444 897 
L 1241 4097 
L 1241 0 
L 628 0 
L 628 4666 
z
" transform="scale(0.015625)"/>
      <path id="DejaVuSans-46" d="M 628 4666 
L 3309 4666 
L 3309 4134 
L 1259 4134 
L 1259 2759 
L 3109 2759 
L 3109 2228 
L 1259 2228 
L 1259 0 
L 628 0 
L 628 4666 
z
" transform="scale(0.015625)"/>
      <path id="DejaVuSans-2d" d="M 313 2009 
L 1997 2009 
L 1997 1497 
L 313 1497 
L 313 2009 
z
" transform="scale(0.015625)"/>
     </defs>
     <use xlink:href="#DejaVuSans-43"/>
     <use xlink:href="#DejaVuSans-6f" x="69.824219"/>
     <use xlink:href="#DejaVuSans-6e" x="131.005859"/>
     <use xlink:href="#DejaVuSans-63" x="194.384766"/>
     <use xlink:href="#DejaVuSans-61" x="249.365234"/>
     <use xlink:href="#DejaVuSans-74" x="310.644531"/>
     <use xlink:href="#DejaVuSans-65" x="349.853516"/>
     <use xlink:href="#DejaVuSans-6e" x="411.376953"/>
     <use xlink:href="#DejaVuSans-61" x="474.755859"/>
     <use xlink:href="#DejaVuSans-74" x="536.035156"/>
     <use xlink:href="#DejaVuSans-65" x="575.244141"/>
     <use xlink:href="#DejaVuSans-20" x="636.767578"/>
     <use xlink:href="#DejaVuSans-4d" x="668.554688"/>
     <use xlink:href="#DejaVuSans-46" x="754.833984"/>
     <use xlink:href="#DejaVuSans-2d" x="812.353516"/>
     <use xlink:href="#DejaVuSans-42" x="844.8125"/>
     <use xlink:href="#DejaVuSans-4e" x="913.416016"/>
     <use xlink:href="#DejaVuSans-4e" x="988.220703"/>
    </g>
   </g>
  </g>
  <g id="axes_3">
   <g id="patch_12">
    <path d="M 684.535827 278.15 
L 947.124062 278.15 
L 947.124062 56.39 
L 684.535827 56.39 
z
" style="fill: #ffffff"/>
   </g>
   <g id="PolyCollection_3">
    <defs>
     <path id="maaca82ccf4" d="M 696.471656 -144.460665 
L 696.471656 -141.872752 
L 698.858822 -136.558986 
L 701.245988 -131.459116 
L 703.633153 -126.679252 
L 706.020319 -122.302915 
L 708.407484 -118.387275 
L 710.79465 -114.962997 
L 713.181817 -112.038271 
L 715.568982 -109.602455 
L 717.956147 -107.632755 
L 720.343312 -106.097653 
L 722.730479 -104.960694 
L 725.117645 -104.183472 
L 727.50481 -103.725135 
L 729.891977 -103.544173 
L 732.279141 -103.59733 
L 734.666308 -103.840114 
L 737.053475 -104.227156 
L 739.440638 -104.713254 
L 741.827805 -105.253806 
L 744.214969 -105.807661 
L 746.602136 -106.338288 
L 748.989303 -106.815256 
L 751.376466 -107.215058 
L 753.763633 -107.522252 
L 756.1508 -107.728751 
L 758.537964 -107.833527 
L 760.925127 -107.841461 
L 763.312298 -107.762903 
L 765.699462 -107.6117 
L 768.086625 -107.405577 
L 770.473796 -107.163502 
L 772.860959 -106.906012 
L 775.248123 -106.655319 
L 777.635293 -106.434585 
L 780.022457 -106.268109 
L 782.40962 -106.179972 
L 784.796791 -106.194606 
L 787.183954 -106.333358 
L 789.571118 -106.614619 
L 791.958281 -107.050355 
L 794.345452 -107.647572 
L 796.732616 -108.40543 
L 799.119779 -109.316058 
L 801.50695 -110.363765 
L 803.894113 -111.525633 
L 806.281277 -112.771081 
L 808.668447 -114.063761 
L 811.055611 -115.361237 
L 813.442774 -116.616403 
L 815.829945 -117.780176 
L 818.217108 -118.801135 
L 820.604272 -119.628771 
L 822.99145 -120.214037 
L 825.378613 -120.511685 
L 827.765777 -120.480041 
L 830.15294 -120.083311 
L 832.540104 -119.293692 
L 834.927267 -118.091145 
L 837.314445 -116.466043 
L 839.701608 -114.419762 
L 842.088772 -111.964239 
L 844.475935 -109.12095 
L 846.863099 -105.918625 
L 849.250262 -102.392145 
L 851.63744 -98.579665 
L 854.024604 -94.523445 
L 856.411767 -90.272583 
L 858.798931 -85.890502 
L 861.186094 -81.460756 
L 863.573258 -77.089575 
L 865.960421 -72.903197 
L 868.347599 -69.040802 
L 870.734762 -65.648786 
L 873.121926 -62.874171 
L 875.509089 -60.860391 
L 877.896253 -59.742884 
L 880.283416 -59.645138 
L 882.670594 -60.675462 
L 885.057757 -62.922828 
L 887.444921 -66.451791 
L 889.832084 -71.296614 
L 892.219248 -77.452613 
L 894.606411 -84.87305 
L 896.993589 -93.466171 
L 899.380753 -103.099599 
L 901.767916 -113.610912 
L 904.15508 -124.82796 
L 906.542243 -136.594803 
L 908.929407 -148.792134 
L 911.31657 -161.33775 
L 913.703748 -174.152793 
L 916.090911 -187.096704 
L 918.478075 -199.900278 
L 920.865238 -212.152348 
L 923.252402 -223.375327 
L 925.639565 -233.159311 
L 928.026743 -241.276117 
L 930.413907 -247.707849 
L 932.80107 -252.600602 
L 935.188234 -256.185183 
L 935.188234 -258.914375 
L 935.188234 -258.914375 
L 932.80107 -255.299214 
L 930.413907 -250.409857 
L 928.026743 -244.006867 
L 925.639565 -235.93508 
L 923.252402 -226.203608 
L 920.865238 -215.032493 
L 918.478075 -202.824393 
L 916.090911 -190.050664 
L 913.703748 -177.11764 
L 911.31657 -164.291429 
L 908.929407 -151.711993 
L 906.542243 -139.461059 
L 904.15508 -127.62818 
L 901.767916 -116.345417 
L 899.380753 -105.786553 
L 896.993589 -96.144375 
L 894.606411 -87.59928 
L 892.219248 -80.291992 
L 889.832084 -74.308502 
L 887.444921 -69.676605 
L 885.057757 -66.374021 
L 882.670594 -64.337428 
L 880.283416 -63.475632 
L 877.896253 -63.678585 
L 875.509089 -64.824422 
L 873.121926 -66.785096 
L 870.734762 -69.430321 
L 868.347599 -72.631676 
L 865.960421 -76.266362 
L 863.573258 -80.219646 
L 861.186094 -84.387448 
L 858.798931 -88.675094 
L 856.411767 -92.994782 
L 854.024604 -97.261448 
L 851.63744 -101.392151 
L 849.250262 -105.309873 
L 846.863099 -108.945716 
L 844.475935 -112.241353 
L 842.088772 -115.149292 
L 839.701608 -117.634815 
L 837.314445 -119.675725 
L 834.927267 -121.263233 
L 832.540104 -122.401965 
L 830.15294 -123.109511 
L 827.765777 -123.415111 
L 825.378613 -123.356306 
L 822.99145 -122.978337 
L 820.604272 -122.331031 
L 818.217108 -121.46545 
L 815.829945 -120.43324 
L 813.442774 -119.28379 
L 811.055611 -118.06412 
L 808.668447 -116.816424 
L 806.281277 -115.579672 
L 803.894113 -114.388082 
L 801.50695 -113.270606 
L 799.119779 -112.251925 
L 796.732616 -111.351073 
L 794.345452 -110.58214 
L 791.958281 -109.953952 
L 789.571118 -109.470874 
L 787.183954 -109.131787 
L 784.796791 -108.932477 
L 782.40962 -108.863057 
L 780.022457 -108.90999 
L 777.635293 -109.054248 
L 775.248123 -109.273378 
L 772.860959 -109.540498 
L 770.473796 -109.826413 
L 768.086625 -110.100979 
L 765.699462 -110.335617 
L 763.312298 -110.504722 
L 760.925127 -110.586264 
L 758.537964 -110.564852 
L 756.1508 -110.431299 
L 753.763633 -110.184272 
L 751.376466 -109.83013 
L 748.989303 -109.383351 
L 746.602136 -108.865848 
L 744.214969 -108.306808 
L 741.827805 -107.740588 
L 739.440638 -107.205307 
L 737.053475 -106.741231 
L 734.666308 -106.389879 
L 732.279141 -106.191845 
L 729.891977 -106.187103 
L 727.50481 -106.414701 
L 725.117645 -106.912869 
L 722.730479 -107.718879 
L 720.343312 -108.870342 
L 717.956147 -110.403596 
L 715.568982 -112.354325 
L 713.181817 -114.754783 
L 710.79465 -117.63034 
L 708.407484 -120.996501 
L 706.020319 -124.852893 
L 703.633153 -129.180284 
L 701.245988 -133.93706 
L 698.858822 -139.058916 
L 696.471656 -144.460665 
z
" style="stroke: #bbbbbb; stroke-opacity: 0.5"/>
    </defs>
    <g clip-path="url(#pf67c29ef02)">
     <use xlink:href="#maaca82ccf4" x="0" y="325.384375" style="fill: #bbbbbb; fill-opacity: 0.5; stroke: #bbbbbb; stroke-opacity: 0.5"/>
    </g>
   </g>
   <g id="matplotlib.axis_5">
    <g id="xtick_13">
     <g id="line2d_29">
      <g>
       <use xlink:href="#m855e333bab" x="696.471656" y="278.15" style="stroke: #000000; stroke-width: 0.8"/>
      </g>
     </g>
     <g id="text_29">
      <!-- 0.0 -->
      <g transform="translate(685.339469 295.787812) scale(0.14 -0.14)">
       <use xlink:href="#DejaVuSans-30"/>
       <use xlink:href="#DejaVuSans-2e" x="63.623047"/>
       <use xlink:href="#DejaVuSans-30" x="95.410156"/>
      </g>
     </g>
    </g>
    <g id="xtick_14">
     <g id="line2d_30">
      <g>
       <use xlink:href="#m855e333bab" x="744.214972" y="278.15" style="stroke: #000000; stroke-width: 0.8"/>
      </g>
     </g>
     <g id="text_30">
      <!-- 0.2 -->
      <g transform="translate(733.082784 295.787812) scale(0.14 -0.14)">
       <use xlink:href="#DejaVuSans-30"/>
       <use xlink:href="#DejaVuSans-2e" x="63.623047"/>
       <use xlink:href="#DejaVuSans-32" x="95.410156"/>
      </g>
     </g>
    </g>
    <g id="xtick_15">
     <g id="line2d_31">
      <g>
       <use xlink:href="#m855e333bab" x="791.958287" y="278.15" style="stroke: #000000; stroke-width: 0.8"/>
      </g>
     </g>
     <g id="text_31">
      <!-- 0.4 -->
      <g transform="translate(780.8261 295.787812) scale(0.14 -0.14)">
       <use xlink:href="#DejaVuSans-30"/>
       <use xlink:href="#DejaVuSans-2e" x="63.623047"/>
       <use xlink:href="#DejaVuSans-34" x="95.410156"/>
      </g>
     </g>
    </g>
    <g id="xtick_16">
     <g id="line2d_32">
      <g>
       <use xlink:href="#m855e333bab" x="839.701603" y="278.15" style="stroke: #000000; stroke-width: 0.8"/>
      </g>
     </g>
     <g id="text_32">
      <!-- 0.6 -->
      <g transform="translate(828.569415 295.787812) scale(0.14 -0.14)">
       <use xlink:href="#DejaVuSans-30"/>
       <use xlink:href="#DejaVuSans-2e" x="63.623047"/>
       <use xlink:href="#DejaVuSans-36" x="95.410156"/>
      </g>
     </g>
    </g>
    <g id="xtick_17">
     <g id="line2d_33">
      <g>
       <use xlink:href="#m855e333bab" x="887.444918" y="278.15" style="stroke: #000000; stroke-width: 0.8"/>
      </g>
     </g>
     <g id="text_33">
      <!-- 0.8 -->
      <g transform="translate(876.312731 295.787812) scale(0.14 -0.14)">
       <use xlink:href="#DejaVuSans-30"/>
       <use xlink:href="#DejaVuSans-2e" x="63.623047"/>
       <use xlink:href="#DejaVuSans-38" x="95.410156"/>
      </g>
     </g>
    </g>
    <g id="xtick_18">
     <g id="line2d_34">
      <g>
       <use xlink:href="#m855e333bab" x="935.188234" y="278.15" style="stroke: #000000; stroke-width: 0.8"/>
      </g>
     </g>
     <g id="text_34">
      <!-- 1.0 -->
      <g transform="translate(924.056046 295.787812) scale(0.14 -0.14)">
       <use xlink:href="#DejaVuSans-31"/>
       <use xlink:href="#DejaVuSans-2e" x="63.623047"/>
       <use xlink:href="#DejaVuSans-30" x="95.410156"/>
      </g>
     </g>
    </g>
    <g id="text_35">
     <!-- x -->
     <g transform="translate(811.094945 314.856875) scale(0.16 -0.16)">
      <use xlink:href="#DejaVuSans-78"/>
     </g>
    </g>
   </g>
   <g id="matplotlib.axis_6">
    <g id="ytick_11">
     <g id="line2d_35">
      <g>
       <use xlink:href="#m4e402b4121" x="684.535827" y="258.739963" style="stroke: #000000; stroke-width: 0.8"/>
      </g>
     </g>
     <g id="text_36">
      <!-- −5 -->
      <g transform="translate(656.896765 264.058869) scale(0.14 -0.14)">
       <use xlink:href="#DejaVuSans-2212"/>
       <use xlink:href="#DejaVuSans-35" x="83.789062"/>
      </g>
     </g>
    </g>
    <g id="ytick_12">
     <g id="line2d_36">
      <g>
       <use xlink:href="#m4e402b4121" x="684.535827" y="212.854522" style="stroke: #000000; stroke-width: 0.8"/>
      </g>
     </g>
     <g id="text_37">
      <!-- 0 -->
      <g transform="translate(668.628327 218.173428) scale(0.14 -0.14)">
       <use xlink:href="#DejaVuSans-30"/>
      </g>
     </g>
    </g>
    <g id="ytick_13">
     <g id="line2d_37">
      <g>
       <use xlink:href="#m4e402b4121" x="684.535827" y="166.969082" style="stroke: #000000; stroke-width: 0.8"/>
      </g>
     </g>
     <g id="text_38">
      <!-- 5 -->
      <g transform="translate(668.628327 172.287988) scale(0.14 -0.14)">
       <use xlink:href="#DejaVuSans-35"/>
      </g>
     </g>
    </g>
    <g id="ytick_14">
     <g id="line2d_38">
      <g>
       <use xlink:href="#m4e402b4121" x="684.535827" y="121.083641" style="stroke: #000000; stroke-width: 0.8"/>
      </g>
     </g>
     <g id="text_39">
      <!-- 10 -->
      <g transform="translate(659.720827 126.402547) scale(0.14 -0.14)">
       <use xlink:href="#DejaVuSans-31"/>
       <use xlink:href="#DejaVuSans-30" x="63.623047"/>
      </g>
     </g>
    </g>
    <g id="ytick_15">
     <g id="line2d_39">
      <g>
       <use xlink:href="#m4e402b4121" x="684.535827" y="75.1982" style="stroke: #000000; stroke-width: 0.8"/>
      </g>
     </g>
     <g id="text_40">
      <!-- 15 -->
      <g transform="translate(659.720827 80.517107) scale(0.14 -0.14)">
       <use xlink:href="#DejaVuSans-31"/>
       <use xlink:href="#DejaVuSans-35" x="63.623047"/>
      </g>
     </g>
    </g>
    <g id="text_41">
     <!--   -->
     <g transform="translate(649.569265 169.8125) rotate(-90) scale(0.16 -0.16)">
      <use xlink:href="#DejaVuSans-20"/>
     </g>
    </g>
   </g>
   <g id="line2d_40">
    <g clip-path="url(#pf67c29ef02)">
     <use xlink:href="#m373a158210" x="696.471656" y="182.42569" style="stroke: #000000"/>
     <use xlink:href="#m373a158210" x="736.257754" y="219.79939" style="stroke: #000000"/>
     <use xlink:href="#m373a158210" x="776.043851" y="217.606993" style="stroke: #000000"/>
     <use xlink:href="#m373a158210" x="815.829945" y="206.309763" style="stroke: #000000"/>
     <use xlink:href="#m373a158210" x="855.616032" y="232.394717" style="stroke: #000000"/>
     <use xlink:href="#m373a158210" x="895.402133" y="236.345198" style="stroke: #000000"/>
     <use xlink:href="#m373a158210" x="935.188234" y="67.84719" style="stroke: #000000"/>
    </g>
   </g>
   <g id="line2d_41">
    <path d="M 696.471656 185.073549 
L 698.858822 189.606015 
L 701.245988 194.050423 
L 703.633153 198.323358 
L 706.020319 202.352444 
L 708.407484 206.077113 
L 710.79465 209.449153 
L 713.181817 212.432843 
L 715.568982 215.004863 
L 717.956147 217.153902 
L 720.343312 218.879983 
L 722.730479 220.193574 
L 725.117645 221.114489 
L 727.50481 221.670634 
L 729.891977 221.896621 
L 732.279141 221.832289 
L 734.666308 221.521187 
L 737.053475 221.009036 
L 739.440638 220.342249 
L 741.827805 219.566487 
L 744.214969 218.725355 
L 746.602136 217.859195 
L 748.989303 217.004077 
L 751.376466 216.19094 
L 753.763633 215.444953 
L 756.1508 214.785085 
L 758.537964 214.223882 
L 760.925127 213.767462 
L 763.312298 213.415727 
L 765.699462 213.162772 
L 768.086625 212.997471 
L 770.473796 212.904231 
L 772.860959 212.863879 
L 775.248123 212.854669 
L 777.635293 212.853349 
L 780.022457 212.83629 
L 782.40962 212.78062 
L 784.796791 212.665332 
L 787.183954 212.472342 
L 789.571118 212.187454 
L 791.958281 211.801205 
L 794.345452 211.309565 
L 796.732616 210.714479 
L 799.119779 210.024194 
L 801.50695 209.253404 
L 803.894113 208.423181 
L 806.281277 207.560677 
L 808.668447 206.698619 
L 811.055611 205.874611 
L 813.442774 205.130203 
L 815.829945 204.50982 
L 818.217108 204.059532 
L 820.604272 203.825682 
L 822.99145 203.853437 
L 825.378613 204.185279 
L 827.765777 204.859471 
L 830.15294 205.908548 
L 832.540104 207.357869 
L 834.927267 209.224268 
L 837.314445 211.514852 
L 839.701608 214.225933 
L 842.088772 217.342265 
L 844.475935 220.83643 
L 846.863099 224.668543 
L 849.250262 228.786232 
L 851.63744 233.124947 
L 854.024604 237.608483 
L 856.411767 242.150021 
L 858.798931 246.653266 
L 861.186094 251.01401 
L 863.573258 255.121923 
L 865.960421 258.862608 
L 868.347599 262.119932 
L 870.734762 264.77832 
L 873.121926 266.725564 
L 875.509089 267.85535 
L 877.896253 268.07 
L 880.283416 267.283156 
L 882.670594 265.422342 
L 885.057757 262.431488 
L 887.444921 258.273116 
L 889.832084 252.930333 
L 892.219248 246.408557 
L 894.606411 238.736785 
L 896.993589 229.968547 
L 899.380753 220.182262 
L 901.767916 209.481661 
L 904.15508 197.994362 
L 906.542243 185.872145 
L 908.929407 173.287987 
L 911.31657 160.43553 
L 913.703748 147.525003 
L 916.090911 134.781717 
L 918.478075 122.441524 
L 920.865238 110.747558 
L 923.252402 99.945959 
L 925.639565 90.2815 
L 928.026743 81.992954 
L 930.413907 75.308641 
L 932.80107 70.441286 
L 935.188234 67.583677 
" clip-path="url(#pf67c29ef02)" style="fill: none; stroke-dasharray: 7.4,3.2; stroke-dashoffset: 0; stroke: #33bbee; stroke-width: 2"/>
   </g>
   <g id="line2d_42">
    <path d="M 696.471656 182.217667 
L 698.858822 187.575424 
L 701.245988 192.686287 
L 703.633153 197.454607 
L 706.020319 201.806471 
L 708.407484 205.692487 
L 710.79465 209.087707 
L 713.181817 211.987848 
L 715.568982 214.405985 
L 717.956147 216.3662 
L 720.343312 217.900378 
L 722.730479 219.044588 
L 725.117645 219.836205 
L 727.50481 220.314457 
L 729.891977 220.518737 
L 732.279141 220.489787 
L 734.666308 220.269378 
L 737.053475 219.900181 
L 739.440638 219.425095 
L 741.827805 218.887178 
L 744.214969 218.32714 
L 746.602136 217.782307 
L 748.989303 217.285072 
L 751.376466 216.861781 
L 753.763633 216.531113 
L 756.1508 216.30435 
L 758.537964 216.185185 
L 760.925127 216.170513 
L 763.312298 216.250562 
L 765.699462 216.410716 
L 768.086625 216.631097 
L 770.473796 216.889418 
L 772.860959 217.16112 
L 775.248123 217.420027 
L 777.635293 217.639959 
L 780.022457 217.795326 
L 782.40962 217.86286 
L 784.796791 217.820833 
L 787.183954 217.651803 
L 789.571118 217.341629 
L 791.958281 216.882221 
L 794.345452 216.269519 
L 796.732616 215.506123 
L 799.119779 214.600384 
L 801.50695 213.567189 
L 803.894113 212.427518 
L 806.281277 211.208999 
L 808.668447 209.944282 
L 811.055611 208.671697 
L 813.442774 207.434279 
L 815.829945 206.277667 
L 818.217108 205.251082 
L 820.604272 204.404474 
L 822.99145 203.788188 
L 825.378613 203.45038 
L 827.765777 203.436799 
L 830.15294 203.787964 
L 832.540104 204.536547 
L 834.927267 205.707186 
L 837.314445 207.313491 
L 839.701608 209.357086 
L 842.088772 211.82761 
L 844.475935 214.703224 
L 846.863099 217.952205 
L 849.250262 221.533366 
L 851.63744 225.398467 
L 854.024604 229.491928 
L 856.411767 233.750692 
L 858.798931 238.101577 
L 861.186094 242.460273 
L 863.573258 246.729765 
L 865.960421 250.799596 
L 868.347599 254.548136 
L 870.734762 257.844822 
L 873.121926 260.554742 
L 875.509089 262.541969 
L 877.896253 263.67364 
L 880.283416 263.82399 
L 882.670594 262.87793 
L 885.057757 260.735951 
L 887.444921 257.320177 
L 889.832084 252.581817 
L 892.219248 246.512073 
L 894.606411 239.14821 
L 896.993589 230.579103 
L 899.380753 220.941299 
L 901.767916 210.40621 
L 904.15508 199.156305 
L 906.542243 187.356444 
L 908.929407 175.132313 
L 911.31657 162.569785 
L 913.703748 149.749158 
L 916.090911 136.810691 
L 918.478075 124.022039 
L 920.865238 111.791955 
L 923.252402 100.594907 
L 925.639565 90.837179 
L 928.026743 82.742883 
L 930.413907 76.325522 
L 932.80107 71.434467 
L 935.188234 67.834596 
" clip-path="url(#pf67c29ef02)" style="fill: none; stroke: #cc3311; stroke-width: 2; stroke-linecap: square"/>
   </g>
   <g id="patch_13">
    <path d="M 684.535827 278.15 
L 684.535827 56.39 
" style="fill: none; stroke: #000000; stroke-width: 1.5; stroke-linejoin: miter; stroke-linecap: square"/>
   </g>
   <g id="patch_14">
    <path d="M 947.124062 278.15 
L 947.124062 56.39 
" style="fill: none; stroke: #000000; stroke-width: 1.5; stroke-linejoin: miter; stroke-linecap: square"/>
   </g>
   <g id="patch_15">
    <path d="M 684.535827 278.15 
L 947.124062 278.15 
" style="fill: none; stroke: #000000; stroke-width: 1.5; stroke-linejoin: miter; stroke-linecap: square"/>
   </g>
   <g id="patch_16">
    <path d="M 684.535827 56.39 
L 947.124062 56.39 
" style="fill: none; stroke: #000000; stroke-width: 1.5; stroke-linejoin: miter; stroke-linecap: square"/>
   </g>
   <g id="text_42">
    <!-- MF-DNN-BNN -->
    <g transform="translate(763.254945 50.39) scale(0.16 -0.16)">
     <defs>
      <path id="DejaVuSans-44" d="M 1259 4147 
L 1259 519 
L 2022 519 
Q 2988 519 3436 956 
Q 3884 1394 3884 2338 
Q 3884 3275 3436 3711 
Q 2988 4147 2022 4147 
L 1259 4147 
z
M 628 4666 
L 1925 4666 
Q 3281 4666 3915 4102 
Q 4550 3538 4550 2338 
Q 4550 1131 3912 565 
Q 3275 0 1925 0 
L 628 0 
L 628 4666 
z
" transform="scale(0.015625)"/>
     </defs>
     <use xlink:href="#DejaVuSans-4d"/>
     <use xlink:href="#DejaVuSans-46" x="86.279297"/>
     <use xlink:href="#DejaVuSans-2d" x="143.798828"/>
     <use xlink:href="#DejaVuSans-44" x="179.882812"/>
     <use xlink:href="#DejaVuSans-4e" x="256.884766"/>
     <use xlink:href="#DejaVuSans-4e" x="331.689453"/>
     <use xlink:href="#DejaVuSans-2d" x="406.494141"/>
     <use xlink:href="#DejaVuSans-42" x="438.953125"/>
     <use xlink:href="#DejaVuSans-4e" x="507.556641"/>
     <use xlink:href="#DejaVuSans-4e" x="582.361328"/>
    </g>
   </g>
   <g id="legend_1">
    <g id="patch_17">
     <path d="M 255.132266 29.297656 
L 746.315859 29.297656 
Q 748.815859 29.297656 748.815859 26.797656 
L 748.815859 9.7 
Q 748.815859 7.2 746.315859 7.2 
L 255.132266 7.2 
Q 252.632266 7.2 252.632266 9.7 
L 252.632266 26.797656 
Q 252.632266 29.297656 255.132266 29.297656 
z
" style="fill: #ffffff; opacity: 0.8; stroke: #cccccc; stroke-linejoin: miter"/>
    </g>
    <g id="line2d_43">
     <g>
      <use xlink:href="#m373a158210" x="270.132266" y="17.323047" style="stroke: #000000"/>
     </g>
    </g>
    <g id="text_43">
     <!-- HF samples -->
     <g transform="translate(292.632266 21.698047) scale(0.125 -0.125)">
      <defs>
       <path id="DejaVuSans-48" d="M 628 4666 
L 1259 4666 
L 1259 2753 
L 3553 2753 
L 3553 4666 
L 4184 4666 
L 4184 0 
L 3553 0 
L 3553 2222 
L 1259 2222 
L 1259 0 
L 628 0 
L 628 4666 
z
" transform="scale(0.015625)"/>
       <path id="DejaVuSans-73" d="M 2834 3397 
L 2834 2853 
Q 2591 2978 2328 3040 
Q 2066 3103 1784 3103 
Q 1356 3103 1142 2972 
Q 928 2841 928 2578 
Q 928 2378 1081 2264 
Q 1234 2150 1697 2047 
L 1894 2003 
Q 2506 1872 2764 1633 
Q 3022 1394 3022 966 
Q 3022 478 2636 193 
Q 2250 -91 1575 -91 
Q 1294 -91 989 -36 
Q 684 19 347 128 
L 347 722 
Q 666 556 975 473 
Q 1284 391 1588 391 
Q 1994 391 2212 530 
Q 2431 669 2431 922 
Q 2431 1156 2273 1281 
Q 2116 1406 1581 1522 
L 1381 1569 
Q 847 1681 609 1914 
Q 372 2147 372 2553 
Q 372 3047 722 3315 
Q 1072 3584 1716 3584 
Q 2034 3584 2315 3537 
Q 2597 3491 2834 3397 
z
" transform="scale(0.015625)"/>
       <path id="DejaVuSans-6d" d="M 3328 2828 
Q 3544 3216 3844 3400 
Q 4144 3584 4550 3584 
Q 5097 3584 5394 3201 
Q 5691 2819 5691 2113 
L 5691 0 
L 5113 0 
L 5113 2094 
Q 5113 2597 4934 2840 
Q 4756 3084 4391 3084 
Q 3944 3084 3684 2787 
Q 3425 2491 3425 1978 
L 3425 0 
L 2847 0 
L 2847 2094 
Q 2847 2600 2669 2842 
Q 2491 3084 2119 3084 
Q 1678 3084 1418 2786 
Q 1159 2488 1159 1978 
L 1159 0 
L 581 0 
L 581 3500 
L 1159 3500 
L 1159 2956 
Q 1356 3278 1631 3431 
Q 1906 3584 2284 3584 
Q 2666 3584 2933 3390 
Q 3200 3197 3328 2828 
z
" transform="scale(0.015625)"/>
       <path id="DejaVuSans-70" d="M 1159 525 
L 1159 -1331 
L 581 -1331 
L 581 3500 
L 1159 3500 
L 1159 2969 
Q 1341 3281 1617 3432 
Q 1894 3584 2278 3584 
Q 2916 3584 3314 3078 
Q 3713 2572 3713 1747 
Q 3713 922 3314 415 
Q 2916 -91 2278 -91 
Q 1894 -91 1617 61 
Q 1341 213 1159 525 
z
M 3116 1747 
Q 3116 2381 2855 2742 
Q 2594 3103 2138 3103 
Q 1681 3103 1420 2742 
Q 1159 2381 1159 1747 
Q 1159 1113 1420 752 
Q 1681 391 2138 391 
Q 2594 391 2855 752 
Q 3116 1113 3116 1747 
z
" transform="scale(0.015625)"/>
       <path id="DejaVuSans-6c" d="M 603 4863 
L 1178 4863 
L 1178 0 
L 603 0 
L 603 4863 
z
" transform="scale(0.015625)"/>
      </defs>
      <use xlink:href="#DejaVuSans-48"/>
      <use xlink:href="#DejaVuSans-46" x="75.195312"/>
      <use xlink:href="#DejaVuSans-20" x="132.714844"/>
      <use xlink:href="#DejaVuSans-73" x="164.501953"/>
      <use xlink:href="#DejaVuSans-61" x="216.601562"/>
      <use xlink:href="#DejaVuSans-6d" x="277.880859"/>
      <use xlink:href="#DejaVuSans-70" x="375.292969"/>
      <use xlink:href="#DejaVuSans-6c" x="438.769531"/>
      <use xlink:href="#DejaVuSans-65" x="466.552734"/>
      <use xlink:href="#DejaVuSans-73" x="528.076172"/>
     </g>
    </g>
    <g id="line2d_44">
     <path d="M 390.15375 17.323047 
L 402.65375 17.323047 
L 415.15375 17.323047 
" style="fill: none; stroke-dasharray: 7.4,3.2; stroke-dashoffset: 0; stroke: #33bbee; stroke-width: 2"/>
    </g>
    <g id="text_44">
     <!-- HF truth -->
     <g transform="translate(425.15375 21.698047) scale(0.125 -0.125)">
      <defs>
       <path id="DejaVuSans-72" d="M 2631 2963 
Q 2534 3019 2420 3045 
Q 2306 3072 2169 3072 
Q 1681 3072 1420 2755 
Q 1159 2438 1159 1844 
L 1159 0 
L 581 0 
L 581 3500 
L 1159 3500 
L 1159 2956 
Q 1341 3275 1631 3429 
Q 1922 3584 2338 3584 
Q 2397 3584 2469 3576 
Q 2541 3569 2628 3553 
L 2631 2963 
z
" transform="scale(0.015625)"/>
       <path id="DejaVuSans-75" d="M 544 1381 
L 544 3500 
L 1119 3500 
L 1119 1403 
Q 1119 906 1312 657 
Q 1506 409 1894 409 
Q 2359 409 2629 706 
Q 2900 1003 2900 1516 
L 2900 3500 
L 3475 3500 
L 3475 0 
L 2900 0 
L 2900 538 
Q 2691 219 2414 64 
Q 2138 -91 1772 -91 
Q 1169 -91 856 284 
Q 544 659 544 1381 
z
M 1991 3584 
L 1991 3584 
z
" transform="scale(0.015625)"/>
       <path id="DejaVuSans-68" d="M 3513 2113 
L 3513 0 
L 2938 0 
L 2938 2094 
Q 2938 2591 2744 2837 
Q 2550 3084 2163 3084 
Q 1697 3084 1428 2787 
Q 1159 2491 1159 1978 
L 1159 0 
L 581 0 
L 581 4863 
L 1159 4863 
L 1159 2956 
Q 1366 3272 1645 3428 
Q 1925 3584 2291 3584 
Q 2894 3584 3203 3211 
Q 3513 2838 3513 2113 
z
" transform="scale(0.015625)"/>
      </defs>
      <use xlink:href="#DejaVuSans-48"/>
      <use xlink:href="#DejaVuSans-46" x="75.195312"/>
      <use xlink:href="#DejaVuSans-20" x="132.714844"/>
      <use xlink:href="#DejaVuSans-74" x="164.501953"/>
      <use xlink:href="#DejaVuSans-72" x="203.710938"/>
      <use xlink:href="#DejaVuSans-75" x="244.824219"/>
      <use xlink:href="#DejaVuSans-74" x="308.203125"/>
      <use xlink:href="#DejaVuSans-68" x="347.412109"/>
     </g>
    </g>
    <g id="line2d_45">
     <path d="M 501.499453 17.323047 
L 513.999453 17.323047 
L 526.499453 17.323047 
" style="fill: none; stroke: #cc3311; stroke-width: 2; stroke-linecap: square"/>
    </g>
    <g id="text_45">
     <!-- HF prediction -->
     <g transform="translate(536.499453 21.698047) scale(0.125 -0.125)">
      <defs>
       <path id="DejaVuSans-64" d="M 2906 2969 
L 2906 4863 
L 3481 4863 
L 3481 0 
L 2906 0 
L 2906 525 
Q 2725 213 2448 61 
Q 2172 -91 1784 -91 
Q 1150 -91 751 415 
Q 353 922 353 1747 
Q 353 2572 751 3078 
Q 1150 3584 1784 3584 
Q 2172 3584 2448 3432 
Q 2725 3281 2906 2969 
z
M 947 1747 
Q 947 1113 1208 752 
Q 1469 391 1925 391 
Q 2381 391 2643 752 
Q 2906 1113 2906 1747 
Q 2906 2381 2643 2742 
Q 2381 3103 1925 3103 
Q 1469 3103 1208 2742 
Q 947 2381 947 1747 
z
" transform="scale(0.015625)"/>
       <path id="DejaVuSans-69" d="M 603 3500 
L 1178 3500 
L 1178 0 
L 603 0 
L 603 3500 
z
M 603 4863 
L 1178 4863 
L 1178 4134 
L 603 4134 
L 603 4863 
z
" transform="scale(0.015625)"/>
      </defs>
      <use xlink:href="#DejaVuSans-48"/>
      <use xlink:href="#DejaVuSans-46" x="75.195312"/>
      <use xlink:href="#DejaVuSans-20" x="132.714844"/>
      <use xlink:href="#DejaVuSans-70" x="164.501953"/>
      <use xlink:href="#DejaVuSans-72" x="227.978516"/>
      <use xlink:href="#DejaVuSans-65" x="266.841797"/>
      <use xlink:href="#DejaVuSans-64" x="328.365234"/>
      <use xlink:href="#DejaVuSans-69" x="391.841797"/>
      <use xlink:href="#DejaVuSans-63" x="419.625"/>
      <use xlink:href="#DejaVuSans-74" x="474.605469"/>
      <use xlink:href="#DejaVuSans-69" x="513.814453"/>
      <use xlink:href="#DejaVuSans-6f" x="541.597656"/>
      <use xlink:href="#DejaVuSans-6e" x="602.779297"/>
     </g>
    </g>
    <g id="patch_18">
     <path d="M 644.770938 21.698047 
L 669.770938 21.698047 
L 669.770938 12.948047 
L 644.770938 12.948047 
z
" style="fill: #bbbbbb; fill-opacity: 0.5; stroke: #bbbbbb; stroke-opacity: 0.5; stroke-linejoin: miter"/>
    </g>
    <g id="text_46">
     <!-- CI interval -->
     <g transform="translate(679.770938 21.698047) scale(0.125 -0.125)">
      <defs>
       <path id="DejaVuSans-49" d="M 628 4666 
L 1259 4666 
L 1259 0 
L 628 0 
L 628 4666 
z
" transform="scale(0.015625)"/>
       <path id="DejaVuSans-76" d="M 191 3500 
L 800 3500 
L 1894 563 
L 2988 3500 
L 3597 3500 
L 2284 0 
L 1503 0 
L 191 3500 
z
" transform="scale(0.015625)"/>
      </defs>
      <use xlink:href="#DejaVuSans-43"/>
      <use xlink:href="#DejaVuSans-49" x="69.824219"/>
      <use xlink:href="#DejaVuSans-20" x="99.316406"/>
      <use xlink:href="#DejaVuSans-69" x="131.103516"/>
      <use xlink:href="#DejaVuSans-6e" x="158.886719"/>
      <use xlink:href="#DejaVuSans-74" x="222.265625"/>
      <use xlink:href="#DejaVuSans-65" x="261.474609"/>
      <use xlink:href="#DejaVuSans-72" x="322.998047"/>
      <use xlink:href="#DejaVuSans-76" x="364.111328"/>
      <use xlink:href="#DejaVuSans-61" x="423.291016"/>
      <use xlink:href="#DejaVuSans-6c" x="484.570312"/>
     </g>
    </g>
   </g>
  </g>
 </g>
 <defs>
  <clipPath id="p34c0a80cb2">
   <rect x="54.324062" y="56.39" width="262.588235" height="221.76"/>
  </clipPath>
  <clipPath id="p41a663a8d9">
   <rect x="369.429945" y="56.39" width="262.588235" height="221.76"/>
  </clipPath>
  <clipPath id="pf67c29ef02">
   <rect x="684.535827" y="56.39" width="262.588235" height="221.76"/>
  </clipPath>
 </defs>
</svg>
