<?xml version="1.0" encoding="utf-8" standalone="no"?>
<!DOCTYPE svg PUBLIC "-//W3C//DTD SVG 1.1//EN"
  "http://www.w3.org/Graphics/SVG/1.1/DTD/svg11.dtd">
<svg xmlns:xlink="http://www.w3.org/1999/xlink" width="425.77pt" height="282.97pt" viewBox="0 0 425.77 282.97" xmlns="http://www.w3.org/2000/svg" version="1.1">
 <metadata>
  <rdf:RDF xmlns:dc="http://purl.org/dc/elements/1.1/" xmlns:cc="http://creativecommons.org/ns#" xmlns:rdf="http://www.w3.org/1999/02/22-rdf-syntax-ns#">
   <cc:Work>
    <dc:type rdf:resource="http://purl.org/dc/dcmitype/StillImage"/>
    <dc:date>2024-07-04T15:23:05.433793</dc:date>
    <dc:format>image/svg+xml</dc:format>
    <dc:creator>
     <cc:Agent>
      <dc:title>Matplotlib v3.8.3, https://matplotlib.org/</dc:title>
     </cc:Agent>
    </dc:creator>
   </cc:Work>
  </rdf:RDF>
 </metadata>
 <defs>
  <style type="text/css">*{stroke-linejoin: round; stroke-linecap: butt}</style>
 </defs>
 <g id="figure_1">
  <g id="patch_1">
   <path d="M 0 282.97 
L 425.77 282.97 
L 425.77 0 
L 0 0 
z
" style="fill: #ffffff"/>
  </g>
  <g id="axes_1">
   <g id="patch_2">
    <path d="M 59.13 233.8 
L 418.57 233.8 
L 418.57 7.2 
L 59.13 7.2 
z
" style="fill: #ffffff"/>
   </g>
   <g id="matplotlib.axis_1">
    <g id="xtick_1">
     <g id="line2d_1">
      <defs>
       <path id="me15ab5d57e" d="M 0 0 
L 0 3.5 
" style="stroke: #000000; stroke-width: 0.8"/>
      </defs>
      <g>
       <use xlink:href="#me15ab5d57e" x="75.468182" y="233.8" style="stroke: #000000; stroke-width: 0.8"/>
      </g>
     </g>
     <g id="text_1">
      <!-- 0.0 -->
      <g transform="translate(62.745682 252.9575) scale(0.16 -0.16)">
       <defs>
        <path id="DejaVuSans-30" d="M 2034 4250 
Q 1547 4250 1301 3770 
Q 1056 3291 1056 2328 
Q 1056 1369 1301 889 
Q 1547 409 2034 409 
Q 2525 409 2770 889 
Q 3016 1369 3016 2328 
Q 3016 3291 2770 3770 
Q 2525 4250 2034 4250 
z
M 2034 4750 
Q 2819 4750 3233 4129 
Q 3647 3509 3647 2328 
Q 3647 1150 3233 529 
Q 2819 -91 2034 -91 
Q 1250 -91 836 529 
Q 422 1150 422 2328 
Q 422 3509 836 4129 
Q 1250 4750 2034 4750 
z
" transform="scale(0.015625)"/>
        <path id="DejaVuSans-2e" d="M 684 794 
L 1344 794 
L 1344 0 
L 684 0 
L 684 794 
z
" transform="scale(0.015625)"/>
       </defs>
       <use xlink:href="#DejaVuSans-30"/>
       <use xlink:href="#DejaVuSans-2e" x="63.623047"/>
       <use xlink:href="#DejaVuSans-30" x="95.410156"/>
      </g>
     </g>
    </g>
    <g id="xtick_2">
     <g id="line2d_2">
      <g>
       <use xlink:href="#me15ab5d57e" x="140.820909" y="233.8" style="stroke: #000000; stroke-width: 0.8"/>
      </g>
     </g>
     <g id="text_2">
      <!-- 0.2 -->
      <g transform="translate(128.098409 252.9575) scale(0.16 -0.16)">
       <defs>
        <path id="DejaVuSans-32" d="M 1228 531 
L 3431 531 
L 3431 0 
L 469 0 
L 469 531 
Q 828 903 1448 1529 
Q 2069 2156 2228 2338 
Q 2531 2678 2651 2914 
Q 2772 3150 2772 3378 
Q 2772 3750 2511 3984 
Q 2250 4219 1831 4219 
Q 1534 4219 1204 4116 
Q 875 4013 500 3803 
L 500 4441 
Q 881 4594 1212 4672 
Q 1544 4750 1819 4750 
Q 2544 4750 2975 4387 
Q 3406 4025 3406 3419 
Q 3406 3131 3298 2873 
Q 3191 2616 2906 2266 
Q 2828 2175 2409 1742 
Q 1991 1309 1228 531 
z
" transform="scale(0.015625)"/>
       </defs>
       <use xlink:href="#DejaVuSans-30"/>
       <use xlink:href="#DejaVuSans-2e" x="63.623047"/>
       <use xlink:href="#DejaVuSans-32" x="95.410156"/>
      </g>
     </g>
    </g>
    <g id="xtick_3">
     <g id="line2d_3">
      <g>
       <use xlink:href="#me15ab5d57e" x="206.173636" y="233.8" style="stroke: #000000; stroke-width: 0.8"/>
      </g>
     </g>
     <g id="text_3">
      <!-- 0.4 -->
      <g transform="translate(193.451136 252.9575) scale(0.16 -0.16)">
       <defs>
        <path id="DejaVuSans-34" d="M 2419 4116 
L 825 1625 
L 2419 1625 
L 2419 4116 
z
M 2253 4666 
L 3047 4666 
L 3047 1625 
L 3713 1625 
L 3713 1100 
L 3047 1100 
L 3047 0 
L 2419 0 
L 2419 1100 
L 313 1100 
L 313 1709 
L 2253 4666 
z
" transform="scale(0.015625)"/>
       </defs>
       <use xlink:href="#DejaVuSans-30"/>
       <use xlink:href="#DejaVuSans-2e" x="63.623047"/>
       <use xlink:href="#DejaVuSans-34" x="95.410156"/>
      </g>
     </g>
    </g>
    <g id="xtick_4">
     <g id="line2d_4">
      <g>
       <use xlink:href="#me15ab5d57e" x="271.526364" y="233.8" style="stroke: #000000; stroke-width: 0.8"/>
      </g>
     </g>
     <g id="text_4">
      <!-- 0.6 -->
      <g transform="translate(258.803864 252.9575) scale(0.16 -0.16)">
       <defs>
        <path id="DejaVuSans-36" d="M 2113 2584 
Q 1688 2584 1439 2293 
Q 1191 2003 1191 1497 
Q 1191 994 1439 701 
Q 1688 409 2113 409 
Q 2538 409 2786 701 
Q 3034 994 3034 1497 
Q 3034 2003 2786 2293 
Q 2538 2584 2113 2584 
z
M 3366 4563 
L 3366 3988 
Q 3128 4100 2886 4159 
Q 2644 4219 2406 4219 
Q 1781 4219 1451 3797 
Q 1122 3375 1075 2522 
Q 1259 2794 1537 2939 
Q 1816 3084 2150 3084 
Q 2853 3084 3261 2657 
Q 3669 2231 3669 1497 
Q 3669 778 3244 343 
Q 2819 -91 2113 -91 
Q 1303 -91 875 529 
Q 447 1150 447 2328 
Q 447 3434 972 4092 
Q 1497 4750 2381 4750 
Q 2619 4750 2861 4703 
Q 3103 4656 3366 4563 
z
" transform="scale(0.015625)"/>
       </defs>
       <use xlink:href="#DejaVuSans-30"/>
       <use xlink:href="#DejaVuSans-2e" x="63.623047"/>
       <use xlink:href="#DejaVuSans-36" x="95.410156"/>
      </g>
     </g>
    </g>
    <g id="xtick_5">
     <g id="line2d_5">
      <g>
       <use xlink:href="#me15ab5d57e" x="336.879091" y="233.8" style="stroke: #000000; stroke-width: 0.8"/>
      </g>
     </g>
     <g id="text_5">
      <!-- 0.8 -->
      <g transform="translate(324.156591 252.9575) scale(0.16 -0.16)">
       <defs>
        <path id="DejaVuSans-38" d="M 2034 2216 
Q 1584 2216 1326 1975 
Q 1069 1734 1069 1313 
Q 1069 891 1326 650 
Q 1584 409 2034 409 
Q 2484 409 2743 651 
Q 3003 894 3003 1313 
Q 3003 1734 2745 1975 
Q 2488 2216 2034 2216 
z
M 1403 2484 
Q 997 2584 770 2862 
Q 544 3141 544 3541 
Q 544 4100 942 4425 
Q 1341 4750 2034 4750 
Q 2731 4750 3128 4425 
Q 3525 4100 3525 3541 
Q 3525 3141 3298 2862 
Q 3072 2584 2669 2484 
Q 3125 2378 3379 2068 
Q 3634 1759 3634 1313 
Q 3634 634 3220 271 
Q 2806 -91 2034 -91 
Q 1263 -91 848 271 
Q 434 634 434 1313 
Q 434 1759 690 2068 
Q 947 2378 1403 2484 
z
M 1172 3481 
Q 1172 3119 1398 2916 
Q 1625 2713 2034 2713 
Q 2441 2713 2670 2916 
Q 2900 3119 2900 3481 
Q 2900 3844 2670 4047 
Q 2441 4250 2034 4250 
Q 1625 4250 1398 4047 
Q 1172 3844 1172 3481 
z
" transform="scale(0.015625)"/>
       </defs>
       <use xlink:href="#DejaVuSans-30"/>
       <use xlink:href="#DejaVuSans-2e" x="63.623047"/>
       <use xlink:href="#DejaVuSans-38" x="95.410156"/>
      </g>
     </g>
    </g>
    <g id="xtick_6">
     <g id="line2d_6">
      <g>
       <use xlink:href="#me15ab5d57e" x="402.231818" y="233.8" style="stroke: #000000; stroke-width: 0.8"/>
      </g>
     </g>
     <g id="text_6">
      <!-- 1.0 -->
      <g transform="translate(389.509318 252.9575) scale(0.16 -0.16)">
       <defs>
        <path id="DejaVuSans-31" d="M 794 531 
L 1825 531 
L 1825 4091 
L 703 3866 
L 703 4441 
L 1819 4666 
L 2450 4666 
L 2450 531 
L 3481 531 
L 3481 0 
L 794 0 
L 794 531 
z
" transform="scale(0.015625)"/>
       </defs>
       <use xlink:href="#DejaVuSans-31"/>
       <use xlink:href="#DejaVuSans-2e" x="63.623047"/>
       <use xlink:href="#DejaVuSans-30" x="95.410156"/>
      </g>
     </g>
    </g>
    <g id="text_7">
     <!-- x -->
     <g transform="translate(234.115 272.4425) scale(0.16 -0.16)">
      <defs>
       <path id="DejaVuSans-78" d="M 3513 3500 
L 2247 1797 
L 3578 0 
L 2900 0 
L 1881 1375 
L 863 0 
L 184 0 
L 1544 1831 
L 300 3500 
L 978 3500 
L 1906 2253 
L 2834 3500 
L 3513 3500 
z
" transform="scale(0.015625)"/>
      </defs>
      <use xlink:href="#DejaVuSans-78"/>
     </g>
    </g>
   </g>
   <g id="matplotlib.axis_2">
    <g id="ytick_1">
     <g id="line2d_7">
      <defs>
       <path id="ma2d1931861" d="M 0 0 
L -3.5 0 
" style="stroke: #000000; stroke-width: 0.8"/>
      </defs>
      <g>
       <use xlink:href="#ma2d1931861" x="59.13" y="223.513781" style="stroke: #000000; stroke-width: 0.8"/>
      </g>
     </g>
     <g id="text_8">
      <!-- 0.0 -->
      <g transform="translate(26.685 229.592531) scale(0.16 -0.16)">
       <use xlink:href="#DejaVuSans-30"/>
       <use xlink:href="#DejaVuSans-2e" x="63.623047"/>
       <use xlink:href="#DejaVuSans-30" x="95.410156"/>
      </g>
     </g>
    </g>
    <g id="ytick_2">
     <g id="line2d_8">
      <g>
       <use xlink:href="#ma2d1931861" x="59.13" y="184.192301" style="stroke: #000000; stroke-width: 0.8"/>
      </g>
     </g>
     <g id="text_9">
      <!-- 0.2 -->
      <g transform="translate(26.685 190.271051) scale(0.16 -0.16)">
       <use xlink:href="#DejaVuSans-30"/>
       <use xlink:href="#DejaVuSans-2e" x="63.623047"/>
       <use xlink:href="#DejaVuSans-32" x="95.410156"/>
      </g>
     </g>
    </g>
    <g id="ytick_3">
     <g id="line2d_9">
      <g>
       <use xlink:href="#ma2d1931861" x="59.13" y="144.87082" style="stroke: #000000; stroke-width: 0.8"/>
      </g>
     </g>
     <g id="text_10">
      <!-- 0.4 -->
      <g transform="translate(26.685 150.94957) scale(0.16 -0.16)">
       <use xlink:href="#DejaVuSans-30"/>
       <use xlink:href="#DejaVuSans-2e" x="63.623047"/>
       <use xlink:href="#DejaVuSans-34" x="95.410156"/>
      </g>
     </g>
    </g>
    <g id="ytick_4">
     <g id="line2d_10">
      <g>
       <use xlink:href="#ma2d1931861" x="59.13" y="105.549339" style="stroke: #000000; stroke-width: 0.8"/>
      </g>
     </g>
     <g id="text_11">
      <!-- 0.6 -->
      <g transform="translate(26.685 111.628089) scale(0.16 -0.16)">
       <use xlink:href="#DejaVuSans-30"/>
       <use xlink:href="#DejaVuSans-2e" x="63.623047"/>
       <use xlink:href="#DejaVuSans-36" x="95.410156"/>
      </g>
     </g>
    </g>
    <g id="ytick_5">
     <g id="line2d_11">
      <g>
       <use xlink:href="#ma2d1931861" x="59.13" y="66.227858" style="stroke: #000000; stroke-width: 0.8"/>
      </g>
     </g>
     <g id="text_12">
      <!-- 0.8 -->
      <g transform="translate(26.685 72.306608) scale(0.16 -0.16)">
       <use xlink:href="#DejaVuSans-30"/>
       <use xlink:href="#DejaVuSans-2e" x="63.623047"/>
       <use xlink:href="#DejaVuSans-38" x="95.410156"/>
      </g>
     </g>
    </g>
    <g id="ytick_6">
     <g id="line2d_12">
      <g>
       <use xlink:href="#ma2d1931861" x="59.13" y="26.906378" style="stroke: #000000; stroke-width: 0.8"/>
      </g>
     </g>
     <g id="text_13">
      <!-- 1.0 -->
      <g transform="translate(26.685 32.985128) scale(0.16 -0.16)">
       <use xlink:href="#DejaVuSans-31"/>
       <use xlink:href="#DejaVuSans-2e" x="63.623047"/>
       <use xlink:href="#DejaVuSans-30" x="95.410156"/>
      </g>
     </g>
    </g>
    <g id="text_14">
     <!-- Absolute error -->
     <g transform="translate(19.3575 177.37125) rotate(-90) scale(0.16 -0.16)">
      <defs>
       <path id="DejaVuSans-41" d="M 2188 4044 
L 1331 1722 
L 3047 1722 
L 2188 4044 
z
M 1831 4666 
L 2547 4666 
L 4325 0 
L 3669 0 
L 3244 1197 
L 1141 1197 
L 716 0 
L 50 0 
L 1831 4666 
z
" transform="scale(0.015625)"/>
       <path id="DejaVuSans-62" d="M 3116 1747 
Q 3116 2381 2855 2742 
Q 2594 3103 2138 3103 
Q 1681 3103 1420 2742 
Q 1159 2381 1159 1747 
Q 1159 1113 1420 752 
Q 1681 391 2138 391 
Q 2594 391 2855 752 
Q 3116 1113 3116 1747 
z
M 1159 2969 
Q 1341 3281 1617 3432 
Q 1894 3584 2278 3584 
Q 2916 3584 3314 3078 
Q 3713 2572 3713 1747 
Q 3713 922 3314 415 
Q 2916 -91 2278 -91 
Q 1894 -91 1617 61 
Q 1341 213 1159 525 
L 1159 0 
L 581 0 
L 581 4863 
L 1159 4863 
L 1159 2969 
z
" transform="scale(0.015625)"/>
       <path id="DejaVuSans-73" d="M 2834 3397 
L 2834 2853 
Q 2591 2978 2328 3040 
Q 2066 3103 1784 3103 
Q 1356 3103 1142 2972 
Q 928 2841 928 2578 
Q 928 2378 1081 2264 
Q 1234 2150 1697 2047 
L 1894 2003 
Q 2506 1872 2764 1633 
Q 3022 1394 3022 966 
Q 3022 478 2636 193 
Q 2250 -91 1575 -91 
Q 1294 -91 989 -36 
Q 684 19 347 128 
L 347 722 
Q 666 556 975 473 
Q 1284 391 1588 391 
Q 1994 391 2212 530 
Q 2431 669 2431 922 
Q 2431 1156 2273 1281 
Q 2116 1406 1581 1522 
L 1381 1569 
Q 847 1681 609 1914 
Q 372 2147 372 2553 
Q 372 3047 722 3315 
Q 1072 3584 1716 3584 
Q 2034 3584 2315 3537 
Q 2597 3491 2834 3397 
z
" transform="scale(0.015625)"/>
       <path id="DejaVuSans-6f" d="M 1959 3097 
Q 1497 3097 1228 2736 
Q 959 2375 959 1747 
Q 959 1119 1226 758 
Q 1494 397 1959 397 
Q 2419 397 2687 759 
Q 2956 1122 2956 1747 
Q 2956 2369 2687 2733 
Q 2419 3097 1959 3097 
z
M 1959 3584 
Q 2709 3584 3137 3096 
Q 3566 2609 3566 1747 
Q 3566 888 3137 398 
Q 2709 -91 1959 -91 
Q 1206 -91 779 398 
Q 353 888 353 1747 
Q 353 2609 779 3096 
Q 1206 3584 1959 3584 
z
" transform="scale(0.015625)"/>
       <path id="DejaVuSans-6c" d="M 603 4863 
L 1178 4863 
L 1178 0 
L 603 0 
L 603 4863 
z
" transform="scale(0.015625)"/>
       <path id="DejaVuSans-75" d="M 544 1381 
L 544 3500 
L 1119 3500 
L 1119 1403 
Q 1119 906 1312 657 
Q 1506 409 1894 409 
Q 2359 409 2629 706 
Q 2900 1003 2900 1516 
L 2900 3500 
L 3475 3500 
L 3475 0 
L 2900 0 
L 2900 538 
Q 2691 219 2414 64 
Q 2138 -91 1772 -91 
Q 1169 -91 856 284 
Q 544 659 544 1381 
z
M 1991 3584 
L 1991 3584 
z
" transform="scale(0.015625)"/>
       <path id="DejaVuSans-74" d="M 1172 4494 
L 1172 3500 
L 2356 3500 
L 2356 3053 
L 1172 3053 
L 1172 1153 
Q 1172 725 1289 603 
Q 1406 481 1766 481 
L 2356 481 
L 2356 0 
L 1766 0 
Q 1100 0 847 248 
Q 594 497 594 1153 
L 594 3053 
L 172 3053 
L 172 3500 
L 594 3500 
L 594 4494 
L 1172 4494 
z
" transform="scale(0.015625)"/>
       <path id="DejaVuSans-65" d="M 3597 1894 
L 3597 1613 
L 953 1613 
Q 991 1019 1311 708 
Q 1631 397 2203 397 
Q 2534 397 2845 478 
Q 3156 559 3463 722 
L 3463 178 
Q 3153 47 2828 -22 
Q 2503 -91 2169 -91 
Q 1331 -91 842 396 
Q 353 884 353 1716 
Q 353 2575 817 3079 
Q 1281 3584 2069 3584 
Q 2775 3584 3186 3129 
Q 3597 2675 3597 1894 
z
M 3022 2063 
Q 3016 2534 2758 2815 
Q 2500 3097 2075 3097 
Q 1594 3097 1305 2825 
Q 1016 2553 972 2059 
L 3022 2063 
z
" transform="scale(0.015625)"/>
       <path id="DejaVuSans-20" transform="scale(0.015625)"/>
       <path id="DejaVuSans-72" d="M 2631 2963 
Q 2534 3019 2420 3045 
Q 2306 3072 2169 3072 
Q 1681 3072 1420 2755 
Q 1159 2438 1159 1844 
L 1159 0 
L 581 0 
L 581 3500 
L 1159 3500 
L 1159 2956 
Q 1341 3275 1631 3429 
Q 1922 3584 2338 3584 
Q 2397 3584 2469 3576 
Q 2541 3569 2628 3553 
L 2631 2963 
z
" transform="scale(0.015625)"/>
      </defs>
      <use xlink:href="#DejaVuSans-41"/>
      <use xlink:href="#DejaVuSans-62" x="68.408203"/>
      <use xlink:href="#DejaVuSans-73" x="131.884766"/>
      <use xlink:href="#DejaVuSans-6f" x="183.984375"/>
      <use xlink:href="#DejaVuSans-6c" x="245.166016"/>
      <use xlink:href="#DejaVuSans-75" x="272.949219"/>
      <use xlink:href="#DejaVuSans-74" x="336.328125"/>
      <use xlink:href="#DejaVuSans-65" x="375.537109"/>
      <use xlink:href="#DejaVuSans-20" x="437.060547"/>
      <use xlink:href="#DejaVuSans-65" x="468.847656"/>
      <use xlink:href="#DejaVuSans-72" x="530.371094"/>
      <use xlink:href="#DejaVuSans-72" x="569.734375"/>
      <use xlink:href="#DejaVuSans-6f" x="608.597656"/>
      <use xlink:href="#DejaVuSans-72" x="669.779297"/>
     </g>
    </g>
   </g>
   <g id="line2d_13">
    <path d="M 75.468182 126.891457 
L 75.794945 127.388401 
L 76.121709 128.352693 
L 76.775236 131.694267 
L 77.428764 136.892261 
L 78.082291 143.826025 
L 79.062582 156.899142 
L 82.656982 208.835095 
L 83.310509 214.447123 
L 83.964037 218.083411 
L 84.617564 220.345861 
L 85.597855 223.282419 
L 85.924619 222.333695 
L 86.578146 218.669874 
L 87.558437 211.364662 
L 92.459891 169.499625 
L 93.440183 162.936277 
L 94.09371 159.616694 
L 94.747238 157.330818 
L 95.074001 156.607562 
L 95.400765 156.174228 
L 95.727528 156.034447 
L 96.054291 156.188923 
L 96.381056 156.635617 
L 96.70782 157.369279 
L 97.361346 159.662092 
L 98.014875 162.964168 
L 98.995165 169.458023 
L 100.628984 182.668999 
L 103.243091 204.188016 
L 104.223384 211.081995 
L 104.87691 214.777023 
L 105.530439 217.430374 
L 106.183965 218.964834 
L 106.837491 219.638566 
L 107.49102 220.164057 
L 107.817784 220.641173 
L 108.144546 221.361335 
L 108.798075 223.380176 
L 109.451601 219.890032 
L 110.105129 215.202558 
L 111.412184 203.418401 
L 113.046001 188.682267 
L 114.026294 181.88115 
L 114.67982 178.681117 
L 115.333348 176.68738 
L 115.66011 176.161608 
L 115.986874 175.954583 
L 116.313636 176.067378 
L 116.640401 176.49972 
L 116.967165 177.250008 
L 117.620694 179.693685 
L 118.274222 183.365079 
L 118.927746 188.204662 
L 119.908039 197.398497 
L 122.195384 221.792311 
L 122.522148 222.910379 
L 122.848913 221.4226 
L 123.175677 220.939303 
L 123.502436 221.507737 
L 123.829201 222.994472 
L 124.155965 221.956516 
L 126.44331 206.859554 
L 126.770074 207.479615 
L 127.096839 209.712722 
L 128.403891 222.402015 
L 128.730655 222.044348 
L 129.384184 217.727596 
L 129.710948 217.058141 
L 130.037713 217.161828 
L 130.364477 217.550491 
L 130.691241 217.762506 
L 131.018001 217.57612 
L 131.344765 217.181433 
L 131.671529 216.254225 
L 131.998293 214.627128 
L 132.651822 209.30927 
L 133.63211 197.814781 
L 134.612403 186.567346 
L 135.265932 180.976723 
L 135.919455 177.481874 
L 136.24622 176.588486 
L 136.572984 176.28087 
L 136.899748 176.561181 
L 137.226513 177.423562 
L 137.553277 178.854604 
L 138.206801 183.325598 
L 138.860329 189.665025 
L 141.147674 215.108018 
L 141.801203 218.838108 
L 142.127967 219.701871 
L 142.454732 220.116608 
L 142.781496 220.269244 
L 143.10826 220.066417 
L 143.43502 220.010577 
L 144.088548 220.722278 
L 144.415312 221.281905 
L 145.068841 223.04979 
L 145.722365 218.781096 
L 147.356186 207.033296 
L 147.682951 206.161635 
L 148.009715 206.044137 
L 148.336474 206.453343 
L 149.316767 208.383685 
L 149.970296 208.981913 
L 150.62382 209.422015 
L 152.257641 211.14832 
L 152.584405 211.003848 
L 152.91117 210.613661 
L 153.564693 209.220954 
L 155.852039 203.08521 
L 156.178803 202.63904 
L 156.505567 202.38314 
L 156.832331 202.330598 
L 157.159091 202.490601 
L 157.48586 202.868775 
L 158.139389 204.285773 
L 158.792917 206.565318 
L 159.446436 209.648942 
L 160.426734 215.561375 
L 161.407022 222.587326 
L 161.733781 221.95163 
L 164.021136 205.068261 
L 164.674655 201.529649 
L 165.328184 199.239132 
L 165.654953 198.661136 
L 165.981712 198.494162 
L 166.308482 198.746501 
L 166.635241 199.410477 
L 167.28877 201.848005 
L 168.269058 207.220713 
L 169.249346 212.342624 
L 169.902874 214.663984 
L 170.229643 215.384837 
L 170.556403 215.783531 
L 170.883172 215.844023 
L 171.209931 215.557313 
L 171.536691 214.929413 
L 172.190219 212.752251 
L 173.170517 207.851555 
L 175.131093 197.29338 
L 175.784622 194.725306 
L 176.43815 192.941413 
L 176.76491 192.372446 
L 177.091679 192.028209 
L 177.418438 191.912557 
L 177.745208 192.027072 
L 178.071967 192.371063 
L 178.725496 193.734618 
L 179.379024 195.954107 
L 180.032553 198.938196 
L 181.012841 204.514417 
L 182.973427 216.22794 
L 183.626955 218.887221 
L 183.953715 219.765304 
L 184.280474 220.292764 
L 184.607243 220.438755 
L 184.934003 220.180674 
L 185.260772 219.507504 
L 185.587531 218.424121 
L 186.24106 215.127928 
L 187.221348 208.253027 
L 188.201646 201.598754 
L 188.855165 198.525158 
L 189.181934 197.538149 
L 189.508693 196.949178 
L 189.835462 196.772264 
L 190.162222 197.012237 
L 190.488991 197.655014 
L 191.14251 199.947159 
L 192.122808 205.013245 
L 195.063681 221.735928 
L 195.390441 223.134562 
L 195.71721 222.660347 
L 196.370729 220.74528 
L 197.024257 219.633535 
L 197.351027 219.399241 
L 197.677786 219.387238 
L 198.004555 219.602063 
L 198.331315 220.046875 
L 198.984843 221.633579 
L 199.311603 222.776474 
L 199.638372 222.876451 
L 200.2919 219.442302 
L 201.272188 212.650455 
L 202.252476 204.088886 
L 203.886293 187.248675 
L 204.866591 178.010681 
L 205.19335 175.873621 
L 205.520119 174.55332 
L 205.846879 174.268403 
L 206.173638 175.252225 
L 206.500407 177.630467 
L 207.480696 188.980986 
L 208.787753 205.156351 
L 209.441281 214.808663 
L 209.768041 217.727643 
L 210.09481 218.927346 
L 210.748338 220.19169 
L 211.075098 220.213662 
L 211.728627 218.529214 
L 212.055386 219.114318 
L 212.708915 222.445152 
L 213.035684 223.5 
L 213.362443 223.175204 
L 213.689203 223.461434 
L 214.015972 222.712725 
L 214.6695 219.610676 
L 216.630076 207.919922 
L 217.283605 205.467652 
L 217.610374 204.683916 
L 217.937134 204.208078 
L 218.263893 204.040817 
L 218.590662 204.176344 
L 218.917422 204.603491 
L 219.57095 206.258326 
L 220.224479 208.796552 
L 222.511824 218.887854 
L 222.838593 219.63743 
L 223.165353 220.085542 
L 223.492112 220.214904 
L 223.818881 220.025905 
L 224.47241 219.177037 
L 224.799169 219.060084 
L 225.125938 219.820523 
L 225.779457 223.120771 
L 226.106226 221.017156 
L 226.432986 219.800906 
L 226.759755 219.446532 
L 227.413284 219.227263 
L 227.740043 219.673008 
L 228.393572 222.763379 
L 229.0471 216.146817 
L 230.027388 209.727335 
L 230.680917 205.196848 
L 231.334445 199.857757 
L 231.661205 197.990667 
L 231.987974 197.140838 
L 232.314734 197.215884 
L 232.641503 198.087892 
L 232.968262 199.682161 
L 233.621791 204.460001 
L 235.582367 220.441025 
L 235.909136 222.616037 
L 236.235895 222.42917 
L 236.889424 219.068793 
L 237.542953 216.546859 
L 238.196481 214.891613 
L 238.523241 214.394349 
L 238.84999 214.118648 
L 239.176759 214.064472 
L 239.503519 214.23085 
L 239.830278 214.616108 
L 240.483817 216.031709 
L 241.137335 218.278901 
L 241.790874 221.308305 
L 242.117633 223.09499 
L 242.444393 221.979339 
L 243.42469 215.270865 
L 246.038785 196.277377 
L 246.692324 193.614712 
L 247.019083 193.020655 
L 247.345843 192.993093 
L 247.672602 193.519081 
L 247.999381 194.562003 
L 248.6529 198.129241 
L 249.306438 203.405745 
L 251.267014 221.563166 
L 251.593774 222.823619 
L 252.247292 218.471605 
L 252.900831 215.855847 
L 253.22759 215.306146 
L 253.55435 215.23847 
L 253.881129 215.588063 
L 254.534647 217.188171 
L 255.841705 221.85045 
L 256.168464 223.015267 
L 256.495223 222.914029 
L 257.475521 220.222545 
L 258.12904 219.076654 
L 258.782578 218.536773 
L 259.109338 218.506738 
L 259.436097 218.639452 
L 259.762857 218.934799 
L 260.416395 220.004132 
L 261.069914 221.678103 
L 261.396693 222.722381 
L 261.723452 223.137177 
L 262.70373 219.038006 
L 264.664326 210.524981 
L 264.991085 209.633562 
L 265.317845 209.10554 
L 265.644604 209.022724 
L 265.971383 209.442605 
L 266.298143 210.387673 
L 266.951662 213.707409 
L 268.258719 223.085099 
L 270.219295 205.893885 
L 270.872833 202.03631 
L 271.199593 201.156988 
L 271.526352 201.380915 
L 271.853111 202.69685 
L 272.50665 207.434451 
L 274.140466 222.964314 
L 274.467226 220.988597 
L 275.774283 209.938414 
L 276.754581 203.361663 
L 277.734859 198.459644 
L 278.388397 196.163017 
L 279.041916 194.657751 
L 279.368676 194.203296 
L 279.695455 193.9475 
L 280.022214 193.889864 
L 280.348973 194.029414 
L 280.675733 194.364982 
L 281.329271 195.617929 
L 281.98279 197.63496 
L 282.636328 200.402862 
L 283.616607 205.943357 
L 284.596904 213.128777 
L 285.577202 221.764587 
L 285.903962 222.184478 
L 286.88424 213.334947 
L 287.537778 209.073091 
L 287.864538 207.761415 
L 288.191297 207.19906 
L 288.518076 207.739299 
L 289.171595 210.822226 
L 289.498354 211.723553 
L 289.825114 211.97059 
L 290.151893 212.072941 
L 290.478652 212.752767 
L 290.805411 214.478711 
L 291.132171 217.363677 
L 291.45895 221.515852 
L 291.785709 220.294381 
L 292.439228 211.594173 
L 292.765988 210.812242 
L 293.092766 212.39769 
L 293.746285 217.309765 
L 294.073045 218.819956 
L 294.399804 219.377509 
L 294.726583 219.058056 
L 295.380102 217.770779 
L 295.706861 217.51578 
L 296.03364 217.615787 
L 296.3604 218.054372 
L 297.013919 219.69525 
L 297.994216 222.832631 
L 298.320976 223.226462 
L 298.974495 221.676381 
L 299.628033 220.840274 
L 299.954792 220.736997 
L 300.281552 220.855344 
L 300.608331 221.196886 
L 301.26185 222.526573 
L 301.588609 223.488856 
L 302.242147 221.131988 
L 304.202723 213.175473 
L 304.529483 212.422674 
L 304.856242 211.980844 
L 305.183021 211.818657 
L 305.83654 211.817039 
L 306.163299 211.322709 
L 306.490059 210.032607 
L 307.143597 205.264426 
L 307.470357 202.748852 
L 307.797116 201.494036 
L 308.123895 202.717997 
L 308.450654 206.641616 
L 309.430933 223.197751 
L 309.757712 220.33051 
L 310.084471 218.907541 
L 310.41123 218.694477 
L 310.73799 219.196167 
L 311.064769 219.344954 
L 311.391528 218.476808 
L 311.718288 217.179415 
L 312.045047 216.599596 
L 312.371806 217.049785 
L 312.698585 218.469086 
L 313.352104 223.082843 
L 315.31268 203.909696 
L 316.292978 196.621441 
L 317.273276 191.077762 
L 318.253554 187.046097 
L 318.907092 185.150624 
L 319.560611 183.886524 
L 320.21415 183.257694 
L 320.540909 183.181877 
L 320.867669 183.264453 
L 321.194428 183.504265 
L 321.847966 184.447771 
L 322.501485 185.990335 
L 323.155023 188.100345 
L 324.135302 192.246115 
L 325.1156 197.473403 
L 326.095878 203.765263 
L 327.402935 213.789961 
L 328.383233 221.35837 
L 328.709992 223.365393 
L 329.363531 221.226405 
L 329.69029 221.061652 
L 330.017049 221.59323 
L 330.670588 223.343075 
L 331.650866 220.509771 
L 332.631164 217.757437 
L 333.284683 215.066117 
L 334.26498 210.682721 
L 334.918499 208.730418 
L 335.572038 207.623029 
L 336.225556 207.095382 
L 336.879095 207.034573 
L 337.532614 207.336858 
L 338.512911 208.164644 
L 339.819969 209.271067 
L 340.473487 209.621573 
L 341.127006 209.784733 
L 341.780545 209.763546 
L 342.760842 209.465714 
L 344.394659 208.823834 
L 345.048178 208.739154 
L 345.701697 208.848724 
L 346.355235 209.258686 
L 346.681995 209.656419 
L 347.335533 211.035829 
L 348.96935 215.846344 
L 349.622868 216.813231 
L 350.276407 217.701205 
L 350.929926 219.210851 
L 351.910223 222.505052 
L 352.236983 222.569748 
L 352.563742 221.775278 
L 352.890502 220.281848 
L 353.54404 215.78441 
L 355.177857 203.202381 
L 357.138433 191.235274 
L 358.44549 184.488212 
L 359.425788 180.818295 
L 360.079306 179.129475 
L 360.732825 178.042691 
L 361.386364 177.534851 
L 361.713123 177.488108 
L 362.039882 177.573207 
L 362.693421 178.117989 
L 363.34694 179.124609 
L 364.000478 180.546754 
L 364.980756 183.365943 
L 365.961054 186.925303 
L 366.941352 191.273957 
L 367.92163 196.817378 
L 369.555447 207.878854 
L 369.882226 208.959211 
L 370.208985 208.965469 
L 370.535745 208.277838 
L 371.189263 206.040393 
L 371.842802 203.210024 
L 372.169561 201.253726 
L 372.496321 198.582931 
L 372.82308 194.825425 
L 373.476618 183.325575 
L 374.130137 171.105405 
L 374.783676 163.3561 
L 375.110435 162.244545 
L 375.437194 163.02981 
L 377.39779 172.614037 
L 378.051309 174.29988 
L 380.011885 177.419642 
L 380.665423 178.45976 
L 381.318942 179.016018 
L 381.645701 179.04177 
L 381.97248 178.879249 
L 382.29924 178.523457 
L 382.952759 177.249117 
L 383.606297 175.334912 
L 386.220392 166.320478 
L 386.87393 162.879946 
L 388.507747 151.912969 
L 388.834506 151.574457 
L 389.161266 153.747751 
L 389.488045 157.857346 
L 390.141563 169.954528 
L 390.795082 182.29908 
L 391.448621 189.561109 
L 392.428899 197.033052 
L 392.755678 198.93925 
L 393.082437 200.185676 
L 393.409197 199.934532 
L 393.735956 198.354999 
L 394.716254 192.268905 
L 395.369773 189.343234 
L 396.350071 186.111427 
L 400.271242 174.872682 
L 401.578299 171.613364 
L 402.231818 170.237277 
L 402.231818 170.237277 
" clip-path="url(#p5beb8c05d5)" style="fill: none; stroke: #0077bb; stroke-width: 2; stroke-linecap: square"/>
   </g>
   <g id="line2d_14">
    <path d="M 75.468182 195.837816 
L 75.794945 195.532307 
L 76.121709 195.574904 
L 76.448473 195.963763 
L 76.775236 196.695975 
L 77.428764 199.175412 
L 78.082291 202.973884 
L 78.735818 208.038984 
L 79.716109 217.86575 
L 80.042873 221.696466 
L 80.369637 221.241227 
L 81.676691 202.540441 
L 83.310509 174.948352 
L 85.924619 125.748437 
L 88.211964 83.640038 
L 89.845783 57.52084 
L 91.152836 40.476708 
L 92.133128 30.482836 
L 93.113419 23.191428 
L 93.766946 19.939672 
L 94.420473 18.031584 
L 94.747238 17.59225 
L 95.074001 17.5 
L 95.400765 17.75678 
L 95.727528 18.363622 
L 96.054291 19.320619 
L 96.70782 22.281282 
L 97.361346 26.621847 
L 98.014875 32.311342 
L 98.995165 43.272898 
L 99.975456 56.957169 
L 101.28251 78.959384 
L 102.916329 111.348985 
L 105.203675 162.431037 
L 107.817784 222.391685 
L 108.144546 217.421052 
L 110.105129 177.074561 
L 111.412184 153.993691 
L 112.719239 134.856925 
L 113.699529 123.452999 
L 114.67982 114.784033 
L 115.333348 110.586272 
L 115.986874 107.678906 
L 116.640401 106.068989 
L 116.967165 105.749244 
L 117.293929 105.75065 
L 117.620694 106.070477 
L 117.947458 106.705175 
L 118.600982 108.901063 
L 119.25451 112.294498 
L 119.908039 116.829687 
L 120.888332 125.623164 
L 121.86862 136.560481 
L 123.175677 153.920713 
L 124.809494 178.851598 
L 127.423603 221.785868 
L 127.750367 219.930526 
L 129.710948 189.810044 
L 131.018001 172.305366 
L 132.325058 157.678067 
L 133.305346 148.948187 
L 134.285639 142.36091 
L 134.939167 139.234498 
L 135.592696 137.156043 
L 135.919455 136.515733 
L 136.24622 136.14289 
L 136.572984 136.037797 
L 136.899748 136.199726 
L 137.226513 136.627295 
L 137.553277 137.318254 
L 138.206801 139.477333 
L 138.860329 142.643519 
L 139.513858 146.771108 
L 140.494151 154.637518 
L 141.474439 164.300535 
L 142.781496 179.486934 
L 144.742077 205.603918 
L 146.049129 223.049158 
L 148.336474 192.119949 
L 149.970296 173.154399 
L 151.277348 161.002865 
L 152.257641 154.049332 
L 152.91117 150.550575 
L 153.564693 148.010819 
L 154.218222 146.458927 
L 154.544986 146.059401 
L 154.871751 145.912407 
L 155.198515 146.018391 
L 155.525274 146.376937 
L 155.852039 146.986931 
L 156.505567 148.953478 
L 157.159091 151.895315 
L 157.81262 155.779049 
L 158.792917 163.271567 
L 159.773205 172.590647 
L 161.080262 187.435861 
L 162.714079 208.880866 
L 163.694367 222.667051 
L 164.021136 219.697388 
L 166.962 179.191734 
L 168.269058 163.880044 
L 169.249346 154.261581 
L 170.229643 146.568087 
L 170.883172 142.614866 
L 171.536691 139.650459 
L 172.190219 137.694131 
L 172.516989 137.094649 
L 172.843748 136.745853 
L 173.170517 136.644744 
L 173.497277 136.787431 
L 173.824046 137.169063 
L 174.477565 138.625312 
L 175.131093 140.958801 
L 175.784622 144.105159 
L 176.76491 150.193394 
L 177.745208 157.699817 
L 179.052255 169.474805 
L 181.012841 189.730673 
L 183.953715 222.115141 
L 184.280474 221.406604 
L 186.24106 201.772707 
L 187.548117 190.638006 
L 188.528405 183.656681 
L 189.508693 178.030275 
L 190.488991 173.878223 
L 191.14251 171.968477 
L 191.796038 170.759803 
L 192.122808 170.419333 
L 192.449567 170.254298 
L 192.776336 170.263369 
L 193.103096 170.445325 
L 193.429865 170.797883 
L 194.083384 172.00409 
L 194.736912 173.855752 
L 195.390441 176.32018 
L 196.370729 181.077562 
L 197.351027 186.965126 
L 198.658074 196.247772 
L 200.61866 212.17391 
L 201.925717 223.261536 
L 202.579246 218.316997 
L 204.213062 205.584807 
L 205.520119 196.863427 
L 206.500407 191.438564 
L 207.480696 187.066148 
L 208.460984 183.750455 
L 209.441281 181.419626 
L 210.09481 180.349033 
L 210.748338 179.607702 
L 211.401857 179.142709 
L 212.055386 178.903237 
L 212.708915 178.844093 
L 213.689203 179.017494 
L 214.6695 179.442391 
L 215.649788 180.096565 
L 216.630076 181.001777 
L 217.610374 182.20809 
L 218.590662 183.778152 
L 219.57095 185.772677 
L 220.551248 188.239349 
L 221.531536 191.205778 
L 222.838593 195.942798 
L 224.145641 201.521762 
L 225.779457 209.505464 
L 228.393572 223.180454 
L 232.314734 201.386282 
L 233.94855 193.607364 
L 235.255607 188.468787 
L 236.235895 185.408412 
L 237.216193 183.122832 
L 237.869712 182.062084 
L 238.523241 181.388167 
L 239.176759 181.110641 
L 239.830278 181.234992 
L 240.483817 181.763295 
L 241.137335 182.694552 
L 241.790874 184.025724 
L 242.771152 186.760793 
L 243.75145 190.361731 
L 244.731748 194.800751 
L 246.038785 201.958457 
L 247.345843 210.413337 
L 248.979659 222.485564 
L 249.306438 221.974469 
L 254.207888 183.564707 
L 255.514945 175.56904 
L 256.495223 170.834047 
L 257.475521 167.374811 
L 258.12904 165.846573 
L 258.782578 164.978111 
L 259.109338 164.798909 
L 259.436097 164.792768 
L 259.762857 164.961435 
L 260.089636 165.306071 
L 260.743154 166.52545 
L 261.396693 168.450507 
L 262.050212 171.072522 
L 263.030509 176.273827 
L 264.010788 182.911775 
L 265.317845 193.755653 
L 266.951662 209.857565 
L 268.258719 222.969142 
L 272.17989 180.218935 
L 273.813707 165.159505 
L 275.120764 155.291685 
L 276.101042 149.430647 
L 277.08134 145.041256 
L 277.734859 142.984381 
L 278.388397 141.648782 
L 278.715157 141.256146 
L 279.041916 141.04842 
L 279.368676 141.026225 
L 279.695455 141.189584 
L 280.022214 141.538057 
L 280.675733 142.786282 
L 281.329271 144.757897 
L 281.98279 147.432043 
L 282.963088 152.697373 
L 283.943386 159.354142 
L 285.250423 170.117594 
L 286.88424 185.956116 
L 289.498354 214.318809 
L 290.151893 221.536817 
L 290.478652 221.913063 
L 292.765988 198.265518 
L 294.399804 183.898105 
L 295.706861 174.569375 
L 296.687159 169.059364 
L 297.667457 164.945217 
L 298.320976 163.0174 
L 298.974495 161.760053 
L 299.301274 161.385716 
L 299.628033 161.181798 
L 299.954792 161.148295 
L 300.281552 161.284818 
L 300.608331 161.590711 
L 301.26185 162.705114 
L 301.915368 164.477148 
L 302.568907 166.886135 
L 303.549205 171.633843 
L 304.529483 177.638963 
L 305.83654 187.357528 
L 307.470357 201.695439 
L 309.757712 222.791024 
L 313.025345 190.613701 
L 314.659161 176.770404 
L 315.966219 167.60608 
L 316.946497 162.095483 
L 317.926795 157.891799 
L 318.580314 155.862076 
L 319.233852 154.473532 
L 319.887371 153.738534 
L 320.21415 153.618112 
L 320.540909 153.662644 
L 320.867669 153.871764 
L 321.521187 154.78024 
L 322.174726 156.332571 
L 322.828245 158.511174 
L 323.808542 162.900623 
L 324.78884 168.541714 
L 326.095878 177.782228 
L 327.402935 188.645994 
L 329.363531 207.040562 
L 330.997347 223.267243 
L 331.977625 214.07557 
L 333.938221 195.843389 
L 335.245278 185.215347 
L 336.552316 176.341456 
L 337.532614 171.061477 
L 338.512911 167.091734 
L 339.16643 165.213704 
L 339.819969 163.967888 
L 340.473487 163.361438 
L 340.800247 163.298274 
L 341.127006 163.394468 
L 341.453785 163.648998 
L 342.107304 164.627077 
L 342.760842 166.216498 
L 343.414361 168.395335 
L 344.394659 172.707049 
L 345.374937 178.166552 
L 346.681995 186.987363 
L 348.315811 199.935247 
L 350.929926 223.021249 
L 351.256685 221.07214 
L 353.54404 201.343019 
L 355.177857 189.012972 
L 356.484914 180.787161 
L 357.465192 175.776605 
L 358.44549 171.869442 
L 359.099009 169.913026 
L 359.752547 168.491722 
L 360.406066 167.613129 
L 361.059604 167.278823 
L 361.386364 167.314717 
L 361.713123 167.484727 
L 362.366661 168.221166 
L 363.02018 169.472971 
L 363.673699 171.219815 
L 364.653997 174.7122 
L 365.634295 179.158098 
L 366.941352 186.355132 
L 368.575168 196.917265 
L 371.189263 215.715645 
L 372.169561 222.834822 
L 372.496321 221.85928 
L 374.456916 208.665397 
L 375.763954 201.018098 
L 377.071011 194.627027 
L 378.051309 190.7984 
L 379.031607 187.880528 
L 379.685125 186.467948 
L 380.338644 185.493525 
L 380.992183 184.962369 
L 381.645701 184.875111 
L 382.29924 185.227763 
L 382.952759 186.011745 
L 383.606297 187.214466 
L 384.259816 188.819162 
L 385.240114 191.934764 
L 386.220392 195.826689 
L 387.527449 202.057641 
L 389.161266 211.158623 
L 391.121861 223.273149 
L 391.77538 219.591176 
L 394.716254 201.47407 
L 396.350071 192.759208 
L 397.657128 186.962739 
L 398.637426 183.453485 
L 399.617704 180.747332 
L 400.271242 179.416865 
L 400.924761 178.478583 
L 401.578299 177.938927 
L 402.231818 177.799978 
L 402.231818 177.799978 
" clip-path="url(#p5beb8c05d5)" style="fill: none; stroke: #ee7733; stroke-width: 2; stroke-linecap: square"/>
   </g>
   <g id="patch_3">
    <path d="M 59.13 233.8 
L 59.13 7.2 
" style="fill: none; stroke: #000000; stroke-width: 0.8; stroke-linejoin: miter; stroke-linecap: square"/>
   </g>
   <g id="patch_4">
    <path d="M 418.57 233.8 
L 418.57 7.2 
" style="fill: none; stroke: #000000; stroke-width: 0.8; stroke-linejoin: miter; stroke-linecap: square"/>
   </g>
   <g id="patch_5">
    <path d="M 59.13 233.8 
L 418.57 233.8 
" style="fill: none; stroke: #000000; stroke-width: 0.8; stroke-linejoin: miter; stroke-linecap: square"/>
   </g>
   <g id="patch_6">
    <path d="M 59.13 7.2 
L 418.57 7.2 
" style="fill: none; stroke: #000000; stroke-width: 0.8; stroke-linejoin: miter; stroke-linecap: square"/>
   </g>
   <g id="legend_1">
    <g id="patch_7">
     <path d="M 301.518438 44.55625 
L 411.57 44.55625 
Q 413.57 44.55625 413.57 42.55625 
L 413.57 14.2 
Q 413.57 12.2 411.57 12.2 
L 301.518438 12.2 
Q 299.518438 12.2 299.518438 14.2 
L 299.518438 42.55625 
Q 299.518438 44.55625 301.518438 44.55625 
z
" style="fill: #ffffff; opacity: 0.8; stroke: #cccccc; stroke-linejoin: miter"/>
    </g>
    <g id="line2d_15">
     <path d="M 303.518438 20.298437 
L 313.518438 20.298437 
L 323.518438 20.298437 
" style="fill: none; stroke: #0077bb; stroke-width: 2; stroke-linecap: square"/>
    </g>
    <g id="text_15">
     <!-- Meng's MF-BNN -->
     <g transform="translate(331.518438 23.798437) scale(0.1 -0.1)">
      <defs>
       <path id="DejaVuSans-4d" d="M 628 4666 
L 1569 4666 
L 2759 1491 
L 3956 4666 
L 4897 4666 
L 4897 0 
L 4281 0 
L 4281 4097 
L 3078 897 
L 2444 897 
L 1241 4097 
L 1241 0 
L 628 0 
L 628 4666 
z
" transform="scale(0.015625)"/>
       <path id="DejaVuSans-6e" d="M 3513 2113 
L 3513 0 
L 2938 0 
L 2938 2094 
Q 2938 2591 2744 2837 
Q 2550 3084 2163 3084 
Q 1697 3084 1428 2787 
Q 1159 2491 1159 1978 
L 1159 0 
L 581 0 
L 581 3500 
L 1159 3500 
L 1159 2956 
Q 1366 3272 1645 3428 
Q 1925 3584 2291 3584 
Q 2894 3584 3203 3211 
Q 3513 2838 3513 2113 
z
" transform="scale(0.015625)"/>
       <path id="DejaVuSans-67" d="M 2906 1791 
Q 2906 2416 2648 2759 
Q 2391 3103 1925 3103 
Q 1463 3103 1205 2759 
Q 947 2416 947 1791 
Q 947 1169 1205 825 
Q 1463 481 1925 481 
Q 2391 481 2648 825 
Q 2906 1169 2906 1791 
z
M 3481 434 
Q 3481 -459 3084 -895 
Q 2688 -1331 1869 -1331 
Q 1566 -1331 1297 -1286 
Q 1028 -1241 775 -1147 
L 775 -588 
Q 1028 -725 1275 -790 
Q 1522 -856 1778 -856 
Q 2344 -856 2625 -561 
Q 2906 -266 2906 331 
L 2906 616 
Q 2728 306 2450 153 
Q 2172 0 1784 0 
Q 1141 0 747 490 
Q 353 981 353 1791 
Q 353 2603 747 3093 
Q 1141 3584 1784 3584 
Q 2172 3584 2450 3431 
Q 2728 3278 2906 2969 
L 2906 3500 
L 3481 3500 
L 3481 434 
z
" transform="scale(0.015625)"/>
       <path id="DejaVuSans-27" d="M 1147 4666 
L 1147 2931 
L 616 2931 
L 616 4666 
L 1147 4666 
z
" transform="scale(0.015625)"/>
       <path id="DejaVuSans-46" d="M 628 4666 
L 3309 4666 
L 3309 4134 
L 1259 4134 
L 1259 2759 
L 3109 2759 
L 3109 2228 
L 1259 2228 
L 1259 0 
L 628 0 
L 628 4666 
z
" transform="scale(0.015625)"/>
       <path id="DejaVuSans-2d" d="M 313 2009 
L 1997 2009 
L 1997 1497 
L 313 1497 
L 313 2009 
z
" transform="scale(0.015625)"/>
       <path id="DejaVuSans-42" d="M 1259 2228 
L 1259 519 
L 2272 519 
Q 2781 519 3026 730 
Q 3272 941 3272 1375 
Q 3272 1813 3026 2020 
Q 2781 2228 2272 2228 
L 1259 2228 
z
M 1259 4147 
L 1259 2741 
L 2194 2741 
Q 2656 2741 2882 2914 
Q 3109 3088 3109 3444 
Q 3109 3797 2882 3972 
Q 2656 4147 2194 4147 
L 1259 4147 
z
M 628 4666 
L 2241 4666 
Q 2963 4666 3353 4366 
Q 3744 4066 3744 3513 
Q 3744 3084 3544 2831 
Q 3344 2578 2956 2516 
Q 3422 2416 3680 2098 
Q 3938 1781 3938 1306 
Q 3938 681 3513 340 
Q 3088 0 2303 0 
L 628 0 
L 628 4666 
z
" transform="scale(0.015625)"/>
       <path id="DejaVuSans-4e" d="M 628 4666 
L 1478 4666 
L 3547 763 
L 3547 4666 
L 4159 4666 
L 4159 0 
L 3309 0 
L 1241 3903 
L 1241 0 
L 628 0 
L 628 4666 
z
" transform="scale(0.015625)"/>
      </defs>
      <use xlink:href="#DejaVuSans-4d"/>
      <use xlink:href="#DejaVuSans-65" x="86.279297"/>
      <use xlink:href="#DejaVuSans-6e" x="147.802734"/>
      <use xlink:href="#DejaVuSans-67" x="211.181641"/>
      <use xlink:href="#DejaVuSans-27" x="274.658203"/>
      <use xlink:href="#DejaVuSans-73" x="302.148438"/>
      <use xlink:href="#DejaVuSans-20" x="354.248047"/>
      <use xlink:href="#DejaVuSans-4d" x="386.035156"/>
      <use xlink:href="#DejaVuSans-46" x="472.314453"/>
      <use xlink:href="#DejaVuSans-2d" x="529.833984"/>
      <use xlink:href="#DejaVuSans-42" x="562.292969"/>
      <use xlink:href="#DejaVuSans-4e" x="630.896484"/>
      <use xlink:href="#DejaVuSans-4e" x="705.701172"/>
     </g>
    </g>
    <g id="line2d_16">
     <path d="M 303.518438 34.976562 
L 313.518438 34.976562 
L 323.518438 34.976562 
" style="fill: none; stroke: #ee7733; stroke-width: 2; stroke-linecap: square"/>
    </g>
    <g id="text_16">
     <!-- MF-DNN-BNN -->
     <g transform="translate(331.518438 38.476562) scale(0.1 -0.1)">
      <defs>
       <path id="DejaVuSans-44" d="M 1259 4147 
L 1259 519 
L 2022 519 
Q 2988 519 3436 956 
Q 3884 1394 3884 2338 
Q 3884 3275 3436 3711 
Q 2988 4147 2022 4147 
L 1259 4147 
z
M 628 4666 
L 1925 4666 
Q 3281 4666 3915 4102 
Q 4550 3538 4550 2338 
Q 4550 1131 3912 565 
Q 3275 0 1925 0 
L 628 0 
L 628 4666 
z
" transform="scale(0.015625)"/>
      </defs>
      <use xlink:href="#DejaVuSans-4d"/>
      <use xlink:href="#DejaVuSans-46" x="86.279297"/>
      <use xlink:href="#DejaVuSans-2d" x="143.798828"/>
      <use xlink:href="#DejaVuSans-44" x="179.882812"/>
      <use xlink:href="#DejaVuSans-4e" x="256.884766"/>
      <use xlink:href="#DejaVuSans-4e" x="331.689453"/>
      <use xlink:href="#DejaVuSans-2d" x="406.494141"/>
      <use xlink:href="#DejaVuSans-42" x="438.953125"/>
      <use xlink:href="#DejaVuSans-4e" x="507.556641"/>
      <use xlink:href="#DejaVuSans-4e" x="582.361328"/>
     </g>
    </g>
   </g>
  </g>
 </g>
 <defs>
  <clipPath id="p5beb8c05d5">
   <rect x="59.13" y="7.2" width="359.44" height="226.6"/>
  </clipPath>
 </defs>
</svg>
