<?xml version="1.0" encoding="utf-8" standalone="no"?>
<!DOCTYPE svg PUBLIC "-//W3C//DTD SVG 1.1//EN"
  "http://www.w3.org/Graphics/SVG/1.1/DTD/svg11.dtd">
<svg xmlns:xlink="http://www.w3.org/1999/xlink" width="423.6225pt" height="278.1075pt" viewBox="0 0 423.6225 278.1075" xmlns="http://www.w3.org/2000/svg" version="1.1">
 <metadata>
  <rdf:RDF xmlns:dc="http://purl.org/dc/elements/1.1/" xmlns:cc="http://creativecommons.org/ns#" xmlns:rdf="http://www.w3.org/1999/02/22-rdf-syntax-ns#">
   <cc:Work>
    <dc:type rdf:resource="http://purl.org/dc/dcmitype/StillImage"/>
    <dc:date>2024-02-11T18:20:22.075731</dc:date>
    <dc:format>image/svg+xml</dc:format>
    <dc:creator>
     <cc:Agent>
      <dc:title>Matplotlib v3.8.2, https://matplotlib.org/</dc:title>
     </cc:Agent>
    </dc:creator>
   </cc:Work>
  </rdf:RDF>
 </metadata>
 <defs>
  <style type="text/css">*{stroke-linejoin: round; stroke-linecap: butt}</style>
 </defs>
 <g id="figure_1">
  <g id="patch_1">
   <path d="M 0 278.1075 
L 423.6225 278.1075 
L 423.6225 0 
L 0 0 
z
" style="fill: #ffffff"/>
  </g>
  <g id="axes_1">
   <g id="patch_2">
    <path d="M 56.5325 236.68 
L 416.4225 236.68 
L 416.4225 7.2 
L 56.5325 7.2 
z
" style="fill: #ffffff"/>
   </g>
   <g id="matplotlib.axis_1">
    <g id="xtick_1">
     <g id="line2d_1">
      <defs>
       <path id="me3800072ee" d="M 0 0 
L 0 3.5 
" style="stroke: #000000; stroke-width: 0.8"/>
      </defs>
      <g>
       <use xlink:href="#me3800072ee" x="72.891136" y="236.68" style="stroke: #000000; stroke-width: 0.8"/>
      </g>
     </g>
     <g id="text_1">
      <!-- 0.0 -->
      <g transform="translate(63.349261 252.798125) scale(0.12 -0.12)">
       <defs>
        <path id="DejaVuSans-30" d="M 2034 4250 
Q 1547 4250 1301 3770 
Q 1056 3291 1056 2328 
Q 1056 1369 1301 889 
Q 1547 409 2034 409 
Q 2525 409 2770 889 
Q 3016 1369 3016 2328 
Q 3016 3291 2770 3770 
Q 2525 4250 2034 4250 
z
M 2034 4750 
Q 2819 4750 3233 4129 
Q 3647 3509 3647 2328 
Q 3647 1150 3233 529 
Q 2819 -91 2034 -91 
Q 1250 -91 836 529 
Q 422 1150 422 2328 
Q 422 3509 836 4129 
Q 1250 4750 2034 4750 
z
" transform="scale(0.015625)"/>
        <path id="DejaVuSans-2e" d="M 684 794 
L 1344 794 
L 1344 0 
L 684 0 
L 684 794 
z
" transform="scale(0.015625)"/>
       </defs>
       <use xlink:href="#DejaVuSans-30"/>
       <use xlink:href="#DejaVuSans-2e" x="63.623047"/>
       <use xlink:href="#DejaVuSans-30" x="95.410156"/>
      </g>
     </g>
    </g>
    <g id="xtick_2">
     <g id="line2d_2">
      <g>
       <use xlink:href="#me3800072ee" x="138.325682" y="236.68" style="stroke: #000000; stroke-width: 0.8"/>
      </g>
     </g>
     <g id="text_2">
      <!-- 0.2 -->
      <g transform="translate(128.783807 252.798125) scale(0.12 -0.12)">
       <defs>
        <path id="DejaVuSans-32" d="M 1228 531 
L 3431 531 
L 3431 0 
L 469 0 
L 469 531 
Q 828 903 1448 1529 
Q 2069 2156 2228 2338 
Q 2531 2678 2651 2914 
Q 2772 3150 2772 3378 
Q 2772 3750 2511 3984 
Q 2250 4219 1831 4219 
Q 1534 4219 1204 4116 
Q 875 4013 500 3803 
L 500 4441 
Q 881 4594 1212 4672 
Q 1544 4750 1819 4750 
Q 2544 4750 2975 4387 
Q 3406 4025 3406 3419 
Q 3406 3131 3298 2873 
Q 3191 2616 2906 2266 
Q 2828 2175 2409 1742 
Q 1991 1309 1228 531 
z
" transform="scale(0.015625)"/>
       </defs>
       <use xlink:href="#DejaVuSans-30"/>
       <use xlink:href="#DejaVuSans-2e" x="63.623047"/>
       <use xlink:href="#DejaVuSans-32" x="95.410156"/>
      </g>
     </g>
    </g>
    <g id="xtick_3">
     <g id="line2d_3">
      <g>
       <use xlink:href="#me3800072ee" x="203.760227" y="236.68" style="stroke: #000000; stroke-width: 0.8"/>
      </g>
     </g>
     <g id="text_3">
      <!-- 0.4 -->
      <g transform="translate(194.218352 252.798125) scale(0.12 -0.12)">
       <defs>
        <path id="DejaVuSans-34" d="M 2419 4116 
L 825 1625 
L 2419 1625 
L 2419 4116 
z
M 2253 4666 
L 3047 4666 
L 3047 1625 
L 3713 1625 
L 3713 1100 
L 3047 1100 
L 3047 0 
L 2419 0 
L 2419 1100 
L 313 1100 
L 313 1709 
L 2253 4666 
z
" transform="scale(0.015625)"/>
       </defs>
       <use xlink:href="#DejaVuSans-30"/>
       <use xlink:href="#DejaVuSans-2e" x="63.623047"/>
       <use xlink:href="#DejaVuSans-34" x="95.410156"/>
      </g>
     </g>
    </g>
    <g id="xtick_4">
     <g id="line2d_4">
      <g>
       <use xlink:href="#me3800072ee" x="269.194773" y="236.68" style="stroke: #000000; stroke-width: 0.8"/>
      </g>
     </g>
     <g id="text_4">
      <!-- 0.6 -->
      <g transform="translate(259.652898 252.798125) scale(0.12 -0.12)">
       <defs>
        <path id="DejaVuSans-36" d="M 2113 2584 
Q 1688 2584 1439 2293 
Q 1191 2003 1191 1497 
Q 1191 994 1439 701 
Q 1688 409 2113 409 
Q 2538 409 2786 701 
Q 3034 994 3034 1497 
Q 3034 2003 2786 2293 
Q 2538 2584 2113 2584 
z
M 3366 4563 
L 3366 3988 
Q 3128 4100 2886 4159 
Q 2644 4219 2406 4219 
Q 1781 4219 1451 3797 
Q 1122 3375 1075 2522 
Q 1259 2794 1537 2939 
Q 1816 3084 2150 3084 
Q 2853 3084 3261 2657 
Q 3669 2231 3669 1497 
Q 3669 778 3244 343 
Q 2819 -91 2113 -91 
Q 1303 -91 875 529 
Q 447 1150 447 2328 
Q 447 3434 972 4092 
Q 1497 4750 2381 4750 
Q 2619 4750 2861 4703 
Q 3103 4656 3366 4563 
z
" transform="scale(0.015625)"/>
       </defs>
       <use xlink:href="#DejaVuSans-30"/>
       <use xlink:href="#DejaVuSans-2e" x="63.623047"/>
       <use xlink:href="#DejaVuSans-36" x="95.410156"/>
      </g>
     </g>
    </g>
    <g id="xtick_5">
     <g id="line2d_5">
      <g>
       <use xlink:href="#me3800072ee" x="334.629318" y="236.68" style="stroke: #000000; stroke-width: 0.8"/>
      </g>
     </g>
     <g id="text_5">
      <!-- 0.8 -->
      <g transform="translate(325.087443 252.798125) scale(0.12 -0.12)">
       <defs>
        <path id="DejaVuSans-38" d="M 2034 2216 
Q 1584 2216 1326 1975 
Q 1069 1734 1069 1313 
Q 1069 891 1326 650 
Q 1584 409 2034 409 
Q 2484 409 2743 651 
Q 3003 894 3003 1313 
Q 3003 1734 2745 1975 
Q 2488 2216 2034 2216 
z
M 1403 2484 
Q 997 2584 770 2862 
Q 544 3141 544 3541 
Q 544 4100 942 4425 
Q 1341 4750 2034 4750 
Q 2731 4750 3128 4425 
Q 3525 4100 3525 3541 
Q 3525 3141 3298 2862 
Q 3072 2584 2669 2484 
Q 3125 2378 3379 2068 
Q 3634 1759 3634 1313 
Q 3634 634 3220 271 
Q 2806 -91 2034 -91 
Q 1263 -91 848 271 
Q 434 634 434 1313 
Q 434 1759 690 2068 
Q 947 2378 1403 2484 
z
M 1172 3481 
Q 1172 3119 1398 2916 
Q 1625 2713 2034 2713 
Q 2441 2713 2670 2916 
Q 2900 3119 2900 3481 
Q 2900 3844 2670 4047 
Q 2441 4250 2034 4250 
Q 1625 4250 1398 4047 
Q 1172 3844 1172 3481 
z
" transform="scale(0.015625)"/>
       </defs>
       <use xlink:href="#DejaVuSans-30"/>
       <use xlink:href="#DejaVuSans-2e" x="63.623047"/>
       <use xlink:href="#DejaVuSans-38" x="95.410156"/>
      </g>
     </g>
    </g>
    <g id="xtick_6">
     <g id="line2d_6">
      <g>
       <use xlink:href="#me3800072ee" x="400.063864" y="236.68" style="stroke: #000000; stroke-width: 0.8"/>
      </g>
     </g>
     <g id="text_6">
      <!-- 1.0 -->
      <g transform="translate(390.521989 252.798125) scale(0.12 -0.12)">
       <defs>
        <path id="DejaVuSans-31" d="M 794 531 
L 1825 531 
L 1825 4091 
L 703 3866 
L 703 4441 
L 1819 4666 
L 2450 4666 
L 2450 531 
L 3481 531 
L 3481 0 
L 794 0 
L 794 531 
z
" transform="scale(0.015625)"/>
       </defs>
       <use xlink:href="#DejaVuSans-31"/>
       <use xlink:href="#DejaVuSans-2e" x="63.623047"/>
       <use xlink:href="#DejaVuSans-30" x="95.410156"/>
      </g>
     </g>
    </g>
    <g id="text_7">
     <!-- x -->
     <g transform="translate(232.92625 268.411875) scale(0.12 -0.12)">
      <defs>
       <path id="DejaVuSans-78" d="M 3513 3500 
L 2247 1797 
L 3578 0 
L 2900 0 
L 1881 1375 
L 863 0 
L 184 0 
L 1544 1831 
L 300 3500 
L 978 3500 
L 1906 2253 
L 2834 3500 
L 3513 3500 
z
" transform="scale(0.015625)"/>
      </defs>
      <use xlink:href="#DejaVuSans-78"/>
     </g>
    </g>
   </g>
   <g id="matplotlib.axis_2">
    <g id="ytick_1">
     <g id="line2d_7">
      <defs>
       <path id="m1022c52e2c" d="M 0 0 
L -3.5 0 
" style="stroke: #000000; stroke-width: 0.8"/>
      </defs>
      <g>
       <use xlink:href="#m1022c52e2c" x="56.5325" y="226.264259" style="stroke: #000000; stroke-width: 0.8"/>
      </g>
     </g>
     <g id="text_8">
      <!-- 0.00 -->
      <g transform="translate(22.81375 230.823322) scale(0.12 -0.12)">
       <use xlink:href="#DejaVuSans-30"/>
       <use xlink:href="#DejaVuSans-2e" x="63.623047"/>
       <use xlink:href="#DejaVuSans-30" x="95.410156"/>
       <use xlink:href="#DejaVuSans-30" x="159.033203"/>
      </g>
     </g>
    </g>
    <g id="ytick_2">
     <g id="line2d_8">
      <g>
       <use xlink:href="#m1022c52e2c" x="56.5325" y="200.296862" style="stroke: #000000; stroke-width: 0.8"/>
      </g>
     </g>
     <g id="text_9">
      <!-- 0.05 -->
      <g transform="translate(22.81375 204.855924) scale(0.12 -0.12)">
       <defs>
        <path id="DejaVuSans-35" d="M 691 4666 
L 3169 4666 
L 3169 4134 
L 1269 4134 
L 1269 2991 
Q 1406 3038 1543 3061 
Q 1681 3084 1819 3084 
Q 2600 3084 3056 2656 
Q 3513 2228 3513 1497 
Q 3513 744 3044 326 
Q 2575 -91 1722 -91 
Q 1428 -91 1123 -41 
Q 819 9 494 109 
L 494 744 
Q 775 591 1075 516 
Q 1375 441 1709 441 
Q 2250 441 2565 725 
Q 2881 1009 2881 1497 
Q 2881 1984 2565 2268 
Q 2250 2553 1709 2553 
Q 1456 2553 1204 2497 
Q 953 2441 691 2322 
L 691 4666 
z
" transform="scale(0.015625)"/>
       </defs>
       <use xlink:href="#DejaVuSans-30"/>
       <use xlink:href="#DejaVuSans-2e" x="63.623047"/>
       <use xlink:href="#DejaVuSans-30" x="95.410156"/>
       <use xlink:href="#DejaVuSans-35" x="159.033203"/>
      </g>
     </g>
    </g>
    <g id="ytick_3">
     <g id="line2d_9">
      <g>
       <use xlink:href="#m1022c52e2c" x="56.5325" y="174.329464" style="stroke: #000000; stroke-width: 0.8"/>
      </g>
     </g>
     <g id="text_10">
      <!-- 0.10 -->
      <g transform="translate(22.81375 178.888527) scale(0.12 -0.12)">
       <use xlink:href="#DejaVuSans-30"/>
       <use xlink:href="#DejaVuSans-2e" x="63.623047"/>
       <use xlink:href="#DejaVuSans-31" x="95.410156"/>
       <use xlink:href="#DejaVuSans-30" x="159.033203"/>
      </g>
     </g>
    </g>
    <g id="ytick_4">
     <g id="line2d_10">
      <g>
       <use xlink:href="#m1022c52e2c" x="56.5325" y="148.362066" style="stroke: #000000; stroke-width: 0.8"/>
      </g>
     </g>
     <g id="text_11">
      <!-- 0.15 -->
      <g transform="translate(22.81375 152.921129) scale(0.12 -0.12)">
       <use xlink:href="#DejaVuSans-30"/>
       <use xlink:href="#DejaVuSans-2e" x="63.623047"/>
       <use xlink:href="#DejaVuSans-31" x="95.410156"/>
       <use xlink:href="#DejaVuSans-35" x="159.033203"/>
      </g>
     </g>
    </g>
    <g id="ytick_5">
     <g id="line2d_11">
      <g>
       <use xlink:href="#m1022c52e2c" x="56.5325" y="122.394669" style="stroke: #000000; stroke-width: 0.8"/>
      </g>
     </g>
     <g id="text_12">
      <!-- 0.20 -->
      <g transform="translate(22.81375 126.953731) scale(0.12 -0.12)">
       <use xlink:href="#DejaVuSans-30"/>
       <use xlink:href="#DejaVuSans-2e" x="63.623047"/>
       <use xlink:href="#DejaVuSans-32" x="95.410156"/>
       <use xlink:href="#DejaVuSans-30" x="159.033203"/>
      </g>
     </g>
    </g>
    <g id="ytick_6">
     <g id="line2d_12">
      <g>
       <use xlink:href="#m1022c52e2c" x="56.5325" y="96.427271" style="stroke: #000000; stroke-width: 0.8"/>
      </g>
     </g>
     <g id="text_13">
      <!-- 0.25 -->
      <g transform="translate(22.81375 100.986334) scale(0.12 -0.12)">
       <use xlink:href="#DejaVuSans-30"/>
       <use xlink:href="#DejaVuSans-2e" x="63.623047"/>
       <use xlink:href="#DejaVuSans-32" x="95.410156"/>
       <use xlink:href="#DejaVuSans-35" x="159.033203"/>
      </g>
     </g>
    </g>
    <g id="ytick_7">
     <g id="line2d_13">
      <g>
       <use xlink:href="#m1022c52e2c" x="56.5325" y="70.459874" style="stroke: #000000; stroke-width: 0.8"/>
      </g>
     </g>
     <g id="text_14">
      <!-- 0.30 -->
      <g transform="translate(22.81375 75.018936) scale(0.12 -0.12)">
       <defs>
        <path id="DejaVuSans-33" d="M 2597 2516 
Q 3050 2419 3304 2112 
Q 3559 1806 3559 1356 
Q 3559 666 3084 287 
Q 2609 -91 1734 -91 
Q 1441 -91 1130 -33 
Q 819 25 488 141 
L 488 750 
Q 750 597 1062 519 
Q 1375 441 1716 441 
Q 2309 441 2620 675 
Q 2931 909 2931 1356 
Q 2931 1769 2642 2001 
Q 2353 2234 1838 2234 
L 1294 2234 
L 1294 2753 
L 1863 2753 
Q 2328 2753 2575 2939 
Q 2822 3125 2822 3475 
Q 2822 3834 2567 4026 
Q 2313 4219 1838 4219 
Q 1578 4219 1281 4162 
Q 984 4106 628 3988 
L 628 4550 
Q 988 4650 1302 4700 
Q 1616 4750 1894 4750 
Q 2613 4750 3031 4423 
Q 3450 4097 3450 3541 
Q 3450 3153 3228 2886 
Q 3006 2619 2597 2516 
z
" transform="scale(0.015625)"/>
       </defs>
       <use xlink:href="#DejaVuSans-30"/>
       <use xlink:href="#DejaVuSans-2e" x="63.623047"/>
       <use xlink:href="#DejaVuSans-33" x="95.410156"/>
       <use xlink:href="#DejaVuSans-30" x="159.033203"/>
      </g>
     </g>
    </g>
    <g id="ytick_8">
     <g id="line2d_14">
      <g>
       <use xlink:href="#m1022c52e2c" x="56.5325" y="44.492476" style="stroke: #000000; stroke-width: 0.8"/>
      </g>
     </g>
     <g id="text_15">
      <!-- 0.35 -->
      <g transform="translate(22.81375 49.051539) scale(0.12 -0.12)">
       <use xlink:href="#DejaVuSans-30"/>
       <use xlink:href="#DejaVuSans-2e" x="63.623047"/>
       <use xlink:href="#DejaVuSans-33" x="95.410156"/>
       <use xlink:href="#DejaVuSans-35" x="159.033203"/>
      </g>
     </g>
    </g>
    <g id="ytick_9">
     <g id="line2d_15">
      <g>
       <use xlink:href="#m1022c52e2c" x="56.5325" y="18.525079" style="stroke: #000000; stroke-width: 0.8"/>
      </g>
     </g>
     <g id="text_16">
      <!-- 0.40 -->
      <g transform="translate(22.81375 23.084141) scale(0.12 -0.12)">
       <use xlink:href="#DejaVuSans-30"/>
       <use xlink:href="#DejaVuSans-2e" x="63.623047"/>
       <use xlink:href="#DejaVuSans-34" x="95.410156"/>
       <use xlink:href="#DejaVuSans-30" x="159.033203"/>
      </g>
     </g>
    </g>
    <g id="text_17">
     <!-- Absolute error -->
     <g transform="translate(16.318125 164.593437) rotate(-90) scale(0.12 -0.12)">
      <defs>
       <path id="DejaVuSans-41" d="M 2188 4044 
L 1331 1722 
L 3047 1722 
L 2188 4044 
z
M 1831 4666 
L 2547 4666 
L 4325 0 
L 3669 0 
L 3244 1197 
L 1141 1197 
L 716 0 
L 50 0 
L 1831 4666 
z
" transform="scale(0.015625)"/>
       <path id="DejaVuSans-62" d="M 3116 1747 
Q 3116 2381 2855 2742 
Q 2594 3103 2138 3103 
Q 1681 3103 1420 2742 
Q 1159 2381 1159 1747 
Q 1159 1113 1420 752 
Q 1681 391 2138 391 
Q 2594 391 2855 752 
Q 3116 1113 3116 1747 
z
M 1159 2969 
Q 1341 3281 1617 3432 
Q 1894 3584 2278 3584 
Q 2916 3584 3314 3078 
Q 3713 2572 3713 1747 
Q 3713 922 3314 415 
Q 2916 -91 2278 -91 
Q 1894 -91 1617 61 
Q 1341 213 1159 525 
L 1159 0 
L 581 0 
L 581 4863 
L 1159 4863 
L 1159 2969 
z
" transform="scale(0.015625)"/>
       <path id="DejaVuSans-73" d="M 2834 3397 
L 2834 2853 
Q 2591 2978 2328 3040 
Q 2066 3103 1784 3103 
Q 1356 3103 1142 2972 
Q 928 2841 928 2578 
Q 928 2378 1081 2264 
Q 1234 2150 1697 2047 
L 1894 2003 
Q 2506 1872 2764 1633 
Q 3022 1394 3022 966 
Q 3022 478 2636 193 
Q 2250 -91 1575 -91 
Q 1294 -91 989 -36 
Q 684 19 347 128 
L 347 722 
Q 666 556 975 473 
Q 1284 391 1588 391 
Q 1994 391 2212 530 
Q 2431 669 2431 922 
Q 2431 1156 2273 1281 
Q 2116 1406 1581 1522 
L 1381 1569 
Q 847 1681 609 1914 
Q 372 2147 372 2553 
Q 372 3047 722 3315 
Q 1072 3584 1716 3584 
Q 2034 3584 2315 3537 
Q 2597 3491 2834 3397 
z
" transform="scale(0.015625)"/>
       <path id="DejaVuSans-6f" d="M 1959 3097 
Q 1497 3097 1228 2736 
Q 959 2375 959 1747 
Q 959 1119 1226 758 
Q 1494 397 1959 397 
Q 2419 397 2687 759 
Q 2956 1122 2956 1747 
Q 2956 2369 2687 2733 
Q 2419 3097 1959 3097 
z
M 1959 3584 
Q 2709 3584 3137 3096 
Q 3566 2609 3566 1747 
Q 3566 888 3137 398 
Q 2709 -91 1959 -91 
Q 1206 -91 779 398 
Q 353 888 353 1747 
Q 353 2609 779 3096 
Q 1206 3584 1959 3584 
z
" transform="scale(0.015625)"/>
       <path id="DejaVuSans-6c" d="M 603 4863 
L 1178 4863 
L 1178 0 
L 603 0 
L 603 4863 
z
" transform="scale(0.015625)"/>
       <path id="DejaVuSans-75" d="M 544 1381 
L 544 3500 
L 1119 3500 
L 1119 1403 
Q 1119 906 1312 657 
Q 1506 409 1894 409 
Q 2359 409 2629 706 
Q 2900 1003 2900 1516 
L 2900 3500 
L 3475 3500 
L 3475 0 
L 2900 0 
L 2900 538 
Q 2691 219 2414 64 
Q 2138 -91 1772 -91 
Q 1169 -91 856 284 
Q 544 659 544 1381 
z
M 1991 3584 
L 1991 3584 
z
" transform="scale(0.015625)"/>
       <path id="DejaVuSans-74" d="M 1172 4494 
L 1172 3500 
L 2356 3500 
L 2356 3053 
L 1172 3053 
L 1172 1153 
Q 1172 725 1289 603 
Q 1406 481 1766 481 
L 2356 481 
L 2356 0 
L 1766 0 
Q 1100 0 847 248 
Q 594 497 594 1153 
L 594 3053 
L 172 3053 
L 172 3500 
L 594 3500 
L 594 4494 
L 1172 4494 
z
" transform="scale(0.015625)"/>
       <path id="DejaVuSans-65" d="M 3597 1894 
L 3597 1613 
L 953 1613 
Q 991 1019 1311 708 
Q 1631 397 2203 397 
Q 2534 397 2845 478 
Q 3156 559 3463 722 
L 3463 178 
Q 3153 47 2828 -22 
Q 2503 -91 2169 -91 
Q 1331 -91 842 396 
Q 353 884 353 1716 
Q 353 2575 817 3079 
Q 1281 3584 2069 3584 
Q 2775 3584 3186 3129 
Q 3597 2675 3597 1894 
z
M 3022 2063 
Q 3016 2534 2758 2815 
Q 2500 3097 2075 3097 
Q 1594 3097 1305 2825 
Q 1016 2553 972 2059 
L 3022 2063 
z
" transform="scale(0.015625)"/>
       <path id="DejaVuSans-20" transform="scale(0.015625)"/>
       <path id="DejaVuSans-72" d="M 2631 2963 
Q 2534 3019 2420 3045 
Q 2306 3072 2169 3072 
Q 1681 3072 1420 2755 
Q 1159 2438 1159 1844 
L 1159 0 
L 581 0 
L 581 3500 
L 1159 3500 
L 1159 2956 
Q 1341 3275 1631 3429 
Q 1922 3584 2338 3584 
Q 2397 3584 2469 3576 
Q 2541 3569 2628 3553 
L 2631 2963 
z
" transform="scale(0.015625)"/>
      </defs>
      <use xlink:href="#DejaVuSans-41"/>
      <use xlink:href="#DejaVuSans-62" x="68.408203"/>
      <use xlink:href="#DejaVuSans-73" x="131.884766"/>
      <use xlink:href="#DejaVuSans-6f" x="183.984375"/>
      <use xlink:href="#DejaVuSans-6c" x="245.166016"/>
      <use xlink:href="#DejaVuSans-75" x="272.949219"/>
      <use xlink:href="#DejaVuSans-74" x="336.328125"/>
      <use xlink:href="#DejaVuSans-65" x="375.537109"/>
      <use xlink:href="#DejaVuSans-20" x="437.060547"/>
      <use xlink:href="#DejaVuSans-65" x="468.847656"/>
      <use xlink:href="#DejaVuSans-72" x="530.371094"/>
      <use xlink:href="#DejaVuSans-72" x="569.734375"/>
      <use xlink:href="#DejaVuSans-6f" x="608.597656"/>
      <use xlink:href="#DejaVuSans-72" x="669.779297"/>
     </g>
    </g>
   </g>
   <g id="line2d_16">
    <path d="M 72.891136 211.226393 
L 73.218309 223.006164 
L 73.545482 226.091548 
L 73.872655 221.973789 
L 74.854173 198.857889 
L 75.181346 194.259463 
L 75.508518 191.777725 
L 75.835691 190.782323 
L 76.162864 190.555004 
L 76.490037 190.508788 
L 76.817209 190.25835 
L 77.144382 189.629797 
L 77.798727 187.28349 
L 79.761764 178.149088 
L 80.088937 177.506667 
L 80.41611 177.557729 
L 80.743282 178.401917 
L 81.070455 180.043274 
L 81.7248 185.612177 
L 82.379146 194.124009 
L 83.360664 211.002585 
L 84.01501 223.024358 
L 84.342182 223.886656 
L 84.996527 214.265176 
L 85.650873 207.333795 
L 86.305219 203.222 
L 86.632392 202.17855 
L 86.959564 201.76678 
L 87.286738 201.945765 
L 87.61391 202.668886 
L 88.268255 205.513144 
L 88.922601 209.770151 
L 90.885637 224.779817 
L 91.21281 225.713003 
L 91.867155 222.599741 
L 92.194329 221.611083 
L 92.521501 221.047196 
L 92.848674 220.933032 
L 93.175846 221.285245 
L 93.503019 222.11312 
L 93.830192 223.418639 
L 94.157365 225.194993 
L 94.484536 225.099835 
L 95.138883 219.355847 
L 96.120401 208.114401 
L 98.737783 175.260037 
L 99.392127 170.258921 
L 99.719301 168.762467 
L 100.046474 168.041203 
L 100.373648 168.158432 
L 100.700818 169.165725 
L 101.027992 171.100726 
L 101.682339 177.819566 
L 102.336683 188.230506 
L 103.318201 209.136213 
L 103.972548 224.15535 
L 104.299718 221.347961 
L 104.954065 209.327239 
L 105.60841 200.704834 
L 106.262756 195.50263 
L 106.58993 194.082173 
L 106.917101 193.445727 
L 107.244274 193.580492 
L 107.571447 194.382674 
L 108.225792 197.192548 
L 109.207312 201.533444 
L 109.534483 202.471963 
L 109.861656 203.001217 
L 110.18883 203.04938 
L 110.516001 202.559141 
L 110.843174 201.493783 
L 111.497521 197.716126 
L 112.151865 193.053558 
L 112.479039 191.659951 
L 112.806212 192.009188 
L 113.133383 194.859128 
L 113.787727 205.770369 
L 114.114901 208.460186 
L 114.442074 204.211622 
L 114.769247 190.779618 
L 115.423594 143.334627 
L 116.077936 96.360345 
L 116.732283 68.548827 
L 117.059456 61.364616 
L 117.38663 57.399907 
L 117.713803 55.733941 
L 118.040976 55.836806 
L 118.36815 57.96952 
L 118.695318 63.184741 
L 119.022492 72.57941 
L 119.676839 103.188296 
L 121.312701 191.620943 
L 121.967047 220.331953 
L 122.294221 220.020803 
L 122.948568 200.814835 
L 123.602909 189.062219 
L 123.930083 185.972298 
L 124.257256 184.631273 
L 124.58443 184.915631 
L 124.911603 186.685143 
L 125.238776 189.797197 
L 125.893118 199.497026 
L 126.547465 212.976837 
L 126.874639 220.829517 
L 127.201812 223.262654 
L 129.164847 166.883094 
L 130.473541 131.633514 
L 131.455056 110.323156 
L 132.109403 99.423459 
L 132.76375 91.525831 
L 133.418092 86.824179 
L 133.745265 85.707426 
L 134.072438 85.422016 
L 134.399612 85.967515 
L 134.726785 87.338908 
L 135.053959 89.525608 
L 135.708301 96.277447 
L 136.362647 106.034079 
L 137.344167 125.663674 
L 138.652856 158.899658 
L 140.943065 222.193976 
L 141.270238 222.356028 
L 142.251759 202.534106 
L 142.906105 194.028604 
L 143.233274 191.593083 
L 143.560447 190.552946 
L 143.887621 191.037772 
L 144.214794 193.165099 
L 144.541967 197.031571 
L 145.196314 210.226436 
L 145.523488 219.612763 
L 145.850656 221.658801 
L 146.505003 193.411118 
L 147.15935 156.57745 
L 148.140865 82.976234 
L 148.795212 36.838565 
L 149.122385 23.299613 
L 149.449559 17.630909 
L 149.776732 18.288312 
L 150.103905 22.907314 
L 150.758247 38.323812 
L 151.085421 49.44238 
L 151.739767 84.48414 
L 153.048456 182.074697 
L 153.375629 195.001812 
L 153.702803 200.166413 
L 154.029976 199.692539 
L 154.35715 197.255368 
L 154.684318 196.259478 
L 155.011496 198.165256 
L 155.665843 208.099682 
L 156.647359 223.52438 
L 156.974527 225.4854 
L 157.628874 220.937738 
L 157.956052 219.681689 
L 158.283221 218.943836 
L 158.610399 218.624054 
L 158.937567 218.646183 
L 159.264736 218.952992 
L 159.919083 220.236478 
L 162.209292 226.192752 
L 163.845163 222.25177 
L 164.172332 221.811334 
L 164.4995 221.583408 
L 164.826679 221.578672 
L 165.153847 221.787932 
L 165.808194 222.701399 
L 166.789709 224.341115 
L 167.116888 224.65909 
L 167.444056 224.752142 
L 167.771234 224.572786 
L 168.098403 224.090437 
L 168.425581 223.292991 
L 169.079918 220.775438 
L 169.734265 217.181684 
L 170.71579 210.435262 
L 172.678821 196.495049 
L 173.660346 191.443104 
L 174.314683 189.296955 
L 174.641861 188.635311 
L 174.969029 188.257901 
L 175.296208 188.165468 
L 175.623376 188.355597 
L 175.950554 188.819064 
L 176.604891 190.512766 
L 177.259238 193.087772 
L 178.240763 198.070997 
L 179.876625 206.543283 
L 180.530972 208.854393 
L 180.858141 209.599803 
L 181.185319 210.033645 
L 181.512487 210.144064 
L 181.839656 209.936909 
L 182.166834 209.436079 
L 182.821181 207.763582 
L 184.129865 203.949332 
L 184.457043 203.38396 
L 184.784212 203.094711 
L 185.11139 203.104864 
L 185.438558 203.41329 
L 185.765737 203.997189 
L 186.420074 205.810627 
L 187.728767 210.621383 
L 188.710283 215.0538 
L 190.018976 221.536116 
L 190.673323 223.985969 
L 191.32767 225.77806 
L 191.654838 226.058382 
L 191.982016 225.538259 
L 192.309185 225.286141 
L 192.636363 225.45151 
L 192.963532 226.21153 
L 193.29071 224.789742 
L 193.617878 222.377907 
L 194.272225 215.239351 
L 194.926572 208.473934 
L 195.253741 207.169336 
L 195.580919 207.40572 
L 195.908087 207.877051 
L 196.235256 206.507947 
L 196.562434 201.47058 
L 196.889603 191.941368 
L 197.543949 161.167926 
L 199.50699 46.054079 
L 199.834158 33.837177 
L 200.161337 26.086944 
L 200.488505 23.649442 
L 200.815683 27.232578 
L 201.142852 37.146371 
L 201.797199 74.10897 
L 203.433061 189.520656 
L 204.087407 218.348089 
L 204.414576 223.551315 
L 205.068923 207.880718 
L 205.72327 197.764041 
L 206.377616 191.866978 
L 206.704785 190.374549 
L 207.031963 189.863783 
L 207.359132 190.343872 
L 207.68631 191.799 
L 208.013478 194.184156 
L 208.667825 201.456605 
L 209.322172 211.45014 
L 209.976519 223.346884 
L 210.303687 222.785567 
L 212.593896 178.817573 
L 213.575411 164.505801 
L 214.229758 157.417011 
L 214.884105 152.50387 
L 215.211283 150.896472 
L 215.538452 149.865188 
L 215.86562 149.413763 
L 216.192799 149.542197 
L 216.519967 150.247984 
L 216.847145 151.525891 
L 217.501492 155.760424 
L 218.155839 162.138444 
L 218.810176 170.487218 
L 219.791701 186.097947 
L 222.08191 225.306154 
L 222.736257 216.28224 
L 223.390594 210.337938 
L 223.717772 208.764251 
L 224.04494 208.18984 
L 224.372119 208.609194 
L 224.699287 209.970836 
L 225.026465 212.200224 
L 225.680802 219.113589 
L 226.007981 223.909238 
L 226.335149 222.729398 
L 226.989496 206.65576 
L 227.643843 182.26791 
L 228.29819 146.694 
L 229.279705 85.310715 
L 229.934052 58.212861 
L 230.26123 50.679348 
L 230.588398 46.460401 
L 230.915567 45.172898 
L 231.242745 46.99214 
L 231.569914 52.430937 
L 231.897092 61.788444 
L 232.551439 90.669508 
L 234.187301 176.586692 
L 234.841648 198.612641 
L 235.495985 211.302642 
L 236.47749 224.955226 
L 236.804669 222.650229 
L 237.459006 214.192076 
L 237.786174 211.338387 
L 238.113362 209.469074 
L 238.440531 208.422343 
L 238.767699 207.983161 
L 239.094868 207.956657 
L 239.422056 208.212182 
L 239.749224 208.70618 
L 240.076393 209.462128 
L 240.73073 211.927931 
L 241.385086 215.653552 
L 242.69378 225.128686 
L 243.020948 224.995825 
L 244.002473 218.630419 
L 244.65681 215.457367 
L 245.311147 213.181902 
L 245.965504 211.711947 
L 246.292672 211.307156 
L 246.619841 211.170147 
L 246.947029 211.341796 
L 247.274198 211.85459 
L 247.601366 212.721531 
L 248.255703 215.490335 
L 248.91006 219.468959 
L 249.564397 224.329166 
L 249.891565 225.58559 
L 251.200259 215.645143 
L 251.854615 211.862747 
L 252.508952 209.193078 
L 253.163309 207.569831 
L 253.817646 206.759229 
L 254.472002 206.434753 
L 255.453508 206.099628 
L 256.107864 205.532708 
L 256.762201 204.428121 
L 257.416538 202.660497 
L 258.070895 200.198045 
L 259.05242 195.37353 
L 261.342619 183.017343 
L 261.996976 180.824669 
L 262.324144 180.195126 
L 262.651313 179.927887 
L 262.978481 180.050099 
L 263.30565 180.57591 
L 263.632838 181.505103 
L 264.287175 184.486618 
L 265.2687 190.972796 
L 266.904562 202.492517 
L 267.558899 206.126884 
L 268.213255 208.829242 
L 268.867593 210.644104 
L 269.52193 211.693373 
L 269.849118 211.886807 
L 270.176286 211.798978 
L 270.503455 211.390698 
L 270.830623 210.648113 
L 271.48498 208.222676 
L 272.466485 202.894808 
L 273.44801 197.311847 
L 274.102367 194.754903 
L 274.429535 194.215185 
L 274.756704 194.344113 
L 275.083872 195.192297 
L 275.411041 196.715747 
L 276.065397 201.725251 
L 276.719734 210.688963 
L 277.374091 224.597225 
L 277.701259 219.927338 
L 278.355596 202.498126 
L 279.009953 178.595304 
L 280.318647 122.208021 
L 280.645815 115.148228 
L 280.972984 112.549572 
L 281.300152 114.07387 
L 281.62734 118.948193 
L 283.263202 152.885521 
L 283.917539 163.161006 
L 284.571876 179.979041 
L 285.553401 218.767761 
L 285.88057 220.994835 
L 286.534926 201.739013 
L 286.862095 195.887686 
L 287.189263 192.383084 
L 287.516432 190.871711 
L 287.84362 190.94653 
L 288.170788 192.209594 
L 288.825125 196.86876 
L 290.133819 207.447154 
L 292.424038 223.277668 
L 292.751206 226.001725 
L 293.405543 220.84354 
L 295.041405 207.415951 
L 296.02293 201.404847 
L 296.677267 198.645779 
L 297.331624 196.976037 
L 297.658792 196.551481 
L 297.985961 196.392896 
L 298.313149 196.489261 
L 298.640317 196.825159 
L 299.294654 198.131917 
L 299.949011 200.110936 
L 303.220735 212.01155 
L 303.875072 214.913137 
L 304.529429 219.286073 
L 305.183766 225.588685 
L 305.510934 223.16793 
L 306.819628 207.910094 
L 307.146796 205.382651 
L 307.473984 204.044953 
L 307.801153 204.257989 
L 308.128321 206.329659 
L 308.45549 210.43161 
L 309.109846 224.270536 
L 309.437015 219.448157 
L 310.41854 194.370338 
L 311.072877 183.848825 
L 312.708739 165.366926 
L 313.363096 152.987256 
L 314.344601 132.858998 
L 314.67177 128.068379 
L 314.998958 125.675569 
L 315.326126 126.624349 
L 315.653295 131.449553 
L 315.980463 140.02917 
L 316.961988 178.620487 
L 317.616325 202.234948 
L 318.270682 218.980666 
L 318.59785 225.842084 
L 319.252187 212.825999 
L 320.233712 192.001704 
L 320.888069 183.054142 
L 321.215237 180.80957 
L 321.542406 179.743701 
L 321.869574 179.559585 
L 322.196743 180.040147 
L 322.523931 181.051558 
L 323.178268 184.330989 
L 324.159793 191.196713 
L 325.141299 198.106928 
L 325.795655 201.480905 
L 326.449992 203.499733 
L 326.777161 204.05431 
L 327.104349 204.341152 
L 327.431517 204.373454 
L 327.758686 204.169751 
L 328.413042 203.18668 
L 329.394548 200.906912 
L 330.376073 198.520347 
L 331.03041 197.440958 
L 331.357578 197.185451 
L 331.684766 197.150905 
L 332.011935 197.343495 
L 332.339103 197.755946 
L 332.99346 199.169702 
L 333.647797 201.20763 
L 334.956491 206.290655 
L 336.265184 211.317341 
L 337.24669 214.217814 
L 337.901046 215.527698 
L 338.555383 216.283106 
L 338.882552 216.453331 
L 339.20974 216.491437 
L 339.864077 216.209246 
L 340.518433 215.539771 
L 342.808632 212.499348 
L 343.462969 212.208799 
L 343.790158 212.267305 
L 344.117326 212.482059 
L 344.444495 212.865134 
L 345.098851 214.155423 
L 345.753188 216.085424 
L 347.38905 221.381006 
L 347.716219 222.010858 
L 348.043407 222.384244 
L 348.370575 222.472963 
L 348.697744 222.245687 
L 349.024912 221.671338 
L 349.352081 220.720197 
L 350.006437 217.590514 
L 350.660774 212.689415 
L 351.315131 205.936523 
L 353.932498 174.319054 
L 354.586855 169.931067 
L 354.914024 168.763833 
L 355.241192 168.347036 
L 355.56838 168.700595 
L 355.895549 169.826104 
L 356.222717 171.726759 
L 356.877054 177.9754 
L 357.531411 187.751639 
L 359.494441 222.151114 
L 359.82161 224.814215 
L 360.475966 210.053999 
L 361.457472 178.571697 
L 362.438997 147.690583 
L 363.093353 136.054384 
L 363.420522 133.800534 
L 363.74769 133.887666 
L 364.074859 136.052937 
L 364.729215 144.96884 
L 365.710721 164.197642 
L 367.346583 199.683703 
L 368.328108 223.504463 
L 369.309633 194.547512 
L 369.96397 183.612804 
L 370.291139 181.542637 
L 370.618307 181.547094 
L 370.945495 183.249897 
L 371.599832 189.859248 
L 372.581357 201.238183 
L 373.235694 206.716263 
L 373.890051 209.967199 
L 374.217219 210.894658 
L 374.544388 211.470153 
L 374.871556 211.780018 
L 375.525913 211.909753 
L 377.161775 211.726341 
L 377.816112 211.975812 
L 378.470469 212.488993 
L 379.451974 213.696847 
L 381.087836 216.358406 
L 382.069361 217.737831 
L 382.723718 218.18178 
L 383.050886 218.161087 
L 383.378055 217.927001 
L 383.705223 217.437996 
L 384.032392 216.651895 
L 384.686748 214.029248 
L 385.341085 209.799637 
L 385.995442 203.928096 
L 387.631304 186.918331 
L 387.958473 184.685492 
L 388.285641 183.397849 
L 388.61281 183.250129 
L 388.939998 184.386105 
L 389.267166 186.880844 
L 389.921503 195.886254 
L 390.57586 209.420122 
L 391.230197 225.668968 
L 393.520415 176.159056 
L 394.829109 154.826194 
L 395.483446 147.223503 
L 395.810614 145.466257 
L 396.137783 145.617095 
L 396.464971 147.924158 
L 396.792139 152.530963 
L 397.446477 168.750596 
L 398.428002 206.014504 
L 398.75517 218.736716 
L 399.082339 222.300775 
L 399.736695 203.8834 
L 400.063864 196.891311 
L 400.063864 196.891311 
" clip-path="url(#p7192b73d2a)" style="fill: none; stroke: #0077bb; stroke-width: 2; stroke-linecap: square"/>
   </g>
   <g id="line2d_17">
    <path d="M 72.891136 225.133968 
L 75.181346 183.758713 
L 76.817209 157.286417 
L 78.1259 139.305816 
L 79.107419 128.568001 
L 79.761764 123.067463 
L 80.41611 119.103001 
L 81.070455 116.831731 
L 81.397627 116.372706 
L 81.7248 116.380197 
L 82.051973 116.864869 
L 82.379146 117.832601 
L 83.033491 121.223441 
L 83.687836 126.53207 
L 84.342182 133.676209 
L 85.323701 147.516126 
L 86.632392 170.635278 
L 89.249773 223.817347 
L 89.576946 222.232732 
L 90.885637 198.426614 
L 91.867155 183.672084 
L 92.848674 172.269793 
L 93.503019 166.693337 
L 94.157365 162.757153 
L 94.81171 160.409484 
L 95.138883 159.799288 
L 95.466056 159.541057 
L 95.793227 159.610892 
L 96.120401 159.985207 
L 96.774748 161.534099 
L 97.429092 163.945103 
L 98.41061 168.596112 
L 100.373648 178.351475 
L 101.355165 181.960304 
L 102.00951 183.572376 
L 102.663856 184.497019 
L 102.99103 184.709529 
L 103.318201 184.768809 
L 103.645374 184.687674 
L 104.299718 184.184027 
L 105.60841 182.510199 
L 106.262756 181.817506 
L 106.58993 181.61854 
L 106.917101 181.5596 
L 107.244274 181.669477 
L 107.571447 181.976912 
L 107.898621 182.505354 
L 108.552965 184.307695 
L 109.207312 187.199415 
L 109.861656 191.232567 
L 110.843174 199.346149 
L 111.824692 209.545516 
L 113.133383 225.048618 
L 113.460556 223.511661 
L 115.096421 205.189077 
L 116.077936 196.848798 
L 116.732283 192.966589 
L 117.38663 190.661627 
L 117.713803 190.143443 
L 118.040976 190.063732 
L 118.36815 190.4278 
L 118.695318 191.237064 
L 119.349665 194.179435 
L 120.004012 198.821963 
L 120.658359 205.037373 
L 121.639874 216.903935 
L 122.294221 226.170077 
L 123.602909 205.797688 
L 126.220292 164.72964 
L 127.201812 152.103398 
L 128.183332 142.050211 
L 128.837674 136.972665 
L 129.492021 133.25608 
L 130.146368 130.89832 
L 130.473541 130.213707 
L 130.800709 129.844902 
L 131.127883 129.779276 
L 131.455056 129.998318 
L 131.78223 130.485992 
L 132.436576 132.181737 
L 133.090923 134.688455 
L 134.072438 139.543833 
L 138.98003 166.144804 
L 142.251759 181.109151 
L 143.560447 188.34467 
L 147.813696 213.232282 
L 148.468038 215.534485 
L 149.122385 216.940246 
L 149.449559 217.26425 
L 149.776732 217.318825 
L 150.103905 217.094258 
L 150.431079 216.584339 
L 151.085421 214.70565 
L 151.739767 211.716228 
L 152.394114 207.717891 
L 153.375629 200.224237 
L 156.32019 176.132235 
L 156.974527 172.648304 
L 157.628874 170.519009 
L 157.956052 170.027245 
L 158.283221 169.94052 
L 158.610399 170.267855 
L 158.937567 171.012015 
L 159.591914 173.720595 
L 160.246261 177.943148 
L 161.227776 186.588856 
L 162.863638 204.208089 
L 164.172332 217.511701 
L 165.153847 225.068911 
L 165.481025 225.588159 
L 166.135372 222.948301 
L 166.462541 222.206234 
L 166.789709 221.856003 
L 167.116888 221.899155 
L 167.444056 222.32823 
L 167.771234 223.135334 
L 168.425581 225.819056 
L 168.75275 224.870702 
L 169.407096 220.317977 
L 170.388612 211.721249 
L 172.024474 194.721173 
L 173.987514 174.51599 
L 174.969029 166.071006 
L 175.950554 159.370677 
L 176.604891 156.023206 
L 177.259238 153.632076 
L 177.913585 152.221679 
L 178.240763 151.883892 
L 178.567932 151.789044 
L 178.8951 151.934721 
L 179.222279 152.315319 
L 179.876625 153.761129 
L 180.530972 156.076419 
L 181.185319 159.199834 
L 182.166834 165.25737 
L 183.14835 172.754464 
L 184.457043 184.599327 
L 186.092905 201.692192 
L 188.055945 224.417126 
L 188.383114 224.187606 
L 191.654838 185.722557 
L 192.963532 172.554743 
L 193.945047 164.459456 
L 194.926572 158.410219 
L 195.580919 155.730088 
L 196.235256 154.26247 
L 196.562434 154.012444 
L 196.889603 154.097118 
L 197.216781 154.524268 
L 197.543949 155.298738 
L 198.198296 157.901467 
L 198.852643 161.908247 
L 199.50699 167.289509 
L 200.488505 177.793649 
L 201.47002 190.900043 
L 202.778714 211.578296 
L 203.433061 222.892287 
L 203.760229 223.820272 
L 207.359132 160.74207 
L 208.667825 141.997958 
L 209.64934 130.610928 
L 210.630866 121.872734 
L 211.285203 117.613002 
L 211.939549 114.633933 
L 212.593896 112.932337 
L 212.921074 112.551429 
L 213.248243 112.478869 
L 213.575411 112.705124 
L 213.90259 113.22335 
L 214.556936 115.099721 
L 215.211283 118.022854 
L 215.86562 121.894774 
L 216.847145 129.251268 
L 218.155839 141.361141 
L 219.791701 158.957359 
L 225.680802 225.953311 
L 226.335149 219.818865 
L 228.29819 201.195588 
L 229.606883 190.495864 
L 230.915567 181.544146 
L 231.897092 176.183012 
L 232.878607 172.129828 
L 233.532954 170.206257 
L 234.187301 168.931679 
L 234.841648 168.317637 
L 235.168816 168.258581 
L 235.495985 168.36341 
L 235.823163 168.630667 
L 236.47749 169.640452 
L 237.131837 171.257566 
L 237.786174 173.440667 
L 238.767699 177.659585 
L 240.076393 184.702192 
L 242.039423 197.061428 
L 244.65681 213.572963 
L 245.965504 220.603619 
L 246.947029 225.013562 
L 247.274198 226.230285 
L 248.255703 222.963686 
L 249.237228 220.594502 
L 249.891565 219.507467 
L 250.545922 218.797285 
L 251.200259 218.442039 
L 251.854615 218.413622 
L 252.508952 218.675568 
L 253.163309 219.191597 
L 254.144814 220.348375 
L 255.453508 222.378285 
L 257.743726 226.198633 
L 259.379589 223.72383 
L 260.688282 222.156086 
L 261.996976 220.930865 
L 265.595868 217.840604 
L 266.577393 216.627673 
L 267.886067 214.605935 
L 270.176286 210.394896 
L 271.48498 208.256278 
L 272.139317 207.469071 
L 272.793673 206.958687 
L 273.44801 206.781443 
L 274.102367 206.981029 
L 274.756704 207.585922 
L 275.411041 208.603312 
L 276.065397 210.02113 
L 277.046903 212.815381 
L 278.355596 217.449746 
L 280.645815 225.999957 
L 280.972984 225.464735 
L 281.954509 222.767149 
L 282.608846 221.46844 
L 283.263202 220.629204 
L 283.917539 220.273579 
L 284.244708 220.276628 
L 284.899064 220.634567 
L 285.553401 221.421929 
L 286.207758 222.574977 
L 287.189263 224.799566 
L 287.516432 225.621405 
L 287.84362 226.066825 
L 289.479482 222.114281 
L 290.460988 220.425826 
L 291.115344 219.773345 
L 291.769681 219.570648 
L 292.09685 219.650234 
L 292.751206 220.176541 
L 293.405543 221.186218 
L 294.0599 222.644472 
L 295.368593 225.882763 
L 298.640317 214.394539 
L 299.294654 212.800421 
L 299.949011 211.701747 
L 300.603348 211.184139 
L 300.930517 211.163863 
L 301.257705 211.311181 
L 301.584873 211.631416 
L 302.23921 212.798626 
L 302.893567 214.668712 
L 303.547904 217.22335 
L 304.529429 222.232825 
L 305.183766 226.249091 
L 306.492459 217.073402 
L 309.764183 193.234362 
L 310.745708 187.731781 
L 311.400045 184.864144 
L 312.054402 182.738914 
L 312.708739 181.420761 
L 313.035908 181.076964 
L 313.363096 180.947671 
L 313.690264 181.033685 
L 314.017433 181.333636 
L 314.344601 181.844763 
L 314.998958 183.482008 
L 315.653295 185.892675 
L 316.63482 190.782556 
L 317.616325 196.88705 
L 319.579375 211.049816 
L 321.542406 224.958384 
L 321.869574 225.479822 
L 323.178268 218.080231 
L 324.159793 213.638674 
L 325.141299 210.140055 
L 326.122824 207.48502 
L 327.104349 205.51429 
L 328.085854 204.053203 
L 329.067379 202.942533 
L 330.376073 201.809189 
L 331.684766 200.981252 
L 332.666272 200.601628 
L 333.320629 200.510201 
L 333.974966 200.589231 
L 334.629322 200.878077 
L 335.283659 201.415929 
L 335.938016 202.239069 
L 336.592353 203.379254 
L 337.24669 204.860818 
L 338.228215 207.753955 
L 339.20974 211.450016 
L 340.518433 217.518976 
L 342.154295 226.052399 
L 345.42602 207.544231 
L 346.734713 201.688834 
L 347.716219 198.438919 
L 348.370575 196.922205 
L 349.024912 195.971808 
L 349.352081 195.719009 
L 349.679269 195.615061 
L 350.006437 195.662902 
L 350.333606 195.861993 
L 350.987943 196.708496 
L 351.642299 198.135779 
L 352.296636 200.111625 
L 353.278161 204.009173 
L 354.259686 208.854769 
L 355.56838 216.411005 
L 356.877054 224.707788 
L 357.204242 225.693769 
L 360.148798 207.089502 
L 361.78466 198.064095 
L 363.093353 191.862551 
L 364.402027 186.678526 
L 365.383553 183.503504 
L 366.365078 180.977411 
L 367.346583 179.137297 
L 368.00094 178.320079 
L 368.655277 177.851234 
L 369.309633 177.751 
L 369.96397 178.042756 
L 370.618307 178.751158 
L 371.272664 179.900863 
L 371.927001 181.515906 
L 372.581357 183.619924 
L 373.562863 187.737678 
L 374.544388 193.057776 
L 375.525913 199.610741 
L 376.834607 210.263382 
L 378.470469 226.038547 
L 380.106331 207.056619 
L 382.39653 177.513834 
L 385.341085 139.577451 
L 386.649779 124.890064 
L 387.958473 112.763336 
L 388.939998 105.865 
L 389.594335 102.502855 
L 390.248672 100.242241 
L 390.57586 99.55338 
L 390.903028 99.172038 
L 391.230197 99.109013 
L 391.557365 99.372824 
L 391.884553 99.973098 
L 392.211722 100.918334 
L 392.866059 103.872371 
L 393.520415 108.290282 
L 394.174752 114.217016 
L 395.156277 126.007737 
L 396.137783 141.33715 
L 397.119308 160.218461 
L 398.428002 190.835737 
L 399.736695 225.10096 
L 400.063864 215.065799 
L 400.063864 215.065799 
" clip-path="url(#p7192b73d2a)" style="fill: none; stroke: #ee7733; stroke-width: 2; stroke-linecap: square"/>
   </g>
   <g id="patch_3">
    <path d="M 56.5325 236.68 
L 56.5325 7.2 
" style="fill: none; stroke: #000000; stroke-width: 0.8; stroke-linejoin: miter; stroke-linecap: square"/>
   </g>
   <g id="patch_4">
    <path d="M 416.4225 236.68 
L 416.4225 7.2 
" style="fill: none; stroke: #000000; stroke-width: 0.8; stroke-linejoin: miter; stroke-linecap: square"/>
   </g>
   <g id="patch_5">
    <path d="M 56.5325 236.68 
L 416.4225 236.68 
" style="fill: none; stroke: #000000; stroke-width: 0.8; stroke-linejoin: miter; stroke-linecap: square"/>
   </g>
   <g id="patch_6">
    <path d="M 56.5325 7.2 
L 416.4225 7.2 
" style="fill: none; stroke: #000000; stroke-width: 0.8; stroke-linejoin: miter; stroke-linecap: square"/>
   </g>
   <g id="legend_1">
    <g id="patch_7">
     <path d="M 299.370937 44.55625 
L 409.4225 44.55625 
Q 411.4225 44.55625 411.4225 42.55625 
L 411.4225 14.2 
Q 411.4225 12.2 409.4225 12.2 
L 299.370937 12.2 
Q 297.370937 12.2 297.370937 14.2 
L 297.370937 42.55625 
Q 297.370937 44.55625 299.370937 44.55625 
z
" style="fill: #ffffff; opacity: 0.8; stroke: #cccccc; stroke-linejoin: miter"/>
    </g>
    <g id="line2d_18">
     <path d="M 301.370937 20.298437 
L 311.370937 20.298437 
L 321.370937 20.298437 
" style="fill: none; stroke: #0077bb; stroke-width: 2; stroke-linecap: square"/>
    </g>
    <g id="text_18">
     <!-- Meng's MF-BNN -->
     <g transform="translate(329.370937 23.798437) scale(0.1 -0.1)">
      <defs>
       <path id="DejaVuSans-4d" d="M 628 4666 
L 1569 4666 
L 2759 1491 
L 3956 4666 
L 4897 4666 
L 4897 0 
L 4281 0 
L 4281 4097 
L 3078 897 
L 2444 897 
L 1241 4097 
L 1241 0 
L 628 0 
L 628 4666 
z
" transform="scale(0.015625)"/>
       <path id="DejaVuSans-6e" d="M 3513 2113 
L 3513 0 
L 2938 0 
L 2938 2094 
Q 2938 2591 2744 2837 
Q 2550 3084 2163 3084 
Q 1697 3084 1428 2787 
Q 1159 2491 1159 1978 
L 1159 0 
L 581 0 
L 581 3500 
L 1159 3500 
L 1159 2956 
Q 1366 3272 1645 3428 
Q 1925 3584 2291 3584 
Q 2894 3584 3203 3211 
Q 3513 2838 3513 2113 
z
" transform="scale(0.015625)"/>
       <path id="DejaVuSans-67" d="M 2906 1791 
Q 2906 2416 2648 2759 
Q 2391 3103 1925 3103 
Q 1463 3103 1205 2759 
Q 947 2416 947 1791 
Q 947 1169 1205 825 
Q 1463 481 1925 481 
Q 2391 481 2648 825 
Q 2906 1169 2906 1791 
z
M 3481 434 
Q 3481 -459 3084 -895 
Q 2688 -1331 1869 -1331 
Q 1566 -1331 1297 -1286 
Q 1028 -1241 775 -1147 
L 775 -588 
Q 1028 -725 1275 -790 
Q 1522 -856 1778 -856 
Q 2344 -856 2625 -561 
Q 2906 -266 2906 331 
L 2906 616 
Q 2728 306 2450 153 
Q 2172 0 1784 0 
Q 1141 0 747 490 
Q 353 981 353 1791 
Q 353 2603 747 3093 
Q 1141 3584 1784 3584 
Q 2172 3584 2450 3431 
Q 2728 3278 2906 2969 
L 2906 3500 
L 3481 3500 
L 3481 434 
z
" transform="scale(0.015625)"/>
       <path id="DejaVuSans-27" d="M 1147 4666 
L 1147 2931 
L 616 2931 
L 616 4666 
L 1147 4666 
z
" transform="scale(0.015625)"/>
       <path id="DejaVuSans-46" d="M 628 4666 
L 3309 4666 
L 3309 4134 
L 1259 4134 
L 1259 2759 
L 3109 2759 
L 3109 2228 
L 1259 2228 
L 1259 0 
L 628 0 
L 628 4666 
z
" transform="scale(0.015625)"/>
       <path id="DejaVuSans-2d" d="M 313 2009 
L 1997 2009 
L 1997 1497 
L 313 1497 
L 313 2009 
z
" transform="scale(0.015625)"/>
       <path id="DejaVuSans-42" d="M 1259 2228 
L 1259 519 
L 2272 519 
Q 2781 519 3026 730 
Q 3272 941 3272 1375 
Q 3272 1813 3026 2020 
Q 2781 2228 2272 2228 
L 1259 2228 
z
M 1259 4147 
L 1259 2741 
L 2194 2741 
Q 2656 2741 2882 2914 
Q 3109 3088 3109 3444 
Q 3109 3797 2882 3972 
Q 2656 4147 2194 4147 
L 1259 4147 
z
M 628 4666 
L 2241 4666 
Q 2963 4666 3353 4366 
Q 3744 4066 3744 3513 
Q 3744 3084 3544 2831 
Q 3344 2578 2956 2516 
Q 3422 2416 3680 2098 
Q 3938 1781 3938 1306 
Q 3938 681 3513 340 
Q 3088 0 2303 0 
L 628 0 
L 628 4666 
z
" transform="scale(0.015625)"/>
       <path id="DejaVuSans-4e" d="M 628 4666 
L 1478 4666 
L 3547 763 
L 3547 4666 
L 4159 4666 
L 4159 0 
L 3309 0 
L 1241 3903 
L 1241 0 
L 628 0 
L 628 4666 
z
" transform="scale(0.015625)"/>
      </defs>
      <use xlink:href="#DejaVuSans-4d"/>
      <use xlink:href="#DejaVuSans-65" x="86.279297"/>
      <use xlink:href="#DejaVuSans-6e" x="147.802734"/>
      <use xlink:href="#DejaVuSans-67" x="211.181641"/>
      <use xlink:href="#DejaVuSans-27" x="274.658203"/>
      <use xlink:href="#DejaVuSans-73" x="302.148438"/>
      <use xlink:href="#DejaVuSans-20" x="354.248047"/>
      <use xlink:href="#DejaVuSans-4d" x="386.035156"/>
      <use xlink:href="#DejaVuSans-46" x="472.314453"/>
      <use xlink:href="#DejaVuSans-2d" x="529.833984"/>
      <use xlink:href="#DejaVuSans-42" x="562.292969"/>
      <use xlink:href="#DejaVuSans-4e" x="630.896484"/>
      <use xlink:href="#DejaVuSans-4e" x="705.701172"/>
     </g>
    </g>
    <g id="line2d_19">
     <path d="M 301.370937 34.976562 
L 311.370937 34.976562 
L 321.370937 34.976562 
" style="fill: none; stroke: #ee7733; stroke-width: 2; stroke-linecap: square"/>
    </g>
    <g id="text_19">
     <!-- MF-DNN-BNN -->
     <g transform="translate(329.370937 38.476562) scale(0.1 -0.1)">
      <defs>
       <path id="DejaVuSans-44" d="M 1259 4147 
L 1259 519 
L 2022 519 
Q 2988 519 3436 956 
Q 3884 1394 3884 2338 
Q 3884 3275 3436 3711 
Q 2988 4147 2022 4147 
L 1259 4147 
z
M 628 4666 
L 1925 4666 
Q 3281 4666 3915 4102 
Q 4550 3538 4550 2338 
Q 4550 1131 3912 565 
Q 3275 0 1925 0 
L 628 0 
L 628 4666 
z
" transform="scale(0.015625)"/>
      </defs>
      <use xlink:href="#DejaVuSans-4d"/>
      <use xlink:href="#DejaVuSans-46" x="86.279297"/>
      <use xlink:href="#DejaVuSans-2d" x="143.798828"/>
      <use xlink:href="#DejaVuSans-44" x="179.882812"/>
      <use xlink:href="#DejaVuSans-4e" x="256.884766"/>
      <use xlink:href="#DejaVuSans-4e" x="331.689453"/>
      <use xlink:href="#DejaVuSans-2d" x="406.494141"/>
      <use xlink:href="#DejaVuSans-42" x="438.953125"/>
      <use xlink:href="#DejaVuSans-4e" x="507.556641"/>
      <use xlink:href="#DejaVuSans-4e" x="582.361328"/>
     </g>
    </g>
   </g>
  </g>
 </g>
 <defs>
  <clipPath id="p7192b73d2a">
   <rect x="56.5325" y="7.2" width="359.89" height="229.48"/>
  </clipPath>
 </defs>
</svg>
