<?xml version="1.0" encoding="utf-8" standalone="no"?>
<!DOCTYPE svg PUBLIC "-//W3C//DTD SVG 1.1//EN"
  "http://www.w3.org/Graphics/SVG/1.1/DTD/svg11.dtd">
<svg xmlns:xlink="http://www.w3.org/1999/xlink" width="423.6225pt" height="278.1075pt" viewBox="0 0 423.6225 278.1075" xmlns="http://www.w3.org/2000/svg" version="1.1">
 <metadata>
  <rdf:RDF xmlns:dc="http://purl.org/dc/elements/1.1/" xmlns:cc="http://creativecommons.org/ns#" xmlns:rdf="http://www.w3.org/1999/02/22-rdf-syntax-ns#">
   <cc:Work>
    <dc:type rdf:resource="http://purl.org/dc/dcmitype/StillImage"/>
    <dc:date>2024-02-12T21:21:01.695213</dc:date>
    <dc:format>image/svg+xml</dc:format>
    <dc:creator>
     <cc:Agent>
      <dc:title>Matplotlib v3.8.2, https://matplotlib.org/</dc:title>
     </cc:Agent>
    </dc:creator>
   </cc:Work>
  </rdf:RDF>
 </metadata>
 <defs>
  <style type="text/css">*{stroke-linejoin: round; stroke-linecap: butt}</style>
 </defs>
 <g id="figure_1">
  <g id="patch_1">
   <path d="M 0 278.1075 
L 423.6225 278.1075 
L 423.6225 0 
L 0 0 
z
" style="fill: #ffffff"/>
  </g>
  <g id="axes_1">
   <g id="patch_2">
    <path d="M 56.5325 236.68 
L 416.4225 236.68 
L 416.4225 7.2 
L 56.5325 7.2 
z
" style="fill: #ffffff"/>
   </g>
   <g id="matplotlib.axis_1">
    <g id="xtick_1">
     <g id="line2d_1">
      <defs>
       <path id="ma01fc2742d" d="M 0 0 
L 0 3.5 
" style="stroke: #000000; stroke-width: 0.8"/>
      </defs>
      <g>
       <use xlink:href="#ma01fc2742d" x="72.891136" y="236.68" style="stroke: #000000; stroke-width: 0.8"/>
      </g>
     </g>
     <g id="text_1">
      <!-- 0.0 -->
      <g transform="translate(63.349261 252.798125) scale(0.12 -0.12)">
       <defs>
        <path id="DejaVuSans-30" d="M 2034 4250 
Q 1547 4250 1301 3770 
Q 1056 3291 1056 2328 
Q 1056 1369 1301 889 
Q 1547 409 2034 409 
Q 2525 409 2770 889 
Q 3016 1369 3016 2328 
Q 3016 3291 2770 3770 
Q 2525 4250 2034 4250 
z
M 2034 4750 
Q 2819 4750 3233 4129 
Q 3647 3509 3647 2328 
Q 3647 1150 3233 529 
Q 2819 -91 2034 -91 
Q 1250 -91 836 529 
Q 422 1150 422 2328 
Q 422 3509 836 4129 
Q 1250 4750 2034 4750 
z
" transform="scale(0.015625)"/>
        <path id="DejaVuSans-2e" d="M 684 794 
L 1344 794 
L 1344 0 
L 684 0 
L 684 794 
z
" transform="scale(0.015625)"/>
       </defs>
       <use xlink:href="#DejaVuSans-30"/>
       <use xlink:href="#DejaVuSans-2e" x="63.623047"/>
       <use xlink:href="#DejaVuSans-30" x="95.410156"/>
      </g>
     </g>
    </g>
    <g id="xtick_2">
     <g id="line2d_2">
      <g>
       <use xlink:href="#ma01fc2742d" x="138.325682" y="236.68" style="stroke: #000000; stroke-width: 0.8"/>
      </g>
     </g>
     <g id="text_2">
      <!-- 0.2 -->
      <g transform="translate(128.783807 252.798125) scale(0.12 -0.12)">
       <defs>
        <path id="DejaVuSans-32" d="M 1228 531 
L 3431 531 
L 3431 0 
L 469 0 
L 469 531 
Q 828 903 1448 1529 
Q 2069 2156 2228 2338 
Q 2531 2678 2651 2914 
Q 2772 3150 2772 3378 
Q 2772 3750 2511 3984 
Q 2250 4219 1831 4219 
Q 1534 4219 1204 4116 
Q 875 4013 500 3803 
L 500 4441 
Q 881 4594 1212 4672 
Q 1544 4750 1819 4750 
Q 2544 4750 2975 4387 
Q 3406 4025 3406 3419 
Q 3406 3131 3298 2873 
Q 3191 2616 2906 2266 
Q 2828 2175 2409 1742 
Q 1991 1309 1228 531 
z
" transform="scale(0.015625)"/>
       </defs>
       <use xlink:href="#DejaVuSans-30"/>
       <use xlink:href="#DejaVuSans-2e" x="63.623047"/>
       <use xlink:href="#DejaVuSans-32" x="95.410156"/>
      </g>
     </g>
    </g>
    <g id="xtick_3">
     <g id="line2d_3">
      <g>
       <use xlink:href="#ma01fc2742d" x="203.760227" y="236.68" style="stroke: #000000; stroke-width: 0.8"/>
      </g>
     </g>
     <g id="text_3">
      <!-- 0.4 -->
      <g transform="translate(194.218352 252.798125) scale(0.12 -0.12)">
       <defs>
        <path id="DejaVuSans-34" d="M 2419 4116 
L 825 1625 
L 2419 1625 
L 2419 4116 
z
M 2253 4666 
L 3047 4666 
L 3047 1625 
L 3713 1625 
L 3713 1100 
L 3047 1100 
L 3047 0 
L 2419 0 
L 2419 1100 
L 313 1100 
L 313 1709 
L 2253 4666 
z
" transform="scale(0.015625)"/>
       </defs>
       <use xlink:href="#DejaVuSans-30"/>
       <use xlink:href="#DejaVuSans-2e" x="63.623047"/>
       <use xlink:href="#DejaVuSans-34" x="95.410156"/>
      </g>
     </g>
    </g>
    <g id="xtick_4">
     <g id="line2d_4">
      <g>
       <use xlink:href="#ma01fc2742d" x="269.194773" y="236.68" style="stroke: #000000; stroke-width: 0.8"/>
      </g>
     </g>
     <g id="text_4">
      <!-- 0.6 -->
      <g transform="translate(259.652898 252.798125) scale(0.12 -0.12)">
       <defs>
        <path id="DejaVuSans-36" d="M 2113 2584 
Q 1688 2584 1439 2293 
Q 1191 2003 1191 1497 
Q 1191 994 1439 701 
Q 1688 409 2113 409 
Q 2538 409 2786 701 
Q 3034 994 3034 1497 
Q 3034 2003 2786 2293 
Q 2538 2584 2113 2584 
z
M 3366 4563 
L 3366 3988 
Q 3128 4100 2886 4159 
Q 2644 4219 2406 4219 
Q 1781 4219 1451 3797 
Q 1122 3375 1075 2522 
Q 1259 2794 1537 2939 
Q 1816 3084 2150 3084 
Q 2853 3084 3261 2657 
Q 3669 2231 3669 1497 
Q 3669 778 3244 343 
Q 2819 -91 2113 -91 
Q 1303 -91 875 529 
Q 447 1150 447 2328 
Q 447 3434 972 4092 
Q 1497 4750 2381 4750 
Q 2619 4750 2861 4703 
Q 3103 4656 3366 4563 
z
" transform="scale(0.015625)"/>
       </defs>
       <use xlink:href="#DejaVuSans-30"/>
       <use xlink:href="#DejaVuSans-2e" x="63.623047"/>
       <use xlink:href="#DejaVuSans-36" x="95.410156"/>
      </g>
     </g>
    </g>
    <g id="xtick_5">
     <g id="line2d_5">
      <g>
       <use xlink:href="#ma01fc2742d" x="334.629318" y="236.68" style="stroke: #000000; stroke-width: 0.8"/>
      </g>
     </g>
     <g id="text_5">
      <!-- 0.8 -->
      <g transform="translate(325.087443 252.798125) scale(0.12 -0.12)">
       <defs>
        <path id="DejaVuSans-38" d="M 2034 2216 
Q 1584 2216 1326 1975 
Q 1069 1734 1069 1313 
Q 1069 891 1326 650 
Q 1584 409 2034 409 
Q 2484 409 2743 651 
Q 3003 894 3003 1313 
Q 3003 1734 2745 1975 
Q 2488 2216 2034 2216 
z
M 1403 2484 
Q 997 2584 770 2862 
Q 544 3141 544 3541 
Q 544 4100 942 4425 
Q 1341 4750 2034 4750 
Q 2731 4750 3128 4425 
Q 3525 4100 3525 3541 
Q 3525 3141 3298 2862 
Q 3072 2584 2669 2484 
Q 3125 2378 3379 2068 
Q 3634 1759 3634 1313 
Q 3634 634 3220 271 
Q 2806 -91 2034 -91 
Q 1263 -91 848 271 
Q 434 634 434 1313 
Q 434 1759 690 2068 
Q 947 2378 1403 2484 
z
M 1172 3481 
Q 1172 3119 1398 2916 
Q 1625 2713 2034 2713 
Q 2441 2713 2670 2916 
Q 2900 3119 2900 3481 
Q 2900 3844 2670 4047 
Q 2441 4250 2034 4250 
Q 1625 4250 1398 4047 
Q 1172 3844 1172 3481 
z
" transform="scale(0.015625)"/>
       </defs>
       <use xlink:href="#DejaVuSans-30"/>
       <use xlink:href="#DejaVuSans-2e" x="63.623047"/>
       <use xlink:href="#DejaVuSans-38" x="95.410156"/>
      </g>
     </g>
    </g>
    <g id="xtick_6">
     <g id="line2d_6">
      <g>
       <use xlink:href="#ma01fc2742d" x="400.063864" y="236.68" style="stroke: #000000; stroke-width: 0.8"/>
      </g>
     </g>
     <g id="text_6">
      <!-- 1.0 -->
      <g transform="translate(390.521989 252.798125) scale(0.12 -0.12)">
       <defs>
        <path id="DejaVuSans-31" d="M 794 531 
L 1825 531 
L 1825 4091 
L 703 3866 
L 703 4441 
L 1819 4666 
L 2450 4666 
L 2450 531 
L 3481 531 
L 3481 0 
L 794 0 
L 794 531 
z
" transform="scale(0.015625)"/>
       </defs>
       <use xlink:href="#DejaVuSans-31"/>
       <use xlink:href="#DejaVuSans-2e" x="63.623047"/>
       <use xlink:href="#DejaVuSans-30" x="95.410156"/>
      </g>
     </g>
    </g>
    <g id="text_7">
     <!-- x -->
     <g transform="translate(232.92625 268.411875) scale(0.12 -0.12)">
      <defs>
       <path id="DejaVuSans-78" d="M 3513 3500 
L 2247 1797 
L 3578 0 
L 2900 0 
L 1881 1375 
L 863 0 
L 184 0 
L 1544 1831 
L 300 3500 
L 978 3500 
L 1906 2253 
L 2834 3500 
L 3513 3500 
z
" transform="scale(0.015625)"/>
      </defs>
      <use xlink:href="#DejaVuSans-78"/>
     </g>
    </g>
   </g>
   <g id="matplotlib.axis_2">
    <g id="ytick_1">
     <g id="line2d_7">
      <defs>
       <path id="m3c276346de" d="M 0 0 
L -3.5 0 
" style="stroke: #000000; stroke-width: 0.8"/>
      </defs>
      <g>
       <use xlink:href="#m3c276346de" x="56.5325" y="226.254778" style="stroke: #000000; stroke-width: 0.8"/>
      </g>
     </g>
     <g id="text_8">
      <!-- 0.00 -->
      <g transform="translate(22.81375 230.81384) scale(0.12 -0.12)">
       <use xlink:href="#DejaVuSans-30"/>
       <use xlink:href="#DejaVuSans-2e" x="63.623047"/>
       <use xlink:href="#DejaVuSans-30" x="95.410156"/>
       <use xlink:href="#DejaVuSans-30" x="159.033203"/>
      </g>
     </g>
    </g>
    <g id="ytick_2">
     <g id="line2d_8">
      <g>
       <use xlink:href="#m3c276346de" x="56.5325" y="196.988515" style="stroke: #000000; stroke-width: 0.8"/>
      </g>
     </g>
     <g id="text_9">
      <!-- 0.05 -->
      <g transform="translate(22.81375 201.547577) scale(0.12 -0.12)">
       <defs>
        <path id="DejaVuSans-35" d="M 691 4666 
L 3169 4666 
L 3169 4134 
L 1269 4134 
L 1269 2991 
Q 1406 3038 1543 3061 
Q 1681 3084 1819 3084 
Q 2600 3084 3056 2656 
Q 3513 2228 3513 1497 
Q 3513 744 3044 326 
Q 2575 -91 1722 -91 
Q 1428 -91 1123 -41 
Q 819 9 494 109 
L 494 744 
Q 775 591 1075 516 
Q 1375 441 1709 441 
Q 2250 441 2565 725 
Q 2881 1009 2881 1497 
Q 2881 1984 2565 2268 
Q 2250 2553 1709 2553 
Q 1456 2553 1204 2497 
Q 953 2441 691 2322 
L 691 4666 
z
" transform="scale(0.015625)"/>
       </defs>
       <use xlink:href="#DejaVuSans-30"/>
       <use xlink:href="#DejaVuSans-2e" x="63.623047"/>
       <use xlink:href="#DejaVuSans-30" x="95.410156"/>
       <use xlink:href="#DejaVuSans-35" x="159.033203"/>
      </g>
     </g>
    </g>
    <g id="ytick_3">
     <g id="line2d_9">
      <g>
       <use xlink:href="#m3c276346de" x="56.5325" y="167.722252" style="stroke: #000000; stroke-width: 0.8"/>
      </g>
     </g>
     <g id="text_10">
      <!-- 0.10 -->
      <g transform="translate(22.81375 172.281314) scale(0.12 -0.12)">
       <use xlink:href="#DejaVuSans-30"/>
       <use xlink:href="#DejaVuSans-2e" x="63.623047"/>
       <use xlink:href="#DejaVuSans-31" x="95.410156"/>
       <use xlink:href="#DejaVuSans-30" x="159.033203"/>
      </g>
     </g>
    </g>
    <g id="ytick_4">
     <g id="line2d_10">
      <g>
       <use xlink:href="#m3c276346de" x="56.5325" y="138.455988" style="stroke: #000000; stroke-width: 0.8"/>
      </g>
     </g>
     <g id="text_11">
      <!-- 0.15 -->
      <g transform="translate(22.81375 143.015051) scale(0.12 -0.12)">
       <use xlink:href="#DejaVuSans-30"/>
       <use xlink:href="#DejaVuSans-2e" x="63.623047"/>
       <use xlink:href="#DejaVuSans-31" x="95.410156"/>
       <use xlink:href="#DejaVuSans-35" x="159.033203"/>
      </g>
     </g>
    </g>
    <g id="ytick_5">
     <g id="line2d_11">
      <g>
       <use xlink:href="#m3c276346de" x="56.5325" y="109.189725" style="stroke: #000000; stroke-width: 0.8"/>
      </g>
     </g>
     <g id="text_12">
      <!-- 0.20 -->
      <g transform="translate(22.81375 113.748788) scale(0.12 -0.12)">
       <use xlink:href="#DejaVuSans-30"/>
       <use xlink:href="#DejaVuSans-2e" x="63.623047"/>
       <use xlink:href="#DejaVuSans-32" x="95.410156"/>
       <use xlink:href="#DejaVuSans-30" x="159.033203"/>
      </g>
     </g>
    </g>
    <g id="ytick_6">
     <g id="line2d_12">
      <g>
       <use xlink:href="#m3c276346de" x="56.5325" y="79.923462" style="stroke: #000000; stroke-width: 0.8"/>
      </g>
     </g>
     <g id="text_13">
      <!-- 0.25 -->
      <g transform="translate(22.81375 84.482525) scale(0.12 -0.12)">
       <use xlink:href="#DejaVuSans-30"/>
       <use xlink:href="#DejaVuSans-2e" x="63.623047"/>
       <use xlink:href="#DejaVuSans-32" x="95.410156"/>
       <use xlink:href="#DejaVuSans-35" x="159.033203"/>
      </g>
     </g>
    </g>
    <g id="ytick_7">
     <g id="line2d_13">
      <g>
       <use xlink:href="#m3c276346de" x="56.5325" y="50.657199" style="stroke: #000000; stroke-width: 0.8"/>
      </g>
     </g>
     <g id="text_14">
      <!-- 0.30 -->
      <g transform="translate(22.81375 55.216262) scale(0.12 -0.12)">
       <defs>
        <path id="DejaVuSans-33" d="M 2597 2516 
Q 3050 2419 3304 2112 
Q 3559 1806 3559 1356 
Q 3559 666 3084 287 
Q 2609 -91 1734 -91 
Q 1441 -91 1130 -33 
Q 819 25 488 141 
L 488 750 
Q 750 597 1062 519 
Q 1375 441 1716 441 
Q 2309 441 2620 675 
Q 2931 909 2931 1356 
Q 2931 1769 2642 2001 
Q 2353 2234 1838 2234 
L 1294 2234 
L 1294 2753 
L 1863 2753 
Q 2328 2753 2575 2939 
Q 2822 3125 2822 3475 
Q 2822 3834 2567 4026 
Q 2313 4219 1838 4219 
Q 1578 4219 1281 4162 
Q 984 4106 628 3988 
L 628 4550 
Q 988 4650 1302 4700 
Q 1616 4750 1894 4750 
Q 2613 4750 3031 4423 
Q 3450 4097 3450 3541 
Q 3450 3153 3228 2886 
Q 3006 2619 2597 2516 
z
" transform="scale(0.015625)"/>
       </defs>
       <use xlink:href="#DejaVuSans-30"/>
       <use xlink:href="#DejaVuSans-2e" x="63.623047"/>
       <use xlink:href="#DejaVuSans-33" x="95.410156"/>
       <use xlink:href="#DejaVuSans-30" x="159.033203"/>
      </g>
     </g>
    </g>
    <g id="ytick_8">
     <g id="line2d_14">
      <g>
       <use xlink:href="#m3c276346de" x="56.5325" y="21.390936" style="stroke: #000000; stroke-width: 0.8"/>
      </g>
     </g>
     <g id="text_15">
      <!-- 0.35 -->
      <g transform="translate(22.81375 25.949999) scale(0.12 -0.12)">
       <use xlink:href="#DejaVuSans-30"/>
       <use xlink:href="#DejaVuSans-2e" x="63.623047"/>
       <use xlink:href="#DejaVuSans-33" x="95.410156"/>
       <use xlink:href="#DejaVuSans-35" x="159.033203"/>
      </g>
     </g>
    </g>
    <g id="text_16">
     <!-- Absolute error -->
     <g transform="translate(16.318125 164.593437) rotate(-90) scale(0.12 -0.12)">
      <defs>
       <path id="DejaVuSans-41" d="M 2188 4044 
L 1331 1722 
L 3047 1722 
L 2188 4044 
z
M 1831 4666 
L 2547 4666 
L 4325 0 
L 3669 0 
L 3244 1197 
L 1141 1197 
L 716 0 
L 50 0 
L 1831 4666 
z
" transform="scale(0.015625)"/>
       <path id="DejaVuSans-62" d="M 3116 1747 
Q 3116 2381 2855 2742 
Q 2594 3103 2138 3103 
Q 1681 3103 1420 2742 
Q 1159 2381 1159 1747 
Q 1159 1113 1420 752 
Q 1681 391 2138 391 
Q 2594 391 2855 752 
Q 3116 1113 3116 1747 
z
M 1159 2969 
Q 1341 3281 1617 3432 
Q 1894 3584 2278 3584 
Q 2916 3584 3314 3078 
Q 3713 2572 3713 1747 
Q 3713 922 3314 415 
Q 2916 -91 2278 -91 
Q 1894 -91 1617 61 
Q 1341 213 1159 525 
L 1159 0 
L 581 0 
L 581 4863 
L 1159 4863 
L 1159 2969 
z
" transform="scale(0.015625)"/>
       <path id="DejaVuSans-73" d="M 2834 3397 
L 2834 2853 
Q 2591 2978 2328 3040 
Q 2066 3103 1784 3103 
Q 1356 3103 1142 2972 
Q 928 2841 928 2578 
Q 928 2378 1081 2264 
Q 1234 2150 1697 2047 
L 1894 2003 
Q 2506 1872 2764 1633 
Q 3022 1394 3022 966 
Q 3022 478 2636 193 
Q 2250 -91 1575 -91 
Q 1294 -91 989 -36 
Q 684 19 347 128 
L 347 722 
Q 666 556 975 473 
Q 1284 391 1588 391 
Q 1994 391 2212 530 
Q 2431 669 2431 922 
Q 2431 1156 2273 1281 
Q 2116 1406 1581 1522 
L 1381 1569 
Q 847 1681 609 1914 
Q 372 2147 372 2553 
Q 372 3047 722 3315 
Q 1072 3584 1716 3584 
Q 2034 3584 2315 3537 
Q 2597 3491 2834 3397 
z
" transform="scale(0.015625)"/>
       <path id="DejaVuSans-6f" d="M 1959 3097 
Q 1497 3097 1228 2736 
Q 959 2375 959 1747 
Q 959 1119 1226 758 
Q 1494 397 1959 397 
Q 2419 397 2687 759 
Q 2956 1122 2956 1747 
Q 2956 2369 2687 2733 
Q 2419 3097 1959 3097 
z
M 1959 3584 
Q 2709 3584 3137 3096 
Q 3566 2609 3566 1747 
Q 3566 888 3137 398 
Q 2709 -91 1959 -91 
Q 1206 -91 779 398 
Q 353 888 353 1747 
Q 353 2609 779 3096 
Q 1206 3584 1959 3584 
z
" transform="scale(0.015625)"/>
       <path id="DejaVuSans-6c" d="M 603 4863 
L 1178 4863 
L 1178 0 
L 603 0 
L 603 4863 
z
" transform="scale(0.015625)"/>
       <path id="DejaVuSans-75" d="M 544 1381 
L 544 3500 
L 1119 3500 
L 1119 1403 
Q 1119 906 1312 657 
Q 1506 409 1894 409 
Q 2359 409 2629 706 
Q 2900 1003 2900 1516 
L 2900 3500 
L 3475 3500 
L 3475 0 
L 2900 0 
L 2900 538 
Q 2691 219 2414 64 
Q 2138 -91 1772 -91 
Q 1169 -91 856 284 
Q 544 659 544 1381 
z
M 1991 3584 
L 1991 3584 
z
" transform="scale(0.015625)"/>
       <path id="DejaVuSans-74" d="M 1172 4494 
L 1172 3500 
L 2356 3500 
L 2356 3053 
L 1172 3053 
L 1172 1153 
Q 1172 725 1289 603 
Q 1406 481 1766 481 
L 2356 481 
L 2356 0 
L 1766 0 
Q 1100 0 847 248 
Q 594 497 594 1153 
L 594 3053 
L 172 3053 
L 172 3500 
L 594 3500 
L 594 4494 
L 1172 4494 
z
" transform="scale(0.015625)"/>
       <path id="DejaVuSans-65" d="M 3597 1894 
L 3597 1613 
L 953 1613 
Q 991 1019 1311 708 
Q 1631 397 2203 397 
Q 2534 397 2845 478 
Q 3156 559 3463 722 
L 3463 178 
Q 3153 47 2828 -22 
Q 2503 -91 2169 -91 
Q 1331 -91 842 396 
Q 353 884 353 1716 
Q 353 2575 817 3079 
Q 1281 3584 2069 3584 
Q 2775 3584 3186 3129 
Q 3597 2675 3597 1894 
z
M 3022 2063 
Q 3016 2534 2758 2815 
Q 2500 3097 2075 3097 
Q 1594 3097 1305 2825 
Q 1016 2553 972 2059 
L 3022 2063 
z
" transform="scale(0.015625)"/>
       <path id="DejaVuSans-20" transform="scale(0.015625)"/>
       <path id="DejaVuSans-72" d="M 2631 2963 
Q 2534 3019 2420 3045 
Q 2306 3072 2169 3072 
Q 1681 3072 1420 2755 
Q 1159 2438 1159 1844 
L 1159 0 
L 581 0 
L 581 3500 
L 1159 3500 
L 1159 2956 
Q 1341 3275 1631 3429 
Q 1922 3584 2338 3584 
Q 2397 3584 2469 3576 
Q 2541 3569 2628 3553 
L 2631 2963 
z
" transform="scale(0.015625)"/>
      </defs>
      <use xlink:href="#DejaVuSans-41"/>
      <use xlink:href="#DejaVuSans-62" x="68.408203"/>
      <use xlink:href="#DejaVuSans-73" x="131.884766"/>
      <use xlink:href="#DejaVuSans-6f" x="183.984375"/>
      <use xlink:href="#DejaVuSans-6c" x="245.166016"/>
      <use xlink:href="#DejaVuSans-75" x="272.949219"/>
      <use xlink:href="#DejaVuSans-74" x="336.328125"/>
      <use xlink:href="#DejaVuSans-65" x="375.537109"/>
      <use xlink:href="#DejaVuSans-20" x="437.060547"/>
      <use xlink:href="#DejaVuSans-65" x="468.847656"/>
      <use xlink:href="#DejaVuSans-72" x="530.371094"/>
      <use xlink:href="#DejaVuSans-72" x="569.734375"/>
      <use xlink:href="#DejaVuSans-6f" x="608.597656"/>
      <use xlink:href="#DejaVuSans-72" x="669.779297"/>
     </g>
    </g>
   </g>
   <g id="line2d_15">
    <path d="M 72.891136 217.258339 
L 73.218309 222.341545 
L 73.872655 201.850741 
L 74.199827 195.848842 
L 74.527 192.579624 
L 74.854173 191.460542 
L 75.181346 191.802278 
L 76.162864 194.850826 
L 76.490037 194.39592 
L 76.817209 192.488073 
L 77.144382 189.14649 
L 77.798727 179.208596 
L 79.434591 150.42967 
L 79.761764 146.917737 
L 80.088937 145.07752 
L 80.41611 145.23354 
L 80.743282 147.627283 
L 81.070455 152.358895 
L 81.7248 168.195163 
L 83.360664 223.164913 
L 83.687836 219.743785 
L 84.342182 204.736458 
L 84.996527 196.031666 
L 85.323701 194.001842 
L 85.650873 193.396428 
L 85.978046 194.088853 
L 86.305219 195.940992 
L 86.959564 202.540217 
L 87.61391 212.028665 
L 88.268255 223.299546 
L 88.595427 223.22342 
L 90.231292 194.056895 
L 91.21281 180.185594 
L 91.867155 173.463424 
L 92.521501 169.104016 
L 92.848674 167.863604 
L 93.175846 167.263529 
L 93.503019 167.304836 
L 93.830192 167.982712 
L 94.157365 169.284248 
L 94.81171 173.675753 
L 95.466056 180.249021 
L 96.447574 193.443144 
L 98.083439 220.218229 
L 98.41061 225.592043 
L 99.064956 216.888996 
L 99.719301 208.517107 
L 100.373648 202.674571 
L 100.700818 200.977962 
L 101.027992 200.238649 
L 101.355165 200.550409 
L 101.682339 201.99502 
L 102.00951 204.623281 
L 102.663856 213.448157 
L 103.318201 226.054415 
L 105.281239 180.989887 
L 105.935583 171.269503 
L 106.262756 168.3467 
L 106.58993 166.841749 
L 106.917101 166.750813 
L 107.244274 167.998918 
L 107.571447 170.456697 
L 108.225792 178.222868 
L 110.18883 205.742304 
L 110.516001 208.30852 
L 110.843174 209.583235 
L 111.170347 209.368554 
L 111.497521 207.686635 
L 112.151865 201.274854 
L 112.806212 194.466795 
L 113.133383 192.641382 
L 113.460556 192.801015 
L 113.787727 195.186764 
L 114.442074 203.000605 
L 114.769247 203.772377 
L 115.096421 199.250402 
L 115.750768 177.52177 
L 116.40511 153.943408 
L 117.059456 137.456162 
L 117.38663 132.488724 
L 117.713803 129.61172 
L 118.040976 128.51653 
L 118.36815 128.691092 
L 119.349665 130.917433 
L 119.676839 132.501362 
L 120.004012 136.999005 
L 120.331185 147.312348 
L 121.639874 214.594685 
L 121.967047 223.900319 
L 122.294221 220.759343 
L 122.948568 207.485187 
L 123.275741 202.817054 
L 123.602909 200.328416 
L 123.930083 200.317426 
L 124.257256 202.702028 
L 124.58443 207.146284 
L 125.56595 225.760483 
L 126.220292 213.850382 
L 126.874639 205.376027 
L 127.528985 200.268827 
L 128.183332 197.307664 
L 129.164847 193.4878 
L 129.819194 189.930958 
L 130.800709 182.794736 
L 132.109403 172.906052 
L 132.76375 169.418148 
L 133.090923 168.303822 
L 133.418092 167.682674 
L 133.745265 167.59671 
L 134.072438 168.076631 
L 134.399612 169.141555 
L 134.726785 170.802439 
L 135.381132 175.897497 
L 136.035474 183.233977 
L 137.016994 197.743033 
L 138.652856 226.197701 
L 139.634376 211.208585 
L 140.288723 204.053593 
L 140.943065 199.713722 
L 141.270238 198.515002 
L 141.597412 197.80475 
L 142.578932 196.47014 
L 142.906105 195.373154 
L 143.233274 193.471019 
L 143.560447 190.565712 
L 144.214794 181.557046 
L 145.196314 164.879241 
L 145.523488 161.729107 
L 145.850656 161.206448 
L 146.17783 163.862375 
L 146.505003 169.942203 
L 147.15935 190.964274 
L 147.813696 222.217875 
L 148.140865 208.0403 
L 149.122385 129.190507 
L 149.449559 116.321166 
L 150.103905 103.685829 
L 150.431079 100.653956 
L 150.758247 99.879615 
L 151.085421 101.185189 
L 151.412594 104.534037 
L 151.739767 110.018892 
L 152.066941 117.844843 
L 152.721288 142.119184 
L 154.029976 209.513823 
L 154.35715 218.588417 
L 154.684318 221.668614 
L 155.011496 221.111835 
L 155.338665 219.764133 
L 155.665843 219.425326 
L 155.993012 220.759956 
L 156.647359 225.633861 
L 156.974527 222.609143 
L 157.301705 220.703607 
L 157.628874 220.445385 
L 157.956052 222.037491 
L 158.283221 225.332903 
L 158.610399 222.575692 
L 160.573429 191.219943 
L 160.900608 188.24643 
L 161.227776 186.497158 
L 161.554955 186.034096 
L 161.882123 186.835965 
L 162.209292 188.814957 
L 162.863638 195.655712 
L 163.845163 210.326718 
L 164.4995 221.906778 
L 164.826679 224.349573 
L 166.462541 193.322501 
L 167.116888 184.628873 
L 167.771234 179.540827 
L 168.098403 178.349573 
L 168.425581 177.988202 
L 168.75275 178.378181 
L 169.079918 179.429604 
L 169.734265 183.132278 
L 170.71579 191.276313 
L 172.678821 208.748136 
L 173.333167 213.031837 
L 173.987514 215.944785 
L 174.314683 216.815801 
L 174.641861 217.27144 
L 174.969029 217.300397 
L 175.296208 216.896044 
L 175.623376 216.060683 
L 176.277723 213.128268 
L 176.93207 208.634889 
L 177.913585 199.504324 
L 180.530972 171.697144 
L 181.185319 167.401093 
L 181.512487 166.191382 
L 181.839656 165.745512 
L 182.166834 166.160506 
L 182.494003 167.518212 
L 182.821181 169.873368 
L 183.475528 177.583046 
L 184.129865 188.695012 
L 186.092905 226.234804 
L 187.07442 211.342137 
L 187.728767 203.622952 
L 188.055945 200.972119 
L 188.383114 199.460373 
L 188.710283 199.290643 
L 189.037461 200.601171 
L 189.364629 203.450639 
L 190.018976 213.466683 
L 190.673323 224.833864 
L 191.654838 202.374298 
L 192.309185 192.710179 
L 192.636363 190.902317 
L 192.963532 191.343843 
L 193.29071 193.838997 
L 194.599394 209.363934 
L 194.926572 210.708761 
L 195.253741 211.317426 
L 195.580919 212.93272 
L 196.235256 224.542976 
L 196.889603 191.847346 
L 198.198296 120.386703 
L 199.179812 77.100195 
L 199.834158 57.251689 
L 200.161337 53.738091 
L 200.488505 55.223522 
L 200.815683 59.972281 
L 201.142852 67.584796 
L 201.47002 79.81817 
L 202.124367 119.494536 
L 203.105892 187.42171 
L 203.760229 214.713863 
L 204.087407 221.938073 
L 204.414576 225.585955 
L 204.741754 226.129128 
L 205.068923 223.90939 
L 205.396101 219.242932 
L 206.050438 204.070985 
L 207.359132 168.128998 
L 208.013478 155.767201 
L 208.667825 148.874916 
L 208.994994 147.314755 
L 209.322172 146.856255 
L 209.64934 147.367855 
L 209.976519 148.710733 
L 210.630866 153.306264 
L 211.612381 162.874535 
L 213.248243 179.106261 
L 214.556936 189.569866 
L 215.86562 198.236909 
L 217.174314 205.68531 
L 218.155839 210.136927 
L 218.810176 212.167694 
L 219.137354 212.790481 
L 219.464523 213.098648 
L 219.791701 213.056538 
L 220.118869 212.632892 
L 220.446048 211.809114 
L 221.100385 208.970897 
L 221.754732 204.80599 
L 223.063425 195.914442 
L 223.390594 194.538281 
L 223.717772 193.876349 
L 224.04494 194.105564 
L 224.372119 195.38348 
L 224.699287 197.849441 
L 225.026465 201.621369 
L 225.680802 213.294039 
L 226.007981 221.003647 
L 226.335149 222.932296 
L 227.316674 197.996704 
L 227.643843 192.87042 
L 227.971021 190.643321 
L 228.29819 191.863846 
L 228.625358 197.143934 
L 228.952536 206.968738 
L 229.279705 221.396452 
L 229.606883 212.132797 
L 231.242745 93.00781 
L 231.569914 80.019073 
L 231.897092 71.788219 
L 232.224261 68.316469 
L 232.551439 70.809294 
L 232.878607 79.641968 
L 233.860123 123.04618 
L 236.150331 225.562401 
L 236.47749 219.75078 
L 236.804669 216.884217 
L 237.459006 216.426347 
L 237.786174 214.547023 
L 238.113362 210.286908 
L 239.422056 184.93813 
L 239.749224 182.128425 
L 240.076393 181.926423 
L 240.403561 184.265649 
L 240.73073 188.860164 
L 241.385086 203.042191 
L 242.039423 220.394117 
L 242.366611 223.529092 
L 243.020948 208.602915 
L 243.675285 198.349292 
L 244.002473 195.20385 
L 244.329642 193.325745 
L 244.65681 192.600561 
L 244.983979 192.869688 
L 245.311147 193.949004 
L 245.965504 197.858355 
L 246.619841 203.383497 
L 247.601366 214.031887 
L 248.582891 225.744051 
L 249.891565 209.074584 
L 250.545922 202.57207 
L 251.200259 197.992866 
L 251.854615 195.448163 
L 252.181784 194.879557 
L 252.508952 194.713559 
L 252.836121 194.888348 
L 253.163309 195.336451 
L 253.817646 196.772864 
L 255.126339 199.996525 
L 255.780676 200.915199 
L 256.107864 201.056112 
L 256.435033 200.946598 
L 256.762201 200.565794 
L 257.08937 199.899885 
L 257.743726 197.691852 
L 258.398064 194.352328 
L 259.379589 187.581593 
L 261.342619 172.405721 
L 261.996976 169.110296 
L 262.324144 168.247338 
L 262.651313 168.0535 
L 262.978481 168.628072 
L 263.30565 170.048855 
L 263.632838 172.366263 
L 264.287175 179.699952 
L 264.941512 190.258941 
L 266.250205 216.957551 
L 266.577393 223.769593 
L 266.904562 222.225254 
L 267.886067 205.660487 
L 268.540424 198.176186 
L 268.867593 195.965946 
L 269.194761 195.060355 
L 269.52193 195.647906 
L 269.849118 197.850462 
L 270.176286 201.70872 
L 270.830623 214.043069 
L 271.157811 221.961657 
L 271.48498 222.131047 
L 272.139317 206.553727 
L 272.466485 200.829086 
L 272.793673 197.31701 
L 273.120842 196.439748 
L 273.44801 198.377617 
L 273.775179 203.014606 
L 274.429535 218.083125 
L 274.756704 226.08863 
L 275.083872 219.000517 
L 275.411041 214.383491 
L 275.738229 212.919628 
L 276.065397 214.420281 
L 276.719734 220.514789 
L 277.046903 220.925361 
L 277.374091 217.809658 
L 277.701259 211.476496 
L 278.355596 193.203364 
L 279.991459 138.686238 
L 280.972984 101.33478 
L 281.300152 92.789096 
L 281.62734 88.578625 
L 281.954509 89.68545 
L 282.281677 96.504234 
L 282.936014 122.824457 
L 284.899064 220.520464 
L 285.226233 222.308375 
L 285.553401 215.521609 
L 285.88057 211.294183 
L 286.207758 209.618908 
L 286.534926 210.655626 
L 286.862095 214.266109 
L 287.516432 226.05759 
L 288.825125 203.561653 
L 289.479482 197.104354 
L 289.80665 195.741659 
L 290.133819 195.636873 
L 290.460988 196.73522 
L 290.788176 198.952813 
L 291.442513 206.278372 
L 292.751206 224.841321 
L 294.0599 203.082552 
L 295.041405 190.038832 
L 295.695762 183.422896 
L 296.350099 178.557715 
L 297.004455 175.441091 
L 297.331624 174.532256 
L 297.658792 174.05251 
L 297.985961 173.998608 
L 298.313149 174.371108 
L 298.640317 175.167533 
L 299.294654 178.032963 
L 299.949011 182.587745 
L 300.603348 188.797165 
L 301.584873 200.968926 
L 302.893567 221.000071 
L 303.220735 226.222506 
L 304.202241 212.057761 
L 304.856597 205.358914 
L 305.183766 203.285392 
L 305.510934 202.199168 
L 305.838122 202.165676 
L 306.165291 203.229815 
L 306.492459 205.400413 
L 307.146796 212.743068 
L 307.801153 222.602656 
L 308.128321 224.664229 
L 309.109846 210.787154 
L 309.437015 208.407995 
L 309.764183 207.841988 
L 310.091352 209.07502 
L 310.41854 212.143447 
L 310.745708 217.406003 
L 311.072877 225.298442 
L 311.400045 216.83615 
L 312.381571 177.246402 
L 313.690264 117.257938 
L 314.017433 110.874636 
L 314.344601 111.034982 
L 314.67177 116.624719 
L 315.326126 137.179656 
L 316.307632 170.558693 
L 317.289157 197.760396 
L 317.943513 210.964571 
L 318.270682 214.02491 
L 318.59785 213.234794 
L 318.925019 208.663087 
L 319.579375 196.807168 
L 319.906544 194.593274 
L 320.233712 196.411308 
L 320.560881 201.941576 
L 321.215237 219.871626 
L 321.542406 222.863602 
L 322.196743 207.18248 
L 322.523931 202.595218 
L 322.8511 200.523514 
L 323.178268 200.820355 
L 323.505437 203.046727 
L 324.159793 210.788994 
L 325.141299 223.282643 
L 325.468487 225.661549 
L 326.122824 219.698509 
L 326.777161 215.419911 
L 327.431517 212.753797 
L 328.085854 211.432061 
L 328.413042 211.155258 
L 329.067379 211.035156 
L 329.721716 210.966165 
L 330.048904 210.760011 
L 330.376073 210.356199 
L 330.703241 209.713246 
L 331.357578 207.63067 
L 332.011935 204.526362 
L 332.99346 198.429474 
L 335.938016 178.498022 
L 336.919521 173.647389 
L 337.573878 171.280789 
L 338.228215 169.677018 
L 338.882552 168.858822 
L 339.20974 168.742924 
L 339.536908 168.817776 
L 339.864077 169.077902 
L 340.518433 170.121702 
L 341.17277 171.796697 
L 342.154295 175.261941 
L 343.790158 182.385481 
L 344.771663 186.403265 
L 345.42602 188.487986 
L 346.080357 189.875294 
L 346.734713 190.541116 
L 347.38905 190.724715 
L 348.043407 190.958308 
L 348.370575 191.318493 
L 348.697744 191.969418 
L 349.024912 192.995276 
L 349.679269 196.419709 
L 350.333606 201.840196 
L 351.315131 213.084858 
L 352.296636 224.637391 
L 352.623824 224.946081 
L 352.950993 222.886261 
L 353.278161 222.006632 
L 353.60533 222.659319 
L 353.932498 225.14575 
L 354.259686 222.917883 
L 354.914024 208.892342 
L 355.895549 184.076573 
L 356.222717 178.473927 
L 356.549886 175.868309 
L 356.877054 176.965156 
L 357.204242 181.976405 
L 358.512916 213.074504 
L 358.840104 214.130439 
L 359.167273 212.273038 
L 359.82161 204.27875 
L 360.475966 193.035616 
L 361.457472 171.336022 
L 362.111828 156.017968 
L 362.438997 150.336579 
L 362.766165 148.046289 
L 363.093353 150.373726 
L 363.420522 157.467516 
L 364.074859 182.262806 
L 364.729215 209.216888 
L 365.383553 225.757906 
L 366.03789 218.898691 
L 366.365078 216.948088 
L 366.692246 216.145592 
L 367.019415 216.44651 
L 367.346583 217.886142 
L 368.328108 225.193429 
L 369.309633 215.898636 
L 370.618307 206.056292 
L 371.272664 202.752546 
L 371.599832 202.026577 
L 371.927001 202.04648 
L 372.254189 202.847389 
L 372.581357 204.437571 
L 373.235694 209.919347 
L 373.890051 218.186956 
L 374.217219 223.186753 
L 374.544388 223.874258 
L 378.143281 161.983772 
L 378.797637 154.596618 
L 379.451974 149.269623 
L 380.106331 146.22663 
L 380.433499 145.624077 
L 380.760668 145.661094 
L 381.087836 146.357286 
L 381.415024 147.727935 
L 382.069361 152.530195 
L 382.723718 160.0804 
L 383.378055 170.242066 
L 384.35958 189.471255 
L 385.995442 224.048646 
L 386.32261 222.722514 
L 386.976948 213.661463 
L 387.631304 208.248905 
L 387.958473 206.914086 
L 388.285641 206.38841 
L 388.61281 206.504831 
L 388.939998 207.056238 
L 389.594335 209.010102 
L 389.921503 210.517085 
L 390.57586 215.41548 
L 391.557365 224.253797 
L 391.884553 225.970413 
L 392.53889 224.89606 
L 392.866059 225.077021 
L 393.193227 225.967156 
L 393.520415 222.391836 
L 393.847584 216.01361 
L 395.483446 171.824625 
L 395.810614 168.335911 
L 396.137783 167.691501 
L 396.464971 169.850211 
L 397.119308 179.941478 
L 398.100833 197.271302 
L 398.75517 206.059218 
L 399.409527 211.896282 
L 400.063864 215.389331 
L 400.063864 215.389331 
" clip-path="url(#p27252b2c4b)" style="fill: none; stroke: #0077bb; stroke-width: 2; stroke-linecap: square"/>
   </g>
   <g id="line2d_16">
    <path d="M 72.891136 208.120808 
L 73.872655 177.708523 
L 74.854173 152.911062 
L 75.835691 133.706236 
L 76.490037 123.960928 
L 77.144382 116.615639 
L 77.798727 111.607312 
L 78.453073 108.865849 
L 78.780246 108.317652 
L 79.107419 108.300714 
L 79.434591 108.80373 
L 79.761764 109.808804 
L 80.41611 113.263843 
L 81.070455 118.518899 
L 81.7248 125.405409 
L 82.706319 138.368538 
L 84.01501 159.380876 
L 87.61391 222.885773 
L 87.941083 224.516164 
L 88.922601 210.762401 
L 89.904119 199.832342 
L 90.558464 194.332092 
L 91.21281 190.344417 
L 91.867155 187.885713 
L 92.194329 187.219699 
L 92.521501 186.915475 
L 92.848674 186.962539 
L 93.175846 187.340726 
L 93.503019 188.033499 
L 94.157365 190.265919 
L 94.81171 193.439934 
L 95.793227 199.399729 
L 97.756265 211.869401 
L 98.41061 215.020564 
L 99.064956 217.16831 
L 99.392127 217.783423 
L 99.719301 218.054747 
L 100.046474 217.960026 
L 100.373648 217.47728 
L 100.700818 216.591296 
L 101.355165 213.562381 
L 102.00951 208.84216 
L 102.663856 202.46444 
L 103.645374 190.067371 
L 104.954065 169.417625 
L 108.552965 108.682704 
L 109.534483 96.604128 
L 110.18883 90.563745 
L 110.843174 86.336559 
L 111.170347 84.935847 
L 111.497521 84.023665 
L 111.824692 83.603871 
L 112.151865 83.675296 
L 112.479039 84.234452 
L 112.806212 85.277403 
L 113.460556 88.768417 
L 114.114901 94.0363 
L 114.769247 100.9291 
L 115.750768 113.903805 
L 117.059456 134.93107 
L 121.967047 219.142367 
L 122.294221 223.536174 
L 122.621394 224.856462 
L 123.602909 214.274168 
L 124.58443 206.497819 
L 125.238776 202.898901 
L 125.893118 200.53136 
L 126.220292 199.789185 
L 126.547465 199.326778 
L 126.874639 199.130881 
L 127.201812 199.185377 
L 127.528985 199.476274 
L 128.183332 200.689438 
L 128.837674 202.615959 
L 129.819194 206.476572 
L 133.090923 220.847226 
L 133.745265 222.865538 
L 134.399612 224.332443 
L 135.053959 225.180712 
L 135.381132 225.358642 
L 135.708301 225.369178 
L 136.035474 225.210786 
L 136.362647 224.885385 
L 137.016994 223.740357 
L 137.671341 221.976135 
L 138.652856 218.311035 
L 139.96155 212.012058 
L 143.233274 195.290818 
L 144.214794 191.783307 
L 144.869141 190.177477 
L 145.523488 189.24518 
L 145.850656 189.045864 
L 146.17783 189.031804 
L 146.505003 189.203122 
L 146.832176 189.561179 
L 147.486523 190.823361 
L 148.140865 192.784142 
L 148.795212 195.378265 
L 149.776732 200.253206 
L 151.412594 209.954135 
L 153.048456 219.59248 
L 154.029976 224.353358 
L 154.35715 225.667135 
L 154.684318 225.687694 
L 155.338665 223.897931 
L 155.993012 222.854629 
L 156.32019 222.623425 
L 156.647359 222.588348 
L 156.974527 222.748691 
L 157.301705 223.098959 
L 157.956052 224.341248 
L 158.610399 226.240007 
L 159.591914 222.440871 
L 161.554955 213.150945 
L 162.863638 207.648498 
L 163.517985 205.617731 
L 164.172332 204.257758 
L 164.4995 203.864185 
L 164.826679 203.676208 
L 165.153847 203.703351 
L 165.481025 203.950185 
L 165.808194 204.421453 
L 166.462541 206.036249 
L 167.116888 208.532353 
L 167.771234 211.854015 
L 168.75275 218.188857 
L 169.734265 225.769973 
L 170.061443 224.021939 
L 173.333167 196.983728 
L 174.314683 190.730907 
L 175.296208 186.103594 
L 175.950554 184.052975 
L 176.604891 182.878607 
L 176.93207 182.625878 
L 177.259238 182.594967 
L 177.586417 182.78556 
L 177.913585 183.189565 
L 178.567932 184.61886 
L 179.222279 186.822114 
L 180.203794 191.390118 
L 181.185319 197.156878 
L 182.821181 208.342423 
L 185.438558 226.249091 
L 186.747252 218.832054 
L 187.728767 214.265219 
L 188.710283 210.567097 
L 189.691808 207.66302 
L 190.673323 205.410871 
L 191.654838 203.643387 
L 192.963532 201.756373 
L 194.599394 199.80117 
L 195.908087 198.534288 
L 196.889603 197.918347 
L 197.543949 197.772731 
L 198.198296 197.919185 
L 198.852643 198.435357 
L 199.50699 199.393467 
L 200.161337 200.865021 
L 200.815683 202.907894 
L 201.47002 205.56956 
L 202.451545 210.774019 
L 203.433061 217.430931 
L 204.414576 225.431122 
L 204.741754 224.148007 
L 206.377616 208.053165 
L 209.322172 178.107554 
L 210.630866 167.316733 
L 211.612381 161.274986 
L 212.266728 158.459341 
L 212.921074 156.730043 
L 213.248243 156.296558 
L 213.575411 156.161611 
L 213.90259 156.330748 
L 214.229758 156.807285 
L 214.556936 157.593488 
L 215.211283 160.091197 
L 215.86562 163.806083 
L 216.519967 168.684103 
L 217.501492 177.999087 
L 218.810176 193.483404 
L 220.773216 220.440919 
L 221.100385 225.030624 
L 221.427563 222.937686 
L 223.063425 202.00751 
L 224.04494 191.882948 
L 225.026465 184.394425 
L 225.680802 181.105942 
L 226.335149 179.282359 
L 226.662328 178.930896 
L 226.989496 178.951375 
L 227.316674 179.33579 
L 227.643843 180.075784 
L 228.29819 182.556206 
L 228.952536 186.224969 
L 229.934052 193.427182 
L 232.551439 214.493474 
L 233.205776 218.01871 
L 233.860123 220.041405 
L 234.187301 220.377302 
L 234.514469 220.209765 
L 234.841648 219.506015 
L 235.168816 218.238228 
L 235.823163 213.919125 
L 236.47749 207.143321 
L 237.131837 197.904429 
L 238.113362 179.688087 
L 239.094868 157.015338 
L 240.73073 113.138342 
L 242.69378 61.23817 
L 243.675285 40.433329 
L 244.329642 29.784564 
L 244.983979 22.263125 
L 245.311147 19.795786 
L 245.638335 18.241311 
L 245.965504 17.630909 
L 246.292672 17.98518 
L 246.619841 19.319406 
L 246.947029 21.641419 
L 247.601366 29.236664 
L 248.255703 40.67738 
L 248.91006 55.751518 
L 249.891565 84.448415 
L 251.200259 131.690222 
L 253.490477 226.195119 
L 255.453508 149.501855 
L 256.762201 107.914502 
L 257.743726 83.731918 
L 258.398064 71.322777 
L 259.05242 61.97915 
L 259.706757 55.699221 
L 260.033926 53.684538 
L 260.361094 52.402714 
L 260.688282 51.833828 
L 261.015451 51.952483 
L 261.342619 52.734186 
L 261.669788 54.149596 
L 262.324144 58.750814 
L 262.978481 65.479473 
L 263.960006 78.901066 
L 265.2687 101.35191 
L 267.558899 146.376282 
L 269.849118 189.731389 
L 271.48498 216.001277 
L 272.139317 225.120217 
L 272.466485 223.137273 
L 273.775179 208.158229 
L 274.756704 198.968392 
L 275.738229 191.411901 
L 276.719734 185.364422 
L 277.701259 180.725806 
L 278.682784 177.426271 
L 279.337122 175.948263 
L 279.991459 175.044564 
L 280.318647 174.807019 
L 280.645815 174.712527 
L 280.972984 174.761998 
L 281.300152 174.955453 
L 281.954509 175.775127 
L 282.608846 177.167843 
L 283.263202 179.123286 
L 284.244708 183.077112 
L 285.226233 188.152851 
L 286.534926 196.365232 
L 288.497957 210.50402 
L 290.460988 224.333141 
L 290.788176 226.123075 
L 291.769681 220.688346 
L 292.751206 216.617881 
L 293.405543 214.817062 
L 294.0599 213.831473 
L 294.387068 213.661463 
L 294.714237 213.711737 
L 295.041405 213.987562 
L 295.368593 214.486985 
L 296.02293 216.161963 
L 296.677267 218.712388 
L 297.331624 222.088615 
L 297.985961 226.211272 
L 298.967486 218.94551 
L 300.930517 201.892973 
L 302.566379 188.27796 
L 303.547904 181.808693 
L 304.202241 178.610292 
L 304.856597 176.504132 
L 305.183766 175.902521 
L 305.510934 175.618881 
L 305.838122 175.666678 
L 306.165291 176.05015 
L 306.492459 176.775073 
L 307.146796 179.242743 
L 307.801153 183.030335 
L 308.45549 188.043616 
L 309.437015 197.496217 
L 311.072877 216.425456 
L 311.727214 224.252985 
L 312.054402 224.44815 
L 313.363096 210.824101 
L 314.344601 203.250347 
L 314.998958 199.854088 
L 315.653295 197.923733 
L 315.980463 197.520586 
L 316.307632 197.492544 
L 316.63482 197.828014 
L 316.961988 198.518403 
L 317.616325 200.882145 
L 318.270682 204.394332 
L 319.252187 211.252931 
L 320.888069 224.326443 
L 321.215237 225.696313 
L 322.196743 219.198292 
L 322.8511 216.001587 
L 323.505437 213.959883 
L 323.832605 213.418092 
L 324.159793 213.210839 
L 324.486962 213.346162 
L 324.81413 213.824312 
L 325.141299 214.643615 
L 325.795655 217.266904 
L 326.449992 221.114957 
L 327.104349 226.020992 
L 327.758686 220.737119 
L 329.394548 204.30245 
L 331.03041 188.240071 
L 332.011935 180.348923 
L 332.666272 176.205088 
L 333.320629 173.107949 
L 333.974966 171.134992 
L 334.302134 170.584493 
L 334.629322 170.32803 
L 334.956491 170.3625 
L 335.283659 170.681202 
L 335.610828 171.280196 
L 336.265184 173.276982 
L 336.919521 176.253565 
L 337.901046 182.264576 
L 339.20974 192.291383 
L 342.154295 215.764588 
L 343.135801 221.687541 
L 343.790158 224.711572 
L 344.117326 225.921579 
L 344.444495 225.586827 
L 345.098851 224.203793 
L 345.42602 223.813238 
L 345.753188 223.612684 
L 346.080357 223.591978 
L 346.407525 223.73413 
L 347.061882 224.442271 
L 347.716219 225.573919 
L 348.043407 226.239113 
L 349.679269 222.968266 
L 350.333606 222.137266 
L 350.660774 221.919451 
L 350.987943 221.85817 
L 351.315131 221.971626 
L 351.642299 222.271542 
L 351.969468 222.768418 
L 352.623824 224.375242 
L 352.950993 225.490624 
L 353.278161 225.699137 
L 353.932498 222.481102 
L 354.914024 216.395683 
L 356.549886 204.252618 
L 358.185748 192.496499 
L 359.167273 187.109197 
L 359.82161 184.645595 
L 360.475966 183.27121 
L 360.803135 183.032999 
L 361.130303 183.112346 
L 361.457472 183.514804 
L 361.78466 184.249262 
L 362.438997 186.719438 
L 363.093353 190.512647 
L 363.74769 195.580075 
L 364.729215 205.339172 
L 366.03789 221.594721 
L 366.365078 226.077886 
L 367.673771 207.652746 
L 369.636802 180.320751 
L 370.618307 168.812683 
L 371.599832 159.743555 
L 372.254189 155.365639 
L 372.908526 152.503907 
L 373.235694 151.680321 
L 373.562863 151.276177 
L 373.890051 151.304053 
L 374.217219 151.769617 
L 374.544388 152.679603 
L 375.198744 155.841094 
L 375.853082 160.781249 
L 376.507419 167.460053 
L 377.488944 180.551902 
L 378.470469 196.940205 
L 379.779162 222.854164 
L 380.106331 222.638975 
L 384.35958 131.349644 
L 385.341085 115.495478 
L 386.32261 103.625027 
L 386.976948 98.276001 
L 387.631304 95.149625 
L 387.958473 94.451863 
L 388.285641 94.337413 
L 388.61281 94.806937 
L 388.939998 95.859197 
L 389.594335 99.671036 
L 390.248672 105.66231 
L 390.903028 113.657433 
L 391.884553 128.874499 
L 393.193227 153.560969 
L 396.792139 224.937357 
L 397.119308 222.228014 
L 398.100833 208.377965 
L 398.75517 201.197242 
L 399.409527 195.813729 
L 400.063864 192.303954 
L 400.063864 192.303954 
" clip-path="url(#p27252b2c4b)" style="fill: none; stroke: #ee7733; stroke-width: 2; stroke-linecap: square"/>
   </g>
   <g id="patch_3">
    <path d="M 56.5325 236.68 
L 56.5325 7.2 
" style="fill: none; stroke: #000000; stroke-width: 0.8; stroke-linejoin: miter; stroke-linecap: square"/>
   </g>
   <g id="patch_4">
    <path d="M 416.4225 236.68 
L 416.4225 7.2 
" style="fill: none; stroke: #000000; stroke-width: 0.8; stroke-linejoin: miter; stroke-linecap: square"/>
   </g>
   <g id="patch_5">
    <path d="M 56.5325 236.68 
L 416.4225 236.68 
" style="fill: none; stroke: #000000; stroke-width: 0.8; stroke-linejoin: miter; stroke-linecap: square"/>
   </g>
   <g id="patch_6">
    <path d="M 56.5325 7.2 
L 416.4225 7.2 
" style="fill: none; stroke: #000000; stroke-width: 0.8; stroke-linejoin: miter; stroke-linecap: square"/>
   </g>
   <g id="legend_1">
    <g id="patch_7">
     <path d="M 299.370937 44.55625 
L 409.4225 44.55625 
Q 411.4225 44.55625 411.4225 42.55625 
L 411.4225 14.2 
Q 411.4225 12.2 409.4225 12.2 
L 299.370937 12.2 
Q 297.370937 12.2 297.370937 14.2 
L 297.370937 42.55625 
Q 297.370937 44.55625 299.370937 44.55625 
z
" style="fill: #ffffff; opacity: 0.8; stroke: #cccccc; stroke-linejoin: miter"/>
    </g>
    <g id="line2d_17">
     <path d="M 301.370937 20.298437 
L 311.370937 20.298437 
L 321.370937 20.298437 
" style="fill: none; stroke: #0077bb; stroke-width: 2; stroke-linecap: square"/>
    </g>
    <g id="text_17">
     <!-- Meng's MF-BNN -->
     <g transform="translate(329.370937 23.798437) scale(0.1 -0.1)">
      <defs>
       <path id="DejaVuSans-4d" d="M 628 4666 
L 1569 4666 
L 2759 1491 
L 3956 4666 
L 4897 4666 
L 4897 0 
L 4281 0 
L 4281 4097 
L 3078 897 
L 2444 897 
L 1241 4097 
L 1241 0 
L 628 0 
L 628 4666 
z
" transform="scale(0.015625)"/>
       <path id="DejaVuSans-6e" d="M 3513 2113 
L 3513 0 
L 2938 0 
L 2938 2094 
Q 2938 2591 2744 2837 
Q 2550 3084 2163 3084 
Q 1697 3084 1428 2787 
Q 1159 2491 1159 1978 
L 1159 0 
L 581 0 
L 581 3500 
L 1159 3500 
L 1159 2956 
Q 1366 3272 1645 3428 
Q 1925 3584 2291 3584 
Q 2894 3584 3203 3211 
Q 3513 2838 3513 2113 
z
" transform="scale(0.015625)"/>
       <path id="DejaVuSans-67" d="M 2906 1791 
Q 2906 2416 2648 2759 
Q 2391 3103 1925 3103 
Q 1463 3103 1205 2759 
Q 947 2416 947 1791 
Q 947 1169 1205 825 
Q 1463 481 1925 481 
Q 2391 481 2648 825 
Q 2906 1169 2906 1791 
z
M 3481 434 
Q 3481 -459 3084 -895 
Q 2688 -1331 1869 -1331 
Q 1566 -1331 1297 -1286 
Q 1028 -1241 775 -1147 
L 775 -588 
Q 1028 -725 1275 -790 
Q 1522 -856 1778 -856 
Q 2344 -856 2625 -561 
Q 2906 -266 2906 331 
L 2906 616 
Q 2728 306 2450 153 
Q 2172 0 1784 0 
Q 1141 0 747 490 
Q 353 981 353 1791 
Q 353 2603 747 3093 
Q 1141 3584 1784 3584 
Q 2172 3584 2450 3431 
Q 2728 3278 2906 2969 
L 2906 3500 
L 3481 3500 
L 3481 434 
z
" transform="scale(0.015625)"/>
       <path id="DejaVuSans-27" d="M 1147 4666 
L 1147 2931 
L 616 2931 
L 616 4666 
L 1147 4666 
z
" transform="scale(0.015625)"/>
       <path id="DejaVuSans-46" d="M 628 4666 
L 3309 4666 
L 3309 4134 
L 1259 4134 
L 1259 2759 
L 3109 2759 
L 3109 2228 
L 1259 2228 
L 1259 0 
L 628 0 
L 628 4666 
z
" transform="scale(0.015625)"/>
       <path id="DejaVuSans-2d" d="M 313 2009 
L 1997 2009 
L 1997 1497 
L 313 1497 
L 313 2009 
z
" transform="scale(0.015625)"/>
       <path id="DejaVuSans-42" d="M 1259 2228 
L 1259 519 
L 2272 519 
Q 2781 519 3026 730 
Q 3272 941 3272 1375 
Q 3272 1813 3026 2020 
Q 2781 2228 2272 2228 
L 1259 2228 
z
M 1259 4147 
L 1259 2741 
L 2194 2741 
Q 2656 2741 2882 2914 
Q 3109 3088 3109 3444 
Q 3109 3797 2882 3972 
Q 2656 4147 2194 4147 
L 1259 4147 
z
M 628 4666 
L 2241 4666 
Q 2963 4666 3353 4366 
Q 3744 4066 3744 3513 
Q 3744 3084 3544 2831 
Q 3344 2578 2956 2516 
Q 3422 2416 3680 2098 
Q 3938 1781 3938 1306 
Q 3938 681 3513 340 
Q 3088 0 2303 0 
L 628 0 
L 628 4666 
z
" transform="scale(0.015625)"/>
       <path id="DejaVuSans-4e" d="M 628 4666 
L 1478 4666 
L 3547 763 
L 3547 4666 
L 4159 4666 
L 4159 0 
L 3309 0 
L 1241 3903 
L 1241 0 
L 628 0 
L 628 4666 
z
" transform="scale(0.015625)"/>
      </defs>
      <use xlink:href="#DejaVuSans-4d"/>
      <use xlink:href="#DejaVuSans-65" x="86.279297"/>
      <use xlink:href="#DejaVuSans-6e" x="147.802734"/>
      <use xlink:href="#DejaVuSans-67" x="211.181641"/>
      <use xlink:href="#DejaVuSans-27" x="274.658203"/>
      <use xlink:href="#DejaVuSans-73" x="302.148438"/>
      <use xlink:href="#DejaVuSans-20" x="354.248047"/>
      <use xlink:href="#DejaVuSans-4d" x="386.035156"/>
      <use xlink:href="#DejaVuSans-46" x="472.314453"/>
      <use xlink:href="#DejaVuSans-2d" x="529.833984"/>
      <use xlink:href="#DejaVuSans-42" x="562.292969"/>
      <use xlink:href="#DejaVuSans-4e" x="630.896484"/>
      <use xlink:href="#DejaVuSans-4e" x="705.701172"/>
     </g>
    </g>
    <g id="line2d_18">
     <path d="M 301.370937 34.976562 
L 311.370937 34.976562 
L 321.370937 34.976562 
" style="fill: none; stroke: #ee7733; stroke-width: 2; stroke-linecap: square"/>
    </g>
    <g id="text_18">
     <!-- MF-DNN-BNN -->
     <g transform="translate(329.370937 38.476562) scale(0.1 -0.1)">
      <defs>
       <path id="DejaVuSans-44" d="M 1259 4147 
L 1259 519 
L 2022 519 
Q 2988 519 3436 956 
Q 3884 1394 3884 2338 
Q 3884 3275 3436 3711 
Q 2988 4147 2022 4147 
L 1259 4147 
z
M 628 4666 
L 1925 4666 
Q 3281 4666 3915 4102 
Q 4550 3538 4550 2338 
Q 4550 1131 3912 565 
Q 3275 0 1925 0 
L 628 0 
L 628 4666 
z
" transform="scale(0.015625)"/>
      </defs>
      <use xlink:href="#DejaVuSans-4d"/>
      <use xlink:href="#DejaVuSans-46" x="86.279297"/>
      <use xlink:href="#DejaVuSans-2d" x="143.798828"/>
      <use xlink:href="#DejaVuSans-44" x="179.882812"/>
      <use xlink:href="#DejaVuSans-4e" x="256.884766"/>
      <use xlink:href="#DejaVuSans-4e" x="331.689453"/>
      <use xlink:href="#DejaVuSans-2d" x="406.494141"/>
      <use xlink:href="#DejaVuSans-42" x="438.953125"/>
      <use xlink:href="#DejaVuSans-4e" x="507.556641"/>
      <use xlink:href="#DejaVuSans-4e" x="582.361328"/>
     </g>
    </g>
   </g>
  </g>
 </g>
 <defs>
  <clipPath id="p27252b2c4b">
   <rect x="56.5325" y="7.2" width="359.89" height="229.48"/>
  </clipPath>
 </defs>
</svg>
