<?xml version="1.0" encoding="utf-8" standalone="no"?>
<!DOCTYPE svg PUBLIC "-//W3C//DTD SVG 1.1//EN"
  "http://www.w3.org/Graphics/SVG/1.1/DTD/svg11.dtd">
<svg xmlns:xlink="http://www.w3.org/1999/xlink" width="425.77pt" height="282.97pt" viewBox="0 0 425.77 282.97" xmlns="http://www.w3.org/2000/svg" version="1.1">
 <metadata>
  <rdf:RDF xmlns:dc="http://purl.org/dc/elements/1.1/" xmlns:cc="http://creativecommons.org/ns#" xmlns:rdf="http://www.w3.org/1999/02/22-rdf-syntax-ns#">
   <cc:Work>
    <dc:type rdf:resource="http://purl.org/dc/dcmitype/StillImage"/>
    <dc:date>2024-03-06T19:00:16.653189</dc:date>
    <dc:format>image/svg+xml</dc:format>
    <dc:creator>
     <cc:Agent>
      <dc:title>Matplotlib v3.8.2, https://matplotlib.org/</dc:title>
     </cc:Agent>
    </dc:creator>
   </cc:Work>
  </rdf:RDF>
 </metadata>
 <defs>
  <style type="text/css">*{stroke-linejoin: round; stroke-linecap: butt}</style>
 </defs>
 <g id="figure_1">
  <g id="patch_1">
   <path d="M 0 282.97 
L 425.77 282.97 
L 425.77 0 
L 0 0 
z
" style="fill: #ffffff"/>
  </g>
  <g id="axes_1">
   <g id="patch_2">
    <path d="M 59.13 233.8 
L 418.57 233.8 
L 418.57 7.2 
L 59.13 7.2 
z
" style="fill: #ffffff"/>
   </g>
   <g id="matplotlib.axis_1">
    <g id="xtick_1">
     <g id="line2d_1">
      <defs>
       <path id="m9337dc55a3" d="M 0 0 
L 0 3.5 
" style="stroke: #000000; stroke-width: 0.8"/>
      </defs>
      <g>
       <use xlink:href="#m9337dc55a3" x="75.468182" y="233.8" style="stroke: #000000; stroke-width: 0.8"/>
      </g>
     </g>
     <g id="text_1">
      <!-- 0.0 -->
      <g transform="translate(62.745682 252.9575) scale(0.16 -0.16)">
       <defs>
        <path id="DejaVuSans-30" d="M 2034 4250 
Q 1547 4250 1301 3770 
Q 1056 3291 1056 2328 
Q 1056 1369 1301 889 
Q 1547 409 2034 409 
Q 2525 409 2770 889 
Q 3016 1369 3016 2328 
Q 3016 3291 2770 3770 
Q 2525 4250 2034 4250 
z
M 2034 4750 
Q 2819 4750 3233 4129 
Q 3647 3509 3647 2328 
Q 3647 1150 3233 529 
Q 2819 -91 2034 -91 
Q 1250 -91 836 529 
Q 422 1150 422 2328 
Q 422 3509 836 4129 
Q 1250 4750 2034 4750 
z
" transform="scale(0.015625)"/>
        <path id="DejaVuSans-2e" d="M 684 794 
L 1344 794 
L 1344 0 
L 684 0 
L 684 794 
z
" transform="scale(0.015625)"/>
       </defs>
       <use xlink:href="#DejaVuSans-30"/>
       <use xlink:href="#DejaVuSans-2e" x="63.623047"/>
       <use xlink:href="#DejaVuSans-30" x="95.410156"/>
      </g>
     </g>
    </g>
    <g id="xtick_2">
     <g id="line2d_2">
      <g>
       <use xlink:href="#m9337dc55a3" x="140.820909" y="233.8" style="stroke: #000000; stroke-width: 0.8"/>
      </g>
     </g>
     <g id="text_2">
      <!-- 0.2 -->
      <g transform="translate(128.098409 252.9575) scale(0.16 -0.16)">
       <defs>
        <path id="DejaVuSans-32" d="M 1228 531 
L 3431 531 
L 3431 0 
L 469 0 
L 469 531 
Q 828 903 1448 1529 
Q 2069 2156 2228 2338 
Q 2531 2678 2651 2914 
Q 2772 3150 2772 3378 
Q 2772 3750 2511 3984 
Q 2250 4219 1831 4219 
Q 1534 4219 1204 4116 
Q 875 4013 500 3803 
L 500 4441 
Q 881 4594 1212 4672 
Q 1544 4750 1819 4750 
Q 2544 4750 2975 4387 
Q 3406 4025 3406 3419 
Q 3406 3131 3298 2873 
Q 3191 2616 2906 2266 
Q 2828 2175 2409 1742 
Q 1991 1309 1228 531 
z
" transform="scale(0.015625)"/>
       </defs>
       <use xlink:href="#DejaVuSans-30"/>
       <use xlink:href="#DejaVuSans-2e" x="63.623047"/>
       <use xlink:href="#DejaVuSans-32" x="95.410156"/>
      </g>
     </g>
    </g>
    <g id="xtick_3">
     <g id="line2d_3">
      <g>
       <use xlink:href="#m9337dc55a3" x="206.173636" y="233.8" style="stroke: #000000; stroke-width: 0.8"/>
      </g>
     </g>
     <g id="text_3">
      <!-- 0.4 -->
      <g transform="translate(193.451136 252.9575) scale(0.16 -0.16)">
       <defs>
        <path id="DejaVuSans-34" d="M 2419 4116 
L 825 1625 
L 2419 1625 
L 2419 4116 
z
M 2253 4666 
L 3047 4666 
L 3047 1625 
L 3713 1625 
L 3713 1100 
L 3047 1100 
L 3047 0 
L 2419 0 
L 2419 1100 
L 313 1100 
L 313 1709 
L 2253 4666 
z
" transform="scale(0.015625)"/>
       </defs>
       <use xlink:href="#DejaVuSans-30"/>
       <use xlink:href="#DejaVuSans-2e" x="63.623047"/>
       <use xlink:href="#DejaVuSans-34" x="95.410156"/>
      </g>
     </g>
    </g>
    <g id="xtick_4">
     <g id="line2d_4">
      <g>
       <use xlink:href="#m9337dc55a3" x="271.526364" y="233.8" style="stroke: #000000; stroke-width: 0.8"/>
      </g>
     </g>
     <g id="text_4">
      <!-- 0.6 -->
      <g transform="translate(258.803864 252.9575) scale(0.16 -0.16)">
       <defs>
        <path id="DejaVuSans-36" d="M 2113 2584 
Q 1688 2584 1439 2293 
Q 1191 2003 1191 1497 
Q 1191 994 1439 701 
Q 1688 409 2113 409 
Q 2538 409 2786 701 
Q 3034 994 3034 1497 
Q 3034 2003 2786 2293 
Q 2538 2584 2113 2584 
z
M 3366 4563 
L 3366 3988 
Q 3128 4100 2886 4159 
Q 2644 4219 2406 4219 
Q 1781 4219 1451 3797 
Q 1122 3375 1075 2522 
Q 1259 2794 1537 2939 
Q 1816 3084 2150 3084 
Q 2853 3084 3261 2657 
Q 3669 2231 3669 1497 
Q 3669 778 3244 343 
Q 2819 -91 2113 -91 
Q 1303 -91 875 529 
Q 447 1150 447 2328 
Q 447 3434 972 4092 
Q 1497 4750 2381 4750 
Q 2619 4750 2861 4703 
Q 3103 4656 3366 4563 
z
" transform="scale(0.015625)"/>
       </defs>
       <use xlink:href="#DejaVuSans-30"/>
       <use xlink:href="#DejaVuSans-2e" x="63.623047"/>
       <use xlink:href="#DejaVuSans-36" x="95.410156"/>
      </g>
     </g>
    </g>
    <g id="xtick_5">
     <g id="line2d_5">
      <g>
       <use xlink:href="#m9337dc55a3" x="336.879091" y="233.8" style="stroke: #000000; stroke-width: 0.8"/>
      </g>
     </g>
     <g id="text_5">
      <!-- 0.8 -->
      <g transform="translate(324.156591 252.9575) scale(0.16 -0.16)">
       <defs>
        <path id="DejaVuSans-38" d="M 2034 2216 
Q 1584 2216 1326 1975 
Q 1069 1734 1069 1313 
Q 1069 891 1326 650 
Q 1584 409 2034 409 
Q 2484 409 2743 651 
Q 3003 894 3003 1313 
Q 3003 1734 2745 1975 
Q 2488 2216 2034 2216 
z
M 1403 2484 
Q 997 2584 770 2862 
Q 544 3141 544 3541 
Q 544 4100 942 4425 
Q 1341 4750 2034 4750 
Q 2731 4750 3128 4425 
Q 3525 4100 3525 3541 
Q 3525 3141 3298 2862 
Q 3072 2584 2669 2484 
Q 3125 2378 3379 2068 
Q 3634 1759 3634 1313 
Q 3634 634 3220 271 
Q 2806 -91 2034 -91 
Q 1263 -91 848 271 
Q 434 634 434 1313 
Q 434 1759 690 2068 
Q 947 2378 1403 2484 
z
M 1172 3481 
Q 1172 3119 1398 2916 
Q 1625 2713 2034 2713 
Q 2441 2713 2670 2916 
Q 2900 3119 2900 3481 
Q 2900 3844 2670 4047 
Q 2441 4250 2034 4250 
Q 1625 4250 1398 4047 
Q 1172 3844 1172 3481 
z
" transform="scale(0.015625)"/>
       </defs>
       <use xlink:href="#DejaVuSans-30"/>
       <use xlink:href="#DejaVuSans-2e" x="63.623047"/>
       <use xlink:href="#DejaVuSans-38" x="95.410156"/>
      </g>
     </g>
    </g>
    <g id="xtick_6">
     <g id="line2d_6">
      <g>
       <use xlink:href="#m9337dc55a3" x="402.231818" y="233.8" style="stroke: #000000; stroke-width: 0.8"/>
      </g>
     </g>
     <g id="text_6">
      <!-- 1.0 -->
      <g transform="translate(389.509318 252.9575) scale(0.16 -0.16)">
       <defs>
        <path id="DejaVuSans-31" d="M 794 531 
L 1825 531 
L 1825 4091 
L 703 3866 
L 703 4441 
L 1819 4666 
L 2450 4666 
L 2450 531 
L 3481 531 
L 3481 0 
L 794 0 
L 794 531 
z
" transform="scale(0.015625)"/>
       </defs>
       <use xlink:href="#DejaVuSans-31"/>
       <use xlink:href="#DejaVuSans-2e" x="63.623047"/>
       <use xlink:href="#DejaVuSans-30" x="95.410156"/>
      </g>
     </g>
    </g>
    <g id="text_7">
     <!-- x -->
     <g transform="translate(234.115 272.4425) scale(0.16 -0.16)">
      <defs>
       <path id="DejaVuSans-78" d="M 3513 3500 
L 2247 1797 
L 3578 0 
L 2900 0 
L 1881 1375 
L 863 0 
L 184 0 
L 1544 1831 
L 300 3500 
L 978 3500 
L 1906 2253 
L 2834 3500 
L 3513 3500 
z
" transform="scale(0.015625)"/>
      </defs>
      <use xlink:href="#DejaVuSans-78"/>
     </g>
    </g>
   </g>
   <g id="matplotlib.axis_2">
    <g id="ytick_1">
     <g id="line2d_7">
      <defs>
       <path id="meb8c285b93" d="M 0 0 
L -3.5 0 
" style="stroke: #000000; stroke-width: 0.8"/>
      </defs>
      <g>
       <use xlink:href="#meb8c285b93" x="59.13" y="223.513694" style="stroke: #000000; stroke-width: 0.8"/>
      </g>
     </g>
     <g id="text_8">
      <!-- 0.0 -->
      <g transform="translate(26.685 229.592444) scale(0.16 -0.16)">
       <use xlink:href="#DejaVuSans-30"/>
       <use xlink:href="#DejaVuSans-2e" x="63.623047"/>
       <use xlink:href="#DejaVuSans-30" x="95.410156"/>
      </g>
     </g>
    </g>
    <g id="ytick_2">
     <g id="line2d_8">
      <g>
       <use xlink:href="#meb8c285b93" x="59.13" y="172.231006" style="stroke: #000000; stroke-width: 0.8"/>
      </g>
     </g>
     <g id="text_9">
      <!-- 0.1 -->
      <g transform="translate(26.685 178.309756) scale(0.16 -0.16)">
       <use xlink:href="#DejaVuSans-30"/>
       <use xlink:href="#DejaVuSans-2e" x="63.623047"/>
       <use xlink:href="#DejaVuSans-31" x="95.410156"/>
      </g>
     </g>
    </g>
    <g id="ytick_3">
     <g id="line2d_9">
      <g>
       <use xlink:href="#meb8c285b93" x="59.13" y="120.948318" style="stroke: #000000; stroke-width: 0.8"/>
      </g>
     </g>
     <g id="text_10">
      <!-- 0.2 -->
      <g transform="translate(26.685 127.027068) scale(0.16 -0.16)">
       <use xlink:href="#DejaVuSans-30"/>
       <use xlink:href="#DejaVuSans-2e" x="63.623047"/>
       <use xlink:href="#DejaVuSans-32" x="95.410156"/>
      </g>
     </g>
    </g>
    <g id="ytick_4">
     <g id="line2d_10">
      <g>
       <use xlink:href="#meb8c285b93" x="59.13" y="69.66563" style="stroke: #000000; stroke-width: 0.8"/>
      </g>
     </g>
     <g id="text_11">
      <!-- 0.3 -->
      <g transform="translate(26.685 75.74438) scale(0.16 -0.16)">
       <defs>
        <path id="DejaVuSans-33" d="M 2597 2516 
Q 3050 2419 3304 2112 
Q 3559 1806 3559 1356 
Q 3559 666 3084 287 
Q 2609 -91 1734 -91 
Q 1441 -91 1130 -33 
Q 819 25 488 141 
L 488 750 
Q 750 597 1062 519 
Q 1375 441 1716 441 
Q 2309 441 2620 675 
Q 2931 909 2931 1356 
Q 2931 1769 2642 2001 
Q 2353 2234 1838 2234 
L 1294 2234 
L 1294 2753 
L 1863 2753 
Q 2328 2753 2575 2939 
Q 2822 3125 2822 3475 
Q 2822 3834 2567 4026 
Q 2313 4219 1838 4219 
Q 1578 4219 1281 4162 
Q 984 4106 628 3988 
L 628 4550 
Q 988 4650 1302 4700 
Q 1616 4750 1894 4750 
Q 2613 4750 3031 4423 
Q 3450 4097 3450 3541 
Q 3450 3153 3228 2886 
Q 3006 2619 2597 2516 
z
" transform="scale(0.015625)"/>
       </defs>
       <use xlink:href="#DejaVuSans-30"/>
       <use xlink:href="#DejaVuSans-2e" x="63.623047"/>
       <use xlink:href="#DejaVuSans-33" x="95.410156"/>
      </g>
     </g>
    </g>
    <g id="ytick_5">
     <g id="line2d_11">
      <g>
       <use xlink:href="#meb8c285b93" x="59.13" y="18.382942" style="stroke: #000000; stroke-width: 0.8"/>
      </g>
     </g>
     <g id="text_12">
      <!-- 0.4 -->
      <g transform="translate(26.685 24.461692) scale(0.16 -0.16)">
       <use xlink:href="#DejaVuSans-30"/>
       <use xlink:href="#DejaVuSans-2e" x="63.623047"/>
       <use xlink:href="#DejaVuSans-34" x="95.410156"/>
      </g>
     </g>
    </g>
    <g id="text_13">
     <!-- Absolute error -->
     <g transform="translate(19.3575 177.37125) rotate(-90) scale(0.16 -0.16)">
      <defs>
       <path id="DejaVuSans-41" d="M 2188 4044 
L 1331 1722 
L 3047 1722 
L 2188 4044 
z
M 1831 4666 
L 2547 4666 
L 4325 0 
L 3669 0 
L 3244 1197 
L 1141 1197 
L 716 0 
L 50 0 
L 1831 4666 
z
" transform="scale(0.015625)"/>
       <path id="DejaVuSans-62" d="M 3116 1747 
Q 3116 2381 2855 2742 
Q 2594 3103 2138 3103 
Q 1681 3103 1420 2742 
Q 1159 2381 1159 1747 
Q 1159 1113 1420 752 
Q 1681 391 2138 391 
Q 2594 391 2855 752 
Q 3116 1113 3116 1747 
z
M 1159 2969 
Q 1341 3281 1617 3432 
Q 1894 3584 2278 3584 
Q 2916 3584 3314 3078 
Q 3713 2572 3713 1747 
Q 3713 922 3314 415 
Q 2916 -91 2278 -91 
Q 1894 -91 1617 61 
Q 1341 213 1159 525 
L 1159 0 
L 581 0 
L 581 4863 
L 1159 4863 
L 1159 2969 
z
" transform="scale(0.015625)"/>
       <path id="DejaVuSans-73" d="M 2834 3397 
L 2834 2853 
Q 2591 2978 2328 3040 
Q 2066 3103 1784 3103 
Q 1356 3103 1142 2972 
Q 928 2841 928 2578 
Q 928 2378 1081 2264 
Q 1234 2150 1697 2047 
L 1894 2003 
Q 2506 1872 2764 1633 
Q 3022 1394 3022 966 
Q 3022 478 2636 193 
Q 2250 -91 1575 -91 
Q 1294 -91 989 -36 
Q 684 19 347 128 
L 347 722 
Q 666 556 975 473 
Q 1284 391 1588 391 
Q 1994 391 2212 530 
Q 2431 669 2431 922 
Q 2431 1156 2273 1281 
Q 2116 1406 1581 1522 
L 1381 1569 
Q 847 1681 609 1914 
Q 372 2147 372 2553 
Q 372 3047 722 3315 
Q 1072 3584 1716 3584 
Q 2034 3584 2315 3537 
Q 2597 3491 2834 3397 
z
" transform="scale(0.015625)"/>
       <path id="DejaVuSans-6f" d="M 1959 3097 
Q 1497 3097 1228 2736 
Q 959 2375 959 1747 
Q 959 1119 1226 758 
Q 1494 397 1959 397 
Q 2419 397 2687 759 
Q 2956 1122 2956 1747 
Q 2956 2369 2687 2733 
Q 2419 3097 1959 3097 
z
M 1959 3584 
Q 2709 3584 3137 3096 
Q 3566 2609 3566 1747 
Q 3566 888 3137 398 
Q 2709 -91 1959 -91 
Q 1206 -91 779 398 
Q 353 888 353 1747 
Q 353 2609 779 3096 
Q 1206 3584 1959 3584 
z
" transform="scale(0.015625)"/>
       <path id="DejaVuSans-6c" d="M 603 4863 
L 1178 4863 
L 1178 0 
L 603 0 
L 603 4863 
z
" transform="scale(0.015625)"/>
       <path id="DejaVuSans-75" d="M 544 1381 
L 544 3500 
L 1119 3500 
L 1119 1403 
Q 1119 906 1312 657 
Q 1506 409 1894 409 
Q 2359 409 2629 706 
Q 2900 1003 2900 1516 
L 2900 3500 
L 3475 3500 
L 3475 0 
L 2900 0 
L 2900 538 
Q 2691 219 2414 64 
Q 2138 -91 1772 -91 
Q 1169 -91 856 284 
Q 544 659 544 1381 
z
M 1991 3584 
L 1991 3584 
z
" transform="scale(0.015625)"/>
       <path id="DejaVuSans-74" d="M 1172 4494 
L 1172 3500 
L 2356 3500 
L 2356 3053 
L 1172 3053 
L 1172 1153 
Q 1172 725 1289 603 
Q 1406 481 1766 481 
L 2356 481 
L 2356 0 
L 1766 0 
Q 1100 0 847 248 
Q 594 497 594 1153 
L 594 3053 
L 172 3053 
L 172 3500 
L 594 3500 
L 594 4494 
L 1172 4494 
z
" transform="scale(0.015625)"/>
       <path id="DejaVuSans-65" d="M 3597 1894 
L 3597 1613 
L 953 1613 
Q 991 1019 1311 708 
Q 1631 397 2203 397 
Q 2534 397 2845 478 
Q 3156 559 3463 722 
L 3463 178 
Q 3153 47 2828 -22 
Q 2503 -91 2169 -91 
Q 1331 -91 842 396 
Q 353 884 353 1716 
Q 353 2575 817 3079 
Q 1281 3584 2069 3584 
Q 2775 3584 3186 3129 
Q 3597 2675 3597 1894 
z
M 3022 2063 
Q 3016 2534 2758 2815 
Q 2500 3097 2075 3097 
Q 1594 3097 1305 2825 
Q 1016 2553 972 2059 
L 3022 2063 
z
" transform="scale(0.015625)"/>
       <path id="DejaVuSans-20" transform="scale(0.015625)"/>
       <path id="DejaVuSans-72" d="M 2631 2963 
Q 2534 3019 2420 3045 
Q 2306 3072 2169 3072 
Q 1681 3072 1420 2755 
Q 1159 2438 1159 1844 
L 1159 0 
L 581 0 
L 581 3500 
L 1159 3500 
L 1159 2956 
Q 1341 3275 1631 3429 
Q 1922 3584 2338 3584 
Q 2397 3584 2469 3576 
Q 2541 3569 2628 3553 
L 2631 2963 
z
" transform="scale(0.015625)"/>
      </defs>
      <use xlink:href="#DejaVuSans-41"/>
      <use xlink:href="#DejaVuSans-62" x="68.408203"/>
      <use xlink:href="#DejaVuSans-73" x="131.884766"/>
      <use xlink:href="#DejaVuSans-6f" x="183.984375"/>
      <use xlink:href="#DejaVuSans-6c" x="245.166016"/>
      <use xlink:href="#DejaVuSans-75" x="272.949219"/>
      <use xlink:href="#DejaVuSans-74" x="336.328125"/>
      <use xlink:href="#DejaVuSans-65" x="375.537109"/>
      <use xlink:href="#DejaVuSans-20" x="437.060547"/>
      <use xlink:href="#DejaVuSans-65" x="468.847656"/>
      <use xlink:href="#DejaVuSans-72" x="530.371094"/>
      <use xlink:href="#DejaVuSans-72" x="569.734375"/>
      <use xlink:href="#DejaVuSans-6f" x="608.597656"/>
      <use xlink:href="#DejaVuSans-72" x="669.779297"/>
     </g>
    </g>
   </g>
   <g id="line2d_12">
    <path d="M 75.468182 208.664648 
L 75.794945 220.296509 
L 76.121709 223.343152 
L 76.448473 219.277097 
L 77.428764 196.451445 
L 77.755527 191.910758 
L 78.082291 189.460182 
L 78.409055 188.477278 
L 78.735818 188.252814 
L 79.062582 188.207178 
L 79.389345 187.959884 
L 79.716109 187.339224 
L 80.369637 185.022378 
L 82.330219 176.00267 
L 82.656982 175.368316 
L 82.983746 175.418736 
L 83.310509 176.252325 
L 83.637273 177.873071 
L 84.2908 183.37205 
L 84.944328 191.777006 
L 85.924619 208.443649 
L 86.578146 220.314474 
L 86.904909 221.165945 
L 87.558437 211.665274 
L 88.211964 204.820926 
L 88.865491 200.76076 
L 89.192256 199.730412 
L 89.519019 199.323811 
L 89.845783 199.500549 
L 90.172546 200.214591 
L 90.826073 203.023136 
L 91.479601 207.226691 
L 93.440183 222.047891 
L 93.766946 222.969359 
L 94.420473 219.895189 
L 94.747238 218.918944 
L 95.074001 218.362138 
L 95.400765 218.249408 
L 95.727528 218.597197 
L 96.054291 219.414677 
L 96.381056 220.703804 
L 96.70782 222.457853 
L 97.034582 222.363891 
L 97.68811 216.692026 
L 98.668401 205.59173 
L 101.28251 173.149895 
L 101.936036 168.211573 
L 102.262801 166.73391 
L 102.589565 166.021702 
L 102.916329 166.137459 
L 103.243091 167.132105 
L 103.569855 169.042809 
L 104.223384 175.677285 
L 104.87691 185.957503 
L 105.857201 206.600712 
L 106.510729 221.431265 
L 106.837491 218.659126 
L 107.49102 206.78934 
L 108.144546 198.2752 
L 108.798075 193.138316 
L 109.124839 191.735694 
L 109.451601 191.10724 
L 109.778365 191.240313 
L 110.105129 192.032422 
L 110.758655 194.807015 
L 111.738948 199.093406 
L 112.06571 200.02014 
L 112.392475 200.542749 
L 112.719239 200.590307 
L 113.046001 200.106224 
L 113.372765 199.054242 
L 114.026294 195.324019 
L 114.67982 190.719996 
L 115.006584 189.343887 
L 115.333348 189.688739 
L 115.66011 192.502894 
L 116.313636 203.277131 
L 116.640401 205.933174 
L 116.967165 201.737956 
L 117.293929 188.474607 
L 117.947458 141.625348 
L 118.600982 95.240889 
L 119.25451 67.778579 
L 119.581274 60.684575 
L 119.908039 56.769648 
L 120.234803 55.1246 
L 120.561567 55.226174 
L 120.888332 57.332108 
L 121.215091 62.481846 
L 121.541855 71.758552 
L 122.195384 101.983106 
L 123.829201 189.305369 
L 124.482729 217.655875 
L 124.809494 217.348633 
L 125.463022 198.383819 
L 126.116546 186.778773 
L 126.44331 183.72765 
L 126.770074 182.403463 
L 127.096839 182.68425 
L 127.423603 184.431544 
L 127.750367 187.504522 
L 128.403891 197.082557 
L 129.05742 210.393112 
L 129.384184 218.147192 
L 129.710948 220.549778 
L 131.671529 164.878135 
L 132.978586 130.071158 
L 133.958874 109.028378 
L 134.612403 98.265541 
L 135.265932 90.467078 
L 135.919455 85.82446 
L 136.24622 84.72173 
L 136.572984 84.439904 
L 136.899748 84.978553 
L 137.226513 86.332726 
L 137.553277 88.49197 
L 138.206801 95.15903 
L 138.860329 104.793156 
L 139.840622 124.176277 
L 141.147674 156.99494 
L 143.43502 219.494518 
L 143.761784 219.654536 
L 144.742077 200.081503 
L 145.395605 191.682798 
L 145.722365 189.277859 
L 146.049129 188.250782 
L 146.375893 188.72952 
L 146.702658 190.830136 
L 147.029422 194.648059 
L 147.682951 207.677246 
L 148.009715 216.945715 
L 148.336474 218.966063 
L 148.990003 191.073066 
L 149.643532 154.701891 
L 150.62382 82.024831 
L 151.277348 36.466479 
L 151.604112 23.097526 
L 151.930877 17.5 
L 152.257641 18.149148 
L 152.584405 22.710153 
L 153.237929 37.933077 
L 153.564693 48.912038 
L 154.218222 83.513804 
L 155.525274 179.878987 
L 155.852039 192.643786 
L 156.178803 197.743539 
L 156.505567 197.275616 
L 156.832331 194.869046 
L 157.159091 193.885661 
L 157.48586 195.76751 
L 158.139389 205.577196 
L 159.119677 220.808217 
L 159.446436 222.744614 
L 160.099965 218.254054 
L 160.426734 217.013776 
L 160.753493 216.285188 
L 161.080262 215.969421 
L 161.407022 215.991273 
L 161.733781 216.294229 
L 162.38731 217.5616 
L 164.674655 223.443084 
L 166.308482 219.551586 
L 166.635241 219.116681 
L 166.962 218.891617 
L 167.28877 218.886941 
L 167.615529 219.093573 
L 168.269058 219.99557 
L 169.249346 221.614697 
L 169.576115 221.92868 
L 169.902874 222.020564 
L 170.229643 221.843459 
L 170.556403 221.367166 
L 170.883172 220.579734 
L 171.536691 218.093792 
L 172.190219 214.545162 
L 173.170517 207.88345 
L 175.131093 194.118274 
L 176.111391 189.129762 
L 176.76491 187.010562 
L 177.091679 186.357225 
L 177.418438 185.984554 
L 177.745208 185.893282 
L 178.071967 186.081023 
L 178.398736 186.53867 
L 179.052255 188.211106 
L 179.705784 190.75378 
L 180.686081 195.674434 
L 182.319898 204.04034 
L 182.973427 206.322431 
L 183.300186 207.058481 
L 183.626955 207.486876 
L 183.953715 207.595908 
L 184.280474 207.391354 
L 184.607243 206.896813 
L 185.260772 205.245316 
L 186.567819 201.478959 
L 186.894589 200.920686 
L 187.221348 200.635069 
L 187.548117 200.645095 
L 187.874877 200.949648 
L 188.201646 201.526215 
L 188.855165 203.316883 
L 190.162222 208.067234 
L 191.14251 212.443996 
L 192.449567 218.844919 
L 193.103096 221.264011 
L 193.756624 223.033599 
L 194.083384 223.310401 
L 194.410153 222.796809 
L 194.736912 222.547857 
L 195.063681 222.711149 
L 195.390441 223.461627 
L 195.71721 222.057691 
L 196.043969 219.67614 
L 196.697498 212.627217 
L 197.351027 205.946749 
L 197.677786 204.658532 
L 198.004555 204.891948 
L 198.331315 205.357361 
L 198.658074 204.005448 
L 198.984843 199.03133 
L 199.311603 189.62177 
L 199.965131 159.234727 
L 201.925717 45.566281 
L 202.252476 33.502777 
L 202.579246 25.849859 
L 202.906005 23.442963 
L 203.232774 26.981108 
L 203.559534 36.770421 
L 204.213062 73.268907 
L 205.846879 187.231453 
L 206.500407 215.696922 
L 206.827167 220.834814 
L 207.480696 205.360981 
L 208.134224 195.371332 
L 208.787753 189.548314 
L 209.114512 188.074625 
L 209.441281 187.570271 
L 209.768041 188.044333 
L 210.09481 189.48119 
L 210.421569 191.836397 
L 211.075098 199.017531 
L 211.728627 208.885585 
L 212.382155 220.63295 
L 212.708915 220.078681 
L 214.99626 176.662761 
L 215.976548 162.530691 
L 216.630076 155.53091 
L 217.283605 150.67946 
L 217.610374 149.092245 
L 217.937134 148.073909 
L 218.263893 147.628153 
L 218.590662 147.754975 
L 218.917422 148.451899 
L 219.244191 149.713761 
L 219.897719 153.895124 
L 220.551248 160.19306 
L 221.204767 168.437004 
L 222.185065 183.851721 
L 224.47241 222.567619 
L 225.125938 213.657011 
L 225.779457 207.787348 
L 226.106226 206.23342 
L 226.432986 205.666222 
L 226.759755 206.080311 
L 227.086514 207.424856 
L 227.413284 209.626251 
L 228.066802 216.45281 
L 228.393572 221.188243 
L 228.720331 220.023218 
L 229.37386 204.151404 
L 230.027388 180.069774 
L 230.680917 144.942541 
L 231.661205 84.330001 
L 232.314734 57.572395 
L 232.641503 50.133474 
L 232.968262 45.967501 
L 233.295022 44.696164 
L 233.621791 46.492563 
L 233.94855 51.86307 
L 234.275319 61.103081 
L 234.928848 89.621507 
L 236.562665 174.459891 
L 237.216193 196.209277 
L 237.869712 208.739939 
L 238.84999 222.221098 
L 239.176759 219.945043 
L 239.830278 211.593093 
L 240.157038 208.775235 
L 240.483817 206.929394 
L 240.810576 205.895806 
L 241.137335 205.462138 
L 241.464095 205.435967 
L 241.790874 205.688283 
L 242.117633 206.176079 
L 242.444393 206.922535 
L 243.097912 209.357377 
L 243.75145 213.036217 
L 245.058507 222.392379 
L 245.385266 222.261186 
L 246.365564 215.975707 
L 247.019083 212.842496 
L 247.672602 210.595602 
L 248.32614 209.144104 
L 248.6529 208.744397 
L 248.979659 208.609108 
L 249.306438 208.778601 
L 249.633198 209.284956 
L 249.959957 210.141012 
L 250.613476 212.87505 
L 251.267014 216.803717 
L 251.920533 221.602898 
L 252.247292 222.843546 
L 253.55435 213.027915 
L 254.207888 209.293011 
L 254.861407 206.656863 
L 255.514945 205.053998 
L 256.168464 204.253574 
L 256.822002 203.933172 
L 257.802281 203.602255 
L 258.455819 203.042454 
L 259.109338 201.951736 
L 259.762857 200.206307 
L 260.416395 197.774774 
L 261.396693 193.010837 
L 263.684028 180.809798 
L 264.337567 178.644655 
L 264.664326 178.023017 
L 264.991085 177.759133 
L 265.317845 177.879811 
L 265.644604 178.39902 
L 265.971383 179.316546 
L 266.624902 182.260624 
L 267.6052 188.66536 
L 269.239016 200.040436 
L 269.892535 203.629169 
L 270.546074 206.297596 
L 271.199593 208.08967 
L 271.853111 209.125764 
L 272.17989 209.316769 
L 272.50665 209.230043 
L 272.833409 208.826889 
L 273.160169 208.093628 
L 273.813707 205.698646 
L 274.793985 200.437676 
L 275.774283 194.924816 
L 276.427821 192.399977 
L 276.754581 191.867036 
L 277.08134 191.994345 
L 277.4081 192.831879 
L 277.734859 194.336201 
L 278.388397 199.282804 
L 279.041916 208.133966 
L 279.695455 221.867592 
L 280.022214 217.256341 
L 280.675733 200.045975 
L 281.329271 176.443283 
L 282.636328 120.764014 
L 282.963088 113.792866 
L 283.289847 111.226839 
L 283.616607 112.731997 
L 283.943386 117.545117 
L 285.577202 151.056318 
L 286.230721 161.202783 
L 286.88424 177.809645 
L 287.864538 216.111324 
L 288.191297 218.310434 
L 288.844835 199.296393 
L 289.171595 193.518537 
L 289.498354 190.05794 
L 289.825114 188.565544 
L 290.151893 188.639424 
L 290.478652 189.886628 
L 291.132171 194.487293 
L 292.439228 204.932862 
L 294.726583 220.564603 
L 295.053342 223.254456 
L 295.706861 218.161039 
L 297.340678 204.90205 
L 298.320976 198.966424 
L 298.974495 196.241999 
L 299.628033 194.593222 
L 299.954792 194.173998 
L 300.281552 194.017404 
L 300.608331 194.112558 
L 300.93509 194.44424 
L 301.588609 195.734589 
L 302.242147 197.688759 
L 305.509781 209.439946 
L 306.163299 212.3051 
L 306.816838 216.623128 
L 307.470357 222.846603 
L 307.797116 220.456243 
L 309.104173 205.389989 
L 309.430933 202.894281 
L 309.757712 201.57338 
L 310.084471 201.783741 
L 310.41123 203.829398 
L 310.73799 207.879843 
L 311.391528 221.545005 
L 311.718288 216.783176 
L 312.698585 192.020241 
L 313.352104 181.630839 
L 314.985921 163.381004 
L 315.639459 151.156776 
L 316.619738 131.281254 
L 316.946497 126.550787 
L 317.273276 124.188022 
L 317.600035 125.124889 
L 317.926795 129.889506 
L 318.253554 138.361395 
L 319.233852 176.46815 
L 319.887371 199.786101 
L 320.540909 216.321555 
L 320.867669 223.09682 
L 321.521187 210.244168 
L 322.501485 189.681349 
L 323.155023 180.846134 
L 323.481783 178.629746 
L 323.808542 177.577261 
L 324.135302 177.395457 
L 324.462061 177.869984 
L 324.78884 178.868695 
L 325.442359 182.106949 
L 326.422657 188.886465 
L 327.402935 195.709914 
L 328.056473 199.041526 
L 328.709992 201.035006 
L 329.036752 201.582619 
L 329.363531 201.865859 
L 329.69029 201.897755 
L 330.017049 201.69661 
L 330.670588 200.725883 
L 331.650866 198.47474 
L 332.631164 196.118142 
L 333.284683 195.052306 
L 333.611442 194.800007 
L 333.938221 194.765895 
L 334.26498 194.956066 
L 334.59174 195.363339 
L 335.245278 196.759343 
L 335.898797 198.771682 
L 337.205854 203.790883 
L 338.512911 208.754453 
L 339.49319 211.618507 
L 340.146728 212.911944 
L 340.800247 213.657867 
L 341.127006 213.825954 
L 341.453785 213.863582 
L 342.107304 213.584935 
L 342.760842 212.923865 
L 345.048178 209.921618 
L 345.701697 209.634718 
L 346.028476 209.692489 
L 346.355235 209.904547 
L 346.681995 210.282812 
L 347.335533 211.5569 
L 347.989052 213.462667 
L 349.622868 218.691756 
L 349.949628 219.3137 
L 350.276407 219.682397 
L 350.603166 219.770002 
L 350.929926 219.54558 
L 351.256685 218.978442 
L 351.583444 218.039245 
L 352.236983 214.948859 
L 352.890502 210.109299 
L 353.54404 203.441199 
L 356.158135 172.220727 
L 356.811673 167.887836 
L 357.138433 166.735259 
L 357.465192 166.323695 
L 357.791971 166.672815 
L 358.11873 167.784191 
L 358.44549 169.660982 
L 359.099009 175.831163 
L 359.752547 185.484648 
L 361.713123 219.452195 
L 362.039882 222.081857 
L 362.693421 207.506975 
L 363.673699 176.419972 
L 364.653997 145.92661 
L 365.307535 134.436518 
L 365.634295 132.210968 
L 365.961054 132.297006 
L 366.287814 134.435089 
L 366.941352 143.239042 
L 367.92163 162.226402 
L 369.555447 197.266891 
L 370.535745 220.788551 
L 371.516042 192.195191 
L 372.169561 181.397782 
L 372.496321 179.353608 
L 372.82308 179.35801 
L 373.149859 181.039432 
L 373.803378 187.565793 
L 374.783676 198.801852 
L 375.437194 204.211147 
L 376.090733 207.421264 
L 376.417492 208.337078 
L 376.744252 208.905346 
L 377.071011 209.211321 
L 377.724549 209.339426 
L 379.358366 209.158318 
L 380.011885 209.404656 
L 380.665423 209.911394 
L 381.645701 211.104082 
L 383.279518 213.732221 
L 384.259816 215.094326 
L 384.913354 215.532701 
L 385.240114 215.512267 
L 385.566873 215.28112 
L 385.893632 214.798256 
L 386.220392 214.022026 
L 386.87393 211.432309 
L 387.527449 207.255806 
L 388.180987 201.45799 
L 389.814804 184.661804 
L 390.141563 182.457001 
L 390.468323 181.185526 
L 390.795082 181.039661 
L 391.121861 182.161373 
L 391.448621 184.624787 
L 392.10214 193.517124 
L 392.755678 206.881056 
L 393.409197 222.925878 
L 395.696552 174.037625 
L 397.003609 152.972624 
L 397.657128 145.465394 
L 397.983887 143.730213 
L 398.310647 143.879158 
L 398.637426 146.157252 
L 398.964185 150.706213 
L 399.617704 166.722188 
L 400.598002 203.5182 
L 400.924761 216.080669 
L 401.25152 219.599976 
L 401.905059 201.413855 
L 402.231818 194.509561 
L 402.231818 194.509561 
" clip-path="url(#pd0e0698c2c)" style="fill: none; stroke: #0077bb; stroke-width: 2; stroke-linecap: square"/>
   </g>
   <g id="line2d_13">
    <path d="M 75.468182 211.19589 
L 77.102 198.682354 
L 79.389345 183.263782 
L 81.023164 173.324493 
L 82.003455 168.221477 
L 82.983746 164.273782 
L 83.637273 162.536392 
L 83.964037 161.994701 
L 84.2908 161.694626 
L 84.617564 161.653575 
L 84.944328 161.887106 
L 85.271091 162.408088 
L 85.597855 163.228472 
L 86.251382 165.797739 
L 86.904909 169.627797 
L 87.558437 174.708041 
L 88.538728 184.518201 
L 89.845783 200.982797 
L 91.152836 219.881923 
L 91.479601 222.258802 
L 93.766946 189.675809 
L 95.074001 174.693277 
L 96.054291 166.151672 
L 96.70782 161.880442 
L 97.361346 158.764273 
L 98.014875 156.764161 
L 98.341636 156.159976 
L 98.668401 155.803811 
L 98.995165 155.679771 
L 99.321929 155.771899 
L 99.648691 156.061245 
L 100.30222 157.1556 
L 100.955746 158.799547 
L 101.936036 161.934974 
L 104.87691 171.893688 
L 106.510729 176.276335 
L 107.817784 179.761446 
L 108.798075 183.04448 
L 109.778365 187.474437 
L 110.758655 193.508397 
L 111.738948 201.433223 
L 112.719239 211.286509 
L 113.699529 222.808136 
L 114.026294 220.097064 
L 117.293929 179.125151 
L 118.274222 170.242875 
L 118.927746 166.05233 
L 119.581274 163.477786 
L 119.908039 162.84289 
L 120.234803 162.659064 
L 120.561567 162.934594 
L 120.888332 163.672341 
L 121.215091 164.871991 
L 121.86862 168.638577 
L 122.522148 174.153909 
L 123.502436 185.396784 
L 124.482729 199.601985 
L 125.789786 221.676595 
L 126.116546 219.508029 
L 128.730655 173.730635 
L 130.037713 154.790611 
L 131.018001 143.559948 
L 131.998293 135.221919 
L 132.651822 131.300679 
L 133.305346 128.638733 
L 133.958874 127.143891 
L 134.285639 126.794634 
L 134.612403 126.685083 
L 134.939167 126.795979 
L 135.265932 127.104277 
L 135.919455 128.222474 
L 136.572984 129.854744 
L 137.880041 133.957612 
L 139.840622 140.210003 
L 141.474439 144.595645 
L 143.10826 148.962091 
L 144.088548 152.223484 
L 145.068841 156.374127 
L 146.049129 161.612524 
L 147.029422 167.954674 
L 148.663239 180.379386 
L 150.950584 198.102826 
L 151.930877 204.266527 
L 152.91117 208.876694 
L 153.564693 210.946915 
L 154.218222 212.183912 
L 154.544986 212.497918 
L 154.871751 212.618074 
L 155.198515 212.557935 
L 155.525274 212.333004 
L 156.178803 211.460052 
L 157.159091 209.437959 
L 158.466148 206.522019 
L 159.119677 205.457385 
L 159.773205 204.907814 
L 160.099965 204.870811 
L 160.426734 205.008022 
L 160.753493 205.326876 
L 161.407022 206.51718 
L 162.060551 208.40502 
L 163.040839 212.293599 
L 165.328184 222.603596 
L 165.654953 223.279888 
L 166.308482 221.549681 
L 166.635241 221.016412 
L 166.962 220.730978 
L 167.28877 220.713525 
L 167.615529 220.974352 
L 167.942298 221.523608 
L 168.595827 223.5 
L 169.249346 220.395354 
L 169.902874 216.182812 
L 170.883172 208.128811 
L 172.190219 195.132147 
L 175.131093 165.031275 
L 176.111391 157.18201 
L 177.091679 151.270195 
L 177.745208 148.543692 
L 178.398736 146.842646 
L 178.725496 146.379252 
L 179.052255 146.171275 
L 179.379024 146.214925 
L 179.705784 146.505279 
L 180.032553 147.036501 
L 180.686081 148.779332 
L 181.3396 151.362873 
L 182.319898 156.590938 
L 183.626955 165.484245 
L 185.587531 181.030521 
L 188.528405 204.249448 
L 190.488991 217.781628 
L 191.14251 221.917584 
L 191.469279 223.10461 
L 193.429865 211.823404 
L 195.063681 203.43139 
L 196.370729 197.684797 
L 197.351027 194.239197 
L 198.004555 192.491277 
L 198.658074 191.272056 
L 199.311603 190.655931 
L 199.638372 190.594993 
L 199.965131 190.708526 
L 200.2919 191.002227 
L 200.945419 192.150068 
L 201.598948 194.063885 
L 202.252476 196.748297 
L 203.232774 202.178917 
L 204.213062 209.148193 
L 205.520119 220.378053 
L 205.846879 223.444598 
L 207.480696 207.450257 
L 209.768041 185.635847 
L 211.075098 175.374704 
L 212.055386 169.314762 
L 213.035684 164.876729 
L 213.689203 162.863962 
L 214.342731 161.608978 
L 214.6695 161.259507 
L 214.99626 161.089739 
L 215.323029 161.093254 
L 215.649788 161.264153 
L 216.303317 162.072433 
L 216.956846 163.441798 
L 217.937134 166.357968 
L 219.244191 171.346542 
L 222.511824 184.588413 
L 223.492112 187.72332 
L 224.47241 190.218829 
L 225.452698 192.066229 
L 226.432986 193.342273 
L 227.413284 194.195211 
L 230.027388 196.116843 
L 230.680917 196.942744 
L 231.334445 198.070432 
L 231.987974 199.577715 
L 232.641503 201.535324 
L 233.295022 204.007427 
L 234.275319 208.794752 
L 235.255607 214.987938 
L 236.235895 222.645926 
L 236.562665 221.505689 
L 237.869712 208.485032 
L 239.503519 189.381454 
L 243.42469 141.428597 
L 244.404969 132.179904 
L 245.385266 125.307602 
L 246.038785 122.328854 
L 246.365564 121.373066 
L 246.692324 120.791348 
L 247.019083 120.596331 
L 247.345843 120.797232 
L 247.672602 121.400485 
L 247.999381 122.410353 
L 248.6529 125.65177 
L 249.306438 130.498054 
L 249.959957 136.883503 
L 250.940255 149.100284 
L 252.247292 169.460169 
L 254.207888 205.297188 
L 255.188166 223.167066 
L 257.148762 188.691831 
L 258.455819 169.820644 
L 259.436097 158.689476 
L 260.416395 150.513084 
L 261.069914 146.797284 
L 261.723452 144.494499 
L 262.050212 143.870966 
L 262.376971 143.595069 
L 262.70373 143.663508 
L 263.030509 144.068305 
L 263.357269 144.803011 
L 264.010788 147.223264 
L 264.664326 150.838957 
L 265.644604 158.274194 
L 266.624902 167.749525 
L 267.931959 182.720686 
L 271.199593 223.313099 
L 272.50665 209.043004 
L 273.486947 200.281639 
L 274.467226 193.611132 
L 275.120764 190.451225 
L 275.774283 188.36295 
L 276.101042 187.721654 
L 276.427821 187.343989 
L 276.754581 187.225275 
L 277.08134 187.357763 
L 277.4081 187.730667 
L 278.061638 189.148538 
L 278.715157 191.360291 
L 279.695455 195.84356 
L 281.329271 204.982326 
L 282.963088 213.751841 
L 283.943386 217.780241 
L 284.596904 219.699736 
L 285.250423 220.917222 
L 285.577202 221.250661 
L 285.903962 221.398245 
L 286.230721 221.361565 
L 286.55748 221.144724 
L 287.211019 220.193835 
L 287.864538 218.618227 
L 288.844835 215.311932 
L 290.478652 208.428916 
L 291.785709 203.080892 
L 292.765988 199.948965 
L 293.419526 198.511619 
L 294.073045 197.699916 
L 294.399804 197.548396 
L 294.726583 197.571046 
L 295.053342 197.772604 
L 295.380102 198.150777 
L 296.03364 199.432813 
L 296.687159 201.376865 
L 297.667457 205.384304 
L 298.974495 212.225962 
L 300.93509 223.418203 
L 302.242147 216.678913 
L 303.222426 212.761158 
L 303.875964 210.864025 
L 304.529483 209.612587 
L 304.856242 209.241414 
L 305.183021 209.042607 
L 305.509781 209.019896 
L 305.83654 209.169062 
L 306.163299 209.491115 
L 306.816838 210.633031 
L 307.470357 212.401233 
L 308.450654 216.083088 
L 309.430933 220.740958 
L 309.757712 222.451129 
L 310.084471 222.809296 
L 313.352104 205.176839 
L 314.332402 201.091424 
L 315.31268 198.052513 
L 315.966219 196.685757 
L 316.619738 195.871468 
L 316.946497 195.672175 
L 317.273276 195.609408 
L 317.600035 195.680761 
L 318.253554 196.206052 
L 318.907092 197.204899 
L 319.560611 198.617742 
L 320.540909 201.362285 
L 321.847966 205.790025 
L 325.442359 218.400224 
L 327.076176 223.216683 
L 327.402935 222.911206 
L 330.997347 212.96834 
L 332.631164 207.677934 
L 337.532614 190.931373 
L 338.512911 188.602178 
L 339.16643 187.456104 
L 339.819969 186.682121 
L 340.473487 186.313729 
L 341.127006 186.371408 
L 341.780545 186.868273 
L 342.434064 187.805056 
L 343.087602 189.17225 
L 344.06788 191.984891 
L 345.048178 195.614691 
L 346.355235 201.466029 
L 348.315811 211.525095 
L 350.603166 223.301942 
L 351.256685 220.661882 
L 352.563742 215.227575 
L 353.54404 211.883545 
L 354.524318 209.244486 
L 355.504616 207.348687 
L 356.158135 206.499226 
L 356.811673 205.975241 
L 357.465192 205.767406 
L 358.11873 205.860096 
L 358.772249 206.23937 
L 359.425788 206.883878 
L 360.406066 208.30857 
L 361.386364 210.219997 
L 362.693421 213.406866 
L 364.327237 218.198932 
L 365.961054 223.423812 
L 370.208985 209.054077 
L 371.516042 205.459414 
L 372.496321 203.341551 
L 373.149859 202.283907 
L 373.803378 201.558433 
L 374.456916 201.210521 
L 375.110435 201.27789 
L 375.763954 201.800537 
L 376.417492 202.814349 
L 377.071011 204.350349 
L 377.724549 206.433542 
L 378.704828 210.629134 
L 379.685125 216.141715 
L 380.665423 222.96861 
L 380.992183 221.497993 
L 382.29924 209.907099 
L 383.933056 192.764942 
L 386.220392 165.524349 
L 389.161266 130.565821 
L 390.468323 117.469448 
L 391.448621 109.50166 
L 392.428899 103.600399 
L 393.082437 101.021113 
L 393.409197 100.183077 
L 393.735956 99.664686 
L 394.062735 99.480169 
L 394.389494 99.643556 
L 394.716254 100.166907 
L 395.043013 101.063127 
L 395.696552 104.020525 
L 396.350071 108.602467 
L 397.003609 114.883897 
L 397.657128 122.928621 
L 398.637426 138.406466 
L 399.617704 158.06851 
L 400.598002 181.949602 
L 401.905059 220.270081 
L 402.231818 216.049357 
L 402.231818 216.049357 
" clip-path="url(#pd0e0698c2c)" style="fill: none; stroke: #ee7733; stroke-width: 2; stroke-linecap: square"/>
   </g>
   <g id="patch_3">
    <path d="M 59.13 233.8 
L 59.13 7.2 
" style="fill: none; stroke: #000000; stroke-width: 0.8; stroke-linejoin: miter; stroke-linecap: square"/>
   </g>
   <g id="patch_4">
    <path d="M 418.57 233.8 
L 418.57 7.2 
" style="fill: none; stroke: #000000; stroke-width: 0.8; stroke-linejoin: miter; stroke-linecap: square"/>
   </g>
   <g id="patch_5">
    <path d="M 59.13 233.8 
L 418.57 233.8 
" style="fill: none; stroke: #000000; stroke-width: 0.8; stroke-linejoin: miter; stroke-linecap: square"/>
   </g>
   <g id="patch_6">
    <path d="M 59.13 7.2 
L 418.57 7.2 
" style="fill: none; stroke: #000000; stroke-width: 0.8; stroke-linejoin: miter; stroke-linecap: square"/>
   </g>
   <g id="legend_1">
    <g id="patch_7">
     <path d="M 301.518438 44.55625 
L 411.57 44.55625 
Q 413.57 44.55625 413.57 42.55625 
L 413.57 14.2 
Q 413.57 12.2 411.57 12.2 
L 301.518438 12.2 
Q 299.518438 12.2 299.518438 14.2 
L 299.518438 42.55625 
Q 299.518438 44.55625 301.518438 44.55625 
z
" style="fill: #ffffff; opacity: 0.8; stroke: #cccccc; stroke-linejoin: miter"/>
    </g>
    <g id="line2d_14">
     <path d="M 303.518438 20.298437 
L 313.518438 20.298437 
L 323.518438 20.298437 
" style="fill: none; stroke: #0077bb; stroke-width: 2; stroke-linecap: square"/>
    </g>
    <g id="text_14">
     <!-- Meng's MF-BNN -->
     <g transform="translate(331.518438 23.798437) scale(0.1 -0.1)">
      <defs>
       <path id="DejaVuSans-4d" d="M 628 4666 
L 1569 4666 
L 2759 1491 
L 3956 4666 
L 4897 4666 
L 4897 0 
L 4281 0 
L 4281 4097 
L 3078 897 
L 2444 897 
L 1241 4097 
L 1241 0 
L 628 0 
L 628 4666 
z
" transform="scale(0.015625)"/>
       <path id="DejaVuSans-6e" d="M 3513 2113 
L 3513 0 
L 2938 0 
L 2938 2094 
Q 2938 2591 2744 2837 
Q 2550 3084 2163 3084 
Q 1697 3084 1428 2787 
Q 1159 2491 1159 1978 
L 1159 0 
L 581 0 
L 581 3500 
L 1159 3500 
L 1159 2956 
Q 1366 3272 1645 3428 
Q 1925 3584 2291 3584 
Q 2894 3584 3203 3211 
Q 3513 2838 3513 2113 
z
" transform="scale(0.015625)"/>
       <path id="DejaVuSans-67" d="M 2906 1791 
Q 2906 2416 2648 2759 
Q 2391 3103 1925 3103 
Q 1463 3103 1205 2759 
Q 947 2416 947 1791 
Q 947 1169 1205 825 
Q 1463 481 1925 481 
Q 2391 481 2648 825 
Q 2906 1169 2906 1791 
z
M 3481 434 
Q 3481 -459 3084 -895 
Q 2688 -1331 1869 -1331 
Q 1566 -1331 1297 -1286 
Q 1028 -1241 775 -1147 
L 775 -588 
Q 1028 -725 1275 -790 
Q 1522 -856 1778 -856 
Q 2344 -856 2625 -561 
Q 2906 -266 2906 331 
L 2906 616 
Q 2728 306 2450 153 
Q 2172 0 1784 0 
Q 1141 0 747 490 
Q 353 981 353 1791 
Q 353 2603 747 3093 
Q 1141 3584 1784 3584 
Q 2172 3584 2450 3431 
Q 2728 3278 2906 2969 
L 2906 3500 
L 3481 3500 
L 3481 434 
z
" transform="scale(0.015625)"/>
       <path id="DejaVuSans-27" d="M 1147 4666 
L 1147 2931 
L 616 2931 
L 616 4666 
L 1147 4666 
z
" transform="scale(0.015625)"/>
       <path id="DejaVuSans-46" d="M 628 4666 
L 3309 4666 
L 3309 4134 
L 1259 4134 
L 1259 2759 
L 3109 2759 
L 3109 2228 
L 1259 2228 
L 1259 0 
L 628 0 
L 628 4666 
z
" transform="scale(0.015625)"/>
       <path id="DejaVuSans-2d" d="M 313 2009 
L 1997 2009 
L 1997 1497 
L 313 1497 
L 313 2009 
z
" transform="scale(0.015625)"/>
       <path id="DejaVuSans-42" d="M 1259 2228 
L 1259 519 
L 2272 519 
Q 2781 519 3026 730 
Q 3272 941 3272 1375 
Q 3272 1813 3026 2020 
Q 2781 2228 2272 2228 
L 1259 2228 
z
M 1259 4147 
L 1259 2741 
L 2194 2741 
Q 2656 2741 2882 2914 
Q 3109 3088 3109 3444 
Q 3109 3797 2882 3972 
Q 2656 4147 2194 4147 
L 1259 4147 
z
M 628 4666 
L 2241 4666 
Q 2963 4666 3353 4366 
Q 3744 4066 3744 3513 
Q 3744 3084 3544 2831 
Q 3344 2578 2956 2516 
Q 3422 2416 3680 2098 
Q 3938 1781 3938 1306 
Q 3938 681 3513 340 
Q 3088 0 2303 0 
L 628 0 
L 628 4666 
z
" transform="scale(0.015625)"/>
       <path id="DejaVuSans-4e" d="M 628 4666 
L 1478 4666 
L 3547 763 
L 3547 4666 
L 4159 4666 
L 4159 0 
L 3309 0 
L 1241 3903 
L 1241 0 
L 628 0 
L 628 4666 
z
" transform="scale(0.015625)"/>
      </defs>
      <use xlink:href="#DejaVuSans-4d"/>
      <use xlink:href="#DejaVuSans-65" x="86.279297"/>
      <use xlink:href="#DejaVuSans-6e" x="147.802734"/>
      <use xlink:href="#DejaVuSans-67" x="211.181641"/>
      <use xlink:href="#DejaVuSans-27" x="274.658203"/>
      <use xlink:href="#DejaVuSans-73" x="302.148438"/>
      <use xlink:href="#DejaVuSans-20" x="354.248047"/>
      <use xlink:href="#DejaVuSans-4d" x="386.035156"/>
      <use xlink:href="#DejaVuSans-46" x="472.314453"/>
      <use xlink:href="#DejaVuSans-2d" x="529.833984"/>
      <use xlink:href="#DejaVuSans-42" x="562.292969"/>
      <use xlink:href="#DejaVuSans-4e" x="630.896484"/>
      <use xlink:href="#DejaVuSans-4e" x="705.701172"/>
     </g>
    </g>
    <g id="line2d_15">
     <path d="M 303.518438 34.976562 
L 313.518438 34.976562 
L 323.518438 34.976562 
" style="fill: none; stroke: #ee7733; stroke-width: 2; stroke-linecap: square"/>
    </g>
    <g id="text_15">
     <!-- MF-DNN-BNN -->
     <g transform="translate(331.518438 38.476562) scale(0.1 -0.1)">
      <defs>
       <path id="DejaVuSans-44" d="M 1259 4147 
L 1259 519 
L 2022 519 
Q 2988 519 3436 956 
Q 3884 1394 3884 2338 
Q 3884 3275 3436 3711 
Q 2988 4147 2022 4147 
L 1259 4147 
z
M 628 4666 
L 1925 4666 
Q 3281 4666 3915 4102 
Q 4550 3538 4550 2338 
Q 4550 1131 3912 565 
Q 3275 0 1925 0 
L 628 0 
L 628 4666 
z
" transform="scale(0.015625)"/>
      </defs>
      <use xlink:href="#DejaVuSans-4d"/>
      <use xlink:href="#DejaVuSans-46" x="86.279297"/>
      <use xlink:href="#DejaVuSans-2d" x="143.798828"/>
      <use xlink:href="#DejaVuSans-44" x="179.882812"/>
      <use xlink:href="#DejaVuSans-4e" x="256.884766"/>
      <use xlink:href="#DejaVuSans-4e" x="331.689453"/>
      <use xlink:href="#DejaVuSans-2d" x="406.494141"/>
      <use xlink:href="#DejaVuSans-42" x="438.953125"/>
      <use xlink:href="#DejaVuSans-4e" x="507.556641"/>
      <use xlink:href="#DejaVuSans-4e" x="582.361328"/>
     </g>
    </g>
   </g>
  </g>
 </g>
 <defs>
  <clipPath id="pd0e0698c2c">
   <rect x="59.13" y="7.2" width="359.44" height="226.6"/>
  </clipPath>
 </defs>
</svg>
