<?xml version="1.0" encoding="utf-8" standalone="no"?>
<!DOCTYPE svg PUBLIC "-//W3C//DTD SVG 1.1//EN"
  "http://www.w3.org/Graphics/SVG/1.1/DTD/svg11.dtd">
<svg xmlns:xlink="http://www.w3.org/1999/xlink" width="423.6225pt" height="278.1075pt" viewBox="0 0 423.6225 278.1075" xmlns="http://www.w3.org/2000/svg" version="1.1">
 <metadata>
  <rdf:RDF xmlns:dc="http://purl.org/dc/elements/1.1/" xmlns:cc="http://creativecommons.org/ns#" xmlns:rdf="http://www.w3.org/1999/02/22-rdf-syntax-ns#">
   <cc:Work>
    <dc:type rdf:resource="http://purl.org/dc/dcmitype/StillImage"/>
    <dc:date>2024-02-14T11:00:06.882282</dc:date>
    <dc:format>image/svg+xml</dc:format>
    <dc:creator>
     <cc:Agent>
      <dc:title>Matplotlib v3.8.2, https://matplotlib.org/</dc:title>
     </cc:Agent>
    </dc:creator>
   </cc:Work>
  </rdf:RDF>
 </metadata>
 <defs>
  <style type="text/css">*{stroke-linejoin: round; stroke-linecap: butt}</style>
 </defs>
 <g id="figure_1">
  <g id="patch_1">
   <path d="M 0 278.1075 
L 423.6225 278.1075 
L 423.6225 0 
L 0 0 
z
" style="fill: #ffffff"/>
  </g>
  <g id="axes_1">
   <g id="patch_2">
    <path d="M 56.5325 236.68 
L 416.4225 236.68 
L 416.4225 7.2 
L 56.5325 7.2 
z
" style="fill: #ffffff"/>
   </g>
   <g id="matplotlib.axis_1">
    <g id="xtick_1">
     <g id="line2d_1">
      <defs>
       <path id="maeb37646e3" d="M 0 0 
L 0 3.5 
" style="stroke: #000000; stroke-width: 0.8"/>
      </defs>
      <g>
       <use xlink:href="#maeb37646e3" x="72.891136" y="236.68" style="stroke: #000000; stroke-width: 0.8"/>
      </g>
     </g>
     <g id="text_1">
      <!-- 0.0 -->
      <g transform="translate(63.349261 252.798125) scale(0.12 -0.12)">
       <defs>
        <path id="DejaVuSans-30" d="M 2034 4250 
Q 1547 4250 1301 3770 
Q 1056 3291 1056 2328 
Q 1056 1369 1301 889 
Q 1547 409 2034 409 
Q 2525 409 2770 889 
Q 3016 1369 3016 2328 
Q 3016 3291 2770 3770 
Q 2525 4250 2034 4250 
z
M 2034 4750 
Q 2819 4750 3233 4129 
Q 3647 3509 3647 2328 
Q 3647 1150 3233 529 
Q 2819 -91 2034 -91 
Q 1250 -91 836 529 
Q 422 1150 422 2328 
Q 422 3509 836 4129 
Q 1250 4750 2034 4750 
z
" transform="scale(0.015625)"/>
        <path id="DejaVuSans-2e" d="M 684 794 
L 1344 794 
L 1344 0 
L 684 0 
L 684 794 
z
" transform="scale(0.015625)"/>
       </defs>
       <use xlink:href="#DejaVuSans-30"/>
       <use xlink:href="#DejaVuSans-2e" x="63.623047"/>
       <use xlink:href="#DejaVuSans-30" x="95.410156"/>
      </g>
     </g>
    </g>
    <g id="xtick_2">
     <g id="line2d_2">
      <g>
       <use xlink:href="#maeb37646e3" x="138.325682" y="236.68" style="stroke: #000000; stroke-width: 0.8"/>
      </g>
     </g>
     <g id="text_2">
      <!-- 0.2 -->
      <g transform="translate(128.783807 252.798125) scale(0.12 -0.12)">
       <defs>
        <path id="DejaVuSans-32" d="M 1228 531 
L 3431 531 
L 3431 0 
L 469 0 
L 469 531 
Q 828 903 1448 1529 
Q 2069 2156 2228 2338 
Q 2531 2678 2651 2914 
Q 2772 3150 2772 3378 
Q 2772 3750 2511 3984 
Q 2250 4219 1831 4219 
Q 1534 4219 1204 4116 
Q 875 4013 500 3803 
L 500 4441 
Q 881 4594 1212 4672 
Q 1544 4750 1819 4750 
Q 2544 4750 2975 4387 
Q 3406 4025 3406 3419 
Q 3406 3131 3298 2873 
Q 3191 2616 2906 2266 
Q 2828 2175 2409 1742 
Q 1991 1309 1228 531 
z
" transform="scale(0.015625)"/>
       </defs>
       <use xlink:href="#DejaVuSans-30"/>
       <use xlink:href="#DejaVuSans-2e" x="63.623047"/>
       <use xlink:href="#DejaVuSans-32" x="95.410156"/>
      </g>
     </g>
    </g>
    <g id="xtick_3">
     <g id="line2d_3">
      <g>
       <use xlink:href="#maeb37646e3" x="203.760227" y="236.68" style="stroke: #000000; stroke-width: 0.8"/>
      </g>
     </g>
     <g id="text_3">
      <!-- 0.4 -->
      <g transform="translate(194.218352 252.798125) scale(0.12 -0.12)">
       <defs>
        <path id="DejaVuSans-34" d="M 2419 4116 
L 825 1625 
L 2419 1625 
L 2419 4116 
z
M 2253 4666 
L 3047 4666 
L 3047 1625 
L 3713 1625 
L 3713 1100 
L 3047 1100 
L 3047 0 
L 2419 0 
L 2419 1100 
L 313 1100 
L 313 1709 
L 2253 4666 
z
" transform="scale(0.015625)"/>
       </defs>
       <use xlink:href="#DejaVuSans-30"/>
       <use xlink:href="#DejaVuSans-2e" x="63.623047"/>
       <use xlink:href="#DejaVuSans-34" x="95.410156"/>
      </g>
     </g>
    </g>
    <g id="xtick_4">
     <g id="line2d_4">
      <g>
       <use xlink:href="#maeb37646e3" x="269.194773" y="236.68" style="stroke: #000000; stroke-width: 0.8"/>
      </g>
     </g>
     <g id="text_4">
      <!-- 0.6 -->
      <g transform="translate(259.652898 252.798125) scale(0.12 -0.12)">
       <defs>
        <path id="DejaVuSans-36" d="M 2113 2584 
Q 1688 2584 1439 2293 
Q 1191 2003 1191 1497 
Q 1191 994 1439 701 
Q 1688 409 2113 409 
Q 2538 409 2786 701 
Q 3034 994 3034 1497 
Q 3034 2003 2786 2293 
Q 2538 2584 2113 2584 
z
M 3366 4563 
L 3366 3988 
Q 3128 4100 2886 4159 
Q 2644 4219 2406 4219 
Q 1781 4219 1451 3797 
Q 1122 3375 1075 2522 
Q 1259 2794 1537 2939 
Q 1816 3084 2150 3084 
Q 2853 3084 3261 2657 
Q 3669 2231 3669 1497 
Q 3669 778 3244 343 
Q 2819 -91 2113 -91 
Q 1303 -91 875 529 
Q 447 1150 447 2328 
Q 447 3434 972 4092 
Q 1497 4750 2381 4750 
Q 2619 4750 2861 4703 
Q 3103 4656 3366 4563 
z
" transform="scale(0.015625)"/>
       </defs>
       <use xlink:href="#DejaVuSans-30"/>
       <use xlink:href="#DejaVuSans-2e" x="63.623047"/>
       <use xlink:href="#DejaVuSans-36" x="95.410156"/>
      </g>
     </g>
    </g>
    <g id="xtick_5">
     <g id="line2d_5">
      <g>
       <use xlink:href="#maeb37646e3" x="334.629318" y="236.68" style="stroke: #000000; stroke-width: 0.8"/>
      </g>
     </g>
     <g id="text_5">
      <!-- 0.8 -->
      <g transform="translate(325.087443 252.798125) scale(0.12 -0.12)">
       <defs>
        <path id="DejaVuSans-38" d="M 2034 2216 
Q 1584 2216 1326 1975 
Q 1069 1734 1069 1313 
Q 1069 891 1326 650 
Q 1584 409 2034 409 
Q 2484 409 2743 651 
Q 3003 894 3003 1313 
Q 3003 1734 2745 1975 
Q 2488 2216 2034 2216 
z
M 1403 2484 
Q 997 2584 770 2862 
Q 544 3141 544 3541 
Q 544 4100 942 4425 
Q 1341 4750 2034 4750 
Q 2731 4750 3128 4425 
Q 3525 4100 3525 3541 
Q 3525 3141 3298 2862 
Q 3072 2584 2669 2484 
Q 3125 2378 3379 2068 
Q 3634 1759 3634 1313 
Q 3634 634 3220 271 
Q 2806 -91 2034 -91 
Q 1263 -91 848 271 
Q 434 634 434 1313 
Q 434 1759 690 2068 
Q 947 2378 1403 2484 
z
M 1172 3481 
Q 1172 3119 1398 2916 
Q 1625 2713 2034 2713 
Q 2441 2713 2670 2916 
Q 2900 3119 2900 3481 
Q 2900 3844 2670 4047 
Q 2441 4250 2034 4250 
Q 1625 4250 1398 4047 
Q 1172 3844 1172 3481 
z
" transform="scale(0.015625)"/>
       </defs>
       <use xlink:href="#DejaVuSans-30"/>
       <use xlink:href="#DejaVuSans-2e" x="63.623047"/>
       <use xlink:href="#DejaVuSans-38" x="95.410156"/>
      </g>
     </g>
    </g>
    <g id="xtick_6">
     <g id="line2d_6">
      <g>
       <use xlink:href="#maeb37646e3" x="400.063864" y="236.68" style="stroke: #000000; stroke-width: 0.8"/>
      </g>
     </g>
     <g id="text_6">
      <!-- 1.0 -->
      <g transform="translate(390.521989 252.798125) scale(0.12 -0.12)">
       <defs>
        <path id="DejaVuSans-31" d="M 794 531 
L 1825 531 
L 1825 4091 
L 703 3866 
L 703 4441 
L 1819 4666 
L 2450 4666 
L 2450 531 
L 3481 531 
L 3481 0 
L 794 0 
L 794 531 
z
" transform="scale(0.015625)"/>
       </defs>
       <use xlink:href="#DejaVuSans-31"/>
       <use xlink:href="#DejaVuSans-2e" x="63.623047"/>
       <use xlink:href="#DejaVuSans-30" x="95.410156"/>
      </g>
     </g>
    </g>
    <g id="text_7">
     <!-- x -->
     <g transform="translate(232.92625 268.411875) scale(0.12 -0.12)">
      <defs>
       <path id="DejaVuSans-78" d="M 3513 3500 
L 2247 1797 
L 3578 0 
L 2900 0 
L 1881 1375 
L 863 0 
L 184 0 
L 1544 1831 
L 300 3500 
L 978 3500 
L 1906 2253 
L 2834 3500 
L 3513 3500 
z
" transform="scale(0.015625)"/>
      </defs>
      <use xlink:href="#DejaVuSans-78"/>
     </g>
    </g>
   </g>
   <g id="matplotlib.axis_2">
    <g id="ytick_1">
     <g id="line2d_7">
      <defs>
       <path id="m84fca64204" d="M 0 0 
L -3.5 0 
" style="stroke: #000000; stroke-width: 0.8"/>
      </defs>
      <g>
       <use xlink:href="#m84fca64204" x="56.5325" y="226.262959" style="stroke: #000000; stroke-width: 0.8"/>
      </g>
     </g>
     <g id="text_8">
      <!-- 0.00 -->
      <g transform="translate(22.81375 230.822021) scale(0.12 -0.12)">
       <use xlink:href="#DejaVuSans-30"/>
       <use xlink:href="#DejaVuSans-2e" x="63.623047"/>
       <use xlink:href="#DejaVuSans-30" x="95.410156"/>
       <use xlink:href="#DejaVuSans-30" x="159.033203"/>
      </g>
     </g>
    </g>
    <g id="ytick_2">
     <g id="line2d_8">
      <g>
       <use xlink:href="#m84fca64204" x="56.5325" y="200.295723" style="stroke: #000000; stroke-width: 0.8"/>
      </g>
     </g>
     <g id="text_9">
      <!-- 0.05 -->
      <g transform="translate(22.81375 204.854786) scale(0.12 -0.12)">
       <defs>
        <path id="DejaVuSans-35" d="M 691 4666 
L 3169 4666 
L 3169 4134 
L 1269 4134 
L 1269 2991 
Q 1406 3038 1543 3061 
Q 1681 3084 1819 3084 
Q 2600 3084 3056 2656 
Q 3513 2228 3513 1497 
Q 3513 744 3044 326 
Q 2575 -91 1722 -91 
Q 1428 -91 1123 -41 
Q 819 9 494 109 
L 494 744 
Q 775 591 1075 516 
Q 1375 441 1709 441 
Q 2250 441 2565 725 
Q 2881 1009 2881 1497 
Q 2881 1984 2565 2268 
Q 2250 2553 1709 2553 
Q 1456 2553 1204 2497 
Q 953 2441 691 2322 
L 691 4666 
z
" transform="scale(0.015625)"/>
       </defs>
       <use xlink:href="#DejaVuSans-30"/>
       <use xlink:href="#DejaVuSans-2e" x="63.623047"/>
       <use xlink:href="#DejaVuSans-30" x="95.410156"/>
       <use xlink:href="#DejaVuSans-35" x="159.033203"/>
      </g>
     </g>
    </g>
    <g id="ytick_3">
     <g id="line2d_9">
      <g>
       <use xlink:href="#m84fca64204" x="56.5325" y="174.328487" style="stroke: #000000; stroke-width: 0.8"/>
      </g>
     </g>
     <g id="text_10">
      <!-- 0.10 -->
      <g transform="translate(22.81375 178.88755) scale(0.12 -0.12)">
       <use xlink:href="#DejaVuSans-30"/>
       <use xlink:href="#DejaVuSans-2e" x="63.623047"/>
       <use xlink:href="#DejaVuSans-31" x="95.410156"/>
       <use xlink:href="#DejaVuSans-30" x="159.033203"/>
      </g>
     </g>
    </g>
    <g id="ytick_4">
     <g id="line2d_10">
      <g>
       <use xlink:href="#m84fca64204" x="56.5325" y="148.361252" style="stroke: #000000; stroke-width: 0.8"/>
      </g>
     </g>
     <g id="text_11">
      <!-- 0.15 -->
      <g transform="translate(22.81375 152.920314) scale(0.12 -0.12)">
       <use xlink:href="#DejaVuSans-30"/>
       <use xlink:href="#DejaVuSans-2e" x="63.623047"/>
       <use xlink:href="#DejaVuSans-31" x="95.410156"/>
       <use xlink:href="#DejaVuSans-35" x="159.033203"/>
      </g>
     </g>
    </g>
    <g id="ytick_5">
     <g id="line2d_11">
      <g>
       <use xlink:href="#m84fca64204" x="56.5325" y="122.394016" style="stroke: #000000; stroke-width: 0.8"/>
      </g>
     </g>
     <g id="text_12">
      <!-- 0.20 -->
      <g transform="translate(22.81375 126.953079) scale(0.12 -0.12)">
       <use xlink:href="#DejaVuSans-30"/>
       <use xlink:href="#DejaVuSans-2e" x="63.623047"/>
       <use xlink:href="#DejaVuSans-32" x="95.410156"/>
       <use xlink:href="#DejaVuSans-30" x="159.033203"/>
      </g>
     </g>
    </g>
    <g id="ytick_6">
     <g id="line2d_12">
      <g>
       <use xlink:href="#m84fca64204" x="56.5325" y="96.42678" style="stroke: #000000; stroke-width: 0.8"/>
      </g>
     </g>
     <g id="text_13">
      <!-- 0.25 -->
      <g transform="translate(22.81375 100.985843) scale(0.12 -0.12)">
       <use xlink:href="#DejaVuSans-30"/>
       <use xlink:href="#DejaVuSans-2e" x="63.623047"/>
       <use xlink:href="#DejaVuSans-32" x="95.410156"/>
       <use xlink:href="#DejaVuSans-35" x="159.033203"/>
      </g>
     </g>
    </g>
    <g id="ytick_7">
     <g id="line2d_13">
      <g>
       <use xlink:href="#m84fca64204" x="56.5325" y="70.459545" style="stroke: #000000; stroke-width: 0.8"/>
      </g>
     </g>
     <g id="text_14">
      <!-- 0.30 -->
      <g transform="translate(22.81375 75.018607) scale(0.12 -0.12)">
       <defs>
        <path id="DejaVuSans-33" d="M 2597 2516 
Q 3050 2419 3304 2112 
Q 3559 1806 3559 1356 
Q 3559 666 3084 287 
Q 2609 -91 1734 -91 
Q 1441 -91 1130 -33 
Q 819 25 488 141 
L 488 750 
Q 750 597 1062 519 
Q 1375 441 1716 441 
Q 2309 441 2620 675 
Q 2931 909 2931 1356 
Q 2931 1769 2642 2001 
Q 2353 2234 1838 2234 
L 1294 2234 
L 1294 2753 
L 1863 2753 
Q 2328 2753 2575 2939 
Q 2822 3125 2822 3475 
Q 2822 3834 2567 4026 
Q 2313 4219 1838 4219 
Q 1578 4219 1281 4162 
Q 984 4106 628 3988 
L 628 4550 
Q 988 4650 1302 4700 
Q 1616 4750 1894 4750 
Q 2613 4750 3031 4423 
Q 3450 4097 3450 3541 
Q 3450 3153 3228 2886 
Q 3006 2619 2597 2516 
z
" transform="scale(0.015625)"/>
       </defs>
       <use xlink:href="#DejaVuSans-30"/>
       <use xlink:href="#DejaVuSans-2e" x="63.623047"/>
       <use xlink:href="#DejaVuSans-33" x="95.410156"/>
       <use xlink:href="#DejaVuSans-30" x="159.033203"/>
      </g>
     </g>
    </g>
    <g id="ytick_8">
     <g id="line2d_14">
      <g>
       <use xlink:href="#m84fca64204" x="56.5325" y="44.492309" style="stroke: #000000; stroke-width: 0.8"/>
      </g>
     </g>
     <g id="text_15">
      <!-- 0.35 -->
      <g transform="translate(22.81375 49.051371) scale(0.12 -0.12)">
       <use xlink:href="#DejaVuSans-30"/>
       <use xlink:href="#DejaVuSans-2e" x="63.623047"/>
       <use xlink:href="#DejaVuSans-33" x="95.410156"/>
       <use xlink:href="#DejaVuSans-35" x="159.033203"/>
      </g>
     </g>
    </g>
    <g id="ytick_9">
     <g id="line2d_15">
      <g>
       <use xlink:href="#m84fca64204" x="56.5325" y="18.525073" style="stroke: #000000; stroke-width: 0.8"/>
      </g>
     </g>
     <g id="text_16">
      <!-- 0.40 -->
      <g transform="translate(22.81375 23.084136) scale(0.12 -0.12)">
       <use xlink:href="#DejaVuSans-30"/>
       <use xlink:href="#DejaVuSans-2e" x="63.623047"/>
       <use xlink:href="#DejaVuSans-34" x="95.410156"/>
       <use xlink:href="#DejaVuSans-30" x="159.033203"/>
      </g>
     </g>
    </g>
    <g id="text_17">
     <!-- Absolute error -->
     <g transform="translate(16.318125 164.593437) rotate(-90) scale(0.12 -0.12)">
      <defs>
       <path id="DejaVuSans-41" d="M 2188 4044 
L 1331 1722 
L 3047 1722 
L 2188 4044 
z
M 1831 4666 
L 2547 4666 
L 4325 0 
L 3669 0 
L 3244 1197 
L 1141 1197 
L 716 0 
L 50 0 
L 1831 4666 
z
" transform="scale(0.015625)"/>
       <path id="DejaVuSans-62" d="M 3116 1747 
Q 3116 2381 2855 2742 
Q 2594 3103 2138 3103 
Q 1681 3103 1420 2742 
Q 1159 2381 1159 1747 
Q 1159 1113 1420 752 
Q 1681 391 2138 391 
Q 2594 391 2855 752 
Q 3116 1113 3116 1747 
z
M 1159 2969 
Q 1341 3281 1617 3432 
Q 1894 3584 2278 3584 
Q 2916 3584 3314 3078 
Q 3713 2572 3713 1747 
Q 3713 922 3314 415 
Q 2916 -91 2278 -91 
Q 1894 -91 1617 61 
Q 1341 213 1159 525 
L 1159 0 
L 581 0 
L 581 4863 
L 1159 4863 
L 1159 2969 
z
" transform="scale(0.015625)"/>
       <path id="DejaVuSans-73" d="M 2834 3397 
L 2834 2853 
Q 2591 2978 2328 3040 
Q 2066 3103 1784 3103 
Q 1356 3103 1142 2972 
Q 928 2841 928 2578 
Q 928 2378 1081 2264 
Q 1234 2150 1697 2047 
L 1894 2003 
Q 2506 1872 2764 1633 
Q 3022 1394 3022 966 
Q 3022 478 2636 193 
Q 2250 -91 1575 -91 
Q 1294 -91 989 -36 
Q 684 19 347 128 
L 347 722 
Q 666 556 975 473 
Q 1284 391 1588 391 
Q 1994 391 2212 530 
Q 2431 669 2431 922 
Q 2431 1156 2273 1281 
Q 2116 1406 1581 1522 
L 1381 1569 
Q 847 1681 609 1914 
Q 372 2147 372 2553 
Q 372 3047 722 3315 
Q 1072 3584 1716 3584 
Q 2034 3584 2315 3537 
Q 2597 3491 2834 3397 
z
" transform="scale(0.015625)"/>
       <path id="DejaVuSans-6f" d="M 1959 3097 
Q 1497 3097 1228 2736 
Q 959 2375 959 1747 
Q 959 1119 1226 758 
Q 1494 397 1959 397 
Q 2419 397 2687 759 
Q 2956 1122 2956 1747 
Q 2956 2369 2687 2733 
Q 2419 3097 1959 3097 
z
M 1959 3584 
Q 2709 3584 3137 3096 
Q 3566 2609 3566 1747 
Q 3566 888 3137 398 
Q 2709 -91 1959 -91 
Q 1206 -91 779 398 
Q 353 888 353 1747 
Q 353 2609 779 3096 
Q 1206 3584 1959 3584 
z
" transform="scale(0.015625)"/>
       <path id="DejaVuSans-6c" d="M 603 4863 
L 1178 4863 
L 1178 0 
L 603 0 
L 603 4863 
z
" transform="scale(0.015625)"/>
       <path id="DejaVuSans-75" d="M 544 1381 
L 544 3500 
L 1119 3500 
L 1119 1403 
Q 1119 906 1312 657 
Q 1506 409 1894 409 
Q 2359 409 2629 706 
Q 2900 1003 2900 1516 
L 2900 3500 
L 3475 3500 
L 3475 0 
L 2900 0 
L 2900 538 
Q 2691 219 2414 64 
Q 2138 -91 1772 -91 
Q 1169 -91 856 284 
Q 544 659 544 1381 
z
M 1991 3584 
L 1991 3584 
z
" transform="scale(0.015625)"/>
       <path id="DejaVuSans-74" d="M 1172 4494 
L 1172 3500 
L 2356 3500 
L 2356 3053 
L 1172 3053 
L 1172 1153 
Q 1172 725 1289 603 
Q 1406 481 1766 481 
L 2356 481 
L 2356 0 
L 1766 0 
Q 1100 0 847 248 
Q 594 497 594 1153 
L 594 3053 
L 172 3053 
L 172 3500 
L 594 3500 
L 594 4494 
L 1172 4494 
z
" transform="scale(0.015625)"/>
       <path id="DejaVuSans-65" d="M 3597 1894 
L 3597 1613 
L 953 1613 
Q 991 1019 1311 708 
Q 1631 397 2203 397 
Q 2534 397 2845 478 
Q 3156 559 3463 722 
L 3463 178 
Q 3153 47 2828 -22 
Q 2503 -91 2169 -91 
Q 1331 -91 842 396 
Q 353 884 353 1716 
Q 353 2575 817 3079 
Q 1281 3584 2069 3584 
Q 2775 3584 3186 3129 
Q 3597 2675 3597 1894 
z
M 3022 2063 
Q 3016 2534 2758 2815 
Q 2500 3097 2075 3097 
Q 1594 3097 1305 2825 
Q 1016 2553 972 2059 
L 3022 2063 
z
" transform="scale(0.015625)"/>
       <path id="DejaVuSans-20" transform="scale(0.015625)"/>
       <path id="DejaVuSans-72" d="M 2631 2963 
Q 2534 3019 2420 3045 
Q 2306 3072 2169 3072 
Q 1681 3072 1420 2755 
Q 1159 2438 1159 1844 
L 1159 0 
L 581 0 
L 581 3500 
L 1159 3500 
L 1159 2956 
Q 1341 3275 1631 3429 
Q 1922 3584 2338 3584 
Q 2397 3584 2469 3576 
Q 2541 3569 2628 3553 
L 2631 2963 
z
" transform="scale(0.015625)"/>
      </defs>
      <use xlink:href="#DejaVuSans-41"/>
      <use xlink:href="#DejaVuSans-62" x="68.408203"/>
      <use xlink:href="#DejaVuSans-73" x="131.884766"/>
      <use xlink:href="#DejaVuSans-6f" x="183.984375"/>
      <use xlink:href="#DejaVuSans-6c" x="245.166016"/>
      <use xlink:href="#DejaVuSans-75" x="272.949219"/>
      <use xlink:href="#DejaVuSans-74" x="336.328125"/>
      <use xlink:href="#DejaVuSans-65" x="375.537109"/>
      <use xlink:href="#DejaVuSans-20" x="437.060547"/>
      <use xlink:href="#DejaVuSans-65" x="468.847656"/>
      <use xlink:href="#DejaVuSans-72" x="530.371094"/>
      <use xlink:href="#DejaVuSans-72" x="569.734375"/>
      <use xlink:href="#DejaVuSans-6f" x="608.597656"/>
      <use xlink:href="#DejaVuSans-72" x="669.779297"/>
     </g>
    </g>
   </g>
   <g id="line2d_16">
    <path d="M 72.891136 211.225187 
L 73.218309 223.004884 
L 73.545482 226.090249 
L 73.872655 221.972516 
L 74.854173 198.856759 
L 75.181346 194.258362 
L 75.508518 191.77664 
L 75.835691 190.781244 
L 76.162864 190.553927 
L 76.490037 190.50771 
L 76.817209 190.257274 
L 77.144382 189.628725 
L 77.798727 187.282433 
L 79.761764 178.148088 
L 80.088937 177.505671 
L 80.41611 177.556732 
L 80.743282 178.400915 
L 81.070455 180.042261 
L 81.7248 185.61113 
L 82.379146 194.122909 
L 83.360664 211.00138 
L 84.01501 223.023078 
L 84.342182 223.885371 
L 84.996527 214.26395 
L 85.650873 207.332613 
L 86.305219 203.220843 
L 86.632392 202.1774 
L 86.959564 201.765632 
L 87.286738 201.944616 
L 87.61391 202.667733 
L 88.268255 205.511973 
L 88.922601 209.768954 
L 90.885637 224.778526 
L 91.21281 225.711706 
L 91.867155 222.598464 
L 92.194329 221.609812 
L 92.521501 221.045929 
L 92.848674 220.931765 
L 93.175846 221.283975 
L 93.503019 222.111846 
L 93.830192 223.417357 
L 94.157365 225.193699 
L 94.484536 225.098542 
L 95.138883 219.35459 
L 96.120401 208.113214 
L 98.737783 175.259055 
L 99.392127 170.257969 
L 99.719301 168.761526 
L 100.046474 168.040266 
L 100.373648 168.157494 
L 100.700818 169.164781 
L 101.027992 171.099769 
L 101.682339 177.818568 
L 102.336683 188.229443 
L 103.318201 209.135019 
L 103.972548 224.154063 
L 104.299718 221.346691 
L 104.954065 209.326045 
L 105.60841 200.703693 
L 106.262756 195.501522 
L 106.58993 194.081073 
L 106.917101 193.444631 
L 107.244274 193.579395 
L 107.571447 194.381572 
L 108.225792 197.191429 
L 109.207312 201.532298 
L 109.534483 202.470811 
L 109.861656 203.000062 
L 110.18883 203.048225 
L 110.516001 202.557989 
L 110.843174 201.492637 
L 111.497521 197.715004 
L 112.151865 193.052465 
L 112.479039 191.658867 
L 112.806212 192.008101 
L 113.133383 194.858023 
L 113.787727 205.769197 
L 114.114901 208.458997 
L 114.442074 204.210459 
L 114.769247 190.778539 
L 115.423594 143.333843 
L 116.077936 96.359855 
L 116.732283 68.548509 
L 117.059456 61.364344 
L 117.38663 57.399659 
L 117.713803 55.733704 
L 118.040976 55.836568 
L 118.36815 57.969268 
L 118.695318 63.184457 
L 119.022492 72.579067 
L 119.676839 103.187763 
L 121.312701 191.619859 
L 121.967047 220.33069 
L 122.294221 220.019542 
L 122.948568 200.813693 
L 123.602909 189.061151 
L 123.930083 185.971249 
L 124.257256 184.630232 
L 124.58443 184.914588 
L 124.911603 186.684089 
L 125.238776 189.796124 
L 125.893118 199.495892 
L 126.547465 212.975619 
L 126.874639 220.828251 
L 127.201812 223.261373 
L 129.164847 166.882164 
L 130.473541 131.632803 
L 131.455056 110.322578 
L 132.109403 99.422949 
L 132.76375 91.525371 
L 133.418092 86.823747 
L 133.745265 85.707002 
L 134.072438 85.421594 
L 134.399612 85.967089 
L 134.726785 87.338473 
L 135.053959 89.52516 
L 135.708301 96.276956 
L 136.362647 106.033528 
L 137.344167 125.663001 
L 138.652856 158.898777 
L 140.943065 222.192701 
L 141.270238 222.354752 
L 142.251759 202.532954 
L 142.906105 194.027505 
L 143.233274 191.591999 
L 143.560447 190.551868 
L 143.887621 191.036691 
L 144.214794 193.164005 
L 144.541967 197.030453 
L 145.196314 210.225236 
L 145.523488 219.611504 
L 145.850656 221.657529 
L 146.505003 193.410023 
L 147.15935 156.576584 
L 148.140865 82.975826 
L 148.795212 36.838445 
L 149.122385 23.299578 
L 149.449559 17.630909 
L 149.776732 18.288308 
L 150.103905 22.907281 
L 150.758247 38.323683 
L 151.085421 49.442182 
L 151.739767 84.483724 
L 153.048456 182.073672 
L 153.375629 195.000706 
L 153.702803 200.165275 
L 154.029976 199.691405 
L 154.35715 197.254249 
L 154.684318 196.258365 
L 155.011496 198.164131 
L 155.665843 208.098495 
L 156.647359 223.523096 
L 156.974527 225.484105 
L 157.628874 220.936471 
L 157.956052 219.68043 
L 158.283221 218.942582 
L 158.610399 218.622801 
L 158.937567 218.644931 
L 159.264736 218.951737 
L 159.919083 220.235216 
L 162.209292 226.191452 
L 163.845163 222.250495 
L 164.172332 221.810062 
L 164.4995 221.582137 
L 164.826679 221.577401 
L 165.153847 221.786659 
L 165.808194 222.700121 
L 166.789709 224.339826 
L 167.116888 224.6578 
L 167.444056 224.750852 
L 167.771234 224.571496 
L 168.098403 224.08915 
L 168.425581 223.291709 
L 169.079918 220.774172 
L 169.734265 217.18044 
L 170.71579 210.434061 
L 172.678821 196.493935 
L 173.660346 191.442021 
L 174.314683 189.295886 
L 174.641861 188.634246 
L 174.969029 188.256838 
L 175.296208 188.164405 
L 175.623376 188.354533 
L 175.950554 188.817997 
L 176.604891 190.511688 
L 177.259238 193.086679 
L 178.240763 198.069872 
L 179.876625 206.542106 
L 180.530972 208.853202 
L 180.858141 209.598607 
L 181.185319 210.032446 
L 181.512487 210.142864 
L 181.839656 209.935711 
L 182.166834 209.434884 
L 182.821181 207.762397 
L 184.129865 203.948171 
L 184.457043 203.382802 
L 184.784212 203.093555 
L 185.11139 203.103708 
L 185.438558 203.412132 
L 185.765737 203.996028 
L 186.420074 205.809454 
L 187.728767 210.62018 
L 188.710283 215.052569 
L 190.018976 221.534845 
L 190.673323 223.984683 
L 191.32767 225.776762 
L 191.654838 226.057083 
L 191.982016 225.536963 
L 192.309185 225.284847 
L 192.636363 225.450214 
L 192.963532 226.21023 
L 193.29071 224.788451 
L 193.617878 222.376631 
L 194.272225 215.238119 
L 194.926572 208.472745 
L 195.253741 207.168155 
L 195.580919 207.404537 
L 195.908087 207.875866 
L 196.235256 206.50677 
L 196.562434 201.469434 
L 196.889603 191.940282 
L 197.543949 161.167031 
L 199.50699 46.053901 
L 199.834158 33.837076 
L 200.161337 26.086891 
L 200.488505 23.649404 
L 200.815683 27.232518 
L 201.142852 37.14625 
L 201.797199 74.108618 
L 203.433061 189.519584 
L 204.087407 218.346838 
L 204.414576 223.550031 
L 205.068923 207.879532 
L 205.72327 197.762919 
L 206.377616 191.865892 
L 206.704785 190.373473 
L 207.031963 189.862709 
L 207.359132 190.342796 
L 207.68631 191.797914 
L 208.013478 194.183055 
L 208.667825 201.455459 
L 209.322172 211.448932 
L 209.976519 223.345602 
L 210.303687 222.784289 
L 212.593896 178.816569 
L 213.575411 164.504885 
L 214.229758 157.416139 
L 214.884105 152.503029 
L 215.211283 150.895641 
L 215.538452 149.864363 
L 215.86562 149.412941 
L 216.192799 149.541375 
L 216.519967 150.247157 
L 216.847145 151.525056 
L 217.501492 155.759564 
L 218.155839 162.137543 
L 218.810176 170.486265 
L 219.791701 186.096897 
L 222.08191 225.30486 
L 222.736257 216.281002 
L 223.390594 210.336737 
L 223.717772 208.76306 
L 224.04494 208.188652 
L 224.372119 208.608004 
L 224.699287 209.969638 
L 225.026465 212.199011 
L 225.680802 219.112333 
L 226.007981 223.907953 
L 226.335149 222.72812 
L 226.989496 206.654582 
L 227.643843 182.266884 
L 228.29819 146.693196 
L 229.279705 85.310294 
L 229.934052 58.212609 
L 230.26123 50.679143 
L 230.588398 46.460221 
L 230.915567 45.172726 
L 231.242745 46.991957 
L 231.569914 52.43072 
L 231.897092 61.788169 
L 232.551439 90.669053 
L 234.187301 176.585701 
L 234.841648 198.611513 
L 235.495985 211.301435 
L 236.47749 224.953934 
L 236.804669 222.648952 
L 237.459006 214.190851 
L 237.786174 211.337179 
L 238.113362 209.467878 
L 238.440531 208.421154 
L 238.767699 207.981975 
L 239.094868 207.955471 
L 239.422056 208.210994 
L 239.749224 208.704989 
L 240.076393 209.460933 
L 240.73073 211.92672 
L 241.385086 215.652318 
L 242.69378 225.127393 
L 243.020948 224.994532 
L 244.002473 218.629167 
L 244.65681 215.456134 
L 245.311147 213.180683 
L 245.965504 211.710737 
L 246.292672 211.305949 
L 246.619841 211.168941 
L 246.947029 211.340588 
L 247.274198 211.853379 
L 247.601366 212.720315 
L 248.255703 215.489102 
L 248.91006 219.467701 
L 249.564397 224.327878 
L 249.891565 225.584294 
L 251.200259 215.643909 
L 251.854615 211.861536 
L 252.508952 209.191884 
L 253.163309 207.568647 
L 253.817646 206.75805 
L 254.472002 206.433576 
L 255.453508 206.098453 
L 256.107864 205.531537 
L 256.762201 204.426957 
L 257.416538 202.659344 
L 258.070895 200.196907 
L 259.05242 195.372422 
L 261.342619 183.016313 
L 261.996976 180.823652 
L 262.324144 180.194113 
L 262.651313 179.926875 
L 262.978481 180.049087 
L 263.30565 180.574895 
L 263.632838 181.504082 
L 264.287175 184.485578 
L 265.2687 190.971716 
L 266.904562 202.491365 
L 267.558899 206.12571 
L 268.213255 208.82805 
L 268.867593 210.642901 
L 269.52193 211.692164 
L 269.849118 211.885596 
L 270.176286 211.797768 
L 270.503455 211.38949 
L 270.830623 210.64691 
L 271.48498 208.221488 
L 272.466485 202.893653 
L 273.44801 197.310727 
L 274.102367 194.753799 
L 274.429535 194.214084 
L 274.756704 194.343011 
L 275.083872 195.19119 
L 275.411041 196.714631 
L 276.065397 201.724104 
L 276.719734 210.68776 
L 277.374091 224.595936 
L 277.701259 219.926077 
L 278.355596 202.496974 
L 279.009953 178.594301 
L 280.318647 122.207369 
L 280.645815 115.147621 
L 280.972984 112.54898 
L 281.300152 114.073269 
L 281.62734 118.947561 
L 283.263202 152.884678 
L 283.917539 163.160099 
L 284.571876 179.978029 
L 285.553401 218.766508 
L 285.88057 220.993568 
L 286.534926 201.737865 
L 286.862095 195.886575 
L 287.189263 192.381995 
L 287.516432 190.870631 
L 287.84362 190.94545 
L 288.170788 192.208506 
L 288.825125 196.867643 
L 290.133819 207.445971 
L 292.424038 223.276386 
L 292.751206 226.000427 
L 293.405543 220.842273 
L 295.041405 207.414768 
L 296.02293 201.403702 
L 296.677267 198.644651 
L 297.331624 196.974919 
L 297.658792 196.550366 
L 297.985961 196.391782 
L 298.313149 196.488146 
L 298.640317 196.824043 
L 299.294654 198.130792 
L 299.949011 200.109799 
L 303.220735 212.010339 
L 303.875072 214.911908 
L 304.529429 219.284817 
L 305.183766 225.587389 
L 305.510934 223.166649 
L 306.819628 207.908909 
L 307.146796 205.381481 
L 307.473984 204.043792 
L 307.801153 204.256826 
L 308.128321 206.328483 
L 308.45549 210.430408 
L 309.109846 224.269248 
L 309.437015 219.446899 
L 310.41854 194.369236 
L 311.072877 183.847789 
L 312.708739 165.366005 
L 313.363096 152.986412 
L 314.344601 132.85828 
L 314.67177 128.06769 
L 314.998958 125.674895 
L 315.326126 126.623669 
L 315.653295 131.448843 
L 315.980463 140.028407 
L 316.961988 178.619483 
L 317.616325 202.233797 
L 318.270682 218.979411 
L 318.59785 225.840786 
L 319.252187 212.824783 
L 320.233712 192.000618 
L 320.888069 183.053111 
L 321.215237 180.808553 
L 321.542406 179.742691 
L 321.869574 179.558576 
L 322.196743 180.039135 
L 322.523931 181.050539 
L 323.178268 184.32995 
L 324.159793 191.195631 
L 325.141299 198.105803 
L 325.795655 201.479759 
L 326.449992 203.498575 
L 326.777161 204.053148 
L 327.104349 204.339988 
L 327.431517 204.37229 
L 327.758686 204.168588 
L 328.413042 203.185523 
L 329.394548 200.90577 
L 330.376073 198.51922 
L 331.03041 197.439838 
L 331.357578 197.184332 
L 331.684766 197.149786 
L 332.011935 197.342375 
L 332.339103 197.754824 
L 332.99346 199.168571 
L 333.647797 201.206486 
L 334.956491 206.289479 
L 336.265184 211.316134 
L 337.24669 214.216589 
L 337.901046 215.526465 
L 338.555383 216.281868 
L 338.882552 216.452092 
L 339.20974 216.490198 
L 339.864077 216.208009 
L 340.518433 215.538537 
L 342.808632 212.498133 
L 343.462969 212.207586 
L 343.790158 212.266092 
L 344.117326 212.480845 
L 344.444495 212.863917 
L 345.098851 214.154198 
L 345.753188 216.084187 
L 347.38905 221.379736 
L 347.716219 222.009584 
L 348.043407 222.382968 
L 348.370575 222.471686 
L 348.697744 222.244412 
L 349.024912 221.670066 
L 349.352081 220.718932 
L 350.006437 217.589268 
L 350.660774 212.688199 
L 351.315131 205.93535 
L 353.932498 174.318078 
L 354.586855 169.930117 
L 354.914024 168.762891 
L 355.241192 168.346097 
L 355.56838 168.699654 
L 355.895549 169.825156 
L 356.222717 171.725799 
L 356.877054 177.974401 
L 357.531411 187.750579 
L 359.494441 222.149839 
L 359.82161 224.812923 
L 360.475966 210.0528 
L 361.457472 178.570694 
L 362.438997 147.689773 
L 363.093353 136.053646 
L 363.420522 133.79981 
L 363.74769 133.886942 
L 364.074859 136.052199 
L 364.729215 144.968046 
L 365.710721 164.196729 
L 367.346583 199.682569 
L 368.328108 223.50318 
L 369.309633 194.546409 
L 369.96397 183.61177 
L 370.291139 181.541615 
L 370.618307 181.546073 
L 370.945495 183.248865 
L 371.599832 189.858174 
L 372.581357 201.237038 
L 373.235694 206.715084 
L 373.890051 209.966 
L 374.217219 210.893454 
L 374.544388 211.468945 
L 374.871556 211.778808 
L 375.525913 211.908542 
L 377.161775 211.725131 
L 377.816112 211.974601 
L 378.470469 212.487779 
L 379.451974 213.695626 
L 381.087836 216.357167 
L 382.069361 217.736584 
L 382.723718 218.180531 
L 383.050886 218.159837 
L 383.378055 217.925753 
L 383.705223 217.436751 
L 384.032392 216.650655 
L 384.686748 214.028024 
L 385.341085 209.798439 
L 385.995442 203.926935 
L 387.631304 186.917276 
L 387.958473 184.684451 
L 388.285641 183.396816 
L 388.61281 183.249097 
L 388.939998 184.385066 
L 389.267166 186.879789 
L 389.921503 195.885144 
L 390.57586 209.418926 
L 391.230197 225.667672 
L 393.520415 176.158068 
L 394.829109 154.825339 
L 395.483446 147.222695 
L 395.810614 145.46546 
L 396.137783 145.616298 
L 396.464971 147.923346 
L 396.792139 152.530123 
L 397.446477 168.749654 
L 398.428002 206.01333 
L 398.75517 218.735463 
L 399.082339 222.2995 
L 399.736695 203.88224 
L 400.063864 196.890194 
L 400.063864 196.890194 
" clip-path="url(#p6f6092bcc3)" style="fill: none; stroke: #0077bb; stroke-width: 2; stroke-linecap: square"/>
   </g>
   <g id="line2d_17">
    <path d="M 72.891136 213.7886 
L 74.527 201.116022 
L 76.817209 185.501486 
L 78.453073 175.435872 
L 79.434591 170.267999 
L 80.41611 166.27013 
L 81.070455 164.510659 
L 81.397627 163.962083 
L 81.7248 163.658194 
L 82.051973 163.616621 
L 82.379146 163.85312 
L 82.706319 164.380723 
L 83.033491 165.211534 
L 83.687836 167.813456 
L 84.342182 171.692193 
L 84.996527 176.837004 
L 85.978046 186.771848 
L 87.286738 203.445703 
L 88.595427 222.585029 
L 88.922601 224.992118 
L 91.21281 191.995007 
L 92.521501 176.822053 
L 93.503019 168.171888 
L 94.157365 163.846372 
L 94.81171 160.690597 
L 95.466056 158.665064 
L 95.793227 158.053201 
L 96.120401 157.692509 
L 96.447574 157.566892 
L 96.774748 157.660192 
L 97.101918 157.953215 
L 97.756265 159.061479 
L 98.41061 160.72632 
L 99.392127 163.901596 
L 102.336683 173.986883 
L 103.972548 178.425231 
L 105.281239 181.954637 
L 106.262756 185.279397 
L 107.244274 189.765656 
L 108.225792 195.876306 
L 109.207312 203.901854 
L 110.18883 213.880371 
L 111.170347 225.548434 
L 111.497521 222.802905 
L 114.769247 181.310255 
L 115.750768 172.315088 
L 116.40511 168.071283 
L 117.059456 165.464018 
L 117.38663 164.821052 
L 117.713803 164.63489 
L 118.040976 164.913922 
L 118.36815 165.661045 
L 118.695318 166.875942 
L 119.349665 170.6904 
L 120.004012 176.27583 
L 120.985527 187.661598 
L 121.967047 202.047341 
L 123.275741 224.402511 
L 123.602909 222.206383 
L 126.220292 175.847176 
L 127.528985 156.666432 
L 128.510501 145.293031 
L 129.492021 136.849029 
L 130.146368 132.877952 
L 130.800709 130.182173 
L 131.455056 128.668333 
L 131.78223 128.314637 
L 132.109403 128.203693 
L 132.436576 128.315999 
L 132.76375 128.628214 
L 133.418092 129.760623 
L 134.072438 131.413639 
L 135.381132 135.568653 
L 137.344167 141.90051 
L 138.98003 146.341891 
L 140.615897 150.763833 
L 141.597412 154.066677 
L 142.578932 158.270074 
L 143.560447 163.575048 
L 144.541967 169.997805 
L 146.17783 182.58043 
L 148.468038 200.529128 
L 149.449559 206.771168 
L 150.431079 211.439928 
L 151.085421 213.536461 
L 151.739767 214.78918 
L 152.066941 215.107176 
L 152.394114 215.22886 
L 152.721288 215.167956 
L 153.048456 214.940166 
L 153.702803 214.05612 
L 154.684318 212.008326 
L 155.993012 209.055327 
L 156.647359 207.977161 
L 157.301705 207.420605 
L 157.628874 207.383132 
L 157.956052 207.522086 
L 158.283221 207.844993 
L 158.937567 209.050426 
L 159.591914 210.96226 
L 160.573429 214.900261 
L 162.863638 225.341294 
L 163.190817 226.026181 
L 163.845163 224.273984 
L 164.172332 223.733937 
L 164.4995 223.444876 
L 164.826679 223.427201 
L 165.153847 223.691343 
L 165.481025 224.247579 
L 166.135372 226.249091 
L 166.789709 223.104986 
L 167.444056 218.838905 
L 168.425581 210.682539 
L 169.734265 197.520693 
L 172.678821 167.03725 
L 173.660346 159.088224 
L 174.641861 153.101272 
L 175.296208 150.340116 
L 175.950554 148.617451 
L 176.277723 148.148167 
L 176.604891 147.937547 
L 176.93207 147.981751 
L 177.259238 148.275796 
L 177.586417 148.81377 
L 178.240763 150.578751 
L 178.8951 153.195129 
L 179.876625 158.48964 
L 181.185319 167.495978 
L 183.14835 183.239841 
L 186.092905 206.753871 
L 188.055945 220.45804 
L 188.710283 224.646563 
L 189.037461 225.848676 
L 191.000501 214.42409 
L 192.636363 205.925417 
L 193.945047 200.105787 
L 194.926572 196.616394 
L 195.580919 194.846259 
L 196.235256 193.611542 
L 196.889603 192.987587 
L 197.216781 192.925873 
L 197.543949 193.040849 
L 197.871128 193.338284 
L 198.525465 194.500714 
L 199.179812 196.438854 
L 199.834158 199.157384 
L 200.815683 204.657025 
L 201.797199 211.714877 
L 203.105892 223.087465 
L 203.433061 226.192984 
L 205.068923 209.995361 
L 207.359132 187.903699 
L 208.667825 177.512141 
L 209.64934 171.375179 
L 210.630866 166.88074 
L 211.285203 164.842392 
L 211.939549 163.571458 
L 212.266728 163.217545 
L 212.593896 163.045619 
L 212.921074 163.049179 
L 213.248243 163.22225 
L 213.90259 164.040803 
L 214.556936 165.427572 
L 215.538452 168.380806 
L 216.847145 173.432782 
L 220.118869 186.842952 
L 221.100385 190.017703 
L 222.08191 192.544929 
L 223.063425 194.415809 
L 224.04494 195.708071 
L 225.026465 196.571849 
L 227.643843 198.517904 
L 228.29819 199.354303 
L 228.952536 200.496323 
L 229.606883 202.022763 
L 230.26123 204.005252 
L 230.915567 206.508774 
L 231.897092 211.356944 
L 232.878607 217.628844 
L 233.860123 225.384161 
L 234.187301 224.229433 
L 235.495985 211.043288 
L 237.131837 191.696911 
L 241.057918 143.134591 
L 242.039423 133.768352 
L 243.020948 126.808705 
L 243.675285 123.792098 
L 244.002473 122.824162 
L 244.329642 122.235051 
L 244.65681 122.037556 
L 244.983979 122.24101 
L 245.311147 122.851929 
L 245.638335 123.874632 
L 246.292672 127.157247 
L 246.947029 132.065126 
L 247.601366 138.531731 
L 248.582891 150.903782 
L 249.891565 171.522434 
L 251.527447 201.543125 
L 252.836121 225.911925 
L 254.799171 190.998523 
L 256.107864 171.88749 
L 257.08937 160.614849 
L 258.070895 152.334539 
L 258.725232 148.571513 
L 259.379589 146.23946 
L 259.706757 145.608002 
L 260.033926 145.328599 
L 260.361094 145.397908 
L 260.688282 145.80785 
L 261.015451 146.551893 
L 261.669788 149.002907 
L 262.324144 152.664554 
L 263.30565 160.19429 
L 264.287175 169.790048 
L 265.595868 184.951487 
L 268.867593 226.059814 
L 270.176286 211.608352 
L 271.157811 202.735634 
L 272.139317 195.980347 
L 272.793673 192.780279 
L 273.44801 190.665463 
L 273.775179 190.016016 
L 274.102367 189.63355 
L 274.429535 189.513328 
L 274.756704 189.6475 
L 275.083872 190.025144 
L 275.738229 191.461035 
L 276.392566 193.700899 
L 277.374091 198.241148 
L 279.009953 207.496065 
L 280.645815 216.377037 
L 281.62734 220.456635 
L 282.281677 222.400527 
L 282.936014 223.633487 
L 283.263202 223.971164 
L 283.590371 224.120624 
L 283.917539 224.083477 
L 284.244708 223.86388 
L 284.899064 222.900905 
L 285.553401 221.305273 
L 286.534926 217.956956 
L 288.170788 210.986459 
L 289.479482 205.570463 
L 290.460988 202.398731 
L 291.115344 200.943117 
L 291.769681 200.121098 
L 292.09685 199.967652 
L 292.424038 199.99059 
L 292.751206 200.19471 
L 293.078375 200.577689 
L 293.732731 201.876019 
L 294.387068 203.84478 
L 295.368593 207.903151 
L 296.677267 214.831765 
L 298.640317 226.166254 
L 299.949011 219.34131 
L 300.930517 215.373762 
L 301.584873 213.452518 
L 302.23921 212.185174 
L 302.566379 211.809284 
L 302.893567 211.60795 
L 303.220735 211.58495 
L 303.547904 211.736012 
L 303.875072 212.062158 
L 304.529429 213.218588 
L 305.183766 215.009263 
L 306.165291 218.737913 
L 307.146796 223.454983 
L 307.473984 225.186889 
L 307.801153 225.549608 
L 311.072877 207.693049 
L 312.054402 203.555711 
L 313.035908 200.478176 
L 313.690264 199.094049 
L 314.344601 198.26941 
L 314.67177 198.067585 
L 314.998958 198.00402 
L 315.326126 198.07628 
L 315.980463 198.608248 
L 316.63482 199.619789 
L 317.289157 201.050589 
L 318.270682 203.830014 
L 319.579375 208.314029 
L 323.178268 221.084499 
L 324.81413 225.962173 
L 325.141299 225.652813 
L 328.740211 215.583577 
L 330.376073 210.225932 
L 335.283659 193.266529 
L 336.265184 190.907731 
L 336.919521 189.747091 
L 337.573878 188.96327 
L 338.228215 188.590196 
L 338.555383 188.563606 
L 339.20974 188.844278 
L 339.864077 189.570305 
L 340.518433 190.739117 
L 341.17277 192.335083 
L 342.154295 195.473507 
L 343.135801 199.39309 
L 344.444495 205.555156 
L 347.38905 221.076002 
L 348.370575 226.048516 
L 349.024912 223.374901 
L 350.333606 217.871527 
L 351.315131 214.484995 
L 352.296636 211.812395 
L 353.278161 209.892501 
L 353.932498 209.032244 
L 354.586855 208.501599 
L 355.241192 208.291122 
L 355.895549 208.38499 
L 356.549886 208.769084 
L 357.204242 209.421784 
L 358.185748 210.864584 
L 359.167273 212.800304 
L 360.475966 216.027677 
L 362.111828 220.880648 
L 363.74769 226.171935 
L 368.00094 211.619566 
L 369.309633 207.979216 
L 370.291139 205.834435 
L 370.945495 204.763349 
L 371.599832 204.028654 
L 372.254189 203.676321 
L 372.908526 203.744546 
L 373.562863 204.273836 
L 374.217219 205.300533 
L 374.871556 206.856055 
L 375.525913 208.965724 
L 376.507419 213.214641 
L 377.488944 218.797285 
L 378.470469 225.710948 
L 378.797637 224.221639 
L 380.106331 212.483429 
L 381.742193 195.123402 
L 384.032392 167.536591 
L 386.976948 132.133754 
L 388.285641 118.870931 
L 389.267166 110.801876 
L 390.248672 104.825611 
L 390.903028 102.213544 
L 391.230197 101.364856 
L 391.557365 100.839877 
L 391.884553 100.653015 
L 392.211722 100.818479 
L 392.53889 101.348481 
L 392.866059 102.256092 
L 393.520415 105.251077 
L 394.174752 109.891254 
L 394.829109 116.252518 
L 395.483446 124.399488 
L 396.464971 140.074051 
L 397.446477 159.985991 
L 398.428002 184.170603 
L 399.736695 222.978121 
L 400.063864 218.703754 
L 400.063864 218.703754 
" clip-path="url(#p6f6092bcc3)" style="fill: none; stroke: #ee7733; stroke-width: 2; stroke-linecap: square"/>
   </g>
   <g id="patch_3">
    <path d="M 56.5325 236.68 
L 56.5325 7.2 
" style="fill: none; stroke: #000000; stroke-width: 0.8; stroke-linejoin: miter; stroke-linecap: square"/>
   </g>
   <g id="patch_4">
    <path d="M 416.4225 236.68 
L 416.4225 7.2 
" style="fill: none; stroke: #000000; stroke-width: 0.8; stroke-linejoin: miter; stroke-linecap: square"/>
   </g>
   <g id="patch_5">
    <path d="M 56.5325 236.68 
L 416.4225 236.68 
" style="fill: none; stroke: #000000; stroke-width: 0.8; stroke-linejoin: miter; stroke-linecap: square"/>
   </g>
   <g id="patch_6">
    <path d="M 56.5325 7.2 
L 416.4225 7.2 
" style="fill: none; stroke: #000000; stroke-width: 0.8; stroke-linejoin: miter; stroke-linecap: square"/>
   </g>
   <g id="legend_1">
    <g id="patch_7">
     <path d="M 299.370937 44.55625 
L 409.4225 44.55625 
Q 411.4225 44.55625 411.4225 42.55625 
L 411.4225 14.2 
Q 411.4225 12.2 409.4225 12.2 
L 299.370937 12.2 
Q 297.370937 12.2 297.370937 14.2 
L 297.370937 42.55625 
Q 297.370937 44.55625 299.370937 44.55625 
z
" style="fill: #ffffff; opacity: 0.8; stroke: #cccccc; stroke-linejoin: miter"/>
    </g>
    <g id="line2d_18">
     <path d="M 301.370937 20.298437 
L 311.370937 20.298437 
L 321.370937 20.298437 
" style="fill: none; stroke: #0077bb; stroke-width: 2; stroke-linecap: square"/>
    </g>
    <g id="text_18">
     <!-- Meng's MF-BNN -->
     <g transform="translate(329.370937 23.798437) scale(0.1 -0.1)">
      <defs>
       <path id="DejaVuSans-4d" d="M 628 4666 
L 1569 4666 
L 2759 1491 
L 3956 4666 
L 4897 4666 
L 4897 0 
L 4281 0 
L 4281 4097 
L 3078 897 
L 2444 897 
L 1241 4097 
L 1241 0 
L 628 0 
L 628 4666 
z
" transform="scale(0.015625)"/>
       <path id="DejaVuSans-6e" d="M 3513 2113 
L 3513 0 
L 2938 0 
L 2938 2094 
Q 2938 2591 2744 2837 
Q 2550 3084 2163 3084 
Q 1697 3084 1428 2787 
Q 1159 2491 1159 1978 
L 1159 0 
L 581 0 
L 581 3500 
L 1159 3500 
L 1159 2956 
Q 1366 3272 1645 3428 
Q 1925 3584 2291 3584 
Q 2894 3584 3203 3211 
Q 3513 2838 3513 2113 
z
" transform="scale(0.015625)"/>
       <path id="DejaVuSans-67" d="M 2906 1791 
Q 2906 2416 2648 2759 
Q 2391 3103 1925 3103 
Q 1463 3103 1205 2759 
Q 947 2416 947 1791 
Q 947 1169 1205 825 
Q 1463 481 1925 481 
Q 2391 481 2648 825 
Q 2906 1169 2906 1791 
z
M 3481 434 
Q 3481 -459 3084 -895 
Q 2688 -1331 1869 -1331 
Q 1566 -1331 1297 -1286 
Q 1028 -1241 775 -1147 
L 775 -588 
Q 1028 -725 1275 -790 
Q 1522 -856 1778 -856 
Q 2344 -856 2625 -561 
Q 2906 -266 2906 331 
L 2906 616 
Q 2728 306 2450 153 
Q 2172 0 1784 0 
Q 1141 0 747 490 
Q 353 981 353 1791 
Q 353 2603 747 3093 
Q 1141 3584 1784 3584 
Q 2172 3584 2450 3431 
Q 2728 3278 2906 2969 
L 2906 3500 
L 3481 3500 
L 3481 434 
z
" transform="scale(0.015625)"/>
       <path id="DejaVuSans-27" d="M 1147 4666 
L 1147 2931 
L 616 2931 
L 616 4666 
L 1147 4666 
z
" transform="scale(0.015625)"/>
       <path id="DejaVuSans-46" d="M 628 4666 
L 3309 4666 
L 3309 4134 
L 1259 4134 
L 1259 2759 
L 3109 2759 
L 3109 2228 
L 1259 2228 
L 1259 0 
L 628 0 
L 628 4666 
z
" transform="scale(0.015625)"/>
       <path id="DejaVuSans-2d" d="M 313 2009 
L 1997 2009 
L 1997 1497 
L 313 1497 
L 313 2009 
z
" transform="scale(0.015625)"/>
       <path id="DejaVuSans-42" d="M 1259 2228 
L 1259 519 
L 2272 519 
Q 2781 519 3026 730 
Q 3272 941 3272 1375 
Q 3272 1813 3026 2020 
Q 2781 2228 2272 2228 
L 1259 2228 
z
M 1259 4147 
L 1259 2741 
L 2194 2741 
Q 2656 2741 2882 2914 
Q 3109 3088 3109 3444 
Q 3109 3797 2882 3972 
Q 2656 4147 2194 4147 
L 1259 4147 
z
M 628 4666 
L 2241 4666 
Q 2963 4666 3353 4366 
Q 3744 4066 3744 3513 
Q 3744 3084 3544 2831 
Q 3344 2578 2956 2516 
Q 3422 2416 3680 2098 
Q 3938 1781 3938 1306 
Q 3938 681 3513 340 
Q 3088 0 2303 0 
L 628 0 
L 628 4666 
z
" transform="scale(0.015625)"/>
       <path id="DejaVuSans-4e" d="M 628 4666 
L 1478 4666 
L 3547 763 
L 3547 4666 
L 4159 4666 
L 4159 0 
L 3309 0 
L 1241 3903 
L 1241 0 
L 628 0 
L 628 4666 
z
" transform="scale(0.015625)"/>
      </defs>
      <use xlink:href="#DejaVuSans-4d"/>
      <use xlink:href="#DejaVuSans-65" x="86.279297"/>
      <use xlink:href="#DejaVuSans-6e" x="147.802734"/>
      <use xlink:href="#DejaVuSans-67" x="211.181641"/>
      <use xlink:href="#DejaVuSans-27" x="274.658203"/>
      <use xlink:href="#DejaVuSans-73" x="302.148438"/>
      <use xlink:href="#DejaVuSans-20" x="354.248047"/>
      <use xlink:href="#DejaVuSans-4d" x="386.035156"/>
      <use xlink:href="#DejaVuSans-46" x="472.314453"/>
      <use xlink:href="#DejaVuSans-2d" x="529.833984"/>
      <use xlink:href="#DejaVuSans-42" x="562.292969"/>
      <use xlink:href="#DejaVuSans-4e" x="630.896484"/>
      <use xlink:href="#DejaVuSans-4e" x="705.701172"/>
     </g>
    </g>
    <g id="line2d_19">
     <path d="M 301.370937 34.976562 
L 311.370937 34.976562 
L 321.370937 34.976562 
" style="fill: none; stroke: #ee7733; stroke-width: 2; stroke-linecap: square"/>
    </g>
    <g id="text_19">
     <!-- MF-DNN-BNN -->
     <g transform="translate(329.370937 38.476562) scale(0.1 -0.1)">
      <defs>
       <path id="DejaVuSans-44" d="M 1259 4147 
L 1259 519 
L 2022 519 
Q 2988 519 3436 956 
Q 3884 1394 3884 2338 
Q 3884 3275 3436 3711 
Q 2988 4147 2022 4147 
L 1259 4147 
z
M 628 4666 
L 1925 4666 
Q 3281 4666 3915 4102 
Q 4550 3538 4550 2338 
Q 4550 1131 3912 565 
Q 3275 0 1925 0 
L 628 0 
L 628 4666 
z
" transform="scale(0.015625)"/>
      </defs>
      <use xlink:href="#DejaVuSans-4d"/>
      <use xlink:href="#DejaVuSans-46" x="86.279297"/>
      <use xlink:href="#DejaVuSans-2d" x="143.798828"/>
      <use xlink:href="#DejaVuSans-44" x="179.882812"/>
      <use xlink:href="#DejaVuSans-4e" x="256.884766"/>
      <use xlink:href="#DejaVuSans-4e" x="331.689453"/>
      <use xlink:href="#DejaVuSans-2d" x="406.494141"/>
      <use xlink:href="#DejaVuSans-42" x="438.953125"/>
      <use xlink:href="#DejaVuSans-4e" x="507.556641"/>
      <use xlink:href="#DejaVuSans-4e" x="582.361328"/>
     </g>
    </g>
   </g>
  </g>
 </g>
 <defs>
  <clipPath id="p6f6092bcc3">
   <rect x="56.5325" y="7.2" width="359.89" height="229.48"/>
  </clipPath>
 </defs>
</svg>
