<?xml version="1.0" encoding="utf-8" standalone="no"?>
<!DOCTYPE svg PUBLIC "-//W3C//DTD SVG 1.1//EN"
  "http://www.w3.org/Graphics/SVG/1.1/DTD/svg11.dtd">
<svg xmlns:xlink="http://www.w3.org/1999/xlink" width="1008pt" height="288pt" viewBox="0 0 1008 288" xmlns="http://www.w3.org/2000/svg" version="1.1">
 <metadata>
  <rdf:RDF xmlns:dc="http://purl.org/dc/elements/1.1/" xmlns:cc="http://creativecommons.org/ns#" xmlns:rdf="http://www.w3.org/1999/02/22-rdf-syntax-ns#">
   <cc:Work>
    <dc:type rdf:resource="http://purl.org/dc/dcmitype/StillImage"/>
    <dc:date>2023-12-26T18:58:43.255452</dc:date>
    <dc:format>image/svg+xml</dc:format>
    <dc:creator>
     <cc:Agent>
      <dc:title>Matplotlib v3.8.0, https://matplotlib.org/</dc:title>
     </cc:Agent>
    </dc:creator>
   </cc:Work>
  </rdf:RDF>
 </metadata>
 <defs>
  <style type="text/css">*{stroke-linejoin: round; stroke-linecap: butt}</style>
 </defs>
 <g id="figure_1">
  <g id="patch_1">
   <path d="M 0 288 
L 1008 288 
L 1008 0 
L 0 0 
z
" style="fill: #ffffff"/>
  </g>
  <g id="axes_1">
   <g id="patch_2">
    <path d="M 57.89 238.84 
L 237.1275 238.84 
L 237.1275 27.6 
L 57.89 27.6 
z
" style="fill: #ffffff"/>
   </g>
   <g id="PolyCollection_1">
    <defs>
     <path id="m434b7b7e34" d="M 67.323553 -250.798182 
L 67.323553 -188.403762 
L 86.190658 -132.816183 
L 105.057763 -103.441237 
L 123.924868 -96.012268 
L 142.791974 -91.479328 
L 161.659079 -81.509496 
L 180.526184 -80.158684 
L 199.393289 -72.019147 
L 218.260395 -70.798893 
L 237.1275 -64.261447 
L 255.994605 -64.286232 
L 274.861711 -62.305144 
L 293.728816 -63.228511 
L 312.595921 -60.831635 
L 331.463026 -60.931215 
L 350.330132 -60.211905 
L 369.197237 -59.825538 
L 388.064342 -59.27759 
L 406.931447 -59.362416 
L 425.798553 -58.761818 
L 425.798553 -78.207442 
L 425.798553 -78.207442 
L 406.931447 -75.101805 
L 388.064342 -79.167416 
L 369.197237 -81.232796 
L 350.330132 -75.729821 
L 331.463026 -79.114345 
L 312.595921 -80.701301 
L 293.728816 -83.528722 
L 274.861711 -83.011107 
L 255.994605 -86.597156 
L 237.1275 -81.16321 
L 218.260395 -97.128685 
L 199.393289 -102.829969 
L 180.526184 -108.401476 
L 161.659079 -112.201958 
L 142.791974 -125.906471 
L 123.924868 -130.950972 
L 105.057763 -142.496461 
L 86.190658 -188.353701 
L 67.323553 -250.798182 
z
" style="stroke: #1f77b4; stroke-opacity: 0.2"/>
    </defs>
    <g clip-path="url(#p2d1d8fd1a2)">
     <use xlink:href="#m434b7b7e34" x="0" y="288" style="fill: #1f77b4; fill-opacity: 0.2; stroke: #1f77b4; stroke-opacity: 0.2"/>
    </g>
   </g>
   <g id="PolyCollection_2">
    <defs>
     <path id="m7a44b4ad3b" d="M 67.323553 -212.354436 
L 67.323553 -147.101463 
L 86.190658 -114.456076 
L 105.057763 -86.585094 
L 123.924868 -84.29924 
L 142.791974 -78.275549 
L 161.659079 -68.043165 
L 180.526184 -62.319337 
L 199.393289 -63.198694 
L 218.260395 -60.455593 
L 237.1275 -60.253052 
L 237.1275 -77.046703 
L 237.1275 -77.046703 
L 218.260395 -75.266157 
L 199.393289 -82.448073 
L 180.526184 -82.191319 
L 161.659079 -91.549409 
L 142.791974 -105.609487 
L 123.924868 -112.879305 
L 105.057763 -120.638446 
L 86.190658 -187.587108 
L 67.323553 -212.354436 
z
" style="stroke: #ff7f0e; stroke-opacity: 0.2"/>
    </defs>
    <g clip-path="url(#p2d1d8fd1a2)">
     <use xlink:href="#m7a44b4ad3b" x="0" y="288" style="fill: #ff7f0e; fill-opacity: 0.2; stroke: #ff7f0e; stroke-opacity: 0.2"/>
    </g>
   </g>
   <g id="PolyCollection_3">
    <defs>
     <path id="m7c9dbcfd84" d="M 67.323553 -190.798706 
L 67.323553 -133.853095 
L 86.190658 -119.187282 
L 105.057763 -88.071733 
L 123.924868 -83.575294 
L 142.791974 -80.27558 
L 161.659079 -72.777582 
L 180.526184 -68.526692 
L 199.393289 -64.233385 
L 218.260395 -61.379944 
L 237.1275 -62.228551 
L 237.1275 -77.926816 
L 237.1275 -77.926816 
L 218.260395 -76.672961 
L 199.393289 -81.108464 
L 180.526184 -89.492139 
L 161.659079 -98.305339 
L 142.791974 -106.330151 
L 123.924868 -114.117001 
L 105.057763 -122.436819 
L 86.190658 -167.521471 
L 67.323553 -190.798706 
z
" style="stroke: #2ca02c; stroke-opacity: 0.2"/>
    </defs>
    <g clip-path="url(#p2d1d8fd1a2)">
     <use xlink:href="#m7c9dbcfd84" x="0" y="288" style="fill: #2ca02c; fill-opacity: 0.2; stroke: #2ca02c; stroke-opacity: 0.2"/>
    </g>
   </g>
   <g id="PolyCollection_4">
    <defs>
     <path id="m2bdd084ea9" d="M 67.323553 -189.797521 
L 67.323553 -136.295253 
L 86.190658 -107.16928 
L 105.057763 -89.779401 
L 123.924868 -85.51293 
L 142.791974 -85.781446 
L 161.659079 -78.55542 
L 180.526184 -69.769779 
L 199.393289 -65.443153 
L 218.260395 -63.511113 
L 237.1275 -62.171566 
L 237.1275 -79.490234 
L 237.1275 -79.490234 
L 218.260395 -79.068047 
L 199.393289 -87.682544 
L 180.526184 -90.442911 
L 161.659079 -105.914689 
L 142.791974 -113.323637 
L 123.924868 -118.985756 
L 105.057763 -125.031415 
L 86.190658 -157.336247 
L 67.323553 -189.797521 
z
" style="stroke: #d62728; stroke-opacity: 0.2"/>
    </defs>
    <g clip-path="url(#p2d1d8fd1a2)">
     <use xlink:href="#m2bdd084ea9" x="0" y="288" style="fill: #d62728; fill-opacity: 0.2; stroke: #d62728; stroke-opacity: 0.2"/>
    </g>
   </g>
   <g id="PolyCollection_5">
    <defs>
     <path id="m90010e3ae8" d="M 67.323553 -239.847011 
L 67.323553 -168.617257 
L 86.190658 -126.301239 
L 105.057763 -106.422058 
L 123.924868 -90.393243 
L 142.791974 -81.683011 
L 161.659079 -72.387966 
L 180.526184 -65.897107 
L 199.393289 -65.317696 
L 218.260395 -62.095718 
L 237.1275 -61.398081 
L 237.1275 -84.067443 
L 237.1275 -84.067443 
L 218.260395 -87.953925 
L 199.393289 -91.261655 
L 180.526184 -94.624205 
L 161.659079 -101.689431 
L 142.791974 -115.584271 
L 123.924868 -122.378588 
L 105.057763 -144.83768 
L 86.190658 -186.848093 
L 67.323553 -239.847011 
z
" style="stroke: #9467bd; stroke-opacity: 0.2"/>
    </defs>
    <g clip-path="url(#p2d1d8fd1a2)">
     <use xlink:href="#m90010e3ae8" x="0" y="288" style="fill: #9467bd; fill-opacity: 0.2; stroke: #9467bd; stroke-opacity: 0.2"/>
    </g>
   </g>
   <g id="matplotlib.axis_1">
    <g id="xtick_1">
     <g id="line2d_1">
      <defs>
       <path id="mc9932d468a" d="M 0 0 
L 0 3.5 
" style="stroke: #000000; stroke-width: 0.8"/>
      </defs>
      <g>
       <use xlink:href="#mc9932d468a" x="95.624211" y="238.84" style="stroke: #000000; stroke-width: 0.8"/>
      </g>
     </g>
     <g id="text_1">
      <!-- 5 -->
      <g transform="translate(91.170461 256.477812) scale(0.14 -0.14)">
       <defs>
        <path id="DejaVuSans-35" d="M 691 4666 
L 3169 4666 
L 3169 4134 
L 1269 4134 
L 1269 2991 
Q 1406 3038 1543 3061 
Q 1681 3084 1819 3084 
Q 2600 3084 3056 2656 
Q 3513 2228 3513 1497 
Q 3513 744 3044 326 
Q 2575 -91 1722 -91 
Q 1428 -91 1123 -41 
Q 819 9 494 109 
L 494 744 
Q 775 591 1075 516 
Q 1375 441 1709 441 
Q 2250 441 2565 725 
Q 2881 1009 2881 1497 
Q 2881 1984 2565 2268 
Q 2250 2553 1709 2553 
Q 1456 2553 1204 2497 
Q 953 2441 691 2322 
L 691 4666 
z
" transform="scale(0.015625)"/>
       </defs>
       <use xlink:href="#DejaVuSans-35"/>
      </g>
     </g>
    </g>
    <g id="xtick_2">
     <g id="line2d_2">
      <g>
       <use xlink:href="#mc9932d468a" x="142.791974" y="238.84" style="stroke: #000000; stroke-width: 0.8"/>
      </g>
     </g>
     <g id="text_2">
      <!-- 10 -->
      <g transform="translate(133.884474 256.477812) scale(0.14 -0.14)">
       <defs>
        <path id="DejaVuSans-31" d="M 794 531 
L 1825 531 
L 1825 4091 
L 703 3866 
L 703 4441 
L 1819 4666 
L 2450 4666 
L 2450 531 
L 3481 531 
L 3481 0 
L 794 0 
L 794 531 
z
" transform="scale(0.015625)"/>
        <path id="DejaVuSans-30" d="M 2034 4250 
Q 1547 4250 1301 3770 
Q 1056 3291 1056 2328 
Q 1056 1369 1301 889 
Q 1547 409 2034 409 
Q 2525 409 2770 889 
Q 3016 1369 3016 2328 
Q 3016 3291 2770 3770 
Q 2525 4250 2034 4250 
z
M 2034 4750 
Q 2819 4750 3233 4129 
Q 3647 3509 3647 2328 
Q 3647 1150 3233 529 
Q 2819 -91 2034 -91 
Q 1250 -91 836 529 
Q 422 1150 422 2328 
Q 422 3509 836 4129 
Q 1250 4750 2034 4750 
z
" transform="scale(0.015625)"/>
       </defs>
       <use xlink:href="#DejaVuSans-31"/>
       <use xlink:href="#DejaVuSans-30" x="63.623047"/>
      </g>
     </g>
    </g>
    <g id="xtick_3">
     <g id="line2d_3">
      <g>
       <use xlink:href="#mc9932d468a" x="189.959737" y="238.84" style="stroke: #000000; stroke-width: 0.8"/>
      </g>
     </g>
     <g id="text_3">
      <!-- 15 -->
      <g transform="translate(181.052237 256.477812) scale(0.14 -0.14)">
       <use xlink:href="#DejaVuSans-31"/>
       <use xlink:href="#DejaVuSans-35" x="63.623047"/>
      </g>
     </g>
    </g>
    <g id="xtick_4">
     <g id="line2d_4">
      <g>
       <use xlink:href="#mc9932d468a" x="237.1275" y="238.84" style="stroke: #000000; stroke-width: 0.8"/>
      </g>
     </g>
     <g id="text_4">
      <!-- 20 -->
      <g transform="translate(228.22 256.477812) scale(0.14 -0.14)">
       <defs>
        <path id="DejaVuSans-32" d="M 1228 531 
L 3431 531 
L 3431 0 
L 469 0 
L 469 531 
Q 828 903 1448 1529 
Q 2069 2156 2228 2338 
Q 2531 2678 2651 2914 
Q 2772 3150 2772 3378 
Q 2772 3750 2511 3984 
Q 2250 4219 1831 4219 
Q 1534 4219 1204 4116 
Q 875 4013 500 3803 
L 500 4441 
Q 881 4594 1212 4672 
Q 1544 4750 1819 4750 
Q 2544 4750 2975 4387 
Q 3406 4025 3406 3419 
Q 3406 3131 3298 2873 
Q 3191 2616 2906 2266 
Q 2828 2175 2409 1742 
Q 1991 1309 1228 531 
z
" transform="scale(0.015625)"/>
       </defs>
       <use xlink:href="#DejaVuSans-32"/>
       <use xlink:href="#DejaVuSans-30" x="63.623047"/>
      </g>
     </g>
    </g>
    <g id="text_5">
     <!-- num of hf samples (d) -->
     <g transform="translate(70.268125 274.027187) scale(0.14 -0.14)">
      <defs>
       <path id="DejaVuSans-6e" d="M 3513 2113 
L 3513 0 
L 2938 0 
L 2938 2094 
Q 2938 2591 2744 2837 
Q 2550 3084 2163 3084 
Q 1697 3084 1428 2787 
Q 1159 2491 1159 1978 
L 1159 0 
L 581 0 
L 581 3500 
L 1159 3500 
L 1159 2956 
Q 1366 3272 1645 3428 
Q 1925 3584 2291 3584 
Q 2894 3584 3203 3211 
Q 3513 2838 3513 2113 
z
" transform="scale(0.015625)"/>
       <path id="DejaVuSans-75" d="M 544 1381 
L 544 3500 
L 1119 3500 
L 1119 1403 
Q 1119 906 1312 657 
Q 1506 409 1894 409 
Q 2359 409 2629 706 
Q 2900 1003 2900 1516 
L 2900 3500 
L 3475 3500 
L 3475 0 
L 2900 0 
L 2900 538 
Q 2691 219 2414 64 
Q 2138 -91 1772 -91 
Q 1169 -91 856 284 
Q 544 659 544 1381 
z
M 1991 3584 
L 1991 3584 
z
" transform="scale(0.015625)"/>
       <path id="DejaVuSans-6d" d="M 3328 2828 
Q 3544 3216 3844 3400 
Q 4144 3584 4550 3584 
Q 5097 3584 5394 3201 
Q 5691 2819 5691 2113 
L 5691 0 
L 5113 0 
L 5113 2094 
Q 5113 2597 4934 2840 
Q 4756 3084 4391 3084 
Q 3944 3084 3684 2787 
Q 3425 2491 3425 1978 
L 3425 0 
L 2847 0 
L 2847 2094 
Q 2847 2600 2669 2842 
Q 2491 3084 2119 3084 
Q 1678 3084 1418 2786 
Q 1159 2488 1159 1978 
L 1159 0 
L 581 0 
L 581 3500 
L 1159 3500 
L 1159 2956 
Q 1356 3278 1631 3431 
Q 1906 3584 2284 3584 
Q 2666 3584 2933 3390 
Q 3200 3197 3328 2828 
z
" transform="scale(0.015625)"/>
       <path id="DejaVuSans-20" transform="scale(0.015625)"/>
       <path id="DejaVuSans-6f" d="M 1959 3097 
Q 1497 3097 1228 2736 
Q 959 2375 959 1747 
Q 959 1119 1226 758 
Q 1494 397 1959 397 
Q 2419 397 2687 759 
Q 2956 1122 2956 1747 
Q 2956 2369 2687 2733 
Q 2419 3097 1959 3097 
z
M 1959 3584 
Q 2709 3584 3137 3096 
Q 3566 2609 3566 1747 
Q 3566 888 3137 398 
Q 2709 -91 1959 -91 
Q 1206 -91 779 398 
Q 353 888 353 1747 
Q 353 2609 779 3096 
Q 1206 3584 1959 3584 
z
" transform="scale(0.015625)"/>
       <path id="DejaVuSans-66" d="M 2375 4863 
L 2375 4384 
L 1825 4384 
Q 1516 4384 1395 4259 
Q 1275 4134 1275 3809 
L 1275 3500 
L 2222 3500 
L 2222 3053 
L 1275 3053 
L 1275 0 
L 697 0 
L 697 3053 
L 147 3053 
L 147 3500 
L 697 3500 
L 697 3744 
Q 697 4328 969 4595 
Q 1241 4863 1831 4863 
L 2375 4863 
z
" transform="scale(0.015625)"/>
       <path id="DejaVuSans-68" d="M 3513 2113 
L 3513 0 
L 2938 0 
L 2938 2094 
Q 2938 2591 2744 2837 
Q 2550 3084 2163 3084 
Q 1697 3084 1428 2787 
Q 1159 2491 1159 1978 
L 1159 0 
L 581 0 
L 581 4863 
L 1159 4863 
L 1159 2956 
Q 1366 3272 1645 3428 
Q 1925 3584 2291 3584 
Q 2894 3584 3203 3211 
Q 3513 2838 3513 2113 
z
" transform="scale(0.015625)"/>
       <path id="DejaVuSans-73" d="M 2834 3397 
L 2834 2853 
Q 2591 2978 2328 3040 
Q 2066 3103 1784 3103 
Q 1356 3103 1142 2972 
Q 928 2841 928 2578 
Q 928 2378 1081 2264 
Q 1234 2150 1697 2047 
L 1894 2003 
Q 2506 1872 2764 1633 
Q 3022 1394 3022 966 
Q 3022 478 2636 193 
Q 2250 -91 1575 -91 
Q 1294 -91 989 -36 
Q 684 19 347 128 
L 347 722 
Q 666 556 975 473 
Q 1284 391 1588 391 
Q 1994 391 2212 530 
Q 2431 669 2431 922 
Q 2431 1156 2273 1281 
Q 2116 1406 1581 1522 
L 1381 1569 
Q 847 1681 609 1914 
Q 372 2147 372 2553 
Q 372 3047 722 3315 
Q 1072 3584 1716 3584 
Q 2034 3584 2315 3537 
Q 2597 3491 2834 3397 
z
" transform="scale(0.015625)"/>
       <path id="DejaVuSans-61" d="M 2194 1759 
Q 1497 1759 1228 1600 
Q 959 1441 959 1056 
Q 959 750 1161 570 
Q 1363 391 1709 391 
Q 2188 391 2477 730 
Q 2766 1069 2766 1631 
L 2766 1759 
L 2194 1759 
z
M 3341 1997 
L 3341 0 
L 2766 0 
L 2766 531 
Q 2569 213 2275 61 
Q 1981 -91 1556 -91 
Q 1019 -91 701 211 
Q 384 513 384 1019 
Q 384 1609 779 1909 
Q 1175 2209 1959 2209 
L 2766 2209 
L 2766 2266 
Q 2766 2663 2505 2880 
Q 2244 3097 1772 3097 
Q 1472 3097 1187 3025 
Q 903 2953 641 2809 
L 641 3341 
Q 956 3463 1253 3523 
Q 1550 3584 1831 3584 
Q 2591 3584 2966 3190 
Q 3341 2797 3341 1997 
z
" transform="scale(0.015625)"/>
       <path id="DejaVuSans-70" d="M 1159 525 
L 1159 -1331 
L 581 -1331 
L 581 3500 
L 1159 3500 
L 1159 2969 
Q 1341 3281 1617 3432 
Q 1894 3584 2278 3584 
Q 2916 3584 3314 3078 
Q 3713 2572 3713 1747 
Q 3713 922 3314 415 
Q 2916 -91 2278 -91 
Q 1894 -91 1617 61 
Q 1341 213 1159 525 
z
M 3116 1747 
Q 3116 2381 2855 2742 
Q 2594 3103 2138 3103 
Q 1681 3103 1420 2742 
Q 1159 2381 1159 1747 
Q 1159 1113 1420 752 
Q 1681 391 2138 391 
Q 2594 391 2855 752 
Q 3116 1113 3116 1747 
z
" transform="scale(0.015625)"/>
       <path id="DejaVuSans-6c" d="M 603 4863 
L 1178 4863 
L 1178 0 
L 603 0 
L 603 4863 
z
" transform="scale(0.015625)"/>
       <path id="DejaVuSans-65" d="M 3597 1894 
L 3597 1613 
L 953 1613 
Q 991 1019 1311 708 
Q 1631 397 2203 397 
Q 2534 397 2845 478 
Q 3156 559 3463 722 
L 3463 178 
Q 3153 47 2828 -22 
Q 2503 -91 2169 -91 
Q 1331 -91 842 396 
Q 353 884 353 1716 
Q 353 2575 817 3079 
Q 1281 3584 2069 3584 
Q 2775 3584 3186 3129 
Q 3597 2675 3597 1894 
z
M 3022 2063 
Q 3016 2534 2758 2815 
Q 2500 3097 2075 3097 
Q 1594 3097 1305 2825 
Q 1016 2553 972 2059 
L 3022 2063 
z
" transform="scale(0.015625)"/>
       <path id="DejaVuSans-28" d="M 1984 4856 
Q 1566 4138 1362 3434 
Q 1159 2731 1159 2009 
Q 1159 1288 1364 580 
Q 1569 -128 1984 -844 
L 1484 -844 
Q 1016 -109 783 600 
Q 550 1309 550 2009 
Q 550 2706 781 3412 
Q 1013 4119 1484 4856 
L 1984 4856 
z
" transform="scale(0.015625)"/>
       <path id="DejaVuSans-64" d="M 2906 2969 
L 2906 4863 
L 3481 4863 
L 3481 0 
L 2906 0 
L 2906 525 
Q 2725 213 2448 61 
Q 2172 -91 1784 -91 
Q 1150 -91 751 415 
Q 353 922 353 1747 
Q 353 2572 751 3078 
Q 1150 3584 1784 3584 
Q 2172 3584 2448 3432 
Q 2725 3281 2906 2969 
z
M 947 1747 
Q 947 1113 1208 752 
Q 1469 391 1925 391 
Q 2381 391 2643 752 
Q 2906 1113 2906 1747 
Q 2906 2381 2643 2742 
Q 2381 3103 1925 3103 
Q 1469 3103 1208 2742 
Q 947 2381 947 1747 
z
" transform="scale(0.015625)"/>
       <path id="DejaVuSans-29" d="M 513 4856 
L 1013 4856 
Q 1481 4119 1714 3412 
Q 1947 2706 1947 2009 
Q 1947 1309 1714 600 
Q 1481 -109 1013 -844 
L 513 -844 
Q 928 -128 1133 580 
Q 1338 1288 1338 2009 
Q 1338 2731 1133 3434 
Q 928 4138 513 4856 
z
" transform="scale(0.015625)"/>
      </defs>
      <use xlink:href="#DejaVuSans-6e"/>
      <use xlink:href="#DejaVuSans-75" x="63.378906"/>
      <use xlink:href="#DejaVuSans-6d" x="126.757812"/>
      <use xlink:href="#DejaVuSans-20" x="224.169922"/>
      <use xlink:href="#DejaVuSans-6f" x="255.957031"/>
      <use xlink:href="#DejaVuSans-66" x="317.138672"/>
      <use xlink:href="#DejaVuSans-20" x="352.34375"/>
      <use xlink:href="#DejaVuSans-68" x="384.130859"/>
      <use xlink:href="#DejaVuSans-66" x="447.509766"/>
      <use xlink:href="#DejaVuSans-20" x="482.714844"/>
      <use xlink:href="#DejaVuSans-73" x="514.501953"/>
      <use xlink:href="#DejaVuSans-61" x="566.601562"/>
      <use xlink:href="#DejaVuSans-6d" x="627.880859"/>
      <use xlink:href="#DejaVuSans-70" x="725.292969"/>
      <use xlink:href="#DejaVuSans-6c" x="788.769531"/>
      <use xlink:href="#DejaVuSans-65" x="816.552734"/>
      <use xlink:href="#DejaVuSans-73" x="878.076172"/>
      <use xlink:href="#DejaVuSans-20" x="930.175781"/>
      <use xlink:href="#DejaVuSans-28" x="961.962891"/>
      <use xlink:href="#DejaVuSans-64" x="1000.976562"/>
      <use xlink:href="#DejaVuSans-29" x="1064.453125"/>
     </g>
    </g>
   </g>
   <g id="matplotlib.axis_2">
    <g id="ytick_1">
     <g id="line2d_5">
      <defs>
       <path id="m41c8fc0344" d="M 0 0 
L -3.5 0 
" style="stroke: #000000; stroke-width: 0.8"/>
      </defs>
      <g>
       <use xlink:href="#m41c8fc0344" x="57.89" y="234.719841" style="stroke: #000000; stroke-width: 0.8"/>
      </g>
     </g>
     <g id="text_6">
      <!-- 0.0 -->
      <g transform="translate(28.625625 240.038747) scale(0.14 -0.14)">
       <defs>
        <path id="DejaVuSans-2e" d="M 684 794 
L 1344 794 
L 1344 0 
L 684 0 
L 684 794 
z
" transform="scale(0.015625)"/>
       </defs>
       <use xlink:href="#DejaVuSans-30"/>
       <use xlink:href="#DejaVuSans-2e" x="63.623047"/>
       <use xlink:href="#DejaVuSans-30" x="95.410156"/>
      </g>
     </g>
    </g>
    <g id="ytick_2">
     <g id="line2d_6">
      <g>
       <use xlink:href="#m41c8fc0344" x="57.89" y="193.613254" style="stroke: #000000; stroke-width: 0.8"/>
      </g>
     </g>
     <g id="text_7">
      <!-- 0.5 -->
      <g transform="translate(28.625625 198.93216) scale(0.14 -0.14)">
       <use xlink:href="#DejaVuSans-30"/>
       <use xlink:href="#DejaVuSans-2e" x="63.623047"/>
       <use xlink:href="#DejaVuSans-35" x="95.410156"/>
      </g>
     </g>
    </g>
    <g id="ytick_3">
     <g id="line2d_7">
      <g>
       <use xlink:href="#m41c8fc0344" x="57.89" y="152.506667" style="stroke: #000000; stroke-width: 0.8"/>
      </g>
     </g>
     <g id="text_8">
      <!-- 1.0 -->
      <g transform="translate(28.625625 157.825573) scale(0.14 -0.14)">
       <use xlink:href="#DejaVuSans-31"/>
       <use xlink:href="#DejaVuSans-2e" x="63.623047"/>
       <use xlink:href="#DejaVuSans-30" x="95.410156"/>
      </g>
     </g>
    </g>
    <g id="ytick_4">
     <g id="line2d_8">
      <g>
       <use xlink:href="#m41c8fc0344" x="57.89" y="111.40008" style="stroke: #000000; stroke-width: 0.8"/>
      </g>
     </g>
     <g id="text_9">
      <!-- 1.5 -->
      <g transform="translate(28.625625 116.718986) scale(0.14 -0.14)">
       <use xlink:href="#DejaVuSans-31"/>
       <use xlink:href="#DejaVuSans-2e" x="63.623047"/>
       <use xlink:href="#DejaVuSans-35" x="95.410156"/>
      </g>
     </g>
    </g>
    <g id="ytick_5">
     <g id="line2d_9">
      <g>
       <use xlink:href="#m41c8fc0344" x="57.89" y="70.293493" style="stroke: #000000; stroke-width: 0.8"/>
      </g>
     </g>
     <g id="text_10">
      <!-- 2.0 -->
      <g transform="translate(28.625625 75.612399) scale(0.14 -0.14)">
       <use xlink:href="#DejaVuSans-32"/>
       <use xlink:href="#DejaVuSans-2e" x="63.623047"/>
       <use xlink:href="#DejaVuSans-30" x="95.410156"/>
      </g>
     </g>
    </g>
    <g id="ytick_6">
     <g id="line2d_10">
      <g>
       <use xlink:href="#m41c8fc0344" x="57.89" y="29.186906" style="stroke: #000000; stroke-width: 0.8"/>
      </g>
     </g>
     <g id="text_11">
      <!-- 2.5 -->
      <g transform="translate(28.625625 34.505812) scale(0.14 -0.14)">
       <use xlink:href="#DejaVuSans-32"/>
       <use xlink:href="#DejaVuSans-2e" x="63.623047"/>
       <use xlink:href="#DejaVuSans-35" x="95.410156"/>
      </g>
     </g>
    </g>
    <g id="text_12">
     <!-- NMAE -->
     <g transform="translate(21.714062 153.708125) rotate(-90) scale(0.14 -0.14)">
      <defs>
       <path id="DejaVuSans-4e" d="M 628 4666 
L 1478 4666 
L 3547 763 
L 3547 4666 
L 4159 4666 
L 4159 0 
L 3309 0 
L 1241 3903 
L 1241 0 
L 628 0 
L 628 4666 
z
" transform="scale(0.015625)"/>
       <path id="DejaVuSans-4d" d="M 628 4666 
L 1569 4666 
L 2759 1491 
L 3956 4666 
L 4897 4666 
L 4897 0 
L 4281 0 
L 4281 4097 
L 3078 897 
L 2444 897 
L 1241 4097 
L 1241 0 
L 628 0 
L 628 4666 
z
" transform="scale(0.015625)"/>
       <path id="DejaVuSans-41" d="M 2188 4044 
L 1331 1722 
L 3047 1722 
L 2188 4044 
z
M 1831 4666 
L 2547 4666 
L 4325 0 
L 3669 0 
L 3244 1197 
L 1141 1197 
L 716 0 
L 50 0 
L 1831 4666 
z
" transform="scale(0.015625)"/>
       <path id="DejaVuSans-45" d="M 628 4666 
L 3578 4666 
L 3578 4134 
L 1259 4134 
L 1259 2753 
L 3481 2753 
L 3481 2222 
L 1259 2222 
L 1259 531 
L 3634 531 
L 3634 0 
L 628 0 
L 628 4666 
z
" transform="scale(0.015625)"/>
      </defs>
      <use xlink:href="#DejaVuSans-4e"/>
      <use xlink:href="#DejaVuSans-4d" x="74.804688"/>
      <use xlink:href="#DejaVuSans-41" x="161.083984"/>
      <use xlink:href="#DejaVuSans-45" x="229.492188"/>
     </g>
    </g>
   </g>
   <g id="line2d_11">
    <path d="M 67.323553 67.37132 
L 86.190658 129.073671 
L 105.057763 164.751218 
L 123.924868 174.714763 
L 142.791974 180.715055 
L 161.659079 191.29068 
L 180.526184 194.760016 
L 199.393289 201.303945 
L 218.260395 205.191776 
L 237.1275 215.814522 
L 255.994605 213.495083 
L 274.861711 216.569047 
L 293.728816 215.941291 
L 312.595921 217.796944 
L 331.463026 219.267896 
L 350.330132 220.632638 
L 369.197237 218.347339 
L 388.064342 220.025552 
L 406.931447 221.306053 
L 425.798553 221.146793 
" clip-path="url(#p2d1d8fd1a2)" style="fill: none; stroke: #1f77b4; stroke-width: 2; stroke-linecap: square"/>
   </g>
   <g id="line2d_12">
    <path d="M 67.323553 108.95057 
L 86.190658 142.250615 
L 105.057763 185.317384 
L 123.924868 191.051108 
L 142.791974 197.12565 
L 161.659079 208.890865 
L 180.526184 215.766801 
L 199.393289 216.080125 
L 218.260395 220.757559 
L 237.1275 219.951824 
" clip-path="url(#p2d1d8fd1a2)" style="fill: none; stroke: #ff7f0e; stroke-width: 2; stroke-linecap: square"/>
   </g>
   <g id="line2d_13">
    <path d="M 67.323553 126.331527 
L 86.190658 144.81869 
L 105.057763 183.293011 
L 123.924868 189.783178 
L 142.791974 195.360598 
L 161.659079 202.663616 
L 180.526184 210.103559 
L 199.393289 215.857435 
L 218.260395 219.643487 
L 237.1275 218.637809 
" clip-path="url(#p2d1d8fd1a2)" style="fill: none; stroke: #2ca02c; stroke-width: 2; stroke-linecap: square"/>
   </g>
   <g id="line2d_14">
    <path d="M 67.323553 125.042827 
L 86.190658 156.648342 
L 105.057763 181.745137 
L 123.924868 185.639663 
L 142.791974 188.464423 
L 161.659079 196.118845 
L 180.526184 208.639491 
L 199.393289 211.507258 
L 218.260395 217.283049 
L 237.1275 218.010994 
" clip-path="url(#p2d1d8fd1a2)" style="fill: none; stroke: #d62728; stroke-width: 2; stroke-linecap: square"/>
   </g>
   <g id="line2d_15">
    <path d="M 67.323553 83.657012 
L 86.190658 131.128895 
L 105.057763 162.900441 
L 123.924868 182.470492 
L 142.791974 190.406961 
L 161.659079 201.264033 
L 180.526184 208.951707 
L 199.393289 210.054708 
L 218.260395 214.544208 
L 237.1275 215.956871 
" clip-path="url(#p2d1d8fd1a2)" style="fill: none; stroke: #9467bd; stroke-width: 2; stroke-linecap: square"/>
   </g>
   <g id="patch_3">
    <path d="M 57.89 238.84 
L 57.89 27.6 
" style="fill: none; stroke: #000000; stroke-width: 0.8; stroke-linejoin: miter; stroke-linecap: square"/>
   </g>
   <g id="patch_4">
    <path d="M 237.1275 238.84 
L 237.1275 27.6 
" style="fill: none; stroke: #000000; stroke-width: 0.8; stroke-linejoin: miter; stroke-linecap: square"/>
   </g>
   <g id="patch_5">
    <path d="M 57.89 238.84 
L 237.1275 238.84 
" style="fill: none; stroke: #000000; stroke-width: 0.8; stroke-linejoin: miter; stroke-linecap: square"/>
   </g>
   <g id="patch_6">
    <path d="M 57.89 27.6 
L 237.1275 27.6 
" style="fill: none; stroke: #000000; stroke-width: 0.8; stroke-linejoin: miter; stroke-linecap: square"/>
   </g>
   <g id="text_13">
    <!-- (a) -->
    <g transform="translate(137.756875 21.6) scale(0.14 -0.14)">
     <use xlink:href="#DejaVuSans-28"/>
     <use xlink:href="#DejaVuSans-61" x="39.013672"/>
     <use xlink:href="#DejaVuSans-29" x="100.292969"/>
    </g>
   </g>
   <g id="legend_1">
    <g id="patch_7">
     <path d="M 100.094688 108.990625 
L 230.1275 108.990625 
Q 232.1275 108.990625 232.1275 106.990625 
L 232.1275 34.6 
Q 232.1275 32.6 230.1275 32.6 
L 100.094688 32.6 
Q 98.094688 32.6 98.094688 34.6 
L 98.094688 106.990625 
Q 98.094688 108.990625 100.094688 108.990625 
z
" style="fill: #ffffff; opacity: 0.8; stroke: #cccccc; stroke-linejoin: miter"/>
    </g>
    <g id="line2d_16">
     <path d="M 102.094688 40.698438 
L 112.094688 40.698438 
L 122.094688 40.698438 
" style="fill: none; stroke: #1f77b4; stroke-width: 2; stroke-linecap: square"/>
    </g>
    <g id="text_14">
     <!-- Kriging -->
     <g transform="translate(130.094688 44.198438) scale(0.1 -0.1)">
      <defs>
       <path id="DejaVuSans-4b" d="M 628 4666 
L 1259 4666 
L 1259 2694 
L 3353 4666 
L 4166 4666 
L 1850 2491 
L 4331 0 
L 3500 0 
L 1259 2247 
L 1259 0 
L 628 0 
L 628 4666 
z
" transform="scale(0.015625)"/>
       <path id="DejaVuSans-72" d="M 2631 2963 
Q 2534 3019 2420 3045 
Q 2306 3072 2169 3072 
Q 1681 3072 1420 2755 
Q 1159 2438 1159 1844 
L 1159 0 
L 581 0 
L 581 3500 
L 1159 3500 
L 1159 2956 
Q 1341 3275 1631 3429 
Q 1922 3584 2338 3584 
Q 2397 3584 2469 3576 
Q 2541 3569 2628 3553 
L 2631 2963 
z
" transform="scale(0.015625)"/>
       <path id="DejaVuSans-69" d="M 603 3500 
L 1178 3500 
L 1178 0 
L 603 0 
L 603 3500 
z
M 603 4863 
L 1178 4863 
L 1178 4134 
L 603 4134 
L 603 4863 
z
" transform="scale(0.015625)"/>
       <path id="DejaVuSans-67" d="M 2906 1791 
Q 2906 2416 2648 2759 
Q 2391 3103 1925 3103 
Q 1463 3103 1205 2759 
Q 947 2416 947 1791 
Q 947 1169 1205 825 
Q 1463 481 1925 481 
Q 2391 481 2648 825 
Q 2906 1169 2906 1791 
z
M 3481 434 
Q 3481 -459 3084 -895 
Q 2688 -1331 1869 -1331 
Q 1566 -1331 1297 -1286 
Q 1028 -1241 775 -1147 
L 775 -588 
Q 1028 -725 1275 -790 
Q 1522 -856 1778 -856 
Q 2344 -856 2625 -561 
Q 2906 -266 2906 331 
L 2906 616 
Q 2728 306 2450 153 
Q 2172 0 1784 0 
Q 1141 0 747 490 
Q 353 981 353 1791 
Q 353 2603 747 3093 
Q 1141 3584 1784 3584 
Q 2172 3584 2450 3431 
Q 2728 3278 2906 2969 
L 2906 3500 
L 3481 3500 
L 3481 434 
z
" transform="scale(0.015625)"/>
      </defs>
      <use xlink:href="#DejaVuSans-4b"/>
      <use xlink:href="#DejaVuSans-72" x="65.576172"/>
      <use xlink:href="#DejaVuSans-69" x="106.689453"/>
      <use xlink:href="#DejaVuSans-67" x="134.472656"/>
      <use xlink:href="#DejaVuSans-69" x="197.949219"/>
      <use xlink:href="#DejaVuSans-6e" x="225.732422"/>
      <use xlink:href="#DejaVuSans-67" x="289.111328"/>
     </g>
    </g>
    <g id="line2d_17">
     <path d="M 102.094688 55.376563 
L 112.094688 55.376563 
L 122.094688 55.376563 
" style="fill: none; stroke: #ff7f0e; stroke-width: 2; stroke-linecap: square"/>
    </g>
    <g id="text_15">
     <!-- Hierarchical Kriging -->
     <g transform="translate(130.094688 58.876563) scale(0.1 -0.1)">
      <defs>
       <path id="DejaVuSans-48" d="M 628 4666 
L 1259 4666 
L 1259 2753 
L 3553 2753 
L 3553 4666 
L 4184 4666 
L 4184 0 
L 3553 0 
L 3553 2222 
L 1259 2222 
L 1259 0 
L 628 0 
L 628 4666 
z
" transform="scale(0.015625)"/>
       <path id="DejaVuSans-63" d="M 3122 3366 
L 3122 2828 
Q 2878 2963 2633 3030 
Q 2388 3097 2138 3097 
Q 1578 3097 1268 2742 
Q 959 2388 959 1747 
Q 959 1106 1268 751 
Q 1578 397 2138 397 
Q 2388 397 2633 464 
Q 2878 531 3122 666 
L 3122 134 
Q 2881 22 2623 -34 
Q 2366 -91 2075 -91 
Q 1284 -91 818 406 
Q 353 903 353 1747 
Q 353 2603 823 3093 
Q 1294 3584 2113 3584 
Q 2378 3584 2631 3529 
Q 2884 3475 3122 3366 
z
" transform="scale(0.015625)"/>
      </defs>
      <use xlink:href="#DejaVuSans-48"/>
      <use xlink:href="#DejaVuSans-69" x="75.195312"/>
      <use xlink:href="#DejaVuSans-65" x="102.978516"/>
      <use xlink:href="#DejaVuSans-72" x="164.501953"/>
      <use xlink:href="#DejaVuSans-61" x="205.615234"/>
      <use xlink:href="#DejaVuSans-72" x="266.894531"/>
      <use xlink:href="#DejaVuSans-63" x="305.757812"/>
      <use xlink:href="#DejaVuSans-68" x="360.738281"/>
      <use xlink:href="#DejaVuSans-69" x="424.117188"/>
      <use xlink:href="#DejaVuSans-63" x="451.900391"/>
      <use xlink:href="#DejaVuSans-61" x="506.880859"/>
      <use xlink:href="#DejaVuSans-6c" x="568.160156"/>
      <use xlink:href="#DejaVuSans-20" x="595.943359"/>
      <use xlink:href="#DejaVuSans-4b" x="627.730469"/>
      <use xlink:href="#DejaVuSans-72" x="693.306641"/>
      <use xlink:href="#DejaVuSans-69" x="734.419922"/>
      <use xlink:href="#DejaVuSans-67" x="762.203125"/>
      <use xlink:href="#DejaVuSans-69" x="825.679688"/>
      <use xlink:href="#DejaVuSans-6e" x="853.462891"/>
      <use xlink:href="#DejaVuSans-67" x="916.841797"/>
     </g>
    </g>
    <g id="line2d_18">
     <path d="M 102.094688 70.054688 
L 112.094688 70.054688 
L 122.094688 70.054688 
" style="fill: none; stroke: #2ca02c; stroke-width: 2; stroke-linecap: square"/>
    </g>
    <g id="text_16">
     <!-- Co-Kriging -->
     <g transform="translate(130.094688 73.554688) scale(0.1 -0.1)">
      <defs>
       <path id="DejaVuSans-43" d="M 4122 4306 
L 4122 3641 
Q 3803 3938 3442 4084 
Q 3081 4231 2675 4231 
Q 1875 4231 1450 3742 
Q 1025 3253 1025 2328 
Q 1025 1406 1450 917 
Q 1875 428 2675 428 
Q 3081 428 3442 575 
Q 3803 722 4122 1019 
L 4122 359 
Q 3791 134 3420 21 
Q 3050 -91 2638 -91 
Q 1578 -91 968 557 
Q 359 1206 359 2328 
Q 359 3453 968 4101 
Q 1578 4750 2638 4750 
Q 3056 4750 3426 4639 
Q 3797 4528 4122 4306 
z
" transform="scale(0.015625)"/>
       <path id="DejaVuSans-2d" d="M 313 2009 
L 1997 2009 
L 1997 1497 
L 313 1497 
L 313 2009 
z
" transform="scale(0.015625)"/>
      </defs>
      <use xlink:href="#DejaVuSans-43"/>
      <use xlink:href="#DejaVuSans-6f" x="69.824219"/>
      <use xlink:href="#DejaVuSans-2d" x="132.880859"/>
      <use xlink:href="#DejaVuSans-4b" x="168.964844"/>
      <use xlink:href="#DejaVuSans-72" x="234.541016"/>
      <use xlink:href="#DejaVuSans-69" x="275.654297"/>
      <use xlink:href="#DejaVuSans-67" x="303.4375"/>
      <use xlink:href="#DejaVuSans-69" x="366.914062"/>
      <use xlink:href="#DejaVuSans-6e" x="394.697266"/>
      <use xlink:href="#DejaVuSans-67" x="458.076172"/>
     </g>
    </g>
    <g id="line2d_19">
     <path d="M 102.094688 84.732813 
L 112.094688 84.732813 
L 122.094688 84.732813 
" style="fill: none; stroke: #d62728; stroke-width: 2; stroke-linecap: square"/>
    </g>
    <g id="text_17">
     <!-- Scaled Kriging -->
     <g transform="translate(130.094688 88.232813) scale(0.1 -0.1)">
      <defs>
       <path id="DejaVuSans-53" d="M 3425 4513 
L 3425 3897 
Q 3066 4069 2747 4153 
Q 2428 4238 2131 4238 
Q 1616 4238 1336 4038 
Q 1056 3838 1056 3469 
Q 1056 3159 1242 3001 
Q 1428 2844 1947 2747 
L 2328 2669 
Q 3034 2534 3370 2195 
Q 3706 1856 3706 1288 
Q 3706 609 3251 259 
Q 2797 -91 1919 -91 
Q 1588 -91 1214 -16 
Q 841 59 441 206 
L 441 856 
Q 825 641 1194 531 
Q 1563 422 1919 422 
Q 2459 422 2753 634 
Q 3047 847 3047 1241 
Q 3047 1584 2836 1778 
Q 2625 1972 2144 2069 
L 1759 2144 
Q 1053 2284 737 2584 
Q 422 2884 422 3419 
Q 422 4038 858 4394 
Q 1294 4750 2059 4750 
Q 2388 4750 2728 4690 
Q 3069 4631 3425 4513 
z
" transform="scale(0.015625)"/>
      </defs>
      <use xlink:href="#DejaVuSans-53"/>
      <use xlink:href="#DejaVuSans-63" x="63.476562"/>
      <use xlink:href="#DejaVuSans-61" x="118.457031"/>
      <use xlink:href="#DejaVuSans-6c" x="179.736328"/>
      <use xlink:href="#DejaVuSans-65" x="207.519531"/>
      <use xlink:href="#DejaVuSans-64" x="269.042969"/>
      <use xlink:href="#DejaVuSans-20" x="332.519531"/>
      <use xlink:href="#DejaVuSans-4b" x="364.306641"/>
      <use xlink:href="#DejaVuSans-72" x="429.882812"/>
      <use xlink:href="#DejaVuSans-69" x="470.996094"/>
      <use xlink:href="#DejaVuSans-67" x="498.779297"/>
      <use xlink:href="#DejaVuSans-69" x="562.255859"/>
      <use xlink:href="#DejaVuSans-6e" x="590.039062"/>
      <use xlink:href="#DejaVuSans-67" x="653.417969"/>
     </g>
    </g>
    <g id="line2d_20">
     <path d="M 102.094688 99.410938 
L 112.094688 99.410938 
L 122.094688 99.410938 
" style="fill: none; stroke: #9467bd; stroke-width: 2; stroke-linecap: square"/>
    </g>
    <g id="text_18">
     <!-- MF-RBF-Kriging -->
     <g transform="translate(130.094688 102.910938) scale(0.1 -0.1)">
      <defs>
       <path id="DejaVuSans-46" d="M 628 4666 
L 3309 4666 
L 3309 4134 
L 1259 4134 
L 1259 2759 
L 3109 2759 
L 3109 2228 
L 1259 2228 
L 1259 0 
L 628 0 
L 628 4666 
z
" transform="scale(0.015625)"/>
       <path id="DejaVuSans-52" d="M 2841 2188 
Q 3044 2119 3236 1894 
Q 3428 1669 3622 1275 
L 4263 0 
L 3584 0 
L 2988 1197 
Q 2756 1666 2539 1819 
Q 2322 1972 1947 1972 
L 1259 1972 
L 1259 0 
L 628 0 
L 628 4666 
L 2053 4666 
Q 2853 4666 3247 4331 
Q 3641 3997 3641 3322 
Q 3641 2881 3436 2590 
Q 3231 2300 2841 2188 
z
M 1259 4147 
L 1259 2491 
L 2053 2491 
Q 2509 2491 2742 2702 
Q 2975 2913 2975 3322 
Q 2975 3731 2742 3939 
Q 2509 4147 2053 4147 
L 1259 4147 
z
" transform="scale(0.015625)"/>
       <path id="DejaVuSans-42" d="M 1259 2228 
L 1259 519 
L 2272 519 
Q 2781 519 3026 730 
Q 3272 941 3272 1375 
Q 3272 1813 3026 2020 
Q 2781 2228 2272 2228 
L 1259 2228 
z
M 1259 4147 
L 1259 2741 
L 2194 2741 
Q 2656 2741 2882 2914 
Q 3109 3088 3109 3444 
Q 3109 3797 2882 3972 
Q 2656 4147 2194 4147 
L 1259 4147 
z
M 628 4666 
L 2241 4666 
Q 2963 4666 3353 4366 
Q 3744 4066 3744 3513 
Q 3744 3084 3544 2831 
Q 3344 2578 2956 2516 
Q 3422 2416 3680 2098 
Q 3938 1781 3938 1306 
Q 3938 681 3513 340 
Q 3088 0 2303 0 
L 628 0 
L 628 4666 
z
" transform="scale(0.015625)"/>
      </defs>
      <use xlink:href="#DejaVuSans-4d"/>
      <use xlink:href="#DejaVuSans-46" x="86.279297"/>
      <use xlink:href="#DejaVuSans-2d" x="143.798828"/>
      <use xlink:href="#DejaVuSans-52" x="179.882812"/>
      <use xlink:href="#DejaVuSans-42" x="249.365234"/>
      <use xlink:href="#DejaVuSans-46" x="317.96875"/>
      <use xlink:href="#DejaVuSans-2d" x="375.488281"/>
      <use xlink:href="#DejaVuSans-4b" x="411.572266"/>
      <use xlink:href="#DejaVuSans-72" x="477.148438"/>
      <use xlink:href="#DejaVuSans-69" x="518.261719"/>
      <use xlink:href="#DejaVuSans-67" x="546.044922"/>
      <use xlink:href="#DejaVuSans-69" x="609.521484"/>
      <use xlink:href="#DejaVuSans-6e" x="637.304688"/>
      <use xlink:href="#DejaVuSans-67" x="700.683594"/>
     </g>
    </g>
   </g>
  </g>
  <g id="axes_2">
   <g id="patch_8">
    <path d="M 308.2925 238.84 
L 487.53 238.84 
L 487.53 27.6 
L 308.2925 27.6 
z
" style="fill: #ffffff"/>
   </g>
   <g id="PolyCollection_6">
    <defs>
     <path id="m8ea448eb48" d="M 317.726053 -250.798182 
L 317.726053 -185.981368 
L 336.593158 -127.503012 
L 355.460263 -96.352358 
L 374.327368 -86.770197 
L 393.194474 -81.299864 
L 412.061579 -76.245981 
L 430.928684 -72.872752 
L 449.795789 -68.413396 
L 468.662895 -66.612799 
L 487.53 -63.763372 
L 506.397105 -62.378136 
L 525.264211 -61.626636 
L 544.131316 -61.010974 
L 562.998421 -60.844835 
L 581.865526 -60.19296 
L 600.732632 -59.93592 
L 619.599737 -59.374186 
L 638.466842 -58.984469 
L 657.333947 -58.809154 
L 676.201053 -58.761818 
L 676.201053 -67.700599 
L 676.201053 -67.700599 
L 657.333947 -67.962708 
L 638.466842 -71.203604 
L 619.599737 -73.034218 
L 600.732632 -72.302285 
L 581.865526 -71.209706 
L 562.998421 -72.780077 
L 544.131316 -75.651751 
L 525.264211 -78.739671 
L 506.397105 -74.610463 
L 487.53 -75.972043 
L 468.662895 -83.101123 
L 449.795789 -89.214229 
L 430.928684 -90.760875 
L 412.061579 -99.601129 
L 393.194474 -105.700999 
L 374.327368 -113.037209 
L 355.460263 -131.078357 
L 336.593158 -175.948007 
L 317.726053 -250.798182 
z
" style="stroke: #1f77b4; stroke-opacity: 0.2"/>
    </defs>
    <g clip-path="url(#p3dbda205a2)">
     <use xlink:href="#m8ea448eb48" x="0" y="288" style="fill: #1f77b4; fill-opacity: 0.2; stroke: #1f77b4; stroke-opacity: 0.2"/>
    </g>
   </g>
   <g id="PolyCollection_7">
    <defs>
     <path id="m83de5e8b85" d="M 317.726053 -215.203152 
L 317.726053 -147.735196 
L 336.593158 -109.381213 
L 355.460263 -80.895611 
L 374.327368 -76.91067 
L 393.194474 -71.752716 
L 412.061579 -66.090905 
L 430.928684 -62.133868 
L 449.795789 -61.619273 
L 468.662895 -60.719437 
L 487.53 -60.399865 
L 487.53 -71.616112 
L 487.53 -71.616112 
L 468.662895 -71.166804 
L 449.795789 -73.65047 
L 430.928684 -74.455992 
L 412.061579 -81.881025 
L 393.194474 -90.395754 
L 374.327368 -100.786196 
L 355.460263 -111.255226 
L 336.593158 -179.393897 
L 317.726053 -215.203152 
z
" style="stroke: #ff7f0e; stroke-opacity: 0.2"/>
    </defs>
    <g clip-path="url(#p3dbda205a2)">
     <use xlink:href="#m83de5e8b85" x="0" y="288" style="fill: #ff7f0e; fill-opacity: 0.2; stroke: #ff7f0e; stroke-opacity: 0.2"/>
    </g>
   </g>
   <g id="PolyCollection_8">
    <defs>
     <path id="ma094b238fb" d="M 317.726053 -206.058032 
L 317.726053 -141.81321 
L 336.593158 -117.577454 
L 355.460263 -83.444629 
L 374.327368 -78.754921 
L 393.194474 -73.834297 
L 412.061579 -68.783484 
L 430.928684 -65.25788 
L 449.795789 -62.333705 
L 468.662895 -61.155789 
L 487.53 -61.536134 
L 487.53 -72.652457 
L 487.53 -72.652457 
L 468.662895 -71.353535 
L 449.795789 -73.822924 
L 430.928684 -80.622302 
L 412.061579 -84.887367 
L 393.194474 -91.805821 
L 374.327368 -102.37667 
L 355.460263 -115.584058 
L 336.593158 -162.901613 
L 317.726053 -206.058032 
z
" style="stroke: #2ca02c; stroke-opacity: 0.2"/>
    </defs>
    <g clip-path="url(#p3dbda205a2)">
     <use xlink:href="#ma094b238fb" x="0" y="288" style="fill: #2ca02c; fill-opacity: 0.2; stroke: #2ca02c; stroke-opacity: 0.2"/>
    </g>
   </g>
   <g id="PolyCollection_9">
    <defs>
     <path id="m2e98fa8a86" d="M 317.726053 -195.39354 
L 317.726053 -141.581678 
L 336.593158 -104.079534 
L 355.460263 -83.647626 
L 374.327368 -79.212842 
L 393.194474 -76.480599 
L 412.061579 -73.31857 
L 430.928684 -67.144296 
L 449.795789 -64.320742 
L 468.662895 -63.207025 
L 487.53 -61.504623 
L 487.53 -73.197467 
L 487.53 -73.197467 
L 468.662895 -75.561187 
L 449.795789 -77.949233 
L 430.928684 -80.375739 
L 412.061579 -92.333291 
L 393.194474 -95.708967 
L 374.327368 -102.422609 
L 355.460263 -113.681594 
L 336.593158 -146.453428 
L 317.726053 -195.39354 
z
" style="stroke: #d62728; stroke-opacity: 0.2"/>
    </defs>
    <g clip-path="url(#p3dbda205a2)">
     <use xlink:href="#m2e98fa8a86" x="0" y="288" style="fill: #d62728; fill-opacity: 0.2; stroke: #d62728; stroke-opacity: 0.2"/>
    </g>
   </g>
   <g id="PolyCollection_10">
    <defs>
     <path id="me02de9ab25" d="M 317.726053 -244.401041 
L 317.726053 -163.564238 
L 336.593158 -115.79342 
L 355.460263 -92.441177 
L 374.327368 -80.796339 
L 393.194474 -72.825916 
L 412.061579 -68.644418 
L 430.928684 -63.547238 
L 449.795789 -62.580336 
L 468.662895 -61.436142 
L 487.53 -61.246141 
L 487.53 -75.782026 
L 487.53 -75.782026 
L 468.662895 -75.195461 
L 449.795789 -78.59197 
L 430.928684 -79.950226 
L 412.061579 -87.927001 
L 393.194474 -95.305466 
L 374.327368 -105.033049 
L 355.460263 -124.44173 
L 336.593158 -159.796108 
L 317.726053 -244.401041 
z
" style="stroke: #9467bd; stroke-opacity: 0.2"/>
    </defs>
    <g clip-path="url(#p3dbda205a2)">
     <use xlink:href="#me02de9ab25" x="0" y="288" style="fill: #9467bd; fill-opacity: 0.2; stroke: #9467bd; stroke-opacity: 0.2"/>
    </g>
   </g>
   <g id="matplotlib.axis_3">
    <g id="xtick_5">
     <g id="line2d_21">
      <g>
       <use xlink:href="#mc9932d468a" x="346.026711" y="238.84" style="stroke: #000000; stroke-width: 0.8"/>
      </g>
     </g>
     <g id="text_19">
      <!-- 5 -->
      <g transform="translate(341.572961 256.477812) scale(0.14 -0.14)">
       <use xlink:href="#DejaVuSans-35"/>
      </g>
     </g>
    </g>
    <g id="xtick_6">
     <g id="line2d_22">
      <g>
       <use xlink:href="#mc9932d468a" x="393.194474" y="238.84" style="stroke: #000000; stroke-width: 0.8"/>
      </g>
     </g>
     <g id="text_20">
      <!-- 10 -->
      <g transform="translate(384.286974 256.477812) scale(0.14 -0.14)">
       <use xlink:href="#DejaVuSans-31"/>
       <use xlink:href="#DejaVuSans-30" x="63.623047"/>
      </g>
     </g>
    </g>
    <g id="xtick_7">
     <g id="line2d_23">
      <g>
       <use xlink:href="#mc9932d468a" x="440.362237" y="238.84" style="stroke: #000000; stroke-width: 0.8"/>
      </g>
     </g>
     <g id="text_21">
      <!-- 15 -->
      <g transform="translate(431.454737 256.477812) scale(0.14 -0.14)">
       <use xlink:href="#DejaVuSans-31"/>
       <use xlink:href="#DejaVuSans-35" x="63.623047"/>
      </g>
     </g>
    </g>
    <g id="xtick_8">
     <g id="line2d_24">
      <g>
       <use xlink:href="#mc9932d468a" x="487.53" y="238.84" style="stroke: #000000; stroke-width: 0.8"/>
      </g>
     </g>
     <g id="text_22">
      <!-- 20 -->
      <g transform="translate(478.6225 256.477812) scale(0.14 -0.14)">
       <use xlink:href="#DejaVuSans-32"/>
       <use xlink:href="#DejaVuSans-30" x="63.623047"/>
      </g>
     </g>
    </g>
    <g id="text_23">
     <!-- num of hf samples (d) -->
     <g transform="translate(320.670625 274.027187) scale(0.14 -0.14)">
      <use xlink:href="#DejaVuSans-6e"/>
      <use xlink:href="#DejaVuSans-75" x="63.378906"/>
      <use xlink:href="#DejaVuSans-6d" x="126.757812"/>
      <use xlink:href="#DejaVuSans-20" x="224.169922"/>
      <use xlink:href="#DejaVuSans-6f" x="255.957031"/>
      <use xlink:href="#DejaVuSans-66" x="317.138672"/>
      <use xlink:href="#DejaVuSans-20" x="352.34375"/>
      <use xlink:href="#DejaVuSans-68" x="384.130859"/>
      <use xlink:href="#DejaVuSans-66" x="447.509766"/>
      <use xlink:href="#DejaVuSans-20" x="482.714844"/>
      <use xlink:href="#DejaVuSans-73" x="514.501953"/>
      <use xlink:href="#DejaVuSans-61" x="566.601562"/>
      <use xlink:href="#DejaVuSans-6d" x="627.880859"/>
      <use xlink:href="#DejaVuSans-70" x="725.292969"/>
      <use xlink:href="#DejaVuSans-6c" x="788.769531"/>
      <use xlink:href="#DejaVuSans-65" x="816.552734"/>
      <use xlink:href="#DejaVuSans-73" x="878.076172"/>
      <use xlink:href="#DejaVuSans-20" x="930.175781"/>
      <use xlink:href="#DejaVuSans-28" x="961.962891"/>
      <use xlink:href="#DejaVuSans-64" x="1000.976562"/>
      <use xlink:href="#DejaVuSans-29" x="1064.453125"/>
     </g>
    </g>
   </g>
   <g id="matplotlib.axis_4">
    <g id="ytick_7">
     <g id="line2d_25">
      <g>
       <use xlink:href="#m41c8fc0344" x="308.2925" y="232.532059" style="stroke: #000000; stroke-width: 0.8"/>
      </g>
     </g>
     <g id="text_24">
      <!-- 0.0 -->
      <g transform="translate(279.028125 237.850965) scale(0.14 -0.14)">
       <use xlink:href="#DejaVuSans-30"/>
       <use xlink:href="#DejaVuSans-2e" x="63.623047"/>
       <use xlink:href="#DejaVuSans-30" x="95.410156"/>
      </g>
     </g>
    </g>
    <g id="ytick_8">
     <g id="line2d_26">
      <g>
       <use xlink:href="#m41c8fc0344" x="308.2925" y="178.447146" style="stroke: #000000; stroke-width: 0.8"/>
      </g>
     </g>
     <g id="text_25">
      <!-- 0.2 -->
      <g transform="translate(279.028125 183.766053) scale(0.14 -0.14)">
       <use xlink:href="#DejaVuSans-30"/>
       <use xlink:href="#DejaVuSans-2e" x="63.623047"/>
       <use xlink:href="#DejaVuSans-32" x="95.410156"/>
      </g>
     </g>
    </g>
    <g id="ytick_9">
     <g id="line2d_27">
      <g>
       <use xlink:href="#m41c8fc0344" x="308.2925" y="124.362234" style="stroke: #000000; stroke-width: 0.8"/>
      </g>
     </g>
     <g id="text_26">
      <!-- 0.4 -->
      <g transform="translate(279.028125 129.68114) scale(0.14 -0.14)">
       <defs>
        <path id="DejaVuSans-34" d="M 2419 4116 
L 825 1625 
L 2419 1625 
L 2419 4116 
z
M 2253 4666 
L 3047 4666 
L 3047 1625 
L 3713 1625 
L 3713 1100 
L 3047 1100 
L 3047 0 
L 2419 0 
L 2419 1100 
L 313 1100 
L 313 1709 
L 2253 4666 
z
" transform="scale(0.015625)"/>
       </defs>
       <use xlink:href="#DejaVuSans-30"/>
       <use xlink:href="#DejaVuSans-2e" x="63.623047"/>
       <use xlink:href="#DejaVuSans-34" x="95.410156"/>
      </g>
     </g>
    </g>
    <g id="ytick_10">
     <g id="line2d_28">
      <g>
       <use xlink:href="#m41c8fc0344" x="308.2925" y="70.277321" style="stroke: #000000; stroke-width: 0.8"/>
      </g>
     </g>
     <g id="text_27">
      <!-- 0.6 -->
      <g transform="translate(279.028125 75.596227) scale(0.14 -0.14)">
       <defs>
        <path id="DejaVuSans-36" d="M 2113 2584 
Q 1688 2584 1439 2293 
Q 1191 2003 1191 1497 
Q 1191 994 1439 701 
Q 1688 409 2113 409 
Q 2538 409 2786 701 
Q 3034 994 3034 1497 
Q 3034 2003 2786 2293 
Q 2538 2584 2113 2584 
z
M 3366 4563 
L 3366 3988 
Q 3128 4100 2886 4159 
Q 2644 4219 2406 4219 
Q 1781 4219 1451 3797 
Q 1122 3375 1075 2522 
Q 1259 2794 1537 2939 
Q 1816 3084 2150 3084 
Q 2853 3084 3261 2657 
Q 3669 2231 3669 1497 
Q 3669 778 3244 343 
Q 2819 -91 2113 -91 
Q 1303 -91 875 529 
Q 447 1150 447 2328 
Q 447 3434 972 4092 
Q 1497 4750 2381 4750 
Q 2619 4750 2861 4703 
Q 3103 4656 3366 4563 
z
" transform="scale(0.015625)"/>
       </defs>
       <use xlink:href="#DejaVuSans-30"/>
       <use xlink:href="#DejaVuSans-2e" x="63.623047"/>
       <use xlink:href="#DejaVuSans-36" x="95.410156"/>
      </g>
     </g>
    </g>
    <g id="text_28">
     <!-- NRMSE -->
     <g transform="translate(272.116562 158.2275) rotate(-90) scale(0.14 -0.14)">
      <use xlink:href="#DejaVuSans-4e"/>
      <use xlink:href="#DejaVuSans-52" x="74.804688"/>
      <use xlink:href="#DejaVuSans-4d" x="144.287109"/>
      <use xlink:href="#DejaVuSans-53" x="230.566406"/>
      <use xlink:href="#DejaVuSans-45" x="294.042969"/>
     </g>
    </g>
   </g>
   <g id="line2d_29">
    <path d="M 317.726053 68.654485 
L 336.593158 137.059767 
L 355.460263 175.16113 
L 374.327368 188.638435 
L 393.194474 194.89658 
L 412.061579 201.359473 
L 430.928684 206.213129 
L 449.795789 210.303153 
L 468.662895 213.852648 
L 487.53 218.744039 
L 506.397105 219.884877 
L 525.264211 218.734839 
L 544.131316 220.362644 
L 562.998421 221.969569 
L 581.865526 222.602859 
L 600.732632 222.89068 
L 619.599737 222.540332 
L 638.466842 223.423415 
L 657.333947 225.027392 
L 676.201053 225.138628 
" clip-path="url(#p3dbda205a2)" style="fill: none; stroke: #1f77b4; stroke-width: 2; stroke-linecap: square"/>
   </g>
   <g id="line2d_30">
    <path d="M 317.726053 107.001207 
L 336.593158 150.483405 
L 355.460263 192.499388 
L 374.327368 199.397677 
L 393.194474 207.186237 
L 412.061579 214.576184 
L 430.928684 220.216488 
L 449.795789 220.537117 
L 468.662895 222.347104 
L 487.53 222.345646 
" clip-path="url(#p3dbda205a2)" style="fill: none; stroke: #ff7f0e; stroke-width: 2; stroke-linecap: square"/>
   </g>
   <g id="line2d_31">
    <path d="M 317.726053 113.515629 
L 336.593158 147.721617 
L 355.460263 188.951271 
L 374.327368 198.055107 
L 393.194474 205.64979 
L 412.061579 211.564301 
L 430.928684 215.663688 
L 449.795789 220.38368 
L 468.662895 222.093742 
L 487.53 221.242634 
" clip-path="url(#p3dbda205a2)" style="fill: none; stroke: #2ca02c; stroke-width: 2; stroke-linecap: square"/>
   </g>
   <g id="line2d_32">
    <path d="M 317.726053 120.294091 
L 336.593158 163.355051 
L 355.460263 189.740347 
L 374.327368 196.807377 
L 393.194474 202.172917 
L 412.061579 205.937656 
L 430.928684 214.46425 
L 449.795789 217.068653 
L 468.662895 219.141833 
L 487.53 220.890559 
" clip-path="url(#p3dbda205a2)" style="fill: none; stroke: #d62728; stroke-width: 2; stroke-linecap: square"/>
   </g>
   <g id="line2d_33">
    <path d="M 317.726053 87.070841 
L 336.593158 149.140732 
L 355.460263 181.161611 
L 374.327368 195.65895 
L 393.194474 204.538448 
L 412.061579 210.444975 
L 430.928684 216.823221 
L 449.795789 217.904339 
L 468.662895 220.065911 
L 487.53 220.188308 
" clip-path="url(#p3dbda205a2)" style="fill: none; stroke: #9467bd; stroke-width: 2; stroke-linecap: square"/>
   </g>
   <g id="patch_9">
    <path d="M 308.2925 238.84 
L 308.2925 27.6 
" style="fill: none; stroke: #000000; stroke-width: 0.8; stroke-linejoin: miter; stroke-linecap: square"/>
   </g>
   <g id="patch_10">
    <path d="M 487.53 238.84 
L 487.53 27.6 
" style="fill: none; stroke: #000000; stroke-width: 0.8; stroke-linejoin: miter; stroke-linecap: square"/>
   </g>
   <g id="patch_11">
    <path d="M 308.2925 238.84 
L 487.53 238.84 
" style="fill: none; stroke: #000000; stroke-width: 0.8; stroke-linejoin: miter; stroke-linecap: square"/>
   </g>
   <g id="patch_12">
    <path d="M 308.2925 27.6 
L 487.53 27.6 
" style="fill: none; stroke: #000000; stroke-width: 0.8; stroke-linejoin: miter; stroke-linecap: square"/>
   </g>
   <g id="text_29">
    <!-- (b) -->
    <g transform="translate(388.005156 21.6) scale(0.14 -0.14)">
     <defs>
      <path id="DejaVuSans-62" d="M 3116 1747 
Q 3116 2381 2855 2742 
Q 2594 3103 2138 3103 
Q 1681 3103 1420 2742 
Q 1159 2381 1159 1747 
Q 1159 1113 1420 752 
Q 1681 391 2138 391 
Q 2594 391 2855 752 
Q 3116 1113 3116 1747 
z
M 1159 2969 
Q 1341 3281 1617 3432 
Q 1894 3584 2278 3584 
Q 2916 3584 3314 3078 
Q 3713 2572 3713 1747 
Q 3713 922 3314 415 
Q 2916 -91 2278 -91 
Q 1894 -91 1617 61 
Q 1341 213 1159 525 
L 1159 0 
L 581 0 
L 581 4863 
L 1159 4863 
L 1159 2969 
z
" transform="scale(0.015625)"/>
     </defs>
     <use xlink:href="#DejaVuSans-28"/>
     <use xlink:href="#DejaVuSans-62" x="39.013672"/>
     <use xlink:href="#DejaVuSans-29" x="102.490234"/>
    </g>
   </g>
   <g id="legend_2">
    <g id="patch_13">
     <path d="M 350.497187 108.990625 
L 480.53 108.990625 
Q 482.53 108.990625 482.53 106.990625 
L 482.53 34.6 
Q 482.53 32.6 480.53 32.6 
L 350.497187 32.6 
Q 348.497187 32.6 348.497187 34.6 
L 348.497187 106.990625 
Q 348.497187 108.990625 350.497187 108.990625 
z
" style="fill: #ffffff; opacity: 0.8; stroke: #cccccc; stroke-linejoin: miter"/>
    </g>
    <g id="line2d_34">
     <path d="M 352.497187 40.698438 
L 362.497187 40.698438 
L 372.497187 40.698438 
" style="fill: none; stroke: #1f77b4; stroke-width: 2; stroke-linecap: square"/>
    </g>
    <g id="text_30">
     <!-- Kriging -->
     <g transform="translate(380.497187 44.198438) scale(0.1 -0.1)">
      <use xlink:href="#DejaVuSans-4b"/>
      <use xlink:href="#DejaVuSans-72" x="65.576172"/>
      <use xlink:href="#DejaVuSans-69" x="106.689453"/>
      <use xlink:href="#DejaVuSans-67" x="134.472656"/>
      <use xlink:href="#DejaVuSans-69" x="197.949219"/>
      <use xlink:href="#DejaVuSans-6e" x="225.732422"/>
      <use xlink:href="#DejaVuSans-67" x="289.111328"/>
     </g>
    </g>
    <g id="line2d_35">
     <path d="M 352.497187 55.376563 
L 362.497187 55.376563 
L 372.497187 55.376563 
" style="fill: none; stroke: #ff7f0e; stroke-width: 2; stroke-linecap: square"/>
    </g>
    <g id="text_31">
     <!-- Hierarchical Kriging -->
     <g transform="translate(380.497187 58.876563) scale(0.1 -0.1)">
      <use xlink:href="#DejaVuSans-48"/>
      <use xlink:href="#DejaVuSans-69" x="75.195312"/>
      <use xlink:href="#DejaVuSans-65" x="102.978516"/>
      <use xlink:href="#DejaVuSans-72" x="164.501953"/>
      <use xlink:href="#DejaVuSans-61" x="205.615234"/>
      <use xlink:href="#DejaVuSans-72" x="266.894531"/>
      <use xlink:href="#DejaVuSans-63" x="305.757812"/>
      <use xlink:href="#DejaVuSans-68" x="360.738281"/>
      <use xlink:href="#DejaVuSans-69" x="424.117188"/>
      <use xlink:href="#DejaVuSans-63" x="451.900391"/>
      <use xlink:href="#DejaVuSans-61" x="506.880859"/>
      <use xlink:href="#DejaVuSans-6c" x="568.160156"/>
      <use xlink:href="#DejaVuSans-20" x="595.943359"/>
      <use xlink:href="#DejaVuSans-4b" x="627.730469"/>
      <use xlink:href="#DejaVuSans-72" x="693.306641"/>
      <use xlink:href="#DejaVuSans-69" x="734.419922"/>
      <use xlink:href="#DejaVuSans-67" x="762.203125"/>
      <use xlink:href="#DejaVuSans-69" x="825.679688"/>
      <use xlink:href="#DejaVuSans-6e" x="853.462891"/>
      <use xlink:href="#DejaVuSans-67" x="916.841797"/>
     </g>
    </g>
    <g id="line2d_36">
     <path d="M 352.497187 70.054688 
L 362.497187 70.054688 
L 372.497187 70.054688 
" style="fill: none; stroke: #2ca02c; stroke-width: 2; stroke-linecap: square"/>
    </g>
    <g id="text_32">
     <!-- Co-Kriging -->
     <g transform="translate(380.497187 73.554688) scale(0.1 -0.1)">
      <use xlink:href="#DejaVuSans-43"/>
      <use xlink:href="#DejaVuSans-6f" x="69.824219"/>
      <use xlink:href="#DejaVuSans-2d" x="132.880859"/>
      <use xlink:href="#DejaVuSans-4b" x="168.964844"/>
      <use xlink:href="#DejaVuSans-72" x="234.541016"/>
      <use xlink:href="#DejaVuSans-69" x="275.654297"/>
      <use xlink:href="#DejaVuSans-67" x="303.4375"/>
      <use xlink:href="#DejaVuSans-69" x="366.914062"/>
      <use xlink:href="#DejaVuSans-6e" x="394.697266"/>
      <use xlink:href="#DejaVuSans-67" x="458.076172"/>
     </g>
    </g>
    <g id="line2d_37">
     <path d="M 352.497187 84.732813 
L 362.497187 84.732813 
L 372.497187 84.732813 
" style="fill: none; stroke: #d62728; stroke-width: 2; stroke-linecap: square"/>
    </g>
    <g id="text_33">
     <!-- Scaled Kriging -->
     <g transform="translate(380.497187 88.232813) scale(0.1 -0.1)">
      <use xlink:href="#DejaVuSans-53"/>
      <use xlink:href="#DejaVuSans-63" x="63.476562"/>
      <use xlink:href="#DejaVuSans-61" x="118.457031"/>
      <use xlink:href="#DejaVuSans-6c" x="179.736328"/>
      <use xlink:href="#DejaVuSans-65" x="207.519531"/>
      <use xlink:href="#DejaVuSans-64" x="269.042969"/>
      <use xlink:href="#DejaVuSans-20" x="332.519531"/>
      <use xlink:href="#DejaVuSans-4b" x="364.306641"/>
      <use xlink:href="#DejaVuSans-72" x="429.882812"/>
      <use xlink:href="#DejaVuSans-69" x="470.996094"/>
      <use xlink:href="#DejaVuSans-67" x="498.779297"/>
      <use xlink:href="#DejaVuSans-69" x="562.255859"/>
      <use xlink:href="#DejaVuSans-6e" x="590.039062"/>
      <use xlink:href="#DejaVuSans-67" x="653.417969"/>
     </g>
    </g>
    <g id="line2d_38">
     <path d="M 352.497187 99.410938 
L 362.497187 99.410938 
L 372.497187 99.410938 
" style="fill: none; stroke: #9467bd; stroke-width: 2; stroke-linecap: square"/>
    </g>
    <g id="text_34">
     <!-- MF-RBF-Kriging -->
     <g transform="translate(380.497187 102.910938) scale(0.1 -0.1)">
      <use xlink:href="#DejaVuSans-4d"/>
      <use xlink:href="#DejaVuSans-46" x="86.279297"/>
      <use xlink:href="#DejaVuSans-2d" x="143.798828"/>
      <use xlink:href="#DejaVuSans-52" x="179.882812"/>
      <use xlink:href="#DejaVuSans-42" x="249.365234"/>
      <use xlink:href="#DejaVuSans-46" x="317.96875"/>
      <use xlink:href="#DejaVuSans-2d" x="375.488281"/>
      <use xlink:href="#DejaVuSans-4b" x="411.572266"/>
      <use xlink:href="#DejaVuSans-72" x="477.148438"/>
      <use xlink:href="#DejaVuSans-69" x="518.261719"/>
      <use xlink:href="#DejaVuSans-67" x="546.044922"/>
      <use xlink:href="#DejaVuSans-69" x="609.521484"/>
      <use xlink:href="#DejaVuSans-6e" x="637.304688"/>
      <use xlink:href="#DejaVuSans-67" x="700.683594"/>
     </g>
    </g>
   </g>
  </g>
  <g id="axes_3">
   <g id="patch_14">
    <path d="M 558.695 238.84 
L 737.9325 238.84 
L 737.9325 27.6 
L 558.695 27.6 
z
" style="fill: #ffffff"/>
   </g>
   <g id="PolyCollection_11">
    <defs>
     <path id="m6af07aa8f7" d="M 568.128553 -161.186 
L 568.128553 -114.718158 
L 586.995658 -176.861564 
L 605.862763 -205.978728 
L 624.729868 -223.700562 
L 643.596974 -227.980692 
L 662.464079 -234.563379 
L 681.331184 -240.566725 
L 700.198289 -237.785689 
L 719.065395 -245.518301 
L 737.9325 -246.785127 
L 756.799605 -246.348961 
L 775.666711 -241.692172 
L 794.533816 -244.268337 
L 813.400921 -245.868422 
L 832.268026 -246.951625 
L 851.135132 -246.252948 
L 870.002237 -245.261031 
L 888.869342 -246.628885 
L 907.736447 -248.696122 
L 926.603553 -248.560079 
L 926.603553 -250.751355 
L 926.603553 -250.751355 
L 907.736447 -250.739388 
L 888.869342 -250.651149 
L 870.002237 -250.798182 
L 851.135132 -250.770378 
L 832.268026 -250.51709 
L 813.400921 -250.458301 
L 794.533816 -250.442685 
L 775.666711 -250.069115 
L 756.799605 -250.167856 
L 737.9325 -250.187242 
L 719.065395 -249.626815 
L 700.198289 -248.981497 
L 681.331184 -247.569653 
L 662.464079 -246.736226 
L 643.596974 -242.620143 
L 624.729868 -239.373483 
L 605.862763 -232.184987 
L 586.995658 -211.117768 
L 568.128553 -161.186 
z
" style="stroke: #1f77b4; stroke-opacity: 0.2"/>
    </defs>
    <g clip-path="url(#p7db9d85527)">
     <use xlink:href="#m6af07aa8f7" x="0" y="288" style="fill: #1f77b4; fill-opacity: 0.2; stroke: #1f77b4; stroke-opacity: 0.2"/>
    </g>
   </g>
   <g id="PolyCollection_12">
    <defs>
     <path id="m371e8f7106" d="M 568.128553 -197.43345 
L 568.128553 -141.609429 
L 586.995658 -167.248853 
L 605.862763 -228.588715 
L 624.729868 -236.46755 
L 643.596974 -241.568662 
L 662.464079 -245.247627 
L 681.331184 -246.958163 
L 700.198289 -247.004123 
L 719.065395 -247.956135 
L 737.9325 -247.586947 
L 737.9325 -250.434839 
L 737.9325 -250.434839 
L 719.065395 -250.558759 
L 700.198289 -250.203218 
L 681.331184 -250.30519 
L 662.464079 -249.176688 
L 643.596974 -247.371332 
L 624.729868 -245.255641 
L 605.862763 -243.208482 
L 586.995658 -228.676914 
L 568.128553 -197.43345 
z
" style="stroke: #ff7f0e; stroke-opacity: 0.2"/>
    </defs>
    <g clip-path="url(#p7db9d85527)">
     <use xlink:href="#m371e8f7106" x="0" y="288" style="fill: #ff7f0e; fill-opacity: 0.2; stroke: #ff7f0e; stroke-opacity: 0.2"/>
    </g>
   </g>
   <g id="PolyCollection_13">
    <defs>
     <path id="m446bd610e1" d="M 568.128553 -204.576762 
L 568.128553 -157.021744 
L 586.995658 -199.255117 
L 605.862763 -221.555142 
L 624.729868 -233.734724 
L 643.596974 -241.315725 
L 662.464079 -243.596915 
L 681.331184 -240.491602 
L 700.198289 -247.454153 
L 719.065395 -248.209003 
L 737.9325 -247.794244 
L 737.9325 -250.341815 
L 737.9325 -250.341815 
L 719.065395 -250.436291 
L 700.198289 -250.314145 
L 681.331184 -249.720133 
L 662.464079 -248.486508 
L 643.596974 -247.045632 
L 624.729868 -244.577007 
L 605.862763 -241.671816 
L 586.995658 -224.767332 
L 568.128553 -204.576762 
z
" style="stroke: #2ca02c; stroke-opacity: 0.2"/>
    </defs>
    <g clip-path="url(#p7db9d85527)">
     <use xlink:href="#m446bd610e1" x="0" y="288" style="fill: #2ca02c; fill-opacity: 0.2; stroke: #2ca02c; stroke-opacity: 0.2"/>
    </g>
   </g>
   <g id="PolyCollection_14">
    <defs>
     <path id="m4f06dc09bf" d="M 568.128553 -210.874951 
L 568.128553 -175.945066 
L 586.995658 -207.373941 
L 605.862763 -225.779306 
L 624.729868 -234.609778 
L 643.596974 -240.273238 
L 662.464079 -241.208057 
L 681.331184 -245.882485 
L 700.198289 -245.087068 
L 719.065395 -247.390772 
L 737.9325 -247.36013 
L 737.9325 -250.504762 
L 737.9325 -250.504762 
L 719.065395 -250.318214 
L 700.198289 -249.971454 
L 681.331184 -249.546236 
L 662.464079 -247.417976 
L 643.596974 -246.599792 
L 624.729868 -244.809451 
L 605.862763 -241.925899 
L 586.995658 -232.226577 
L 568.128553 -210.874951 
z
" style="stroke: #d62728; stroke-opacity: 0.2"/>
    </defs>
    <g clip-path="url(#p7db9d85527)">
     <use xlink:href="#m4f06dc09bf" x="0" y="288" style="fill: #d62728; fill-opacity: 0.2; stroke: #d62728; stroke-opacity: 0.2"/>
    </g>
   </g>
   <g id="PolyCollection_15">
    <defs>
     <path id="mdebd7b0bb4" d="M 568.128553 -188.644226 
L 568.128553 -58.761818 
L 586.995658 -194.929977 
L 605.862763 -217.734028 
L 624.729868 -232.840123 
L 643.596974 -237.813388 
L 662.464079 -241.069145 
L 681.331184 -243.294199 
L 700.198289 -244.121697 
L 719.065395 -245.740623 
L 737.9325 -245.343867 
L 737.9325 -250.263978 
L 737.9325 -250.263978 
L 719.065395 -250.260455 
L 700.198289 -249.941312 
L 681.331184 -249.718588 
L 662.464079 -248.155419 
L 643.596974 -246.602509 
L 624.729868 -243.956153 
L 605.862763 -237.817684 
L 586.995658 -223.955081 
L 568.128553 -188.644226 
z
" style="stroke: #9467bd; stroke-opacity: 0.2"/>
    </defs>
    <g clip-path="url(#p7db9d85527)">
     <use xlink:href="#mdebd7b0bb4" x="0" y="288" style="fill: #9467bd; fill-opacity: 0.2; stroke: #9467bd; stroke-opacity: 0.2"/>
    </g>
   </g>
   <g id="matplotlib.axis_5">
    <g id="xtick_9">
     <g id="line2d_39">
      <g>
       <use xlink:href="#mc9932d468a" x="596.429211" y="238.84" style="stroke: #000000; stroke-width: 0.8"/>
      </g>
     </g>
     <g id="text_35">
      <!-- 5 -->
      <g transform="translate(591.975461 256.477812) scale(0.14 -0.14)">
       <use xlink:href="#DejaVuSans-35"/>
      </g>
     </g>
    </g>
    <g id="xtick_10">
     <g id="line2d_40">
      <g>
       <use xlink:href="#mc9932d468a" x="643.596974" y="238.84" style="stroke: #000000; stroke-width: 0.8"/>
      </g>
     </g>
     <g id="text_36">
      <!-- 10 -->
      <g transform="translate(634.689474 256.477812) scale(0.14 -0.14)">
       <use xlink:href="#DejaVuSans-31"/>
       <use xlink:href="#DejaVuSans-30" x="63.623047"/>
      </g>
     </g>
    </g>
    <g id="xtick_11">
     <g id="line2d_41">
      <g>
       <use xlink:href="#mc9932d468a" x="690.764737" y="238.84" style="stroke: #000000; stroke-width: 0.8"/>
      </g>
     </g>
     <g id="text_37">
      <!-- 15 -->
      <g transform="translate(681.857237 256.477812) scale(0.14 -0.14)">
       <use xlink:href="#DejaVuSans-31"/>
       <use xlink:href="#DejaVuSans-35" x="63.623047"/>
      </g>
     </g>
    </g>
    <g id="xtick_12">
     <g id="line2d_42">
      <g>
       <use xlink:href="#mc9932d468a" x="737.9325" y="238.84" style="stroke: #000000; stroke-width: 0.8"/>
      </g>
     </g>
     <g id="text_38">
      <!-- 20 -->
      <g transform="translate(729.025 256.477812) scale(0.14 -0.14)">
       <use xlink:href="#DejaVuSans-32"/>
       <use xlink:href="#DejaVuSans-30" x="63.623047"/>
      </g>
     </g>
    </g>
    <g id="text_39">
     <!-- num of hf samples (d) -->
     <g transform="translate(571.073125 274.027187) scale(0.14 -0.14)">
      <use xlink:href="#DejaVuSans-6e"/>
      <use xlink:href="#DejaVuSans-75" x="63.378906"/>
      <use xlink:href="#DejaVuSans-6d" x="126.757812"/>
      <use xlink:href="#DejaVuSans-20" x="224.169922"/>
      <use xlink:href="#DejaVuSans-6f" x="255.957031"/>
      <use xlink:href="#DejaVuSans-66" x="317.138672"/>
      <use xlink:href="#DejaVuSans-20" x="352.34375"/>
      <use xlink:href="#DejaVuSans-68" x="384.130859"/>
      <use xlink:href="#DejaVuSans-66" x="447.509766"/>
      <use xlink:href="#DejaVuSans-20" x="482.714844"/>
      <use xlink:href="#DejaVuSans-73" x="514.501953"/>
      <use xlink:href="#DejaVuSans-61" x="566.601562"/>
      <use xlink:href="#DejaVuSans-6d" x="627.880859"/>
      <use xlink:href="#DejaVuSans-70" x="725.292969"/>
      <use xlink:href="#DejaVuSans-6c" x="788.769531"/>
      <use xlink:href="#DejaVuSans-65" x="816.552734"/>
      <use xlink:href="#DejaVuSans-73" x="878.076172"/>
      <use xlink:href="#DejaVuSans-20" x="930.175781"/>
      <use xlink:href="#DejaVuSans-28" x="961.962891"/>
      <use xlink:href="#DejaVuSans-64" x="1000.976562"/>
      <use xlink:href="#DejaVuSans-29" x="1064.453125"/>
     </g>
    </g>
   </g>
   <g id="matplotlib.axis_6">
    <g id="ytick_11">
     <g id="line2d_43">
      <g>
       <use xlink:href="#m41c8fc0344" x="558.695" y="209.150619" style="stroke: #000000; stroke-width: 0.8"/>
      </g>
     </g>
     <g id="text_40">
      <!-- 0.0 -->
      <g transform="translate(529.430625 214.469525) scale(0.14 -0.14)">
       <use xlink:href="#DejaVuSans-30"/>
       <use xlink:href="#DejaVuSans-2e" x="63.623047"/>
       <use xlink:href="#DejaVuSans-30" x="95.410156"/>
      </g>
     </g>
    </g>
    <g id="ytick_12">
     <g id="line2d_44">
      <g>
       <use xlink:href="#m41c8fc0344" x="558.695" y="174.696344" style="stroke: #000000; stroke-width: 0.8"/>
      </g>
     </g>
     <g id="text_41">
      <!-- 0.2 -->
      <g transform="translate(529.430625 180.01525) scale(0.14 -0.14)">
       <use xlink:href="#DejaVuSans-30"/>
       <use xlink:href="#DejaVuSans-2e" x="63.623047"/>
       <use xlink:href="#DejaVuSans-32" x="95.410156"/>
      </g>
     </g>
    </g>
    <g id="ytick_13">
     <g id="line2d_45">
      <g>
       <use xlink:href="#m41c8fc0344" x="558.695" y="140.242069" style="stroke: #000000; stroke-width: 0.8"/>
      </g>
     </g>
     <g id="text_42">
      <!-- 0.4 -->
      <g transform="translate(529.430625 145.560976) scale(0.14 -0.14)">
       <use xlink:href="#DejaVuSans-30"/>
       <use xlink:href="#DejaVuSans-2e" x="63.623047"/>
       <use xlink:href="#DejaVuSans-34" x="95.410156"/>
      </g>
     </g>
    </g>
    <g id="ytick_14">
     <g id="line2d_46">
      <g>
       <use xlink:href="#m41c8fc0344" x="558.695" y="105.787794" style="stroke: #000000; stroke-width: 0.8"/>
      </g>
     </g>
     <g id="text_43">
      <!-- 0.6 -->
      <g transform="translate(529.430625 111.106701) scale(0.14 -0.14)">
       <use xlink:href="#DejaVuSans-30"/>
       <use xlink:href="#DejaVuSans-2e" x="63.623047"/>
       <use xlink:href="#DejaVuSans-36" x="95.410156"/>
      </g>
     </g>
    </g>
    <g id="ytick_15">
     <g id="line2d_47">
      <g>
       <use xlink:href="#m41c8fc0344" x="558.695" y="71.33352" style="stroke: #000000; stroke-width: 0.8"/>
      </g>
     </g>
     <g id="text_44">
      <!-- 0.8 -->
      <g transform="translate(529.430625 76.652426) scale(0.14 -0.14)">
       <defs>
        <path id="DejaVuSans-38" d="M 2034 2216 
Q 1584 2216 1326 1975 
Q 1069 1734 1069 1313 
Q 1069 891 1326 650 
Q 1584 409 2034 409 
Q 2484 409 2743 651 
Q 3003 894 3003 1313 
Q 3003 1734 2745 1975 
Q 2488 2216 2034 2216 
z
M 1403 2484 
Q 997 2584 770 2862 
Q 544 3141 544 3541 
Q 544 4100 942 4425 
Q 1341 4750 2034 4750 
Q 2731 4750 3128 4425 
Q 3525 4100 3525 3541 
Q 3525 3141 3298 2862 
Q 3072 2584 2669 2484 
Q 3125 2378 3379 2068 
Q 3634 1759 3634 1313 
Q 3634 634 3220 271 
Q 2806 -91 2034 -91 
Q 1263 -91 848 271 
Q 434 634 434 1313 
Q 434 1759 690 2068 
Q 947 2378 1403 2484 
z
M 1172 3481 
Q 1172 3119 1398 2916 
Q 1625 2713 2034 2713 
Q 2441 2713 2670 2916 
Q 2900 3119 2900 3481 
Q 2900 3844 2670 4047 
Q 2441 4250 2034 4250 
Q 1625 4250 1398 4047 
Q 1172 3844 1172 3481 
z
" transform="scale(0.015625)"/>
       </defs>
       <use xlink:href="#DejaVuSans-30"/>
       <use xlink:href="#DejaVuSans-2e" x="63.623047"/>
       <use xlink:href="#DejaVuSans-38" x="95.410156"/>
      </g>
     </g>
    </g>
    <g id="ytick_16">
     <g id="line2d_48">
      <g>
       <use xlink:href="#m41c8fc0344" x="558.695" y="36.879245" style="stroke: #000000; stroke-width: 0.8"/>
      </g>
     </g>
     <g id="text_45">
      <!-- 1.0 -->
      <g transform="translate(529.430625 42.198151) scale(0.14 -0.14)">
       <use xlink:href="#DejaVuSans-31"/>
       <use xlink:href="#DejaVuSans-2e" x="63.623047"/>
       <use xlink:href="#DejaVuSans-30" x="95.410156"/>
      </g>
     </g>
    </g>
    <g id="text_46">
     <!-- R2 Score -->
     <g transform="translate(522.519062 164.365625) rotate(-90) scale(0.14 -0.14)">
      <use xlink:href="#DejaVuSans-52"/>
      <use xlink:href="#DejaVuSans-32" x="69.482422"/>
      <use xlink:href="#DejaVuSans-20" x="133.105469"/>
      <use xlink:href="#DejaVuSans-53" x="164.892578"/>
      <use xlink:href="#DejaVuSans-63" x="228.369141"/>
      <use xlink:href="#DejaVuSans-6f" x="283.349609"/>
      <use xlink:href="#DejaVuSans-72" x="344.53125"/>
      <use xlink:href="#DejaVuSans-65" x="383.394531"/>
     </g>
    </g>
   </g>
   <g id="line2d_49">
    <path d="M 568.128553 149.643193 
L 586.995658 93.44229 
L 605.862763 68.44999 
L 624.729868 56.172995 
L 643.596974 52.016064 
L 662.464079 46.506857 
L 681.331184 43.6681 
L 700.198289 43.446883 
L 719.065395 40.23766 
L 737.9325 39.336103 
L 756.799605 39.617486 
L 775.666711 41.436278 
L 794.533816 40.046399 
L 813.400921 39.413084 
L 832.268026 38.958897 
L 851.135132 39.127328 
L 870.002237 39.72371 
L 888.869342 39.082797 
L 907.736447 38.196724 
L 926.603553 38.20972 
" clip-path="url(#p7db9d85527)" style="fill: none; stroke: #1f77b4; stroke-width: 2; stroke-linecap: square"/>
   </g>
   <g id="line2d_50">
    <path d="M 568.128553 116.377985 
L 586.995658 83.394107 
L 605.862763 51.140997 
L 624.729868 47.005702 
L 643.596974 43.456308 
L 662.464079 40.667067 
L 681.331184 39.197741 
L 700.198289 39.161685 
L 719.065395 38.654394 
L 737.9325 38.835432 
" clip-path="url(#p7db9d85527)" style="fill: none; stroke: #ff7f0e; stroke-width: 2; stroke-linecap: square"/>
   </g>
   <g id="line2d_51">
    <path d="M 568.128553 106.810097 
L 586.995658 74.893182 
L 605.862763 55.033192 
L 624.729868 48.419035 
L 643.596974 43.690033 
L 662.464079 41.848522 
L 681.331184 41.564198 
L 700.198289 39.040146 
L 719.065395 38.573505 
L 737.9325 38.812457 
" clip-path="url(#p7db9d85527)" style="fill: none; stroke: #2ca02c; stroke-width: 2; stroke-linecap: square"/>
   </g>
   <g id="line2d_52">
    <path d="M 568.128553 94.478572 
L 586.995658 68.127408 
L 605.862763 53.928858 
L 624.729868 48.276079 
L 643.596974 44.408693 
L 662.464079 43.475391 
L 681.331184 40.09994 
L 700.198289 40.135844 
L 719.065395 39.089377 
L 737.9325 38.930898 
" clip-path="url(#p7db9d85527)" style="fill: none; stroke: #d62728; stroke-width: 2; stroke-linecap: square"/>
   </g>
   <g id="line2d_53">
    <path d="M 568.128553 149.67365 
L 586.995658 77.582099 
L 605.862763 59.505999 
L 624.729868 49.143799 
L 643.596974 45.63682 
L 662.464079 43.260148 
L 681.331184 41.297841 
L 700.198289 40.823684 
L 719.065395 39.934983 
L 737.9325 40.074652 
" clip-path="url(#p7db9d85527)" style="fill: none; stroke: #9467bd; stroke-width: 2; stroke-linecap: square"/>
   </g>
   <g id="patch_15">
    <path d="M 558.695 238.84 
L 558.695 27.6 
" style="fill: none; stroke: #000000; stroke-width: 0.8; stroke-linejoin: miter; stroke-linecap: square"/>
   </g>
   <g id="patch_16">
    <path d="M 737.9325 238.84 
L 737.9325 27.6 
" style="fill: none; stroke: #000000; stroke-width: 0.8; stroke-linejoin: miter; stroke-linecap: square"/>
   </g>
   <g id="patch_17">
    <path d="M 558.695 238.84 
L 737.9325 238.84 
" style="fill: none; stroke: #000000; stroke-width: 0.8; stroke-linejoin: miter; stroke-linecap: square"/>
   </g>
   <g id="patch_18">
    <path d="M 558.695 27.6 
L 737.9325 27.6 
" style="fill: none; stroke: #000000; stroke-width: 0.8; stroke-linejoin: miter; stroke-linecap: square"/>
   </g>
   <g id="text_47">
    <!-- (c) -->
    <g transform="translate(639.002656 21.6) scale(0.14 -0.14)">
     <use xlink:href="#DejaVuSans-28"/>
     <use xlink:href="#DejaVuSans-63" x="39.013672"/>
     <use xlink:href="#DejaVuSans-29" x="93.994141"/>
    </g>
   </g>
   <g id="legend_3">
    <g id="patch_19">
     <path d="M 600.899687 233.84 
L 730.9325 233.84 
Q 732.9325 233.84 732.9325 231.84 
L 732.9325 159.449375 
Q 732.9325 157.449375 730.9325 157.449375 
L 600.899687 157.449375 
Q 598.899687 157.449375 598.899687 159.449375 
L 598.899687 231.84 
Q 598.899687 233.84 600.899687 233.84 
z
" style="fill: #ffffff; opacity: 0.8; stroke: #cccccc; stroke-linejoin: miter"/>
    </g>
    <g id="line2d_54">
     <path d="M 602.899687 165.547812 
L 612.899687 165.547812 
L 622.899687 165.547812 
" style="fill: none; stroke: #1f77b4; stroke-width: 2; stroke-linecap: square"/>
    </g>
    <g id="text_48">
     <!-- Kriging -->
     <g transform="translate(630.899687 169.047812) scale(0.1 -0.1)">
      <use xlink:href="#DejaVuSans-4b"/>
      <use xlink:href="#DejaVuSans-72" x="65.576172"/>
      <use xlink:href="#DejaVuSans-69" x="106.689453"/>
      <use xlink:href="#DejaVuSans-67" x="134.472656"/>
      <use xlink:href="#DejaVuSans-69" x="197.949219"/>
      <use xlink:href="#DejaVuSans-6e" x="225.732422"/>
      <use xlink:href="#DejaVuSans-67" x="289.111328"/>
     </g>
    </g>
    <g id="line2d_55">
     <path d="M 602.899687 180.225937 
L 612.899687 180.225937 
L 622.899687 180.225937 
" style="fill: none; stroke: #ff7f0e; stroke-width: 2; stroke-linecap: square"/>
    </g>
    <g id="text_49">
     <!-- Hierarchical Kriging -->
     <g transform="translate(630.899687 183.725937) scale(0.1 -0.1)">
      <use xlink:href="#DejaVuSans-48"/>
      <use xlink:href="#DejaVuSans-69" x="75.195312"/>
      <use xlink:href="#DejaVuSans-65" x="102.978516"/>
      <use xlink:href="#DejaVuSans-72" x="164.501953"/>
      <use xlink:href="#DejaVuSans-61" x="205.615234"/>
      <use xlink:href="#DejaVuSans-72" x="266.894531"/>
      <use xlink:href="#DejaVuSans-63" x="305.757812"/>
      <use xlink:href="#DejaVuSans-68" x="360.738281"/>
      <use xlink:href="#DejaVuSans-69" x="424.117188"/>
      <use xlink:href="#DejaVuSans-63" x="451.900391"/>
      <use xlink:href="#DejaVuSans-61" x="506.880859"/>
      <use xlink:href="#DejaVuSans-6c" x="568.160156"/>
      <use xlink:href="#DejaVuSans-20" x="595.943359"/>
      <use xlink:href="#DejaVuSans-4b" x="627.730469"/>
      <use xlink:href="#DejaVuSans-72" x="693.306641"/>
      <use xlink:href="#DejaVuSans-69" x="734.419922"/>
      <use xlink:href="#DejaVuSans-67" x="762.203125"/>
      <use xlink:href="#DejaVuSans-69" x="825.679688"/>
      <use xlink:href="#DejaVuSans-6e" x="853.462891"/>
      <use xlink:href="#DejaVuSans-67" x="916.841797"/>
     </g>
    </g>
    <g id="line2d_56">
     <path d="M 602.899687 194.904063 
L 612.899687 194.904063 
L 622.899687 194.904063 
" style="fill: none; stroke: #2ca02c; stroke-width: 2; stroke-linecap: square"/>
    </g>
    <g id="text_50">
     <!-- Co-Kriging -->
     <g transform="translate(630.899687 198.404063) scale(0.1 -0.1)">
      <use xlink:href="#DejaVuSans-43"/>
      <use xlink:href="#DejaVuSans-6f" x="69.824219"/>
      <use xlink:href="#DejaVuSans-2d" x="132.880859"/>
      <use xlink:href="#DejaVuSans-4b" x="168.964844"/>
      <use xlink:href="#DejaVuSans-72" x="234.541016"/>
      <use xlink:href="#DejaVuSans-69" x="275.654297"/>
      <use xlink:href="#DejaVuSans-67" x="303.4375"/>
      <use xlink:href="#DejaVuSans-69" x="366.914062"/>
      <use xlink:href="#DejaVuSans-6e" x="394.697266"/>
      <use xlink:href="#DejaVuSans-67" x="458.076172"/>
     </g>
    </g>
    <g id="line2d_57">
     <path d="M 602.899687 209.582188 
L 612.899687 209.582188 
L 622.899687 209.582188 
" style="fill: none; stroke: #d62728; stroke-width: 2; stroke-linecap: square"/>
    </g>
    <g id="text_51">
     <!-- Scaled Kriging -->
     <g transform="translate(630.899687 213.082188) scale(0.1 -0.1)">
      <use xlink:href="#DejaVuSans-53"/>
      <use xlink:href="#DejaVuSans-63" x="63.476562"/>
      <use xlink:href="#DejaVuSans-61" x="118.457031"/>
      <use xlink:href="#DejaVuSans-6c" x="179.736328"/>
      <use xlink:href="#DejaVuSans-65" x="207.519531"/>
      <use xlink:href="#DejaVuSans-64" x="269.042969"/>
      <use xlink:href="#DejaVuSans-20" x="332.519531"/>
      <use xlink:href="#DejaVuSans-4b" x="364.306641"/>
      <use xlink:href="#DejaVuSans-72" x="429.882812"/>
      <use xlink:href="#DejaVuSans-69" x="470.996094"/>
      <use xlink:href="#DejaVuSans-67" x="498.779297"/>
      <use xlink:href="#DejaVuSans-69" x="562.255859"/>
      <use xlink:href="#DejaVuSans-6e" x="590.039062"/>
      <use xlink:href="#DejaVuSans-67" x="653.417969"/>
     </g>
    </g>
    <g id="line2d_58">
     <path d="M 602.899687 224.260312 
L 612.899687 224.260312 
L 622.899687 224.260312 
" style="fill: none; stroke: #9467bd; stroke-width: 2; stroke-linecap: square"/>
    </g>
    <g id="text_52">
     <!-- MF-RBF-Kriging -->
     <g transform="translate(630.899687 227.760312) scale(0.1 -0.1)">
      <use xlink:href="#DejaVuSans-4d"/>
      <use xlink:href="#DejaVuSans-46" x="86.279297"/>
      <use xlink:href="#DejaVuSans-2d" x="143.798828"/>
      <use xlink:href="#DejaVuSans-52" x="179.882812"/>
      <use xlink:href="#DejaVuSans-42" x="249.365234"/>
      <use xlink:href="#DejaVuSans-46" x="317.96875"/>
      <use xlink:href="#DejaVuSans-2d" x="375.488281"/>
      <use xlink:href="#DejaVuSans-4b" x="411.572266"/>
      <use xlink:href="#DejaVuSans-72" x="477.148438"/>
      <use xlink:href="#DejaVuSans-69" x="518.261719"/>
      <use xlink:href="#DejaVuSans-67" x="546.044922"/>
      <use xlink:href="#DejaVuSans-69" x="609.521484"/>
      <use xlink:href="#DejaVuSans-6e" x="637.304688"/>
      <use xlink:href="#DejaVuSans-67" x="700.683594"/>
     </g>
    </g>
   </g>
  </g>
  <g id="axes_4">
   <g id="patch_20">
    <path d="M 809.0975 238.84 
L 988.335 238.84 
L 988.335 27.6 
L 809.0975 27.6 
z
" style="fill: #ffffff"/>
   </g>
   <g id="PolyCollection_16">
    <defs>
     <path id="med26b7f644" d="M 818.531053 -51.366643 
L 818.531053 -51.071532 
L 837.398158 -51.379489 
L 856.265263 -51.806016 
L 875.132368 -52.279917 
L 893.999474 -52.77855 
L 912.866579 -53.226401 
L 931.733684 -53.530438 
L 950.600789 -54.083715 
L 969.467895 -54.82414 
L 988.335 -55.409479 
L 1007.202105 -55.905632 
L 1026.069211 -56.739796 
L 1044.936316 -57.110141 
L 1063.803421 -57.699084 
L 1082.670526 -58.593707 
L 1101.537632 -59.263402 
L 1120.404737 -59.93996 
L 1139.271842 -61.145406 
L 1158.138947 -62.051415 
L 1177.006053 -62.199585 
L 1177.006053 -69.081992 
L 1177.006053 -69.081992 
L 1158.138947 -69.573012 
L 1139.271842 -68.229476 
L 1120.404737 -65.657386 
L 1101.537632 -64.631258 
L 1082.670526 -63.415613 
L 1063.803421 -62.202556 
L 1044.936316 -61.451359 
L 1026.069211 -60.606432 
L 1007.202105 -58.861414 
L 988.335 -57.96644 
L 969.467895 -57.429334 
L 950.600789 -56.102827 
L 931.733684 -55.12653 
L 912.866579 -54.759452 
L 893.999474 -54.00489 
L 875.132368 -53.170872 
L 856.265263 -52.465394 
L 837.398158 -51.838029 
L 818.531053 -51.366643 
z
" style="stroke: #1f77b4; stroke-opacity: 0.2"/>
    </defs>
    <g clip-path="url(#p9a5be94e06)">
     <use xlink:href="#med26b7f644" x="0" y="288" style="fill: #1f77b4; fill-opacity: 0.2; stroke: #1f77b4; stroke-opacity: 0.2"/>
    </g>
   </g>
   <g id="PolyCollection_17">
    <defs>
     <path id="mfc7f6c6482" d="M 818.531053 -131.84152 
L 818.531053 -90.769086 
L 837.398158 -93.312018 
L 856.265263 -94.74243 
L 875.132368 -93.079616 
L 893.999474 -93.134732 
L 912.866579 -95.70004 
L 931.733684 -94.156581 
L 950.600789 -95.79635 
L 969.467895 -96.91472 
L 988.335 -95.952279 
L 988.335 -142.906158 
L 988.335 -142.906158 
L 969.467895 -144.798681 
L 950.600789 -142.423435 
L 931.733684 -135.475346 
L 912.866579 -139.097885 
L 893.999474 -138.119562 
L 875.132368 -133.06862 
L 856.265263 -136.056326 
L 837.398158 -137.141968 
L 818.531053 -131.84152 
z
" style="stroke: #ff7f0e; stroke-opacity: 0.2"/>
    </defs>
    <g clip-path="url(#p9a5be94e06)">
     <use xlink:href="#mfc7f6c6482" x="0" y="288" style="fill: #ff7f0e; fill-opacity: 0.2; stroke: #ff7f0e; stroke-opacity: 0.2"/>
    </g>
   </g>
   <g id="PolyCollection_18">
    <defs>
     <path id="md8be8f1047" d="M 818.531053 -150.546787 
L 818.531053 -101.272196 
L 837.398158 -103.463839 
L 856.265263 -104.494579 
L 875.132368 -105.138547 
L 893.999474 -106.176868 
L 912.866579 -109.137799 
L 931.733684 -109.913612 
L 950.600789 -109.797165 
L 969.467895 -113.883055 
L 988.335 -114.850267 
L 988.335 -176.794385 
L 988.335 -176.794385 
L 969.467895 -166.601579 
L 950.600789 -160.614198 
L 931.733684 -164.034892 
L 912.866579 -165.179127 
L 893.999474 -153.723949 
L 875.132368 -149.711502 
L 856.265263 -156.53003 
L 837.398158 -153.678669 
L 818.531053 -150.546787 
z
" style="stroke: #2ca02c; stroke-opacity: 0.2"/>
    </defs>
    <g clip-path="url(#p9a5be94e06)">
     <use xlink:href="#md8be8f1047" x="0" y="288" style="fill: #2ca02c; fill-opacity: 0.2; stroke: #2ca02c; stroke-opacity: 0.2"/>
    </g>
   </g>
   <g id="PolyCollection_19">
    <defs>
     <path id="mfa81281296" d="M 818.531053 -132.350951 
L 818.531053 -92.320653 
L 837.398158 -92.412113 
L 856.265263 -93.590708 
L 875.132368 -93.732572 
L 893.999474 -95.275792 
L 912.866579 -96.203635 
L 931.733684 -93.809205 
L 950.600789 -94.737502 
L 969.467895 -96.034204 
L 988.335 -95.701793 
L 988.335 -139.248072 
L 988.335 -139.248072 
L 969.467895 -141.695152 
L 950.600789 -139.427299 
L 931.733684 -135.775507 
L 912.866579 -139.710155 
L 893.999474 -136.449632 
L 875.132368 -131.870464 
L 856.265263 -135.59688 
L 837.398158 -137.574405 
L 818.531053 -132.350951 
z
" style="stroke: #d62728; stroke-opacity: 0.2"/>
    </defs>
    <g clip-path="url(#p9a5be94e06)">
     <use xlink:href="#mfa81281296" x="0" y="288" style="fill: #d62728; fill-opacity: 0.2; stroke: #d62728; stroke-opacity: 0.2"/>
    </g>
   </g>
   <g id="PolyCollection_20">
    <defs>
     <path id="m09dcface80" d="M 818.531053 -51.34186 
L 818.531053 -50.993992 
L 837.398158 -51.257167 
L 856.265263 -51.668058 
L 875.132368 -51.977107 
L 893.999474 -52.729868 
L 912.866579 -53.251357 
L 931.733684 -53.936774 
L 950.600789 -54.36478 
L 969.467895 -55.560746 
L 988.335 -56.508391 
L 988.335 -63.327326 
L 988.335 -63.327326 
L 969.467895 -60.834385 
L 950.600789 -58.326694 
L 931.733684 -57.82641 
L 912.866579 -55.965622 
L 893.999474 -54.922636 
L 875.132368 -53.668453 
L 856.265263 -52.946782 
L 837.398158 -52.015817 
L 818.531053 -51.34186 
z
" style="stroke: #9467bd; stroke-opacity: 0.2"/>
    </defs>
    <g clip-path="url(#p9a5be94e06)">
     <use xlink:href="#m09dcface80" x="0" y="288" style="fill: #9467bd; fill-opacity: 0.2; stroke: #9467bd; stroke-opacity: 0.2"/>
    </g>
   </g>
   <g id="matplotlib.axis_7">
    <g id="xtick_13">
     <g id="line2d_59">
      <g>
       <use xlink:href="#mc9932d468a" x="846.831711" y="238.84" style="stroke: #000000; stroke-width: 0.8"/>
      </g>
     </g>
     <g id="text_53">
      <!-- 5 -->
      <g transform="translate(842.377961 256.477812) scale(0.14 -0.14)">
       <use xlink:href="#DejaVuSans-35"/>
      </g>
     </g>
    </g>
    <g id="xtick_14">
     <g id="line2d_60">
      <g>
       <use xlink:href="#mc9932d468a" x="893.999474" y="238.84" style="stroke: #000000; stroke-width: 0.8"/>
      </g>
     </g>
     <g id="text_54">
      <!-- 10 -->
      <g transform="translate(885.091974 256.477812) scale(0.14 -0.14)">
       <use xlink:href="#DejaVuSans-31"/>
       <use xlink:href="#DejaVuSans-30" x="63.623047"/>
      </g>
     </g>
    </g>
    <g id="xtick_15">
     <g id="line2d_61">
      <g>
       <use xlink:href="#mc9932d468a" x="941.167237" y="238.84" style="stroke: #000000; stroke-width: 0.8"/>
      </g>
     </g>
     <g id="text_55">
      <!-- 15 -->
      <g transform="translate(932.259737 256.477812) scale(0.14 -0.14)">
       <use xlink:href="#DejaVuSans-31"/>
       <use xlink:href="#DejaVuSans-35" x="63.623047"/>
      </g>
     </g>
    </g>
    <g id="xtick_16">
     <g id="line2d_62">
      <g>
       <use xlink:href="#mc9932d468a" x="988.335" y="238.84" style="stroke: #000000; stroke-width: 0.8"/>
      </g>
     </g>
     <g id="text_56">
      <!-- 20 -->
      <g transform="translate(979.4275 256.477812) scale(0.14 -0.14)">
       <use xlink:href="#DejaVuSans-32"/>
       <use xlink:href="#DejaVuSans-30" x="63.623047"/>
      </g>
     </g>
    </g>
    <g id="text_57">
     <!-- num of hf samples (d) -->
     <g transform="translate(821.475625 274.027187) scale(0.14 -0.14)">
      <use xlink:href="#DejaVuSans-6e"/>
      <use xlink:href="#DejaVuSans-75" x="63.378906"/>
      <use xlink:href="#DejaVuSans-6d" x="126.757812"/>
      <use xlink:href="#DejaVuSans-20" x="224.169922"/>
      <use xlink:href="#DejaVuSans-6f" x="255.957031"/>
      <use xlink:href="#DejaVuSans-66" x="317.138672"/>
      <use xlink:href="#DejaVuSans-20" x="352.34375"/>
      <use xlink:href="#DejaVuSans-68" x="384.130859"/>
      <use xlink:href="#DejaVuSans-66" x="447.509766"/>
      <use xlink:href="#DejaVuSans-20" x="482.714844"/>
      <use xlink:href="#DejaVuSans-73" x="514.501953"/>
      <use xlink:href="#DejaVuSans-61" x="566.601562"/>
      <use xlink:href="#DejaVuSans-6d" x="627.880859"/>
      <use xlink:href="#DejaVuSans-70" x="725.292969"/>
      <use xlink:href="#DejaVuSans-6c" x="788.769531"/>
      <use xlink:href="#DejaVuSans-65" x="816.552734"/>
      <use xlink:href="#DejaVuSans-73" x="878.076172"/>
      <use xlink:href="#DejaVuSans-20" x="930.175781"/>
      <use xlink:href="#DejaVuSans-28" x="961.962891"/>
      <use xlink:href="#DejaVuSans-64" x="1000.976562"/>
      <use xlink:href="#DejaVuSans-29" x="1064.453125"/>
     </g>
    </g>
   </g>
   <g id="matplotlib.axis_8">
    <g id="ytick_17">
     <g id="line2d_63">
      <g>
       <use xlink:href="#m41c8fc0344" x="809.0975" y="237.44106" style="stroke: #000000; stroke-width: 0.8"/>
      </g>
     </g>
     <g id="text_58">
      <!-- 0 -->
      <g transform="translate(793.19 242.759966) scale(0.14 -0.14)">
       <use xlink:href="#DejaVuSans-30"/>
      </g>
     </g>
    </g>
    <g id="ytick_18">
     <g id="line2d_64">
      <g>
       <use xlink:href="#m41c8fc0344" x="809.0975" y="202.46755" style="stroke: #000000; stroke-width: 0.8"/>
      </g>
     </g>
     <g id="text_59">
      <!-- 25 -->
      <g transform="translate(784.2825 207.786456) scale(0.14 -0.14)">
       <use xlink:href="#DejaVuSans-32"/>
       <use xlink:href="#DejaVuSans-35" x="63.623047"/>
      </g>
     </g>
    </g>
    <g id="ytick_19">
     <g id="line2d_65">
      <g>
       <use xlink:href="#m41c8fc0344" x="809.0975" y="167.49404" style="stroke: #000000; stroke-width: 0.8"/>
      </g>
     </g>
     <g id="text_60">
      <!-- 50 -->
      <g transform="translate(784.2825 172.812946) scale(0.14 -0.14)">
       <use xlink:href="#DejaVuSans-35"/>
       <use xlink:href="#DejaVuSans-30" x="63.623047"/>
      </g>
     </g>
    </g>
    <g id="ytick_20">
     <g id="line2d_66">
      <g>
       <use xlink:href="#m41c8fc0344" x="809.0975" y="132.52053" style="stroke: #000000; stroke-width: 0.8"/>
      </g>
     </g>
     <g id="text_61">
      <!-- 75 -->
      <g transform="translate(784.2825 137.839436) scale(0.14 -0.14)">
       <defs>
        <path id="DejaVuSans-37" d="M 525 4666 
L 3525 4666 
L 3525 4397 
L 1831 0 
L 1172 0 
L 2766 4134 
L 525 4134 
L 525 4666 
z
" transform="scale(0.015625)"/>
       </defs>
       <use xlink:href="#DejaVuSans-37"/>
       <use xlink:href="#DejaVuSans-35" x="63.623047"/>
      </g>
     </g>
    </g>
    <g id="ytick_21">
     <g id="line2d_67">
      <g>
       <use xlink:href="#m41c8fc0344" x="809.0975" y="97.54702" style="stroke: #000000; stroke-width: 0.8"/>
      </g>
     </g>
     <g id="text_62">
      <!-- 100 -->
      <g transform="translate(775.375 102.865926) scale(0.14 -0.14)">
       <use xlink:href="#DejaVuSans-31"/>
       <use xlink:href="#DejaVuSans-30" x="63.623047"/>
       <use xlink:href="#DejaVuSans-30" x="127.246094"/>
      </g>
     </g>
    </g>
    <g id="ytick_22">
     <g id="line2d_68">
      <g>
       <use xlink:href="#m41c8fc0344" x="809.0975" y="62.57351" style="stroke: #000000; stroke-width: 0.8"/>
      </g>
     </g>
     <g id="text_63">
      <!-- 125 -->
      <g transform="translate(775.375 67.892416) scale(0.14 -0.14)">
       <use xlink:href="#DejaVuSans-31"/>
       <use xlink:href="#DejaVuSans-32" x="63.623047"/>
       <use xlink:href="#DejaVuSans-35" x="127.246094"/>
      </g>
     </g>
    </g>
    <g id="ytick_23">
     <g id="line2d_69">
      <g>
       <use xlink:href="#m41c8fc0344" x="809.0975" y="27.6" style="stroke: #000000; stroke-width: 0.8"/>
      </g>
     </g>
     <g id="text_64">
      <!-- 150 -->
      <g transform="translate(775.375 32.918906) scale(0.14 -0.14)">
       <use xlink:href="#DejaVuSans-31"/>
       <use xlink:href="#DejaVuSans-35" x="63.623047"/>
       <use xlink:href="#DejaVuSans-30" x="127.246094"/>
      </g>
     </g>
    </g>
    <g id="text_65">
     <!-- CPU time (s) -->
     <g transform="translate(768.463437 176.824531) rotate(-90) scale(0.14 -0.14)">
      <defs>
       <path id="DejaVuSans-50" d="M 1259 4147 
L 1259 2394 
L 2053 2394 
Q 2494 2394 2734 2622 
Q 2975 2850 2975 3272 
Q 2975 3691 2734 3919 
Q 2494 4147 2053 4147 
L 1259 4147 
z
M 628 4666 
L 2053 4666 
Q 2838 4666 3239 4311 
Q 3641 3956 3641 3272 
Q 3641 2581 3239 2228 
Q 2838 1875 2053 1875 
L 1259 1875 
L 1259 0 
L 628 0 
L 628 4666 
z
" transform="scale(0.015625)"/>
       <path id="DejaVuSans-55" d="M 556 4666 
L 1191 4666 
L 1191 1831 
Q 1191 1081 1462 751 
Q 1734 422 2344 422 
Q 2950 422 3222 751 
Q 3494 1081 3494 1831 
L 3494 4666 
L 4128 4666 
L 4128 1753 
Q 4128 841 3676 375 
Q 3225 -91 2344 -91 
Q 1459 -91 1007 375 
Q 556 841 556 1753 
L 556 4666 
z
" transform="scale(0.015625)"/>
       <path id="DejaVuSans-74" d="M 1172 4494 
L 1172 3500 
L 2356 3500 
L 2356 3053 
L 1172 3053 
L 1172 1153 
Q 1172 725 1289 603 
Q 1406 481 1766 481 
L 2356 481 
L 2356 0 
L 1766 0 
Q 1100 0 847 248 
Q 594 497 594 1153 
L 594 3053 
L 172 3053 
L 172 3500 
L 594 3500 
L 594 4494 
L 1172 4494 
z
" transform="scale(0.015625)"/>
      </defs>
      <use xlink:href="#DejaVuSans-43"/>
      <use xlink:href="#DejaVuSans-50" x="69.824219"/>
      <use xlink:href="#DejaVuSans-55" x="130.126953"/>
      <use xlink:href="#DejaVuSans-20" x="203.320312"/>
      <use xlink:href="#DejaVuSans-74" x="235.107422"/>
      <use xlink:href="#DejaVuSans-69" x="274.316406"/>
      <use xlink:href="#DejaVuSans-6d" x="302.099609"/>
      <use xlink:href="#DejaVuSans-65" x="399.511719"/>
      <use xlink:href="#DejaVuSans-20" x="461.035156"/>
      <use xlink:href="#DejaVuSans-28" x="492.822266"/>
      <use xlink:href="#DejaVuSans-73" x="531.835938"/>
      <use xlink:href="#DejaVuSans-29" x="583.935547"/>
     </g>
    </g>
   </g>
   <g id="line2d_70">
    <path d="M 818.531053 236.785884 
L 837.398158 236.399705 
L 856.265263 235.867642 
L 875.132368 235.266565 
L 893.999474 234.627867 
L 912.866579 234.098067 
L 931.733684 233.71818 
L 950.600789 232.949248 
L 969.467895 231.973082 
L 988.335 231.400254 
L 1007.202105 230.710258 
L 1009 230.603795 
" clip-path="url(#p9a5be94e06)" style="fill: none; stroke: #1f77b4; stroke-width: 2; stroke-linecap: square"/>
   </g>
   <g id="line2d_71">
    <path d="M 818.531053 176.523642 
L 837.398158 173.59828 
L 856.265263 174.170826 
L 875.132368 175.898343 
L 893.999474 173.739204 
L 912.866579 171.768632 
L 931.733684 173.912924 
L 950.600789 169.977971 
L 969.467895 168.177677 
L 988.335 169.866125 
" clip-path="url(#p9a5be94e06)" style="fill: none; stroke: #ff7f0e; stroke-width: 2; stroke-linecap: square"/>
   </g>
   <g id="line2d_72">
    <path d="M 818.531053 162.919715 
L 837.398158 161.533577 
L 856.265263 159.231452 
L 875.132368 162.255676 
L 893.999474 159.90293 
L 912.866579 152.404188 
L 931.733684 151.979796 
L 950.600789 152.690309 
L 969.467895 148.664389 
L 988.335 142.719038 
" clip-path="url(#p9a5be94e06)" style="fill: none; stroke: #2ca02c; stroke-width: 2; stroke-linecap: square"/>
   </g>
   <g id="line2d_73">
    <path d="M 818.531053 176.898466 
L 837.398158 174.106906 
L 856.265263 174.895576 
L 875.132368 176.450942 
L 893.999474 173.984122 
L 912.866579 172.181282 
L 931.733684 175.071663 
L 950.600789 171.83512 
L 969.467895 170.165776 
L 988.335 171.788726 
" clip-path="url(#p9a5be94e06)" style="fill: none; stroke: #d62728; stroke-width: 2; stroke-linecap: square"/>
   </g>
   <g id="line2d_74">
    <path d="M 818.531053 236.850917 
L 837.398158 236.37972 
L 856.265263 235.721495 
L 875.132368 235.278637 
L 893.999474 234.265809 
L 912.866579 233.45244 
L 931.733684 232.14952 
L 950.600789 231.811834 
L 969.467895 229.941976 
L 988.335 228.353048 
" clip-path="url(#p9a5be94e06)" style="fill: none; stroke: #9467bd; stroke-width: 2; stroke-linecap: square"/>
   </g>
   <g id="patch_21">
    <path d="M 809.0975 238.84 
L 809.0975 27.6 
" style="fill: none; stroke: #000000; stroke-width: 0.8; stroke-linejoin: miter; stroke-linecap: square"/>
   </g>
   <g id="patch_22">
    <path d="M 988.335 238.84 
L 988.335 27.6 
" style="fill: none; stroke: #000000; stroke-width: 0.8; stroke-linejoin: miter; stroke-linecap: square"/>
   </g>
   <g id="patch_23">
    <path d="M 809.0975 238.84 
L 988.335 238.84 
" style="fill: none; stroke: #000000; stroke-width: 0.8; stroke-linejoin: miter; stroke-linecap: square"/>
   </g>
   <g id="patch_24">
    <path d="M 809.0975 27.6 
L 988.335 27.6 
" style="fill: none; stroke: #000000; stroke-width: 0.8; stroke-linejoin: miter; stroke-linecap: square"/>
   </g>
   <g id="text_66">
    <!-- (d) -->
    <g transform="translate(888.810156 21.6) scale(0.14 -0.14)">
     <use xlink:href="#DejaVuSans-28"/>
     <use xlink:href="#DejaVuSans-64" x="39.013672"/>
     <use xlink:href="#DejaVuSans-29" x="102.490234"/>
    </g>
   </g>
   <g id="legend_4">
    <g id="patch_25">
     <path d="M 851.302187 108.990625 
L 981.335 108.990625 
Q 983.335 108.990625 983.335 106.990625 
L 983.335 34.6 
Q 983.335 32.6 981.335 32.6 
L 851.302187 32.6 
Q 849.302187 32.6 849.302187 34.6 
L 849.302187 106.990625 
Q 849.302187 108.990625 851.302187 108.990625 
z
" style="fill: #ffffff; opacity: 0.8; stroke: #cccccc; stroke-linejoin: miter"/>
    </g>
    <g id="line2d_75">
     <path d="M 853.302187 40.698438 
L 863.302187 40.698438 
L 873.302187 40.698438 
" style="fill: none; stroke: #1f77b4; stroke-width: 2; stroke-linecap: square"/>
    </g>
    <g id="text_67">
     <!-- Kriging -->
     <g transform="translate(881.302187 44.198438) scale(0.1 -0.1)">
      <use xlink:href="#DejaVuSans-4b"/>
      <use xlink:href="#DejaVuSans-72" x="65.576172"/>
      <use xlink:href="#DejaVuSans-69" x="106.689453"/>
      <use xlink:href="#DejaVuSans-67" x="134.472656"/>
      <use xlink:href="#DejaVuSans-69" x="197.949219"/>
      <use xlink:href="#DejaVuSans-6e" x="225.732422"/>
      <use xlink:href="#DejaVuSans-67" x="289.111328"/>
     </g>
    </g>
    <g id="line2d_76">
     <path d="M 853.302187 55.376563 
L 863.302187 55.376563 
L 873.302187 55.376563 
" style="fill: none; stroke: #ff7f0e; stroke-width: 2; stroke-linecap: square"/>
    </g>
    <g id="text_68">
     <!-- Hierarchical Kriging -->
     <g transform="translate(881.302187 58.876563) scale(0.1 -0.1)">
      <use xlink:href="#DejaVuSans-48"/>
      <use xlink:href="#DejaVuSans-69" x="75.195312"/>
      <use xlink:href="#DejaVuSans-65" x="102.978516"/>
      <use xlink:href="#DejaVuSans-72" x="164.501953"/>
      <use xlink:href="#DejaVuSans-61" x="205.615234"/>
      <use xlink:href="#DejaVuSans-72" x="266.894531"/>
      <use xlink:href="#DejaVuSans-63" x="305.757812"/>
      <use xlink:href="#DejaVuSans-68" x="360.738281"/>
      <use xlink:href="#DejaVuSans-69" x="424.117188"/>
      <use xlink:href="#DejaVuSans-63" x="451.900391"/>
      <use xlink:href="#DejaVuSans-61" x="506.880859"/>
      <use xlink:href="#DejaVuSans-6c" x="568.160156"/>
      <use xlink:href="#DejaVuSans-20" x="595.943359"/>
      <use xlink:href="#DejaVuSans-4b" x="627.730469"/>
      <use xlink:href="#DejaVuSans-72" x="693.306641"/>
      <use xlink:href="#DejaVuSans-69" x="734.419922"/>
      <use xlink:href="#DejaVuSans-67" x="762.203125"/>
      <use xlink:href="#DejaVuSans-69" x="825.679688"/>
      <use xlink:href="#DejaVuSans-6e" x="853.462891"/>
      <use xlink:href="#DejaVuSans-67" x="916.841797"/>
     </g>
    </g>
    <g id="line2d_77">
     <path d="M 853.302187 70.054688 
L 863.302187 70.054688 
L 873.302187 70.054688 
" style="fill: none; stroke: #2ca02c; stroke-width: 2; stroke-linecap: square"/>
    </g>
    <g id="text_69">
     <!-- Co-Kriging -->
     <g transform="translate(881.302187 73.554688) scale(0.1 -0.1)">
      <use xlink:href="#DejaVuSans-43"/>
      <use xlink:href="#DejaVuSans-6f" x="69.824219"/>
      <use xlink:href="#DejaVuSans-2d" x="132.880859"/>
      <use xlink:href="#DejaVuSans-4b" x="168.964844"/>
      <use xlink:href="#DejaVuSans-72" x="234.541016"/>
      <use xlink:href="#DejaVuSans-69" x="275.654297"/>
      <use xlink:href="#DejaVuSans-67" x="303.4375"/>
      <use xlink:href="#DejaVuSans-69" x="366.914062"/>
      <use xlink:href="#DejaVuSans-6e" x="394.697266"/>
      <use xlink:href="#DejaVuSans-67" x="458.076172"/>
     </g>
    </g>
    <g id="line2d_78">
     <path d="M 853.302187 84.732813 
L 863.302187 84.732813 
L 873.302187 84.732813 
" style="fill: none; stroke: #d62728; stroke-width: 2; stroke-linecap: square"/>
    </g>
    <g id="text_70">
     <!-- Scaled Kriging -->
     <g transform="translate(881.302187 88.232813) scale(0.1 -0.1)">
      <use xlink:href="#DejaVuSans-53"/>
      <use xlink:href="#DejaVuSans-63" x="63.476562"/>
      <use xlink:href="#DejaVuSans-61" x="118.457031"/>
      <use xlink:href="#DejaVuSans-6c" x="179.736328"/>
      <use xlink:href="#DejaVuSans-65" x="207.519531"/>
      <use xlink:href="#DejaVuSans-64" x="269.042969"/>
      <use xlink:href="#DejaVuSans-20" x="332.519531"/>
      <use xlink:href="#DejaVuSans-4b" x="364.306641"/>
      <use xlink:href="#DejaVuSans-72" x="429.882812"/>
      <use xlink:href="#DejaVuSans-69" x="470.996094"/>
      <use xlink:href="#DejaVuSans-67" x="498.779297"/>
      <use xlink:href="#DejaVuSans-69" x="562.255859"/>
      <use xlink:href="#DejaVuSans-6e" x="590.039062"/>
      <use xlink:href="#DejaVuSans-67" x="653.417969"/>
     </g>
    </g>
    <g id="line2d_79">
     <path d="M 853.302187 99.410938 
L 863.302187 99.410938 
L 873.302187 99.410938 
" style="fill: none; stroke: #9467bd; stroke-width: 2; stroke-linecap: square"/>
    </g>
    <g id="text_71">
     <!-- MF-RBF-Kriging -->
     <g transform="translate(881.302187 102.910938) scale(0.1 -0.1)">
      <use xlink:href="#DejaVuSans-4d"/>
      <use xlink:href="#DejaVuSans-46" x="86.279297"/>
      <use xlink:href="#DejaVuSans-2d" x="143.798828"/>
      <use xlink:href="#DejaVuSans-52" x="179.882812"/>
      <use xlink:href="#DejaVuSans-42" x="249.365234"/>
      <use xlink:href="#DejaVuSans-46" x="317.96875"/>
      <use xlink:href="#DejaVuSans-2d" x="375.488281"/>
      <use xlink:href="#DejaVuSans-4b" x="411.572266"/>
      <use xlink:href="#DejaVuSans-72" x="477.148438"/>
      <use xlink:href="#DejaVuSans-69" x="518.261719"/>
      <use xlink:href="#DejaVuSans-67" x="546.044922"/>
      <use xlink:href="#DejaVuSans-69" x="609.521484"/>
      <use xlink:href="#DejaVuSans-6e" x="637.304688"/>
      <use xlink:href="#DejaVuSans-67" x="700.683594"/>
     </g>
    </g>
   </g>
  </g>
 </g>
 <defs>
  <clipPath id="p2d1d8fd1a2">
   <rect x="57.89" y="27.6" width="179.2375" height="211.24"/>
  </clipPath>
  <clipPath id="p3dbda205a2">
   <rect x="308.2925" y="27.6" width="179.2375" height="211.24"/>
  </clipPath>
  <clipPath id="p7db9d85527">
   <rect x="558.695" y="27.6" width="179.2375" height="211.24"/>
  </clipPath>
  <clipPath id="p9a5be94e06">
   <rect x="809.0975" y="27.6" width="179.2375" height="211.24"/>
  </clipPath>
 </defs>
</svg>
