<?xml version="1.0" encoding="utf-8" standalone="no"?>
<!DOCTYPE svg PUBLIC "-//W3C//DTD SVG 1.1//EN"
  "http://www.w3.org/Graphics/SVG/1.1/DTD/svg11.dtd">
<svg xmlns:xlink="http://www.w3.org/1999/xlink" width="1008pt" height="288pt" viewBox="0 0 1008 288" xmlns="http://www.w3.org/2000/svg" version="1.1">
 <metadata>
  <rdf:RDF xmlns:dc="http://purl.org/dc/elements/1.1/" xmlns:cc="http://creativecommons.org/ns#" xmlns:rdf="http://www.w3.org/1999/02/22-rdf-syntax-ns#">
   <cc:Work>
    <dc:type rdf:resource="http://purl.org/dc/dcmitype/StillImage"/>
    <dc:date>2023-12-28T10:40:46.730862</dc:date>
    <dc:format>image/svg+xml</dc:format>
    <dc:creator>
     <cc:Agent>
      <dc:title>Matplotlib v3.8.0, https://matplotlib.org/</dc:title>
     </cc:Agent>
    </dc:creator>
   </cc:Work>
  </rdf:RDF>
 </metadata>
 <defs>
  <style type="text/css">*{stroke-linejoin: round; stroke-linecap: butt}</style>
 </defs>
 <g id="figure_1">
  <g id="patch_1">
   <path d="M 0 288 
L 1008 288 
L 1008 0 
L 0 0 
z
" style="fill: #ffffff"/>
  </g>
  <g id="axes_1">
   <g id="patch_2">
    <path d="M 57.89 238.84 
L 237.1275 238.84 
L 237.1275 27.6 
L 57.89 27.6 
z
" style="fill: #ffffff"/>
   </g>
   <g id="PolyCollection_1">
    <defs>
     <path id="md38bf04b69" d="M 67.323553 -250.798182 
L 67.323553 -189.596587 
L 86.190658 -132.134298 
L 105.057763 -104.76065 
L 123.924868 -96.489485 
L 142.791974 -90.241683 
L 161.659079 -81.826795 
L 180.526184 -80.759198 
L 199.393289 -72.484142 
L 218.260395 -70.328379 
L 237.1275 -65.107103 
L 255.994605 -65.153735 
L 274.861711 -62.150891 
L 293.728816 -62.51225 
L 312.595921 -61.212658 
L 331.463026 -60.858395 
L 350.330132 -60.387666 
L 369.197237 -60.118687 
L 388.064342 -59.033702 
L 406.931447 -59.53735 
L 425.798553 -58.761818 
L 425.798553 -76.684759 
L 425.798553 -76.684759 
L 406.931447 -75.424239 
L 388.064342 -79.071448 
L 369.197237 -80.837177 
L 350.330132 -75.368562 
L 331.463026 -78.988478 
L 312.595921 -81.058243 
L 293.728816 -82.255427 
L 274.861711 -82.862136 
L 255.994605 -86.882533 
L 237.1275 -81.044778 
L 218.260395 -97.983563 
L 199.393289 -103.780562 
L 180.526184 -107.91779 
L 161.659079 -113.20792 
L 142.791974 -125.575099 
L 123.924868 -132.520871 
L 105.057763 -144.789159 
L 86.190658 -187.369457 
L 67.323553 -250.798182 
z
" style="stroke: #1f77b4; stroke-opacity: 0.2"/>
    </defs>
    <g clip-path="url(#pcb6b69ded7)">
     <use xlink:href="#md38bf04b69" x="0" y="288" style="fill: #1f77b4; fill-opacity: 0.2; stroke: #1f77b4; stroke-opacity: 0.2"/>
    </g>
   </g>
   <g id="PolyCollection_2">
    <defs>
     <path id="m80682234e5" d="M 67.323553 -214.447698 
L 67.323553 -148.474416 
L 86.190658 -112.646443 
L 105.057763 -86.920131 
L 123.924868 -81.868597 
L 142.791974 -77.87126 
L 161.659079 -68.553319 
L 180.526184 -62.673277 
L 199.393289 -63.223954 
L 218.260395 -60.393927 
L 237.1275 -59.574491 
L 237.1275 -76.957403 
L 237.1275 -76.957403 
L 218.260395 -75.467976 
L 199.393289 -82.578464 
L 180.526184 -83.113665 
L 161.659079 -92.008256 
L 142.791974 -104.961872 
L 123.924868 -111.85283 
L 105.057763 -119.653494 
L 86.190658 -189.123413 
L 67.323553 -214.447698 
z
" style="stroke: #ff7f0e; stroke-opacity: 0.2"/>
    </defs>
    <g clip-path="url(#pcb6b69ded7)">
     <use xlink:href="#m80682234e5" x="0" y="288" style="fill: #ff7f0e; fill-opacity: 0.2; stroke: #ff7f0e; stroke-opacity: 0.2"/>
    </g>
   </g>
   <g id="PolyCollection_3">
    <defs>
     <path id="m1e97b7d49d" d="M 67.323553 -191.656714 
L 67.323553 -133.625467 
L 86.190658 -118.270394 
L 105.057763 -89.055436 
L 123.924868 -83.901235 
L 142.791974 -80.10951 
L 161.659079 -73.427329 
L 180.526184 -67.808919 
L 199.393289 -64.009974 
L 218.260395 -61.409812 
L 237.1275 -62.321678 
L 237.1275 -77.912746 
L 237.1275 -77.912746 
L 218.260395 -76.05159 
L 199.393289 -81.371436 
L 180.526184 -89.375437 
L 161.659079 -99.388061 
L 142.791974 -107.440773 
L 123.924868 -114.001889 
L 105.057763 -122.846956 
L 86.190658 -168.149791 
L 67.323553 -191.656714 
z
" style="stroke: #2ca02c; stroke-opacity: 0.2"/>
    </defs>
    <g clip-path="url(#pcb6b69ded7)">
     <use xlink:href="#m1e97b7d49d" x="0" y="288" style="fill: #2ca02c; fill-opacity: 0.2; stroke: #2ca02c; stroke-opacity: 0.2"/>
    </g>
   </g>
   <g id="PolyCollection_4">
    <defs>
     <path id="m4fb67d809d" d="M 67.323553 -192.201197 
L 67.323553 -137.661718 
L 86.190658 -109.224255 
L 105.057763 -89.501263 
L 123.924868 -87.613784 
L 142.791974 -85.072844 
L 161.659079 -79.652642 
L 180.526184 -69.654601 
L 199.393289 -65.708403 
L 218.260395 -63.72663 
L 237.1275 -62.233619 
L 237.1275 -79.167028 
L 237.1275 -79.167028 
L 218.260395 -79.919528 
L 199.393289 -87.553757 
L 180.526184 -89.863623 
L 161.659079 -104.982882 
L 142.791974 -114.434817 
L 123.924868 -119.314328 
L 105.057763 -122.450092 
L 86.190658 -155.677172 
L 67.323553 -192.201197 
z
" style="stroke: #d62728; stroke-opacity: 0.2"/>
    </defs>
    <g clip-path="url(#pcb6b69ded7)">
     <use xlink:href="#m4fb67d809d" x="0" y="288" style="fill: #d62728; fill-opacity: 0.2; stroke: #d62728; stroke-opacity: 0.2"/>
    </g>
   </g>
   <g id="PolyCollection_5">
    <defs>
     <path id="m8d9f93e8aa" d="M 67.323553 -221.612335 
L 67.323553 -148.999088 
L 86.190658 -112.09806 
L 105.057763 -89.304614 
L 123.924868 -85.802342 
L 142.791974 -84.354749 
L 161.659079 -78.164177 
L 180.526184 -71.817679 
L 199.393289 -68.216096 
L 218.260395 -63.383602 
L 237.1275 -62.021673 
L 237.1275 -78.787729 
L 237.1275 -78.787729 
L 218.260395 -81.507585 
L 199.393289 -93.148634 
L 180.526184 -100.951419 
L 161.659079 -104.415039 
L 142.791974 -113.476798 
L 123.924868 -117.701833 
L 105.057763 -123.712006 
L 86.190658 -193.779234 
L 67.323553 -221.612335 
z
" style="stroke: #9467bd; stroke-opacity: 0.2"/>
    </defs>
    <g clip-path="url(#pcb6b69ded7)">
     <use xlink:href="#m8d9f93e8aa" x="0" y="288" style="fill: #9467bd; fill-opacity: 0.2; stroke: #9467bd; stroke-opacity: 0.2"/>
    </g>
   </g>
   <g id="matplotlib.axis_1">
    <g id="xtick_1">
     <g id="line2d_1">
      <defs>
       <path id="m0d52683004" d="M 0 0 
L 0 3.5 
" style="stroke: #000000; stroke-width: 0.8"/>
      </defs>
      <g>
       <use xlink:href="#m0d52683004" x="95.624211" y="238.84" style="stroke: #000000; stroke-width: 0.8"/>
      </g>
     </g>
     <g id="text_1">
      <!-- 5 -->
      <g transform="translate(91.170461 256.477812) scale(0.14 -0.14)">
       <defs>
        <path id="DejaVuSans-35" d="M 691 4666 
L 3169 4666 
L 3169 4134 
L 1269 4134 
L 1269 2991 
Q 1406 3038 1543 3061 
Q 1681 3084 1819 3084 
Q 2600 3084 3056 2656 
Q 3513 2228 3513 1497 
Q 3513 744 3044 326 
Q 2575 -91 1722 -91 
Q 1428 -91 1123 -41 
Q 819 9 494 109 
L 494 744 
Q 775 591 1075 516 
Q 1375 441 1709 441 
Q 2250 441 2565 725 
Q 2881 1009 2881 1497 
Q 2881 1984 2565 2268 
Q 2250 2553 1709 2553 
Q 1456 2553 1204 2497 
Q 953 2441 691 2322 
L 691 4666 
z
" transform="scale(0.015625)"/>
       </defs>
       <use xlink:href="#DejaVuSans-35"/>
      </g>
     </g>
    </g>
    <g id="xtick_2">
     <g id="line2d_2">
      <g>
       <use xlink:href="#m0d52683004" x="142.791974" y="238.84" style="stroke: #000000; stroke-width: 0.8"/>
      </g>
     </g>
     <g id="text_2">
      <!-- 10 -->
      <g transform="translate(133.884474 256.477812) scale(0.14 -0.14)">
       <defs>
        <path id="DejaVuSans-31" d="M 794 531 
L 1825 531 
L 1825 4091 
L 703 3866 
L 703 4441 
L 1819 4666 
L 2450 4666 
L 2450 531 
L 3481 531 
L 3481 0 
L 794 0 
L 794 531 
z
" transform="scale(0.015625)"/>
        <path id="DejaVuSans-30" d="M 2034 4250 
Q 1547 4250 1301 3770 
Q 1056 3291 1056 2328 
Q 1056 1369 1301 889 
Q 1547 409 2034 409 
Q 2525 409 2770 889 
Q 3016 1369 3016 2328 
Q 3016 3291 2770 3770 
Q 2525 4250 2034 4250 
z
M 2034 4750 
Q 2819 4750 3233 4129 
Q 3647 3509 3647 2328 
Q 3647 1150 3233 529 
Q 2819 -91 2034 -91 
Q 1250 -91 836 529 
Q 422 1150 422 2328 
Q 422 3509 836 4129 
Q 1250 4750 2034 4750 
z
" transform="scale(0.015625)"/>
       </defs>
       <use xlink:href="#DejaVuSans-31"/>
       <use xlink:href="#DejaVuSans-30" x="63.623047"/>
      </g>
     </g>
    </g>
    <g id="xtick_3">
     <g id="line2d_3">
      <g>
       <use xlink:href="#m0d52683004" x="189.959737" y="238.84" style="stroke: #000000; stroke-width: 0.8"/>
      </g>
     </g>
     <g id="text_3">
      <!-- 15 -->
      <g transform="translate(181.052237 256.477812) scale(0.14 -0.14)">
       <use xlink:href="#DejaVuSans-31"/>
       <use xlink:href="#DejaVuSans-35" x="63.623047"/>
      </g>
     </g>
    </g>
    <g id="xtick_4">
     <g id="line2d_4">
      <g>
       <use xlink:href="#m0d52683004" x="237.1275" y="238.84" style="stroke: #000000; stroke-width: 0.8"/>
      </g>
     </g>
     <g id="text_4">
      <!-- 20 -->
      <g transform="translate(228.22 256.477812) scale(0.14 -0.14)">
       <defs>
        <path id="DejaVuSans-32" d="M 1228 531 
L 3431 531 
L 3431 0 
L 469 0 
L 469 531 
Q 828 903 1448 1529 
Q 2069 2156 2228 2338 
Q 2531 2678 2651 2914 
Q 2772 3150 2772 3378 
Q 2772 3750 2511 3984 
Q 2250 4219 1831 4219 
Q 1534 4219 1204 4116 
Q 875 4013 500 3803 
L 500 4441 
Q 881 4594 1212 4672 
Q 1544 4750 1819 4750 
Q 2544 4750 2975 4387 
Q 3406 4025 3406 3419 
Q 3406 3131 3298 2873 
Q 3191 2616 2906 2266 
Q 2828 2175 2409 1742 
Q 1991 1309 1228 531 
z
" transform="scale(0.015625)"/>
       </defs>
       <use xlink:href="#DejaVuSans-32"/>
       <use xlink:href="#DejaVuSans-30" x="63.623047"/>
      </g>
     </g>
    </g>
    <g id="text_5">
     <!-- num of hf samples (d) -->
     <g transform="translate(70.268125 274.027187) scale(0.14 -0.14)">
      <defs>
       <path id="DejaVuSans-6e" d="M 3513 2113 
L 3513 0 
L 2938 0 
L 2938 2094 
Q 2938 2591 2744 2837 
Q 2550 3084 2163 3084 
Q 1697 3084 1428 2787 
Q 1159 2491 1159 1978 
L 1159 0 
L 581 0 
L 581 3500 
L 1159 3500 
L 1159 2956 
Q 1366 3272 1645 3428 
Q 1925 3584 2291 3584 
Q 2894 3584 3203 3211 
Q 3513 2838 3513 2113 
z
" transform="scale(0.015625)"/>
       <path id="DejaVuSans-75" d="M 544 1381 
L 544 3500 
L 1119 3500 
L 1119 1403 
Q 1119 906 1312 657 
Q 1506 409 1894 409 
Q 2359 409 2629 706 
Q 2900 1003 2900 1516 
L 2900 3500 
L 3475 3500 
L 3475 0 
L 2900 0 
L 2900 538 
Q 2691 219 2414 64 
Q 2138 -91 1772 -91 
Q 1169 -91 856 284 
Q 544 659 544 1381 
z
M 1991 3584 
L 1991 3584 
z
" transform="scale(0.015625)"/>
       <path id="DejaVuSans-6d" d="M 3328 2828 
Q 3544 3216 3844 3400 
Q 4144 3584 4550 3584 
Q 5097 3584 5394 3201 
Q 5691 2819 5691 2113 
L 5691 0 
L 5113 0 
L 5113 2094 
Q 5113 2597 4934 2840 
Q 4756 3084 4391 3084 
Q 3944 3084 3684 2787 
Q 3425 2491 3425 1978 
L 3425 0 
L 2847 0 
L 2847 2094 
Q 2847 2600 2669 2842 
Q 2491 3084 2119 3084 
Q 1678 3084 1418 2786 
Q 1159 2488 1159 1978 
L 1159 0 
L 581 0 
L 581 3500 
L 1159 3500 
L 1159 2956 
Q 1356 3278 1631 3431 
Q 1906 3584 2284 3584 
Q 2666 3584 2933 3390 
Q 3200 3197 3328 2828 
z
" transform="scale(0.015625)"/>
       <path id="DejaVuSans-20" transform="scale(0.015625)"/>
       <path id="DejaVuSans-6f" d="M 1959 3097 
Q 1497 3097 1228 2736 
Q 959 2375 959 1747 
Q 959 1119 1226 758 
Q 1494 397 1959 397 
Q 2419 397 2687 759 
Q 2956 1122 2956 1747 
Q 2956 2369 2687 2733 
Q 2419 3097 1959 3097 
z
M 1959 3584 
Q 2709 3584 3137 3096 
Q 3566 2609 3566 1747 
Q 3566 888 3137 398 
Q 2709 -91 1959 -91 
Q 1206 -91 779 398 
Q 353 888 353 1747 
Q 353 2609 779 3096 
Q 1206 3584 1959 3584 
z
" transform="scale(0.015625)"/>
       <path id="DejaVuSans-66" d="M 2375 4863 
L 2375 4384 
L 1825 4384 
Q 1516 4384 1395 4259 
Q 1275 4134 1275 3809 
L 1275 3500 
L 2222 3500 
L 2222 3053 
L 1275 3053 
L 1275 0 
L 697 0 
L 697 3053 
L 147 3053 
L 147 3500 
L 697 3500 
L 697 3744 
Q 697 4328 969 4595 
Q 1241 4863 1831 4863 
L 2375 4863 
z
" transform="scale(0.015625)"/>
       <path id="DejaVuSans-68" d="M 3513 2113 
L 3513 0 
L 2938 0 
L 2938 2094 
Q 2938 2591 2744 2837 
Q 2550 3084 2163 3084 
Q 1697 3084 1428 2787 
Q 1159 2491 1159 1978 
L 1159 0 
L 581 0 
L 581 4863 
L 1159 4863 
L 1159 2956 
Q 1366 3272 1645 3428 
Q 1925 3584 2291 3584 
Q 2894 3584 3203 3211 
Q 3513 2838 3513 2113 
z
" transform="scale(0.015625)"/>
       <path id="DejaVuSans-73" d="M 2834 3397 
L 2834 2853 
Q 2591 2978 2328 3040 
Q 2066 3103 1784 3103 
Q 1356 3103 1142 2972 
Q 928 2841 928 2578 
Q 928 2378 1081 2264 
Q 1234 2150 1697 2047 
L 1894 2003 
Q 2506 1872 2764 1633 
Q 3022 1394 3022 966 
Q 3022 478 2636 193 
Q 2250 -91 1575 -91 
Q 1294 -91 989 -36 
Q 684 19 347 128 
L 347 722 
Q 666 556 975 473 
Q 1284 391 1588 391 
Q 1994 391 2212 530 
Q 2431 669 2431 922 
Q 2431 1156 2273 1281 
Q 2116 1406 1581 1522 
L 1381 1569 
Q 847 1681 609 1914 
Q 372 2147 372 2553 
Q 372 3047 722 3315 
Q 1072 3584 1716 3584 
Q 2034 3584 2315 3537 
Q 2597 3491 2834 3397 
z
" transform="scale(0.015625)"/>
       <path id="DejaVuSans-61" d="M 2194 1759 
Q 1497 1759 1228 1600 
Q 959 1441 959 1056 
Q 959 750 1161 570 
Q 1363 391 1709 391 
Q 2188 391 2477 730 
Q 2766 1069 2766 1631 
L 2766 1759 
L 2194 1759 
z
M 3341 1997 
L 3341 0 
L 2766 0 
L 2766 531 
Q 2569 213 2275 61 
Q 1981 -91 1556 -91 
Q 1019 -91 701 211 
Q 384 513 384 1019 
Q 384 1609 779 1909 
Q 1175 2209 1959 2209 
L 2766 2209 
L 2766 2266 
Q 2766 2663 2505 2880 
Q 2244 3097 1772 3097 
Q 1472 3097 1187 3025 
Q 903 2953 641 2809 
L 641 3341 
Q 956 3463 1253 3523 
Q 1550 3584 1831 3584 
Q 2591 3584 2966 3190 
Q 3341 2797 3341 1997 
z
" transform="scale(0.015625)"/>
       <path id="DejaVuSans-70" d="M 1159 525 
L 1159 -1331 
L 581 -1331 
L 581 3500 
L 1159 3500 
L 1159 2969 
Q 1341 3281 1617 3432 
Q 1894 3584 2278 3584 
Q 2916 3584 3314 3078 
Q 3713 2572 3713 1747 
Q 3713 922 3314 415 
Q 2916 -91 2278 -91 
Q 1894 -91 1617 61 
Q 1341 213 1159 525 
z
M 3116 1747 
Q 3116 2381 2855 2742 
Q 2594 3103 2138 3103 
Q 1681 3103 1420 2742 
Q 1159 2381 1159 1747 
Q 1159 1113 1420 752 
Q 1681 391 2138 391 
Q 2594 391 2855 752 
Q 3116 1113 3116 1747 
z
" transform="scale(0.015625)"/>
       <path id="DejaVuSans-6c" d="M 603 4863 
L 1178 4863 
L 1178 0 
L 603 0 
L 603 4863 
z
" transform="scale(0.015625)"/>
       <path id="DejaVuSans-65" d="M 3597 1894 
L 3597 1613 
L 953 1613 
Q 991 1019 1311 708 
Q 1631 397 2203 397 
Q 2534 397 2845 478 
Q 3156 559 3463 722 
L 3463 178 
Q 3153 47 2828 -22 
Q 2503 -91 2169 -91 
Q 1331 -91 842 396 
Q 353 884 353 1716 
Q 353 2575 817 3079 
Q 1281 3584 2069 3584 
Q 2775 3584 3186 3129 
Q 3597 2675 3597 1894 
z
M 3022 2063 
Q 3016 2534 2758 2815 
Q 2500 3097 2075 3097 
Q 1594 3097 1305 2825 
Q 1016 2553 972 2059 
L 3022 2063 
z
" transform="scale(0.015625)"/>
       <path id="DejaVuSans-28" d="M 1984 4856 
Q 1566 4138 1362 3434 
Q 1159 2731 1159 2009 
Q 1159 1288 1364 580 
Q 1569 -128 1984 -844 
L 1484 -844 
Q 1016 -109 783 600 
Q 550 1309 550 2009 
Q 550 2706 781 3412 
Q 1013 4119 1484 4856 
L 1984 4856 
z
" transform="scale(0.015625)"/>
       <path id="DejaVuSans-64" d="M 2906 2969 
L 2906 4863 
L 3481 4863 
L 3481 0 
L 2906 0 
L 2906 525 
Q 2725 213 2448 61 
Q 2172 -91 1784 -91 
Q 1150 -91 751 415 
Q 353 922 353 1747 
Q 353 2572 751 3078 
Q 1150 3584 1784 3584 
Q 2172 3584 2448 3432 
Q 2725 3281 2906 2969 
z
M 947 1747 
Q 947 1113 1208 752 
Q 1469 391 1925 391 
Q 2381 391 2643 752 
Q 2906 1113 2906 1747 
Q 2906 2381 2643 2742 
Q 2381 3103 1925 3103 
Q 1469 3103 1208 2742 
Q 947 2381 947 1747 
z
" transform="scale(0.015625)"/>
       <path id="DejaVuSans-29" d="M 513 4856 
L 1013 4856 
Q 1481 4119 1714 3412 
Q 1947 2706 1947 2009 
Q 1947 1309 1714 600 
Q 1481 -109 1013 -844 
L 513 -844 
Q 928 -128 1133 580 
Q 1338 1288 1338 2009 
Q 1338 2731 1133 3434 
Q 928 4138 513 4856 
z
" transform="scale(0.015625)"/>
      </defs>
      <use xlink:href="#DejaVuSans-6e"/>
      <use xlink:href="#DejaVuSans-75" x="63.378906"/>
      <use xlink:href="#DejaVuSans-6d" x="126.757812"/>
      <use xlink:href="#DejaVuSans-20" x="224.169922"/>
      <use xlink:href="#DejaVuSans-6f" x="255.957031"/>
      <use xlink:href="#DejaVuSans-66" x="317.138672"/>
      <use xlink:href="#DejaVuSans-20" x="352.34375"/>
      <use xlink:href="#DejaVuSans-68" x="384.130859"/>
      <use xlink:href="#DejaVuSans-66" x="447.509766"/>
      <use xlink:href="#DejaVuSans-20" x="482.714844"/>
      <use xlink:href="#DejaVuSans-73" x="514.501953"/>
      <use xlink:href="#DejaVuSans-61" x="566.601562"/>
      <use xlink:href="#DejaVuSans-6d" x="627.880859"/>
      <use xlink:href="#DejaVuSans-70" x="725.292969"/>
      <use xlink:href="#DejaVuSans-6c" x="788.769531"/>
      <use xlink:href="#DejaVuSans-65" x="816.552734"/>
      <use xlink:href="#DejaVuSans-73" x="878.076172"/>
      <use xlink:href="#DejaVuSans-20" x="930.175781"/>
      <use xlink:href="#DejaVuSans-28" x="961.962891"/>
      <use xlink:href="#DejaVuSans-64" x="1000.976562"/>
      <use xlink:href="#DejaVuSans-29" x="1064.453125"/>
     </g>
    </g>
   </g>
   <g id="matplotlib.axis_2">
    <g id="ytick_1">
     <g id="line2d_5">
      <defs>
       <path id="mb95750702a" d="M 0 0 
L -3.5 0 
" style="stroke: #000000; stroke-width: 0.8"/>
      </defs>
      <g>
       <use xlink:href="#mb95750702a" x="57.89" y="234.789523" style="stroke: #000000; stroke-width: 0.8"/>
      </g>
     </g>
     <g id="text_6">
      <!-- 0.0 -->
      <g transform="translate(28.625625 240.108429) scale(0.14 -0.14)">
       <defs>
        <path id="DejaVuSans-2e" d="M 684 794 
L 1344 794 
L 1344 0 
L 684 0 
L 684 794 
z
" transform="scale(0.015625)"/>
       </defs>
       <use xlink:href="#DejaVuSans-30"/>
       <use xlink:href="#DejaVuSans-2e" x="63.623047"/>
       <use xlink:href="#DejaVuSans-30" x="95.410156"/>
      </g>
     </g>
    </g>
    <g id="ytick_2">
     <g id="line2d_6">
      <g>
       <use xlink:href="#mb95750702a" x="57.89" y="193.499515" style="stroke: #000000; stroke-width: 0.8"/>
      </g>
     </g>
     <g id="text_7">
      <!-- 0.5 -->
      <g transform="translate(28.625625 198.818422) scale(0.14 -0.14)">
       <use xlink:href="#DejaVuSans-30"/>
       <use xlink:href="#DejaVuSans-2e" x="63.623047"/>
       <use xlink:href="#DejaVuSans-35" x="95.410156"/>
      </g>
     </g>
    </g>
    <g id="ytick_3">
     <g id="line2d_7">
      <g>
       <use xlink:href="#mb95750702a" x="57.89" y="152.209508" style="stroke: #000000; stroke-width: 0.8"/>
      </g>
     </g>
     <g id="text_8">
      <!-- 1.0 -->
      <g transform="translate(28.625625 157.528415) scale(0.14 -0.14)">
       <use xlink:href="#DejaVuSans-31"/>
       <use xlink:href="#DejaVuSans-2e" x="63.623047"/>
       <use xlink:href="#DejaVuSans-30" x="95.410156"/>
      </g>
     </g>
    </g>
    <g id="ytick_4">
     <g id="line2d_8">
      <g>
       <use xlink:href="#mb95750702a" x="57.89" y="110.919501" style="stroke: #000000; stroke-width: 0.8"/>
      </g>
     </g>
     <g id="text_9">
      <!-- 1.5 -->
      <g transform="translate(28.625625 116.238407) scale(0.14 -0.14)">
       <use xlink:href="#DejaVuSans-31"/>
       <use xlink:href="#DejaVuSans-2e" x="63.623047"/>
       <use xlink:href="#DejaVuSans-35" x="95.410156"/>
      </g>
     </g>
    </g>
    <g id="ytick_5">
     <g id="line2d_9">
      <g>
       <use xlink:href="#mb95750702a" x="57.89" y="69.629494" style="stroke: #000000; stroke-width: 0.8"/>
      </g>
     </g>
     <g id="text_10">
      <!-- 2.0 -->
      <g transform="translate(28.625625 74.9484) scale(0.14 -0.14)">
       <use xlink:href="#DejaVuSans-32"/>
       <use xlink:href="#DejaVuSans-2e" x="63.623047"/>
       <use xlink:href="#DejaVuSans-30" x="95.410156"/>
      </g>
     </g>
    </g>
    <g id="ytick_6">
     <g id="line2d_10">
      <g>
       <use xlink:href="#mb95750702a" x="57.89" y="28.339487" style="stroke: #000000; stroke-width: 0.8"/>
      </g>
     </g>
     <g id="text_11">
      <!-- 2.5 -->
      <g transform="translate(28.625625 33.658393) scale(0.14 -0.14)">
       <use xlink:href="#DejaVuSans-32"/>
       <use xlink:href="#DejaVuSans-2e" x="63.623047"/>
       <use xlink:href="#DejaVuSans-35" x="95.410156"/>
      </g>
     </g>
    </g>
    <g id="text_12">
     <!-- NMAE -->
     <g transform="translate(21.714062 153.708125) rotate(-90) scale(0.14 -0.14)">
      <defs>
       <path id="DejaVuSans-4e" d="M 628 4666 
L 1478 4666 
L 3547 763 
L 3547 4666 
L 4159 4666 
L 4159 0 
L 3309 0 
L 1241 3903 
L 1241 0 
L 628 0 
L 628 4666 
z
" transform="scale(0.015625)"/>
       <path id="DejaVuSans-4d" d="M 628 4666 
L 1569 4666 
L 2759 1491 
L 3956 4666 
L 4897 4666 
L 4897 0 
L 4281 0 
L 4281 4097 
L 3078 897 
L 2444 897 
L 1241 4097 
L 1241 0 
L 628 0 
L 628 4666 
z
" transform="scale(0.015625)"/>
       <path id="DejaVuSans-41" d="M 2188 4044 
L 1331 1722 
L 3047 1722 
L 2188 4044 
z
M 1831 4666 
L 2547 4666 
L 4325 0 
L 3669 0 
L 3244 1197 
L 1141 1197 
L 716 0 
L 50 0 
L 1831 4666 
z
" transform="scale(0.015625)"/>
       <path id="DejaVuSans-45" d="M 628 4666 
L 3578 4666 
L 3578 4134 
L 1259 4134 
L 1259 2753 
L 3481 2753 
L 3481 2222 
L 1259 2222 
L 1259 531 
L 3634 531 
L 3634 0 
L 628 0 
L 628 4666 
z
" transform="scale(0.015625)"/>
      </defs>
      <use xlink:href="#DejaVuSans-4e"/>
      <use xlink:href="#DejaVuSans-4d" x="74.804688"/>
      <use xlink:href="#DejaVuSans-41" x="161.083984"/>
      <use xlink:href="#DejaVuSans-45" x="229.492188"/>
     </g>
    </g>
   </g>
   <g id="line2d_11">
    <path d="M 67.323553 66.694283 
L 86.190658 128.671953 
L 105.057763 164.508695 
L 123.924868 174.516699 
L 142.791974 180.543765 
L 161.659079 191.166578 
L 180.526184 194.651394 
L 199.393289 201.224522 
L 218.260395 205.129702 
L 237.1275 215.799847 
L 255.994605 213.470059 
L 274.861711 216.557739 
L 293.728816 215.927182 
L 312.595921 217.791115 
L 331.463026 219.26863 
L 350.330132 220.639462 
L 369.197237 218.343966 
L 388.064342 220.029666 
L 406.931447 221.315882 
L 425.798553 221.155911 
" clip-path="url(#pcb6b69ded7)" style="fill: none; stroke: #1f77b4; stroke-width: 2; stroke-linecap: square"/>
   </g>
   <g id="line2d_12">
    <path d="M 67.323553 108.459061 
L 86.190658 141.907694 
L 105.057763 185.166629 
L 123.924868 190.925937 
L 142.791974 197.027584 
L 161.659079 208.845297 
L 180.526184 215.751913 
L 199.393289 216.066635 
L 218.260395 220.76494 
L 237.1275 219.95561 
" clip-path="url(#pcb6b69ded7)" style="fill: none; stroke: #ff7f0e; stroke-width: 2; stroke-linecap: square"/>
   </g>
   <g id="line2d_13">
    <path d="M 67.323553 125.917573 
L 86.190658 144.487227 
L 105.057763 183.133223 
L 123.924868 189.65235 
L 142.791974 195.254656 
L 161.659079 202.59026 
L 180.526184 210.063401 
L 199.393289 215.842951 
L 218.260395 219.645897 
L 237.1275 218.635732 
" clip-path="url(#pcb6b69ded7)" style="fill: none; stroke: #2ca02c; stroke-width: 2; stroke-linecap: square"/>
   </g>
   <g id="line2d_14">
    <path d="M 67.323553 124.623123 
L 86.190658 156.369664 
L 105.057763 181.578443 
L 123.924868 185.490346 
L 142.791974 188.32771 
L 161.659079 196.016287 
L 180.526184 208.592801 
L 199.393289 211.473364 
L 218.260395 217.274927 
L 237.1275 218.00612 
" clip-path="url(#pcb6b69ded7)" style="fill: none; stroke: #d62728; stroke-width: 2; stroke-linecap: square"/>
   </g>
   <g id="line2d_15">
    <path d="M 67.323553 104.614638 
L 86.190658 142.704159 
L 105.057763 181.621681 
L 123.924868 187.025133 
L 142.791974 189.78545 
L 161.659079 197.421897 
L 180.526184 202.559979 
L 199.393289 208.443649 
L 218.260395 216.072549 
L 237.1275 218.659047 
" clip-path="url(#pcb6b69ded7)" style="fill: none; stroke: #9467bd; stroke-width: 2; stroke-linecap: square"/>
   </g>
   <g id="patch_3">
    <path d="M 57.89 238.84 
L 57.89 27.6 
" style="fill: none; stroke: #000000; stroke-width: 0.8; stroke-linejoin: miter; stroke-linecap: square"/>
   </g>
   <g id="patch_4">
    <path d="M 237.1275 238.84 
L 237.1275 27.6 
" style="fill: none; stroke: #000000; stroke-width: 0.8; stroke-linejoin: miter; stroke-linecap: square"/>
   </g>
   <g id="patch_5">
    <path d="M 57.89 238.84 
L 237.1275 238.84 
" style="fill: none; stroke: #000000; stroke-width: 0.8; stroke-linejoin: miter; stroke-linecap: square"/>
   </g>
   <g id="patch_6">
    <path d="M 57.89 27.6 
L 237.1275 27.6 
" style="fill: none; stroke: #000000; stroke-width: 0.8; stroke-linejoin: miter; stroke-linecap: square"/>
   </g>
   <g id="text_13">
    <!-- (a) -->
    <g transform="translate(137.756875 21.6) scale(0.14 -0.14)">
     <use xlink:href="#DejaVuSans-28"/>
     <use xlink:href="#DejaVuSans-61" x="39.013672"/>
     <use xlink:href="#DejaVuSans-29" x="100.292969"/>
    </g>
   </g>
   <g id="legend_1">
    <g id="patch_7">
     <path d="M 100.094688 108.990625 
L 230.1275 108.990625 
Q 232.1275 108.990625 232.1275 106.990625 
L 232.1275 34.6 
Q 232.1275 32.6 230.1275 32.6 
L 100.094688 32.6 
Q 98.094688 32.6 98.094688 34.6 
L 98.094688 106.990625 
Q 98.094688 108.990625 100.094688 108.990625 
z
" style="fill: #ffffff; opacity: 0.8; stroke: #cccccc; stroke-linejoin: miter"/>
    </g>
    <g id="line2d_16">
     <path d="M 102.094688 40.698438 
L 112.094688 40.698438 
L 122.094688 40.698438 
" style="fill: none; stroke: #1f77b4; stroke-width: 2; stroke-linecap: square"/>
    </g>
    <g id="text_14">
     <!-- Kriging -->
     <g transform="translate(130.094688 44.198438) scale(0.1 -0.1)">
      <defs>
       <path id="DejaVuSans-4b" d="M 628 4666 
L 1259 4666 
L 1259 2694 
L 3353 4666 
L 4166 4666 
L 1850 2491 
L 4331 0 
L 3500 0 
L 1259 2247 
L 1259 0 
L 628 0 
L 628 4666 
z
" transform="scale(0.015625)"/>
       <path id="DejaVuSans-72" d="M 2631 2963 
Q 2534 3019 2420 3045 
Q 2306 3072 2169 3072 
Q 1681 3072 1420 2755 
Q 1159 2438 1159 1844 
L 1159 0 
L 581 0 
L 581 3500 
L 1159 3500 
L 1159 2956 
Q 1341 3275 1631 3429 
Q 1922 3584 2338 3584 
Q 2397 3584 2469 3576 
Q 2541 3569 2628 3553 
L 2631 2963 
z
" transform="scale(0.015625)"/>
       <path id="DejaVuSans-69" d="M 603 3500 
L 1178 3500 
L 1178 0 
L 603 0 
L 603 3500 
z
M 603 4863 
L 1178 4863 
L 1178 4134 
L 603 4134 
L 603 4863 
z
" transform="scale(0.015625)"/>
       <path id="DejaVuSans-67" d="M 2906 1791 
Q 2906 2416 2648 2759 
Q 2391 3103 1925 3103 
Q 1463 3103 1205 2759 
Q 947 2416 947 1791 
Q 947 1169 1205 825 
Q 1463 481 1925 481 
Q 2391 481 2648 825 
Q 2906 1169 2906 1791 
z
M 3481 434 
Q 3481 -459 3084 -895 
Q 2688 -1331 1869 -1331 
Q 1566 -1331 1297 -1286 
Q 1028 -1241 775 -1147 
L 775 -588 
Q 1028 -725 1275 -790 
Q 1522 -856 1778 -856 
Q 2344 -856 2625 -561 
Q 2906 -266 2906 331 
L 2906 616 
Q 2728 306 2450 153 
Q 2172 0 1784 0 
Q 1141 0 747 490 
Q 353 981 353 1791 
Q 353 2603 747 3093 
Q 1141 3584 1784 3584 
Q 2172 3584 2450 3431 
Q 2728 3278 2906 2969 
L 2906 3500 
L 3481 3500 
L 3481 434 
z
" transform="scale(0.015625)"/>
      </defs>
      <use xlink:href="#DejaVuSans-4b"/>
      <use xlink:href="#DejaVuSans-72" x="65.576172"/>
      <use xlink:href="#DejaVuSans-69" x="106.689453"/>
      <use xlink:href="#DejaVuSans-67" x="134.472656"/>
      <use xlink:href="#DejaVuSans-69" x="197.949219"/>
      <use xlink:href="#DejaVuSans-6e" x="225.732422"/>
      <use xlink:href="#DejaVuSans-67" x="289.111328"/>
     </g>
    </g>
    <g id="line2d_17">
     <path d="M 102.094688 55.376563 
L 112.094688 55.376563 
L 122.094688 55.376563 
" style="fill: none; stroke: #ff7f0e; stroke-width: 2; stroke-linecap: square"/>
    </g>
    <g id="text_15">
     <!-- Hierarchical Kriging -->
     <g transform="translate(130.094688 58.876563) scale(0.1 -0.1)">
      <defs>
       <path id="DejaVuSans-48" d="M 628 4666 
L 1259 4666 
L 1259 2753 
L 3553 2753 
L 3553 4666 
L 4184 4666 
L 4184 0 
L 3553 0 
L 3553 2222 
L 1259 2222 
L 1259 0 
L 628 0 
L 628 4666 
z
" transform="scale(0.015625)"/>
       <path id="DejaVuSans-63" d="M 3122 3366 
L 3122 2828 
Q 2878 2963 2633 3030 
Q 2388 3097 2138 3097 
Q 1578 3097 1268 2742 
Q 959 2388 959 1747 
Q 959 1106 1268 751 
Q 1578 397 2138 397 
Q 2388 397 2633 464 
Q 2878 531 3122 666 
L 3122 134 
Q 2881 22 2623 -34 
Q 2366 -91 2075 -91 
Q 1284 -91 818 406 
Q 353 903 353 1747 
Q 353 2603 823 3093 
Q 1294 3584 2113 3584 
Q 2378 3584 2631 3529 
Q 2884 3475 3122 3366 
z
" transform="scale(0.015625)"/>
      </defs>
      <use xlink:href="#DejaVuSans-48"/>
      <use xlink:href="#DejaVuSans-69" x="75.195312"/>
      <use xlink:href="#DejaVuSans-65" x="102.978516"/>
      <use xlink:href="#DejaVuSans-72" x="164.501953"/>
      <use xlink:href="#DejaVuSans-61" x="205.615234"/>
      <use xlink:href="#DejaVuSans-72" x="266.894531"/>
      <use xlink:href="#DejaVuSans-63" x="305.757812"/>
      <use xlink:href="#DejaVuSans-68" x="360.738281"/>
      <use xlink:href="#DejaVuSans-69" x="424.117188"/>
      <use xlink:href="#DejaVuSans-63" x="451.900391"/>
      <use xlink:href="#DejaVuSans-61" x="506.880859"/>
      <use xlink:href="#DejaVuSans-6c" x="568.160156"/>
      <use xlink:href="#DejaVuSans-20" x="595.943359"/>
      <use xlink:href="#DejaVuSans-4b" x="627.730469"/>
      <use xlink:href="#DejaVuSans-72" x="693.306641"/>
      <use xlink:href="#DejaVuSans-69" x="734.419922"/>
      <use xlink:href="#DejaVuSans-67" x="762.203125"/>
      <use xlink:href="#DejaVuSans-69" x="825.679688"/>
      <use xlink:href="#DejaVuSans-6e" x="853.462891"/>
      <use xlink:href="#DejaVuSans-67" x="916.841797"/>
     </g>
    </g>
    <g id="line2d_18">
     <path d="M 102.094688 70.054688 
L 112.094688 70.054688 
L 122.094688 70.054688 
" style="fill: none; stroke: #2ca02c; stroke-width: 2; stroke-linecap: square"/>
    </g>
    <g id="text_16">
     <!-- Co-Kriging -->
     <g transform="translate(130.094688 73.554688) scale(0.1 -0.1)">
      <defs>
       <path id="DejaVuSans-43" d="M 4122 4306 
L 4122 3641 
Q 3803 3938 3442 4084 
Q 3081 4231 2675 4231 
Q 1875 4231 1450 3742 
Q 1025 3253 1025 2328 
Q 1025 1406 1450 917 
Q 1875 428 2675 428 
Q 3081 428 3442 575 
Q 3803 722 4122 1019 
L 4122 359 
Q 3791 134 3420 21 
Q 3050 -91 2638 -91 
Q 1578 -91 968 557 
Q 359 1206 359 2328 
Q 359 3453 968 4101 
Q 1578 4750 2638 4750 
Q 3056 4750 3426 4639 
Q 3797 4528 4122 4306 
z
" transform="scale(0.015625)"/>
       <path id="DejaVuSans-2d" d="M 313 2009 
L 1997 2009 
L 1997 1497 
L 313 1497 
L 313 2009 
z
" transform="scale(0.015625)"/>
      </defs>
      <use xlink:href="#DejaVuSans-43"/>
      <use xlink:href="#DejaVuSans-6f" x="69.824219"/>
      <use xlink:href="#DejaVuSans-2d" x="132.880859"/>
      <use xlink:href="#DejaVuSans-4b" x="168.964844"/>
      <use xlink:href="#DejaVuSans-72" x="234.541016"/>
      <use xlink:href="#DejaVuSans-69" x="275.654297"/>
      <use xlink:href="#DejaVuSans-67" x="303.4375"/>
      <use xlink:href="#DejaVuSans-69" x="366.914062"/>
      <use xlink:href="#DejaVuSans-6e" x="394.697266"/>
      <use xlink:href="#DejaVuSans-67" x="458.076172"/>
     </g>
    </g>
    <g id="line2d_19">
     <path d="M 102.094688 84.732813 
L 112.094688 84.732813 
L 122.094688 84.732813 
" style="fill: none; stroke: #d62728; stroke-width: 2; stroke-linecap: square"/>
    </g>
    <g id="text_17">
     <!-- Scaled Kriging -->
     <g transform="translate(130.094688 88.232813) scale(0.1 -0.1)">
      <defs>
       <path id="DejaVuSans-53" d="M 3425 4513 
L 3425 3897 
Q 3066 4069 2747 4153 
Q 2428 4238 2131 4238 
Q 1616 4238 1336 4038 
Q 1056 3838 1056 3469 
Q 1056 3159 1242 3001 
Q 1428 2844 1947 2747 
L 2328 2669 
Q 3034 2534 3370 2195 
Q 3706 1856 3706 1288 
Q 3706 609 3251 259 
Q 2797 -91 1919 -91 
Q 1588 -91 1214 -16 
Q 841 59 441 206 
L 441 856 
Q 825 641 1194 531 
Q 1563 422 1919 422 
Q 2459 422 2753 634 
Q 3047 847 3047 1241 
Q 3047 1584 2836 1778 
Q 2625 1972 2144 2069 
L 1759 2144 
Q 1053 2284 737 2584 
Q 422 2884 422 3419 
Q 422 4038 858 4394 
Q 1294 4750 2059 4750 
Q 2388 4750 2728 4690 
Q 3069 4631 3425 4513 
z
" transform="scale(0.015625)"/>
      </defs>
      <use xlink:href="#DejaVuSans-53"/>
      <use xlink:href="#DejaVuSans-63" x="63.476562"/>
      <use xlink:href="#DejaVuSans-61" x="118.457031"/>
      <use xlink:href="#DejaVuSans-6c" x="179.736328"/>
      <use xlink:href="#DejaVuSans-65" x="207.519531"/>
      <use xlink:href="#DejaVuSans-64" x="269.042969"/>
      <use xlink:href="#DejaVuSans-20" x="332.519531"/>
      <use xlink:href="#DejaVuSans-4b" x="364.306641"/>
      <use xlink:href="#DejaVuSans-72" x="429.882812"/>
      <use xlink:href="#DejaVuSans-69" x="470.996094"/>
      <use xlink:href="#DejaVuSans-67" x="498.779297"/>
      <use xlink:href="#DejaVuSans-69" x="562.255859"/>
      <use xlink:href="#DejaVuSans-6e" x="590.039062"/>
      <use xlink:href="#DejaVuSans-67" x="653.417969"/>
     </g>
    </g>
    <g id="line2d_20">
     <path d="M 102.094688 99.410938 
L 112.094688 99.410938 
L 122.094688 99.410938 
" style="fill: none; stroke: #9467bd; stroke-width: 2; stroke-linecap: square"/>
    </g>
    <g id="text_18">
     <!-- MF-RBF-Kriging -->
     <g transform="translate(130.094688 102.910938) scale(0.1 -0.1)">
      <defs>
       <path id="DejaVuSans-46" d="M 628 4666 
L 3309 4666 
L 3309 4134 
L 1259 4134 
L 1259 2759 
L 3109 2759 
L 3109 2228 
L 1259 2228 
L 1259 0 
L 628 0 
L 628 4666 
z
" transform="scale(0.015625)"/>
       <path id="DejaVuSans-52" d="M 2841 2188 
Q 3044 2119 3236 1894 
Q 3428 1669 3622 1275 
L 4263 0 
L 3584 0 
L 2988 1197 
Q 2756 1666 2539 1819 
Q 2322 1972 1947 1972 
L 1259 1972 
L 1259 0 
L 628 0 
L 628 4666 
L 2053 4666 
Q 2853 4666 3247 4331 
Q 3641 3997 3641 3322 
Q 3641 2881 3436 2590 
Q 3231 2300 2841 2188 
z
M 1259 4147 
L 1259 2491 
L 2053 2491 
Q 2509 2491 2742 2702 
Q 2975 2913 2975 3322 
Q 2975 3731 2742 3939 
Q 2509 4147 2053 4147 
L 1259 4147 
z
" transform="scale(0.015625)"/>
       <path id="DejaVuSans-42" d="M 1259 2228 
L 1259 519 
L 2272 519 
Q 2781 519 3026 730 
Q 3272 941 3272 1375 
Q 3272 1813 3026 2020 
Q 2781 2228 2272 2228 
L 1259 2228 
z
M 1259 4147 
L 1259 2741 
L 2194 2741 
Q 2656 2741 2882 2914 
Q 3109 3088 3109 3444 
Q 3109 3797 2882 3972 
Q 2656 4147 2194 4147 
L 1259 4147 
z
M 628 4666 
L 2241 4666 
Q 2963 4666 3353 4366 
Q 3744 4066 3744 3513 
Q 3744 3084 3544 2831 
Q 3344 2578 2956 2516 
Q 3422 2416 3680 2098 
Q 3938 1781 3938 1306 
Q 3938 681 3513 340 
Q 3088 0 2303 0 
L 628 0 
L 628 4666 
z
" transform="scale(0.015625)"/>
      </defs>
      <use xlink:href="#DejaVuSans-4d"/>
      <use xlink:href="#DejaVuSans-46" x="86.279297"/>
      <use xlink:href="#DejaVuSans-2d" x="143.798828"/>
      <use xlink:href="#DejaVuSans-52" x="179.882812"/>
      <use xlink:href="#DejaVuSans-42" x="249.365234"/>
      <use xlink:href="#DejaVuSans-46" x="317.96875"/>
      <use xlink:href="#DejaVuSans-2d" x="375.488281"/>
      <use xlink:href="#DejaVuSans-4b" x="411.572266"/>
      <use xlink:href="#DejaVuSans-72" x="477.148438"/>
      <use xlink:href="#DejaVuSans-69" x="518.261719"/>
      <use xlink:href="#DejaVuSans-67" x="546.044922"/>
      <use xlink:href="#DejaVuSans-69" x="609.521484"/>
      <use xlink:href="#DejaVuSans-6e" x="637.304688"/>
      <use xlink:href="#DejaVuSans-67" x="700.683594"/>
     </g>
    </g>
   </g>
  </g>
  <g id="axes_2">
   <g id="patch_8">
    <path d="M 308.2925 238.84 
L 487.53 238.84 
L 487.53 27.6 
L 308.2925 27.6 
z
" style="fill: #ffffff"/>
   </g>
   <g id="PolyCollection_6">
    <defs>
     <path id="mf418c8930a" d="M 317.726053 -250.798182 
L 317.726053 -188.429399 
L 336.593158 -128.892505 
L 355.460263 -95.172503 
L 374.327368 -86.897705 
L 393.194474 -81.470441 
L 412.061579 -75.395648 
L 430.928684 -73.478031 
L 449.795789 -67.727168 
L 468.662895 -67.217674 
L 487.53 -63.448549 
L 506.397105 -62.12938 
L 525.264211 -61.834072 
L 544.131316 -61.109825 
L 562.998421 -60.056423 
L 581.865526 -60.471999 
L 600.732632 -59.967977 
L 619.599737 -59.890274 
L 638.466842 -59.128237 
L 657.333947 -58.898332 
L 676.201053 -58.761818 
L 676.201053 -68.036235 
L 676.201053 -68.036235 
L 657.333947 -67.584728 
L 638.466842 -71.598548 
L 619.599737 -73.031063 
L 600.732632 -71.916465 
L 581.865526 -71.481251 
L 562.998421 -73.411148 
L 544.131316 -75.411845 
L 525.264211 -78.390603 
L 506.397105 -74.616007 
L 487.53 -76.243148 
L 468.662895 -82.970813 
L 449.795789 -89.213172 
L 430.928684 -91.72316 
L 412.061579 -98.093731 
L 393.194474 -105.49762 
L 374.327368 -113.336438 
L 355.460263 -131.419665 
L 336.593158 -174.412223 
L 317.726053 -250.798182 
z
" style="stroke: #1f77b4; stroke-opacity: 0.2"/>
    </defs>
    <g clip-path="url(#pf0311554cc)">
     <use xlink:href="#mf418c8930a" x="0" y="288" style="fill: #1f77b4; fill-opacity: 0.2; stroke: #1f77b4; stroke-opacity: 0.2"/>
    </g>
   </g>
   <g id="PolyCollection_7">
    <defs>
     <path id="m9e4232df3f" d="M 317.726053 -216.838585 
L 317.726053 -148.249704 
L 336.593158 -106.381084 
L 355.460263 -81.769085 
L 374.327368 -77.953466 
L 393.194474 -71.705131 
L 412.061579 -66.050043 
L 430.928684 -61.968036 
L 449.795789 -61.820403 
L 468.662895 -60.660864 
L 487.53 -60.521067 
L 487.53 -71.36716 
L 487.53 -71.36716 
L 468.662895 -71.343641 
L 449.795789 -73.868344 
L 430.928684 -74.481336 
L 412.061579 -81.833713 
L 393.194474 -90.810895 
L 374.327368 -99.844932 
L 355.460263 -110.826798 
L 336.593158 -181.583308 
L 317.726053 -216.838585 
z
" style="stroke: #ff7f0e; stroke-opacity: 0.2"/>
    </defs>
    <g clip-path="url(#pf0311554cc)">
     <use xlink:href="#m9e4232df3f" x="0" y="288" style="fill: #ff7f0e; fill-opacity: 0.2; stroke: #ff7f0e; stroke-opacity: 0.2"/>
    </g>
   </g>
   <g id="PolyCollection_8">
    <defs>
     <path id="m9497d6ad95" d="M 317.726053 -206.283388 
L 317.726053 -143.796581 
L 336.593158 -117.884702 
L 355.460263 -84.407879 
L 374.327368 -79.151832 
L 393.194474 -73.609303 
L 412.061579 -68.731842 
L 430.928684 -65.492387 
L 449.795789 -62.050016 
L 468.662895 -60.931913 
L 487.53 -61.782741 
L 487.53 -72.078541 
L 487.53 -72.078541 
L 468.662895 -71.455723 
L 449.795789 -74.142503 
L 430.928684 -79.95954 
L 412.061579 -85.186095 
L 393.194474 -92.7183 
L 374.327368 -102.321331 
L 355.460263 -115.844233 
L 336.593158 -165.283824 
L 317.726053 -206.283388 
z
" style="stroke: #2ca02c; stroke-opacity: 0.2"/>
    </defs>
    <g clip-path="url(#pf0311554cc)">
     <use xlink:href="#m9497d6ad95" x="0" y="288" style="fill: #2ca02c; fill-opacity: 0.2; stroke: #2ca02c; stroke-opacity: 0.2"/>
    </g>
   </g>
   <g id="PolyCollection_9">
    <defs>
     <path id="m6116ebe69f" d="M 317.726053 -197.165143 
L 317.726053 -139.257533 
L 336.593158 -104.337367 
L 355.460263 -82.93392 
L 374.327368 -80.428926 
L 393.194474 -76.822168 
L 412.061579 -72.986293 
L 430.928684 -67.380862 
L 449.795789 -64.339209 
L 468.662895 -62.83422 
L 487.53 -61.715154 
L 487.53 -73.62299 
L 487.53 -73.62299 
L 468.662895 -74.940706 
L 449.795789 -79.043318 
L 430.928684 -80.669097 
L 412.061579 -91.82741 
L 393.194474 -96.250162 
L 374.327368 -103.344705 
L 355.460263 -113.869654 
L 336.593158 -146.346525 
L 317.726053 -197.165143 
z
" style="stroke: #d62728; stroke-opacity: 0.2"/>
    </defs>
    <g clip-path="url(#pf0311554cc)">
     <use xlink:href="#m6116ebe69f" x="0" y="288" style="fill: #d62728; fill-opacity: 0.2; stroke: #d62728; stroke-opacity: 0.2"/>
    </g>
   </g>
   <g id="PolyCollection_10">
    <defs>
     <path id="md8b0acf541" d="M 317.726053 -214.747095 
L 317.726053 -148.370145 
L 336.593158 -106.301541 
L 355.460263 -84.373784 
L 374.327368 -81.318284 
L 393.194474 -78.469141 
L 412.061579 -71.963726 
L 430.928684 -67.525026 
L 449.795789 -64.884736 
L 468.662895 -62.301156 
L 487.53 -61.039978 
L 487.53 -73.294275 
L 487.53 -73.294275 
L 468.662895 -76.567986 
L 449.795789 -79.266624 
L 430.928684 -84.033429 
L 412.061579 -89.417036 
L 393.194474 -98.288433 
L 374.327368 -104.330952 
L 355.460263 -116.814178 
L 336.593158 -178.135207 
L 317.726053 -214.747095 
z
" style="stroke: #9467bd; stroke-opacity: 0.2"/>
    </defs>
    <g clip-path="url(#pf0311554cc)">
     <use xlink:href="#md8b0acf541" x="0" y="288" style="fill: #9467bd; fill-opacity: 0.2; stroke: #9467bd; stroke-opacity: 0.2"/>
    </g>
   </g>
   <g id="matplotlib.axis_3">
    <g id="xtick_5">
     <g id="line2d_21">
      <g>
       <use xlink:href="#m0d52683004" x="346.026711" y="238.84" style="stroke: #000000; stroke-width: 0.8"/>
      </g>
     </g>
     <g id="text_19">
      <!-- 5 -->
      <g transform="translate(341.572961 256.477812) scale(0.14 -0.14)">
       <use xlink:href="#DejaVuSans-35"/>
      </g>
     </g>
    </g>
    <g id="xtick_6">
     <g id="line2d_22">
      <g>
       <use xlink:href="#m0d52683004" x="393.194474" y="238.84" style="stroke: #000000; stroke-width: 0.8"/>
      </g>
     </g>
     <g id="text_20">
      <!-- 10 -->
      <g transform="translate(384.286974 256.477812) scale(0.14 -0.14)">
       <use xlink:href="#DejaVuSans-31"/>
       <use xlink:href="#DejaVuSans-30" x="63.623047"/>
      </g>
     </g>
    </g>
    <g id="xtick_7">
     <g id="line2d_23">
      <g>
       <use xlink:href="#m0d52683004" x="440.362237" y="238.84" style="stroke: #000000; stroke-width: 0.8"/>
      </g>
     </g>
     <g id="text_21">
      <!-- 15 -->
      <g transform="translate(431.454737 256.477812) scale(0.14 -0.14)">
       <use xlink:href="#DejaVuSans-31"/>
       <use xlink:href="#DejaVuSans-35" x="63.623047"/>
      </g>
     </g>
    </g>
    <g id="xtick_8">
     <g id="line2d_24">
      <g>
       <use xlink:href="#m0d52683004" x="487.53" y="238.84" style="stroke: #000000; stroke-width: 0.8"/>
      </g>
     </g>
     <g id="text_22">
      <!-- 20 -->
      <g transform="translate(478.6225 256.477812) scale(0.14 -0.14)">
       <use xlink:href="#DejaVuSans-32"/>
       <use xlink:href="#DejaVuSans-30" x="63.623047"/>
      </g>
     </g>
    </g>
    <g id="text_23">
     <!-- num of hf samples (d) -->
     <g transform="translate(320.670625 274.027187) scale(0.14 -0.14)">
      <use xlink:href="#DejaVuSans-6e"/>
      <use xlink:href="#DejaVuSans-75" x="63.378906"/>
      <use xlink:href="#DejaVuSans-6d" x="126.757812"/>
      <use xlink:href="#DejaVuSans-20" x="224.169922"/>
      <use xlink:href="#DejaVuSans-6f" x="255.957031"/>
      <use xlink:href="#DejaVuSans-66" x="317.138672"/>
      <use xlink:href="#DejaVuSans-20" x="352.34375"/>
      <use xlink:href="#DejaVuSans-68" x="384.130859"/>
      <use xlink:href="#DejaVuSans-66" x="447.509766"/>
      <use xlink:href="#DejaVuSans-20" x="482.714844"/>
      <use xlink:href="#DejaVuSans-73" x="514.501953"/>
      <use xlink:href="#DejaVuSans-61" x="566.601562"/>
      <use xlink:href="#DejaVuSans-6d" x="627.880859"/>
      <use xlink:href="#DejaVuSans-70" x="725.292969"/>
      <use xlink:href="#DejaVuSans-6c" x="788.769531"/>
      <use xlink:href="#DejaVuSans-65" x="816.552734"/>
      <use xlink:href="#DejaVuSans-73" x="878.076172"/>
      <use xlink:href="#DejaVuSans-20" x="930.175781"/>
      <use xlink:href="#DejaVuSans-28" x="961.962891"/>
      <use xlink:href="#DejaVuSans-64" x="1000.976562"/>
      <use xlink:href="#DejaVuSans-29" x="1064.453125"/>
     </g>
    </g>
   </g>
   <g id="matplotlib.axis_4">
    <g id="ytick_7">
     <g id="line2d_25">
      <g>
       <use xlink:href="#mb95750702a" x="308.2925" y="232.538355" style="stroke: #000000; stroke-width: 0.8"/>
      </g>
     </g>
     <g id="text_24">
      <!-- 0.0 -->
      <g transform="translate(279.028125 237.857261) scale(0.14 -0.14)">
       <use xlink:href="#DejaVuSans-30"/>
       <use xlink:href="#DejaVuSans-2e" x="63.623047"/>
       <use xlink:href="#DejaVuSans-30" x="95.410156"/>
      </g>
     </g>
    </g>
    <g id="ytick_8">
     <g id="line2d_26">
      <g>
       <use xlink:href="#mb95750702a" x="308.2925" y="178.284363" style="stroke: #000000; stroke-width: 0.8"/>
      </g>
     </g>
     <g id="text_25">
      <!-- 0.2 -->
      <g transform="translate(279.028125 183.603269) scale(0.14 -0.14)">
       <use xlink:href="#DejaVuSans-30"/>
       <use xlink:href="#DejaVuSans-2e" x="63.623047"/>
       <use xlink:href="#DejaVuSans-32" x="95.410156"/>
      </g>
     </g>
    </g>
    <g id="ytick_9">
     <g id="line2d_27">
      <g>
       <use xlink:href="#mb95750702a" x="308.2925" y="124.03037" style="stroke: #000000; stroke-width: 0.8"/>
      </g>
     </g>
     <g id="text_26">
      <!-- 0.4 -->
      <g transform="translate(279.028125 129.349277) scale(0.14 -0.14)">
       <defs>
        <path id="DejaVuSans-34" d="M 2419 4116 
L 825 1625 
L 2419 1625 
L 2419 4116 
z
M 2253 4666 
L 3047 4666 
L 3047 1625 
L 3713 1625 
L 3713 1100 
L 3047 1100 
L 3047 0 
L 2419 0 
L 2419 1100 
L 313 1100 
L 313 1709 
L 2253 4666 
z
" transform="scale(0.015625)"/>
       </defs>
       <use xlink:href="#DejaVuSans-30"/>
       <use xlink:href="#DejaVuSans-2e" x="63.623047"/>
       <use xlink:href="#DejaVuSans-34" x="95.410156"/>
      </g>
     </g>
    </g>
    <g id="ytick_10">
     <g id="line2d_28">
      <g>
       <use xlink:href="#mb95750702a" x="308.2925" y="69.776378" style="stroke: #000000; stroke-width: 0.8"/>
      </g>
     </g>
     <g id="text_27">
      <!-- 0.6 -->
      <g transform="translate(279.028125 75.095284) scale(0.14 -0.14)">
       <defs>
        <path id="DejaVuSans-36" d="M 2113 2584 
Q 1688 2584 1439 2293 
Q 1191 2003 1191 1497 
Q 1191 994 1439 701 
Q 1688 409 2113 409 
Q 2538 409 2786 701 
Q 3034 994 3034 1497 
Q 3034 2003 2786 2293 
Q 2538 2584 2113 2584 
z
M 3366 4563 
L 3366 3988 
Q 3128 4100 2886 4159 
Q 2644 4219 2406 4219 
Q 1781 4219 1451 3797 
Q 1122 3375 1075 2522 
Q 1259 2794 1537 2939 
Q 1816 3084 2150 3084 
Q 2853 3084 3261 2657 
Q 3669 2231 3669 1497 
Q 3669 778 3244 343 
Q 2819 -91 2113 -91 
Q 1303 -91 875 529 
Q 447 1150 447 2328 
Q 447 3434 972 4092 
Q 1497 4750 2381 4750 
Q 2619 4750 2861 4703 
Q 3103 4656 3366 4563 
z
" transform="scale(0.015625)"/>
       </defs>
       <use xlink:href="#DejaVuSans-30"/>
       <use xlink:href="#DejaVuSans-2e" x="63.623047"/>
       <use xlink:href="#DejaVuSans-36" x="95.410156"/>
      </g>
     </g>
    </g>
    <g id="text_28">
     <!-- NRMSE -->
     <g transform="translate(272.116562 158.2275) rotate(-90) scale(0.14 -0.14)">
      <use xlink:href="#DejaVuSans-4e"/>
      <use xlink:href="#DejaVuSans-52" x="74.804688"/>
      <use xlink:href="#DejaVuSans-4d" x="144.287109"/>
      <use xlink:href="#DejaVuSans-53" x="230.566406"/>
      <use xlink:href="#DejaVuSans-45" x="294.042969"/>
     </g>
    </g>
   </g>
   <g id="line2d_29">
    <path d="M 317.726053 68.148469 
L 336.593158 136.767599 
L 355.460263 174.988074 
L 374.327368 188.507511 
L 393.194474 194.78522 
L 412.061579 201.268317 
L 430.928684 206.137147 
L 449.795789 210.239957 
L 468.662895 213.800548 
L 487.53 218.707231 
L 506.397105 219.851635 
L 525.264211 218.698002 
L 544.131316 220.330896 
L 562.998421 221.942844 
L 581.865526 222.578114 
L 600.732632 222.866835 
L 619.599737 222.515392 
L 638.466842 223.401235 
L 657.333947 225.010227 
L 676.201053 225.121811 
" clip-path="url(#pf0311554cc)" style="fill: none; stroke: #1f77b4; stroke-width: 2; stroke-linecap: square"/>
   </g>
   <g id="line2d_30">
    <path d="M 317.726053 106.61507 
L 336.593158 150.233201 
L 355.460263 192.380534 
L 374.327368 199.300388 
L 393.194474 207.113297 
L 412.061579 214.526347 
L 430.928684 220.184283 
L 449.795789 220.505915 
L 468.662895 222.32156 
L 487.53 222.320097 
" clip-path="url(#pf0311554cc)" style="fill: none; stroke: #ff7f0e; stroke-width: 2; stroke-linecap: square"/>
   </g>
   <g id="line2d_31">
    <path d="M 317.726053 113.149857 
L 336.593158 147.462779 
L 355.460263 188.821325 
L 374.327368 197.953622 
L 393.194474 205.572046 
L 412.061579 211.505047 
L 430.928684 215.61725 
L 449.795789 220.351998 
L 468.662895 222.067405 
L 487.53 221.213637 
" clip-path="url(#pf0311554cc)" style="fill: none; stroke: #2ca02c; stroke-width: 2; stroke-linecap: square"/>
   </g>
   <g id="line2d_32">
    <path d="M 317.726053 119.94951 
L 336.593158 163.145087 
L 355.460263 189.612868 
L 374.327368 196.701991 
L 393.194474 202.084304 
L 412.061579 205.860813 
L 430.928684 214.414063 
L 449.795789 217.026607 
L 468.662895 219.106268 
L 487.53 220.860462 
" clip-path="url(#pf0311554cc)" style="fill: none; stroke: #d62728; stroke-width: 2; stroke-linecap: square"/>
   </g>
   <g id="line2d_33">
    <path d="M 317.726053 107.024093 
L 336.593158 151.705204 
L 355.460263 188.133769 
L 374.327368 196.206527 
L 393.194474 200.327346 
L 412.061579 207.579858 
L 430.928684 212.175733 
L 449.795789 216.694676 
L 468.662895 219.202847 
L 487.53 221.169381 
" clip-path="url(#pf0311554cc)" style="fill: none; stroke: #9467bd; stroke-width: 2; stroke-linecap: square"/>
   </g>
   <g id="patch_9">
    <path d="M 308.2925 238.84 
L 308.2925 27.6 
" style="fill: none; stroke: #000000; stroke-width: 0.8; stroke-linejoin: miter; stroke-linecap: square"/>
   </g>
   <g id="patch_10">
    <path d="M 487.53 238.84 
L 487.53 27.6 
" style="fill: none; stroke: #000000; stroke-width: 0.8; stroke-linejoin: miter; stroke-linecap: square"/>
   </g>
   <g id="patch_11">
    <path d="M 308.2925 238.84 
L 487.53 238.84 
" style="fill: none; stroke: #000000; stroke-width: 0.8; stroke-linejoin: miter; stroke-linecap: square"/>
   </g>
   <g id="patch_12">
    <path d="M 308.2925 27.6 
L 487.53 27.6 
" style="fill: none; stroke: #000000; stroke-width: 0.8; stroke-linejoin: miter; stroke-linecap: square"/>
   </g>
   <g id="text_29">
    <!-- (b) -->
    <g transform="translate(388.005156 21.6) scale(0.14 -0.14)">
     <defs>
      <path id="DejaVuSans-62" d="M 3116 1747 
Q 3116 2381 2855 2742 
Q 2594 3103 2138 3103 
Q 1681 3103 1420 2742 
Q 1159 2381 1159 1747 
Q 1159 1113 1420 752 
Q 1681 391 2138 391 
Q 2594 391 2855 752 
Q 3116 1113 3116 1747 
z
M 1159 2969 
Q 1341 3281 1617 3432 
Q 1894 3584 2278 3584 
Q 2916 3584 3314 3078 
Q 3713 2572 3713 1747 
Q 3713 922 3314 415 
Q 2916 -91 2278 -91 
Q 1894 -91 1617 61 
Q 1341 213 1159 525 
L 1159 0 
L 581 0 
L 581 4863 
L 1159 4863 
L 1159 2969 
z
" transform="scale(0.015625)"/>
     </defs>
     <use xlink:href="#DejaVuSans-28"/>
     <use xlink:href="#DejaVuSans-62" x="39.013672"/>
     <use xlink:href="#DejaVuSans-29" x="102.490234"/>
    </g>
   </g>
   <g id="legend_2">
    <g id="patch_13">
     <path d="M 350.497187 108.990625 
L 480.53 108.990625 
Q 482.53 108.990625 482.53 106.990625 
L 482.53 34.6 
Q 482.53 32.6 480.53 32.6 
L 350.497187 32.6 
Q 348.497187 32.6 348.497187 34.6 
L 348.497187 106.990625 
Q 348.497187 108.990625 350.497187 108.990625 
z
" style="fill: #ffffff; opacity: 0.8; stroke: #cccccc; stroke-linejoin: miter"/>
    </g>
    <g id="line2d_34">
     <path d="M 352.497187 40.698438 
L 362.497187 40.698438 
L 372.497187 40.698438 
" style="fill: none; stroke: #1f77b4; stroke-width: 2; stroke-linecap: square"/>
    </g>
    <g id="text_30">
     <!-- Kriging -->
     <g transform="translate(380.497187 44.198438) scale(0.1 -0.1)">
      <use xlink:href="#DejaVuSans-4b"/>
      <use xlink:href="#DejaVuSans-72" x="65.576172"/>
      <use xlink:href="#DejaVuSans-69" x="106.689453"/>
      <use xlink:href="#DejaVuSans-67" x="134.472656"/>
      <use xlink:href="#DejaVuSans-69" x="197.949219"/>
      <use xlink:href="#DejaVuSans-6e" x="225.732422"/>
      <use xlink:href="#DejaVuSans-67" x="289.111328"/>
     </g>
    </g>
    <g id="line2d_35">
     <path d="M 352.497187 55.376563 
L 362.497187 55.376563 
L 372.497187 55.376563 
" style="fill: none; stroke: #ff7f0e; stroke-width: 2; stroke-linecap: square"/>
    </g>
    <g id="text_31">
     <!-- Hierarchical Kriging -->
     <g transform="translate(380.497187 58.876563) scale(0.1 -0.1)">
      <use xlink:href="#DejaVuSans-48"/>
      <use xlink:href="#DejaVuSans-69" x="75.195312"/>
      <use xlink:href="#DejaVuSans-65" x="102.978516"/>
      <use xlink:href="#DejaVuSans-72" x="164.501953"/>
      <use xlink:href="#DejaVuSans-61" x="205.615234"/>
      <use xlink:href="#DejaVuSans-72" x="266.894531"/>
      <use xlink:href="#DejaVuSans-63" x="305.757812"/>
      <use xlink:href="#DejaVuSans-68" x="360.738281"/>
      <use xlink:href="#DejaVuSans-69" x="424.117188"/>
      <use xlink:href="#DejaVuSans-63" x="451.900391"/>
      <use xlink:href="#DejaVuSans-61" x="506.880859"/>
      <use xlink:href="#DejaVuSans-6c" x="568.160156"/>
      <use xlink:href="#DejaVuSans-20" x="595.943359"/>
      <use xlink:href="#DejaVuSans-4b" x="627.730469"/>
      <use xlink:href="#DejaVuSans-72" x="693.306641"/>
      <use xlink:href="#DejaVuSans-69" x="734.419922"/>
      <use xlink:href="#DejaVuSans-67" x="762.203125"/>
      <use xlink:href="#DejaVuSans-69" x="825.679688"/>
      <use xlink:href="#DejaVuSans-6e" x="853.462891"/>
      <use xlink:href="#DejaVuSans-67" x="916.841797"/>
     </g>
    </g>
    <g id="line2d_36">
     <path d="M 352.497187 70.054688 
L 362.497187 70.054688 
L 372.497187 70.054688 
" style="fill: none; stroke: #2ca02c; stroke-width: 2; stroke-linecap: square"/>
    </g>
    <g id="text_32">
     <!-- Co-Kriging -->
     <g transform="translate(380.497187 73.554688) scale(0.1 -0.1)">
      <use xlink:href="#DejaVuSans-43"/>
      <use xlink:href="#DejaVuSans-6f" x="69.824219"/>
      <use xlink:href="#DejaVuSans-2d" x="132.880859"/>
      <use xlink:href="#DejaVuSans-4b" x="168.964844"/>
      <use xlink:href="#DejaVuSans-72" x="234.541016"/>
      <use xlink:href="#DejaVuSans-69" x="275.654297"/>
      <use xlink:href="#DejaVuSans-67" x="303.4375"/>
      <use xlink:href="#DejaVuSans-69" x="366.914062"/>
      <use xlink:href="#DejaVuSans-6e" x="394.697266"/>
      <use xlink:href="#DejaVuSans-67" x="458.076172"/>
     </g>
    </g>
    <g id="line2d_37">
     <path d="M 352.497187 84.732813 
L 362.497187 84.732813 
L 372.497187 84.732813 
" style="fill: none; stroke: #d62728; stroke-width: 2; stroke-linecap: square"/>
    </g>
    <g id="text_33">
     <!-- Scaled Kriging -->
     <g transform="translate(380.497187 88.232813) scale(0.1 -0.1)">
      <use xlink:href="#DejaVuSans-53"/>
      <use xlink:href="#DejaVuSans-63" x="63.476562"/>
      <use xlink:href="#DejaVuSans-61" x="118.457031"/>
      <use xlink:href="#DejaVuSans-6c" x="179.736328"/>
      <use xlink:href="#DejaVuSans-65" x="207.519531"/>
      <use xlink:href="#DejaVuSans-64" x="269.042969"/>
      <use xlink:href="#DejaVuSans-20" x="332.519531"/>
      <use xlink:href="#DejaVuSans-4b" x="364.306641"/>
      <use xlink:href="#DejaVuSans-72" x="429.882812"/>
      <use xlink:href="#DejaVuSans-69" x="470.996094"/>
      <use xlink:href="#DejaVuSans-67" x="498.779297"/>
      <use xlink:href="#DejaVuSans-69" x="562.255859"/>
      <use xlink:href="#DejaVuSans-6e" x="590.039062"/>
      <use xlink:href="#DejaVuSans-67" x="653.417969"/>
     </g>
    </g>
    <g id="line2d_38">
     <path d="M 352.497187 99.410938 
L 362.497187 99.410938 
L 372.497187 99.410938 
" style="fill: none; stroke: #9467bd; stroke-width: 2; stroke-linecap: square"/>
    </g>
    <g id="text_34">
     <!-- MF-RBF-Kriging -->
     <g transform="translate(380.497187 102.910938) scale(0.1 -0.1)">
      <use xlink:href="#DejaVuSans-4d"/>
      <use xlink:href="#DejaVuSans-46" x="86.279297"/>
      <use xlink:href="#DejaVuSans-2d" x="143.798828"/>
      <use xlink:href="#DejaVuSans-52" x="179.882812"/>
      <use xlink:href="#DejaVuSans-42" x="249.365234"/>
      <use xlink:href="#DejaVuSans-46" x="317.96875"/>
      <use xlink:href="#DejaVuSans-2d" x="375.488281"/>
      <use xlink:href="#DejaVuSans-4b" x="411.572266"/>
      <use xlink:href="#DejaVuSans-72" x="477.148438"/>
      <use xlink:href="#DejaVuSans-69" x="518.261719"/>
      <use xlink:href="#DejaVuSans-67" x="546.044922"/>
      <use xlink:href="#DejaVuSans-69" x="609.521484"/>
      <use xlink:href="#DejaVuSans-6e" x="637.304688"/>
      <use xlink:href="#DejaVuSans-67" x="700.683594"/>
     </g>
    </g>
   </g>
  </g>
  <g id="axes_3">
   <g id="patch_14">
    <path d="M 558.695 238.84 
L 737.9325 238.84 
L 737.9325 27.6 
L 558.695 27.6 
z
" style="fill: #ffffff"/>
   </g>
   <g id="PolyCollection_11">
    <defs>
     <path id="m88af1b7a45" d="M 568.128553 -122.529028 
L 568.128553 -58.761818 
L 586.995658 -146.465505 
L 605.862763 -189.251146 
L 624.729868 -214.005403 
L 643.596974 -218.605318 
L 662.464079 -226.867501 
L 681.331184 -235.998392 
L 700.198289 -232.730082 
L 719.065395 -243.59652 
L 737.9325 -245.122417 
L 756.799605 -244.014347 
L 775.666711 -237.820075 
L 794.533816 -241.350218 
L 813.400921 -244.14183 
L 832.268026 -245.352468 
L 851.135132 -244.46606 
L 870.002237 -242.747522 
L 888.869342 -244.839402 
L 907.736447 -247.677267 
L 926.603553 -247.625924 
L 926.603553 -250.798182 
L 926.603553 -250.798182 
L 907.736447 -250.719959 
L 888.869342 -250.541596 
L 870.002237 -250.520885 
L 851.135132 -250.625315 
L 832.268026 -250.503299 
L 813.400921 -250.312301 
L 794.533816 -250.342234 
L 775.666711 -249.819581 
L 756.799605 -250.053371 
L 737.9325 -249.967853 
L 719.065395 -249.32394 
L 700.198289 -248.35449 
L 681.331184 -246.331124 
L 662.464079 -244.664369 
L 643.596974 -239.74243 
L 624.729868 -233.43849 
L 605.862763 -224.29877 
L 586.995658 -195.277607 
L 568.128553 -122.529028 
z
" style="stroke: #1f77b4; stroke-opacity: 0.2"/>
    </defs>
    <g clip-path="url(#p8945957877)">
     <use xlink:href="#m88af1b7a45" x="0" y="288" style="fill: #1f77b4; fill-opacity: 0.2; stroke: #1f77b4; stroke-opacity: 0.2"/>
    </g>
   </g>
   <g id="PolyCollection_12">
    <defs>
     <path id="m95beac2b2c" d="M 568.128553 -177.347543 
L 568.128553 -97.190085 
L 586.995658 -135.452761 
L 605.862763 -221.004414 
L 624.729868 -230.172803 
L 643.596974 -237.617372 
L 662.464079 -243.042233 
L 681.331184 -245.582526 
L 700.198289 -245.498348 
L 719.065395 -246.834254 
L 737.9325 -246.085114 
L 737.9325 -250.34695 
L 737.9325 -250.34695 
L 719.065395 -250.245279 
L 700.198289 -249.967887 
L 681.331184 -250.089379 
L 662.464079 -248.816318 
L 643.596974 -245.907221 
L 624.729868 -243.125332 
L 605.862763 -240.075222 
L 586.995658 -218.829887 
L 568.128553 -177.347543 
z
" style="stroke: #ff7f0e; stroke-opacity: 0.2"/>
    </defs>
    <g clip-path="url(#p8945957877)">
     <use xlink:href="#m95beac2b2c" x="0" y="288" style="fill: #ff7f0e; fill-opacity: 0.2; stroke: #ff7f0e; stroke-opacity: 0.2"/>
    </g>
   </g>
   <g id="PolyCollection_13">
    <defs>
     <path id="mbdc1c5ddd4" d="M 568.128553 -185.536221 
L 568.128553 -120.916801 
L 586.995658 -180.937713 
L 605.862763 -210.697966 
L 624.729868 -227.044493 
L 643.596974 -237.588912 
L 662.464079 -240.631643 
L 681.331184 -237.435416 
L 700.198289 -245.87856 
L 719.065395 -247.168013 
L 737.9325 -246.645445 
L 737.9325 -250.093035 
L 737.9325 -250.093035 
L 719.065395 -250.33373 
L 700.198289 -249.91384 
L 681.331184 -249.371152 
L 662.464079 -247.489274 
L 643.596974 -245.813379 
L 624.729868 -242.321715 
L 605.862763 -238.2972 
L 586.995658 -216.509409 
L 568.128553 -185.536221 
z
" style="stroke: #2ca02c; stroke-opacity: 0.2"/>
    </defs>
    <g clip-path="url(#p8945957877)">
     <use xlink:href="#mbdc1c5ddd4" x="0" y="288" style="fill: #2ca02c; fill-opacity: 0.2; stroke: #2ca02c; stroke-opacity: 0.2"/>
    </g>
   </g>
   <g id="PolyCollection_14">
    <defs>
     <path id="m3fcfc2b169" d="M 568.128553 -193.432851 
L 568.128553 -145.551759 
L 586.995658 -189.846077 
L 605.862763 -215.562331 
L 624.729868 -227.772956 
L 643.596974 -236.051413 
L 662.464079 -237.105804 
L 681.331184 -243.973756 
L 700.198289 -243.175941 
L 719.065395 -245.598197 
L 737.9325 -245.714137 
L 737.9325 -250.358511 
L 737.9325 -250.358511 
L 719.065395 -250.125176 
L 700.198289 -249.431569 
L 681.331184 -249.059387 
L 662.464079 -245.992418 
L 643.596974 -244.979175 
L 624.729868 -242.335192 
L 605.862763 -238.281916 
L 586.995658 -224.295525 
L 568.128553 -193.432851 
z
" style="stroke: #d62728; stroke-opacity: 0.2"/>
    </defs>
    <g clip-path="url(#p8945957877)">
     <use xlink:href="#m3fcfc2b169" x="0" y="288" style="fill: #d62728; fill-opacity: 0.2; stroke: #d62728; stroke-opacity: 0.2"/>
    </g>
   </g>
   <g id="PolyCollection_15">
    <defs>
     <path id="m3aeb28a4dd" d="M 568.128553 -175.567935 
L 568.128553 -100.048518 
L 586.995658 -130.197331 
L 605.862763 -209.076054 
L 624.729868 -223.086206 
L 643.596974 -232.396497 
L 662.464079 -238.896464 
L 681.331184 -239.280435 
L 700.198289 -243.584774 
L 719.065395 -241.417076 
L 737.9325 -244.694193 
L 737.9325 -250.264007 
L 737.9325 -250.264007 
L 719.065395 -250.27227 
L 700.198289 -249.370595 
L 681.331184 -248.730367 
L 662.464079 -246.196272 
L 643.596974 -243.404479 
L 624.729868 -240.244684 
L 605.862763 -237.313519 
L 586.995658 -220.592805 
L 568.128553 -175.567935 
z
" style="stroke: #9467bd; stroke-opacity: 0.2"/>
    </defs>
    <g clip-path="url(#p8945957877)">
     <use xlink:href="#m3aeb28a4dd" x="0" y="288" style="fill: #9467bd; fill-opacity: 0.2; stroke: #9467bd; stroke-opacity: 0.2"/>
    </g>
   </g>
   <g id="matplotlib.axis_5">
    <g id="xtick_9">
     <g id="line2d_39">
      <g>
       <use xlink:href="#m0d52683004" x="596.429211" y="238.84" style="stroke: #000000; stroke-width: 0.8"/>
      </g>
     </g>
     <g id="text_35">
      <!-- 5 -->
      <g transform="translate(591.975461 256.477812) scale(0.14 -0.14)">
       <use xlink:href="#DejaVuSans-35"/>
      </g>
     </g>
    </g>
    <g id="xtick_10">
     <g id="line2d_40">
      <g>
       <use xlink:href="#m0d52683004" x="643.596974" y="238.84" style="stroke: #000000; stroke-width: 0.8"/>
      </g>
     </g>
     <g id="text_36">
      <!-- 10 -->
      <g transform="translate(634.689474 256.477812) scale(0.14 -0.14)">
       <use xlink:href="#DejaVuSans-31"/>
       <use xlink:href="#DejaVuSans-30" x="63.623047"/>
      </g>
     </g>
    </g>
    <g id="xtick_11">
     <g id="line2d_41">
      <g>
       <use xlink:href="#m0d52683004" x="690.764737" y="238.84" style="stroke: #000000; stroke-width: 0.8"/>
      </g>
     </g>
     <g id="text_37">
      <!-- 15 -->
      <g transform="translate(681.857237 256.477812) scale(0.14 -0.14)">
       <use xlink:href="#DejaVuSans-31"/>
       <use xlink:href="#DejaVuSans-35" x="63.623047"/>
      </g>
     </g>
    </g>
    <g id="xtick_12">
     <g id="line2d_42">
      <g>
       <use xlink:href="#m0d52683004" x="737.9325" y="238.84" style="stroke: #000000; stroke-width: 0.8"/>
      </g>
     </g>
     <g id="text_38">
      <!-- 20 -->
      <g transform="translate(729.025 256.477812) scale(0.14 -0.14)">
       <use xlink:href="#DejaVuSans-32"/>
       <use xlink:href="#DejaVuSans-30" x="63.623047"/>
      </g>
     </g>
    </g>
    <g id="text_39">
     <!-- num of hf samples (d) -->
     <g transform="translate(571.073125 274.027187) scale(0.14 -0.14)">
      <use xlink:href="#DejaVuSans-6e"/>
      <use xlink:href="#DejaVuSans-75" x="63.378906"/>
      <use xlink:href="#DejaVuSans-6d" x="126.757812"/>
      <use xlink:href="#DejaVuSans-20" x="224.169922"/>
      <use xlink:href="#DejaVuSans-6f" x="255.957031"/>
      <use xlink:href="#DejaVuSans-66" x="317.138672"/>
      <use xlink:href="#DejaVuSans-20" x="352.34375"/>
      <use xlink:href="#DejaVuSans-68" x="384.130859"/>
      <use xlink:href="#DejaVuSans-66" x="447.509766"/>
      <use xlink:href="#DejaVuSans-20" x="482.714844"/>
      <use xlink:href="#DejaVuSans-73" x="514.501953"/>
      <use xlink:href="#DejaVuSans-61" x="566.601562"/>
      <use xlink:href="#DejaVuSans-6d" x="627.880859"/>
      <use xlink:href="#DejaVuSans-70" x="725.292969"/>
      <use xlink:href="#DejaVuSans-6c" x="788.769531"/>
      <use xlink:href="#DejaVuSans-65" x="816.552734"/>
      <use xlink:href="#DejaVuSans-73" x="878.076172"/>
      <use xlink:href="#DejaVuSans-20" x="930.175781"/>
      <use xlink:href="#DejaVuSans-28" x="961.962891"/>
      <use xlink:href="#DejaVuSans-64" x="1000.976562"/>
      <use xlink:href="#DejaVuSans-29" x="1064.453125"/>
     </g>
    </g>
   </g>
   <g id="matplotlib.axis_6">
    <g id="ytick_11">
     <g id="line2d_43">
      <g>
       <use xlink:href="#mb95750702a" x="558.695" y="229.435998" style="stroke: #000000; stroke-width: 0.8"/>
      </g>
     </g>
     <g id="text_40">
      <!-- 0.2 -->
      <g transform="translate(529.430625 234.754904) scale(0.14 -0.14)">
       <use xlink:href="#DejaVuSans-30"/>
       <use xlink:href="#DejaVuSans-2e" x="63.623047"/>
       <use xlink:href="#DejaVuSans-32" x="95.410156"/>
      </g>
     </g>
    </g>
    <g id="ytick_12">
     <g id="line2d_44">
      <g>
       <use xlink:href="#mb95750702a" x="558.695" y="181.275733" style="stroke: #000000; stroke-width: 0.8"/>
      </g>
     </g>
     <g id="text_41">
      <!-- 0.4 -->
      <g transform="translate(529.430625 186.594639) scale(0.14 -0.14)">
       <use xlink:href="#DejaVuSans-30"/>
       <use xlink:href="#DejaVuSans-2e" x="63.623047"/>
       <use xlink:href="#DejaVuSans-34" x="95.410156"/>
      </g>
     </g>
    </g>
    <g id="ytick_13">
     <g id="line2d_45">
      <g>
       <use xlink:href="#mb95750702a" x="558.695" y="133.115467" style="stroke: #000000; stroke-width: 0.8"/>
      </g>
     </g>
     <g id="text_42">
      <!-- 0.6 -->
      <g transform="translate(529.430625 138.434374) scale(0.14 -0.14)">
       <use xlink:href="#DejaVuSans-30"/>
       <use xlink:href="#DejaVuSans-2e" x="63.623047"/>
       <use xlink:href="#DejaVuSans-36" x="95.410156"/>
      </g>
     </g>
    </g>
    <g id="ytick_14">
     <g id="line2d_46">
      <g>
       <use xlink:href="#mb95750702a" x="558.695" y="84.955202" style="stroke: #000000; stroke-width: 0.8"/>
      </g>
     </g>
     <g id="text_43">
      <!-- 0.8 -->
      <g transform="translate(529.430625 90.274108) scale(0.14 -0.14)">
       <defs>
        <path id="DejaVuSans-38" d="M 2034 2216 
Q 1584 2216 1326 1975 
Q 1069 1734 1069 1313 
Q 1069 891 1326 650 
Q 1584 409 2034 409 
Q 2484 409 2743 651 
Q 3003 894 3003 1313 
Q 3003 1734 2745 1975 
Q 2488 2216 2034 2216 
z
M 1403 2484 
Q 997 2584 770 2862 
Q 544 3141 544 3541 
Q 544 4100 942 4425 
Q 1341 4750 2034 4750 
Q 2731 4750 3128 4425 
Q 3525 4100 3525 3541 
Q 3525 3141 3298 2862 
Q 3072 2584 2669 2484 
Q 3125 2378 3379 2068 
Q 3634 1759 3634 1313 
Q 3634 634 3220 271 
Q 2806 -91 2034 -91 
Q 1263 -91 848 271 
Q 434 634 434 1313 
Q 434 1759 690 2068 
Q 947 2378 1403 2484 
z
M 1172 3481 
Q 1172 3119 1398 2916 
Q 1625 2713 2034 2713 
Q 2441 2713 2670 2916 
Q 2900 3119 2900 3481 
Q 2900 3844 2670 4047 
Q 2441 4250 2034 4250 
Q 1625 4250 1398 4047 
Q 1172 3844 1172 3481 
z
" transform="scale(0.015625)"/>
       </defs>
       <use xlink:href="#DejaVuSans-30"/>
       <use xlink:href="#DejaVuSans-2e" x="63.623047"/>
       <use xlink:href="#DejaVuSans-38" x="95.410156"/>
      </g>
     </g>
    </g>
    <g id="ytick_15">
     <g id="line2d_47">
      <g>
       <use xlink:href="#mb95750702a" x="558.695" y="36.794937" style="stroke: #000000; stroke-width: 0.8"/>
      </g>
     </g>
     <g id="text_44">
      <!-- 1.0 -->
      <g transform="translate(529.430625 42.113843) scale(0.14 -0.14)">
       <use xlink:href="#DejaVuSans-31"/>
       <use xlink:href="#DejaVuSans-2e" x="63.623047"/>
       <use xlink:href="#DejaVuSans-30" x="95.410156"/>
      </g>
     </g>
    </g>
    <g id="text_45">
     <!-- R2 Score -->
     <g transform="translate(522.519062 164.365625) rotate(-90) scale(0.14 -0.14)">
      <use xlink:href="#DejaVuSans-52"/>
      <use xlink:href="#DejaVuSans-32" x="69.482422"/>
      <use xlink:href="#DejaVuSans-20" x="133.105469"/>
      <use xlink:href="#DejaVuSans-53" x="164.892578"/>
      <use xlink:href="#DejaVuSans-63" x="228.369141"/>
      <use xlink:href="#DejaVuSans-6f" x="283.349609"/>
      <use xlink:href="#DejaVuSans-72" x="344.53125"/>
      <use xlink:href="#DejaVuSans-65" x="383.394531"/>
     </g>
    </g>
   </g>
   <g id="line2d_48">
    <path d="M 568.128553 194.416645 
L 586.995658 115.858892 
L 605.862763 80.924598 
L 624.729868 63.763786 
L 643.596974 57.953218 
L 662.464079 50.252436 
L 681.331184 46.284415 
L 700.198289 45.975197 
L 719.065395 41.489337 
L 737.9325 40.229139 
L 756.799605 40.622457 
L 775.666711 43.164769 
L 794.533816 41.221992 
L 813.400921 40.336743 
L 832.268026 39.701879 
L 851.135132 39.937313 
L 870.002237 40.770938 
L 888.869342 39.875067 
L 907.736447 38.636513 
L 926.603553 38.654678 
" clip-path="url(#p8945957877)" style="fill: none; stroke: #1f77b4; stroke-width: 2; stroke-linecap: square"/>
   </g>
   <g id="line2d_49">
    <path d="M 568.128553 147.91846 
L 586.995658 101.813519 
L 605.862763 56.730048 
L 624.729868 50.949722 
L 643.596974 45.988371 
L 662.464079 42.089564 
L 681.331184 40.035736 
L 700.198289 39.985338 
L 719.065395 39.276244 
L 737.9325 39.529301 
" clip-path="url(#p8945957877)" style="fill: none; stroke: #ff7f0e; stroke-width: 2; stroke-linecap: square"/>
   </g>
   <g id="line2d_50">
    <path d="M 568.128553 134.544444 
L 586.995658 89.930907 
L 605.862763 62.170567 
L 624.729868 52.925282 
L 643.596974 46.315073 
L 662.464079 43.741005 
L 681.331184 43.343575 
L 700.198289 39.81545 
L 719.065395 39.163178 
L 737.9325 39.497186 
" clip-path="url(#p8945957877)" style="fill: none; stroke: #2ca02c; stroke-width: 2; stroke-linecap: square"/>
   </g>
   <g id="line2d_51">
    <path d="M 568.128553 117.30741 
L 586.995658 80.473692 
L 605.862763 60.626925 
L 624.729868 52.725458 
L 643.596974 47.319617 
L 662.464079 46.015046 
L 681.331184 41.296833 
L 700.198289 41.347019 
L 719.065395 39.884265 
L 737.9325 39.662743 
" clip-path="url(#p8945957877)" style="fill: none; stroke: #d62728; stroke-width: 2; stroke-linecap: square"/>
   </g>
   <g id="line2d_52">
    <path d="M 568.128553 145.978372 
L 586.995658 102.541317 
L 605.862763 63.85625 
L 624.729868 55.487946 
L 643.596974 49.594152 
L 662.464079 45.145476 
L 681.331184 43.638088 
L 700.198289 41.044548 
L 719.065395 41.357637 
L 737.9325 40.243492 
" clip-path="url(#p8945957877)" style="fill: none; stroke: #9467bd; stroke-width: 2; stroke-linecap: square"/>
   </g>
   <g id="patch_15">
    <path d="M 558.695 238.84 
L 558.695 27.6 
" style="fill: none; stroke: #000000; stroke-width: 0.8; stroke-linejoin: miter; stroke-linecap: square"/>
   </g>
   <g id="patch_16">
    <path d="M 737.9325 238.84 
L 737.9325 27.6 
" style="fill: none; stroke: #000000; stroke-width: 0.8; stroke-linejoin: miter; stroke-linecap: square"/>
   </g>
   <g id="patch_17">
    <path d="M 558.695 238.84 
L 737.9325 238.84 
" style="fill: none; stroke: #000000; stroke-width: 0.8; stroke-linejoin: miter; stroke-linecap: square"/>
   </g>
   <g id="patch_18">
    <path d="M 558.695 27.6 
L 737.9325 27.6 
" style="fill: none; stroke: #000000; stroke-width: 0.8; stroke-linejoin: miter; stroke-linecap: square"/>
   </g>
   <g id="text_46">
    <!-- (c) -->
    <g transform="translate(639.002656 21.6) scale(0.14 -0.14)">
     <use xlink:href="#DejaVuSans-28"/>
     <use xlink:href="#DejaVuSans-63" x="39.013672"/>
     <use xlink:href="#DejaVuSans-29" x="93.994141"/>
    </g>
   </g>
   <g id="legend_3">
    <g id="patch_19">
     <path d="M 600.899687 233.84 
L 730.9325 233.84 
Q 732.9325 233.84 732.9325 231.84 
L 732.9325 159.449375 
Q 732.9325 157.449375 730.9325 157.449375 
L 600.899687 157.449375 
Q 598.899687 157.449375 598.899687 159.449375 
L 598.899687 231.84 
Q 598.899687 233.84 600.899687 233.84 
z
" style="fill: #ffffff; opacity: 0.8; stroke: #cccccc; stroke-linejoin: miter"/>
    </g>
    <g id="line2d_53">
     <path d="M 602.899687 165.547812 
L 612.899687 165.547812 
L 622.899687 165.547812 
" style="fill: none; stroke: #1f77b4; stroke-width: 2; stroke-linecap: square"/>
    </g>
    <g id="text_47">
     <!-- Kriging -->
     <g transform="translate(630.899687 169.047812) scale(0.1 -0.1)">
      <use xlink:href="#DejaVuSans-4b"/>
      <use xlink:href="#DejaVuSans-72" x="65.576172"/>
      <use xlink:href="#DejaVuSans-69" x="106.689453"/>
      <use xlink:href="#DejaVuSans-67" x="134.472656"/>
      <use xlink:href="#DejaVuSans-69" x="197.949219"/>
      <use xlink:href="#DejaVuSans-6e" x="225.732422"/>
      <use xlink:href="#DejaVuSans-67" x="289.111328"/>
     </g>
    </g>
    <g id="line2d_54">
     <path d="M 602.899687 180.225937 
L 612.899687 180.225937 
L 622.899687 180.225937 
" style="fill: none; stroke: #ff7f0e; stroke-width: 2; stroke-linecap: square"/>
    </g>
    <g id="text_48">
     <!-- Hierarchical Kriging -->
     <g transform="translate(630.899687 183.725937) scale(0.1 -0.1)">
      <use xlink:href="#DejaVuSans-48"/>
      <use xlink:href="#DejaVuSans-69" x="75.195312"/>
      <use xlink:href="#DejaVuSans-65" x="102.978516"/>
      <use xlink:href="#DejaVuSans-72" x="164.501953"/>
      <use xlink:href="#DejaVuSans-61" x="205.615234"/>
      <use xlink:href="#DejaVuSans-72" x="266.894531"/>
      <use xlink:href="#DejaVuSans-63" x="305.757812"/>
      <use xlink:href="#DejaVuSans-68" x="360.738281"/>
      <use xlink:href="#DejaVuSans-69" x="424.117188"/>
      <use xlink:href="#DejaVuSans-63" x="451.900391"/>
      <use xlink:href="#DejaVuSans-61" x="506.880859"/>
      <use xlink:href="#DejaVuSans-6c" x="568.160156"/>
      <use xlink:href="#DejaVuSans-20" x="595.943359"/>
      <use xlink:href="#DejaVuSans-4b" x="627.730469"/>
      <use xlink:href="#DejaVuSans-72" x="693.306641"/>
      <use xlink:href="#DejaVuSans-69" x="734.419922"/>
      <use xlink:href="#DejaVuSans-67" x="762.203125"/>
      <use xlink:href="#DejaVuSans-69" x="825.679688"/>
      <use xlink:href="#DejaVuSans-6e" x="853.462891"/>
      <use xlink:href="#DejaVuSans-67" x="916.841797"/>
     </g>
    </g>
    <g id="line2d_55">
     <path d="M 602.899687 194.904063 
L 612.899687 194.904063 
L 622.899687 194.904063 
" style="fill: none; stroke: #2ca02c; stroke-width: 2; stroke-linecap: square"/>
    </g>
    <g id="text_49">
     <!-- Co-Kriging -->
     <g transform="translate(630.899687 198.404063) scale(0.1 -0.1)">
      <use xlink:href="#DejaVuSans-43"/>
      <use xlink:href="#DejaVuSans-6f" x="69.824219"/>
      <use xlink:href="#DejaVuSans-2d" x="132.880859"/>
      <use xlink:href="#DejaVuSans-4b" x="168.964844"/>
      <use xlink:href="#DejaVuSans-72" x="234.541016"/>
      <use xlink:href="#DejaVuSans-69" x="275.654297"/>
      <use xlink:href="#DejaVuSans-67" x="303.4375"/>
      <use xlink:href="#DejaVuSans-69" x="366.914062"/>
      <use xlink:href="#DejaVuSans-6e" x="394.697266"/>
      <use xlink:href="#DejaVuSans-67" x="458.076172"/>
     </g>
    </g>
    <g id="line2d_56">
     <path d="M 602.899687 209.582188 
L 612.899687 209.582188 
L 622.899687 209.582188 
" style="fill: none; stroke: #d62728; stroke-width: 2; stroke-linecap: square"/>
    </g>
    <g id="text_50">
     <!-- Scaled Kriging -->
     <g transform="translate(630.899687 213.082188) scale(0.1 -0.1)">
      <use xlink:href="#DejaVuSans-53"/>
      <use xlink:href="#DejaVuSans-63" x="63.476562"/>
      <use xlink:href="#DejaVuSans-61" x="118.457031"/>
      <use xlink:href="#DejaVuSans-6c" x="179.736328"/>
      <use xlink:href="#DejaVuSans-65" x="207.519531"/>
      <use xlink:href="#DejaVuSans-64" x="269.042969"/>
      <use xlink:href="#DejaVuSans-20" x="332.519531"/>
      <use xlink:href="#DejaVuSans-4b" x="364.306641"/>
      <use xlink:href="#DejaVuSans-72" x="429.882812"/>
      <use xlink:href="#DejaVuSans-69" x="470.996094"/>
      <use xlink:href="#DejaVuSans-67" x="498.779297"/>
      <use xlink:href="#DejaVuSans-69" x="562.255859"/>
      <use xlink:href="#DejaVuSans-6e" x="590.039062"/>
      <use xlink:href="#DejaVuSans-67" x="653.417969"/>
     </g>
    </g>
    <g id="line2d_57">
     <path d="M 602.899687 224.260312 
L 612.899687 224.260312 
L 622.899687 224.260312 
" style="fill: none; stroke: #9467bd; stroke-width: 2; stroke-linecap: square"/>
    </g>
    <g id="text_51">
     <!-- MF-RBF-Kriging -->
     <g transform="translate(630.899687 227.760312) scale(0.1 -0.1)">
      <use xlink:href="#DejaVuSans-4d"/>
      <use xlink:href="#DejaVuSans-46" x="86.279297"/>
      <use xlink:href="#DejaVuSans-2d" x="143.798828"/>
      <use xlink:href="#DejaVuSans-52" x="179.882812"/>
      <use xlink:href="#DejaVuSans-42" x="249.365234"/>
      <use xlink:href="#DejaVuSans-46" x="317.96875"/>
      <use xlink:href="#DejaVuSans-2d" x="375.488281"/>
      <use xlink:href="#DejaVuSans-4b" x="411.572266"/>
      <use xlink:href="#DejaVuSans-72" x="477.148438"/>
      <use xlink:href="#DejaVuSans-69" x="518.261719"/>
      <use xlink:href="#DejaVuSans-67" x="546.044922"/>
      <use xlink:href="#DejaVuSans-69" x="609.521484"/>
      <use xlink:href="#DejaVuSans-6e" x="637.304688"/>
      <use xlink:href="#DejaVuSans-67" x="700.683594"/>
     </g>
    </g>
   </g>
  </g>
  <g id="axes_4">
   <g id="patch_20">
    <path d="M 809.0975 238.84 
L 988.335 238.84 
L 988.335 27.6 
L 809.0975 27.6 
z
" style="fill: #ffffff"/>
   </g>
   <g id="PolyCollection_16">
    <defs>
     <path id="m6b7cae12ed" d="M 818.531053 -51.360839 
L 818.531053 -51.07339 
L 837.398158 -51.365034 
L 856.265263 -51.825283 
L 875.132368 -52.301635 
L 893.999474 -52.796383 
L 912.866579 -53.139462 
L 931.733684 -53.561009 
L 950.600789 -54.076724 
L 969.467895 -54.774498 
L 988.335 -55.422862 
L 1007.202105 -55.869652 
L 1026.069211 -56.666874 
L 1044.936316 -57.347795 
L 1063.803421 -57.670706 
L 1082.670526 -58.549917 
L 1101.537632 -59.124972 
L 1120.404737 -60.009919 
L 1139.271842 -61.05591 
L 1158.138947 -61.983304 
L 1177.006053 -62.386944 
L 1177.006053 -69.274304 
L 1177.006053 -69.274304 
L 1158.138947 -69.889393 
L 1139.271842 -68.353073 
L 1120.404737 -65.721946 
L 1101.537632 -64.514196 
L 1082.670526 -63.452586 
L 1063.803421 -62.005518 
L 1044.936316 -61.564377 
L 1026.069211 -60.420705 
L 1007.202105 -58.739548 
L 988.335 -57.97876 
L 969.467895 -57.320878 
L 950.600789 -56.217957 
L 931.733684 -55.089608 
L 912.866579 -54.626456 
L 893.999474 -53.990527 
L 875.132368 -53.163102 
L 856.265263 -52.468728 
L 837.398158 -51.834704 
L 818.531053 -51.360839 
z
" style="stroke: #1f77b4; stroke-opacity: 0.2"/>
    </defs>
    <g clip-path="url(#pb4d9f3f7d2)">
     <use xlink:href="#m6b7cae12ed" x="0" y="288" style="fill: #1f77b4; fill-opacity: 0.2; stroke: #1f77b4; stroke-opacity: 0.2"/>
    </g>
   </g>
   <g id="PolyCollection_17">
    <defs>
     <path id="m13e5c1f7a2" d="M 818.531053 -132.910563 
L 818.531053 -91.985088 
L 837.398158 -92.742974 
L 856.265263 -92.831112 
L 875.132368 -93.418798 
L 893.999474 -93.66597 
L 912.866579 -95.73638 
L 931.733684 -93.41401 
L 950.600789 -96.332685 
L 969.467895 -97.726375 
L 988.335 -97.655248 
L 988.335 -142.716834 
L 988.335 -142.716834 
L 969.467895 -145.028007 
L 950.600789 -141.115296 
L 931.733684 -136.634782 
L 912.866579 -140.130762 
L 893.999474 -137.163523 
L 875.132368 -133.016353 
L 856.265263 -136.672359 
L 837.398158 -140.043425 
L 818.531053 -132.910563 
z
" style="stroke: #ff7f0e; stroke-opacity: 0.2"/>
    </defs>
    <g clip-path="url(#pb4d9f3f7d2)">
     <use xlink:href="#m13e5c1f7a2" x="0" y="288" style="fill: #ff7f0e; fill-opacity: 0.2; stroke: #ff7f0e; stroke-opacity: 0.2"/>
    </g>
   </g>
   <g id="PolyCollection_18">
    <defs>
     <path id="m09d1f84f83" d="M 818.531053 -151.251934 
L 818.531053 -101.949945 
L 837.398158 -102.74933 
L 856.265263 -106.032128 
L 875.132368 -104.229863 
L 893.999474 -104.871258 
L 912.866579 -110.7148 
L 931.733684 -112.571898 
L 950.600789 -111.397654 
L 969.467895 -113.377173 
L 988.335 -114.504864 
L 988.335 -176.77391 
L 988.335 -176.77391 
L 969.467895 -170.518914 
L 950.600789 -161.229068 
L 931.733684 -163.644808 
L 912.866579 -166.907202 
L 893.999474 -153.606302 
L 875.132368 -148.606132 
L 856.265263 -154.07856 
L 837.398158 -150.897171 
L 818.531053 -151.251934 
z
" style="stroke: #2ca02c; stroke-opacity: 0.2"/>
    </defs>
    <g clip-path="url(#pb4d9f3f7d2)">
     <use xlink:href="#m09d1f84f83" x="0" y="288" style="fill: #2ca02c; fill-opacity: 0.2; stroke: #2ca02c; stroke-opacity: 0.2"/>
    </g>
   </g>
   <g id="PolyCollection_19">
    <defs>
     <path id="m4048028f6d" d="M 818.531053 -130.684608 
L 818.531053 -92.01542 
L 837.398158 -91.966695 
L 856.265263 -94.435725 
L 875.132368 -93.506987 
L 893.999474 -93.099124 
L 912.866579 -96.406391 
L 931.733684 -92.830509 
L 950.600789 -94.08605 
L 969.467895 -95.466844 
L 988.335 -96.766424 
L 988.335 -141.606192 
L 988.335 -141.606192 
L 969.467895 -142.678952 
L 950.600789 -141.000477 
L 931.733684 -135.347722 
L 912.866579 -136.867746 
L 893.999474 -138.539164 
L 875.132368 -133.538452 
L 856.265263 -136.256751 
L 837.398158 -138.741642 
L 818.531053 -130.684608 
z
" style="stroke: #d62728; stroke-opacity: 0.2"/>
    </defs>
    <g clip-path="url(#pb4d9f3f7d2)">
     <use xlink:href="#m4048028f6d" x="0" y="288" style="fill: #d62728; fill-opacity: 0.2; stroke: #d62728; stroke-opacity: 0.2"/>
    </g>
   </g>
   <g id="PolyCollection_20">
    <defs>
     <path id="m91538ab4b1" d="M 818.531053 -58.282362 
L 818.531053 -54.048183 
L 837.398158 -53.782241 
L 856.265263 -54.029256 
L 875.132368 -54.266864 
L 893.999474 -54.684802 
L 912.866579 -54.826011 
L 931.733684 -55.498178 
L 950.600789 -55.779979 
L 969.467895 -56.032126 
L 988.335 -56.489351 
L 988.335 -61.825167 
L 988.335 -61.825167 
L 969.467895 -60.699744 
L 950.600789 -60.869716 
L 931.733684 -60.350631 
L 912.866579 -59.313781 
L 893.999474 -58.718644 
L 875.132368 -57.797562 
L 856.265263 -57.446781 
L 837.398158 -57.178291 
L 818.531053 -58.282362 
z
" style="stroke: #9467bd; stroke-opacity: 0.2"/>
    </defs>
    <g clip-path="url(#pb4d9f3f7d2)">
     <use xlink:href="#m91538ab4b1" x="0" y="288" style="fill: #9467bd; fill-opacity: 0.2; stroke: #9467bd; stroke-opacity: 0.2"/>
    </g>
   </g>
   <g id="matplotlib.axis_7">
    <g id="xtick_13">
     <g id="line2d_58">
      <g>
       <use xlink:href="#m0d52683004" x="846.831711" y="238.84" style="stroke: #000000; stroke-width: 0.8"/>
      </g>
     </g>
     <g id="text_52">
      <!-- 5 -->
      <g transform="translate(842.377961 256.477812) scale(0.14 -0.14)">
       <use xlink:href="#DejaVuSans-35"/>
      </g>
     </g>
    </g>
    <g id="xtick_14">
     <g id="line2d_59">
      <g>
       <use xlink:href="#m0d52683004" x="893.999474" y="238.84" style="stroke: #000000; stroke-width: 0.8"/>
      </g>
     </g>
     <g id="text_53">
      <!-- 10 -->
      <g transform="translate(885.091974 256.477812) scale(0.14 -0.14)">
       <use xlink:href="#DejaVuSans-31"/>
       <use xlink:href="#DejaVuSans-30" x="63.623047"/>
      </g>
     </g>
    </g>
    <g id="xtick_15">
     <g id="line2d_60">
      <g>
       <use xlink:href="#m0d52683004" x="941.167237" y="238.84" style="stroke: #000000; stroke-width: 0.8"/>
      </g>
     </g>
     <g id="text_54">
      <!-- 15 -->
      <g transform="translate(932.259737 256.477812) scale(0.14 -0.14)">
       <use xlink:href="#DejaVuSans-31"/>
       <use xlink:href="#DejaVuSans-35" x="63.623047"/>
      </g>
     </g>
    </g>
    <g id="xtick_16">
     <g id="line2d_61">
      <g>
       <use xlink:href="#m0d52683004" x="988.335" y="238.84" style="stroke: #000000; stroke-width: 0.8"/>
      </g>
     </g>
     <g id="text_55">
      <!-- 20 -->
      <g transform="translate(979.4275 256.477812) scale(0.14 -0.14)">
       <use xlink:href="#DejaVuSans-32"/>
       <use xlink:href="#DejaVuSans-30" x="63.623047"/>
      </g>
     </g>
    </g>
    <g id="text_56">
     <!-- num of hf samples (d) -->
     <g transform="translate(821.475625 274.027187) scale(0.14 -0.14)">
      <use xlink:href="#DejaVuSans-6e"/>
      <use xlink:href="#DejaVuSans-75" x="63.378906"/>
      <use xlink:href="#DejaVuSans-6d" x="126.757812"/>
      <use xlink:href="#DejaVuSans-20" x="224.169922"/>
      <use xlink:href="#DejaVuSans-6f" x="255.957031"/>
      <use xlink:href="#DejaVuSans-66" x="317.138672"/>
      <use xlink:href="#DejaVuSans-20" x="352.34375"/>
      <use xlink:href="#DejaVuSans-68" x="384.130859"/>
      <use xlink:href="#DejaVuSans-66" x="447.509766"/>
      <use xlink:href="#DejaVuSans-20" x="482.714844"/>
      <use xlink:href="#DejaVuSans-73" x="514.501953"/>
      <use xlink:href="#DejaVuSans-61" x="566.601562"/>
      <use xlink:href="#DejaVuSans-6d" x="627.880859"/>
      <use xlink:href="#DejaVuSans-70" x="725.292969"/>
      <use xlink:href="#DejaVuSans-6c" x="788.769531"/>
      <use xlink:href="#DejaVuSans-65" x="816.552734"/>
      <use xlink:href="#DejaVuSans-73" x="878.076172"/>
      <use xlink:href="#DejaVuSans-20" x="930.175781"/>
      <use xlink:href="#DejaVuSans-28" x="961.962891"/>
      <use xlink:href="#DejaVuSans-64" x="1000.976562"/>
      <use xlink:href="#DejaVuSans-29" x="1064.453125"/>
     </g>
    </g>
   </g>
   <g id="matplotlib.axis_8">
    <g id="ytick_16">
     <g id="line2d_62">
      <g>
       <use xlink:href="#mb95750702a" x="809.0975" y="237.44106" style="stroke: #000000; stroke-width: 0.8"/>
      </g>
     </g>
     <g id="text_57">
      <!-- 0 -->
      <g transform="translate(793.19 242.759966) scale(0.14 -0.14)">
       <use xlink:href="#DejaVuSans-30"/>
      </g>
     </g>
    </g>
    <g id="ytick_17">
     <g id="line2d_63">
      <g>
       <use xlink:href="#mb95750702a" x="809.0975" y="202.46755" style="stroke: #000000; stroke-width: 0.8"/>
      </g>
     </g>
     <g id="text_58">
      <!-- 25 -->
      <g transform="translate(784.2825 207.786456) scale(0.14 -0.14)">
       <use xlink:href="#DejaVuSans-32"/>
       <use xlink:href="#DejaVuSans-35" x="63.623047"/>
      </g>
     </g>
    </g>
    <g id="ytick_18">
     <g id="line2d_64">
      <g>
       <use xlink:href="#mb95750702a" x="809.0975" y="167.49404" style="stroke: #000000; stroke-width: 0.8"/>
      </g>
     </g>
     <g id="text_59">
      <!-- 50 -->
      <g transform="translate(784.2825 172.812946) scale(0.14 -0.14)">
       <use xlink:href="#DejaVuSans-35"/>
       <use xlink:href="#DejaVuSans-30" x="63.623047"/>
      </g>
     </g>
    </g>
    <g id="ytick_19">
     <g id="line2d_65">
      <g>
       <use xlink:href="#mb95750702a" x="809.0975" y="132.52053" style="stroke: #000000; stroke-width: 0.8"/>
      </g>
     </g>
     <g id="text_60">
      <!-- 75 -->
      <g transform="translate(784.2825 137.839436) scale(0.14 -0.14)">
       <defs>
        <path id="DejaVuSans-37" d="M 525 4666 
L 3525 4666 
L 3525 4397 
L 1831 0 
L 1172 0 
L 2766 4134 
L 525 4134 
L 525 4666 
z
" transform="scale(0.015625)"/>
       </defs>
       <use xlink:href="#DejaVuSans-37"/>
       <use xlink:href="#DejaVuSans-35" x="63.623047"/>
      </g>
     </g>
    </g>
    <g id="ytick_20">
     <g id="line2d_66">
      <g>
       <use xlink:href="#mb95750702a" x="809.0975" y="97.54702" style="stroke: #000000; stroke-width: 0.8"/>
      </g>
     </g>
     <g id="text_61">
      <!-- 100 -->
      <g transform="translate(775.375 102.865926) scale(0.14 -0.14)">
       <use xlink:href="#DejaVuSans-31"/>
       <use xlink:href="#DejaVuSans-30" x="63.623047"/>
       <use xlink:href="#DejaVuSans-30" x="127.246094"/>
      </g>
     </g>
    </g>
    <g id="ytick_21">
     <g id="line2d_67">
      <g>
       <use xlink:href="#mb95750702a" x="809.0975" y="62.57351" style="stroke: #000000; stroke-width: 0.8"/>
      </g>
     </g>
     <g id="text_62">
      <!-- 125 -->
      <g transform="translate(775.375 67.892416) scale(0.14 -0.14)">
       <use xlink:href="#DejaVuSans-31"/>
       <use xlink:href="#DejaVuSans-32" x="63.623047"/>
       <use xlink:href="#DejaVuSans-35" x="127.246094"/>
      </g>
     </g>
    </g>
    <g id="ytick_22">
     <g id="line2d_68">
      <g>
       <use xlink:href="#mb95750702a" x="809.0975" y="27.6" style="stroke: #000000; stroke-width: 0.8"/>
      </g>
     </g>
     <g id="text_63">
      <!-- 150 -->
      <g transform="translate(775.375 32.918906) scale(0.14 -0.14)">
       <use xlink:href="#DejaVuSans-31"/>
       <use xlink:href="#DejaVuSans-35" x="63.623047"/>
       <use xlink:href="#DejaVuSans-30" x="127.246094"/>
      </g>
     </g>
    </g>
    <g id="text_64">
     <!-- CPU time (s) -->
     <g transform="translate(768.463437 176.824531) rotate(-90) scale(0.14 -0.14)">
      <defs>
       <path id="DejaVuSans-50" d="M 1259 4147 
L 1259 2394 
L 2053 2394 
Q 2494 2394 2734 2622 
Q 2975 2850 2975 3272 
Q 2975 3691 2734 3919 
Q 2494 4147 2053 4147 
L 1259 4147 
z
M 628 4666 
L 2053 4666 
Q 2838 4666 3239 4311 
Q 3641 3956 3641 3272 
Q 3641 2581 3239 2228 
Q 2838 1875 2053 1875 
L 1259 1875 
L 1259 0 
L 628 0 
L 628 4666 
z
" transform="scale(0.015625)"/>
       <path id="DejaVuSans-55" d="M 556 4666 
L 1191 4666 
L 1191 1831 
Q 1191 1081 1462 751 
Q 1734 422 2344 422 
Q 2950 422 3222 751 
Q 3494 1081 3494 1831 
L 3494 4666 
L 4128 4666 
L 4128 1753 
Q 4128 841 3676 375 
Q 3225 -91 2344 -91 
Q 1459 -91 1007 375 
Q 556 841 556 1753 
L 556 4666 
z
" transform="scale(0.015625)"/>
       <path id="DejaVuSans-74" d="M 1172 4494 
L 1172 3500 
L 2356 3500 
L 2356 3053 
L 1172 3053 
L 1172 1153 
Q 1172 725 1289 603 
Q 1406 481 1766 481 
L 2356 481 
L 2356 0 
L 1766 0 
Q 1100 0 847 248 
Q 594 497 594 1153 
L 594 3053 
L 172 3053 
L 172 3500 
L 594 3500 
L 594 4494 
L 1172 4494 
z
" transform="scale(0.015625)"/>
      </defs>
      <use xlink:href="#DejaVuSans-43"/>
      <use xlink:href="#DejaVuSans-50" x="69.824219"/>
      <use xlink:href="#DejaVuSans-55" x="130.126953"/>
      <use xlink:href="#DejaVuSans-20" x="203.320312"/>
      <use xlink:href="#DejaVuSans-74" x="235.107422"/>
      <use xlink:href="#DejaVuSans-69" x="274.316406"/>
      <use xlink:href="#DejaVuSans-6d" x="302.099609"/>
      <use xlink:href="#DejaVuSans-65" x="399.511719"/>
      <use xlink:href="#DejaVuSans-20" x="461.035156"/>
      <use xlink:href="#DejaVuSans-28" x="492.822266"/>
      <use xlink:href="#DejaVuSans-73" x="531.835938"/>
      <use xlink:href="#DejaVuSans-29" x="583.935547"/>
     </g>
    </g>
   </g>
   <g id="line2d_69">
    <path d="M 818.531053 236.785884 
L 837.398158 236.399705 
L 856.265263 235.867642 
L 875.132368 235.266565 
L 893.999474 234.627867 
L 912.866579 234.098067 
L 931.733684 233.71818 
L 950.600789 232.949248 
L 969.467895 231.973082 
L 988.335 231.400254 
L 1007.202105 230.710258 
L 1009 230.603795 
" clip-path="url(#pb4d9f3f7d2)" style="fill: none; stroke: #1f77b4; stroke-width: 2; stroke-linecap: square"/>
   </g>
   <g id="line2d_70">
    <path d="M 818.531053 176.523642 
L 837.398158 173.59828 
L 856.265263 174.170826 
L 875.132368 175.898343 
L 893.999474 173.739204 
L 912.866579 171.768632 
L 931.733684 173.912924 
L 950.600789 169.977971 
L 969.467895 168.177677 
L 988.335 169.866125 
" clip-path="url(#pb4d9f3f7d2)" style="fill: none; stroke: #ff7f0e; stroke-width: 2; stroke-linecap: square"/>
   </g>
   <g id="line2d_71">
    <path d="M 818.531053 162.919715 
L 837.398158 161.533577 
L 856.265263 159.231452 
L 875.132368 162.255676 
L 893.999474 159.90293 
L 912.866579 152.404188 
L 931.733684 151.979796 
L 950.600789 152.690309 
L 969.467895 148.664389 
L 988.335 142.719038 
" clip-path="url(#pb4d9f3f7d2)" style="fill: none; stroke: #2ca02c; stroke-width: 2; stroke-linecap: square"/>
   </g>
   <g id="line2d_72">
    <path d="M 818.531053 176.898466 
L 837.398158 174.106906 
L 856.265263 174.895576 
L 875.132368 176.450942 
L 893.999474 173.984122 
L 912.866579 172.181282 
L 931.733684 175.071663 
L 950.600789 171.83512 
L 969.467895 170.165776 
L 988.335 171.788726 
" clip-path="url(#pb4d9f3f7d2)" style="fill: none; stroke: #d62728; stroke-width: 2; stroke-linecap: square"/>
   </g>
   <g id="line2d_73">
    <path d="M 818.531053 231.977032 
L 837.398158 232.63235 
L 856.265263 232.37797 
L 875.132368 232.051887 
L 893.999474 231.520064 
L 912.866579 231.168189 
L 931.733684 230.329327 
L 950.600789 229.993913 
L 969.467895 229.697409 
L 988.335 228.982595 
" clip-path="url(#pb4d9f3f7d2)" style="fill: none; stroke: #9467bd; stroke-width: 2; stroke-linecap: square"/>
   </g>
   <g id="patch_21">
    <path d="M 809.0975 238.84 
L 809.0975 27.6 
" style="fill: none; stroke: #000000; stroke-width: 0.8; stroke-linejoin: miter; stroke-linecap: square"/>
   </g>
   <g id="patch_22">
    <path d="M 988.335 238.84 
L 988.335 27.6 
" style="fill: none; stroke: #000000; stroke-width: 0.8; stroke-linejoin: miter; stroke-linecap: square"/>
   </g>
   <g id="patch_23">
    <path d="M 809.0975 238.84 
L 988.335 238.84 
" style="fill: none; stroke: #000000; stroke-width: 0.8; stroke-linejoin: miter; stroke-linecap: square"/>
   </g>
   <g id="patch_24">
    <path d="M 809.0975 27.6 
L 988.335 27.6 
" style="fill: none; stroke: #000000; stroke-width: 0.8; stroke-linejoin: miter; stroke-linecap: square"/>
   </g>
   <g id="text_65">
    <!-- (d) -->
    <g transform="translate(888.810156 21.6) scale(0.14 -0.14)">
     <use xlink:href="#DejaVuSans-28"/>
     <use xlink:href="#DejaVuSans-64" x="39.013672"/>
     <use xlink:href="#DejaVuSans-29" x="102.490234"/>
    </g>
   </g>
   <g id="legend_4">
    <g id="patch_25">
     <path d="M 851.302187 108.990625 
L 981.335 108.990625 
Q 983.335 108.990625 983.335 106.990625 
L 983.335 34.6 
Q 983.335 32.6 981.335 32.6 
L 851.302187 32.6 
Q 849.302187 32.6 849.302187 34.6 
L 849.302187 106.990625 
Q 849.302187 108.990625 851.302187 108.990625 
z
" style="fill: #ffffff; opacity: 0.8; stroke: #cccccc; stroke-linejoin: miter"/>
    </g>
    <g id="line2d_74">
     <path d="M 853.302187 40.698438 
L 863.302187 40.698438 
L 873.302187 40.698438 
" style="fill: none; stroke: #1f77b4; stroke-width: 2; stroke-linecap: square"/>
    </g>
    <g id="text_66">
     <!-- Kriging -->
     <g transform="translate(881.302187 44.198438) scale(0.1 -0.1)">
      <use xlink:href="#DejaVuSans-4b"/>
      <use xlink:href="#DejaVuSans-72" x="65.576172"/>
      <use xlink:href="#DejaVuSans-69" x="106.689453"/>
      <use xlink:href="#DejaVuSans-67" x="134.472656"/>
      <use xlink:href="#DejaVuSans-69" x="197.949219"/>
      <use xlink:href="#DejaVuSans-6e" x="225.732422"/>
      <use xlink:href="#DejaVuSans-67" x="289.111328"/>
     </g>
    </g>
    <g id="line2d_75">
     <path d="M 853.302187 55.376563 
L 863.302187 55.376563 
L 873.302187 55.376563 
" style="fill: none; stroke: #ff7f0e; stroke-width: 2; stroke-linecap: square"/>
    </g>
    <g id="text_67">
     <!-- Hierarchical Kriging -->
     <g transform="translate(881.302187 58.876563) scale(0.1 -0.1)">
      <use xlink:href="#DejaVuSans-48"/>
      <use xlink:href="#DejaVuSans-69" x="75.195312"/>
      <use xlink:href="#DejaVuSans-65" x="102.978516"/>
      <use xlink:href="#DejaVuSans-72" x="164.501953"/>
      <use xlink:href="#DejaVuSans-61" x="205.615234"/>
      <use xlink:href="#DejaVuSans-72" x="266.894531"/>
      <use xlink:href="#DejaVuSans-63" x="305.757812"/>
      <use xlink:href="#DejaVuSans-68" x="360.738281"/>
      <use xlink:href="#DejaVuSans-69" x="424.117188"/>
      <use xlink:href="#DejaVuSans-63" x="451.900391"/>
      <use xlink:href="#DejaVuSans-61" x="506.880859"/>
      <use xlink:href="#DejaVuSans-6c" x="568.160156"/>
      <use xlink:href="#DejaVuSans-20" x="595.943359"/>
      <use xlink:href="#DejaVuSans-4b" x="627.730469"/>
      <use xlink:href="#DejaVuSans-72" x="693.306641"/>
      <use xlink:href="#DejaVuSans-69" x="734.419922"/>
      <use xlink:href="#DejaVuSans-67" x="762.203125"/>
      <use xlink:href="#DejaVuSans-69" x="825.679688"/>
      <use xlink:href="#DejaVuSans-6e" x="853.462891"/>
      <use xlink:href="#DejaVuSans-67" x="916.841797"/>
     </g>
    </g>
    <g id="line2d_76">
     <path d="M 853.302187 70.054688 
L 863.302187 70.054688 
L 873.302187 70.054688 
" style="fill: none; stroke: #2ca02c; stroke-width: 2; stroke-linecap: square"/>
    </g>
    <g id="text_68">
     <!-- Co-Kriging -->
     <g transform="translate(881.302187 73.554688) scale(0.1 -0.1)">
      <use xlink:href="#DejaVuSans-43"/>
      <use xlink:href="#DejaVuSans-6f" x="69.824219"/>
      <use xlink:href="#DejaVuSans-2d" x="132.880859"/>
      <use xlink:href="#DejaVuSans-4b" x="168.964844"/>
      <use xlink:href="#DejaVuSans-72" x="234.541016"/>
      <use xlink:href="#DejaVuSans-69" x="275.654297"/>
      <use xlink:href="#DejaVuSans-67" x="303.4375"/>
      <use xlink:href="#DejaVuSans-69" x="366.914062"/>
      <use xlink:href="#DejaVuSans-6e" x="394.697266"/>
      <use xlink:href="#DejaVuSans-67" x="458.076172"/>
     </g>
    </g>
    <g id="line2d_77">
     <path d="M 853.302187 84.732813 
L 863.302187 84.732813 
L 873.302187 84.732813 
" style="fill: none; stroke: #d62728; stroke-width: 2; stroke-linecap: square"/>
    </g>
    <g id="text_69">
     <!-- Scaled Kriging -->
     <g transform="translate(881.302187 88.232813) scale(0.1 -0.1)">
      <use xlink:href="#DejaVuSans-53"/>
      <use xlink:href="#DejaVuSans-63" x="63.476562"/>
      <use xlink:href="#DejaVuSans-61" x="118.457031"/>
      <use xlink:href="#DejaVuSans-6c" x="179.736328"/>
      <use xlink:href="#DejaVuSans-65" x="207.519531"/>
      <use xlink:href="#DejaVuSans-64" x="269.042969"/>
      <use xlink:href="#DejaVuSans-20" x="332.519531"/>
      <use xlink:href="#DejaVuSans-4b" x="364.306641"/>
      <use xlink:href="#DejaVuSans-72" x="429.882812"/>
      <use xlink:href="#DejaVuSans-69" x="470.996094"/>
      <use xlink:href="#DejaVuSans-67" x="498.779297"/>
      <use xlink:href="#DejaVuSans-69" x="562.255859"/>
      <use xlink:href="#DejaVuSans-6e" x="590.039062"/>
      <use xlink:href="#DejaVuSans-67" x="653.417969"/>
     </g>
    </g>
    <g id="line2d_78">
     <path d="M 853.302187 99.410938 
L 863.302187 99.410938 
L 873.302187 99.410938 
" style="fill: none; stroke: #9467bd; stroke-width: 2; stroke-linecap: square"/>
    </g>
    <g id="text_70">
     <!-- MF-RBF-Kriging -->
     <g transform="translate(881.302187 102.910938) scale(0.1 -0.1)">
      <use xlink:href="#DejaVuSans-4d"/>
      <use xlink:href="#DejaVuSans-46" x="86.279297"/>
      <use xlink:href="#DejaVuSans-2d" x="143.798828"/>
      <use xlink:href="#DejaVuSans-52" x="179.882812"/>
      <use xlink:href="#DejaVuSans-42" x="249.365234"/>
      <use xlink:href="#DejaVuSans-46" x="317.96875"/>
      <use xlink:href="#DejaVuSans-2d" x="375.488281"/>
      <use xlink:href="#DejaVuSans-4b" x="411.572266"/>
      <use xlink:href="#DejaVuSans-72" x="477.148438"/>
      <use xlink:href="#DejaVuSans-69" x="518.261719"/>
      <use xlink:href="#DejaVuSans-67" x="546.044922"/>
      <use xlink:href="#DejaVuSans-69" x="609.521484"/>
      <use xlink:href="#DejaVuSans-6e" x="637.304688"/>
      <use xlink:href="#DejaVuSans-67" x="700.683594"/>
     </g>
    </g>
   </g>
  </g>
 </g>
 <defs>
  <clipPath id="pcb6b69ded7">
   <rect x="57.89" y="27.6" width="179.2375" height="211.24"/>
  </clipPath>
  <clipPath id="pf0311554cc">
   <rect x="308.2925" y="27.6" width="179.2375" height="211.24"/>
  </clipPath>
  <clipPath id="p8945957877">
   <rect x="558.695" y="27.6" width="179.2375" height="211.24"/>
  </clipPath>
  <clipPath id="pb4d9f3f7d2">
   <rect x="809.0975" y="27.6" width="179.2375" height="211.24"/>
  </clipPath>
 </defs>
</svg>
