<?xml version="1.0" encoding="utf-8" standalone="no"?>
<!DOCTYPE svg PUBLIC "-//W3C//DTD SVG 1.1//EN"
  "http://www.w3.org/Graphics/SVG/1.1/DTD/svg11.dtd">
<svg xmlns:xlink="http://www.w3.org/1999/xlink" width="739.72125pt" height="361.49875pt" viewBox="0 0 739.72125 361.49875" xmlns="http://www.w3.org/2000/svg" version="1.1">
 <metadata>
  <rdf:RDF xmlns:dc="http://purl.org/dc/elements/1.1/" xmlns:cc="http://creativecommons.org/ns#" xmlns:rdf="http://www.w3.org/1999/02/22-rdf-syntax-ns#">
   <cc:Work>
    <dc:type rdf:resource="http://purl.org/dc/dcmitype/StillImage"/>
    <dc:date>2024-03-08T09:24:15.995145</dc:date>
    <dc:format>image/svg+xml</dc:format>
    <dc:creator>
     <cc:Agent>
      <dc:title>Matplotlib v3.8.2, https://matplotlib.org/</dc:title>
     </cc:Agent>
    </dc:creator>
   </cc:Work>
  </rdf:RDF>
 </metadata>
 <defs>
  <style type="text/css">*{stroke-linejoin: round; stroke-linecap: butt}</style>
 </defs>
 <g id="figure_1">
  <g id="patch_1">
   <path d="M 0 361.49875 
L 739.72125 361.49875 
L 739.72125 -0 
L 0 -0 
z
" style="fill: #ffffff"/>
  </g>
  <g id="axes_1">
   <g id="patch_2">
    <path d="M 54.01375 165 
L 358.377386 165 
L 358.377386 39 
L 54.01375 39 
z
" style="fill: #ffffff"/>
   </g>
   <g id="PolyCollection_1">
    <defs>
     <path id="mc44d64530d" d="M 70.032889 -316.771477 
L 70.032889 -279.854919 
L 102.071166 -246.746293 
L 134.109444 -231.942727 
L 166.147721 -225.411301 
L 198.185999 -220.898959 
L 230.224276 -214.837858 
L 262.262554 -213.746148 
L 294.300831 -210.515483 
L 326.339109 -208.842155 
L 358.377386 -204.600152 
L 358.377386 -215.644844 
L 358.377386 -215.644844 
L 326.339109 -223.714656 
L 294.300831 -225.976651 
L 262.262554 -228.936776 
L 230.224276 -232.225594 
L 198.185999 -241.67306 
L 166.147721 -246.711887 
L 134.109444 -258.406171 
L 102.071166 -280.415849 
L 70.032889 -316.771477 
z
" style="stroke: #0077bb; stroke-opacity: 0.2"/>
    </defs>
    <g clip-path="url(#p9d0058ce7e)">
     <use xlink:href="#mc44d64530d" x="0" y="361.49875" style="fill: #0077bb; fill-opacity: 0.2; stroke: #0077bb; stroke-opacity: 0.2"/>
    </g>
   </g>
   <g id="PolyCollection_2">
    <defs>
     <path id="md2d317a16f" d="M 70.032889 -292.590367 
L 70.032889 -255.169644 
L 102.071166 -235.809351 
L 134.109444 -218.335309 
L 166.147721 -216.360192 
L 198.185999 -213.717656 
L 230.224276 -207.875323 
L 262.262554 -203.94024 
L 294.300831 -204.203962 
L 326.339109 -202.226023 
L 358.377386 -202.326245 
L 358.377386 -211.218887 
L 358.377386 -211.218887 
L 326.339109 -211.585713 
L 294.300831 -216.025506 
L 262.262554 -216.616354 
L 230.224276 -223.016154 
L 198.185999 -230.314491 
L 166.147721 -234.397122 
L 134.109444 -238.670363 
L 102.071166 -283.161184 
L 70.032889 -292.590367 
z
" style="stroke: #009988; stroke-opacity: 0.2"/>
    </defs>
    <g clip-path="url(#p9d0058ce7e)">
     <use xlink:href="#md2d317a16f" x="0" y="361.49875" style="fill: #009988; fill-opacity: 0.2; stroke: #009988; stroke-opacity: 0.2"/>
    </g>
   </g>
   <g id="PolyCollection_3">
    <defs>
     <path id="m6277fbde7c" d="M 70.032889 -291.500717 
L 70.032889 -251.234068 
L 102.071166 -237.946971 
L 134.109444 -223.351455 
L 166.147721 -217.135275 
L 198.185999 -214.318603 
L 230.224276 -208.219952 
L 262.262554 -204.888526 
L 294.300831 -205.108169 
L 326.339109 -203.23438 
L 358.377386 -202.78726 
L 358.377386 -212.651876 
L 358.377386 -212.651876 
L 326.339109 -212.802709 
L 294.300831 -216.428425 
L 262.262554 -216.197892 
L 230.224276 -224.03176 
L 198.185999 -231.689091 
L 166.147721 -235.82012 
L 134.109444 -248.274566 
L 102.071166 -267.890932 
L 70.032889 -291.500717 
z
" style="stroke: #33bbee; stroke-opacity: 0.2"/>
    </defs>
    <g clip-path="url(#p9d0058ce7e)">
     <use xlink:href="#m6277fbde7c" x="0" y="361.49875" style="fill: #33bbee; fill-opacity: 0.2; stroke: #33bbee; stroke-opacity: 0.2"/>
    </g>
   </g>
   <g id="PolyCollection_4">
    <defs>
     <path id="m9b7b619009" d="M 70.032889 -282.346642 
L 70.032889 -247.943318 
L 102.071166 -231.528423 
L 134.109444 -221.256366 
L 166.147721 -217.820663 
L 198.185999 -218.501798 
L 230.224276 -214.642254 
L 262.262554 -208.945122 
L 294.300831 -209.679759 
L 326.339109 -206.58369 
L 358.377386 -203.548206 
L 358.377386 -212.820819 
L 358.377386 -212.820819 
L 326.339109 -218.126721 
L 294.300831 -223.598875 
L 262.262554 -220.757337 
L 230.224276 -230.950265 
L 198.185999 -235.661855 
L 166.147721 -237.053541 
L 134.109444 -242.122992 
L 102.071166 -260.758322 
L 70.032889 -282.346642 
z
" style="stroke: #997700; stroke-opacity: 0.2"/>
    </defs>
    <g clip-path="url(#p9d0058ce7e)">
     <use xlink:href="#m9b7b619009" x="0" y="361.49875" style="fill: #997700; fill-opacity: 0.2; stroke: #997700; stroke-opacity: 0.2"/>
    </g>
   </g>
   <g id="PolyCollection_5">
    <defs>
     <path id="md7e88e1ae5" d="M 70.032889 -282.237775 
L 70.032889 -249.224523 
L 102.071166 -237.367996 
L 134.109444 -219.308851 
L 166.147721 -218.062568 
L 198.185999 -215.204426 
L 230.224276 -209.95721 
L 262.262554 -206.517357 
L 294.300831 -204.870344 
L 326.339109 -203.199735 
L 358.377386 -202.897932 
L 358.377386 -212.920664 
L 358.377386 -212.920664 
L 326.339109 -212.993375 
L 294.300831 -217.470818 
L 262.262554 -220.412183 
L 230.224276 -225.649727 
L 198.185999 -233.134625 
L 166.147721 -236.763 
L 134.109444 -241.725985 
L 102.071166 -270.164907 
L 70.032889 -282.237775 
z
" style="stroke: #cc3311; stroke-opacity: 0.2"/>
    </defs>
    <g clip-path="url(#p9d0058ce7e)">
     <use xlink:href="#md7e88e1ae5" x="0" y="361.49875" style="fill: #cc3311; fill-opacity: 0.2; stroke: #cc3311; stroke-opacity: 0.2"/>
    </g>
   </g>
   <g id="matplotlib.axis_1">
    <g id="xtick_1">
     <g id="line2d_1">
      <defs>
       <path id="m53f08e2b56" d="M 0 0 
L 0 3.5 
" style="stroke: #000000; stroke-width: 0.8"/>
      </defs>
      <g>
       <use xlink:href="#m53f08e2b56" x="118.090305" y="165" style="stroke: #000000; stroke-width: 0.8"/>
      </g>
     </g>
     <g id="text_1">
      <!-- 5 -->
      <g transform="translate(113.636555 182.637812) scale(0.14 -0.14)">
       <defs>
        <path id="DejaVuSans-35" d="M 691 4666 
L 3169 4666 
L 3169 4134 
L 1269 4134 
L 1269 2991 
Q 1406 3038 1543 3061 
Q 1681 3084 1819 3084 
Q 2600 3084 3056 2656 
Q 3513 2228 3513 1497 
Q 3513 744 3044 326 
Q 2575 -91 1722 -91 
Q 1428 -91 1123 -41 
Q 819 9 494 109 
L 494 744 
Q 775 591 1075 516 
Q 1375 441 1709 441 
Q 2250 441 2565 725 
Q 2881 1009 2881 1497 
Q 2881 1984 2565 2268 
Q 2250 2553 1709 2553 
Q 1456 2553 1204 2497 
Q 953 2441 691 2322 
L 691 4666 
z
" transform="scale(0.015625)"/>
       </defs>
       <use xlink:href="#DejaVuSans-35"/>
      </g>
     </g>
    </g>
    <g id="xtick_2">
     <g id="line2d_2">
      <g>
       <use xlink:href="#m53f08e2b56" x="198.185999" y="165" style="stroke: #000000; stroke-width: 0.8"/>
      </g>
     </g>
     <g id="text_2">
      <!-- 10 -->
      <g transform="translate(189.278499 182.637812) scale(0.14 -0.14)">
       <defs>
        <path id="DejaVuSans-31" d="M 794 531 
L 1825 531 
L 1825 4091 
L 703 3866 
L 703 4441 
L 1819 4666 
L 2450 4666 
L 2450 531 
L 3481 531 
L 3481 0 
L 794 0 
L 794 531 
z
" transform="scale(0.015625)"/>
        <path id="DejaVuSans-30" d="M 2034 4250 
Q 1547 4250 1301 3770 
Q 1056 3291 1056 2328 
Q 1056 1369 1301 889 
Q 1547 409 2034 409 
Q 2525 409 2770 889 
Q 3016 1369 3016 2328 
Q 3016 3291 2770 3770 
Q 2525 4250 2034 4250 
z
M 2034 4750 
Q 2819 4750 3233 4129 
Q 3647 3509 3647 2328 
Q 3647 1150 3233 529 
Q 2819 -91 2034 -91 
Q 1250 -91 836 529 
Q 422 1150 422 2328 
Q 422 3509 836 4129 
Q 1250 4750 2034 4750 
z
" transform="scale(0.015625)"/>
       </defs>
       <use xlink:href="#DejaVuSans-31"/>
       <use xlink:href="#DejaVuSans-30" x="63.623047"/>
      </g>
     </g>
    </g>
    <g id="xtick_3">
     <g id="line2d_3">
      <g>
       <use xlink:href="#m53f08e2b56" x="278.281693" y="165" style="stroke: #000000; stroke-width: 0.8"/>
      </g>
     </g>
     <g id="text_3">
      <!-- 15 -->
      <g transform="translate(269.374193 182.637812) scale(0.14 -0.14)">
       <use xlink:href="#DejaVuSans-31"/>
       <use xlink:href="#DejaVuSans-35" x="63.623047"/>
      </g>
     </g>
    </g>
    <g id="xtick_4">
     <g id="line2d_4">
      <g>
       <use xlink:href="#m53f08e2b56" x="358.377386" y="165" style="stroke: #000000; stroke-width: 0.8"/>
      </g>
     </g>
     <g id="text_4">
      <!-- 20 -->
      <g transform="translate(349.469886 182.637812) scale(0.14 -0.14)">
       <defs>
        <path id="DejaVuSans-32" d="M 1228 531 
L 3431 531 
L 3431 0 
L 469 0 
L 469 531 
Q 828 903 1448 1529 
Q 2069 2156 2228 2338 
Q 2531 2678 2651 2914 
Q 2772 3150 2772 3378 
Q 2772 3750 2511 3984 
Q 2250 4219 1831 4219 
Q 1534 4219 1204 4116 
Q 875 4013 500 3803 
L 500 4441 
Q 881 4594 1212 4672 
Q 1544 4750 1819 4750 
Q 2544 4750 2975 4387 
Q 3406 4025 3406 3419 
Q 3406 3131 3298 2873 
Q 3191 2616 2906 2266 
Q 2828 2175 2409 1742 
Q 1991 1309 1228 531 
z
" transform="scale(0.015625)"/>
       </defs>
       <use xlink:href="#DejaVuSans-32"/>
       <use xlink:href="#DejaVuSans-30" x="63.623047"/>
      </g>
     </g>
    </g>
    <g id="text_5">
     <!--   -->
     <g transform="translate(203.970881 200.187187) scale(0.14 -0.14)">
      <defs>
       <path id="DejaVuSans-20" transform="scale(0.015625)"/>
      </defs>
      <use xlink:href="#DejaVuSans-20"/>
     </g>
    </g>
   </g>
   <g id="matplotlib.axis_2">
    <g id="ytick_1">
     <g id="line2d_5">
      <defs>
       <path id="m5f6b895e0c" d="M 0 0 
L -3.5 0 
" style="stroke: #000000; stroke-width: 0.8"/>
      </defs>
      <g>
       <use xlink:href="#m5f6b895e0c" x="54.01375" y="163.533528" style="stroke: #000000; stroke-width: 0.8"/>
      </g>
     </g>
     <g id="text_6">
      <!-- 0 -->
      <g transform="translate(38.10625 168.852434) scale(0.14 -0.14)">
       <use xlink:href="#DejaVuSans-30"/>
      </g>
     </g>
    </g>
    <g id="ytick_2">
     <g id="line2d_6">
      <g>
       <use xlink:href="#m5f6b895e0c" x="54.01375" y="112.558726" style="stroke: #000000; stroke-width: 0.8"/>
      </g>
     </g>
     <g id="text_7">
      <!-- 1 -->
      <g transform="translate(38.10625 117.877632) scale(0.14 -0.14)">
       <use xlink:href="#DejaVuSans-31"/>
      </g>
     </g>
    </g>
    <g id="ytick_3">
     <g id="line2d_7">
      <g>
       <use xlink:href="#m5f6b895e0c" x="54.01375" y="61.583924" style="stroke: #000000; stroke-width: 0.8"/>
      </g>
     </g>
     <g id="text_8">
      <!-- 2 -->
      <g transform="translate(38.10625 66.902831) scale(0.14 -0.14)">
       <use xlink:href="#DejaVuSans-32"/>
      </g>
     </g>
    </g>
    <g id="text_9">
     <!-- NMAE -->
     <g transform="translate(31.194688 122.488125) rotate(-90) scale(0.14 -0.14)">
      <defs>
       <path id="DejaVuSans-4e" d="M 628 4666 
L 1478 4666 
L 3547 763 
L 3547 4666 
L 4159 4666 
L 4159 0 
L 3309 0 
L 1241 3903 
L 1241 0 
L 628 0 
L 628 4666 
z
" transform="scale(0.015625)"/>
       <path id="DejaVuSans-4d" d="M 628 4666 
L 1569 4666 
L 2759 1491 
L 3956 4666 
L 4897 4666 
L 4897 0 
L 4281 0 
L 4281 4097 
L 3078 897 
L 2444 897 
L 1241 4097 
L 1241 0 
L 628 0 
L 628 4666 
z
" transform="scale(0.015625)"/>
       <path id="DejaVuSans-41" d="M 2188 4044 
L 1331 1722 
L 3047 1722 
L 2188 4044 
z
M 1831 4666 
L 2547 4666 
L 4325 0 
L 3669 0 
L 3244 1197 
L 1141 1197 
L 716 0 
L 50 0 
L 1831 4666 
z
" transform="scale(0.015625)"/>
       <path id="DejaVuSans-45" d="M 628 4666 
L 3578 4666 
L 3578 4134 
L 1259 4134 
L 1259 2753 
L 3481 2753 
L 3481 2222 
L 1259 2222 
L 1259 531 
L 3634 531 
L 3634 0 
L 628 0 
L 628 4666 
z
" transform="scale(0.015625)"/>
      </defs>
      <use xlink:href="#DejaVuSans-4e"/>
      <use xlink:href="#DejaVuSans-4d" x="74.804688"/>
      <use xlink:href="#DejaVuSans-41" x="161.083984"/>
      <use xlink:href="#DejaVuSans-45" x="229.492188"/>
     </g>
    </g>
   </g>
   <g id="line2d_8">
    <path d="M 70.032889 62.906063 
L 102.071166 98.650875 
L 134.109444 117.124609 
L 166.147721 125.916124 
L 198.185999 130.609827 
L 230.224276 138.59448 
L 262.262554 139.991877 
L 294.300831 143.570146 
L 326.339109 145.571495 
L 358.377386 151.586579 
" clip-path="url(#p9d0058ce7e)" style="fill: none; stroke: #0077bb; stroke-width: 2; stroke-linecap: square"/>
   </g>
   <g id="line2d_9">
    <path d="M 70.032889 87.27913 
L 102.071166 103.76373 
L 134.109444 132.998933 
L 166.147721 136.355218 
L 198.185999 139.772086 
L 230.224276 146.336525 
L 262.262554 151.896761 
L 294.300831 151.871486 
L 326.339109 155.018593 
L 358.377386 154.925271 
" clip-path="url(#p9d0058ce7e)" style="fill: none; stroke: #009988; stroke-width: 2; stroke-linecap: square"/>
   </g>
   <g id="line2d_10">
    <path d="M 70.032889 90.724868 
L 102.071166 108.339267 
L 134.109444 126.83588 
L 166.147721 134.806239 
L 198.185999 138.603783 
L 230.224276 146.021947 
L 262.262554 151.121845 
L 294.300831 151.066556 
L 326.339109 153.698798 
L 358.377386 154.164896 
" clip-path="url(#p9d0058ce7e)" style="fill: none; stroke: #33bbee; stroke-width: 2; stroke-linecap: square"/>
   </g>
   <g id="line2d_11">
    <path d="M 70.032889 96.676233 
L 102.071166 115.993501 
L 134.109444 130.235202 
L 166.147721 134.173037 
L 198.185999 134.537189 
L 230.224276 138.968422 
L 262.262554 146.763773 
L 294.300831 145.101133 
L 326.339109 149.366478 
L 358.377386 153.483922 
" clip-path="url(#p9d0058ce7e)" style="fill: none; stroke: #997700; stroke-width: 2; stroke-linecap: square"/>
   </g>
   <g id="line2d_12">
    <path d="M 70.032889 97.509142 
L 102.071166 107.554305 
L 134.109444 130.92625 
L 166.147721 134.051224 
L 198.185999 137.876972 
L 230.224276 144.031825 
L 262.262554 148.339411 
L 294.300831 150.566918 
L 326.339109 153.728024 
L 358.377386 153.974497 
" clip-path="url(#p9d0058ce7e)" style="fill: none; stroke: #cc3311; stroke-width: 2; stroke-linecap: square"/>
   </g>
   <g id="patch_3">
    <path d="M 54.01375 165 
L 54.01375 39 
" style="fill: none; stroke: #000000; stroke-width: 1.5; stroke-linejoin: miter; stroke-linecap: square"/>
   </g>
   <g id="patch_4">
    <path d="M 358.377386 165 
L 358.377386 39 
" style="fill: none; stroke: #000000; stroke-width: 1.5; stroke-linejoin: miter; stroke-linecap: square"/>
   </g>
   <g id="patch_5">
    <path d="M 54.01375 165 
L 358.377386 165 
" style="fill: none; stroke: #000000; stroke-width: 1.5; stroke-linejoin: miter; stroke-linecap: square"/>
   </g>
   <g id="patch_6">
    <path d="M 54.01375 39 
L 358.377386 39 
" style="fill: none; stroke: #000000; stroke-width: 1.5; stroke-linejoin: miter; stroke-linecap: square"/>
   </g>
  </g>
  <g id="axes_2">
   <g id="patch_7">
    <path d="M 419.250114 165 
L 723.61375 165 
L 723.61375 39 
L 419.250114 39 
z
" style="fill: #ffffff"/>
   </g>
   <g id="PolyCollection_6">
    <defs>
     <path id="m0bb1166868" d="M 435.269252 -316.771477 
L 435.269252 -276.501232 
L 467.30753 -242.605274 
L 499.345807 -224.397857 
L 531.384085 -219.089238 
L 563.422362 -215.257373 
L 595.46064 -211.624082 
L 627.498917 -210.146754 
L 659.537195 -207.249804 
L 691.575472 -206.506795 
L 723.61375 -204.12222 
L 723.61375 -211.789205 
L 723.61375 -211.789205 
L 691.575472 -216.422944 
L 659.537195 -217.020474 
L 627.498917 -219.826556 
L 595.46064 -223.169105 
L 563.422362 -227.867743 
L 531.384085 -234.706436 
L 499.345807 -245.821131 
L 467.30753 -271.246397 
L 435.269252 -316.771477 
z
" style="stroke: #0077bb; stroke-opacity: 0.2"/>
    </defs>
    <g clip-path="url(#pde46e39dce)">
     <use xlink:href="#m0bb1166868" x="0" y="361.49875" style="fill: #0077bb; fill-opacity: 0.2; stroke: #0077bb; stroke-opacity: 0.2"/>
    </g>
   </g>
   <g id="PolyCollection_7">
    <defs>
     <path id="m56083db412" d="M 435.269252 -297.296649 
L 435.269252 -255.285783 
L 467.30753 -232.294766 
L 499.345807 -215.803114 
L 531.384085 -212.986337 
L 563.422362 -209.960323 
L 595.46064 -206.168181 
L 627.498917 -203.212811 
L 659.537195 -203.244204 
L 691.575472 -202.620747 
L 723.61375 -202.226023 
L 723.61375 -208.913163 
L 723.61375 -208.913163 
L 691.575472 -209.018288 
L 659.537195 -210.728078 
L 627.498917 -210.575119 
L 595.46064 -217.07533 
L 563.422362 -221.103774 
L 531.384085 -226.951265 
L 499.345807 -233.93974 
L 467.30753 -275.499334 
L 435.269252 -297.296649 
z
" style="stroke: #009988; stroke-opacity: 0.2"/>
    </defs>
    <g clip-path="url(#pde46e39dce)">
     <use xlink:href="#m56083db412" x="0" y="361.49875" style="fill: #009988; fill-opacity: 0.2; stroke: #009988; stroke-opacity: 0.2"/>
    </g>
   </g>
   <g id="PolyCollection_8">
    <defs>
     <path id="md38d28ee5e" d="M 435.269252 -304.454178 
L 435.269252 -255.829661 
L 467.30753 -237.258858 
L 499.345807 -220.383578 
L 531.384085 -213.988294 
L 563.422362 -211.471156 
L 595.46064 -206.488684 
L 627.498917 -203.885958 
L 659.537195 -203.815843 
L 691.575472 -202.739902 
L 723.61375 -202.483022 
L 723.61375 -209.010569 
L 723.61375 -209.010569 
L 691.575472 -209.246225 
L 659.537195 -211.139214 
L 627.498917 -211.735293 
L 595.46064 -217.216744 
L 563.422362 -223.754899 
L 531.384085 -229.03772 
L 499.345807 -242.603599 
L 467.30753 -265.359832 
L 435.269252 -304.454178 
z
" style="stroke: #33bbee; stroke-opacity: 0.2"/>
    </defs>
    <g clip-path="url(#pde46e39dce)">
     <use xlink:href="#md38d28ee5e" x="0" y="361.49875" style="fill: #33bbee; fill-opacity: 0.2; stroke: #33bbee; stroke-opacity: 0.2"/>
    </g>
   </g>
   <g id="PolyCollection_9">
    <defs>
     <path id="mf9cbf90d09" d="M 435.269252 -284.227746 
L 435.269252 -248.135636 
L 467.30753 -228.556767 
L 499.345807 -217.91871 
L 531.384085 -213.825683 
L 563.422362 -212.043727 
L 595.46064 -210.620686 
L 627.498917 -206.989971 
L 659.537195 -206.733708 
L 691.575472 -205.271798 
L 723.61375 -203.394927 
L 723.61375 -209.864914 
L 723.61375 -209.864914 
L 691.575472 -212.955993 
L 659.537195 -215.210598 
L 627.498917 -214.981062 
L 595.46064 -220.916214 
L 563.422362 -224.088394 
L 531.384085 -228.400127 
L 499.345807 -236.376283 
L 467.30753 -254.71069 
L 435.269252 -284.227746 
z
" style="stroke: #997700; stroke-opacity: 0.2"/>
    </defs>
    <g clip-path="url(#pde46e39dce)">
     <use xlink:href="#mf9cbf90d09" x="0" y="361.49875" style="fill: #997700; fill-opacity: 0.2; stroke: #997700; stroke-opacity: 0.2"/>
    </g>
   </g>
   <g id="PolyCollection_10">
    <defs>
     <path id="m6f65f686c4" d="M 435.269252 -285.296139 
L 435.269252 -250.493223 
L 467.30753 -235.274072 
L 499.345807 -216.747074 
L 531.384085 -214.860825 
L 563.422362 -210.685217 
L 595.46064 -207.191589 
L 627.498917 -204.515101 
L 659.537195 -204.006575 
L 691.575472 -202.969532 
L 723.61375 -202.777187 
L 723.61375 -209.322948 
L 723.61375 -209.322948 
L 691.575472 -209.222157 
L 659.537195 -211.142554 
L 627.498917 -212.408849 
L 595.46064 -217.270858 
L 563.422362 -222.485133 
L 531.384085 -228.460752 
L 499.345807 -236.24279 
L 467.30753 -264.735401 
L 435.269252 -285.296139 
z
" style="stroke: #cc3311; stroke-opacity: 0.2"/>
    </defs>
    <g clip-path="url(#pde46e39dce)">
     <use xlink:href="#m6f65f686c4" x="0" y="361.49875" style="fill: #cc3311; fill-opacity: 0.2; stroke: #cc3311; stroke-opacity: 0.2"/>
    </g>
   </g>
   <g id="matplotlib.axis_3">
    <g id="xtick_5">
     <g id="line2d_13">
      <g>
       <use xlink:href="#m53f08e2b56" x="483.326669" y="165" style="stroke: #000000; stroke-width: 0.8"/>
      </g>
     </g>
     <g id="text_10">
      <!-- 5 -->
      <g transform="translate(478.872919 182.637812) scale(0.14 -0.14)">
       <use xlink:href="#DejaVuSans-35"/>
      </g>
     </g>
    </g>
    <g id="xtick_6">
     <g id="line2d_14">
      <g>
       <use xlink:href="#m53f08e2b56" x="563.422362" y="165" style="stroke: #000000; stroke-width: 0.8"/>
      </g>
     </g>
     <g id="text_11">
      <!-- 10 -->
      <g transform="translate(554.514862 182.637812) scale(0.14 -0.14)">
       <use xlink:href="#DejaVuSans-31"/>
       <use xlink:href="#DejaVuSans-30" x="63.623047"/>
      </g>
     </g>
    </g>
    <g id="xtick_7">
     <g id="line2d_15">
      <g>
       <use xlink:href="#m53f08e2b56" x="643.518056" y="165" style="stroke: #000000; stroke-width: 0.8"/>
      </g>
     </g>
     <g id="text_12">
      <!-- 15 -->
      <g transform="translate(634.610556 182.637812) scale(0.14 -0.14)">
       <use xlink:href="#DejaVuSans-31"/>
       <use xlink:href="#DejaVuSans-35" x="63.623047"/>
      </g>
     </g>
    </g>
    <g id="xtick_8">
     <g id="line2d_16">
      <g>
       <use xlink:href="#m53f08e2b56" x="723.61375" y="165" style="stroke: #000000; stroke-width: 0.8"/>
      </g>
     </g>
     <g id="text_13">
      <!-- 20 -->
      <g transform="translate(714.70625 182.637812) scale(0.14 -0.14)">
       <use xlink:href="#DejaVuSans-32"/>
       <use xlink:href="#DejaVuSans-30" x="63.623047"/>
      </g>
     </g>
    </g>
    <g id="text_14">
     <!--   -->
     <g transform="translate(569.207244 200.187187) scale(0.14 -0.14)">
      <use xlink:href="#DejaVuSans-20"/>
     </g>
    </g>
   </g>
   <g id="matplotlib.axis_4">
    <g id="ytick_4">
     <g id="line2d_17">
      <g>
       <use xlink:href="#m5f6b895e0c" x="419.250114" y="162.18574" style="stroke: #000000; stroke-width: 0.8"/>
      </g>
     </g>
     <g id="text_15">
      <!-- 0.0 -->
      <g transform="translate(389.985739 167.504646) scale(0.14 -0.14)">
       <defs>
        <path id="DejaVuSans-2e" d="M 684 794 
L 1344 794 
L 1344 0 
L 684 0 
L 684 794 
z
" transform="scale(0.015625)"/>
       </defs>
       <use xlink:href="#DejaVuSans-30"/>
       <use xlink:href="#DejaVuSans-2e" x="63.623047"/>
       <use xlink:href="#DejaVuSans-30" x="95.410156"/>
      </g>
     </g>
    </g>
    <g id="ytick_5">
     <g id="line2d_18">
      <g>
       <use xlink:href="#m5f6b895e0c" x="419.250114" y="129.040167" style="stroke: #000000; stroke-width: 0.8"/>
      </g>
     </g>
     <g id="text_16">
      <!-- 0.2 -->
      <g transform="translate(389.985739 134.359073) scale(0.14 -0.14)">
       <use xlink:href="#DejaVuSans-30"/>
       <use xlink:href="#DejaVuSans-2e" x="63.623047"/>
       <use xlink:href="#DejaVuSans-32" x="95.410156"/>
      </g>
     </g>
    </g>
    <g id="ytick_6">
     <g id="line2d_19">
      <g>
       <use xlink:href="#m5f6b895e0c" x="419.250114" y="95.894594" style="stroke: #000000; stroke-width: 0.8"/>
      </g>
     </g>
     <g id="text_17">
      <!-- 0.4 -->
      <g transform="translate(389.985739 101.2135) scale(0.14 -0.14)">
       <defs>
        <path id="DejaVuSans-34" d="M 2419 4116 
L 825 1625 
L 2419 1625 
L 2419 4116 
z
M 2253 4666 
L 3047 4666 
L 3047 1625 
L 3713 1625 
L 3713 1100 
L 3047 1100 
L 3047 0 
L 2419 0 
L 2419 1100 
L 313 1100 
L 313 1709 
L 2253 4666 
z
" transform="scale(0.015625)"/>
       </defs>
       <use xlink:href="#DejaVuSans-30"/>
       <use xlink:href="#DejaVuSans-2e" x="63.623047"/>
       <use xlink:href="#DejaVuSans-34" x="95.410156"/>
      </g>
     </g>
    </g>
    <g id="ytick_7">
     <g id="line2d_20">
      <g>
       <use xlink:href="#m5f6b895e0c" x="419.250114" y="62.749021" style="stroke: #000000; stroke-width: 0.8"/>
      </g>
     </g>
     <g id="text_18">
      <!-- 0.6 -->
      <g transform="translate(389.985739 68.067928) scale(0.14 -0.14)">
       <defs>
        <path id="DejaVuSans-36" d="M 2113 2584 
Q 1688 2584 1439 2293 
Q 1191 2003 1191 1497 
Q 1191 994 1439 701 
Q 1688 409 2113 409 
Q 2538 409 2786 701 
Q 3034 994 3034 1497 
Q 3034 2003 2786 2293 
Q 2538 2584 2113 2584 
z
M 3366 4563 
L 3366 3988 
Q 3128 4100 2886 4159 
Q 2644 4219 2406 4219 
Q 1781 4219 1451 3797 
Q 1122 3375 1075 2522 
Q 1259 2794 1537 2939 
Q 1816 3084 2150 3084 
Q 2853 3084 3261 2657 
Q 3669 2231 3669 1497 
Q 3669 778 3244 343 
Q 2819 -91 2113 -91 
Q 1303 -91 875 529 
Q 447 1150 447 2328 
Q 447 3434 972 4092 
Q 1497 4750 2381 4750 
Q 2619 4750 2861 4703 
Q 3103 4656 3366 4563 
z
" transform="scale(0.015625)"/>
       </defs>
       <use xlink:href="#DejaVuSans-30"/>
       <use xlink:href="#DejaVuSans-2e" x="63.623047"/>
       <use xlink:href="#DejaVuSans-36" x="95.410156"/>
      </g>
     </g>
    </g>
    <g id="text_19">
     <!-- NRMSE -->
     <g transform="translate(383.074176 127.0075) rotate(-90) scale(0.14 -0.14)">
      <defs>
       <path id="DejaVuSans-52" d="M 2841 2188 
Q 3044 2119 3236 1894 
Q 3428 1669 3622 1275 
L 4263 0 
L 3584 0 
L 2988 1197 
Q 2756 1666 2539 1819 
Q 2322 1972 1947 1972 
L 1259 1972 
L 1259 0 
L 628 0 
L 628 4666 
L 2053 4666 
Q 2853 4666 3247 4331 
Q 3641 3997 3641 3322 
Q 3641 2881 3436 2590 
Q 3231 2300 2841 2188 
z
M 1259 4147 
L 1259 2491 
L 2053 2491 
Q 2509 2491 2742 2702 
Q 2975 2913 2975 3322 
Q 2975 3731 2742 3939 
Q 2509 4147 2053 4147 
L 1259 4147 
z
" transform="scale(0.015625)"/>
       <path id="DejaVuSans-53" d="M 3425 4513 
L 3425 3897 
Q 3066 4069 2747 4153 
Q 2428 4238 2131 4238 
Q 1616 4238 1336 4038 
Q 1056 3838 1056 3469 
Q 1056 3159 1242 3001 
Q 1428 2844 1947 2747 
L 2328 2669 
Q 3034 2534 3370 2195 
Q 3706 1856 3706 1288 
Q 3706 609 3251 259 
Q 2797 -91 1919 -91 
Q 1588 -91 1214 -16 
Q 841 59 441 206 
L 441 856 
Q 825 641 1194 531 
Q 1563 422 1919 422 
Q 2459 422 2753 634 
Q 3047 847 3047 1241 
Q 3047 1584 2836 1778 
Q 2625 1972 2144 2069 
L 1759 2144 
Q 1053 2284 737 2584 
Q 422 2884 422 3419 
Q 422 4038 858 4394 
Q 1294 4750 2059 4750 
Q 2388 4750 2728 4690 
Q 3069 4631 3425 4513 
z
" transform="scale(0.015625)"/>
      </defs>
      <use xlink:href="#DejaVuSans-4e"/>
      <use xlink:href="#DejaVuSans-52" x="74.804688"/>
      <use xlink:href="#DejaVuSans-4d" x="144.287109"/>
      <use xlink:href="#DejaVuSans-53" x="230.566406"/>
      <use xlink:href="#DejaVuSans-45" x="294.042969"/>
     </g>
    </g>
   </g>
   <g id="line2d_21">
    <path d="M 435.269252 65.069271 
L 467.30753 105.336225 
L 499.345807 127.219466 
L 531.384085 134.817467 
L 563.422362 139.934572 
L 595.46064 144.493488 
L 627.498917 146.779513 
L 659.537195 149.575729 
L 691.575472 150.21393 
L 723.61375 153.847554 
" clip-path="url(#pde46e39dce)" style="fill: none; stroke: #0077bb; stroke-width: 2; stroke-linecap: square"/>
   </g>
   <g id="line2d_22">
    <path d="M 435.269252 86.54048 
L 467.30753 110.160666 
L 499.345807 137.146443 
L 531.384085 141.905976 
L 563.422362 146.181594 
L 595.46064 150.343497 
L 627.498917 154.737105 
L 659.537195 154.785457 
L 691.575472 156.045413 
L 723.61375 156.207769 
" clip-path="url(#pde46e39dce)" style="fill: none; stroke: #009988; stroke-width: 2; stroke-linecap: square"/>
   </g>
   <g id="line2d_23">
    <path d="M 435.269252 82.941426 
L 467.30753 109.757681 
L 499.345807 130.871121 
L 531.384085 140.335369 
L 563.422362 144.327354 
L 595.46064 150.140787 
L 627.498917 153.800599 
L 659.537195 154.236398 
L 691.575472 155.646266 
L 723.61375 155.932932 
" clip-path="url(#pde46e39dce)" style="fill: none; stroke: #33bbee; stroke-width: 2; stroke-linecap: square"/>
   </g>
   <g id="line2d_24">
    <path d="M 435.269252 95.206451 
L 467.30753 120.508539 
L 499.345807 135.190664 
L 531.384085 140.961806 
L 563.422362 143.390751 
L 595.46064 145.997841 
L 627.498917 150.721239 
L 659.537195 150.952647 
L 691.575472 152.586282 
L 723.61375 154.996262 
" clip-path="url(#pde46e39dce)" style="fill: none; stroke: #997700; stroke-width: 2; stroke-linecap: square"/>
   </g>
   <g id="line2d_25">
    <path d="M 435.269252 94.027734 
L 467.30753 111.664885 
L 499.345807 135.21934 
L 531.384085 140.170489 
L 563.422362 145.23307 
L 595.46064 149.372259 
L 627.498917 153.044853 
L 659.537195 153.971205 
L 691.575472 155.54866 
L 723.61375 155.578087 
" clip-path="url(#pde46e39dce)" style="fill: none; stroke: #cc3311; stroke-width: 2; stroke-linecap: square"/>
   </g>
   <g id="patch_8">
    <path d="M 419.250114 165 
L 419.250114 39 
" style="fill: none; stroke: #000000; stroke-width: 1.5; stroke-linejoin: miter; stroke-linecap: square"/>
   </g>
   <g id="patch_9">
    <path d="M 723.61375 165 
L 723.61375 39 
" style="fill: none; stroke: #000000; stroke-width: 1.5; stroke-linejoin: miter; stroke-linecap: square"/>
   </g>
   <g id="patch_10">
    <path d="M 419.250114 165 
L 723.61375 165 
" style="fill: none; stroke: #000000; stroke-width: 1.5; stroke-linejoin: miter; stroke-linecap: square"/>
   </g>
   <g id="patch_11">
    <path d="M 419.250114 39 
L 723.61375 39 
" style="fill: none; stroke: #000000; stroke-width: 1.5; stroke-linejoin: miter; stroke-linecap: square"/>
   </g>
  </g>
  <g id="axes_3">
   <g id="patch_12">
    <path d="M 54.01375 316.2 
L 358.377386 316.2 
L 358.377386 190.2 
L 54.01375 190.2 
z
" style="fill: #ffffff"/>
   </g>
   <g id="PolyCollection_11">
    <defs>
     <path id="md474b5dd94" d="M 70.032889 -109.157279 
L 70.032889 -77.3964 
L 102.071166 -117.435665 
L 134.109444 -135.389821 
L 166.147721 -147.69905 
L 198.185999 -154.045593 
L 230.224276 -158.41958 
L 262.262554 -160.04083 
L 294.300831 -161.12726 
L 326.339109 -162.229336 
L 358.377386 -163.064858 
L 358.377386 -165.358824 
L 358.377386 -165.358824 
L 326.339109 -164.913313 
L 294.300831 -164.699382 
L 262.262554 -163.752224 
L 230.224276 -163.082427 
L 198.185999 -161.019245 
L 166.147721 -157.479761 
L 134.109444 -154.075118 
L 102.071166 -140.076467 
L 70.032889 -109.157279 
z
" style="stroke: #0077bb; stroke-opacity: 0.2"/>
    </defs>
    <g clip-path="url(#p0c6b1ba6bd)">
     <use xlink:href="#md474b5dd94" x="0" y="361.49875" style="fill: #0077bb; fill-opacity: 0.2; stroke: #0077bb; stroke-opacity: 0.2"/>
    </g>
   </g>
   <g id="PolyCollection_12">
    <defs>
     <path id="m9c32c9fe79" d="M 70.032889 -131.971388 
L 70.032889 -94.37581 
L 102.071166 -103.362591 
L 134.109444 -148.423641 
L 166.147721 -155.37707 
L 198.185999 -159.284289 
L 230.224276 -161.373235 
L 262.262554 -163.307562 
L 294.300831 -163.319923 
L 326.339109 -163.821664 
L 358.377386 -163.748941 
L 358.377386 -165.556583 
L 358.377386 -165.556583 
L 326.339109 -165.5528 
L 294.300831 -165.414076 
L 262.262554 -165.376988 
L 230.224276 -164.392907 
L 198.185999 -163.287649 
L 166.147721 -162.138423 
L 134.109444 -160.269986 
L 102.071166 -150.627144 
L 70.032889 -131.971388 
z
" style="stroke: #009988; stroke-opacity: 0.2"/>
    </defs>
    <g clip-path="url(#p0c6b1ba6bd)">
     <use xlink:href="#m9c32c9fe79" x="0" y="361.49875" style="fill: #009988; fill-opacity: 0.2; stroke: #009988; stroke-opacity: 0.2"/>
    </g>
   </g>
   <g id="PolyCollection_13">
    <defs>
     <path id="m28ef3f9f28" d="M 70.032889 -130.183494 
L 70.032889 -51.026023 
L 102.071166 -128.475754 
L 134.109444 -143.040272 
L 166.147721 -153.164429 
L 198.185999 -157.956896 
L 230.224276 -161.090692 
L 262.262554 -163.264849 
L 294.300831 -163.21304 
L 326.339109 -163.929278 
L 358.377386 -163.800305 
L 358.377386 -165.558013 
L 358.377386 -165.558013 
L 326.339109 -165.491639 
L 294.300831 -165.278605 
L 262.262554 -165.242309 
L 230.224276 -164.325542 
L 198.185999 -162.759026 
L 166.147721 -161.041003 
L 134.109444 -157.787371 
L 102.071166 -147.633891 
L 70.032889 -130.183494 
z
" style="stroke: #33bbee; stroke-opacity: 0.2"/>
    </defs>
    <g clip-path="url(#p0c6b1ba6bd)">
     <use xlink:href="#m28ef3f9f28" x="0" y="361.49875" style="fill: #33bbee; fill-opacity: 0.2; stroke: #33bbee; stroke-opacity: 0.2"/>
    </g>
   </g>
   <g id="PolyCollection_14">
    <defs>
     <path id="mc4485c5b54" d="M 70.032889 -139.544085 
L 70.032889 -116.882123 
L 102.071166 -135.691133 
L 134.109444 -147.817545 
L 166.147721 -155.328384 
L 198.185999 -158.434554 
L 230.224276 -160.202865 
L 262.262554 -162.750318 
L 294.300831 -162.564966 
L 326.339109 -163.256845 
L 358.377386 -163.687524 
L 358.377386 -165.522384 
L 358.377386 -165.522384 
L 326.339109 -165.256906 
L 294.300831 -164.950695 
L 262.262554 -164.957308 
L 230.224276 -163.614241 
L 198.185999 -162.789574 
L 166.147721 -161.822667 
L 134.109444 -159.192959 
L 102.071166 -152.727614 
L 70.032889 -139.544085 
z
" style="stroke: #997700; stroke-opacity: 0.2"/>
    </defs>
    <g clip-path="url(#p0c6b1ba6bd)">
     <use xlink:href="#mc4485c5b54" x="0" y="361.49875" style="fill: #997700; fill-opacity: 0.2; stroke: #997700; stroke-opacity: 0.2"/>
    </g>
   </g>
   <g id="PolyCollection_15">
    <defs>
     <path id="m908cddfdbd" d="M 70.032889 -136.265022 
L 70.032889 -109.4031 
L 102.071166 -129.544587 
L 134.109444 -145.578303 
L 166.147721 -153.563877 
L 198.185999 -158.765131 
L 230.224276 -161.023857 
L 262.262554 -162.80886 
L 294.300831 -163.252583 
L 326.339109 -163.776594 
L 358.377386 -163.608953 
L 358.377386 -165.540977 
L 358.377386 -165.540977 
L 326.339109 -165.571477 
L 294.300831 -165.258355 
L 262.262554 -165.104909 
L 230.224276 -164.170238 
L 198.185999 -163.00538 
L 166.147721 -161.401687 
L 134.109444 -159.5023 
L 102.071166 -148.624007 
L 70.032889 -136.265022 
z
" style="stroke: #cc3311; stroke-opacity: 0.2"/>
    </defs>
    <g clip-path="url(#p0c6b1ba6bd)">
     <use xlink:href="#m908cddfdbd" x="0" y="361.49875" style="fill: #cc3311; fill-opacity: 0.2; stroke: #cc3311; stroke-opacity: 0.2"/>
    </g>
   </g>
   <g id="matplotlib.axis_5">
    <g id="xtick_9">
     <g id="line2d_26">
      <g>
       <use xlink:href="#m53f08e2b56" x="118.090305" y="316.2" style="stroke: #000000; stroke-width: 0.8"/>
      </g>
     </g>
     <g id="text_20">
      <!-- 5 -->
      <g transform="translate(113.636555 333.837812) scale(0.14 -0.14)">
       <use xlink:href="#DejaVuSans-35"/>
      </g>
     </g>
    </g>
    <g id="xtick_10">
     <g id="line2d_27">
      <g>
       <use xlink:href="#m53f08e2b56" x="198.185999" y="316.2" style="stroke: #000000; stroke-width: 0.8"/>
      </g>
     </g>
     <g id="text_21">
      <!-- 10 -->
      <g transform="translate(189.278499 333.837812) scale(0.14 -0.14)">
       <use xlink:href="#DejaVuSans-31"/>
       <use xlink:href="#DejaVuSans-30" x="63.623047"/>
      </g>
     </g>
    </g>
    <g id="xtick_11">
     <g id="line2d_28">
      <g>
       <use xlink:href="#m53f08e2b56" x="278.281693" y="316.2" style="stroke: #000000; stroke-width: 0.8"/>
      </g>
     </g>
     <g id="text_22">
      <!-- 15 -->
      <g transform="translate(269.374193 333.837812) scale(0.14 -0.14)">
       <use xlink:href="#DejaVuSans-31"/>
       <use xlink:href="#DejaVuSans-35" x="63.623047"/>
      </g>
     </g>
    </g>
    <g id="xtick_12">
     <g id="line2d_29">
      <g>
       <use xlink:href="#m53f08e2b56" x="358.377386" y="316.2" style="stroke: #000000; stroke-width: 0.8"/>
      </g>
     </g>
     <g id="text_23">
      <!-- 20 -->
      <g transform="translate(349.469886 333.837812) scale(0.14 -0.14)">
       <use xlink:href="#DejaVuSans-32"/>
       <use xlink:href="#DejaVuSans-30" x="63.623047"/>
      </g>
     </g>
    </g>
    <g id="text_24">
     <!-- number of HF samples (d) -->
     <g transform="translate(114.936349 351.387187) scale(0.14 -0.14)">
      <defs>
       <path id="DejaVuSans-6e" d="M 3513 2113 
L 3513 0 
L 2938 0 
L 2938 2094 
Q 2938 2591 2744 2837 
Q 2550 3084 2163 3084 
Q 1697 3084 1428 2787 
Q 1159 2491 1159 1978 
L 1159 0 
L 581 0 
L 581 3500 
L 1159 3500 
L 1159 2956 
Q 1366 3272 1645 3428 
Q 1925 3584 2291 3584 
Q 2894 3584 3203 3211 
Q 3513 2838 3513 2113 
z
" transform="scale(0.015625)"/>
       <path id="DejaVuSans-75" d="M 544 1381 
L 544 3500 
L 1119 3500 
L 1119 1403 
Q 1119 906 1312 657 
Q 1506 409 1894 409 
Q 2359 409 2629 706 
Q 2900 1003 2900 1516 
L 2900 3500 
L 3475 3500 
L 3475 0 
L 2900 0 
L 2900 538 
Q 2691 219 2414 64 
Q 2138 -91 1772 -91 
Q 1169 -91 856 284 
Q 544 659 544 1381 
z
M 1991 3584 
L 1991 3584 
z
" transform="scale(0.015625)"/>
       <path id="DejaVuSans-6d" d="M 3328 2828 
Q 3544 3216 3844 3400 
Q 4144 3584 4550 3584 
Q 5097 3584 5394 3201 
Q 5691 2819 5691 2113 
L 5691 0 
L 5113 0 
L 5113 2094 
Q 5113 2597 4934 2840 
Q 4756 3084 4391 3084 
Q 3944 3084 3684 2787 
Q 3425 2491 3425 1978 
L 3425 0 
L 2847 0 
L 2847 2094 
Q 2847 2600 2669 2842 
Q 2491 3084 2119 3084 
Q 1678 3084 1418 2786 
Q 1159 2488 1159 1978 
L 1159 0 
L 581 0 
L 581 3500 
L 1159 3500 
L 1159 2956 
Q 1356 3278 1631 3431 
Q 1906 3584 2284 3584 
Q 2666 3584 2933 3390 
Q 3200 3197 3328 2828 
z
" transform="scale(0.015625)"/>
       <path id="DejaVuSans-62" d="M 3116 1747 
Q 3116 2381 2855 2742 
Q 2594 3103 2138 3103 
Q 1681 3103 1420 2742 
Q 1159 2381 1159 1747 
Q 1159 1113 1420 752 
Q 1681 391 2138 391 
Q 2594 391 2855 752 
Q 3116 1113 3116 1747 
z
M 1159 2969 
Q 1341 3281 1617 3432 
Q 1894 3584 2278 3584 
Q 2916 3584 3314 3078 
Q 3713 2572 3713 1747 
Q 3713 922 3314 415 
Q 2916 -91 2278 -91 
Q 1894 -91 1617 61 
Q 1341 213 1159 525 
L 1159 0 
L 581 0 
L 581 4863 
L 1159 4863 
L 1159 2969 
z
" transform="scale(0.015625)"/>
       <path id="DejaVuSans-65" d="M 3597 1894 
L 3597 1613 
L 953 1613 
Q 991 1019 1311 708 
Q 1631 397 2203 397 
Q 2534 397 2845 478 
Q 3156 559 3463 722 
L 3463 178 
Q 3153 47 2828 -22 
Q 2503 -91 2169 -91 
Q 1331 -91 842 396 
Q 353 884 353 1716 
Q 353 2575 817 3079 
Q 1281 3584 2069 3584 
Q 2775 3584 3186 3129 
Q 3597 2675 3597 1894 
z
M 3022 2063 
Q 3016 2534 2758 2815 
Q 2500 3097 2075 3097 
Q 1594 3097 1305 2825 
Q 1016 2553 972 2059 
L 3022 2063 
z
" transform="scale(0.015625)"/>
       <path id="DejaVuSans-72" d="M 2631 2963 
Q 2534 3019 2420 3045 
Q 2306 3072 2169 3072 
Q 1681 3072 1420 2755 
Q 1159 2438 1159 1844 
L 1159 0 
L 581 0 
L 581 3500 
L 1159 3500 
L 1159 2956 
Q 1341 3275 1631 3429 
Q 1922 3584 2338 3584 
Q 2397 3584 2469 3576 
Q 2541 3569 2628 3553 
L 2631 2963 
z
" transform="scale(0.015625)"/>
       <path id="DejaVuSans-6f" d="M 1959 3097 
Q 1497 3097 1228 2736 
Q 959 2375 959 1747 
Q 959 1119 1226 758 
Q 1494 397 1959 397 
Q 2419 397 2687 759 
Q 2956 1122 2956 1747 
Q 2956 2369 2687 2733 
Q 2419 3097 1959 3097 
z
M 1959 3584 
Q 2709 3584 3137 3096 
Q 3566 2609 3566 1747 
Q 3566 888 3137 398 
Q 2709 -91 1959 -91 
Q 1206 -91 779 398 
Q 353 888 353 1747 
Q 353 2609 779 3096 
Q 1206 3584 1959 3584 
z
" transform="scale(0.015625)"/>
       <path id="DejaVuSans-66" d="M 2375 4863 
L 2375 4384 
L 1825 4384 
Q 1516 4384 1395 4259 
Q 1275 4134 1275 3809 
L 1275 3500 
L 2222 3500 
L 2222 3053 
L 1275 3053 
L 1275 0 
L 697 0 
L 697 3053 
L 147 3053 
L 147 3500 
L 697 3500 
L 697 3744 
Q 697 4328 969 4595 
Q 1241 4863 1831 4863 
L 2375 4863 
z
" transform="scale(0.015625)"/>
       <path id="DejaVuSans-48" d="M 628 4666 
L 1259 4666 
L 1259 2753 
L 3553 2753 
L 3553 4666 
L 4184 4666 
L 4184 0 
L 3553 0 
L 3553 2222 
L 1259 2222 
L 1259 0 
L 628 0 
L 628 4666 
z
" transform="scale(0.015625)"/>
       <path id="DejaVuSans-46" d="M 628 4666 
L 3309 4666 
L 3309 4134 
L 1259 4134 
L 1259 2759 
L 3109 2759 
L 3109 2228 
L 1259 2228 
L 1259 0 
L 628 0 
L 628 4666 
z
" transform="scale(0.015625)"/>
       <path id="DejaVuSans-73" d="M 2834 3397 
L 2834 2853 
Q 2591 2978 2328 3040 
Q 2066 3103 1784 3103 
Q 1356 3103 1142 2972 
Q 928 2841 928 2578 
Q 928 2378 1081 2264 
Q 1234 2150 1697 2047 
L 1894 2003 
Q 2506 1872 2764 1633 
Q 3022 1394 3022 966 
Q 3022 478 2636 193 
Q 2250 -91 1575 -91 
Q 1294 -91 989 -36 
Q 684 19 347 128 
L 347 722 
Q 666 556 975 473 
Q 1284 391 1588 391 
Q 1994 391 2212 530 
Q 2431 669 2431 922 
Q 2431 1156 2273 1281 
Q 2116 1406 1581 1522 
L 1381 1569 
Q 847 1681 609 1914 
Q 372 2147 372 2553 
Q 372 3047 722 3315 
Q 1072 3584 1716 3584 
Q 2034 3584 2315 3537 
Q 2597 3491 2834 3397 
z
" transform="scale(0.015625)"/>
       <path id="DejaVuSans-61" d="M 2194 1759 
Q 1497 1759 1228 1600 
Q 959 1441 959 1056 
Q 959 750 1161 570 
Q 1363 391 1709 391 
Q 2188 391 2477 730 
Q 2766 1069 2766 1631 
L 2766 1759 
L 2194 1759 
z
M 3341 1997 
L 3341 0 
L 2766 0 
L 2766 531 
Q 2569 213 2275 61 
Q 1981 -91 1556 -91 
Q 1019 -91 701 211 
Q 384 513 384 1019 
Q 384 1609 779 1909 
Q 1175 2209 1959 2209 
L 2766 2209 
L 2766 2266 
Q 2766 2663 2505 2880 
Q 2244 3097 1772 3097 
Q 1472 3097 1187 3025 
Q 903 2953 641 2809 
L 641 3341 
Q 956 3463 1253 3523 
Q 1550 3584 1831 3584 
Q 2591 3584 2966 3190 
Q 3341 2797 3341 1997 
z
" transform="scale(0.015625)"/>
       <path id="DejaVuSans-70" d="M 1159 525 
L 1159 -1331 
L 581 -1331 
L 581 3500 
L 1159 3500 
L 1159 2969 
Q 1341 3281 1617 3432 
Q 1894 3584 2278 3584 
Q 2916 3584 3314 3078 
Q 3713 2572 3713 1747 
Q 3713 922 3314 415 
Q 2916 -91 2278 -91 
Q 1894 -91 1617 61 
Q 1341 213 1159 525 
z
M 3116 1747 
Q 3116 2381 2855 2742 
Q 2594 3103 2138 3103 
Q 1681 3103 1420 2742 
Q 1159 2381 1159 1747 
Q 1159 1113 1420 752 
Q 1681 391 2138 391 
Q 2594 391 2855 752 
Q 3116 1113 3116 1747 
z
" transform="scale(0.015625)"/>
       <path id="DejaVuSans-6c" d="M 603 4863 
L 1178 4863 
L 1178 0 
L 603 0 
L 603 4863 
z
" transform="scale(0.015625)"/>
       <path id="DejaVuSans-28" d="M 1984 4856 
Q 1566 4138 1362 3434 
Q 1159 2731 1159 2009 
Q 1159 1288 1364 580 
Q 1569 -128 1984 -844 
L 1484 -844 
Q 1016 -109 783 600 
Q 550 1309 550 2009 
Q 550 2706 781 3412 
Q 1013 4119 1484 4856 
L 1984 4856 
z
" transform="scale(0.015625)"/>
       <path id="DejaVuSans-64" d="M 2906 2969 
L 2906 4863 
L 3481 4863 
L 3481 0 
L 2906 0 
L 2906 525 
Q 2725 213 2448 61 
Q 2172 -91 1784 -91 
Q 1150 -91 751 415 
Q 353 922 353 1747 
Q 353 2572 751 3078 
Q 1150 3584 1784 3584 
Q 2172 3584 2448 3432 
Q 2725 3281 2906 2969 
z
M 947 1747 
Q 947 1113 1208 752 
Q 1469 391 1925 391 
Q 2381 391 2643 752 
Q 2906 1113 2906 1747 
Q 2906 2381 2643 2742 
Q 2381 3103 1925 3103 
Q 1469 3103 1208 2742 
Q 947 2381 947 1747 
z
" transform="scale(0.015625)"/>
       <path id="DejaVuSans-29" d="M 513 4856 
L 1013 4856 
Q 1481 4119 1714 3412 
Q 1947 2706 1947 2009 
Q 1947 1309 1714 600 
Q 1481 -109 1013 -844 
L 513 -844 
Q 928 -128 1133 580 
Q 1338 1288 1338 2009 
Q 1338 2731 1133 3434 
Q 928 4138 513 4856 
z
" transform="scale(0.015625)"/>
      </defs>
      <use xlink:href="#DejaVuSans-6e"/>
      <use xlink:href="#DejaVuSans-75" x="63.378906"/>
      <use xlink:href="#DejaVuSans-6d" x="126.757812"/>
      <use xlink:href="#DejaVuSans-62" x="224.169922"/>
      <use xlink:href="#DejaVuSans-65" x="287.646484"/>
      <use xlink:href="#DejaVuSans-72" x="349.169922"/>
      <use xlink:href="#DejaVuSans-20" x="390.283203"/>
      <use xlink:href="#DejaVuSans-6f" x="422.070312"/>
      <use xlink:href="#DejaVuSans-66" x="483.251953"/>
      <use xlink:href="#DejaVuSans-20" x="518.457031"/>
      <use xlink:href="#DejaVuSans-48" x="550.244141"/>
      <use xlink:href="#DejaVuSans-46" x="625.439453"/>
      <use xlink:href="#DejaVuSans-20" x="682.958984"/>
      <use xlink:href="#DejaVuSans-73" x="714.746094"/>
      <use xlink:href="#DejaVuSans-61" x="766.845703"/>
      <use xlink:href="#DejaVuSans-6d" x="828.125"/>
      <use xlink:href="#DejaVuSans-70" x="925.537109"/>
      <use xlink:href="#DejaVuSans-6c" x="989.013672"/>
      <use xlink:href="#DejaVuSans-65" x="1016.796875"/>
      <use xlink:href="#DejaVuSans-73" x="1078.320312"/>
      <use xlink:href="#DejaVuSans-20" x="1130.419922"/>
      <use xlink:href="#DejaVuSans-28" x="1162.207031"/>
      <use xlink:href="#DejaVuSans-64" x="1201.220703"/>
      <use xlink:href="#DejaVuSans-29" x="1264.697266"/>
     </g>
    </g>
   </g>
   <g id="matplotlib.axis_6">
    <g id="ytick_8">
     <g id="line2d_30">
      <g>
       <use xlink:href="#m5f6b895e0c" x="54.01375" y="313.019815" style="stroke: #000000; stroke-width: 0.8"/>
      </g>
     </g>
     <g id="text_25">
      <!-- 0.0 -->
      <g transform="translate(24.749375 318.338721) scale(0.14 -0.14)">
       <use xlink:href="#DejaVuSans-30"/>
       <use xlink:href="#DejaVuSans-2e" x="63.623047"/>
       <use xlink:href="#DejaVuSans-30" x="95.410156"/>
      </g>
     </g>
    </g>
    <g id="ytick_9">
     <g id="line2d_31">
      <g>
       <use xlink:href="#m5f6b895e0c" x="54.01375" y="254.274536" style="stroke: #000000; stroke-width: 0.8"/>
      </g>
     </g>
     <g id="text_26">
      <!-- 0.5 -->
      <g transform="translate(24.749375 259.593442) scale(0.14 -0.14)">
       <use xlink:href="#DejaVuSans-30"/>
       <use xlink:href="#DejaVuSans-2e" x="63.623047"/>
       <use xlink:href="#DejaVuSans-35" x="95.410156"/>
      </g>
     </g>
    </g>
    <g id="ytick_10">
     <g id="line2d_32">
      <g>
       <use xlink:href="#m5f6b895e0c" x="54.01375" y="195.529256" style="stroke: #000000; stroke-width: 0.8"/>
      </g>
     </g>
     <g id="text_27">
      <!-- 1.0 -->
      <g transform="translate(24.749375 200.848163) scale(0.14 -0.14)">
       <use xlink:href="#DejaVuSans-31"/>
       <use xlink:href="#DejaVuSans-2e" x="63.623047"/>
       <use xlink:href="#DejaVuSans-30" x="95.410156"/>
      </g>
     </g>
    </g>
    <g id="text_28">
     <!-- R2 Score -->
     <g transform="translate(17.837813 284.345625) rotate(-90) scale(0.14 -0.14)">
      <defs>
       <path id="DejaVuSans-63" d="M 3122 3366 
L 3122 2828 
Q 2878 2963 2633 3030 
Q 2388 3097 2138 3097 
Q 1578 3097 1268 2742 
Q 959 2388 959 1747 
Q 959 1106 1268 751 
Q 1578 397 2138 397 
Q 2388 397 2633 464 
Q 2878 531 3122 666 
L 3122 134 
Q 2881 22 2623 -34 
Q 2366 -91 2075 -91 
Q 1284 -91 818 406 
Q 353 903 353 1747 
Q 353 2603 823 3093 
Q 1294 3584 2113 3584 
Q 2378 3584 2631 3529 
Q 2884 3475 3122 3366 
z
" transform="scale(0.015625)"/>
      </defs>
      <use xlink:href="#DejaVuSans-52"/>
      <use xlink:href="#DejaVuSans-32" x="69.482422"/>
      <use xlink:href="#DejaVuSans-20" x="133.105469"/>
      <use xlink:href="#DejaVuSans-53" x="164.892578"/>
      <use xlink:href="#DejaVuSans-63" x="228.369141"/>
      <use xlink:href="#DejaVuSans-6f" x="283.349609"/>
      <use xlink:href="#DejaVuSans-72" x="344.53125"/>
      <use xlink:href="#DejaVuSans-65" x="383.394531"/>
     </g>
    </g>
   </g>
   <g id="line2d_33">
    <path d="M 70.032889 267.956138 
L 102.071166 232.904396 
L 134.109444 216.425197 
L 166.147721 208.790331 
L 198.185999 203.700559 
L 230.224276 200.390835 
L 262.262554 199.53843 
L 294.300831 198.380326 
L 326.339109 197.897648 
L 358.377386 197.205696 
" clip-path="url(#p0c6b1ba6bd)" style="fill: none; stroke: #0077bb; stroke-width: 2; stroke-linecap: square"/>
   </g>
   <g id="line2d_34">
    <path d="M 70.032889 247.521996 
L 102.071166 229.916158 
L 134.109444 206.503427 
L 166.147721 202.461751 
L 198.185999 200.076588 
L 230.224276 198.644814 
L 262.262554 197.108031 
L 294.300831 197.087892 
L 326.339109 196.73738 
L 358.377386 196.762593 
" clip-path="url(#p0c6b1ba6bd)" style="fill: none; stroke: #009988; stroke-width: 2; stroke-linecap: square"/>
   </g>
   <g id="line2d_35">
    <path d="M 70.032889 263.788716 
L 102.071166 222.510634 
L 134.109444 210.123118 
L 166.147721 204.008615 
L 198.185999 200.953252 
L 230.224276 198.647808 
L 262.262554 197.147099 
L 294.300831 197.187722 
L 326.339109 196.720019 
L 358.377386 196.711339 
" clip-path="url(#p0c6b1ba6bd)" style="fill: none; stroke: #33bbee; stroke-width: 2; stroke-linecap: square"/>
   </g>
   <g id="line2d_36">
    <path d="M 70.032889 233.212508 
L 102.071166 216.169527 
L 134.109444 207.676679 
L 166.147721 202.753806 
L 198.185999 200.798816 
L 230.224276 199.566131 
L 262.262554 197.667466 
L 294.300831 197.68477 
L 326.339109 197.157584 
L 358.377386 196.777888 
" clip-path="url(#p0c6b1ba6bd)" style="fill: none; stroke: #997700; stroke-width: 2; stroke-linecap: square"/>
   </g>
   <g id="line2d_37">
    <path d="M 70.032889 238.06809 
L 102.071166 222.527951 
L 134.109444 208.205753 
L 166.147721 203.772788 
L 198.185999 200.47974 
L 230.224276 198.714514 
L 262.262554 197.460464 
L 294.300831 197.088576 
L 326.339109 196.778761 
L 358.377386 196.831493 
" clip-path="url(#p0c6b1ba6bd)" style="fill: none; stroke: #cc3311; stroke-width: 2; stroke-linecap: square"/>
   </g>
   <g id="patch_13">
    <path d="M 54.01375 316.2 
L 54.01375 190.2 
" style="fill: none; stroke: #000000; stroke-width: 1.5; stroke-linejoin: miter; stroke-linecap: square"/>
   </g>
   <g id="patch_14">
    <path d="M 358.377386 316.2 
L 358.377386 190.2 
" style="fill: none; stroke: #000000; stroke-width: 1.5; stroke-linejoin: miter; stroke-linecap: square"/>
   </g>
   <g id="patch_15">
    <path d="M 54.01375 316.2 
L 358.377386 316.2 
" style="fill: none; stroke: #000000; stroke-width: 1.5; stroke-linejoin: miter; stroke-linecap: square"/>
   </g>
   <g id="patch_16">
    <path d="M 54.01375 190.2 
L 358.377386 190.2 
" style="fill: none; stroke: #000000; stroke-width: 1.5; stroke-linejoin: miter; stroke-linecap: square"/>
   </g>
  </g>
  <g id="axes_4">
   <g id="patch_17">
    <path d="M 419.250114 316.2 
L 723.61375 316.2 
L 723.61375 190.2 
L 419.250114 190.2 
z
" style="fill: #ffffff"/>
   </g>
   <g id="PolyCollection_16">
    <defs>
     <path id="mdb6a53b4ea" d="M 435.269252 -47.216151 
L 435.269252 -46.959961 
L 467.30753 -47.212841 
L 499.345807 -47.603045 
L 531.384085 -47.912873 
L 563.422362 -48.184688 
L 595.46064 -48.412691 
L 627.498917 -48.782041 
L 659.537195 -49.340844 
L 691.575472 -49.705517 
L 723.61375 -50.211452 
L 723.61375 -52.76241 
L 723.61375 -52.76241 
L 691.575472 -51.824264 
L 659.537195 -51.284272 
L 627.498917 -50.221191 
L 595.46064 -49.61528 
L 563.422362 -49.064872 
L 531.384085 -48.61956 
L 499.345807 -48.061598 
L 467.30753 -47.592617 
L 435.269252 -47.216151 
z
" style="stroke: #0077bb; stroke-opacity: 0.2"/>
    </defs>
    <g clip-path="url(#p2c7a80f978)">
     <use xlink:href="#mdb6a53b4ea" x="0" y="361.49875" style="fill: #0077bb; fill-opacity: 0.2; stroke: #0077bb; stroke-opacity: 0.2"/>
    </g>
   </g>
   <g id="PolyCollection_17">
    <defs>
     <path id="medb69b0276" d="M 435.269252 -115.794065 
L 435.269252 -82.148184 
L 467.30753 -82.478337 
L 499.345807 -81.839709 
L 531.384085 -82.926899 
L 563.422362 -84.667662 
L 595.46064 -83.794076 
L 627.498917 -86.080374 
L 659.537195 -87.53962 
L 691.575472 -87.670952 
L 723.61375 -86.231922 
L 723.61375 -129.186475 
L 723.61375 -129.186475 
L 691.575472 -135.558052 
L 659.537195 -129.671862 
L 627.498917 -125.183593 
L 595.46064 -127.557009 
L 563.422362 -127.207969 
L 531.384085 -124.917279 
L 499.345807 -123.104279 
L 467.30753 -122.501487 
L 435.269252 -115.794065 
z
" style="stroke: #009988; stroke-opacity: 0.2"/>
    </defs>
    <g clip-path="url(#p2c7a80f978)">
     <use xlink:href="#medb69b0276" x="0" y="361.49875" style="fill: #009988; fill-opacity: 0.2; stroke: #009988; stroke-opacity: 0.2"/>
    </g>
   </g>
   <g id="PolyCollection_18">
    <defs>
     <path id="m77a7a1968f" d="M 435.269252 -149.885969 
L 435.269252 -99.542461 
L 467.30753 -100.217441 
L 499.345807 -101.008042 
L 531.384085 -100.417152 
L 563.422362 -103.075806 
L 595.46064 -105.130078 
L 627.498917 -105.324526 
L 659.537195 -103.58468 
L 691.575472 -107.996083 
L 723.61375 -109.823699 
L 723.61375 -167.344769 
L 723.61375 -167.344769 
L 691.575472 -162.595341 
L 659.537195 -159.40011 
L 627.498917 -164.357414 
L 595.46064 -160.896243 
L 563.422362 -163.778263 
L 531.384085 -154.620815 
L 499.345807 -155.413836 
L 467.30753 -149.587378 
L 435.269252 -149.885969 
z
" style="stroke: #33bbee; stroke-opacity: 0.2"/>
    </defs>
    <g clip-path="url(#p2c7a80f978)">
     <use xlink:href="#m77a7a1968f" x="0" y="361.49875" style="fill: #33bbee; fill-opacity: 0.2; stroke: #33bbee; stroke-opacity: 0.2"/>
    </g>
   </g>
   <g id="PolyCollection_19">
    <defs>
     <path id="m2fd46f0ed7" d="M 435.269252 -136.835606 
L 435.269252 -86.84535 
L 467.30753 -92.137861 
L 499.345807 -88.244965 
L 531.384085 -88.132284 
L 563.422362 -93.70588 
L 595.46064 -92.370634 
L 627.498917 -90.994531 
L 659.537195 -92.123772 
L 691.575472 -92.692502 
L 723.61375 -90.956563 
L 723.61375 -139.505184 
L 723.61375 -139.505184 
L 691.575472 -144.472475 
L 659.537195 -143.230087 
L 627.498917 -138.093075 
L 595.46064 -131.63066 
L 563.422362 -142.436824 
L 531.384085 -130.076976 
L 499.345807 -130.512991 
L 467.30753 -132.437525 
L 435.269252 -136.835606 
z
" style="stroke: #997700; stroke-opacity: 0.2"/>
    </defs>
    <g clip-path="url(#p2c7a80f978)">
     <use xlink:href="#m2fd46f0ed7" x="0" y="361.49875" style="fill: #997700; fill-opacity: 0.2; stroke: #997700; stroke-opacity: 0.2"/>
    </g>
   </g>
   <g id="PolyCollection_20">
    <defs>
     <path id="mf467d9bac1" d="M 435.269252 -53.944996 
L 435.269252 -49.86339 
L 467.30753 -50.139792 
L 499.345807 -50.439009 
L 531.384085 -51.003737 
L 563.422362 -51.666048 
L 595.46064 -51.726675 
L 627.498917 -51.662574 
L 659.537195 -52.416167 
L 691.575472 -52.540613 
L 723.61375 -52.828903 
L 723.61375 -57.591134 
L 723.61375 -57.591134 
L 691.575472 -57.512721 
L 659.537195 -56.913912 
L 627.498917 -56.28121 
L 595.46064 -56.080075 
L 563.422362 -57.464892 
L 531.384085 -55.419916 
L 499.345807 -53.521045 
L 467.30753 -54.131802 
L 435.269252 -53.944996 
z
" style="stroke: #cc3311; stroke-opacity: 0.2"/>
    </defs>
    <g clip-path="url(#p2c7a80f978)">
     <use xlink:href="#mf467d9bac1" x="0" y="361.49875" style="fill: #cc3311; fill-opacity: 0.2; stroke: #cc3311; stroke-opacity: 0.2"/>
    </g>
   </g>
   <g id="matplotlib.axis_7">
    <g id="xtick_13">
     <g id="line2d_38">
      <g>
       <use xlink:href="#m53f08e2b56" x="483.326669" y="316.2" style="stroke: #000000; stroke-width: 0.8"/>
      </g>
     </g>
     <g id="text_29">
      <!-- 5 -->
      <g transform="translate(478.872919 333.837812) scale(0.14 -0.14)">
       <use xlink:href="#DejaVuSans-35"/>
      </g>
     </g>
    </g>
    <g id="xtick_14">
     <g id="line2d_39">
      <g>
       <use xlink:href="#m53f08e2b56" x="563.422362" y="316.2" style="stroke: #000000; stroke-width: 0.8"/>
      </g>
     </g>
     <g id="text_30">
      <!-- 10 -->
      <g transform="translate(554.514862 333.837812) scale(0.14 -0.14)">
       <use xlink:href="#DejaVuSans-31"/>
       <use xlink:href="#DejaVuSans-30" x="63.623047"/>
      </g>
     </g>
    </g>
    <g id="xtick_15">
     <g id="line2d_40">
      <g>
       <use xlink:href="#m53f08e2b56" x="643.518056" y="316.2" style="stroke: #000000; stroke-width: 0.8"/>
      </g>
     </g>
     <g id="text_31">
      <!-- 15 -->
      <g transform="translate(634.610556 333.837812) scale(0.14 -0.14)">
       <use xlink:href="#DejaVuSans-31"/>
       <use xlink:href="#DejaVuSans-35" x="63.623047"/>
      </g>
     </g>
    </g>
    <g id="xtick_16">
     <g id="line2d_41">
      <g>
       <use xlink:href="#m53f08e2b56" x="723.61375" y="316.2" style="stroke: #000000; stroke-width: 0.8"/>
      </g>
     </g>
     <g id="text_32">
      <!-- 20 -->
      <g transform="translate(714.70625 333.837812) scale(0.14 -0.14)">
       <use xlink:href="#DejaVuSans-32"/>
       <use xlink:href="#DejaVuSans-30" x="63.623047"/>
      </g>
     </g>
    </g>
    <g id="text_33">
     <!-- number of HF samples (d) -->
     <g transform="translate(480.172713 351.387187) scale(0.14 -0.14)">
      <use xlink:href="#DejaVuSans-6e"/>
      <use xlink:href="#DejaVuSans-75" x="63.378906"/>
      <use xlink:href="#DejaVuSans-6d" x="126.757812"/>
      <use xlink:href="#DejaVuSans-62" x="224.169922"/>
      <use xlink:href="#DejaVuSans-65" x="287.646484"/>
      <use xlink:href="#DejaVuSans-72" x="349.169922"/>
      <use xlink:href="#DejaVuSans-20" x="390.283203"/>
      <use xlink:href="#DejaVuSans-6f" x="422.070312"/>
      <use xlink:href="#DejaVuSans-66" x="483.251953"/>
      <use xlink:href="#DejaVuSans-20" x="518.457031"/>
      <use xlink:href="#DejaVuSans-48" x="550.244141"/>
      <use xlink:href="#DejaVuSans-46" x="625.439453"/>
      <use xlink:href="#DejaVuSans-20" x="682.958984"/>
      <use xlink:href="#DejaVuSans-73" x="714.746094"/>
      <use xlink:href="#DejaVuSans-61" x="766.845703"/>
      <use xlink:href="#DejaVuSans-6d" x="828.125"/>
      <use xlink:href="#DejaVuSans-70" x="925.537109"/>
      <use xlink:href="#DejaVuSans-6c" x="989.013672"/>
      <use xlink:href="#DejaVuSans-65" x="1016.796875"/>
      <use xlink:href="#DejaVuSans-73" x="1078.320312"/>
      <use xlink:href="#DejaVuSans-20" x="1130.419922"/>
      <use xlink:href="#DejaVuSans-28" x="1162.207031"/>
      <use xlink:href="#DejaVuSans-64" x="1201.220703"/>
      <use xlink:href="#DejaVuSans-29" x="1264.697266"/>
     </g>
    </g>
   </g>
   <g id="matplotlib.axis_8">
    <g id="ytick_11">
     <g id="line2d_42">
      <g>
       <use xlink:href="#m5f6b895e0c" x="419.250114" y="314.952475" style="stroke: #000000; stroke-width: 0.8"/>
      </g>
     </g>
     <g id="text_34">
      <!-- 0 -->
      <g transform="translate(403.342614 320.271381) scale(0.14 -0.14)">
       <use xlink:href="#DejaVuSans-30"/>
      </g>
     </g>
    </g>
    <g id="ytick_12">
     <g id="line2d_43">
      <g>
       <use xlink:href="#m5f6b895e0c" x="419.250114" y="252.576238" style="stroke: #000000; stroke-width: 0.8"/>
      </g>
     </g>
     <g id="text_35">
      <!-- 50 -->
      <g transform="translate(394.435114 257.895144) scale(0.14 -0.14)">
       <use xlink:href="#DejaVuSans-35"/>
       <use xlink:href="#DejaVuSans-30" x="63.623047"/>
      </g>
     </g>
    </g>
    <g id="ytick_13">
     <g id="line2d_44">
      <g>
       <use xlink:href="#m5f6b895e0c" x="419.250114" y="190.2" style="stroke: #000000; stroke-width: 0.8"/>
      </g>
     </g>
     <g id="text_36">
      <!-- 100 -->
      <g transform="translate(385.527614 195.518906) scale(0.14 -0.14)">
       <use xlink:href="#DejaVuSans-31"/>
       <use xlink:href="#DejaVuSans-30" x="63.623047"/>
       <use xlink:href="#DejaVuSans-30" x="127.246094"/>
      </g>
     </g>
    </g>
    <g id="text_37">
     <!-- CPU time (s) -->
     <g transform="translate(378.616051 296.804531) rotate(-90) scale(0.14 -0.14)">
      <defs>
       <path id="DejaVuSans-43" d="M 4122 4306 
L 4122 3641 
Q 3803 3938 3442 4084 
Q 3081 4231 2675 4231 
Q 1875 4231 1450 3742 
Q 1025 3253 1025 2328 
Q 1025 1406 1450 917 
Q 1875 428 2675 428 
Q 3081 428 3442 575 
Q 3803 722 4122 1019 
L 4122 359 
Q 3791 134 3420 21 
Q 3050 -91 2638 -91 
Q 1578 -91 968 557 
Q 359 1206 359 2328 
Q 359 3453 968 4101 
Q 1578 4750 2638 4750 
Q 3056 4750 3426 4639 
Q 3797 4528 4122 4306 
z
" transform="scale(0.015625)"/>
       <path id="DejaVuSans-50" d="M 1259 4147 
L 1259 2394 
L 2053 2394 
Q 2494 2394 2734 2622 
Q 2975 2850 2975 3272 
Q 2975 3691 2734 3919 
Q 2494 4147 2053 4147 
L 1259 4147 
z
M 628 4666 
L 2053 4666 
Q 2838 4666 3239 4311 
Q 3641 3956 3641 3272 
Q 3641 2581 3239 2228 
Q 2838 1875 2053 1875 
L 1259 1875 
L 1259 0 
L 628 0 
L 628 4666 
z
" transform="scale(0.015625)"/>
       <path id="DejaVuSans-55" d="M 556 4666 
L 1191 4666 
L 1191 1831 
Q 1191 1081 1462 751 
Q 1734 422 2344 422 
Q 2950 422 3222 751 
Q 3494 1081 3494 1831 
L 3494 4666 
L 4128 4666 
L 4128 1753 
Q 4128 841 3676 375 
Q 3225 -91 2344 -91 
Q 1459 -91 1007 375 
Q 556 841 556 1753 
L 556 4666 
z
" transform="scale(0.015625)"/>
       <path id="DejaVuSans-74" d="M 1172 4494 
L 1172 3500 
L 2356 3500 
L 2356 3053 
L 1172 3053 
L 1172 1153 
Q 1172 725 1289 603 
Q 1406 481 1766 481 
L 2356 481 
L 2356 0 
L 1766 0 
Q 1100 0 847 248 
Q 594 497 594 1153 
L 594 3053 
L 172 3053 
L 172 3500 
L 594 3500 
L 594 4494 
L 1172 4494 
z
" transform="scale(0.015625)"/>
       <path id="DejaVuSans-69" d="M 603 3500 
L 1178 3500 
L 1178 0 
L 603 0 
L 603 3500 
z
M 603 4863 
L 1178 4863 
L 1178 4134 
L 603 4134 
L 603 4863 
z
" transform="scale(0.015625)"/>
      </defs>
      <use xlink:href="#DejaVuSans-43"/>
      <use xlink:href="#DejaVuSans-50" x="69.824219"/>
      <use xlink:href="#DejaVuSans-55" x="130.126953"/>
      <use xlink:href="#DejaVuSans-20" x="203.320312"/>
      <use xlink:href="#DejaVuSans-74" x="235.107422"/>
      <use xlink:href="#DejaVuSans-69" x="274.316406"/>
      <use xlink:href="#DejaVuSans-6d" x="302.099609"/>
      <use xlink:href="#DejaVuSans-65" x="399.511719"/>
      <use xlink:href="#DejaVuSans-20" x="461.035156"/>
      <use xlink:href="#DejaVuSans-28" x="492.822266"/>
      <use xlink:href="#DejaVuSans-73" x="531.835938"/>
      <use xlink:href="#DejaVuSans-29" x="583.935547"/>
     </g>
    </g>
   </g>
   <g id="line2d_45">
    <path d="M 435.269252 314.409845 
L 467.30753 314.105319 
L 499.345807 313.677006 
L 531.384085 313.248471 
L 563.422362 312.893012 
L 595.46064 312.520753 
L 627.498917 312.006385 
L 659.537195 311.219153 
L 691.575472 310.797741 
L 723.61375 310.066904 
" clip-path="url(#p2c7a80f978)" style="fill: none; stroke: #0077bb; stroke-width: 2; stroke-linecap: square"/>
   </g>
   <g id="line2d_46">
    <path d="M 435.269252 264.106952 
L 467.30753 261.778028 
L 499.345807 260.004393 
L 531.384085 260.396317 
L 563.422362 257.220105 
L 595.46064 258.556549 
L 627.498917 256.960207 
L 659.537195 254.626848 
L 691.575472 252.706478 
L 723.61375 255.699756 
" clip-path="url(#p2c7a80f978)" style="fill: none; stroke: #009988; stroke-width: 2; stroke-linecap: square"/>
   </g>
   <g id="line2d_47">
    <path d="M 435.269252 238.25163 
L 467.30753 239.058535 
L 499.345807 234.991239 
L 531.384085 234.493786 
L 563.422362 231.092292 
L 595.46064 231.922478 
L 627.498917 229.69664 
L 659.537195 231.466508 
L 691.575472 229.148059 
L 723.61375 226.186773 
" clip-path="url(#p2c7a80f978)" style="fill: none; stroke: #33bbee; stroke-width: 2; stroke-linecap: square"/>
   </g>
   <g id="line2d_48">
    <path d="M 435.269252 251.349286 
L 467.30753 250.770871 
L 499.345807 254.399311 
L 531.384085 253.427948 
L 563.422362 245.555103 
L 595.46064 250.879209 
L 627.498917 248.801452 
L 659.537195 246.365735 
L 691.575472 244.378908 
L 723.61375 249.073263 
" clip-path="url(#p2c7a80f978)" style="fill: none; stroke: #997700; stroke-width: 2; stroke-linecap: square"/>
   </g>
   <g id="line2d_49">
    <path d="M 435.269252 309.683012 
L 467.30753 309.521466 
L 499.345807 309.607552 
L 531.384085 308.394531 
L 563.422362 306.982478 
L 595.46064 307.750151 
L 627.498917 307.704619 
L 659.537195 306.926688 
L 691.575472 306.688159 
L 723.61375 306.380527 
" clip-path="url(#p2c7a80f978)" style="fill: none; stroke: #cc3311; stroke-width: 2; stroke-linecap: square"/>
   </g>
   <g id="patch_18">
    <path d="M 419.250114 316.2 
L 419.250114 190.2 
" style="fill: none; stroke: #000000; stroke-width: 1.5; stroke-linejoin: miter; stroke-linecap: square"/>
   </g>
   <g id="patch_19">
    <path d="M 723.61375 316.2 
L 723.61375 190.2 
" style="fill: none; stroke: #000000; stroke-width: 1.5; stroke-linejoin: miter; stroke-linecap: square"/>
   </g>
   <g id="patch_20">
    <path d="M 419.250114 316.2 
L 723.61375 316.2 
" style="fill: none; stroke: #000000; stroke-width: 1.5; stroke-linejoin: miter; stroke-linecap: square"/>
   </g>
   <g id="patch_21">
    <path d="M 419.250114 190.2 
L 723.61375 190.2 
" style="fill: none; stroke: #000000; stroke-width: 1.5; stroke-linejoin: miter; stroke-linecap: square"/>
   </g>
   <g id="legend_1">
    <g id="patch_22">
     <path d="M 54.28 28.41375 
L 723.3475 28.41375 
Q 725.7475 28.41375 725.7475 26.01375 
L 725.7475 9.6 
Q 725.7475 7.2 723.3475 7.2 
L 54.28 7.2 
Q 51.88 7.2 51.88 9.6 
L 51.88 26.01375 
Q 51.88 28.41375 54.28 28.41375 
z
" style="fill: #ffffff; opacity: 0.8; stroke: #cccccc; stroke-linejoin: miter"/>
    </g>
    <g id="line2d_50">
     <path d="M 56.68 16.918125 
L 68.68 16.918125 
L 80.68 16.918125 
" style="fill: none; stroke: #0077bb; stroke-width: 2; stroke-linecap: square"/>
    </g>
    <g id="text_38">
     <!-- Kriging -->
     <g transform="translate(90.28 21.118125) scale(0.12 -0.12)">
      <defs>
       <path id="DejaVuSans-4b" d="M 628 4666 
L 1259 4666 
L 1259 2694 
L 3353 4666 
L 4166 4666 
L 1850 2491 
L 4331 0 
L 3500 0 
L 1259 2247 
L 1259 0 
L 628 0 
L 628 4666 
z
" transform="scale(0.015625)"/>
       <path id="DejaVuSans-67" d="M 2906 1791 
Q 2906 2416 2648 2759 
Q 2391 3103 1925 3103 
Q 1463 3103 1205 2759 
Q 947 2416 947 1791 
Q 947 1169 1205 825 
Q 1463 481 1925 481 
Q 2391 481 2648 825 
Q 2906 1169 2906 1791 
z
M 3481 434 
Q 3481 -459 3084 -895 
Q 2688 -1331 1869 -1331 
Q 1566 -1331 1297 -1286 
Q 1028 -1241 775 -1147 
L 775 -588 
Q 1028 -725 1275 -790 
Q 1522 -856 1778 -856 
Q 2344 -856 2625 -561 
Q 2906 -266 2906 331 
L 2906 616 
Q 2728 306 2450 153 
Q 2172 0 1784 0 
Q 1141 0 747 490 
Q 353 981 353 1791 
Q 353 2603 747 3093 
Q 1141 3584 1784 3584 
Q 2172 3584 2450 3431 
Q 2728 3278 2906 2969 
L 2906 3500 
L 3481 3500 
L 3481 434 
z
" transform="scale(0.015625)"/>
      </defs>
      <use xlink:href="#DejaVuSans-4b"/>
      <use xlink:href="#DejaVuSans-72" x="65.576172"/>
      <use xlink:href="#DejaVuSans-69" x="106.689453"/>
      <use xlink:href="#DejaVuSans-67" x="134.472656"/>
      <use xlink:href="#DejaVuSans-69" x="197.949219"/>
      <use xlink:href="#DejaVuSans-6e" x="225.732422"/>
      <use xlink:href="#DejaVuSans-67" x="289.111328"/>
     </g>
    </g>
    <g id="line2d_51">
     <path d="M 156.59125 16.918125 
L 168.59125 16.918125 
L 180.59125 16.918125 
" style="fill: none; stroke: #009988; stroke-width: 2; stroke-linecap: square"/>
    </g>
    <g id="text_39">
     <!-- Hierarchical Kriging -->
     <g transform="translate(190.19125 21.118125) scale(0.12 -0.12)">
      <defs>
       <path id="DejaVuSans-68" d="M 3513 2113 
L 3513 0 
L 2938 0 
L 2938 2094 
Q 2938 2591 2744 2837 
Q 2550 3084 2163 3084 
Q 1697 3084 1428 2787 
Q 1159 2491 1159 1978 
L 1159 0 
L 581 0 
L 581 4863 
L 1159 4863 
L 1159 2956 
Q 1366 3272 1645 3428 
Q 1925 3584 2291 3584 
Q 2894 3584 3203 3211 
Q 3513 2838 3513 2113 
z
" transform="scale(0.015625)"/>
      </defs>
      <use xlink:href="#DejaVuSans-48"/>
      <use xlink:href="#DejaVuSans-69" x="75.195312"/>
      <use xlink:href="#DejaVuSans-65" x="102.978516"/>
      <use xlink:href="#DejaVuSans-72" x="164.501953"/>
      <use xlink:href="#DejaVuSans-61" x="205.615234"/>
      <use xlink:href="#DejaVuSans-72" x="266.894531"/>
      <use xlink:href="#DejaVuSans-63" x="305.757812"/>
      <use xlink:href="#DejaVuSans-68" x="360.738281"/>
      <use xlink:href="#DejaVuSans-69" x="424.117188"/>
      <use xlink:href="#DejaVuSans-63" x="451.900391"/>
      <use xlink:href="#DejaVuSans-61" x="506.880859"/>
      <use xlink:href="#DejaVuSans-6c" x="568.160156"/>
      <use xlink:href="#DejaVuSans-20" x="595.943359"/>
      <use xlink:href="#DejaVuSans-4b" x="627.730469"/>
      <use xlink:href="#DejaVuSans-72" x="693.306641"/>
      <use xlink:href="#DejaVuSans-69" x="734.419922"/>
      <use xlink:href="#DejaVuSans-67" x="762.203125"/>
      <use xlink:href="#DejaVuSans-69" x="825.679688"/>
      <use xlink:href="#DejaVuSans-6e" x="853.462891"/>
      <use xlink:href="#DejaVuSans-67" x="916.841797"/>
     </g>
    </g>
    <g id="line2d_52">
     <path d="M 331.830625 16.918125 
L 343.830625 16.918125 
L 355.830625 16.918125 
" style="fill: none; stroke: #33bbee; stroke-width: 2; stroke-linecap: square"/>
    </g>
    <g id="text_40">
     <!-- Co-Kriging -->
     <g transform="translate(365.430625 21.118125) scale(0.12 -0.12)">
      <defs>
       <path id="DejaVuSans-2d" d="M 313 2009 
L 1997 2009 
L 1997 1497 
L 313 1497 
L 313 2009 
z
" transform="scale(0.015625)"/>
      </defs>
      <use xlink:href="#DejaVuSans-43"/>
      <use xlink:href="#DejaVuSans-6f" x="69.824219"/>
      <use xlink:href="#DejaVuSans-2d" x="132.880859"/>
      <use xlink:href="#DejaVuSans-4b" x="168.964844"/>
      <use xlink:href="#DejaVuSans-72" x="234.541016"/>
      <use xlink:href="#DejaVuSans-69" x="275.654297"/>
      <use xlink:href="#DejaVuSans-67" x="303.4375"/>
      <use xlink:href="#DejaVuSans-69" x="366.914062"/>
      <use xlink:href="#DejaVuSans-6e" x="394.697266"/>
      <use xlink:href="#DejaVuSans-67" x="458.076172"/>
     </g>
    </g>
    <g id="line2d_53">
     <path d="M 452.018125 16.918125 
L 464.018125 16.918125 
L 476.018125 16.918125 
" style="fill: none; stroke: #997700; stroke-width: 2; stroke-linecap: square"/>
    </g>
    <g id="text_41">
     <!-- Scaled Kriging -->
     <g transform="translate(485.618125 21.118125) scale(0.12 -0.12)">
      <use xlink:href="#DejaVuSans-53"/>
      <use xlink:href="#DejaVuSans-63" x="63.476562"/>
      <use xlink:href="#DejaVuSans-61" x="118.457031"/>
      <use xlink:href="#DejaVuSans-6c" x="179.736328"/>
      <use xlink:href="#DejaVuSans-65" x="207.519531"/>
      <use xlink:href="#DejaVuSans-64" x="269.042969"/>
      <use xlink:href="#DejaVuSans-20" x="332.519531"/>
      <use xlink:href="#DejaVuSans-4b" x="364.306641"/>
      <use xlink:href="#DejaVuSans-72" x="429.882812"/>
      <use xlink:href="#DejaVuSans-69" x="470.996094"/>
      <use xlink:href="#DejaVuSans-67" x="498.779297"/>
      <use xlink:href="#DejaVuSans-69" x="562.255859"/>
      <use xlink:href="#DejaVuSans-6e" x="590.039062"/>
      <use xlink:href="#DejaVuSans-67" x="653.417969"/>
     </g>
    </g>
    <g id="line2d_54">
     <path d="M 595.64875 16.918125 
L 607.64875 16.918125 
L 619.64875 16.918125 
" style="fill: none; stroke: #cc3311; stroke-width: 2; stroke-linecap: square"/>
    </g>
    <g id="text_42">
     <!-- MF-RBF-Kriging -->
     <g transform="translate(629.24875 21.118125) scale(0.12 -0.12)">
      <defs>
       <path id="DejaVuSans-42" d="M 1259 2228 
L 1259 519 
L 2272 519 
Q 2781 519 3026 730 
Q 3272 941 3272 1375 
Q 3272 1813 3026 2020 
Q 2781 2228 2272 2228 
L 1259 2228 
z
M 1259 4147 
L 1259 2741 
L 2194 2741 
Q 2656 2741 2882 2914 
Q 3109 3088 3109 3444 
Q 3109 3797 2882 3972 
Q 2656 4147 2194 4147 
L 1259 4147 
z
M 628 4666 
L 2241 4666 
Q 2963 4666 3353 4366 
Q 3744 4066 3744 3513 
Q 3744 3084 3544 2831 
Q 3344 2578 2956 2516 
Q 3422 2416 3680 2098 
Q 3938 1781 3938 1306 
Q 3938 681 3513 340 
Q 3088 0 2303 0 
L 628 0 
L 628 4666 
z
" transform="scale(0.015625)"/>
      </defs>
      <use xlink:href="#DejaVuSans-4d"/>
      <use xlink:href="#DejaVuSans-46" x="86.279297"/>
      <use xlink:href="#DejaVuSans-2d" x="143.798828"/>
      <use xlink:href="#DejaVuSans-52" x="179.882812"/>
      <use xlink:href="#DejaVuSans-42" x="249.365234"/>
      <use xlink:href="#DejaVuSans-46" x="317.96875"/>
      <use xlink:href="#DejaVuSans-2d" x="375.488281"/>
      <use xlink:href="#DejaVuSans-4b" x="411.572266"/>
      <use xlink:href="#DejaVuSans-72" x="477.148438"/>
      <use xlink:href="#DejaVuSans-69" x="518.261719"/>
      <use xlink:href="#DejaVuSans-67" x="546.044922"/>
      <use xlink:href="#DejaVuSans-69" x="609.521484"/>
      <use xlink:href="#DejaVuSans-6e" x="637.304688"/>
      <use xlink:href="#DejaVuSans-67" x="700.683594"/>
     </g>
    </g>
   </g>
  </g>
 </g>
 <defs>
  <clipPath id="p9d0058ce7e">
   <rect x="54.01375" y="39" width="304.363636" height="126"/>
  </clipPath>
  <clipPath id="pde46e39dce">
   <rect x="419.250114" y="39" width="304.363636" height="126"/>
  </clipPath>
  <clipPath id="p0c6b1ba6bd">
   <rect x="54.01375" y="190.2" width="304.363636" height="126"/>
  </clipPath>
  <clipPath id="p2c7a80f978">
   <rect x="419.250114" y="190.2" width="304.363636" height="126"/>
  </clipPath>
 </defs>
</svg>
